<svg id="Layer_1" data-name="Layer 1" xmlns="http://www.w3.org/2000/svg" viewBox="0 0 512 512"><defs><style>.cls-1{fill:#1f8c3e;}.cls-2{fill:#40c168;}</style></defs><title>network-flat</title><path class="cls-1" d="M256,64a76.8,76.8,0,0,0-76.8,76.8A12.8,12.8,0,0,0,192,153.6H320a12.8,12.8,0,0,0,12.8-12.8A76.8,76.8,0,0,0,256,64Z"/><circle class="cls-2" cx="256" cy="51.2" r="51.2"/><path class="cls-1" d="M76.8,422.4A76.8,76.8,0,0,0,0,499.2,12.8,12.8,0,0,0,12.8,512h128a12.8,12.8,0,0,0,12.8-12.8A76.8,76.8,0,0,0,76.8,422.4Z"/><circle class="cls-2" cx="76.8" cy="409.6" r="51.2"/><path class="cls-1" d="M435.2,422.4a76.8,76.8,0,0,0-76.8,76.8A12.8,12.8,0,0,0,371.2,512h128A12.8,12.8,0,0,0,512,499.2,76.8,76.8,0,0,0,435.2,422.4Z"/><circle class="cls-2" cx="435.2" cy="409.6" r="51.2"/><path class="cls-2" d="M353,335.18,268.8,275V204.8a12.8,12.8,0,0,0-25.6,0V275L159,335.18A12.8,12.8,0,0,0,173.84,356L256,297.33,338.16,356A12.8,12.8,0,1,0,353,335.18Z"/></svg>