<svg id="Layer_1" data-name="Layer 1" xmlns="http://www.w3.org/2000/svg" viewBox="0 0 512 512"><defs><style>.cls-1{fill:#707070;}</style></defs><title>network-handdrawn</title><path class="cls-1" d="M339.35,328.39l4.72,3.37L343,328.45l1,.56c-2.7-2.17-.78-1.91-2.9-3.81l2.42,1.33c-.57-.75-1.32-1.54-.63-1.61.54-.05-.58-1.42-.8-2.09-.09-.27.41-.17.42-.4a1.17,1.17,0,0,0-.41-1.07c-1.13-.93-1.28-1.9-3.45-2.83a5.81,5.81,0,0,1-.9-.61,79.72,79.72,0,0,0-9.08-6.36c-2-1.25-4.23-2.83-6.28-4.33-2.43-1.77-4.74-3.65-7.17-5.42-2.8-2-5.67-4-8.51-6.05a17.82,17.82,0,0,1-1.58-1.22,36.67,36.67,0,0,0-8.64-5.82c-1-.47-2.74-1.66-4.14-2.52l.24-.06a4.29,4.29,0,0,0-1-1.55,19.63,19.63,0,0,0-4.45-2.95c-1.17-.55-2.87-1.72-4.53-2.74l0,1c-4.55-3.08-3.24-1.1-3.47-.39-1.67-1.29-3.15-2.52-4.69-3.59a52.06,52.06,0,0,0-7.26-4.66c-.53-.24-1.63-1.19-2.41-1.67s-1.51-.79-2.26-1.18l.94,1.22c-1.62-.76-2.59-.95-1.58.46.23.32-.25.26-.28.45-.1.51.2,1.34,2.94,3.44,1.43,1.09,2.52,3.18,1.72,3.22-1.17.07.58,2.17,3.46,4.18,1.6,1.11,3.19,2.26,4.75,3.42a3.21,3.21,0,0,1,.75.91,24.46,24.46,0,0,0,5.11,4.57,5.91,5.91,0,0,0,1,.56c1.42.43,1.4.41,2.82,1.94-1.15-.26-2.29-.55-3.29-.72-.38-.06-.44.15-.64.24,1.08.77,2.15,1.56,3.23,2.31.37.26.82.39,1.16.64q6.63,4.86,13.23,9.75c.19.14.34.29.51.44,0,0-.09.07-.12,0q-5.38-3.74-10.75-7.5c-1.1-.77-2.15-1.61-3.24-2.4-2.15-1.57-2.88-1.86-3-1.05-1.12-1-2-1.73-2.89-2.5-.61-.51-1.24-1.05-1.91-1.55-3.09-2.28-5.69-4.52-8.22-6.78-.85-.76-2.12-1.63-3.2-2.44-1.68-1.27-3.4-2.54-5-3.82s-2.85-2-3.35-2c0-1.1.32-1.82.82-1.54l.21-8-.09.17a8,8,0,0,1-.18-1.19c0-2.7,0-5.4,0-8.1,0-.36,0-.73,0-1.07-.09-1.39-.07-1.79.26-1.63.62.28.69-1.27.85-2.35.42-2.85.63-5.93.87-9,.2-2.44.17-5,.49-7.38a13.73,13.73,0,0,0,0-1.57c0-2.16-.36-4.21-.15-6.44a2.76,2.76,0,0,0-.25-1.15,2.37,2.37,0,0,0-.76-.57l-.12-1.53-.24.49c.07-1.25.17-2.31.16-3.35s-.16-2-.25-3.19l.37-.19-.06-2.5-.12.56c-.32,0-.61-.31-.81,0a5.73,5.73,0,0,0-.3,1.86c0,.72,0,1-.29,1.24a6.43,6.43,0,0,0-.51,1.71c-.41,1.48-1,1-1.47,1.08a2.08,2.08,0,0,1-.62-.09l-.23-1.23-.34,2,.32-.12a5.62,5.62,0,0,1,0,.91,22.57,22.57,0,0,1-1.13,2.78c-.55,1-1.23-1.16-1.29-2.82-.08-2.1,0-4.24-.05-6.37a24.42,24.42,0,0,0-.1-2.67l-.22,4.26h-.14c0-.47-.07-.95-.07-1.42a4.88,4.88,0,0,0-.32-2.2,6,6,0,0,1-.25-2.6c.06-1.44.33-3.43-.25-4.46-.22-.39-.56-.06-.84-.06v-4l-2.08,1.95-.14-.81c-.2,2.41-1.1,1.21-1.41,3.19l-.32-1.91c-.28.63-.49,1.37-.94,1s-.81.91-1.24,1.3c-.17.16-.38-.16-.56-.08s-.59.26-.63.67c-.1,1-.81,1.5-.3,3.11a2.77,2.77,0,0,1,0,.76,38.88,38.88,0,0,0,.1,7.73,48.94,48.94,0,0,1,.13,5.32c0,2.1-.21,4.17-.25,6.27,0,2.42,0,4.85,0,7.28a8.72,8.72,0,0,1-.07,1.39,18,18,0,0,0,.29,7.26,24.77,24.77,0,0,1,.35,3.37l-.19-.11c-.24.38-.6.59-.68,1.19a9.63,9.63,0,0,0,.19,3.72,31.18,31.18,0,0,1,.41,3.68l.8-.37c.13,3.83,1,2.28,1.7,2.13-.08,1.47-.22,2.81-.2,4.12a25.52,25.52,0,0,0,.43,6c.11.4,0,1.41,0,2a15.45,15.45,0,0,0,.35,1.76l.45-1c.32,1.22.74,1.86,1.29.71.13-.26.35,0,.53,0,.47-.15,1-.66,1.09-3.06.06-1.25,1.12-2.72,1.62-2.28.74.64,1.42-1.21,1.39-3.66,0-1.36,0-2.73,0-4.08a1.75,1.75,0,0,1,.3-.79,12.21,12.21,0,0,0,.75-4.75,3,3,0,0,0-.13-.8c-.47-1-.48-1-.06-2.39.46.76.89,1.52,1.33,2.16.17.24.38.19.57.27,0-.92,0-1.85,0-2.77,0-.32-.16-.63-.15-.92q.11-5.73.24-11.46a4.06,4.06,0,0,1,.06-.47s.11,0,.11,0c.05,3,.11,6.09.14,9.14,0,.93-.06,1.87-.07,2.81,0,1.86.16,2.39.91,2.15-.14,1-.25,1.83-.35,2.65-.07.55-.14,1.13-.15,1.71a53.38,53.38,0,0,1-.74,7.41,27.36,27.36,0,0,0-.13,2.81c-.06,1.47-.09,3-.18,4.41-.15,2.31.12,3.2.81,2.76a9.93,9.93,0,0,1,1.37-.65c0,.07-.12.12-.1.26a7.13,7.13,0,0,1,0,1.37c-.05-.07-.08-.16-.22-.19a12.68,12.68,0,0,1-1.83-.67c-1.32.89-2.33,1.28-2.29.63l-9.46,6.5.25-.07a16.09,16.09,0,0,1-1.28,1.14q-4.71,3.4-9.45,6.76c-.42.3-.87.59-1.25.89-1.57,1.23-2,1.55-2.06,1.15,0-.74-1.88.5-3.23,1.27-3.57,2-7.28,4.43-11,6.78-3,1.88-6,4.06-8.89,5.75-.56.33-1.23.84-1.85,1.27-2.53,1.78-4.7,3.8-7.43,5.49A5.47,5.47,0,0,0,195,315a2.7,2.7,0,0,0-.23,1.1l-1.72,1.37.71-.21c-1.49,1-2.79,1.78-4,2.66s-2.3,1.84-3.57,2.86l-.44-.14-2.89,2.14.72-.36c.15.29,0,.75.47.66a11.44,11.44,0,0,0,2.34-1.31c.86-.58,1.21-.85,1.62-.8a12.27,12.27,0,0,0,2.29-1c2-.9,1.71,0,2.12.29.14.12.16.34.26.57l-1.3,1.21,2.56-1.42-.33-.17a11.52,11.52,0,0,1,1.07-.75c1.35-.52,2.81-1.12,3.9-1.4,1.47-.37-.64,2-2.54,3.4-2.4,1.81-4.93,3.57-7.4,5.35-1,.73-2,1.46-3.06,2.31l5.1-3.37.08.12c-.54.41-1.06.85-1.61,1.24a9.79,9.79,0,0,0-2.38,2.1,12.17,12.17,0,0,1-2.89,2.37c-1.72,1.16-4.2,2.59-5.06,3.92-.32.5.25.51.41.73l-4.72,3.37,3.48.07-.86.79c2.93-1.85,2.06-.12,4.54-1.5l-2,1.86c.9-.3,1.89-.75,1.73-.08s1.53-.09,2.24-.08c.28,0,0,.45.24.52a1.17,1.17,0,0,0,1.15,0c1.25-.77,2.22-.59,3.8-2.34a5.7,5.7,0,0,1,.87-.65,79.81,79.81,0,0,0,9-6.53c1.84-1.51,4.05-3.08,6.13-4.54,2.46-1.72,5-3.3,7.45-5,2.85-2,5.65-4.06,8.48-6.09a17.89,17.89,0,0,1,1.66-1.1,36.7,36.7,0,0,0,8.31-6.29c.78-.84,2.46-2.05,3.73-3.1l0,.25a4.31,4.31,0,0,0,1.79-.44,19.63,19.63,0,0,0,4.23-3.25c.9-.93,2.56-2.15,4.06-3.4l-.9-.34c4.39-3.3,2.09-2.71,1.49-3.15,1.76-1.16,3.4-2.16,4.92-3.27a52.1,52.1,0,0,0,6.76-5.36c.4-.42,1.65-1.15,2.36-1.74s1.24-1.17,1.85-1.75l-1.46.5c1.24-1.28,1.74-2.15.08-1.64-.38.12-.16-.32-.33-.41-.45-.26-1.34-.24-4.21,1.67-1.5,1-3.82,1.36-3.6.58.32-1.13-2.24-.15-5.07,1.92-1.57,1.15-3.17,2.29-4.77,3.38a3.23,3.23,0,0,1-1.1.42,24.47,24.47,0,0,0-6,3.35,5.93,5.93,0,0,0-.85.77c-.87,1.2-.85,1.19-2.75,2,.62-1,1.26-2,1.74-2.88.18-.34,0-.46,0-.69-1.08.77-2.17,1.53-3.23,2.31-.37.27-.64.65-1,.89q-6.75,4.69-13.51,9.35c-.19.13-.39.23-.58.34,0-.05,0-.11,0-.12q5.29-3.87,10.58-7.74c1.08-.79,2.22-1.52,3.32-2.29,2.18-1.53,2.69-2.12,2-2.53,1.28-.75,2.28-1.32,3.3-1.93.68-.41,1.4-.83,2.08-1.3,3.16-2.18,6.12-3.92,9.08-5.58,1-.56,2.23-1.48,3.35-2.24,1.75-1.18,3.5-2.39,5.25-3.52s2.74-2,3-2.44c0,.09,0,.16,0,.25,1.27,1,2,1.79,1.34,2l9.22,6.84-.14-.22a16,16,0,0,1,1.49.84c3.16,2.24,6.31,4.49,9.46,6.75.42.3.84.63,1.25.89,1.68,1.09,2.13,1.43,1.76,1.57-.69.27,1.08,1.62,2.25,2.65,3.08,2.72,6.55,5.45,10,8.2,2.74,2.19,5.78,4.34,8.32,6.55.49.43,1.19.9,1.8,1.34,2.5,1.81,5.12,3.22,7.6,5.25a5.44,5.44,0,0,0,1.49.75,2.67,2.67,0,0,0,1.11-.14l1.85,1.18-.43-.6c1.42,1.09,2.59,2.06,3.81,2.92s2.48,1.58,3.87,2.45c0,.17,0,.29,0,.46l3,2-.58-.56c.22-.23.72-.24.47-.66a11.49,11.49,0,0,0-2-1.79c-.83-.62-1.19-.87-1.28-1.27a12.32,12.32,0,0,0-1.69-1.84c-1.48-1.57-.6-1.61-.41-2.1.07-.17.27-.25.46-.43l1.57.83-2.17-2-.05.36a11.73,11.73,0,0,1-1.06-.76c-.93-1.11-2-2.29-2.59-3.24-.83-1.27,2.06,0,4,1.3,2.49,1.68,5,3.5,7.46,5.26,1,.72,2,1.46,3.18,2.14L325.73,321l.09-.12c.56.37,1.14.73,1.69,1.12a9.8,9.8,0,0,0,2.75,1.57,12.2,12.2,0,0,1,3.18,2c1.65,1.25,3.81,3.13,5.35,3.51C339.37,329.16,339.19,328.62,339.35,328.39Zm-93.69-109.7a2.25,2.25,0,0,1-.37-.84c0-.94,0-1.91,0-2.87,0-.57.07-1.13.08-1.7a9.62,9.62,0,0,0-.1-1l.2-.13.31,6.25Zm9,19a9.49,9.49,0,0,1,.11-4.41l0,1.82,0,0,.15-1.35a13,13,0,0,1,.14,1.75C255,236.32,254.82,237,254.68,237.71Zm-61.06,95.71c-1.07.81-2.24,1.58-3.37,2.36-.68.46-1.37.89-2,1.36-.4.28-.76.62-1.14.93l-.27-.06,7.12-5.46.46-.13A4,4,0,0,1,193.62,333.43Zm12.5-20.6,2.14-1.48,0-.07-1.67,1c1-.82,1.56-1.35,2-1.58,1-.56,1.85-1,2.76-1.46A19.34,19.34,0,0,1,206.13,312.82ZM305.7,311c-1.11-.69-1.78-1-2.12-1.34-.84-.73-1.53-1.43-2.28-2.14a19.38,19.38,0,0,1,5.08,3.77l-2.09-1.55h-.08Zm23.3,5.43-.27-.39a4.08,4.08,0,0,1,1.2.4c1.11.75,2.22,1.6,3.32,2.42.66.49,1.28,1,1.94,1.48.39.28.83.52,1.25.77l0,.27Zm-16.88,13.91a21.23,21.23,0,0,1,.55,3c0,.16-.59,0-1.07-.26-2.4-1.12-4.68-3.13-7-4.79-1.77-1.28-1.89-1.59-.81-1.31.32.09.22-.22.32-.34a19.28,19.28,0,0,0-1.8-1.25,18.36,18.36,0,0,0-2.09-.75l-4.89-4.3a3.32,3.32,0,0,1-.59-.63c-.72-1.39,2.59-.15,5.49,1.93,3.2,2.3,6.48,4.53,9.72,6.71C311.33,329.34,312,329.91,312.12,330.37Zm-17.55-17.21c-.94-.27-2.5-1-2.87-.87-.76.31-2.67-1.31-4.12-2.21a5,5,0,0,1-2.1-2,11.49,11.49,0,0,0-1.57-2.26,10.62,10.62,0,0,0-1.92-1.5c-2.55-1.21-4.6-3.16-6.46-4.45.64,0,1.24,0,1.77,0s1.1-.09,1.66-.14c1.21.89,2.69,2.1,4.05,2.95a36.91,36.91,0,0,1,4.53,3.55c2.18,1.81,4.5,3.62,7,5.61A7.13,7.13,0,0,1,295,313C295.09,313.21,294.87,313.25,294.56,313.16Zm35.15,30.43c1.85,2.05.29,2.18-2.71.59-3.2-1.7-6.19-4.12-9.27-6.19-.81-.55-1.62-1.16-2.44-1.74l-.17-.34,8.71,4,.41.41-.21-.69c1.53,1,2.93,1.86,4.31,2.8A8.86,8.86,0,0,1,329.72,343.59ZM268.62,228.34a9.51,9.51,0,0,0,0,1.53,10,10,0,0,0,.6,1.49c-.22,1.56-.43,3-.65,4.52a1.72,1.72,0,0,1-.17.59c-.71,1-1.63-1.41-1.62-3.9,0-2.75-.08-5.51-.19-8.24,0-1.14,0-1.76.34-2a19.21,19.21,0,0,1,2.15-1.54c.12-.07.31.35.41.71.48,1.82.17,3.92.16,5.9,0,1.52-.2,1.72-.59,1C269,228.16,268.78,228.34,268.62,228.34Zm-5.2,19.93a5.22,5.22,0,0,0-.11,1.7c.5,1.94.11,3.89.13,5.47-.37-.37-.69-.71-1-1s-.71-.59-1.08-.89a33.6,33.6,0,0,0,0-3.49,18,18,0,0,1,.26-4c.2-2,.33-4,.51-6.24a4.94,4.94,0,0,1,.63-.75c.12-.1.28,0,.39.22.33.64.62,1.83,1,2,.7.31.48,2,.6,3.23a2.58,2.58,0,0,1-.37,2A6.66,6.66,0,0,0,263.43,248.27Zm6.47-30.14-.18.23-1.83-6.56.09-.4-.44.4c-.09-1.27-.19-2.41-.23-3.58a4.38,4.38,0,0,1,.17-1.25c.6-1.88,1.61-1,2.06,1.3s.24,5.18.35,7.77C269.92,216.72,269.9,217.43,269.9,218.13Zm-72.71-49.25L214,169l38.83,0,7.42.07c12.54.42,28.75.26,38.72-.29,2.09-.11,5.06-.17,8.27-.22l4.91-.06,2.92,0a31.37,31.37,0,0,0,4.5-.28l-1.12.32c3.88-.27,6.26-.19,11.72-3.21a25.71,25.71,0,0,0,12.21-24.44l-.25-3.38-.27-3c-.93-5.52-2.36-14.63-5.85-22.54l.05,2.47c-4.3-11.23-6.91-13.93-7.31-14.18s.52,2.24.45,2.82a85.4,85.4,0,0,0-15.13-20.15c-.27-.27-.58-.51-.86-.77A37.69,37.69,0,0,0,315.67,71c-.07-1.46-.73-.15-2.27,4.51l-1.94,5.05a82.64,82.64,0,0,0-15.19-10.64A40,40,0,0,0,298,58.32a44.72,44.72,0,0,1-2.69,6.73l.28-2.79c-.65,4.13-1.22,5.07-1.74,5.81a24.74,24.74,0,0,0-2.17,4.34,43.1,43.1,0,0,0,1.54-6.16c-.82,2-1.59,4.24-1.73,3,0-.95-1.74,2.49-2.58,3.43-.38.37-.12-.61-.41-.43A3.25,3.25,0,0,0,287,73.77c-1.51,2.7-2.76,3.57-5.46,7.54A16.65,16.65,0,0,1,280,83a38.84,38.84,0,0,1-20.5,9.84A32.37,32.37,0,0,1,243.72,91a35.28,35.28,0,0,1-22.54-31,20.43,20.43,0,0,1,.11-4.17,46.76,46.76,0,0,1,2.82-10.92,52.64,52.64,0,0,1,5-9,33,33,0,0,1,7.41-7l-.2.33a18.16,18.16,0,0,0,3.42-1.23,56.58,56.58,0,0,1,10.37-3.64c2.53-.8,7-.93,11-.44l-1-1c5.86.78,7.53,1.52,7.86,1.24s-.81-1.06-.95-1.49A38.25,38.25,0,0,1,278.62,29c5.29,4,9.37,9.92,12,15.08.27.59.65,1.67,1.08,2.83l.92,3.5a51,51,0,0,1,1.07,5.66,18.52,18.52,0,0,0,.1-3.44c.88,4,1.14,6.22,1.58,2.24.09-.91.36.09.53-.12s.43-.88.37-2.47A25.46,25.46,0,0,0,294.54,44c-1.36-4.24-3.43-9.27-2.17-8.17,1.8,1.83-.63-5.16-7.9-11.36A46.15,46.15,0,0,0,271,16.64c-1.06-.38-2.12-1-2.8-1.26a33.57,33.57,0,0,0-7.83-2.13,40.59,40.59,0,0,0-10.48,0c-1.11.19-2.53.45-3.07.6-3.62,1.4-3.54,1.2-8.91,2.81l3.92-2.17,3.83-1.68c.91-.42.66-.54.95-.78a46.36,46.36,0,0,0-10.71,3.5c-1.15.6-2.26,1.18-3.27,1.83a47.24,47.24,0,0,0-24.06,37.81l-.16,1.9c0-.07-.1-.11-.1-.19a47.26,47.26,0,0,1,15-33.36,46.64,46.64,0,0,1,9.36-6.75c3.38-1.78,5.64-2.73,6.91-3.28s1.47-.93.88-1.11a49.79,49.79,0,0,1,10.88-1.91,58.14,58.14,0,0,1,7.09.07,45,45,0,0,1,27.6,11.67,53.59,53.59,0,0,1,7.67,8.45,46.05,46.05,0,0,1,7.39,16.17,64.46,64.46,0,0,1,1.48,9.65c.23,1.85.49,2.33.8,1.42a33.46,33.46,0,0,1,1.45-3.28c-.35-4.71-.88-7.81-.1-6.73a50.59,50.59,0,0,0-17.87-29l.53.52-4.28-2.89a50.3,50.3,0,0,0-33.47-7.79c-1.52.25-3.14.4-4.57.75-5.85,1.47-7.34,2.41-6.87,1.77,1-1-5.56,1.18-9.61,3.79A50.87,50.87,0,0,0,205.14,46.2a52.76,52.76,0,0,0,.29,26.61l-3.61,2.73c-1,.8-2,1.65-3,2.49-1.3-2.81-1.81-3.91-1.57-1.6.07.41.37,1.37.69,2.35a81.94,81.94,0,0,0-23.92,36.36,88.13,88.13,0,0,0-3.68,16.13,66.47,66.47,0,0,0-.73,8.57,27.11,27.11,0,0,0,1.95,13.37A26.11,26.11,0,0,0,197.19,168.88Zm23.11-12.77,9.68,0,.22,0L223,156c4.85-.08,7.64-.19,9.33-.14l11.52.42C239.41,156.54,229.78,156.5,220.31,156.11Zm101.22-52.16a19.8,19.8,0,0,1,1.93,4c.65,1.81,2.56,6,4,10.91a92.81,92.81,0,0,1,3.14,14.48c.33,1.56.46,3.59.56,4.38a38,38,0,0,1,.58,6.25,14,14,0,0,1-3.21,8.1,14.74,14.74,0,0,0,2.1-6.79,28.44,28.44,0,0,0-.67-6.21c-.24-1.31-.43-1-.64-1.42,0,2.43.51,5.18,0,7.81a13.45,13.45,0,0,1-3.61,7,13.21,13.21,0,0,1-4.31,3.08c-2.55,1.15-5.53,1-8.15,1l-7.64,0-15.27-.06-30.54-.13-2.48-.06c.09,0,.14-.11.25-.11l48.75-.14,7.49,0c2.61.08,5.37,0,7.79-1.13a12,12,0,0,0,6.74-7.61c.45-1.84.17-2.3-.27-1.78.57-2.69.14-5.18.18-7.48a46.56,46.56,0,0,0-.61-6.64,60.31,60.31,0,0,0-1.84-9,77.1,77.1,0,0,0-17.4-30.61c.56-.89,1-1.82,1.55-2.74A70.17,70.17,0,0,1,321.53,103.95Zm-13.3-16.56c-.47.87-.94,1.75-1.46,2.61-.44-.45-.83-1-1.28-1.4a41.56,41.56,0,0,0-5.56-4.73,53.52,53.52,0,0,0-6.43-4.34c.51-.91,1-1.82,1.38-2.68a102.45,102.45,0,0,1,12.18,9.43C307.47,86.63,307.83,87,308.23,87.39Zm-39.86,6.73A41.54,41.54,0,0,0,276.8,90a38.9,38.9,0,0,0,4.45-3.42,17.38,17.38,0,0,0,2.33-2.44l.44-.18A38.51,38.51,0,0,1,266.89,95.2l-1,.1C266.71,95,267.39,94.53,268.37,94.12ZM202,88.28a81,81,0,0,0-14.4,18.92l-.12-.08c1.21-2.38,2.67-4.64,4-6.93,3-4.3,5.44-7.37,7.54-9.92a24.84,24.84,0,0,1,2.51-2.85Zm6.47-6.9a30,30,0,0,0,2.1,3.88,48.74,48.74,0,0,0,8.31,10.3,64,64,0,0,0-5,5,57.87,57.87,0,0,1-6-6.82,63,63,0,0,1-5-7.64l.24-.23,3-2.76Zm4.18-2.92a31.72,31.72,0,0,0,1.95,4c-.94-1.55-1.64-2.8-2.17-3.83Zm.06,0,.19-.13a50.75,50.75,0,0,0,2.91,5.83A45.79,45.79,0,0,1,212.76,78.42Zm-2.88-8.75-.2.13c-.16-.8-.33-1.59-.47-2.4C209.39,68,209.62,68.81,209.88,69.67Zm-8.16,10.5c1.45-1.42,3.15-2.58,4.74-3.87l.09.25c-2.08,1.57-4.09,3.23-6,5l-.1-.21Zm-17.78,21.21a62.57,62.57,0,0,1,4.76-7.26,60.56,60.56,0,0,1,5.57-6.76,55.51,55.51,0,0,1,5.06-5l.1.25a81.88,81.88,0,0,0-16.63,21.85l-1,1.63A22.89,22.89,0,0,1,183.94,101.38Zm-4,31.45A76,76,0,0,1,192.55,99.7c1.49-2,2.89-4,4.47-5.9s3.22-3.72,5-5.52a61.68,61.68,0,0,0,8,11.89c.7.69,1.49,1.36,2.35,2.06a59.06,59.06,0,0,0-8.5,13.33,5.43,5.43,0,0,1,.63-.79,65.74,65.74,0,0,1,5-7.44,48.72,48.72,0,0,1,3.77-4.39l2.9,2.3c1.27.93,4.19,3.33,6.56,4.77-.1.12.62.78-.44.27-3.44-1.87-2.84-.9,4.28,3.21,9.4,5,20.91,7.93,30.66,7,2-.18,4.18-.5,3.78-.6-2.37-.62-5.19-1.05-8.13-2-1.26-.34-4.41-.5-10.17-1.67a58.07,58.07,0,0,1-28-14.72,59.8,59.8,0,0,1,5.41-4.67,62.27,62.27,0,0,0,11.52,8.11,25.78,25.78,0,0,0,4.83,1.92,11,11,0,0,0,2.67.17,55.57,55.57,0,0,0,6.59,1.65,19.57,19.57,0,0,1-2-.72,47.24,47.24,0,0,0,14.66,1.48,46.56,46.56,0,0,0,13.73-2.89l.93.05a33.41,33.41,0,0,0,4.55-1.92,39.1,39.1,0,0,0,5.38-3l-2.16,1.17c0-.36.86-1.23-.39-.71-1,.39-4.66,2.24-7.45,3.11a14.23,14.23,0,0,1-5.19,1.3c-.66.08-4.71.66-7.27.8-6.3-.09-4.21-.75-4.61-1.24-.13-.17.2-.37.35-.63.37-.07,2-.12,5-.56a45.75,45.75,0,0,1-8.2-.11l.46.35a22.33,22.33,0,0,1-3.68-.3A39,39,0,0,1,239.36,101c-3.39-1.93,4.59.87,10.95,1.41a45.18,45.18,0,0,0,23.87-3.75,37.84,37.84,0,0,0,8.69-5.39,44.29,44.29,0,0,1-14.48,7.25l0-.14c1.69-.59,3.38-1.22,5-1.93a28.22,28.22,0,0,0,7.09-4.33,90.17,90.17,0,0,0,7.17-6.63,36,36,0,0,0,4.07-5.13,70.89,70.89,0,0,1,13,9.75l-.59-.66c.38.29.67.68,1,1-1.13,1.68-2.33,3.36-3.69,5a16.61,16.61,0,0,0,1.68-1.33,16.33,16.33,0,0,1-1.42,1.56,62,62,0,0,1-27.82,20.33,12.54,12.54,0,0,0,1.25-.22,66.72,66.72,0,0,0,10.39-4.45,63.42,63.42,0,0,0,21.31-19.25c.56.57,1.18,1.07,1.72,1.67A70.06,70.06,0,0,1,326,133.53a40,40,0,0,1,.51,5.54c.85,6.91-1,8.41-.83,7.63-.1-.77-.61.61-2,2.23a10.27,10.27,0,0,1-6.34,3.38l-47.11-.75-39.34-.49-8.35,0-17,.15-8.44.07a9.29,9.29,0,0,1-6-1.48,12.78,12.78,0,0,1-3.16-3.08c-.76-1-1.05-1.16-1.53-1.84-.52-1.84-.21-3.6-.15-6.89l-.37,2.47.3-4.62.71-4.3a71.17,71.17,0,0,1,1.83-8c.66-2.57,1.71-5,2.53-7.56,1.16-2.43,2.14-5,3.61-7.57l.84-.67a66.19,66.19,0,0,1,7.42-10.43,18.26,18.26,0,0,0-1.93,2.09c-.15-.34.49-1.67-.62-.52a49.87,49.87,0,0,0-5.73,7.8c-2.07,3.16-2.54,4.73-3.32,5.56a28.26,28.26,0,0,0-1.79,3.13l-2.08,5c-2.6,7.33-2.31,4.81-3,5.13-.22.13-.29-.34-.48-.61a46.41,46.41,0,0,1,1.7-6.44A72.19,72.19,0,0,0,182.59,129l.42-.57-.75,4.9a66.26,66.26,0,0,0-1.18,8.14,15.62,15.62,0,0,0,.8,8c1.37,2.79-.19,1.64-1.69-2.17a18.9,18.9,0,0,1-.76-7.29A44.7,44.7,0,0,1,179.89,132.83ZM202,142.25c3.44-.18,5.74-.43,7.94-.6l24.09.65c1.24,0,2.63.1,3.14.17,5.2.71-7.52,1.63-20.8,1.62l-19.68,0a2.76,2.76,0,0,1-2.09-1.12,2.72,2.72,0,0,1-.48-1.13,8.31,8.31,0,0,1,0-1.93,28.27,28.27,0,0,1,.63-6,15.63,15.63,0,0,1,.74-2.93,47.91,47.91,0,0,1,3.81-6.06,14.72,14.72,0,0,1-.42,3.08,47.64,47.64,0,0,0-1,6l-.45,3.12-.15,3.21c-.06,1-.07.54-.08.69l0,.06a.15.15,0,0,0,0,.12c.07.06.22.22-.05.62-.1.11-.09.3-.13.46h1.35Zm48.86,5.87c-.52-.12.09-.28,1.2-.39,3.43-.33,9.76-.62,10.56-1,1.63-.7,10.91-.48,17.24-.6a66.06,66.06,0,0,1,10.56.37c2.21.33,5.66.65,9.65.93,1.63.11,7.5.18,9.05.11l6.18-.24a5.71,5.71,0,0,0,5.16-7,15.3,15.3,0,0,1,1,3,7.73,7.73,0,0,1,0,3,7.31,7.31,0,0,1-4.47,3,12.89,12.89,0,0,1-2.87.18l-4.58,0c-8.64.15-14.38-.12-21.39-.26l-33.27-.51C254,148.61,252,148.38,250.88,148.13ZM199.25,52c-.56-1.57,1-10.15,3.39-15.59,1.9-4.65,3.53-7,4.87-8.51s3.46-4,6-6.53c1-1.12,4.85-4.77,5.92-5.7,6.84-6.57,16-10.24,23.42-11.95A43.63,43.63,0,0,0,238.47,6l-3.55,2.46A54.41,54.41,0,0,0,221,16.85,60.45,60.45,0,0,0,208.76,31a53.93,53.93,0,0,0-7.87,28c-.1.82-.25,2.6-.45,3.62-.09.47-.28-.05-.44-1.05C199.33,58.54,199.5,52.73,199.25,52ZM172.6,476.47l-.27-3C171.4,468,170,458.89,166.48,451l.05,2.47c-4.3-11.23-6.91-13.93-7.31-14.18s.52,2.24.45,2.82a85.37,85.37,0,0,0-15.13-20.15c-.27-.27-.58-.51-.86-.77a37.7,37.7,0,0,0,2.48-11.11c-.07-1.46-.73-.15-2.27,4.51l-1.94,5.05A82.64,82.64,0,0,0,126.75,409a40,40,0,0,0,1.68-11.62,44.72,44.72,0,0,1-2.69,6.73l.28-2.79c-.65,4.13-1.22,5.07-1.74,5.81a24.74,24.74,0,0,0-2.17,4.34,43.14,43.14,0,0,0,1.54-6.16c-.82,2-1.59,4.24-1.73,3,0-.95-1.74,2.49-2.58,3.43-.38.37-.12-.61-.41-.44a3.27,3.27,0,0,0-1.47,1.56c-1.51,2.7-2.76,3.57-5.46,7.54a16.57,16.57,0,0,1-1.52,1.68A38.85,38.85,0,0,1,90,431.86,32.37,32.37,0,0,1,74.21,430a35.28,35.28,0,0,1-22.54-31,20.44,20.44,0,0,1,.11-4.18,46.76,46.76,0,0,1,2.82-10.92,52.67,52.67,0,0,1,5-9,33,33,0,0,1,7.41-7l-.2.33A18.11,18.11,0,0,0,70.22,367a56.58,56.58,0,0,1,10.37-3.64c2.53-.8,7-.93,11-.44l-1-1c5.86.78,7.53,1.53,7.86,1.24s-.81-1.06-.95-1.49A38.22,38.22,0,0,1,109.1,368c5.29,4,9.37,9.91,12,15.08.27.59.65,1.67,1.08,2.83l.92,3.5a51,51,0,0,1,1.07,5.66,18.51,18.51,0,0,0,.1-3.44c.88,4,1.14,6.22,1.58,2.24.09-.91.36.09.53-.12s.43-.88.37-2.47a25.46,25.46,0,0,0-1.68-8.28c-1.36-4.24-3.43-9.27-2.17-8.17,1.8,1.83-.63-5.17-7.9-11.36a46.12,46.12,0,0,0-13.46-7.86c-1.06-.38-2.12-1-2.8-1.26a33.62,33.62,0,0,0-7.83-2.13,40.59,40.59,0,0,0-10.48,0c-1.11.19-2.53.45-3.07.6-3.62,1.4-3.54,1.2-8.91,2.81l3.92-2.17,3.83-1.68c.91-.42.66-.54.95-.78a46.47,46.47,0,0,0-10.71,3.5c-1.15.6-2.26,1.18-3.27,1.83a47.24,47.24,0,0,0-24.06,37.81l-.16,1.9c0-.07-.1-.11-.1-.19a47.26,47.26,0,0,1,15-33.36,46.58,46.58,0,0,1,9.36-6.75c3.38-1.78,5.64-2.73,6.91-3.28s1.47-.93.88-1.11a49.79,49.79,0,0,1,10.88-1.91,58.44,58.44,0,0,1,7.09.07,45,45,0,0,1,27.6,11.67,53.56,53.56,0,0,1,7.67,8.45,46.06,46.06,0,0,1,7.39,16.17,64.47,64.47,0,0,1,1.48,9.65c.23,1.85.49,2.33.8,1.42a33.48,33.48,0,0,1,1.45-3.28c-.35-4.71-.88-7.81-.1-6.73a50.59,50.59,0,0,0-17.87-29l.53.52-4.28-2.89a50.31,50.31,0,0,0-33.47-7.79c-1.52.25-3.14.4-4.57.75-5.85,1.47-7.34,2.41-6.87,1.77,1-1-5.56,1.18-9.61,3.79a50.86,50.86,0,0,0-23.48,31.24,52.76,52.76,0,0,0,.29,26.61l-3.61,2.73c-1,.8-2,1.65-3,2.49-1.3-2.82-1.81-3.91-1.57-1.6.07.41.37,1.37.69,2.35A81.93,81.93,0,0,0,4.56,454.16,88.13,88.13,0,0,0,.88,470.29a66.46,66.46,0,0,0-.73,8.57,27.11,27.11,0,0,0,1.95,13.37A26.11,26.11,0,0,0,27.68,507.9l16.79.12,38.83,0,7.42.07c12.54.43,28.75.26,38.72-.29,2.09-.12,5.06-.18,8.27-.22l4.91-.06,2.92,0a31.26,31.26,0,0,0,4.5-.28l-1.12.32c3.88-.27,6.26-.19,11.72-3.21a25.71,25.71,0,0,0,12.21-24.44Zm-33.89-50.06c-.47.87-.94,1.75-1.46,2.61-.44-.45-.83-1-1.28-1.4a41.67,41.67,0,0,0-5.56-4.73,53.42,53.42,0,0,0-6.43-4.34c.51-.91,1-1.81,1.38-2.67a102.17,102.17,0,0,1,12.19,9.42C138,425.65,138.32,426,138.71,426.41Zm-39.86,6.73a41.62,41.62,0,0,0,8.43-4.13,39.07,39.07,0,0,0,4.45-3.42,17.46,17.46,0,0,0,2.33-2.44l.44-.18a38.52,38.52,0,0,1-17.13,11.25l-1,.1C97.2,434,97.88,433.56,98.86,433.14Zm-66.33-5.84a81.08,81.08,0,0,0-14.4,18.92l-.12-.08c1.21-2.38,2.67-4.64,4-6.93,3-4.3,5.44-7.37,7.54-9.92a24.82,24.82,0,0,1,2.51-2.85ZM39,420.4a29.89,29.89,0,0,0,2.1,3.88,48.74,48.74,0,0,0,8.31,10.3,63.91,63.91,0,0,0-5,5,58,58,0,0,1-6-6.82,62.83,62.83,0,0,1-5-7.64l.24-.23,3-2.76Zm7.34,2.74a45.94,45.94,0,0,1-3.11-5.73l.19-.13A50.72,50.72,0,0,0,46.35,423.15Zm-3.17-5.69a31.87,31.87,0,0,0,2,4c-.94-1.56-1.65-2.82-2.18-3.86Zm-2.81-8.77-.2.13c-.16-.8-.33-1.58-.46-2.39C39.88,407,40.11,407.83,40.36,408.68ZM32.21,419.2c1.45-1.42,3.15-2.58,4.74-3.87l.09.25c-2.07,1.57-4.09,3.23-6,5l-.1-.21ZM14.42,440.41a62.63,62.63,0,0,1,4.76-7.26,60.5,60.5,0,0,1,5.57-6.76,55.51,55.51,0,0,1,5.06-5l.1.25a81.85,81.85,0,0,0-16.63,21.86l-1,1.63A22.88,22.88,0,0,1,14.42,440.41Zm36.37,54.73,9.68,0,.22,0L53.48,495c4.85-.08,7.64-.19,9.33-.14l11.52.42C69.9,495.56,60.27,495.52,50.79,495.14Zm10.57-5-8.35,0-17,.14-8.44.07a9.28,9.28,0,0,1-6-1.48,12.79,12.79,0,0,1-3.16-3.07c-.76-1-1.05-1.16-1.53-1.84-.52-1.84-.21-3.6-.15-6.89l-.37,2.47.3-4.62.71-4.3a71.06,71.06,0,0,1,1.83-8c.66-2.57,1.71-5,2.53-7.56,1.16-2.43,2.14-5,3.61-7.57l.84-.67a66.09,66.09,0,0,1,7.42-10.43,18.22,18.22,0,0,0-1.93,2.09c-.15-.34.49-1.67-.62-.52a49.89,49.89,0,0,0-5.73,7.8c-2.07,3.16-2.54,4.73-3.32,5.56a28.15,28.15,0,0,0-1.79,3.13l-2.08,5c-2.6,7.33-2.31,4.81-3,5.13-.22.13-.29-.34-.48-.61a46.45,46.45,0,0,1,1.7-6.44A72.16,72.16,0,0,0,13.08,468l.42-.57-.75,4.9a66.2,66.2,0,0,0-1.18,8.14,15.62,15.62,0,0,0,.8,8c1.37,2.78-.19,1.64-1.69-2.17A18.9,18.9,0,0,1,9.92,479a44.71,44.71,0,0,1,.46-7.16A76,76,0,0,1,23,438.73c1.49-2,2.89-4,4.47-5.9s3.22-3.72,5-5.52a61.65,61.65,0,0,0,8,11.89c.7.69,1.49,1.36,2.35,2.06a59,59,0,0,0-8.5,13.33,5.55,5.55,0,0,1,.63-.79,65.94,65.94,0,0,1,5-7.44,51.21,51.21,0,0,1,3.75-4.4l2.92,2.32c1.27.93,4.19,3.33,6.56,4.77-.1.12.62.78-.44.27-3.44-1.87-2.84-.9,4.28,3.21,9.4,5,20.91,7.93,30.66,7,2-.18,4.18-.5,3.78-.6-2.37-.62-5.19-1.05-8.13-2-1.26-.34-4.41-.5-10.17-1.67a58.06,58.06,0,0,1-28-14.74,59.08,59.08,0,0,1,5.41-4.67,62.27,62.27,0,0,0,11.54,8.13,25.63,25.63,0,0,0,4.83,1.92,11,11,0,0,0,2.67.17,55.44,55.44,0,0,0,6.59,1.65,19.44,19.44,0,0,1-2-.72,47.19,47.19,0,0,0,14.66,1.48,46.52,46.52,0,0,0,13.73-2.89l.93.05a33.51,33.51,0,0,0,4.55-1.92,39.17,39.17,0,0,0,5.38-3l-2.16,1.17c0-.36.86-1.23-.39-.71-1,.39-4.66,2.24-7.45,3.11a14.26,14.26,0,0,1-5.19,1.3c-.66.08-4.71.66-7.27.8-6.3-.09-4.21-.75-4.61-1.24-.13-.17.2-.37.35-.63.37-.07,2-.12,5-.56a45.74,45.74,0,0,1-8.2-.11l.46.35a22.45,22.45,0,0,1-3.68-.3,39.07,39.07,0,0,1-10.51-3.79c-3.39-1.93,4.59.87,10.95,1.41a45.19,45.19,0,0,0,23.87-3.75,37.85,37.85,0,0,0,8.69-5.39,44.29,44.29,0,0,1-14.48,7.25l0-.14c1.69-.59,3.38-1.22,5-1.93a28.24,28.24,0,0,0,7.09-4.33,90.17,90.17,0,0,0,7.17-6.63,36.09,36.09,0,0,0,4.09-5.16,71,71,0,0,1,13,9.77l-.59-.66c.38.29.67.68,1,1-1.13,1.68-2.32,3.36-3.69,5a16.49,16.49,0,0,0,1.68-1.33,16.25,16.25,0,0,1-1.42,1.56,62,62,0,0,1-27.82,20.33,12.55,12.55,0,0,0,1.25-.22A66.72,66.72,0,0,0,116,452.41a63.42,63.42,0,0,0,21.31-19.25c.56.57,1.18,1.07,1.72,1.67a70.06,70.06,0,0,1,17.43,37.74,40,40,0,0,1,.51,5.54c.85,6.91-1,8.41-.83,7.63-.1-.77-.61.61-2,2.23a10.26,10.26,0,0,1-6.34,3.38l-47.11-.75Zm97.65,1a14.74,14.74,0,0,0,2.1-6.79,28.43,28.43,0,0,0-.67-6.21c-.24-1.31-.43-1-.64-1.42,0,2.43.51,5.18,0,7.81a13.45,13.45,0,0,1-3.61,7,13.2,13.2,0,0,1-4.31,3.08c-2.55,1.15-5.53,1-8.15,1l-7.64,0-15.27-.06-30.54-.13-2.48-.06c.09,0,.14-.1.25-.11l48.75-.14,7.49,0c2.61.08,5.37,0,7.79-1.13a12,12,0,0,0,6.74-7.61c.45-1.84.17-2.3-.27-1.78.57-2.7.14-5.18.18-7.48a46.56,46.56,0,0,0-.61-6.64,60.32,60.32,0,0,0-1.84-9,77.1,77.1,0,0,0-17.4-30.61c.56-.9,1-1.82,1.55-2.74A70.16,70.16,0,0,1,152,443a19.78,19.78,0,0,1,1.93,4c.65,1.81,2.56,6,4,10.91a92.76,92.76,0,0,1,3.14,14.48c.33,1.56.46,3.59.56,4.38a38,38,0,0,1,.58,6.25A14,14,0,0,1,159,491.11Zm-112.14-8-19.68,0A2.76,2.76,0,0,1,25.1,482a2.72,2.72,0,0,1-.48-1.13,8.32,8.32,0,0,1,0-1.93,28.29,28.29,0,0,1,.63-6A15.65,15.65,0,0,1,26,470,48,48,0,0,1,29.81,464a14.71,14.71,0,0,1-.42,3.08,47.63,47.63,0,0,0-1,6l-.45,3.12-.15,3.21c-.06,1-.07.54-.08.69l0,.06a.15.15,0,0,0,0,.12c.07.06.22.22-.05.62-.1.11-.09.3-.13.46h1.35l3.63,0c3.44-.18,5.74-.43,7.94-.6l24.09.65c1.24,0,2.63.1,3.14.17C72.88,482.21,60.16,483.12,46.88,483.11Zm71.78,5.17-33.27-.51c-.92-.14-2.91-.38-4-.63-.52-.12.09-.28,1.2-.39,3.43-.33,9.76-.62,10.56-1,1.63-.7,10.91-.48,17.24-.6a66,66,0,0,1,10.56.37c2.21.33,5.66.65,9.65.93,1.63.11,7.5.18,9.05.11l6.18-.24a5.71,5.71,0,0,0,5.16-7,15.31,15.31,0,0,1,1,3,7.72,7.72,0,0,1,0,3,7.32,7.32,0,0,1-4.47,3,12.89,12.89,0,0,1-2.87.18l-4.58,0C131.41,488.68,125.68,488.42,118.66,488.28ZM29.74,391c-.56-1.57,1-10.15,3.39-15.59,1.9-4.65,3.53-7,4.87-8.51s3.46-4,6-6.53c1-1.12,4.85-4.77,5.92-5.7,6.84-6.57,16-10.24,23.42-11.95A43.77,43.77,0,0,0,69,345l-3.55,2.46a54.39,54.39,0,0,0-13.93,8.43A60.45,60.45,0,0,0,39.24,370a53.94,53.94,0,0,0-7.87,28c-.1.82-.25,2.6-.45,3.62-.09.47-.28-.05-.44-1.05C29.81,397.57,30,391.76,29.74,391Zm482.14,88.86-.25-3.38-.27-3c-.93-5.52-2.36-14.63-5.85-22.54l.05,2.47c-4.3-11.23-6.91-13.93-7.31-14.18s.52,2.24.45,2.82a85.36,85.36,0,0,0-15.13-20.15c-.27-.27-.58-.51-.86-.77a37.69,37.69,0,0,0,2.48-11.11c-.07-1.46-.73-.15-2.27,4.51l-1.94,5a82.82,82.82,0,0,0-15.18-10.66,40,40,0,0,0,1.67-11.59,44.72,44.72,0,0,1-2.69,6.73l.28-2.79c-.65,4.13-1.22,5.07-1.74,5.81a24.74,24.74,0,0,0-2.17,4.34,43.14,43.14,0,0,0,1.54-6.16c-.82,2-1.59,4.24-1.73,3,0-.95-1.74,2.49-2.58,3.43-.38.37-.12-.61-.41-.44a3.27,3.27,0,0,0-1.47,1.56c-1.51,2.7-2.76,3.57-5.46,7.54a16.57,16.57,0,0,1-1.52,1.68,38.85,38.85,0,0,1-20.5,9.84A32.37,32.37,0,0,1,413.23,430a35.28,35.28,0,0,1-22.54-31,20.44,20.44,0,0,1,.11-4.18,46.76,46.76,0,0,1,2.82-10.92,52.67,52.67,0,0,1,5-9,33,33,0,0,1,7.41-7l-.2.33a18.11,18.11,0,0,0,3.42-1.23,56.58,56.58,0,0,1,10.37-3.64c2.53-.8,7-.93,11-.44l-1-1c5.86.78,7.53,1.53,7.86,1.24s-.81-1.06-.95-1.49A38.22,38.22,0,0,1,448.13,368c5.29,4,9.37,9.91,12,15.08.27.59.65,1.67,1.08,2.83l.92,3.5a51,51,0,0,1,1.07,5.66,18.51,18.51,0,0,0,.1-3.44c.88,4,1.14,6.22,1.58,2.24.09-.91.36.09.53-.12s.43-.88.37-2.47a25.46,25.46,0,0,0-1.68-8.28c-1.36-4.24-3.43-9.27-2.17-8.17,1.8,1.83-.63-5.17-7.9-11.36a46.12,46.12,0,0,0-13.46-7.86c-1.06-.38-2.12-1-2.8-1.26a33.62,33.62,0,0,0-7.83-2.13,40.59,40.59,0,0,0-10.48,0c-1.11.19-2.53.45-3.07.6-3.62,1.4-3.54,1.2-8.91,2.81l3.92-2.17,3.83-1.68c.91-.42.66-.54.95-.78a46.47,46.47,0,0,0-10.71,3.5c-1.15.6-2.26,1.18-3.27,1.83a47.24,47.24,0,0,0-24.06,37.81l-.16,1.9c0-.07-.1-.11-.1-.19a47.26,47.26,0,0,1,15-33.36,46.58,46.58,0,0,1,9.36-6.75c3.38-1.78,5.64-2.73,6.91-3.28s1.47-.93.88-1.11a49.79,49.79,0,0,1,10.88-1.91,58.44,58.44,0,0,1,7.09.07,45,45,0,0,1,27.6,11.67,53.56,53.56,0,0,1,7.67,8.45,46.06,46.06,0,0,1,7.39,16.17,64.47,64.47,0,0,1,1.48,9.65c.23,1.85.49,2.33.8,1.42a33.48,33.48,0,0,1,1.45-3.28c-.35-4.71-.88-7.81-.1-6.73a50.59,50.59,0,0,0-17.87-29l.53.52-4.28-2.89a50.31,50.31,0,0,0-33.47-7.79c-1.52.25-3.14.4-4.57.75-5.85,1.47-7.34,2.41-6.87,1.77,1-1-5.56,1.18-9.61,3.79a50.86,50.86,0,0,0-23.48,31.24,52.76,52.76,0,0,0,.29,26.61l-3.61,2.73c-1,.8-2,1.65-3,2.49-1.3-2.82-1.81-3.91-1.57-1.6.07.41.37,1.37.69,2.35a81.93,81.93,0,0,0-23.92,36.36,88.13,88.13,0,0,0-3.68,16.13,66.46,66.46,0,0,0-.73,8.57,27.11,27.11,0,0,0,1.95,13.37,26.11,26.11,0,0,0,25.59,15.67l16.79.12,38.83,0,7.42.07c12.54.43,28.75.26,38.72-.29,2.09-.12,5.06-.18,8.27-.22l4.91-.06,2.92,0a31.26,31.26,0,0,0,4.5-.28l-1.12.32c3.88-.27,6.26-.19,11.72-3.21a25.71,25.71,0,0,0,12.21-24.44Zm-34.13-53.44c-.47.87-.94,1.75-1.46,2.61-.44-.45-.83-1-1.28-1.4a41.67,41.67,0,0,0-5.56-4.73,53.42,53.42,0,0,0-6.43-4.34c.51-.91,1-1.82,1.38-2.68a101.27,101.27,0,0,1,12.19,9.42C477,425.65,477.35,426,477.74,426.41Zm-39.86,6.73a41.62,41.62,0,0,0,8.43-4.13,39.07,39.07,0,0,0,4.45-3.42,17.46,17.46,0,0,0,2.33-2.44l.44-.18a38.52,38.52,0,0,1-17.13,11.25l-1,.1C436.22,434,436.91,433.56,437.89,433.14Zm-66.33-5.84a81.08,81.08,0,0,0-14.4,18.92l-.12-.08c1.21-2.38,2.67-4.64,4-6.93,3-4.3,5.44-7.37,7.54-9.92a24.82,24.82,0,0,1,2.51-2.85Zm6.47-6.9a29.89,29.89,0,0,0,2.1,3.88,48.74,48.74,0,0,0,8.31,10.3,63.91,63.91,0,0,0-5,5,58,58,0,0,1-6-6.82,62.83,62.83,0,0,1-5-7.64l.24-.23,3-2.76Zm4.18-2.92a31.78,31.78,0,0,0,1.95,4c-.94-1.55-1.64-2.8-2.17-3.83Zm.06,0,.19-.13a50.79,50.79,0,0,0,2.91,5.83A46,46,0,0,1,382.27,417.44Zm-2.89-8.76-.2.12c-.16-.79-.33-1.58-.46-2.39C378.9,407,379.13,407.83,379.39,408.69Zm-8.16,10.51c1.45-1.42,3.15-2.58,4.74-3.87l.09.25c-2.07,1.57-4.09,3.23-6,5l-.1-.21Zm-17.78,21.21a62.63,62.63,0,0,1,4.76-7.26,60.5,60.5,0,0,1,5.57-6.76,55.51,55.51,0,0,1,5.06-5l.1.25a81.85,81.85,0,0,0-16.63,21.86l-1,1.63A22.88,22.88,0,0,1,353.45,440.41Zm36.37,54.73,9.68,0,.22,0L392.5,495c4.85-.08,7.64-.19,9.33-.14l11.52.42C408.92,495.56,399.29,495.52,389.82,495.14Zm10.57-5-8.35,0-17,.14-8.44.07a9.28,9.28,0,0,1-6-1.48,12.79,12.79,0,0,1-3.16-3.07c-.76-1-1.05-1.16-1.53-1.84-.52-1.84-.21-3.6-.15-6.89l-.37,2.47.3-4.62.71-4.3a71.06,71.06,0,0,1,1.83-8c.66-2.57,1.71-5,2.53-7.56,1.16-2.43,2.14-5,3.61-7.57l.84-.67a66.09,66.09,0,0,1,7.42-10.43,18.22,18.22,0,0,0-1.93,2.09c-.15-.34.49-1.67-.62-.52a49.89,49.89,0,0,0-5.73,7.8c-2.07,3.16-2.54,4.73-3.32,5.56a28.15,28.15,0,0,0-1.79,3.13l-2.08,5c-2.6,7.33-2.31,4.81-3,5.13-.22.13-.29-.34-.48-.61a46.45,46.45,0,0,1,1.7-6.44A72.16,72.16,0,0,0,352.11,468l.42-.57-.75,4.9a66.2,66.2,0,0,0-1.18,8.14,15.62,15.62,0,0,0,.8,8c1.37,2.78-.19,1.64-1.69-2.17a18.9,18.9,0,0,1-.76-7.29,44.71,44.71,0,0,1,.46-7.16,76,76,0,0,1,12.67-33.13c1.49-2,2.89-4,4.47-5.9s3.22-3.72,5-5.52a61.65,61.65,0,0,0,8,11.89c.7.69,1.49,1.36,2.35,2.06a59,59,0,0,0-8.5,13.33,5.55,5.55,0,0,1,.63-.79,65.94,65.94,0,0,1,5-7.44,49,49,0,0,1,3.77-4.38l2.9,2.3c1.27.93,4.19,3.33,6.56,4.77-.1.12.62.78-.44.27-3.44-1.87-2.84-.9,4.28,3.21,9.4,5,20.91,7.93,30.66,7,2-.18,4.18-.5,3.78-.6-2.37-.62-5.19-1.05-8.13-2-1.26-.34-4.41-.5-10.17-1.67a58.07,58.07,0,0,1-28-14.74,60.47,60.47,0,0,1,5.42-4.67,62.26,62.26,0,0,0,11.53,8.12,25.63,25.63,0,0,0,4.83,1.92,11,11,0,0,0,2.67.17,55.44,55.44,0,0,0,6.59,1.65,19.44,19.44,0,0,1-2-.72A47.19,47.19,0,0,0,428,448.43a46.52,46.52,0,0,0,13.73-2.89l.93.05a33.51,33.51,0,0,0,4.55-1.92,39.17,39.17,0,0,0,5.38-3l-2.16,1.17c0-.36.86-1.23-.39-.71-1,.39-4.66,2.24-7.45,3.11a14.26,14.26,0,0,1-5.19,1.3c-.66.08-4.71.66-7.27.8-6.3-.09-4.21-.75-4.61-1.24-.13-.17.2-.37.35-.63.37-.07,2-.12,5-.56a45.74,45.74,0,0,1-8.2-.11l.46.35a22.45,22.45,0,0,1-3.68-.3,39.07,39.07,0,0,1-10.51-3.79c-3.39-1.93,4.59.87,10.95,1.41a45.19,45.19,0,0,0,23.87-3.75,37.85,37.85,0,0,0,8.69-5.39,44.29,44.29,0,0,1-14.48,7.25l0-.14c1.69-.59,3.38-1.22,5-1.93a28.24,28.24,0,0,0,7.09-4.33,90.17,90.17,0,0,0,7.17-6.63,36.05,36.05,0,0,0,4.07-5.13,69.61,69.61,0,0,1,13,9.75l-.59-.66c.38.29.67.68,1,1-1.13,1.68-2.32,3.36-3.69,5a16.49,16.49,0,0,0,1.68-1.33,16.25,16.25,0,0,1-1.42,1.56,62,62,0,0,1-27.82,20.33,12.55,12.55,0,0,0,1.25-.22,66.72,66.72,0,0,0,10.39-4.45,63.42,63.42,0,0,0,21.31-19.25c.56.57,1.18,1.07,1.72,1.67a70.06,70.06,0,0,1,17.43,37.74,40,40,0,0,1,.51,5.54c.85,6.91-1,8.41-.83,7.63-.1-.77-.61.61-2,2.23a10.26,10.26,0,0,1-6.34,3.38l-47.11-.75Zm97.65,1a14.74,14.74,0,0,0,2.1-6.79,28.43,28.43,0,0,0-.67-6.21c-.24-1.31-.43-1-.64-1.42,0,2.43.51,5.18,0,7.81a13.45,13.45,0,0,1-3.61,7,13.2,13.2,0,0,1-4.31,3.08c-2.55,1.15-5.53,1-8.15,1l-7.64,0-15.27-.06-30.54-.13-2.48-.06c.09,0,.14-.1.25-.11l48.75-.14,7.49,0c2.61.08,5.37,0,7.79-1.13a12,12,0,0,0,6.74-7.61c.45-1.84.17-2.3-.27-1.78.57-2.7.14-5.18.18-7.48a46.56,46.56,0,0,0-.61-6.64,60.32,60.32,0,0,0-1.84-9A77.1,77.1,0,0,0,478,430.84c.56-.9,1-1.82,1.55-2.74A70.16,70.16,0,0,1,491,443a19.78,19.78,0,0,1,1.93,4c.65,1.81,2.56,6,4,10.91a92.76,92.76,0,0,1,3.14,14.48c.33,1.56.46,3.59.56,4.38a38,38,0,0,1,.58,6.25A14,14,0,0,1,498,491.11Zm-112.14-8-19.68,0a2.76,2.76,0,0,1-2.09-1.12,2.72,2.72,0,0,1-.48-1.13,8.32,8.32,0,0,1,0-1.93,28.29,28.29,0,0,1,.63-6A15.65,15.65,0,0,1,365,470a48,48,0,0,1,3.81-6.06,14.71,14.71,0,0,1-.42,3.08,47.63,47.63,0,0,0-1,6l-.45,3.12-.15,3.21c-.06,1-.07.54-.08.69l0,.06a.15.15,0,0,0,0,.12c.07.06.22.22-.05.62-.1.11-.09.3-.13.46h1.35l3.63,0c3.44-.18,5.74-.43,7.94-.6l24.09.65c1.24,0,2.63.1,3.14.17C411.91,482.21,399.19,483.12,385.9,483.11Zm71.78,5.17-33.27-.51c-.92-.14-2.91-.38-4-.63-.52-.12.09-.28,1.2-.39,3.43-.33,9.76-.62,10.56-1,1.63-.7,10.91-.48,17.24-.6a66,66,0,0,1,10.56.37c2.21.33,5.66.65,9.65.93,1.63.11,7.5.18,9.05.11l6.18-.24a5.71,5.71,0,0,0,5.16-7,15.31,15.31,0,0,1,1,3,7.72,7.72,0,0,1,0,3,7.32,7.32,0,0,1-4.47,3,12.89,12.89,0,0,1-2.87.18l-4.58,0C470.44,488.68,464.7,488.42,457.69,488.28ZM368.76,391c-.56-1.57,1-10.15,3.39-15.59,1.9-4.65,3.53-7,4.87-8.51s3.46-4,6-6.53c1-1.12,4.85-4.77,5.92-5.7,6.84-6.57,16-10.24,23.42-11.95A43.77,43.77,0,0,0,408,345l-3.55,2.46a54.39,54.39,0,0,0-13.93,8.43A60.45,60.45,0,0,0,378.27,370a53.94,53.94,0,0,0-7.87,28c-.1.82-.25,2.6-.45,3.62-.09.47-.28-.05-.44-1.05C368.84,397.57,369,391.76,368.76,391Zm-176.68-85.7c-.19.28.13.28.22.41a19.35,19.35,0,0,0,1.77-1.3,18.51,18.51,0,0,0,1.39-1.73l5.65-3.24a3.31,3.31,0,0,1,.78-.35c1.55-.23-.7,2.5-3.61,4.57-3.21,2.28-6.39,4.66-9.5,7-1.31,1-2.07,1.44-2.54,1.4a21.18,21.18,0,0,1-3.05-.46c-.15,0,.23-.54.59-.92,1.84-1.91,4.48-3.41,6.79-5C192.36,304.38,192.7,304.37,192.08,305.29Zm26.49-12a10.68,10.68,0,0,0,2-1.33c2-2,4.48-3.33,6.31-4.66-.21.6-.43,1.16-.59,1.67s-.27,1.07-.4,1.62c-1.24.86-2.86,1.87-4.1,2.88a36.86,36.86,0,0,1-4.83,3.14c-2.42,1.48-4.88,3.08-7.58,4.79a7.23,7.23,0,0,1-1.24.12c-.18,0-.14-.24,0-.5.56-.8,1.78-2,1.75-2.43,0-.83,2.11-2.1,3.42-3.19a5,5,0,0,1,2.53-1.35A11.54,11.54,0,0,0,218.57,293.32Zm-45.66,27,.73,0c-1.43,1.13-2.71,2.16-4,3.17a8.87,8.87,0,0,1-1.56.9c-2.54,1.08-2.16-.43.33-2.76,2.64-2.47,5.9-4.52,8.86-6.76.78-.59,1.62-1.16,2.43-1.74l.37-.05-6.59,7Z"/></svg>