<svg id="Layer_1" data-name="Layer 1" xmlns="http://www.w3.org/2000/svg" viewBox="0 0 512 512"><defs><style>.cls-1{fill:#cad8dd;}.cls-1,.cls-2,.cls-4{fill-rule:evenodd;}.cls-2{fill:#40c168;}.cls-3{opacity:0.12;}.cls-4,.cls-5{fill:#17292d;}</style></defs><title>scale-flat</title><path class="cls-1" d="M268.8,397.15V51.2H392.49L336,243.2h26.69L409.6,83.77,456.49,243.2h26.69l-56.47-192H499.2a12.8,12.8,0,1,0,0-25.6H268.8V12.8a12.8,12.8,0,0,0-25.6,0V25.6H12.8a12.8,12.8,0,1,0,0,25.6H85.29l-56.47,192H55.51L102.4,83.77,149.29,243.2H176l-56.47-192H243.2V397.15c-54.11,2.85-102.1,23.62-134.76,55-22.6,21.7-7.32,59.88,24,59.88h247.1c31.33,0,46.61-38.18,24-59.88C370.9,420.77,322.91,400,268.8,397.15Z"/><path class="cls-2" d="M204.8,243.2A102.4,102.4,0,0,1,0,243.2Z"/><path class="cls-2" d="M512,243.2a102.4,102.4,0,1,1-204.8,0Z"/><g class="cls-3"><path class="cls-4" d="M403.56,452.12C368.34,418.32,315.31,396.8,256,396.8s-112.34,21.52-147.56,55.32a35.67,35.67,0,0,0-6,7.71c27.73-23.66,60.65-37.44,96-37.44,55.14,0,104.44,33.37,137.17,85.8.76,1.21,1.37,2.52,2,3.8h41.94C410.88,512,426.17,473.82,403.56,452.12Z"/></g><g class="cls-3"><path class="cls-5" d="M128,243.2a102.38,102.38,0,0,1-64,94.89A102.32,102.32,0,0,0,204.8,243.2Z"/></g><g class="cls-3"><path class="cls-5" d="M435.2,243.2a102.38,102.38,0,0,1-64,94.89A102.32,102.32,0,0,0,512,243.2Z"/></g></svg>