<svg id="Layer_1" data-name="Layer 1" xmlns="http://www.w3.org/2000/svg" viewBox="0 0 512 512"><defs><style>.cls-1{fill:#40c168;}.cls-1,.cls-2,.cls-4,.cls-6{fill-rule:evenodd;}.cls-2{fill:#eff2f4;}.cls-3{opacity:0.14;}.cls-4,.cls-5{fill:#17292d;}.cls-6{fill:#141f38;}</style></defs><title>scale-filled</title><path class="cls-1" d="M102.4,332.8A89.74,89.74,0,0,1,13.71,256H191.09A89.74,89.74,0,0,1,102.4,332.8Z"/><path class="cls-1" d="M409.6,332.8A89.74,89.74,0,0,1,320.91,256H498.29A89.74,89.74,0,0,1,409.6,332.8Z"/><path class="cls-2" d="M132.45,499.2a22,22,0,0,1-15.15-37.84c34.27-32.9,84.83-51.76,138.7-51.76s104.43,18.86,138.7,51.76a22,22,0,0,1-15.15,37.84Z"/><g class="cls-3"><path class="cls-4" d="M403.56,452.12C368.34,418.32,315.31,396.8,256,396.8s-112.34,21.52-147.56,55.32a35.67,35.67,0,0,0-6,7.71c27.73-23.66,60.65-37.44,96-37.44,55.14,0,104.44,33.37,137.17,85.8.76,1.21,1.37,2.52,2,3.8h41.94C410.88,512,426.17,473.82,403.56,452.12Z"/></g><g class="cls-3"><path class="cls-5" d="M128,243.2a102.38,102.38,0,0,1-64,94.89A102.32,102.32,0,0,0,204.8,243.2Z"/></g><g class="cls-3"><path class="cls-5" d="M435.2,243.2a102.38,102.38,0,0,1-64,94.89A102.32,102.32,0,0,0,512,243.2Z"/></g><path class="cls-6" d="M426.71,51.2H499.2a12.8,12.8,0,1,0,0-25.6H268.8V12.8a12.8,12.8,0,0,0-25.6,0V25.6H12.8a12.8,12.8,0,1,0,0,25.6H85.29l-56.47,192H0a102.4,102.4,0,0,0,204.8,0H176l-56.47-192H243.2V397.15c-54.11,2.85-102.1,23.62-134.76,55-22.6,21.7-7.32,59.88,24,59.88h247.1c31.33,0,46.61-38.18,24-59.88-32.66-31.36-80.65-52.12-134.76-55V51.2H392.49L336,243.2H307.2a102.4,102.4,0,0,0,204.8,0H483.18ZM102.4,320A76.93,76.93,0,0,1,30,268.8H174.81A76.93,76.93,0,0,1,102.4,320ZM55.51,243.2,102.4,83.77,149.29,243.2ZM388,480.69a8.68,8.68,0,0,1-8.46,5.71H132.45a8.68,8.68,0,0,1-8.46-5.71,8.78,8.78,0,0,1,2.18-10.1C158.07,440,205.39,422.4,256,422.4S353.93,440,385.83,470.59A8.78,8.78,0,0,1,388,480.69ZM409.6,83.77,456.49,243.2H362.71Zm0,236.23a76.93,76.93,0,0,1-72.41-51.2H482A76.93,76.93,0,0,1,409.6,320Z"/></svg>