<svg id="Layer_1" data-name="Layer 1" xmlns="http://www.w3.org/2000/svg" viewBox="0 0 512 512"><defs><style>.cls-1{fill:#707070;}</style></defs><title>bank-handdrawn</title><path class="cls-1" d="M488.85,146.92a11.26,11.26,0,0,0-3.16-9.9,11.34,11.34,0,0,1,4.39,7.71,15.14,15.14,0,0,1-1.34,8.85,12.26,12.26,0,0,1-6.4,5,16.77,16.77,0,0,1-4.47.7l-6.61,0-26,0c-23.82.15-39.64-.13-59-.27l-91.74-.53-11.09-.66c-1.42-.12.24-.29,3.3-.4,9.45-.34,26.92-.65,29.11-1,4.5-.73,30.1-.51,47.54-.63,14.82-.11,23.29.06,29.12.39,6.1.35,15.61.69,26.61,1,4.49.12,20.67.19,25,.11l21.33-.24,10.52,0c.79,0,1.91,0,2.43,0s1-.11,1.52-.13a9.34,9.34,0,0,0,2.7-.81C485.89,154.7,488.32,150.87,488.85,146.92Zm-218.07-9.23,1.07-.1a53.08,53.08,0,0,0,8.68-3.72c10.2-5.65,18.92-15,22.74-25.65,1.74-5,1.94-8.62,1.72-9.85s-1-.19-2.43,3.55l-2,4.91a52.54,52.54,0,0,1-7.69,13,16.35,16.35,0,0,0,1.56-.93,15.24,15.24,0,0,1-1.2,1.24A50.91,50.91,0,0,1,270.78,137.69Zm4.12-79.21L278,60.42l-.34-.41a35.66,35.66,0,0,1,12.49,20.55c-.87-.68-.68,1.52-.47,4.78a30.52,30.52,0,0,0-2.08,2.28c-1.07,1.21-.91-1.27-2.07-7.28a29.9,29.9,0,0,0-4.76-10.72,40.5,40.5,0,0,0-5-5.66,28.62,28.62,0,0,0-18.27-8.25c-1.61-.17-3.23-.14-4.79-.15a34.34,34.34,0,0,0-7.43,1.06c1,.86-.49,1.2-5,3.53A30.4,30.4,0,0,0,234,64.64,31.49,31.49,0,0,0,224,86.95c0,.06.08.08.14.13l.15-1.26a31.31,31.31,0,0,1,16.06-25c.67-.42,1.36-.9,2.12-1.3a30,30,0,0,1,7.1-2.32c-.16.3,0,.52-.54.91a39.67,39.67,0,0,0-4.7,3.38c3.51-.74,3.41-.6,5.63-1.83a13.92,13.92,0,0,1,1.94-.47c3.7-.85,10.2.66,11.5,1.88a11,11,0,0,0,1.67,1A29.71,29.71,0,0,1,273.43,67c4.55,3.86,5.59,8.42,4,7.58-1.06-.42-.57,2.92.12,5.29,1.36,4.68.42,5.84-.12,6.15-.24.12-.56-.4-.72.1-.7,2.15-1.18.91-1.91-1a8.6,8.6,0,0,1-.43,1.76c-.15-1-.61-1.75-.82-2.74a15.66,15.66,0,0,0-1-3.06c-1.65-2.32-3.5-5.13-6.05-7a20.14,20.14,0,0,0-5.44-3.2c-.05,1.23,1.58,2.44-3.5,1.61l.33,1.16c-1.7-.07-3.59,0-4.56.56a37.61,37.61,0,0,1-4.11,1.62c-.67.25-1.12,0-1.74-.06v-.28a10.88,10.88,0,0,0-2.91,3.2,49.72,49.72,0,0,0-3,8.28,5,5,0,0,0-.11,1.72,15.25,15.25,0,0,0,9.14,12.9,11.55,11.55,0,0,0,6.55.65A21.68,21.68,0,0,0,265.56,98a2.79,2.79,0,0,0,.6-.71c.72-1.92,1.78-1.84,2.49-3,.26-.43.82-.4,1.17-.41s.34.49.66.4c.71-.26,1.92-1.73,2.24-1.2.47.74,1-.31,1.64-1.24a22.48,22.48,0,0,1-.52,3.17c1.41-3.05,2.21-.67,3.19-5l0,1.52a22.72,22.72,0,0,0,3.17-3.64,23.89,23.89,0,0,1-1.52,8.4c.35.14,1-.38,1,.52,0,2.47-2.56,6.36-4.88,8.62-1.85,2-3.43,3.13-4.2,4.14a11.43,11.43,0,0,1-4.19,2.84l-3,1.23,0,.19a27.25,27.25,0,0,0,9-4.32,20.72,20.72,0,0,1-5.33,3.4,28.53,28.53,0,0,1-14.79,2.36c-3.91-.28-9.12-1.57-7.13,0a22.15,22.15,0,0,0,6.64,3.24,11.57,11.57,0,0,0,2.42.2l-.29-.46a30,30,0,0,0,5.39.31c-1.92.39-3,.47-3.27.53-.1.35-.32.61-.23.85.29.68-1.17,1.5,3.2,1.84,1.78,0,4.61-.29,5.11-.22.69.18,1.64,0,3.7-.73,2-.6,4.58-1.83,5.33-2,.95-.25.41.53.53,1l1.59-.77a33.45,33.45,0,0,1-7.12,3.57l-.74-.26a32,32,0,0,1-9.8,2.23,32.57,32.57,0,0,1-10.5-1.16,14.79,14.79,0,0,0,1.43.67,39.89,39.89,0,0,1-4.76-1.12,5.51,5.51,0,0,1-2.11.33,13.29,13.29,0,0,1-3.6-1.26c-6.38-3.67-11.85-8.12-15.55-14.35a30.76,30.76,0,0,1-2.35-4.66c-2.67-7.33-3.56-16.18-1.35-23.94A36.17,36.17,0,0,1,236.2,56.82c3-1.78,7.63-3.33,7.08-2.21-.25.66.79,0,4.89-1.08,1-.26,2.14-.35,3.21-.53A35.42,35.42,0,0,1,274.9,58.48Zm-14.19,48,.57.09a19.36,19.36,0,0,0,8.46-5.87l-.35,0a6.07,6.07,0,0,1-1.1,1.27,18.34,18.34,0,0,1-2.24,1.65,24.31,24.31,0,0,1-4.18,2A10.79,10.79,0,0,0,260.71,106.49ZM224.67,94a28.33,28.33,0,0,0,1.14,5.85,21,21,0,0,0,2.31,4.25,34.66,34.66,0,0,1-1.52-3.4l.11.08a31.31,31.31,0,0,0,2.32,4.39C226.77,100.77,225.52,96.1,224.67,94ZM512,146a35.92,35.92,0,0,1-7.74,21.63,32.83,32.83,0,0,1-20.54,11.93c-1.91.22-3.68.35-5.31.42l-2.75-.05-4.28-.18-7.54-.42,1.67-.2-4.48,0c0,3.73,0,7.46-.06,11.22q0,5.09-.06,10.22a30.29,30.29,0,0,1-.29,5.47,14.44,14.44,0,0,1-2.26,5.43c.31-1.86-1.52,2.45-7.31,4.66a16.56,16.56,0,0,1-4.17-.87c-1.07-.35-.46-.5,1.53-.93a12,12,0,0,0,8.08-6.48,11,11,0,0,0,1-4.76l0-5.62c0-3.76.06-7.52.08-11.27,0-2.29,0-4.69,0-7l-2.89,0c-.19,8.74-.77,14.33-1.39,11.71-.53-2.25-1.64,5.22-1.7,11.61,0,.94-.05,1.1-.06,1.41a5.65,5.65,0,0,1-.2.79,4.19,4.19,0,0,1-2,2.44c-.84.38-1.23.2-1.43,0s.15-.56-.25-.5c-1.73-.19-.61-.7,0-1.59a1.82,1.82,0,0,1-1,0,2.21,2.21,0,0,0,.72-.94,2.76,2.76,0,0,0,.21-.58,28.54,28.54,0,0,0,0-3.09c-.36-6.4-.42-13.78-.44-21.23l-31.38.23c-18.24.38-44,.58-69.43.55,0,5.24-.08,10.45-.13,15.66l0,4v1.51l0,.08a.45.45,0,0,0,.07.33.53.53,0,0,0,.54.23l13.28-.14c13.29-.27,26-.38,39.41-.11,1.16,0,3.15,0,3.86,0,8.19-.53,10.63.21,15.83.32a7.6,7.6,0,0,1,3.4.66c.45.19-1.2.41-.39.59,2,.45,8.08.92,6.62,1.3-1.86.48,1.94.69,5.14,1l-9.75.34c10.05.33,4,1.28,16.24,1.48l-4.12.15,3.94.87v-.08c.28,0,.53,0,.81,0,.85,0,1.65-.08,2.47-.12,0,.28,0,.6,0,.89l2.68.59h-2.67c.27,18.57.22,40,.24,60.38-.05,14.68-.1,29.67-.16,46.09.58-1.76,1.27-19.1,1.38,23.79l.65-4.15c.12,15.19.25,31.3.33,41.21.1,5.13.12,10.29.15,15.44.87,0,1.68,0,2.6.12a14.45,14.45,0,0,1,9.38,6,15.74,15.74,0,0,1,2.57,6.18l-.07-1a27.73,27.73,0,0,1,.29,5.64l0,5.06L461,424.51c0,6.75-.07,13.54-.11,20.42.93.28,1.87.56,2.79.92a52.75,52.75,0,0,1,23.79,16.88c-1.45-1.47-.61,0,1.73,3.33a57.81,57.81,0,0,1,7.38,17.06,47.59,47.59,0,0,1,.12,5.89l.51,0h-.51c-.06,1.49-.16,3-.32,5-.26,3.06-.42,1.44-1.12-4.76l0-.24h-7.9c.22,2.23,0,2.53-.31,1.27-.07-.3-.19-.81-.3-1.27h-46.5c0,.29,4.57.65-.88.88-14.49.61-42.53.33-62.87.27-16.86,0-29.18,0-36.68.26-8.16.3-17.88.35-31,.34l-19.95.07,0,.15,60.05.24-37.65.11-89.71.05c-23.39.07-53.57.78-39.71,1.35L220.95,494h12.82l-1.66-.34,28.6.35-17.28.24c-.56.27-1.69.46-1.23.65,1.31.53-5.53,1.11,15.26,1.54,8.46.18,21.9.33,24,.54,2.94.29,7.28.28,17.47.3,9.49,0,22.79.15,26.23.31,4.34.21.42.51,0,.85l7.82.13-35.28.06-2.74-.38-44.91.27-47.16-.17,6.85.25-21.57.12c-2.71.29-3.66.56-8.08.8-2.32.12-12.12.29-16.18.26-31.46-.22-60.41.18-90.78.16l-22.06,0-27.19-.19c-2.81,0-5.31-.16-7.9-.31l-3.88-.22L10.17,499l.11-2a74.73,74.73,0,0,1,2.14-15.94,70.56,70.56,0,0,1,2.76-7.79,49.55,49.55,0,0,1,3.4-6.36,52.82,52.82,0,0,1,8.95-11,53.82,53.82,0,0,1,22.41-12.68c-.56,0-1.14,0-1.69,0l0-2.4a56.05,56.05,0,0,0-7.36,2.81c0,.31,0,.62,0,.94-.85.27-1.68.56-2.49.89l0-.65a57.31,57.31,0,0,0-22.83,21.68,45.58,45.58,0,0,0-3,5.12c-1.36,2.44-2.19,5.44-3.09,7.43s-.19-.32,1.09-4.54a31.69,31.69,0,0,1,1.9-4.78,32.23,32.23,0,0,1,2.19-4.3,58.11,58.11,0,0,1,5.64-8.32,73.48,73.48,0,0,1,9.32-9.38,36.42,36.42,0,0,1,8.75-6c.22-7.46.42-14.64.63-21.74,0-1.19.1-2.51.17-3,.75-5,1.71,7.19,1.7,19.88v3.64a55.11,55.11,0,0,1,7.34-2.76c0-2.25,0-4.48,0-6.76,0-2.68,0-5.67,0-8L48.4,414l.06-4.7a30.29,30.29,0,0,1,.39-5.86,16.67,16.67,0,0,1,16.74-13.27c0-.92,0-1.83,0-2.75a20.64,20.64,0,0,0-8.43,1.69,19.47,19.47,0,0,0-8.73,7.75,26,26,0,0,0-2.69,4.87c-.28.67-.28-.21.11-1.77A20.57,20.57,0,0,1,50.13,392a32.9,32.9,0,0,1,4.7-4.22c.83-.9,4.6-3,9.78-3.2h1c0-4.92,0-9.85,0-14.75.07-23.47.13-46.67.2-70.13,0-19.82-.07-41-.1-59.55,0-3.15,0-6.22,0-9.34-1.09,0-2.27,0-3.28-.16a26.16,26.16,0,0,1-7.2-1.75,27.47,27.47,0,0,1-17.1-22.54,42.08,42.08,0,0,1-.18-5.12c0-.77,0-1.44,0-2,0-1.13.07-1.86.12-2.24.1-.76.26-.08.46,1.78.12,1.11.32.2.48.21,0-2.67.06-6.29,0-7.81-.19-3.28-.45-5.49-.63-7.59l.12-4.09A67.34,67.34,0,0,1,27.78,179a33.37,33.37,0,0,1-15.37-7,34.76,34.76,0,0,1-9.49-12.76A35.21,35.21,0,0,1,1.3,135.69a33.63,33.63,0,0,1,14.53-19.42c2-1.3,2.73-1.65,3.8-2.25l3.09-1.71,6.18-3.41,12.36-6.8,50-27.2L101,69.54C121.51,57.73,128,55,141.25,47.9a58.82,58.82,0,0,1,8.93-4.13c1.22-.45-2.84,2-.7,1.06,5.29-2.39,20.88-10.37,17.38-8-4.47,3,5.23-2.07,13.49-6.25l-24.52,13.8c25.6-13.63,10.62-4.36,41.81-21.19L187.27,29l26.15-11.82L161.24,45.72c.14.26,4.49-1.72-.39,1.21-13,7.8-38.77,21.58-57.42,31.72C88,87,76.72,93.25,70,97.25c-7.32,4.35-16.2,9.26-28.19,15.81L23.57,123.11l0,.15L78.69,93.4l-34.41,19L23.69,123.62c-3.67,2-7.84,5.18-10.19,9.32a24.06,24.06,0,0,0-3.21,13.61c.39,9.23,6.37,18.54,15.7,21.62,1.15.31,2.3.68,3.46.89l3.51.31c2.13.08,3.93,0,5.91,0l11.6,0c24.41-.07,55.89-.78,41.44-1.35L51,166.84H37.6l1.74.34c-4.85-.07-10.11.21-14.84-2.24A20.49,20.49,0,0,1,14,152.4,20.46,20.46,0,0,0,21.93,163a17.12,17.12,0,0,0,5.3,2.56c.69-.08,1.92.06,1.48-.26-.6-.44.87-.32-.13-.87a29.77,29.77,0,0,1-3.64-1.81,18.28,18.28,0,0,1-7.34-8,20.66,20.66,0,0,1-1.54-13.93,16.29,16.29,0,0,1,4.66-8l1.88-1.57,2.84-1.78,10.51-5.69c8.7-4.73,20.93-11.29,24.16-12.86,4.07-2,.63.24.36.77l7.22-3.8L35.41,125.45l-2.69,1c-3.62,2.06-7.49,3.93-9.92,6a15.5,15.5,0,0,0-5,8.48,18.32,18.32,0,0,0,5.73,17.77,14.63,14.63,0,0,0,8.91,3.43c3.51.22,7.74.08,11.71.15l25.74.12-7.15-.25,22.51-.12c2.83-.29,3.82-.56,8.43-.8,2.42-.12,12.64-.29,16.88-.26l94.72-.16,23,0,108.47.52,132.09.92,6.22.06h3.21l2.79-.21a15.48,15.48,0,0,0,8.91-4.8,19,19,0,0,0,3.82-6.17c.58-1.49.89-2,.75-1.09s.38.33.88-3.09a18.38,18.38,0,0,0-.67-7.11,16.89,16.89,0,0,0-6.57-9.24c-3.79-2.53-9-5.07-13.49-7.62L370.13,65.93,354.7,57.71,356.84,59,305.62,30.84C297,26.16,288.69,21,279.44,18.27a80.37,80.37,0,0,0-28.74-3.52c4.14-.47-6.75-1.56-22.1,3.75a56.3,56.3,0,0,0-11,3c-3.07,1.2-1.76.09,4.38-3a78,78,0,0,1,35.08-7.3,82.78,82.78,0,0,1,31.9,7c5.09,2.21,9.8,5,14.54,7.57l14.23,7.83L353.87,53.6c30.14,16.94,60.74,34,95.24,53l22,12.2,16,9a21.13,21.13,0,0,1,7.12,6.77,20.46,20.46,0,0,1,2.89,10.27c.29-1.79.94-.74.42,4.34a20.35,20.35,0,0,1-4.23,9.83,19.6,19.6,0,0,1-15.57,7.21l-41.35-.07L302,166.27a3,3,0,0,0-.68.11l6.84.06,168.43.26A21.36,21.36,0,0,0,490,162.59c5.89-4.34,8.78-11.83,8.35-19a21.06,21.06,0,0,0-11.48-17.23c1.14.4.52-.24,3.84,1.76a20.9,20.9,0,0,1,8.75,14,24,24,0,0,1-4,17.91,24.94,24.94,0,0,0,5.16-13.13,22.63,22.63,0,0,0-1-8.94c-1.68-4.71-4.11-9-11.32-13L478,119.45c-19-10.28-52.36-29-60.93-34.23-2.36-1.43-6.3-3.8-10.09-5.88l-52.6-28.8c-31.58-17.23-55.09-30.92-46.46-27.08,3,1.32-.14-.85-6-4.46-5.66-3.66-15.84-9-25.56-11.13A91.73,91.73,0,0,0,252.9,5.36a95.37,95.37,0,0,0-14.49,1.38c-7.1,1.26-9.67,2.08-10.91,2.15-.93.1,3.59-1.62-.5-.41-8.87,2.87-10.78,3.87-8.38,2.45A78.4,78.4,0,0,1,238,4.14a95.48,95.48,0,0,0-16.52,4.41,91.93,91.93,0,0,1,28.43-6.83,94.73,94.73,0,0,1,18.59.7,104.51,104.51,0,0,1,15.21,3.38,97.1,97.1,0,0,1,10.78,4c1.8.77,3.55,1.71,5.36,2.58l4.8,2.54,19.44,10.49,40.05,21.86,53,29.24c-1.67-1.77-21.22-13.48,28.27,13.44L441,86.59l47.69,25.61,3,1.6,1.52.8.77.41,1.25.77A33.74,33.74,0,0,1,512,146ZM16,121l2.93-1.84c1.09-.67,1.48-.78,2.25-1.19l80.48-44.4-1.78.73L86.73,81.57l-22,12-37,20.18-5.58,3.22-2.52,1.52C18.56,119.15,17.23,120.08,16,121ZM57,208.7c1,2.61,4.55,5.15,8.52,5.59,0-.78,0-1.57,0-2.34a10.94,10.94,0,0,1-6.76-2.53C57,207.82,56.31,206.73,57,208.7Zm8.58,18.8c0-2.88,0-5.76,0-8.62a15.78,15.78,0,0,1-6.28-1.24A15.43,15.43,0,0,0,62,218.73a15.82,15.82,0,0,1-8.12-4.31,8.73,8.73,0,0,1-2.8-2.32,14.93,14.93,0,0,1-2.63-6.81c-.08-8.93-.15-17.33-.22-25.81H40.87q0,9.47,0,19v2.63a45.67,45.67,0,0,0,.15,4.58A24.16,24.16,0,0,0,56.93,226a25.7,25.7,0,0,0,6.58,1.38C64.19,227.46,64.92,227.48,65.62,227.5Zm270.92-18.8c1,2.61,4.55,5.15,8.52,5.59,0-.78,0-1.57,0-2.34a11,11,0,0,1-6.76-2.53C336.52,207.82,335.81,206.73,336.54,208.7Zm-15.79-2.22A23.83,23.83,0,0,0,336.42,226a25.7,25.7,0,0,0,6.58,1.38c.68.05,1.41.07,2.11.09,0-2.88,0-5.76,0-8.62a15.78,15.78,0,0,1-6.28-1.24,15.43,15.43,0,0,0,2.71,1.09,15.82,15.82,0,0,1-8.12-4.31,8.73,8.73,0,0,1-2.8-2.32,14.93,14.93,0,0,1-2.63-6.81c-.08-8.76-.15-17-.22-25.32l-6.46,0c0,3.48,0,7-.06,10.45s0,6.8-.06,10.22a30.29,30.29,0,0,1-.29,5.47C320.84,206.21,320.78,206.34,320.75,206.48Zm-32-26.76-81.95,0c0,5.34-.09,10.65-.13,16l0,4v1.51l0,.08a.45.45,0,0,0,.07.33.53.53,0,0,0,.54.23l13.28-.14c13.29-.27,26-.38,39.41-.11,1.16,0,3.15,0,3.86,0,8.19-.53,10.63.21,15.83.32a7.6,7.6,0,0,1,3.4.66c.45.19-1.2.41-.39.59,2,.45,8.08.92,6.62,1.3-1.86.48,1.94.69,5.14,1l-9.75.34c10.05.33,4,1.28,16.24,1.48l-4.12.15,4.89,1.07c.78,0,1.55.1,2.35.12,0,.13,0,.27,0,.4l2.67.59h-2.67c.27,18.56.22,40,.24,60.38-.05,14.68-.1,29.67-.16,46.09.58-1.76,1.27-19.1,1.38,23.79l.65-4.15c.12,15.19.25,31.3.33,41.21.1,5.13.12,10.29.15,15.44.87,0,1.68,0,2.59.12a14.45,14.45,0,0,1,9.38,6,15.74,15.74,0,0,1,2.57,6.18l-.07-1a27.73,27.73,0,0,1,.29,5.64l0,5.06-.05,10.15q0,9.17-.1,18.51h6.63c0-4-.06-7.9-.09-11.91l0-8,.19-9.15.06-4.7a30.26,30.26,0,0,1,.39-5.86,16.67,16.67,0,0,1,16.74-13.27q0-1.37,0-2.75a20.64,20.64,0,0,0-8.43,1.69,19.48,19.48,0,0,0-8.73,7.75,26,26,0,0,0-2.69,4.87c-.28.67-.28-.21.11-1.77a20.57,20.57,0,0,1,4.29-7.93,32.9,32.9,0,0,1,4.7-4.22c.83-.9,4.6-3,9.78-3.2h1c0-4.92,0-9.85,0-14.75.07-23.47.13-46.67.2-70.13,0-19.82-.07-41-.1-59.55,0-3.15,0-6.21,0-9.34-1.09,0-2.27,0-3.28-.16a26.16,26.16,0,0,1-7.2-1.75,27.45,27.45,0,0,1-16-17.46l0,.07a1,1,0,0,0,0-.16l-.08-.24c-.41,0-2.46,3.24-7.24,5.06a16.56,16.56,0,0,1-4.17-.87c-1.07-.35-.46-.5,1.53-.93a12,12,0,0,0,8.08-6.48,10.42,10.42,0,0,0,.79-2.46c-.11-1.49-.15-2.94-.14-4.17,0-.77,0-1.44,0-2,0-1.13.07-1.86.12-2.24s.16-.32.28.41c0-3.72.05-7.45.08-11.16,0-.56,0-1.15,0-1.72,0-.31-.06-.63-.09-.93l.11-3.68-2.89,0c-.2,8.37-.77,13.61-1.38,11.05-.53-2.25-1.64,5.22-1.7,11.61,0,.94-.05,1.1-.06,1.41a5.65,5.65,0,0,1-.2.79,4.19,4.19,0,0,1-2,2.44c-.84.38-1.23.2-1.43,0s.15-.56-.25-.5c-1.73-.19-.61-.7,0-1.59a1.82,1.82,0,0,1-1,0,2.21,2.21,0,0,0,.72-.94,2.76,2.76,0,0,0,.21-.58,28.54,28.54,0,0,0,0-3.09c-.35-6.25-.42-13.43-.43-20.7ZM333,424c0,2.91,0,5.82,0,9.25.41-9.06.45-18.26.12-22.49l-.44,11c0,1.61.07,4.28.15,8.92l.16-6.9ZM315.1,407.1l-.09,8c-.07,2.59-.18,4.83-.32,6.59-.27,3.51-.65,5-1,3.42-.53-2.25-1.64,5.22-1.7,11.61,0,2.54-.07,4.6-.13,6.36h5.88c0-.07,0-.13,0-.2.06-7.39.13-15,.19-22.46,0-4.73.08-10.07.11-14.06a11.77,11.77,0,0,0-10.46-11.54l-1,0c0,1.14,0,2.28,0,3.41A9.29,9.29,0,0,1,315.1,407.1ZM212.44,442.75c-2.16.35,3.42.37,23,.27h1.35c12-.22,23.6-.3,35.73-.06,1.16,0,3.15,0,3.86,0a71.12,71.12,0,0,1,11.38.08H308c0-3.08.06-6.74,0-8.39-.26-4.55-.36-9.6-.41-14.82,0-2.61,0-5.26,0-7.91v-3.27a3.78,3.78,0,0,0-.07-.83,3,3,0,0,0-1.16-1.77,2.75,2.75,0,0,0-1-.46,3.72,3.72,0,0,0-.59-.07l-1.77,0a5.72,5.72,0,0,0,1.39.58.52.52,0,0,1,.2.54c-.05.08,0,.16-.2.24-.48.07-1.18.14-2.18.2-2,.11-5.16.2-10,.23l1.89.84c-6.91.15-14.26.18-18.77.42-6.34.35-12.84.36-19,.2a41.48,41.48,0,0,1-6.07-.72l.58-.2c-5.83.12-13.19.13-17.18.37-4.77.29-11,.47-17.59.53h-8.86a.47.47,0,0,0-.22-.16.13.13,0,0,0-.16.1c0,9.31,0,18.63,0,27.91,9.14,0,17.87.09,25.9.08l-14.23,1.07-11.67,1.06v3.44C211.42,442.32,214.06,442.49,212.44,442.75Zm-3.93-228.26v-2.56h-.38c0,.87,0,1.76.06,2.56Zm-.15,4.44c0,.23,0,.45,0,.69l0-.68Zm-2.54,176a12,12,0,0,0-9.64,4.14c-.06.07,0,.15-.06.24a17,17,0,0,1,1.59-1.49,11.76,11.76,0,0,1,6.1-2.55c2.16-.15,4.49,0,7,0l14.6.07,29.2.12,4.69-.16h14.12c-.41.2-.13.42-1.37.6l-11,1.39c7.27.43,7.19.43,12.18-.07.72-.07,2.59-.12,4.05-.13,4.54-.06,11.2.08,16.52.3,0-.82,0-1.76,0-2.82l-5.61,0-8.71-.16L266,393.91c1.22.78-1.49,1-10.95,1l-14.34-.07-23.31.07Zm7.09-180.7H213v-2.29h-.15Zm3.1,39.25c.41-1,.86,4.39,1.19-12.12.07-3.21.13-7.32.19-10.93-.59,0-1.22.1-1.86.13s-1.48,0-2.21.07c0,13.18,0,26.33,0,39.32.05,18.58.6,42.55,1,31.55l.92-31.15c0-1.42,0-6.69,0-10.19l-.26,1.32c.09-7.73.17-13.87.27-22.72.11,8.17.18,12.7.19,13.73C215.71,252.93,215.86,253.82,216,253.46Zm-.09,135.28c0,.59,0,1.06,0,1.59h0C215.92,389.8,215.92,389.3,215.92,388.74Zm-.13-4.27c0-.47,0-.88,0-1.36,0,.46,0,.91,0,1.36Zm-.06,3.1c0,.92,0,1.84,0,2.75h.08c0-.89,0-1.84,0-2.76Zm1.67-158c.06-3.57.13-6.51.21-7.34s.13-1.9.17-3.25h-.57l-3.9,0q0,4.72,0,9.43C214.78,228.79,216.14,229.18,217.4,229.58Zm.41-12.8c0-.66,0-1.37,0-2.16l-3,.12c-.2.27-.61.46-.45.65C214.8,215.85,212.93,216.36,217.81,216.77Zm0-2.39q0-1.13,0-2.47h-4.53q0,1.15,0,2.3Zm35.11-2.61-13.62.11-20.72,0c0,.85,0,1.65,0,2.49l2.46.08-2.46.1c0,.75,0,1.5,0,2.25l1.27.09c3.06.18,7.92.33,8.7.54,1.06.29,2.63.28,6.32.3,3.43,0,8.24.15,9.49.31,1.57.21.15.51,0,.85l2.83.13-12.76.06-1-.39-14.82.24c0,3.74,0,7.42.06,11l.46.14c.13,0-.11.1-.46.15,0,5.73.07,11.32.1,17,0,11.65-.08,23.51-.13,37.46l.2-5.44c0,6.72.07,12.37.1,17.14.22,2.15.43,2.91.61,6.42.1,1.84.22,9.63.2,12.86-.16,23.83.1,45.89.11,68.8a39.7,39.7,0,0,1,5.56.4l.11,0c0-3.27,0-6.61,0-10-.05-30.73-.11-61.7-.16-92.2,0-12.8,0-19.67.27-22.45.58-6.46,1.16-12.43,1.75-17.29.1-.81.25,3.9.33,8,.39,20.33.14,43.92.13,66.05,0,17-.16,19.24-.48,11.08-.09-2.44-.25-.44-.37-.47,0,5.86,0,13.8,0,17.14l.49,16.67-.25,23.73c2,.26,4.56.5,7.41.71,1.56.12,7.17.19,8.65.11,9.89-.53,19.83-.11,27.88-.13l-5.15,1.07L261.55,388c-5.35,0-12.12-.15-17.81,0-6.58.12-11.42,0-16.5-.17,0,.91,0,1.84,0,2.75l24.71.49c5.51.17,13.43.24,12,.89-.78.35,1.24.37,8.33.27H293.8c0-2.39,0-5.28,0-8.75,0-3.81,0-8,0-12q0-45.35,0-90.7l-.15-13.32-.08,1.9c0-13.14.05-26.44.08-39.69a82.8,82.8,0,0,1-10.73.89c-12.75.5-26.41.26-39.59.37H232.65l-1.18-.18,33.41-1.92,2.05.1-2-.46,18.25-.24c2,0,4.84.08,6.38.18a36.35,36.35,0,0,1,4.1.44c0-6.44,0-12.82,0-19.29H286c0,.29,1.65.65-.32.88-5.24.61-15.38.33-22.74.27-6.1,0-10.55,0-13.27.26-3,.3-6.47.35-11.2.34l-7.22.07,0,.15Zm-21.57-6.08,31.86-.32-.66-.21-5.22.1-8.68-.08-14.6,0a42.91,42.91,0,0,0-4.29.39ZM219.9,387.78c0,.86,0,1.75,0,2.63l5.72.11c0-.91,0-1.83,0-2.76l-2.3-.06-3.39-.06Zm78.18-68.62c.09-2.1.24-5.6.24-8.88,0-15.14,0-30.47,0-45.66,0-27.39.53-48.1,1.12-40.93.3,3.6.83-4.2,1.12-14.13h-4.32c0,8.15,0,16.31-.07,24.44,0,10.56-.07,22.54-.1,31.42-.31,26.32-.55,53-.6,83,0,6.48-.08,13-.12,19.14-.07,7.8-.15,15.5-.24,24.68h2.74c0-3.08-.11-5.78-.29-10.94,0-1.6-.07-5.7-.1-8.9C297.4,355.93,297.74,326.78,298.08,319.16Zm-3,75.34c0,.92,0,1.77,0,2.73.18-.78.31-.71.42.16l2.34.12c0-1.11,0-2.08,0-3Zm-96-228.28c26.12.41,52.67.45,64.89.12l-31.77-.44-25.72.15,19.9.16-.62,0Zm-2.3,42.48c1,2.61,4.55,5.15,8.52,5.59,0-.78,0-1.57,0-2.34a10.94,10.94,0,0,1-6.76-2.53C196.77,207.82,196.06,206.73,196.79,208.7ZM181,206.48A23.83,23.83,0,0,0,196.68,226a25.7,25.7,0,0,0,6.58,1.38c.68.05,1.41.07,2.11.09l0-8.62a15.78,15.78,0,0,1-6.28-1.24,15.43,15.43,0,0,0,2.71,1.09,15.82,15.82,0,0,1-8.12-4.31,8.73,8.73,0,0,1-2.8-2.32,14.93,14.93,0,0,1-2.63-6.81c-.08-8.84-.15-17.15-.22-25.54h-6.46c0,3.54,0,7.07-.06,10.63q0,5.09-.06,10.22a30.29,30.29,0,0,1-.29,5.47C181.1,206.21,181,206.34,181,206.48ZM66.81,201.27a.45.45,0,0,0,.07.33.52.52,0,0,0,.54.23l13.28-.14c13.29-.27,26-.38,39.41-.11,1.16,0,3.15,0,3.86,0,8.19-.53,10.63.21,15.83.32a7.6,7.6,0,0,1,3.4.66c.45.19-1.2.41-.39.59,2,.45,8.08.92,6.62,1.3-1.86.48,1.94.69,5.14,1l-9.75.34c10.05.33,4,1.28,16.24,1.48l-4.12.15,5.35,1.17c.33,0,.65,0,1,0s.59,0,.89,0c0,.13,0,.28,0,.41l2.67.59h-2.67c.27,18.56.22,40,.24,60.38-.05,14.68-.1,29.67-.16,46.09.58-1.76,1.27-19.1,1.38,23.79l.65-4.15c.12,15.19.25,31.3.33,41.21.1,5.13.11,10.29.14,15.44.87,0,1.69,0,2.61.12a14.45,14.45,0,0,1,9.38,6,15.74,15.74,0,0,1,2.57,6.18l-.07-1a27.73,27.73,0,0,1,.29,5.64l0,5.06-.05,10.15c0,4,0,8-.06,12H188c0-1.8,0-3.58,0-5.39l0-8,.19-9.15.06-4.7a30.26,30.26,0,0,1,.39-5.86,16.67,16.67,0,0,1,16.74-13.27c0-.92,0-1.83,0-2.75a20.64,20.64,0,0,0-8.43,1.69,19.48,19.48,0,0,0-8.73,7.75,26,26,0,0,0-2.69,4.87c-.28.67-.28-.21.11-1.77a20.57,20.57,0,0,1,4.29-7.93,32.9,32.9,0,0,1,4.7-4.22c.83-.9,4.6-3,9.78-3.2h1c0-4.92,0-9.85,0-14.75.07-23.47.13-46.67.2-70.13,0-19.82-.07-41-.1-59.55,0-3.15,0-6.21,0-9.34-1.09,0-2.27,0-3.28-.16a26.16,26.16,0,0,1-7.2-1.75,27.45,27.45,0,0,1-16-17.46l0,.07a1,1,0,0,0,0-.16l-.08-.24c-.41,0-2.46,3.24-7.24,5.06a16.56,16.56,0,0,1-4.17-.87c-1.07-.35-.46-.5,1.53-.93a12,12,0,0,0,8.08-6.48,10.42,10.42,0,0,0,.79-2.46c-.11-1.49-.15-2.94-.14-4.17,0-.77,0-1.44,0-2,0-1.13.07-1.86.12-2.24s.16-.32.28.41c0-3.72.05-7.45.08-11.16,0-.56,0-1.15,0-1.72,0-.31-.06-.63-.09-.93,0-1.27.07-2.5.11-3.73,0,0,0-.07,0-.11h-2.9c-.2,8.43-.77,13.75-1.37,11.19-.53-2.25-1.64,5.22-1.7,11.61,0,.94-.05,1.1-.06,1.41a5.65,5.65,0,0,1-.2.79,4.19,4.19,0,0,1-2,2.44c-.84.38-1.23.2-1.43,0s.15-.56-.25-.5c-1.73-.19-.61-.7,0-1.59a1.82,1.82,0,0,1-1,0,2.21,2.21,0,0,0,.72-.94,2.76,2.76,0,0,0,.21-.58,28.54,28.54,0,0,0,0-3.09c-.35-6.27-.42-13.49-.43-20.78l-78.29-.22H67v.25c0,5.34-.09,10.65-.13,16l0,4v1.51ZM193.28,424c0,2.91,0,5.82,0,9.25.41-9.06.45-18.26.12-22.49l-.44,11c0,1.61.07,4.28.15,8.92l.16-6.9ZM188,438.82h-6.58c0,1,0,2,0,3.07L188,442C188,440.91,188,439.86,188,438.82Zm-10-2.3q.07-8.07.14-16.16c0-4.73.08-10.07.11-14.06a11.77,11.77,0,0,0-10.46-11.54l-1,0c0,1.14,0,2.28,0,3.41a9.29,9.29,0,0,1,8.53,9l-.09,8c-.07,2.59-.18,4.83-.32,6.59-.27,3.51-.65,5-1,3.42-.53-2.23-1.63,5.14-1.7,11.5Zm-5.84,2.29c0,1.08,0,2.09-.06,3l5.85,0c0-1,0-2,0-3Zm-3.86-2.22c0-.78,0-1.47,0-2-.26-4.55-.36-9.6-.41-14.82,0-2.61,0-5.26,0-7.91v-3.27a3.78,3.78,0,0,0-.07-.83,3,3,0,0,0-1.16-1.77,2.75,2.75,0,0,0-1-.46,3.72,3.72,0,0,0-.59-.07l-1.77,0a5.72,5.72,0,0,0,1.39.58.52.52,0,0,1,.2.54c-.05.08,0,.16-.2.24-.48.07-1.18.14-2.18.2-2,.11-5.16.2-10,.23l1.89.84c-6.91.15-14.26.18-18.77.42-6.34.35-12.84.36-19,.2a41.48,41.48,0,0,1-6.07-.72l.58-.2c-5.83.12-13.19.13-17.18.37-4.77.29-11,.47-17.59.53H67.4a.47.47,0,0,0-.22-.16.13.13,0,0,0-.16.1q0,13.36,0,26.72l11.24-.06c14.2-.11,22.32.05,27.91.39,5.85.35,15,.69,25.5,1,4.31.12,19.82.19,23.92.11S164.08,436.63,168.3,436.59Zm-11.59,2.2c-22.83.15-38-.13-56.54-.27l-21-.15c-4,.06-8-.09-12.12-.06V441c.63,0,1.28,0,1.88,0l16.15.09,32.08.2,51.18.43c0-1,0-2,0-3Zm-88-224.3v-2.56h-.38c0,.87,0,1.76.06,2.56Zm-.15,4.44c0,.23,0,.45,0,.69l0-.68Zm2.86,176c-.78.08-1.55.17-2.3.29.63,0,1.24,0,1.89,0l14.6.07h.26c0-.13,0-.29,0-.42l-5.77,0v0l-.32,0H77.62Zm1.69-180.68h.13v-2.29h-.15Zm3.1,39.25c.41-1,.86,4.39,1.19-12.12.07-3.21.13-7.32.19-10.93-.59,0-1.22.1-1.86.13s-1.48,0-2.21.07c0,13.18,0,26.33,0,39.32.05,18.58.6,42.55,1,31.55l.92-31.15c0-1.42,0-6.69,0-10.19l-.26,1.32c.09-7.73.17-13.87.27-22.72.11,8.17.18,12.7.19,13.73C76,252.93,76.11,253.82,76.26,253.46Zm-.09,135.28c0,.58,0,1.06,0,1.59h0C76.18,389.78,76.17,389.33,76.17,388.74ZM76,384.47c0-.46,0-.89,0-1.36,0,.46,0,.91,0,1.36Zm-.05,3.1q0,1.38,0,2.75H76c0-.9,0-1.83,0-2.76Zm1.67-158c.06-3.57.13-6.51.21-7.34s.13-1.9.17-3.25h-.57l-3.9,0q0,4.72,0,9.43C75,228.79,76.39,229.18,77.65,229.58Zm.41-12.8c0-.66,0-1.37,0-2.16l-3,.12c-.2.27-.61.46-.45.65C75,215.85,73.18,216.36,78.06,216.77Zm0-2.39c0-.76,0-1.57,0-2.47H73.56v2.3Zm35.11-2.61-13.62.11-20.72,0c0,.85,0,1.65,0,2.49l2.46.08-2.46.1c0,.75,0,1.5,0,2.25l1.27.09c3.06.18,7.92.33,8.7.54,1.06.29,2.63.28,6.32.3,3.43,0,8.24.15,9.49.31,1.57.21.15.51,0,.85l2.83.13-12.76.06-1-.39L78.89,219c0,3.74,0,7.42.06,11l.46.14c.13,0-.11.1-.46.15,0,5.73.07,11.32.1,17,0,11.65-.08,23.51-.13,37.46l.2-5.44c0,6.72.07,12.37.1,17.14.22,2.15.43,2.91.61,6.42.1,1.84.22,9.63.2,12.86-.16,23.83.1,45.89.11,68.8a39.7,39.7,0,0,1,5.56.4l.11,0c0-3.27,0-6.61,0-10l-.16-92.2c0-12.8,0-19.67.27-22.45.58-6.46,1.16-12.43,1.75-17.29.1-.81.25,3.9.33,8,.39,20.33.14,43.92.13,66.05,0,17-.16,19.24-.48,11.08-.1-2.44-.25-.44-.37-.47,0,5.86,0,13.8,0,17.14l.49,16.67-.25,23.73c2,.26,4.56.5,7.41.71,1.56.12,7.17.19,8.65.11,9.89-.53,19.83-.11,27.88-.13l-5.15,1.07L121.8,388c-5.35,0-12.12-.15-17.81,0-6.58.12-11.42,0-16.5-.17,0,.92,0,1.84,0,2.75l24.71.49c5.51.17,13.43.24,12,.89-.78.35,1.24.37,8.33.27H154c0-2.39,0-5.28,0-8.75,0-3.81,0-8,0-12q0-45.35,0-90.7l-.15-13.32-.08,1.9c0-13.15.05-26.44.08-39.69a82.8,82.8,0,0,1-10.73.89c-12.75.5-26.41.26-39.59.37H92.9l-1.18-.18,33.41-1.92,2.05.1-2-.46,18.25-.24c2,0,4.84.08,6.38.18a36.35,36.35,0,0,1,4.1.44c0-6.44,0-12.82,0-19.29h-7.67c0,.29,1.65.65-.32.88-5.24.61-15.38.33-22.74.27-6.1,0-10.55,0-13.27.26-3,.3-6.47.35-11.2.34l-7.22.07v.15Zm-21.57-6.08,31.86-.32-.66-.21-5.22.1-8.68-.08-14.6,0a42.91,42.91,0,0,0-4.29.39Zm42,189.54c-.41.2-.13.42-1.37.6l-11,1.39c7.27.43,7.19.43,12.18-.07.72-.07,2.59-.12,4.05-.13,4.54-.06,11.2.08,16.52.3,0-.82,0-1.77,0-2.82l-5.61,0-8.71-.16-13.52-.37c1.22.78-1.49,1-10.95,1l-14.34-.07-13.51,0v.43l27.44.11,4.69-.16Zm-53.51-7.44c0,.85,0,1.76,0,2.63l5.72.11c0-.92,0-1.82,0-2.76l-2.3-.06-3.39-.06Zm78.18-68.62c.09-2.1.24-5.6.24-8.88,0-15.14,0-30.47,0-45.66,0-27.39.53-48.1,1.12-40.93.3,3.6.83-4.2,1.12-14.13h-4.32c0,8.14,0,16.31-.07,24.44,0,10.56-.07,22.54-.1,31.42-.31,26.32-.55,53-.6,83,0,6.48-.08,13-.12,19.14-.07,7.8-.15,15.5-.24,24.68h2.74c0-3.08-.11-5.78-.29-10.94,0-1.6-.07-5.7-.1-8.9C157.65,355.93,158,326.78,158.33,319.16Zm-3,75.34c0,.92,0,1.77,0,2.73.18-.79.31-.73.42.16l2.33.12c0-1.1,0-2.09,0-3Zm-99,4.79A17,17,0,0,1,58,397.79a11.76,11.76,0,0,1,6.1-2.55c.49,0,1,0,1.52,0v-.27A11.93,11.93,0,0,0,56.43,399C56.37,399.12,56.39,399.19,56.37,399.28Zm-3.05,31.38c.1-4.09.13-5.5.16-6.9l0,.21c0,2.91,0,5.82,0,9.25.41-9.06.45-18.26.12-22.49l-.44,11C53.12,423.36,53.23,426,53.32,430.67ZM25.9,465.27a62,62,0,0,1,4.23-4.8A49.85,49.85,0,0,1,65.67,446l40.35.07,35.2.05c-.78-.2-1.59-.34-2.39-.51l-55,.06-16.1,0A53.35,53.35,0,0,0,52,447.54a49.65,49.65,0,0,0-25.85,17.15A2.78,2.78,0,0,0,25.9,465.27ZM79,494.59l-36.09-.33c-11.33,0-19.22.05-24.94.22l29.3.44,24.65-.15-19.08-.16.59,0Zm298.28-9.73-1.84-.21-14.42.1-24-.08-40.36,0c-4.56,0-7.94.25-11.86.39l4.39.17Zm109.18,3.35a46.35,46.35,0,0,0-4.16-11,39.5,39.5,0,0,1,3.27,10.94,40.5,40.5,0,0,0-8.33-17.25,45,45,0,0,0-9-8.24,37.77,37.77,0,0,0-9.16-4.44,38.33,38.33,0,0,0-7.32-1.56,59.11,59.11,0,0,0-8.51-.31l-21.17.12-43.73,0-58-.21c2.22.75,24,1.64-30,1.78l5.22.84-51.88.42c-17.54.35-35.5.36-52.41.2-8.51-.08-11.37-.47-16.77-.72l1.61-.2-47.51.37c-13.18.29-30.48.47-48.63.53l-13.72,0a38.87,38.87,0,0,0-10,1.13,36.65,36.65,0,0,0-16.24,8.76,33.94,33.94,0,0,0-4.41,5,36,36,0,0,0-3.5,6c-.13.31-.26.62,0,.64l12.27,0H95.71l88.28.26,75-.13c36.75-.27,72-.38,109-.11l10.67,0c22.65-.53,29.39.21,43.76.32a54.05,54.05,0,0,1,9.41.66c1.23.19-3.32.41-1.08.59,5.55.45,22.33.92,18.31,1.3-5.14.48,5.36.69,14.22,1l-27,.34c27.79.33,10.93,1.28,44.9,1.48l-11.4.15Zm-32-41.23c-4.93-1-10.06-.71-15.3-.77l-15.57,0L384.07,446l-18.86-.21c-.58.14-1.14.34-1.71.51-.74-.24-1.58-.36-2.36-.56-13.23-.14-26.65-.26-40.5-.35,0,0,0,0,0,.06l-.23.09c-.58.2-1.14.43-1.71.66h0c-.34-.07-.66-.16-1-.22,0-.19,0-.41,0-.61l-5.95,0v.12c-.84,0-1.66-.07-2.54,0l-1.12,0v-.12l-7.4,0a9.87,9.87,0,0,1,1.15.23c-11.88.2-23.82,0-35.8-.38l-10.5-.07-37.38-.37c3.38.78-4.11,1-30.27,1L155,445.63c-.85.17-1.71.31-2.52.52l34.24.05,13-.16h39a10.51,10.51,0,0,1-3.78.6L204.57,448c20.11.43,19.88.43,33.66-.07l11.21-.13c20.7-.1,57.38.34,67,.78,2.64.12,7,.31,11.18.31l57.48,0c34.48,0,60.54.68,51.52,1.45-3.11.27.51.67,7.1,1,1.72.06,3.46.19,5.07.38a39,39,0,0,1,5.29.8,45.63,45.63,0,0,1,10.78,3.67,41.74,41.74,0,0,1,14,10.68,38.56,38.56,0,0,1,5.86,9.08,26.89,26.89,0,0,1,1.93,5.4,6.89,6.89,0,0,1,.39,2.38c0,.67-1.1-2.58-.48.39.33,1.67.55,3,.68,4l8,.63a50.28,50.28,0,0,0-14.38-28.48A49,49,0,0,0,454.49,447Zm-8.2-52.25c0,1.14,0,2.28,0,3.41a9.29,9.29,0,0,1,8.52,9l-.09,8c-.07,2.59-.18,4.83-.32,6.59-.27,3.51-.65,5-1,3.42-.53-2.25-1.64,5.22-1.7,11.61,0,2.66-.08,4.74-.14,6.55a53.69,53.69,0,0,1,5.88.86c0-.41,0-.8,0-1.26.06-7.39.13-15,.19-22.46,0-4.73.08-10.07.11-14.06a11.77,11.77,0,0,0-10.46-11.54Zm-14.45,12.53,1.89.84c-6.91.15-14.26.18-18.77.42-6.34.35-12.84.36-19,.2a41.48,41.48,0,0,1-6.07-.72l.58-.2c-5.83.12-13.19.13-17.18.37-4.77.29-11,.47-17.59.53H346.9a.47.47,0,0,0-.22-.16.13.13,0,0,0-.16.1c0,10.22,0,20.46,0,30.64v3.31l0,.14-.07.29h18.34l16.76-.19-2.39-.1,39.8.08c2.1-.07,3.76-.05,5.23,0l11,0c4.1,0,8.38-.06,12.69.13,0-3.07.06-6.69,0-8.34-.26-4.55-.36-9.6-.41-14.82,0-2.61,0-5.26,0-7.91v-3.27a3.78,3.78,0,0,0-.07-.83,3,3,0,0,0-1.16-1.77,2.75,2.75,0,0,0-1-.46,3.72,3.72,0,0,0-.59-.07l-1.77,0a5.72,5.72,0,0,0,1.39.58.52.52,0,0,1,.2.54c-.05.08,0,.16-.2.24-.48.07-1.18.14-2.18.2C439.9,407.14,436.73,407.22,431.85,407.26Zm3-15h2.74c0-3.08-.11-5.78-.29-10.94,0-1.6-.07-5.7-.1-8.9-.08-16.44.27-45.59.61-53.21.09-2.1.24-5.6.24-8.88,0-15.14,0-30.47,0-45.66,0-27.39.53-48.1,1.12-40.93.3,3.6.83-4.21,1.12-14.13H436c0,8.14,0,16.31-.07,24.44,0,10.56-.07,22.54-.1,31.42-.31,26.32-.55,53-.6,83,0,6.48-.08,13-.12,19.14C435,375.33,435,383,434.88,392.21Zm0,5c.17-.76.3-.63.4.16l2.35.12c0-1.11,0-2.08,0-3l-2.76,0C434.85,395.42,434.84,396.27,434.83,397.23Zm-65.3-191.71,1.59.17,31.86-.32-.66-.21-5.22.1-8.68-.08-14.6,0A42.91,42.91,0,0,0,369.53,205.52Zm-11.19,6.39c0,.85,0,1.65,0,2.49l2.46.08-2.46.1c0,.75,0,1.5,0,2.25l1.27.09c3.06.18,7.92.33,8.7.54,1.06.29,2.63.28,6.32.3,3.43,0,8.24.15,9.49.31,1.57.21.15.51,0,.85L387,219l-12.76.06-1-.39-14.82.24c0,3.74,0,7.42.06,11l.46.14c.13,0-.11.1-.46.15,0,5.73.07,11.32.1,17,0,11.65-.08,23.51-.13,37.46l.2-5.44c0,6.72.07,12.37.1,17.14.22,2.15.43,2.91.61,6.42.1,1.84.22,9.63.2,12.86-.16,23.83.1,45.89.11,68.8a39.7,39.7,0,0,1,5.56.4l.11,0c0-3.27,0-6.62,0-10-.05-30.73-.11-61.7-.16-92.2,0-12.8,0-19.67.27-22.45.58-6.46,1.16-12.43,1.75-17.29.1-.81.25,3.9.33,8,.39,20.33.14,43.92.13,66.05,0,17-.16,19.24-.48,11.08-.09-2.44-.25-.44-.37-.47,0,5.86,0,13.8,0,17.14l.49,16.67c-.08,8.09-.17,15.94-.25,23.73,2,.26,4.56.5,7.41.71,1.56.12,7.17.19,8.65.11,9.89-.53,19.83-.11,27.88-.13l-5.15,1.07L401.3,388c-5.35,0-12.12-.15-17.81,0-6.58.12-11.42,0-16.5-.17,0,.91,0,1.84,0,2.75l24.71.49c5.51.17,13.43.24,12,.89-.78.35,1.24.37,8.33.27h21.57c0-2.4,0-5.26,0-8.75,0-3.81,0-8,0-12q0-45.35,0-90.7l-.15-13.32-.08,1.9c0-13.15.05-26.44.08-39.69a82.8,82.8,0,0,1-10.73.89c-12.75.5-26.41.26-39.59.37H372.4l-1.18-.18,33.41-1.92,2.05.1-2-.46,18.25-.24c2,0,4.84.08,6.38.18a36.35,36.35,0,0,1,4.1.44c0-6.44,0-12.82,0-19.29h-7.67c0,.29,1.65.65-.32.88-5.24.61-15.38.33-22.74.27-6.1,0-10.55,0-13.27.26-3,.3-6.47.35-11.2.34l-7.22.07,0,.15,21.72.23-13.62.11Zm1.3,175.87c0,.86,0,1.75,0,2.63l5.72.11c0-.91,0-1.83,0-2.76l-2.3-.06-3.39-.06Zm-6.59-175.86v2.3l4.52.16c0-.76,0-1.57,0-2.47Zm2.7,41.54c.41-1,.86,4.39,1.19-12.12.07-3.21.13-7.32.19-10.93-.59,0-1.22.1-1.86.13s-1.48,0-2.21.07c0,13.18,0,26.33,0,39.32.05,18.58.6,42.55,1,31.55l.92-31.15c0-1.42,0-6.69,0-10.19l-.26,1.32c.09-7.73.17-13.87.27-22.72.11,8.17.18,12.7.19,13.73C355.46,252.93,355.61,253.82,355.76,253.46Zm-.09,135.28c0,.6,0,1.05,0,1.59h0C355.67,389.8,355.67,389.31,355.67,388.74Zm-.13-4.27c0-.46,0-.89,0-1.36,0,.46,0,.91,0,1.36Zm-.06,3.1q0,1.38,0,2.75h.08c0-.91,0-1.82,0-2.76Zm1.67-158c.06-3.57.13-6.51.21-7.34s.13-1.89.17-3.25H357l-3.9,0v9.43C354.53,228.79,355.89,229.18,357.15,229.58Zm.41-12.8c0-.65,0-1.37,0-2.16l-3,.12c-.2.27-.61.46-.45.65C354.55,215.85,352.68,216.36,357.56,216.77Zm-4.91-4.85v2.29h.13v-2.29Zm-4.77,0c0,.87,0,1.76.06,2.56h.32v-2.56Zm.23,7c0,.23,0,.45,0,.69l0-.68Zm-2.54,176a12,12,0,0,0-9.64,4.14c-.06.07,0,.15-.06.24a17,17,0,0,1,1.59-1.49,11.76,11.76,0,0,1,6.1-2.55c2.16-.15,4.49,0,7,0l14.6.07,29.2.12,4.69-.16h14.12c-.41.2-.13.42-1.37.6l-11,1.39c7.27.43,7.19.43,12.18-.07.72-.07,2.59-.12,4.05-.13,4.54-.06,11.2.08,16.52.3,0-.82,0-1.77,0-2.83l-5.61,0-8.71-.16-13.52-.37c1.22.78-1.49,1-10.95,1l-14.34-.07-23.31.07ZM33.48,139.79l3.08-1.47,26.91-14.73c33.29-18.34,68-37,100-55.13,30.1-17,40.33-23.81,15.76-11.08L163,66,116.93,91.53l5.41-2.43-5.24,2.75ZM233.66,507.36c-3.5-.32-12.16-.4-28.26-.35l-116.06.2c-17.55,0-34.73.23-45.81.56-5.66.17-9.26.36-11.6.55-1.64.1-2.26.2-1.65.29.3,0,.91.1,1.86.14l2.23.14,8.29.18,63.67.68,21-.63,21.58,0c0,.16,2.49.36-.59.48-10.27.41-7.48.61,13.94.62,27.87,0,57.56.34,83.15-.17,5.12-.1,11.05-.3,10-.42C249.31,508.86,241.8,508.11,233.66,507.36Zm198.63.38-50.46.24,5.66.46-5.67-.1-92.37,1.92,3.27.18h29.4c36.43-.11,74.19.13,109.44-.37,33.14-.47,44.87-1.53,18.35-2.16ZM32.69,150.58c-.4-.1-.77,0-1-.22-.9-.16-2.08-1.53-2-1.25A4.42,4.42,0,0,0,31,151.8c1,.74,1.33,1.34,6.68,1.65,3.65.32,12.68.4,29.49.35l121.09-.2c36.62,0,71.71-.95,57.36-1.7l-8.65-.18L170.57,151l-21.89.63-22.51,0c0-.16-2.59-.36.62-.48,10.71-.41,7.81-.61-14.55-.62L68,150.49l-21.76,0-10.53.09c-.73,0-2,.05-2.29,0A2,2,0,0,0,32.69,150.58Zm224.23-11c1.62-.19,3.46-.57,3.12-.72-2-.88-4.31-1.65-6.67-2.81-1-.45-3.54-.62-8.18-1.53a46.89,46.89,0,0,1-28.15-18c-6.34-8.18-9.52-18.12-9.45-13.74a17.43,17.43,0,0,0,.64,2.49,50.65,50.65,0,0,0,9.55,17.34c1.37,1.22,3,2.28,5.28,4,1.07.74,3.45,2.73,5.41,3.92-.12.17.41.8-.49.43-3-1.39-2.54-.49,3.4,2.93C239.18,138,248.82,140.63,256.92,139.62ZM223,59.29c-2.12,1.87-3.94,3.62-5.13,4.76s-2.57,2.9-4,6.59c-1.82,4.3-3.18,11.05-2.33,12.32.38.63.43,5.14,1.13,7.49.19.76.43,1.16.57.79.3-.79.55-2.15.72-2.78a40.6,40.6,0,0,1,6.25-21.16,52.1,52.1,0,0,1,9.33-10.57A38.38,38.38,0,0,1,240,50.42c.79-.84,1.52-1.63,2.46-2.47a30,30,0,0,1,3.23-2.34c-5.72,1.32-13,4-18.09,9.31Z"/></svg>