<svg id="Layer_1" data-name="Layer 1" xmlns="http://www.w3.org/2000/svg" viewBox="0 0 512 512"><defs><style>.cls-1{fill:#9fb2b7;}.cls-2{opacity:0.12;}.cls-3{fill:#17292d;}.cls-4{fill:#ffa840;}.cls-5{fill:#fff;}.cls-6{fill:#b8ccd1;}</style></defs><title>bank-flat</title><path class="cls-1" d="M40.42,417.68V459.8A53.92,53.92,0,0,0,0,512H512a53.92,53.92,0,0,0-40.42-52.2V417.68a13.47,13.47,0,0,0-13.47-13.47V215.58a13.47,13.47,0,0,0,13.47-13.47V161.68h20.17c21.11,0,28.1-29.4,9.42-39.63L297.62,10.69a86.36,86.36,0,0,0-83.24,0L10.84,122.06c-18.68,10.22-11.69,39.63,9.42,39.63H40.42v40.42a13.47,13.47,0,0,0,13.47,13.47V404.21A13.47,13.47,0,0,0,40.42,417.68ZM350.32,215.58V404.21a13.47,13.47,0,0,0-13.47,13.47v40.42H323.37V417.68a13.47,13.47,0,0,0-13.47-13.47V215.58a13.47,13.47,0,0,0,13.47-13.47V161.68h13.47v40.42A13.47,13.47,0,0,0,350.32,215.58Zm-188.63,0a13.47,13.47,0,0,0,13.47-13.47V161.68h13.47v40.42a13.47,13.47,0,0,0,13.47,13.47V404.21a13.47,13.47,0,0,0-13.47,13.47v40.42H175.16V417.68a13.47,13.47,0,0,0-13.47-13.47Z"/><g class="cls-2"><rect class="cls-3" x="107.79" y="215.58" width="53.89" height="188.63"/></g><g class="cls-2"><rect class="cls-3" x="256" y="215.58" width="53.89" height="188.63"/></g><g class="cls-2"><rect class="cls-3" x="404.21" y="215.58" width="53.89" height="188.63"/></g><circle class="cls-4" cx="256" cy="80.84" r="26.95"/><path class="cls-5" d="M256,121.26a40.42,40.42,0,1,1,40.42-40.42A40.47,40.47,0,0,1,256,121.26Zm0-53.89a13.47,13.47,0,1,0,13.47,13.47A13.49,13.49,0,0,0,256,67.37Z"/><path class="cls-6" d="M.8,134.74C-2.5,147,5.31,161.68,20.25,161.68H491.75c14.94,0,22.75-14.72,19.45-26.95Z"/><path class="cls-6" d="M504.73,485.05a53.83,53.83,0,0,0-46.63-26.95H53.89A53.83,53.83,0,0,0,7.27,485.05Z"/></svg>