<svg id="Layer_1" data-name="Layer 1" xmlns="http://www.w3.org/2000/svg" viewBox="0 0 512 512"><defs><style>.cls-1{fill:#141f38;}</style></defs><title>chart-presentation-2-glyph</title><path class="cls-1" d="M512,38.4a38.4,38.4,0,0,1-38.4,38.4H38.4A38.4,38.4,0,0,1,38.4,0H473.6A38.4,38.4,0,0,1,512,38.4Zm-102.4,64h64V345.6a64.19,64.19,0,0,1-64,64H268.8v54.75a25.6,25.6,0,1,1-25.6,0V409.6H102.4a64.19,64.19,0,0,1-64-64V102.4H409.6ZM166.4,179.2H140.8V320h25.6Zm51.2,64H192V320h25.6Zm51.2-25.6H243.2V320h25.6ZM320,179.2H294.4V320H320Zm51.2,51.2H345.6V320h25.6Z"/></svg>