<svg id="Layer_1" data-name="Layer 1" xmlns="http://www.w3.org/2000/svg" viewBox="0 0 512 512"><defs><style>.cls-1{fill:#141f38;}</style></defs><title>chart-presentation-2-outline</title><path class="cls-1" d="M512,44.8A44.93,44.93,0,0,0,467.2,0H44.8a44.8,44.8,0,0,0-6.4,89.13V345.6a64.19,64.19,0,0,0,64,64H243.2v54.63a25.6,25.6,0,1,0,25.6,0V409.6H409.6a64.19,64.19,0,0,0,64-64V89.13A45,45,0,0,0,512,44.8ZM448,128V345.6A38.44,38.44,0,0,1,409.6,384H102.4A38.44,38.44,0,0,1,64,345.6V89.6H448Zm19.2-64H44.8a19.2,19.2,0,0,1,0-38.4H467.2a19.2,19.2,0,0,1,0,38.4ZM396.8,243a25.4,25.4,0,0,0-25.4-25.4H345.6V179a25.4,25.4,0,0,0-25.4-25.4h-26A25.4,25.4,0,0,0,268.8,179v13H243a25.4,25.4,0,0,0-25.4,25.4v.2H192V179a25.4,25.4,0,0,0-25.4-25.4h-26A25.4,25.4,0,0,0,115.2,179V320H89.6v25.6H422.4V320H396.8Zm-25.6.2.2,76.8H345.6V243.2Zm-51.2-64,.09,61.77c-.05.67-.09,1.34-.09,2v77H294.4V217.4a25.66,25.66,0,0,0-.15-2.74l-.05-35.46Zm-51.2,38.4V320H243.2V243a25.65,25.65,0,0,0-.16-2.79l0-22.61Zm-51.2,25.6V320H192V243.2Zm-77-64h25.8l.09,61.77c-.05.67-.09,1.34-.09,2v77H140.8Z"/></svg>