<svg id="Layer_1" data-name="Layer 1" xmlns="http://www.w3.org/2000/svg" viewBox="0 0 512 512"><defs><style>.cls-1{fill:#707070;}</style></defs><title>chart-presentation-2-handdrawn</title><path class="cls-1" d="M13.78,69.25A45.24,45.24,0,0,0,15,74.15c-.21-.67-.4-1.33-.55-1.92A26.16,26.16,0,0,1,13.78,69.25Zm498.16-6.79a56.2,56.2,0,0,1-3.17,16.89A53.1,53.1,0,0,1,498.3,96.9,52.23,52.23,0,0,1,470.78,113a51.6,51.6,0,0,0,17-7.91c-9.45,6-18.05,7.47-21,7.68l-.39,0,.15,112-.09-3.35c-.06,7.83-.12,15.58-.18,23.48v100c0,6.67-.43,13.7-2.53,20.22a63.14,63.14,0,0,1-42.48,42.59,65.23,65.23,0,0,1-17.28,2.5l-10.52,0c-5,0-6.21.12-4.69.29,5.61.62-25.05.69-46.39.85l-70.94.35c0,.57-.05,1.14-.11,1.72,0,.28,0,.6,0,.89,11.86-.06,24.45-.08,39.44,0l69,0,17.48,1.09c5.48.35,13.47.79,21.52-.67a71.45,71.45,0,0,1-13.44,1.64c-4.45.15-8.42.06-12.79.1l-26.67.07c-18.31,0-37.5,0-56.65-.25l-33.51.11-4.44.09c0,.78,0,1.57,0,2.34,0,2.11.21,4.19.25,6.3,0,2.43,0,4.88,0,7.33a8.86,8.86,0,0,0,.07,1.4,18.06,18.06,0,0,1-.29,7.31,24.92,24.92,0,0,0-.36,3.39l.19-.11c.24.39.61.59.69,1.2a9.69,9.69,0,0,1-.19,3.74c0,.08,0,.21,0,.3a25.46,25.46,0,0,1,4.24,2.71c4.13,3.18,7.54,7.87,8.75,12.26a39.14,39.14,0,0,1,1.48,4.94,21.89,21.89,0,0,1,.21,4.39,18.58,18.58,0,0,0-.7-2.47c.08,3-.44,4.46-1.08,1.84-.16-.59-.35.11-.53,0-.6-.27-.8-1.48-2.56-6.44-1-2.65-3.64-4.71-3.57-3.63,0,1.52-2.2-1.54-5.74-4.61a21.11,21.11,0,0,0-3.3-2.32c.06.9.14,1.81.13,2.66,0,.32,0,.64,0,1,.43.25.87.47,1.28.75a15.87,15.87,0,0,1,3.31,3.38,20.32,20.32,0,0,1,3.34,6.68c1,3.86.42,5.45-.2,4.69a8.38,8.38,0,0,0-1.68-1.14c-.19-1.67-.72-2.65-1.13-2.14a16.47,16.47,0,0,0-5.16-8.54,10.84,10.84,0,0,1-.19,1.4c-.11.4,0,1.41,0,2.06a15.47,15.47,0,0,1-.36,1.77l-.45-1c-.32,1.23-.74,1.87-1.3.72-.13-.26-.36,0-.53,0-.47-.15-1-.66-1.1-3.08-.06-1.26-1.12-2.74-1.63-2.29-.73.64-1.41-1.18-1.39-3.61a17,17,0,0,0-2.84-.44c0,.1,0,.2,0,.3a27.52,27.52,0,0,1,.13,2.82c.06,1.48.09,3,.18,4.43.15,2.32-.12,3.22-.82,2.78a14,14,0,0,0-1.62-.77c0-1.12-.32-1.85-.83-1.57-.07-2.7-.14-5.33-.21-8h-.08l-1.52.25c-2,.37-2.47.71-2.16.91.58.44-1.42,1.21-2.52,2.18a16.06,16.06,0,0,0-6,9.73,13.7,13.7,0,0,0,1.21,9c.32.46.54,1.15.92,1.67a12.54,12.54,0,0,0,5.58,5.45,5.88,5.88,0,0,1,1.19.82,2.86,2.86,0,0,1,.43,1,16.75,16.75,0,0,0,1.92.64,5.63,5.63,0,0,1-.68.09,17.69,17.69,0,0,0,4.48.24,17.89,17.89,0,0,0,4.25-.56l.12-.44a13.57,13.57,0,0,0,3-1.4l-.57.49c.19.26.67.3.41.71a6.48,6.48,0,0,1-2.28,1.38c-1,.41-1.41.45-1.63.81a7.64,7.64,0,0,1-2.41,1c-2.2.52-1.5,1-1.63,1.56-.05.18.08.36.15.61.16,0,.84.09,2.09.1a19.49,19.49,0,0,1-3.48.43l.22-.32-1.55-.12a29,29,0,0,1-5-.09c-1.92-.18,1.53,2.13,4.79,2.52a21.64,21.64,0,0,0,12-1.8,28.24,28.24,0,0,0,4.46-2.58,22.54,22.54,0,0,1-7.23,4l0,.14a21.74,21.74,0,0,0,2.64-.9c1.68-.76,2.85-1.44,4-1.85a11.77,11.77,0,0,0,4.09-3.25c2-2.17,3.72-5.78,4.92-7.57.48-.67.57.07.83.17a24.07,24.07,0,0,0,1.5-8.4,25,25,0,0,1,1.7,4.45l.4-1.83a14.52,14.52,0,0,0-.07,4.16c.12.64.38,1.2-.33,3.51a29.63,29.63,0,0,0,1.67-4.4c-.08,1.57-.4,3.44.29,2.69.59-.6,0,2.46,0,3.6,0,.45.54-.25.61,0a2.53,2.53,0,0,1-.2,1.92c-1.2,2.5-1.26,4.17-4.55,7.27l-1.45,1.52a29.28,29.28,0,0,1-19.1,8.95,35.09,35.09,0,0,1-14.45-1.91,31.26,31.26,0,0,1-21.1-28.45c-.1-1.29,0-2.8,0-3.85a26.66,26.66,0,0,1,2.27-10.38,25.87,25.87,0,0,1,5.46-7.88,40.87,40.87,0,0,1,7.13-5.83h-.37a10.28,10.28,0,0,1,2.49-2.28,22.55,22.55,0,0,1,7.37-2.63,7.45,7.45,0,0,1,.1-1.22,5.26,5.26,0,0,0-.11-1.71,6.72,6.72,0,0,0-.93-1.82,2.6,2.6,0,0,1-.37-2c.12-1.19-.1-2.95.61-3.25.34-.15.64-1.35,1-2,.11-.21.27-.32.39-.23a5,5,0,0,1,.63.76c.18,2.23.31,4.3.51,6.28a18.08,18.08,0,0,1,.26,4c0,.23,0,.5,0,.75.17,0,.33-.08.5-.1.68-.07,1.48-.12,2.35-.15-.33-2.56-.55-5.23-.77-7.93-.2-2.46-.17-5.07-.49-7.42a13.72,13.72,0,0,1,0-1.57c0-2.17.36-4.24.15-6.48a2.78,2.78,0,0,1,.25-1.16,2.38,2.38,0,0,1,.76-.58l.12-1.54.24.49c0-.23,0-.4,0-.62l-8.3.24c0,.08,0,.12,0,.2-.12,2.74-.2,5.53-.19,8.29,0,2.51-.91,4.91-1.63,3.93a1.72,1.72,0,0,1-.17-.59c-.22-1.48-.43-3-.66-4.55a10.13,10.13,0,0,0,.61-1.5,9.57,9.57,0,0,0,0-1.54c-.16,0-.34-.18-.46,0-.4.73-.59.53-.6-1,0-1-.08-2.12-.09-3.18l-3.5.13c-7.84.32-19.21.48-39.1.37-23.42-.12-57.79.1-63.83-.61-1.47-.17-8.07-.33-15.88-.49-4-.14-7.82,0-12.46-.37a64.93,64.93,0,0,1-12.28-1.83c-4.46-1.22-6.79-2.11-4.7-1.62,4.47,1.06,12.57,2.44,16.38,2.16,44.46.14,84.47-.22,123.48-.35l12.13-.07s0-.06,0-.09c.1-.37.29-.79.41-.72.37.22.74.53,1.11.8l9.57-.06c0-.11,0-.24,0-.35,0-.74.1-1.5.18-2.27L165,412.2l-36.6.12c-6.19,0-12.24.1-18.58,0a63.58,63.58,0,0,1-19.28-3.38,65,65,0,0,1-31-22.47,64.82,64.82,0,0,1-13-34.89c-.45-9.38-.14-20.66-.23-31.14,0-42.54.1-83.09.15-127.16,0-5.7.13-19.42.25-22.67.23-6.2.48-7.53.76-11.32,0-8.4.07-18.37.12-30.21l.24,9.6c0-7.5,0-14.56-.06-21.47l-.13,0a51.14,51.14,0,0,1-8.14-1.95c0,5.47,0,12,0,19.9-.06,53.78-.13,108.38-.19,162.57-.05,12.29-.1,24.45-.15,35.48,0,5.58-.08,10.88-.12,15.77a74.58,74.58,0,0,0,1.75,15.49A84.4,84.4,0,0,0,47,382.3c1.42,2.6.56,2.19-2.09-3a62.82,62.82,0,0,1-5-13.14,67.81,67.81,0,0,1-2.25-13c-.11-2.12-.3-4.63-.3-6.43l0-5.48q-.08-11-.16-22.09c-.11-14.82-.22-29.85-.33-45.23.17-8.13.34-16.68.61-29.39,0-5.88,0-19.89,0-30.23-.16,0-.34-3.48-.46.83-.4,14.39-.59,10.48-.6-19.53,0-19.41-.07-39.46-.11-59.12,0-7.57.06-15,.08-22.42-1.15-.44-2.33-.8-3.44-1.32A56.48,56.48,0,0,1,.41,54.64c2.67-23.9,21.83-44.5,45.5-48.74a55.25,55.25,0,0,1,7-.87l3.6-.17h2.7L69,4.8c34.69-.43,79.54-.26,107.15.29l49.74.36-1.68-.19c5.66-.24,8.65-.61,17.56-.69,17.71-.16,36.51-.14,54.88.19L351,5.16,345.5,6c56.53.14,33.68,1,31.36,1.71l60.74-.2h17.15c2,0,3.63,0,6.28.12a53.43,53.43,0,0,1,27.17,8.91C504.22,27.06,512.84,45.93,511.94,62.46ZM265,502.92a6.47,6.47,0,0,0,2.1-.27,26.15,26.15,0,0,0,6.35-3.2,31.45,31.45,0,0,0,3.27-2.66c.62-.56,1.29-1.1,1.87-1.71l.07-.38a28.44,28.44,0,0,1-13,7.87ZM24.11,90.35a42.68,42.68,0,0,1-8.67-14.9,44.57,44.57,0,0,0,4.26,8.76c-7-11.92-6.33-20.48-6.33-25A43.59,43.59,0,0,1,26.11,30.13,42.43,42.43,0,0,0,13.23,54.5C11.22,66.09,14.71,80.6,24.11,90.35ZM71.84,392.46a66.53,66.53,0,0,1-10-11.54,62.38,62.38,0,0,1-8.27-18.68c-2-7.28-2-15.4-2-24s-.15-17.33-.23-26.1c0,13.3,0,24.56.06,35.82v.81c-.15-5.4-.1-10.87-.21-26.7,0,18-.52,28.34.58,34.39A59,59,0,0,0,71.84,392.46ZM53.09,168.24c.52,18.4,1.16-18.64,1.28-50.45-.78,0-1.55-.07-2.33-.12C52.42,135.73,52.82,154.77,53.09,168.24ZM115,394.67l13.08-.06c46.42-.43,106.42-.26,143.35.29l66.54.36-2.25-.19c7.57-.24,11.58-.61,23.49-.69l36.38-.09c3,0,6.43.07,9,0a44.87,44.87,0,0,0,7.06-.63,46.44,46.44,0,0,0,32-21.18,43.52,43.52,0,0,0,5.92-13.91,24.37,24.37,0,0,0,.75-3.82,22.76,22.76,0,0,0,.45-3.89c0-1.4.2-2.4.2-4.13l0-5,.74,7c.26-75.07,1-44.91,1.77-41.68-.07-29-.14-55.37-.2-81.27,0-39.14,0-80.57.39-115.15l-23.93,1.74,11.94.14c-35.57.2-17.92,1.11-47,1.42l28.23.32c-9.28.28-20.27.49-14.89.95,4.21.36-13.36.82-19.17,1.24-2.34.17,2.42.38,1.13.57a61.62,61.62,0,0,1-9.86.63c-15,.1-22.11.81-45.82.3l-11.17,0c-38.73.26-75.61.16-114.08-.1l-78.49-.13-46.22.12-20.28.07c0,15.66,0,31.67,0,47.21.08,41.38.17,82.28.25,123.67q0,17.91,0,35.87v22.45l.17,3.6a46,46,0,0,0,.9,6.85c3.67,18.16,19.42,33.35,37.67,36.38a37,37,0,0,0,5.45.63l2.81.16ZM248.56,114.51l42.26,0,25.14-.08,15.1.1,1.92-.2L240.75,114l-4.6.16C240.25,114.26,243.78,114.49,248.56,114.51ZM262.38,407.7s0-.05,0-.07a2.75,2.75,0,0,0,.08-.36h-.83l0,.43Zm-.77,0c0-.14,0-.28,0-.43l-17.11,0-.11.4Zm6.35,0c0-.15,0-.3,0-.44h-.27l0,.44Zm-24.69,0c0-.13,0-.26,0-.4l-116.63.13-9.18.06a5.61,5.61,0,0,0,.91.11Zm15.62,36q-.1-5-.21-10a4.09,4.09,0,0,0-.06-.47s-.11,0-.11,0c-.05,3.07-.11,6.13-.15,9.2,0,.38,0,.77,0,1.15Zm-.43-17.42c0,.68,0,1.25,0,1.83l0,0-.15-1.36a13.11,13.11,0,0,0-.14,1.76c.1.78.28,1.46.42,2.17A9.55,9.55,0,0,0,258.44,426.24ZM241.4,486a19.15,19.15,0,0,1-1.47-2.63v-.08a20.67,20.67,0,0,0,1.16,1.92c-.68-1.34-.92-2.17-1.14-2.63a26.74,26.74,0,0,1-1.41-3.3A11.51,11.51,0,0,0,241.4,486Zm14.43-29h0c0-.87,0-1.74,0-2.61-.35,0-.75,0-1.05.09a10.4,10.4,0,0,1-1.47.1c-1.85,0-1.92-.1-4.24,1.24a17.55,17.55,0,0,1,4.09.1c.44.06.39.3.56.46a20.85,20.85,0,0,0-4.43,1.45,14.5,14.5,0,0,0-1.46.57,19.52,19.52,0,0,0-9.71,15.83l0,.78s.11,0,.11-.07a19.19,19.19,0,0,1,6.22-13.39,20.33,20.33,0,0,1,3.71-2.79c2.73-1.46,3.71-1.33,3.55-.55A18,18,0,0,1,255.83,457Zm-.16,2.1v-.08h-.05Zm5.86-2c0-.63,0-1.26,0-1.89a1.76,1.76,0,0,0-.3-.8s0-.12-.06-.16c-.94,0-1.94,0-3,0,.07.87.14,1.73.25,2.56h.17A22.14,22.14,0,0,1,261.53,457.18Zm-.12-40.56-2.16.05a16.8,16.8,0,0,0,.93,2.24C260.67,419.79,261.25,418.16,261.41,416.61Zm.1-4.89-5.35,0s0,0,0,0a6.45,6.45,0,0,1,.52,1.72,1.83,1.83,0,0,0,.44.86h1.69l.21-1.08.18,1.08h2.29C261.5,413.46,261.52,412.59,261.51,411.72Zm241-371.91c-3.94-6.94-7.36-9.7-5.22-6.71,1.43,2.25,1.3,2.4,0,.88a58.46,58.46,0,0,0-8.17-8.29,47.61,47.61,0,0,0-18.53-9.44,49.2,49.2,0,0,0-12.85-1.55l-13.07,0-60.18,0c-4.34,0-8.94.18-11.71.3-10,.42-48.46.85-70.13.75l-11.74-.13c-14.43-.48-14.19-.48-35.24-.06l31.82,1.34a11.92,11.92,0,0,1,4,.57H250.54L237,17.35l-169,.25-6.86.06a3.19,3.19,0,0,0,.68.11l134.89.15,41.49-.07c27.39,0,35.23.16,31.69.92L309,18.41l25.22-.15c39.5-.06,74.67-.37,109.37-.75,5.91.08,12.58-.4,20,.22a44,44,0,0,1,31.91,67.7,44.4,44.4,0,0,1-16.34,15,40.12,40.12,0,0,1-13.66,4.43c-6.95.73-8.65.2-5.35-.2,4.8-.68,7.2-1.89,10.83-3.45a40.11,40.11,0,0,0,15.87-9.62c2.84-3,3.62-4.37,2.12-3a40.62,40.62,0,0,0,1.55-52.38,41.2,41.2,0,0,0-23.35-14.61c-4.57-1-9.21-.95-14.17-.92l-14.63,0,2.51-.09-17.55-.18H288c-20.54-.09-26.38-.07-24.12.26,4.2.62-18.73.69-34.68.85l-132.55.88-27.35.12c-4.56,0-9.3,0-13.73.1A36.83,36.83,0,0,0,43.28,25,38.92,38.92,0,0,0,24.19,40.25,38,38,0,0,0,18.1,63a40.22,40.22,0,0,0,1.73,9.86,42.49,42.49,0,0,0,4.66,9.7,39.45,39.45,0,0,0,16,13.74,36.1,36.1,0,0,0,10.08,3.11c3.42.65,7,.53,11.07.57h48c4.26,0,14.51.13,16.94.25,4.63.23,5.62.48,8.46.76l22.58.12-7.17.24,49.37-.16,47,.26,2.86-.37,36.94.06-8.18.12c.49.32,4.59.61.05.81-3.6.16-17.53.28-27.46.3-10.67,0-15.22,0-18.29.29-2.25.2-16.32.35-25.18.52-21.77.41-14.61,1-16,1.48-.48.18.71.37,1.29.62l18.09.23-29.94.34,1.74-.33H169.3l-41.06,1.14c-14.5.55,17.09,1.23,41.58,1.3l93.93.05,39.42.11-62.88.23,0,.14,20.89.07c13.71,0,23.89,0,32.43.33,7.85.26,20.76.3,38.4.25,21.3-.06,50.65-.33,65.83.26,5.7.22.92.56.92.84h54.91c0-.14,0-.29,0-.43.82.06,1.63.12,2.49.12.48,0,.93-.05,1.4-.07,0,.13,0,.25,0,.38h.88l-.88.06c.28,21.37,1.11,41.3,1.54,33.88.74-12.64,1.43,23.87,1.39,72.17,0,26.79,0,53.81,0,80.51,0,5.8.18,12,.3,15.67l.31,16.25.14,11.7c.09,4.22.09,8.6-.17,12.82a57.79,57.79,0,0,1-24.54,41.91c-4.45,3-10.67,6.08-13.27,6.71a61.45,61.45,0,0,1-18.8,3.13l-26.85.35,22.19.67c7.2.29,13.72,0,19.68-1.58a36,36,0,0,1,5.07-1.08c-8.4,3.28-17.3,4.13-26.44,3.9h-27.3l-18.16-.15-81.29.09c0,.15,0,.3,0,.45l27.34,0,55.51-.07c36.64,0,47.13.16,42.4.92,20.44,1,36.23-5.59,48-16.54a57.19,57.19,0,0,0,10.42-12.8,58.33,58.33,0,0,0,6.73-15.48c1.91-6.31,2.28-12.8,2.23-19.21s0-12.79-.06-19.07c-.06-12.57-.11-24.85-.16-36.94-.17-24.17-.33-47.54-.49-70.75,0-15.65-.08-36.77-.13-55.4,0-17.7-.07-35.46-.11-53.13a29.14,29.14,0,0,0,3.25-.89v4.09l.13,0a58.26,58.26,0,0,0,9.27-2.77c4.31-1.73-.71-.12.17-.63a88.65,88.65,0,0,0,10.36-6,55.41,55.41,0,0,0,11.25-10.78,50.07,50.07,0,0,0,10-23C509.5,58.52,506.46,46.65,502.48,39.81ZM13.78,69.25c-.1-.53-.21-1.07-.3-1.6C13.55,68.15,13.68,68.71,13.78,69.25Zm1.66,6.2c-.15-.43-.31-.87-.44-1.3C15.12,74.56,15.28,75,15.43,75.45Zm-2.3-9.68c.07.63.25,1.25.35,1.88-.12-.87-.22-1.71-.33-2.52ZM107.84,90c-22.44,0-25.35.2-14.6.6,3.22.12.58.31.62.46L71.26,91,59,90.7l-2.55-.09-1.68-.18a20.08,20.08,0,0,1-3.13-.5A29.35,29.35,0,0,1,27.29,56.56a33.14,33.14,0,0,1,1.42-5.85c.75-2.4.88-2.77.09-1.68A23.22,23.22,0,0,0,26,57a29.19,29.19,0,0,0,1.31,15.38A31.19,31.19,0,0,0,39.14,87.56,30.7,30.7,0,0,0,49.36,92c3.7.87,6.93.91,12.57.88l30.45,0L153,93c16.86,0,25.93,0,29.59-.34,8.51-.72,16.39-1.44,22.78-2.17,1.06-.12-5.15-.31-10.51-.41C168.1,89.65,137,90,107.84,90ZM270.15,25.5l-13.07-1.09-51.55,0c-23.91-.15-39.78.12-59.19.26l-91.72.61a32.51,32.51,0,0,0-9,2.29c-1.07.54.26.1,2.74-.35A32.33,32.33,0,0,1,55,26.57c2.35-.09,6,.11,8.75.15,5.84.16,10.78.32,11.87.49,4.52.7,30.2.49,47.71.61,14.87.1,23.37-.05,29.23-.37,6.12-.34,15.66-.66,26.7-.93,4.51-.11,20.75-.18,25-.11,28.62.5,57.39.11,80.69.13Zm5.09,64.25H244.46l-3.42.18,96.71,1.84,5.94-.1-5.93.44,52.83.23L409,92.18c27.76-.6,15.48-1.62-19.22-2.07C352.92,89.63,313.38,89.86,275.24,89.75ZM135.64,207.34a15.12,15.12,0,0,0-.37,2.36A16.09,16.09,0,0,1,135.64,207.34Zm.07-.44c0,.14,0,.3-.07.44l.15-.62Zm9,62a13.88,13.88,0,0,0,.27-3.07c.32-7.83.11-16.93.11-25.46,0-6.56-.13-7.41-.4-4.27-.08.94-.2.17-.31.18,0-2.26,0-5.3,0-6.61l.4-6.42c-.08-3.36-.15-6.65-.22-9.89a21.31,21.31,0,0,1,0-3.2,7.8,7.8,0,0,1,.61-2.09l.54-1.06c.46-.91-.32-.66-1.34.79a6.9,6.9,0,0,0-1.12,3.06c-.08.39-.1,2-.12,3.2s0,2.64,0,4c0,11.84-.09,23.78-.13,35.54a65.46,65.46,0,0,0,.23,8.65C143.72,264.69,144.2,267,144.68,268.86Zm5.11-68.29a56.56,56.56,0,0,1,7.62.45,29.12,29.12,0,0,0,5.55.35l4.25,0h1.08l.67,0a8.7,8.7,0,0,1,1.25.17,16.3,16.3,0,0,1,4.89,2.14,9,9,0,0,1,3.41,3.84,8.34,8.34,0,0,1,.7,2.4,11.4,11.4,0,0,1,.13,1.47c0,.63,0,1.16,0,1.47-.34,8.37-.07,16.78-.09,23.6l.68-4.36.73-3.82c0-4.53,0-10.25,0-15.08a19.16,19.16,0,0,0-.2-4.12,11.45,11.45,0,0,0-1.09-3.08,12.32,12.32,0,0,0-8.55-6.37,15,15,0,0,0-2.44-.21l-3.32,0-13.69.19a8,8,0,0,0-2.25.74C148.82,200.63,149.17,200.61,149.79,200.57Zm-4.57,100.87c0-.13,0-.87,0-1.61v-2.12c0-2.82,0-5.63,0-8.42,0-3,0-6,0-9l-.12-1-.61,14.14-.31,7.07a9.15,9.15,0,0,0,.33,3.69l.44.73c-.19-.15-.32-.33-.65-.64a8.31,8.31,0,0,0,5.79,4.95,7.3,7.3,0,0,0,1.47.13c.47,0,1.76,0,2.3-.06,4.06-.2,5.19-.47,4-.73a27.41,27.41,0,0,0-3.36-.37l-2.76-.16a9.77,9.77,0,0,1-1.47-.3,7.22,7.22,0,0,1-4.78-4.6A6.49,6.49,0,0,1,145.22,301.44Zm41.11-47.94c-.09.14-.17.28-.26.46Zm7.61,53.16-.12-.74-.31,5.24a8.66,8.66,0,0,0,.07,2.38,7.72,7.72,0,0,0,2.47,4.25l.57.27-.7-.08a8.08,8.08,0,0,0,2.67,1.27,12.67,12.67,0,0,0,3.72.31c1.26,0,3-.05,4-.11,6-.4,3.35-1.08-4.16-1.38l-1.51-.05-.71-.08a8.65,8.65,0,0,1-1.24-.29,7.21,7.21,0,0,1-2.24-1.2A6.45,6.45,0,0,1,194,312.1C193.93,311.8,193.95,308.69,193.94,306.66Zm39.69-70.49c.14-.39.29-.78.46-1.16C233.94,235.32,233.79,235.71,233.63,236.17Zm.77-1.94c-.13.25-.2.53-.31.79.15-.33.29-.63.41-.92Zm8.25,73v-3.5c0-2.49,0-5.07,0-7.6l-.12-.84-.61,11.92a7.61,7.61,0,0,0,1.49,5.35,3.37,3.37,0,0,0,.56.46,4.09,4.09,0,0,1-.73-.31,8,8,0,0,0,5.86,2.8c1.17,0,3.38,0,4.42-.1,7-.41,3.56-1.06-4.48-1.4a7.31,7.31,0,0,1-5-2.71,6.88,6.88,0,0,1-1.26-2.61A7.65,7.65,0,0,1,242.65,307.21Zm39.17-99.87a15.12,15.12,0,0,0-.37,2.36A16.09,16.09,0,0,1,281.82,207.34Zm.07-.44c0,.14,0,.3-.07.44l.15-.62ZM296,200.57a56.56,56.56,0,0,1,7.62.45,29.12,29.12,0,0,0,5.55.35l4.25,0h1.08l.67,0a8.7,8.7,0,0,1,1.25.17,16.3,16.3,0,0,1,4.89,2.14,9,9,0,0,1,3.41,3.84,8.34,8.34,0,0,1,.7,2.4,11.4,11.4,0,0,1,.13,1.47c0,.63,0,1.16,0,1.47-.34,8.37-.07,16.78-.09,23.6l.68-4.36.73-3.82c0-4.53,0-10.25,0-15.08a19.16,19.16,0,0,0-.2-4.12,11.45,11.45,0,0,0-1.09-3.08,12.32,12.32,0,0,0-8.55-6.37,15,15,0,0,0-2.44-.21l-3.32,0-13.69.19a8,8,0,0,0-2.25.74C295,200.63,295.35,200.61,296,200.57ZM291.4,301.44c0-.13,0-.87,0-1.61v-2.12c0-2.82,0-5.63,0-8.42,0-3,0-6,0-9l-.12-1-.61,14.14-.31,7.07a9.15,9.15,0,0,0,.33,3.69l.44.73c-.19-.15-.32-.33-.65-.64a8.31,8.31,0,0,0,5.79,4.95,7.3,7.3,0,0,0,1.47.13c.47,0,1.76,0,2.3-.06,4.06-.2,5.19-.47,4-.73a27.41,27.41,0,0,0-3.36-.37l-2.76-.16a9.77,9.77,0,0,1-1.47-.3,7.22,7.22,0,0,1-4.78-4.6A6.49,6.49,0,0,1,291.4,301.44Zm41.11-47.94c-.09.14-.17.28-.26.46Zm12.71-2.25a45.52,45.52,0,0,1,5.65.53c1,.47,6.54.32,10.34.4l3.2.06,1.55.07a7.79,7.79,0,0,1,3.68,1.09,8.69,8.69,0,0,1,2.64,2.58,12.82,12.82,0,0,1,1.78,5.87l.1,8.11.68-3.23.73-2.83a17,17,0,0,0-.41-4.56,13.62,13.62,0,0,0-1.7-3.94,11.4,11.4,0,0,0-8-5.07c-2-.3-5.75,0-8.93,0l-10.15.19a6.61,6.61,0,0,0-1.68.59C344.48,251.18,344.75,251.25,345.21,251.25Zm-5.1,55.41-.12-.74-.31,5.24a8.66,8.66,0,0,0,.07,2.38,7.72,7.72,0,0,0,2.47,4.25l.57.27-.7-.08a8.08,8.08,0,0,0,2.67,1.27,12.67,12.67,0,0,0,3.72.31c1.26,0,3-.05,4-.11,6-.4,3.35-1.08-4.16-1.38l-1.51-.05-.71-.08a8.65,8.65,0,0,1-1.24-.29,7.21,7.21,0,0,1-2.24-1.2,6.45,6.45,0,0,1-2.46-4.35C340.1,311.8,340.12,308.69,340.12,306.66ZM116.8,329.24H99.15l8.49-2.09-3.53-.14c10.51-.2,5.3-1.11,13.9-1.42l-8.35-.32c2.74-.28,6-.49,4.4-.95-1.24-.36,3.95-.82,5.67-1.24.69-.17-.72-.38-.33-.57a5.92,5.92,0,0,1,2.91-.63c4.45-.1,6.53-.81,13.54-.3.24,0,.68,0,1.16,0a27.25,27.25,0,0,1-2.61-2,22.21,22.21,0,0,1-6.49-10,28,28,0,0,1-1.2-5,26.21,26.21,0,0,1-.28-3.31l0-2.17,0-4.18c0-2.78,0-5.54,0-8.3.05-5.51.11-11,.16-16.65,0-7.16.06-15.31.09-23l-.17-27v-7.84a29.88,29.88,0,0,1,.53-5.78,25.82,25.82,0,0,1,2-5.86,25.36,25.36,0,0,1,19.18-14.07,17.9,17.9,0,0,1,2.43-.24l1.25-.05h.79l2.86,0,8-.14,4.2,0a27.46,27.46,0,0,1,6.25.66,25,25,0,0,1,17.33,14.56,26.77,26.77,0,0,1,2.08,10.16c0,2.62-.06,5.43-.08,7.92l.12-.49a46,46,0,0,1,.46,5.14c.09,4.51.07,9.27-.08,14a24.48,24.48,0,0,1,4-.8c2.72-.22,4.23-.13,5.43-.2,3.76-.14,8.07-.19,12.18-.15l1.53,0,2.33.13a24.89,24.89,0,0,1,4.49.89c.19.06.33.14.51.2.07-.43.05-.87.14-1.3a25.41,25.41,0,0,1,21.72-19.85,19.79,19.79,0,0,1,2.06-.16l1.72,0,2.42,0c4.41-.13,8.92-.21,14.16-.12a23.23,23.23,0,0,1,6.09,1v-5.29a29.88,29.88,0,0,1,.53-5.78,25.82,25.82,0,0,1,2-5.86,25.36,25.36,0,0,1,19.18-14.07,17.9,17.9,0,0,1,2.43-.24l1.25-.05h.79l2.86,0,8-.14,4.2,0a27.46,27.46,0,0,1,6.25.66,25,25,0,0,1,17.33,14.56,26.77,26.77,0,0,1,2.08,10.16c0,2.62-.06,5.43-.08,7.92l.12-.49a46,46,0,0,1,.46,5.14c.09,4.51.07,9.27-.08,14a24.48,24.48,0,0,1,4-.8c2.72-.22,4.23-.13,5.43-.2,3.76-.14,8.07-.19,12.18-.15l1.53,0,2.33.13a24.89,24.89,0,0,1,4.49.89,24.25,24.25,0,0,1,7.18,3.5c3.27,2.13,8.31,7.62,9.81,13.24l-.07-.57a17.94,17.94,0,0,1,1.77,5.73l.16,2.29,0,1.59v3c0,2-.07,4-.19,6-.16,2.82-.18,7.43-.27,11.77l-.54-1.19c-.09,12.25-.66,7.3-1.14,6.79,0,4.69.09,9,.13,13.16,0,1.64,0,3.3,0,5s.06,3-.15,5.74a22.52,22.52,0,0,1-4.07,10.52c4.84,0,9.54.13,13.74.4,1.74.11,6.13,0,8.92,0s5.13.23,7.67.36l-4.49.45c5.34.32,8.09.74,3.11,1.3-1.14.13.15.36-.09.53-.65.47-2.88,1-13.36,1.1-5.47.06-11.86,1.12-9.94,1.63,2.56.68-4,1.31-13.35,1.38-.26.14-.53.34-.78.45a21.33,21.33,0,0,1-7.75,2.21,22,22,0,0,0,4.48-1.38,16.47,16.47,0,0,1-5.51.83c-.76-.12-.18-.21,2.24-.81,1.09-.33-.19-.19,0-.36a9,9,0,0,1,1.93-.91c-5,0-10,0-15,0-.27,0-.54,0-.81,0h9.6L357,332.9l2.59.09c-7.71.13-3.88.74-10.19.95l6.12.21c-2,.19-4.39.33-3.23.63,0,0,0,0,0,0,6.75-.14,13.22-.34,19.59-.57,3.46-.13,8.12-.09,12.24-.13,6.41-.06,12.9-.09,19.21-.18,10.06-.15,14,.12,12,.82a28.53,28.53,0,0,0-3.35,1.62c-4.84,0-8,.32-6.78.83l-34.91.21.74-.09c-1.73-.06-3.44-.18-5.19-.18q-17.66,0-35.33,0c-1.56,0-3.18,0-4.66,0-6.07-.09-7.8-.07-7.13.26,1.24.62-5.53.69-10.25.85-12.44.43-25.84.63-39.18.88-10.65.2-22,.17-32.17.49-2,.06-4.53,0-6.83,0-9.4,0-18.36-.36-28.09-.15a48.24,48.24,0,0,1-5-.25,10.89,10.89,0,0,1-2.5-.76l-6.67-.12,2.12-.24c-5.43.07-10.06.18-14.59.16s-8.93-.16-13.9-.26l-.85.37L150,338.33l2.42-.12c-.15-.32-1.36-.61,0-.81,1.06-.16,5.18-.28,8.12-.3,3.15,0,4.5,0,5.41-.29.66-.2,4.82-.35,7.44-.52,6.43-.41,4.32-1,4.72-1.48.14-.18-.21-.37-.38-.62l-5.35-.23,8.85-.34-.51.33c1.36,0,3.42,0,4,0l3.8-.32a21.88,21.88,0,0,1-3.12-2.1h-.83c-9.15-.08-18.5,0-27.76-.05-3.81,0-7.62,0-11.65-.11l18.58-.23s0-.1,0-.14c-2.06,0-4.12-.07-6.17-.07a88.12,88.12,0,0,1-9.59-.33,110.53,110.53,0,0,0-11.35-.25c-6.3.06-15,.33-19.46-.26C115.38,329.85,116.8,329.51,116.8,329.24Zm60.73-16.42c.12-.09.19-.21.3-.3,0-.56-.09-1.15-.09-1.66l.05-5-.11-1a26.31,26.31,0,0,0-.25,2.69v2.26c0,.76,0,1.43.06,2.66C177.49,312.59,177.52,312.7,177.53,312.81Zm7.26-56.34c0,.12,0,.24,0,.36a16.67,16.67,0,0,1,1.28-2.88,19.93,19.93,0,0,0-1.12,2.55,16,16,0,0,1,1.58-3v-.29l-.19.32c.06-.11.12-.22.19-.33s0-.19,0-.28A14.56,14.56,0,0,0,184.79,256.47Zm7.12,7.13a1,1,0,0,0-.1-.22l.05,7C191.87,268.13,191.89,265.87,191.91,263.6Zm-6.22,48.91a43.51,43.51,0,0,1-.18-4.43,19.15,19.15,0,0,0-.19-4,8.6,8.6,0,0,1-.11-1.08c-.06.56-.1,1.11-.21,1.68a17.32,17.32,0,0,1-3.16,6.86,19.19,19.19,0,0,0,.72,4.8A21.77,21.77,0,0,0,185.69,312.5Zm-5.39,9.29c-.1-.2-.24-.39-.34-.6l-.11.05c.09.18.16.37.25.54Zm2.1-5.3a19.13,19.13,0,0,1-.73-3.7c0-.38,0-.67,0-1l-.15.17a25.13,25.13,0,0,0,.66,4.79Zm4.37-5.82a18.13,18.13,0,0,0,1.92-9.52c-.22-2.05-.48-3.13-.65-2.19-.49,2.76-1-5.22-.93-15.78V275.7c0,.59,0,1.14,0,1.74,0,.92-.09,3.14-.17,3.67a8.61,8.61,0,0,1-.51,1.83c0,1.36,0,3-.08,4.89l-.16-1.55c0,4,.07,7.37.11,10.7s-.11,6.55-.17,10.19l.25.62c0,1.13,0,2.26,0,3.55v0C186.5,311.14,186.64,310.93,186.78,310.68Zm-4.13-29.2c-.37-3.14-.82,3.7-.86,9,0,5.55,0,11.21,0,16.84a17.2,17.2,0,0,0,1.45-8.82c0-3.78,0-7.54,0-11.3C183,285.1,182.83,283,182.65,281.48Zm-1.1,26.23c0-.64,0-1.27,0-2h-.1l0,2.19Zm-4,5.41c0-.05,0,0,0-.07S177.57,313.09,177.57,313.12Zm.27,2.16a22.62,22.62,0,0,0,1,3.65c0,.1.09.18.13.28l.22-.14c-.17-.46-.38-.9-.51-1.37a18.34,18.34,0,0,1-.53-2.62Zm51.76,3.87.09-.14a23.59,23.59,0,0,1-3.28-12.42l.1-11.39-.11-1.14c-.09,1-.24,1.89-.25,3.07,0,3.47,0,7.07,0,10.6a23.07,23.07,0,0,0,1.94,8.61C228.58,317.29,229.07,318.23,229.6,319.15Zm6.2-4.56c.32-2.83,0-6.14,0-10,0-4.34,0-8.71,0-13a21.61,21.61,0,0,0-.2-2.54c-.28-2.18-.57-10.5-.5-15.19,0-.92,0-2.09.09-2.54.15-1.5.23-2.27.24-3.17-.09.34-.19.62-.29,1,0,1.55,0,3.39-.08,5.58l-.16-1.77c0,4.54.07,8.41.11,12.19s-.11,7.46-.17,11.61l.25.71c0,2.58,0,5.19,0,9.12l-.08-2c-.22.12-.41,1.14-.54,0-.11-.89-.18-4.33-.2-6.78a24.84,24.84,0,0,0-.19-4.52c-.13-.55-.23-4-.34-6.22-.06-1.11-.12-1.86-.18-2.45.07,7,.25,13.43.46,19.77,0,2.58.21,5.85-.07,9.08a16.51,16.51,0,0,1-1.1,4.15,17.92,17.92,0,0,0,1,1.56,16.36,16.36,0,0,0,1.43,1.62c1-2.54,1.13-4.49.6-3.46C235.14,318.34,235.48,317.17,235.8,314.58Zm-5.85-6.1A16.59,16.59,0,0,0,231.4,315c.87-3.58.3-7.77.46-11.77l.06.54.12-3.8v-15.1l-.13-4.38.13.27v-4.3c-.22-3.23-.43-6.59-.68-9-.37-3.58-.82,4.22-.86,10.27,0,7.65,0,15.46,0,23.2.12,3.22-.32,6.16.36,10.29a21.56,21.56,0,0,1-.47-4.44l0-3.88-.08-7.76h-.1l0,5.16C230.14,303.74,230,305.94,230,308.48Zm.94,12.6.4.35c-.12-.14-.19-.32-.31-.47Zm16.91,13.35a176.92,176.92,0,0,0-19.24.11l7.91,0,.18,0-5.9.15c4,.08,6.25.19,7.63.14C241.74,334.74,244.69,334.57,247.8,334.42Zm84.33.71c1.77,0,3.63-.08,5.48-.11a20.51,20.51,0,0,1-4.73-2.5h-2.64c-1.25,0-2.85-.06-3.47-.13-4.26-.48-4.19-.48-10.42-.06,3.3.46,6.63.89,9.4,1.34,1.06.17.82.38,1.17.57-4,0-8.07,0-12.08,0-1.38,0-2.73-.16-4-.15q-25,.11-50,.25c-.7,0-1.37,0-2,.06.08,0,.11.11.2.11q19.93.08,39.87.15c4.07,0,8.17-.06,12.26-.07,8.1,0,10.41.16,9.37.92C325.06,335.35,328.54,335.23,332.13,335.13ZM285.3,309.79c-.51,1.39-.33-.06-.47-2.91-.17-2.51-.28-6.42-.27-10.88,0-4.95,0-9.93,0-14.86a28,28,0,0,0-.2-2.89c-.28-2.48-.57-12-.5-17.32l.09-2.9a41.25,41.25,0,0,0,0-8.7l-.12,1.06c0,1.36,0,2.81-.05,4.49l-.16-2.1c0,5.38.07,10,.11,14.44s-.11,8.84-.17,13.75l.25.84c0,3.06,0,6.15,0,10.8l-.08-2.39c-.22.14-.41,1.34-.54,0-.11-1.05-.18-5.12-.2-8a34.75,34.75,0,0,0-.19-5.35c-.13-.66-.23-4.77-.34-7.36-.08-1.88-.17-3-.27-3.66l0,2.9c0,9.76.24,18.44.5,27,0,2.92.06,6.79.09,10.23a17.06,17.06,0,0,1-.84,6.14,19.74,19.74,0,0,0,2.77,3.15C286,311.54,285.71,308.31,285.3,309.79Zm-10.42-28.3c0,4,0,8.24,0,12.36,0,2.48,0,4.93.06,7.4a24.9,24.9,0,0,0,.84,6.24,7.25,7.25,0,0,0,.36.73,24.44,24.44,0,0,1-1-4.7l-.12-2.39v-1.7l.05-6.74.1-13.49-.11-1.34C275,279.06,274.9,280.09,274.89,281.49Zm5.52,28c0-.24.14-.48.16-.72.16-4.58,0-9.59,0-14.35l.06.62.12-4.33V267l-.13-5.25.14.32v-.83c0-1.3,0-2.66,0-3.9,0-.09,0-.13,0-.21l-.37-5.87a32.55,32.55,0,0,1-.27-4.29l0-.64c-.37-4.24-.82,5-.86,12.16,0,9.06,0,18.3,0,27.47l-.07,11.53L279,279.07h-.1l0,6.11c0,4,0,7-.22,9.48-.09,1.15-.14,2.67-.16,4.54a23,23,0,0,0,.86,7.63A18.25,18.25,0,0,0,280.4,309.52Zm-4.29,11.29c-.25.19-.49.3-.74.47,1.87,0,3.72,0,5.52.06.26-.28.51-.55.77-.86-.37-.29-.73-.57-1.1-.89-.52-.48-1.06-1-1.6-1.59A15.54,15.54,0,0,1,276.12,320.82Zm47.59-8c.12-.09.19-.21.3-.3,0-.56-.09-1.15-.09-1.66l.05-5-.11-1a26.31,26.31,0,0,0-.25,2.69v2.26c0,.76,0,1.43.06,2.66C323.67,312.59,323.7,312.7,323.71,312.81ZM331,256.47c0,.12,0,.24,0,.36a16.67,16.67,0,0,1,1.28-2.88,19.93,19.93,0,0,0-1.12,2.55,16,16,0,0,1,1.58-3v-.29l-.19.32c.06-.11.12-.22.19-.33s0-.19,0-.28A14.56,14.56,0,0,0,331,256.47Zm7.12,7.13a1,1,0,0,0-.1-.22l.05,7C338.05,268.13,338.07,265.87,338.09,263.6Zm-6.22,48.91a43.51,43.51,0,0,1-.18-4.43,19.15,19.15,0,0,0-.19-4,8.6,8.6,0,0,1-.11-1.08c-.06.56-.1,1.11-.21,1.68a17.32,17.32,0,0,1-3.16,6.86,19.19,19.19,0,0,0,.72,4.8A21.77,21.77,0,0,0,331.87,312.5Zm-5.61,8.9c0-.07-.08-.13-.11-.2l-.11.05.07.14Zm2.33-4.9a19.13,19.13,0,0,1-.73-3.7c0-.38,0-.67,0-1l-.15.17a25.13,25.13,0,0,0,.66,4.79Zm4.37-5.82a18.13,18.13,0,0,0,1.92-9.52c-.22-2.05-.48-3.13-.65-2.19-.49,2.76-1-5.22-.93-15.78V275.7c0,.59,0,1.14,0,1.74,0,.92-.09,3.14-.17,3.67a8.61,8.61,0,0,1-.51,1.83c0,1.36,0,3-.08,4.89l-.16-1.55c0,4,.07,7.37.11,10.7s-.11,6.55-.17,10.19l.25.62c0,1.13,0,2.26,0,3.55v0C332.68,311.14,332.82,310.93,333,310.68Zm-4.13-29.2c-.37-3.14-.82,3.7-.86,9,0,5.55,0,11.21,0,16.84a17.2,17.2,0,0,0,1.45-8.82c0-3.78,0-7.54,0-11.3C329.18,285.1,329,283,328.83,281.48Zm-1.1,26.23c0-.64,0-1.27,0-2h-.1l0,2.19Zm-4,5.41c0-.05,0,0,0-.07S323.74,313.09,323.75,313.12Zm.27,2.16a22.62,22.62,0,0,0,1,3.65c0,.1.09.18.13.28l.22-.14c-.17-.46-.38-.9-.51-1.37a18.34,18.34,0,0,1-.53-2.62Zm23.69-69.86c.06,0,.08.07.15.07l14.61.05a16.87,16.87,0,0,1,13.38,5.86,16.67,16.67,0,0,1,3.87,8.33c.44,6.09,0,7.68-.4,6.95l.23,8.48c0,1.77.07,3.62.1,5.46,0,8.56.24,16.18.5,23.7,0,2.58.21,5.85-.07,9.08a17.16,17.16,0,0,1-5.85,10.82l5.2,0c2.79-3.74,3.33-8.46,2.57-7-.69,1.09-.35-.08,0-2.66.32-2.83,0-6.14,0-10,0-4.34,0-8.71,0-13a21.61,21.61,0,0,0-.2-2.54c-.28-2.18-.57-10.5-.5-15.19,0-.92,0-2.09.09-2.54a31.77,31.77,0,0,0,0-7.64l-.89,6.89c-.11.77-.25.6-.38.86,0-3,0-5.91,0-8.85a18.64,18.64,0,0,0-.15-3.08,17,17,0,0,0-12.33-13.51c-3.18-.89-6.33-.5-9.32-.57l-9.15,0Zm-8,5.34-.09,5.05-.54-1.6c0,1.64,0,3,0,4.2a6.32,6.32,0,0,1,1.58-1.82c1.07-.8,1.71-.78,1.23-.19a6.08,6.08,0,0,1-.56.69,7.59,7.59,0,0,0-1.49,2.86,8.17,8.17,0,0,0-.24,1.59l.07,2.83-.4,4.76c-.06,1,0,3.22,0,4.89.1,0,.23.56.31-.13.26-2.33.39-1.7.4,3.16,0,6.32.22,13.06-.11,18.86a7.74,7.74,0,0,1-.27,2.28c-.48-1.39-1-3.09-1.44-4.94,0-.08,0-.24-.05-.35,0,.54,0,1.08,0,1.62,0,2.21-.05,4.37-.08,6.48a22.67,22.67,0,0,1-1.79,8.55,22.93,22.93,0,0,1-3.16,5.51s0,.08,0,.12l0-.11a21,21,0,0,1-3.44,3.66c.22.54.34,1.11.61,1.63-.28-.49-.45-1-.68-1.57-.17.14-.33.3-.49.43a14.75,14.75,0,0,0,1.14,2.32c3.86.16,9.2.21,14.35.34l-1.62.81c16.71.14,10,1,9.27,1.71,6.4-.08,12.23-.22,18-.2h.44a14.89,14.89,0,0,0,6.9-8.73c1.07-3.68.39-8.1.55-12.3l.06.54.12-3.8V274c0-1.14,0-2.33,0-3.42.06-4.45,0-5.72-.17-5.23-.56.92-.08-4.21-1.11-7a14.33,14.33,0,0,0-8-8.86,14.08,14.08,0,0,0-6.18-1.11l-7.33.12-5.93.08A27.41,27.41,0,0,0,344,249,13,13,0,0,0,339.75,250.75Zm-40.42-56.09c.08,0,.11.07.2.07l9.86,0c3.23.08,6.63-.29,10,.75a16.75,16.75,0,0,1,11.76,15.14c0,4,.06,8.1.09,12.16,0,8-.11,10.3-.61,9.27.08,4.05.15,7.27.21,10.49.57-.46,1.17-.86,1.78-1.27,0-1.16.06-2.48.08-3.07a57.78,57.78,0,0,0,0-10.31l-.89,9.31c-.11,1-.25.81-.38,1.16,0-4,0-8,0-11.95l.1-4c0-4.15,0-8.17-.11-12.44a17,17,0,0,0-5.79-11.31,17.23,17.23,0,0,0-11.94-4.15l-12.35,0Zm-14,12.6a16.9,16.9,0,0,0-.67,5.79c0,4.11,0,8.13-.09,12.17a26.47,26.47,0,0,1,4.18,6.73c.23.52.32,1.11.51,1.66,0-5.21,0-10.4.06-15.6,0-1.34,0-2.68,0-4s0-2.81.12-3.2a6.9,6.9,0,0,1,1.12-3.06c1-1.45,1.8-1.71,1.34-.79l-.54,1.06a7.8,7.8,0,0,0-.61,2.09,21.31,21.31,0,0,0,0,3.2c.07,3.24.14,6.52.22,9.89l-.4,6.42c0,1.31,0,4.35,0,6.61.1,0,.23.76.31-.18.26-3.14.39-2.29.4,4.27,0,1.38,0,2.79,0,4.19,0,.38.06.82.07,1.38.08,3.26.06,6.66,0,10.07s0,6.72-.17,9.82c0,.74-.07,1.51-.12,2.11,0,1.64,0,3.31-.08,5l-.54-1.35c-.09,14-.66,8.32-1.14,7.75,0,5.35.09,10.23.13,15,0,3.73,0,7.58,0,11.31a27.64,27.64,0,0,1-.77,7.19,21.35,21.35,0,0,1-1.65,4.28,22.19,22.19,0,0,0,9.55,3.67c2,.25.32.39.3.58l14.6,0c.29,0,.54,0,.88-.06,3-.09,6-.1,9.12-.05l1.63-.83a25.08,25.08,0,0,1-1.19-3.89,16.05,16.05,0,0,1-5.25,1.51c-2.1.09-2.59-.1-1.61-.37a10.39,10.39,0,0,0,3.12-1.5,14.1,14.1,0,0,0,3.5-1.43,23.86,23.86,0,0,1-.33-3.34c.05-4.1.1-8.2.16-12.4,0-5.31.06-11.35.09-17-.05-6.75-.1-13.44-.15-20.19A25.2,25.2,0,0,1,328,245.15c.46-.51,1-.93,1.53-1.4V242c0-1.54,0-3.15,0-4.61.06-6,0-7.71-.17-7.05-.42,1.23-.46-5.48-.57-10.14q-.11-4.58-.22-9.31a14,14,0,0,0-9.73-12.5,14.45,14.45,0,0,0-4.16-.63l-4.92.05-8,.08-4,0a13.37,13.37,0,0,0-12.4,9.33Zm-4.08,7.59a51.06,51.06,0,0,1,.19-5.15,25,25,0,0,0-.08,3,18.39,18.39,0,0,1,1.37-7.54,17.2,17.2,0,0,1,5.81-7.54,15.52,15.52,0,0,0-5.6,6.11C281.16,206.8,281,211.13,281.26,214.84ZM250.4,225.11c.06,0,.09.07.17.07,5.57.05,11,0,16.7.13a16.17,16.17,0,0,1,5.38,1.57v-.39c-3.19-1.51-6.9-1.56-10.13-1.47l-10.43,0Zm-12.73,10.24a14.62,14.62,0,0,0-1.53,4.43,37.68,37.68,0,0,0-.22,5.37v.68a23.71,23.71,0,0,1,4.66,8.09c0-3.48,0-6.94,0-10.41v-1.64l.07-.9a9.08,9.08,0,0,1,.42-1.64,6.55,6.55,0,0,1,1.5-2.32c1.08-1.05,1.8-1.13,1.3-.43-.05.18-.38.49-.57.84a7,7,0,0,0-1.23,3.44,6,6,0,0,0,0,.93l0,1.9.11,4.21-.4,5.43c0,.71,0,2,0,3.36q.2.62.37,1.44c.18-1.48.28-1,.31,1.91l.13,1.87,0,1.59v3c0,1.14-.07,2.28-.11,3.42,0,4.82.06,9.63-.15,14a10,10,0,0,1-.27,2.6c-.16-.53-.32-1.14-.48-1.74-.13,10.07-.67,5.61-1.12,5.13,0,4.69.09,9,.13,13.16,0,1.64,0,3.3,0,5s.06,3-.15,5.74a22.51,22.51,0,0,1-2.45,7.86h17.08c2,0,4.41,0,6.07-.07,3.34-.14,7-.21,10.7-.23,1.61-.8,2.32-1.57,1.67-1.37a14.27,14.27,0,0,0,3.94-3.69,22.43,22.43,0,0,1-3.43-6.66,28,28,0,0,1-1.2-5,26.21,26.21,0,0,1-.28-3.31l0-2.17,0-4.18c0-2.78,0-5.54,0-8.3.05-5.51.11-11,.16-16.65,0-7.16.06-15.31.09-23,0-4.4-.05-8.78-.08-13.15a8.19,8.19,0,0,0-2.46-1.18,22.7,22.7,0,0,0-4.46-.79c-4.31-.08-10.66.07-11.78-.4a49.53,49.53,0,0,0-6.44-.49c-.53,0-.83,0-.61-.17a8.58,8.58,0,0,1,1.91-.63l11.56-.19,5.52-.07a11.85,11.85,0,0,1,4,.66,14.13,14.13,0,0,1,2.73,1.35c0-.64,0-1.28,0-1.91a14.37,14.37,0,0,0-5.39-1.79c-2.27-.13-5.43,0-8.1,0l-6.76.08-3.37,0a14.07,14.07,0,0,0-2.84.38A13.26,13.26,0,0,0,237.66,235.35Zm-5.07,5.45a16.19,16.19,0,0,1,1-4.64,16.84,16.84,0,0,0-.71,2.77,18.65,18.65,0,0,1,8.23-11.7,14.6,14.6,0,0,0-5.38,4.5A15.82,15.82,0,0,0,232.59,240.8Zm-31.06,4.61c.06,0,.08.07.15.07l14.61.05a16.8,16.8,0,0,1,7.61,1.55c0-.12,0-.23,0-.35a15.62,15.62,0,0,0-2.4-.84c-3.18-.89-6.33-.5-9.32-.57l-9.15,0Zm-8,5.34-.09,5.05-.54-1.6c0,1.64,0,3,0,4.2a6.32,6.32,0,0,1,1.58-1.82c1.07-.8,1.71-.78,1.23-.19a6.08,6.08,0,0,1-.56.69,7.59,7.59,0,0,0-1.49,2.86,8.17,8.17,0,0,0-.24,1.59l.07,2.83-.4,4.76c-.06,1,0,3.22,0,4.89.1,0,.23.56.31-.13.26-2.33.39-1.7.4,3.16,0,6.32.22,13.06-.11,18.86a7.74,7.74,0,0,1-.27,2.28c-.48-1.39-1-3.09-1.44-4.94,0-.08,0-.24-.05-.35,0,.54,0,1.08,0,1.62,0,2.21-.05,4.37-.08,6.48a22.67,22.67,0,0,1-1.79,8.55,22.93,22.93,0,0,1-3.16,5.51s0,.08,0,.12l0-.11a21,21,0,0,1-3.44,3.66c.22.54.34,1.11.61,1.63-.28-.49-.45-1-.68-1.57-.17.14-.33.3-.49.43a14.62,14.62,0,0,0,1.29,2.59c4,0,8,0,11.91,0,9.14,0,18.18-.21,27.32-.25h4.33c.13-.14.28-.27.41-.42-.33-.48-.64-1-.86-1.37a24.55,24.55,0,0,1-3.36-10.6c-.14-2.13-.09-3.05-.11-4.24v-3.5c.05-4.65.11-9.3.16-14.06,0-6.05.06-12.93.09-19.38,0-4.77-.07-9.52-.1-14.27a2.63,2.63,0,0,0-.5-.32,7.79,7.79,0,0,0-3.68-1.09l-1.55-.07-3.2-.06c-3.79-.08-9.36.07-10.34-.4a45.52,45.52,0,0,0-5.65-.53c-.46,0-.74-.08-.53-.18a6.61,6.61,0,0,1,1.68-.59l10.15-.19c3.18,0,6.94-.26,8.93,0a12.47,12.47,0,0,1,4.67,1.79q0-1,0-1.91c-.4-.22-.76-.49-1.18-.66a14.08,14.08,0,0,0-6.18-1.11l-7.33.12-5.93.08a27.41,27.41,0,0,0-5.46.33A13,13,0,0,0,193.57,250.75Zm-40.42-56.09c.08,0,.11.07.2.07l9.86,0c3.23.08,6.63-.29,10,.75a16.75,16.75,0,0,1,11.76,15.14c0,4,.06,8.1.09,12.16,0,8-.11,10.3-.61,9.27.08,4.05.15,7.27.21,10.49.57-.46,1.17-.86,1.78-1.27,0-1.16.06-2.48.08-3.07a57.78,57.78,0,0,0,0-10.31l-.89,9.31c-.11,1-.25.81-.38,1.16,0-4,0-8,0-11.95l.1-4c0-4.15,0-8.17-.11-12.44a17,17,0,0,0-5.79-11.31,17.23,17.23,0,0,0-11.94-4.15l-12.35,0Zm-18.07,20.19a51.06,51.06,0,0,1,.19-5.15,25,25,0,0,0-.08,3,18.39,18.39,0,0,1,1.37-7.54,17.2,17.2,0,0,1,5.81-7.54,15.52,15.52,0,0,0-5.6,6.11C135,206.8,134.8,211.13,135.08,214.84ZM130,308.22a24.44,24.44,0,0,1-1-4.7l-.12-2.39v-1.7l.05-6.74.1-13.49-.11-1.34c-.09,1.2-.24,2.23-.25,3.63,0,4,0,8.24,0,12.36,0,2.48,0,4.93.06,7.4a24.9,24.9,0,0,0,.84,6.24A7.25,7.25,0,0,0,130,308.22Zm10.32,8.56a21.93,21.93,0,0,0,10,3.95c2,.25.32.39.3.58l17.7.06-1.47.24c2,0,4,0,6,.09l1.42,0c.39-.23,1.15-.57,2.55-1.31a25.08,25.08,0,0,1-1.19-3.89A16.05,16.05,0,0,1,170.4,318c-2.1.09-2.59-.1-1.61-.37a10.39,10.39,0,0,0,3.12-1.5,14.1,14.1,0,0,0,3.5-1.43,23.86,23.86,0,0,1-.33-3.34c.05-4.1.1-8.2.16-12.4,0-5.31.06-11.35.09-17-.05-6.75-.1-13.44-.15-20.19a25.2,25.2,0,0,1,6.63-16.65c.46-.51,1-.93,1.53-1.4V242c0-1.54,0-3.15,0-4.61.06-6,0-7.71-.17-7.05-.42,1.23-.46-5.48-.57-10.14q-.11-4.58-.22-9.31a14,14,0,0,0-9.73-12.5,14.45,14.45,0,0,0-4.16-.63l-4.92.05-8,.08-4,0a13.37,13.37,0,0,0-12.4,9.33,16.9,16.9,0,0,0-.67,5.79c0,9.3-.24,18.16-.1,27.8,0,1.25-.09,4.24-.17,5a14.92,14.92,0,0,1-.51,2.48c0,1.84,0,4-.08,6.6l-.16-2.1c0,5.38.07,10,.11,14.44s-.11,8.84-.17,13.75l.25.84c0,3.06,0,6.15,0,10.8l-.08-2.39c-.22.14-.41,1.34-.54,0-.11-1.05-.18-5.12-.2-8a34.75,34.75,0,0,0-.19-5.35c-.13-.66-.23-4.77-.34-7.36-.28-6.37-.64-4.27-1-4.67-.12-.14-.24.21-.41.38l-.16,5.29-.23-8.76.22.51c0-1.35,0-3.36,0-3.93l-.76-12c-.37-4.24-.82,5-.86,12.16,0,9.06,0,18.3,0,27.47l-.07,11.53-.15-18.39h-.1l0,6.11c0,4,0,7-.22,9.48-.09,1.15-.14,2.67-.16,4.54a23,23,0,0,0,.86,7.63A19.83,19.83,0,0,0,140.32,316.77Zm-4.07,8.44,27.26.31,1.36-.16a32.86,32.86,0,0,0-3.67-.37c-3,0-6.1,0-9.18,0l-.17,0a27.61,27.61,0,0,1-3.2,0l-2.39,0c.22.11.4.2.18.2a12.31,12.31,0,0,1-1.78-.18l-3.38,0c-1.48,0-3-.06-4.46-.1Zm89.1,21.43c-12,0-24-.08-35.91-.19-5,0-7.66,0-8.75.34-2.52.72-4.84,1.44-6.73,2.17-.31.12,1.52.31,3.11.41,7.92.48,17.11.17,25.73.16,6.63,0,7.49-.2,4.31-.6-1-.12-.17-.31-.18-.46,2.28,0,5.38-.06,6.68,0,2.81.18,4.7.43,6.49.61l19.7-.66c1,0,2.15-.1,2.57-.17C246.62,347.55,236.22,346.63,225.35,346.64Zm91.44-5.5c-4.58,0-10.37.14-15.24,0-7.07-.15-11.76.12-17.5.26-8.59.2-17.53.33-27.21.51-.76.14-2.38.38-3.29.63-.42.12.07.28,1,.39,2.8.33,8,.62,8.63,1,1.34.7,8.93.49,14.1.61a44,44,0,0,0,8.64-.37c1.81-.34,4.63-.66,7.89-.93,1.33-.11,6.13-.18,7.4-.11,8.46.5,17,.11,23.85.13-1.6-.37-3.12-.7-4.4-1S318.1,341.51,316.79,341.13Zm-154.37,8.61,1-.18-28.58-1.84-1.76.1,1.75-.44c-5.54-.09-10.53-.19-15.61-.23-1.72,0-4.14.08-5.46.17-8.21.6-4.58,1.62,5.68,2.07,10.91.48,22.59.25,33.87.35C156.3,349.77,159.38,349.74,162.42,349.74Zm93.49,132.93c.69.19,1.11.14,1.27-.18a6.71,6.71,0,0,0,.76-2.17c0-.12-.17-.32-.31-.4a13,13,0,0,0-2.07-.63c-.46-.28-.67-.16-.63.31,0,.14-.15.27-.23.4a1.59,1.59,0,0,1-.56-.43,2.13,2.13,0,0,1,0-.89,5,5,0,0,1-1.55-1.31.58.58,0,0,0-.27-.19c-.79-.34-1.46,1.27-.46,2.59A7.88,7.88,0,0,0,255.91,482.67Zm-2-18-1.25-.71a22.55,22.55,0,0,0-3.21,2,7.62,7.62,0,0,0-2.57,3.46,12.43,12.43,0,0,0-1.16,6.33,4.34,4.34,0,0,0,.67.72c.12.08.28,0,.38-.24.25-.63.65-1.67,1-1.75.75-.18.71-1.58,1.24-2.41a2.15,2.15,0,0,0,.42-1.59,3.35,3.35,0,0,1,.2-1.82,3.18,3.18,0,0,1,1-1.17c1.65-.76,3-1.78,4.46-2.11C254.71,465.1,254.28,464.82,253.91,464.63Zm7.62,12.64c-.8.61-1.26,1.44-2.12,1.83-.23.06-.43.19-.65.27l0,.2a4.67,4.67,0,0,0,3.34-.09.68.68,0,0,0,.06-.22,3.61,3.61,0,0,1,.2.45,6.54,6.54,0,0,0,1.26-1.57,1.54,1.54,0,0,0,.07-.71C263.34,476.24,262.21,476.67,261.53,477.26Z"/></svg>