<svg id="Layer_1" data-name="Layer 1" xmlns="http://www.w3.org/2000/svg" viewBox="0 0 512 512"><defs><style>.cls-1{fill:#141f38;}</style></defs><title>briefcase-outline</title><path class="cls-1" d="M448.9,102.4H345.6V88.8a50.55,50.55,0,0,0-50.4-50.4H216.8a50.55,50.55,0,0,0-50.4,50.4v13.6H63.1A63.1,63.1,0,0,0,0,165.5v61.76A63.07,63.07,0,0,0,25.6,278V409.6a64.19,64.19,0,0,0,64,64H422.4a64.19,64.19,0,0,0,64-64V278A63.07,63.07,0,0,0,512,227.26V165.5A63.1,63.1,0,0,0,448.9,102.4ZM192,88.8A24.83,24.83,0,0,1,216.8,64h78.4A24.83,24.83,0,0,1,320,88.8v13.6H192ZM460.8,409.6A38.44,38.44,0,0,1,422.4,448H89.6a38.44,38.44,0,0,1-38.4-38.4V289.22c.84.16,1.69.31,2.54.44L217.6,314.24V320a38.4,38.4,0,0,0,76.8,0v-5.76l163.86-24.58c.85-.13,1.7-.28,2.54-.44ZM243.2,320V294.4a12.8,12.8,0,0,1,25.6,0V320a12.8,12.8,0,0,1-25.6,0Zm243.2-92.74a37.27,37.27,0,0,1-31.94,37.09L293.93,288.42a38.4,38.4,0,0,0-75.86,0L57.54,264.34A37.27,37.27,0,0,1,25.6,227.26V165.5A37.54,37.54,0,0,1,63.1,128H448.9a37.54,37.54,0,0,1,37.5,37.5Z"/></svg>