<svg id="Layer_1" data-name="Layer 1" xmlns="http://www.w3.org/2000/svg" viewBox="0 0 512 512"><defs><style>.cls-1{fill:#707070;}</style></defs><title>briefcase-handdrawn</title><path class="cls-1" d="M213.47,56.89a27.91,27.91,0,0,1,5.46-1.16l53.38-.57,16.24-.23c5.73-.06,10.68-.26,16.62,1.38,8.24,1.95,16.9,7.77,22,13.92A52,52,0,0,1,330,76.29a24.58,24.58,0,0,1,1.21,3.32,21.93,21.93,0,0,1,1,3.74C328.58,72.63,317.73,61.58,304.11,58a32.21,32.21,0,0,0-6-1l-3.62-.14-3,.08c-6.42.27-12,.6-15.53.93a169.84,169.84,0,0,1-17,.37c-10.18-.12-25.13.1-27.75-.61A138.82,138.82,0,0,0,215.13,57C213.64,57.15,212.79,57.11,213.47,56.89ZM256.29,449c-26.42,0-29.86.2-17.2.6,3.79.12.69.31.73.46l-26.61,0-25.87-.61-78.51.66-10.12.14c-3.35,0-3.85.18-2.12.44,1.35.36,6.5.51,13.32.67,13.66.32,34.84.55,56.48.54l143.11.19c19.86,0,30.54,0,34.85-.34,10-.72,19.3-1.44,26.83-2.16,1.25-.12-6.06-.31-12.38-.41C327.27,448.67,290.65,449,256.29,449Zm125.24-145.2c-17.34,2-50.67,7.29-74.89,11l-3.2.48a40.64,40.64,0,0,1-1.34,5.36l6.34-.93-2.16.53-4.25.61a38.37,38.37,0,0,1-1.42,3.7l9.92-1.47c27-3.54,35-5.45,52.06-8.12a81.26,81.26,0,0,0,11.11-2.31c1.44-.4-4,.2-1.37-.37,6.54-1.41,26.45-4.86,21.61-4.5-6.19.47,6.28-1.61,16.79-3.48l-32.15,4.5c33-5.28,12.84-3.16,53.25-9.43l-13.59,1.9,32.34-7L382.7,304.46C382.66,304.19,388,303,381.53,303.79ZM512,175.71q0,6.59,0,13.11c0,8.68-.08,17.22-.12,25.48l-.11,12.17c0,1.84-.11,4.24-.26,6.54a56.76,56.76,0,0,1-.81,6.74,69.16,69.16,0,0,1-25.58,44c.35,15.18.95,8.77,1.19,35.31.13-13.36.22-22.29.32-33.25.28,10.93.49,23.87.95,17.53.36-5,.82,15.74,1.24,22.58.17,2.76.38-2.85.57-1.33A85.39,85.39,0,0,1,490,336.2c.1,17.72.81,26,.3,54,0,2.46-.06,9.37-.08,13.42-.08,28.32-17.73,54.45-42.45,66.05a71,71,0,0,1-19.49,6.21l-5.08.75-5.12.27-2.56.1h-6.27l-33.69-.16-92.44-.13-108.86.25H99.17l-4.84-.23a72,72,0,0,1-19-3.75,74.63,74.63,0,0,1-32-21.26,76.46,76.46,0,0,1-14.94-25.41A85.36,85.36,0,0,1,25.74,417c-.46-3.21-1.26-6.45-1.32-9.79l-.26-5,0-4.14q0-4.15,0-8.35c0-11.21,0-22.65,0-33.84.06-22.38.24-43.71.51-60l.06-12.35c-1.94-1.74-3.8-3.56-5.55-5.48A73.6,73.6,0,0,1,3.18,249.92,72.12,72.12,0,0,1,.25,233.86C-.11,228,.07,224.22,0,219.6q0-15.39,0-30.82V173.34l0-4,.23-4.74a88,88,0,0,1,1.24-9.42c5.11-25,23.75-46.65,48-54.78a71.78,71.78,0,0,1,14.79-3.53,105.6,105.6,0,0,1,13-.75c25-.27,54.61-.3,81-.15,0-.18,0-.31,0-.51a54.51,54.51,0,0,1,.83-8.65C163.22,59.94,186.94,38,214,35.64l4-.22,2-.09h1.57l5.69-.06c20.18-.43,46.27-.26,62.33.29l6.27.19a60.77,60.77,0,0,1,9.34,1A62.79,62.79,0,0,1,324,43.48c-.33-.28-.68-.49-1-.74a49,49,0,0,1,11.3,6.7A59.92,59.92,0,0,1,355.12,84.2a74.45,74.45,0,0,1,1,8.33l.13,3.66,45.2.3-6.29.8c65,.14,38.73,1,36.06,1.71l9.23,0a79.31,79.31,0,0,1,10.62.79,67.38,67.38,0,0,1,20,5.94,70.48,70.48,0,0,1,29.82,26.23,71.58,71.58,0,0,1,10.5,29.2,76.6,76.6,0,0,1,.56,7.82C512,171.49,512,173.44,512,175.71ZM222.71,48.12a1.16,1.16,0,0,0,.39.11l39.22.08,19.62,0c6.54.13,13.07-.32,19.72.6a47.84,47.84,0,0,1,22.41,9.39,44.92,44.92,0,0,1,11,11.85c1.41,2.57,1.52,3.21.66,2.53a46.27,46.27,0,0,1,7,21.5c0,.62,0,1.26.07,1.89l2.59,0c-.08-2.08-.2-4.11-.43-6A63.79,63.79,0,0,0,343.57,83a38.28,38.28,0,0,0-3.11-8.87,44.6,44.6,0,0,0-7.16-10.2,48.69,48.69,0,0,1,8.43,17.46c.57,2.08.11,1.7.15,2.44a49.46,49.46,0,0,0-12.06-20.89,48.2,48.2,0,0,0-6-5.43,48.78,48.78,0,0,0-23.22-9.25,104.35,104.35,0,0,0-12.44-.37l-12.29,0-49.15.13Zm-48,30.9a50.54,50.54,0,0,1,8.16-13.54l.28-.24a47.66,47.66,0,0,0-6.47,9.85c3.72-7,7.26-10.11,9-12.2A50.31,50.31,0,0,1,201,52a46.1,46.1,0,0,0-13.74,8.58A46.93,46.93,0,0,0,174.74,79Zm1.51,17.09,7.12.07a38.19,38.19,0,0,1,1.11-8.06,33.26,33.26,0,0,1,11.25-17.67c4.08-3.13,6.24-3.84,3.91-1.79-.42.45-1.78,1.37-2.78,2.45A34.6,34.6,0,0,0,185.81,96c0,.05,0,.14,0,.19,5.23.06,10.18.13,14.69.21l57.19.36-1.93-.19c6.51-.24,10-.61,20.19-.69,20.36-.16,42-.14,63.1.19h1.79c-.06-1.58-.15-3.15-.33-4.67a50.45,50.45,0,0,0-1.93-8.63,41.81,41.81,0,0,0-4.94-10.44c-1.09-1.8-1.61-2.05-1.32-1.48.39,1.16-1.14-1-3.85-3.87a44.65,44.65,0,0,0-10.65-8.52,45.11,45.11,0,0,0-16.47-5.67c-5.7-.78-12.25-.32-18.71-.34l-39.22.37L227.48,53l-8,.07a45.27,45.27,0,0,0-7.35.77,43.13,43.13,0,0,0-24.47,14,43.78,43.78,0,0,0-6.85,10.13,42.21,42.21,0,0,0-3.9,11.87A36.7,36.7,0,0,0,176.25,96.1ZM14,161.22a57.49,57.49,0,0,1,5.41-18,58.59,58.59,0,0,1,10.19-15,58.62,58.62,0,0,0-15.23,27.73c-1.62,6.53-1.79,13.92-1.62,21.17s.15,14.89.23,22.43c0-11.44,0-21.13,0-30.81l.08-.72c-.18,4.73,0,9.37,0,23C13.26,175.53,13.06,166.6,14,161.22ZM44.26,430.81A4.63,4.63,0,0,0,44,430a58.14,58.14,0,0,1-6-19.14c-1-6.7-.62-13.36-.67-20l0-39.71q0-29.22,0-58.47l-.46-.29,0,41.19L37,378.51l0,22.42a64.39,64.39,0,0,0,3.84,22.37A56.29,56.29,0,0,0,44.26,430.81ZM153.64,464l-31.54,0-.73,0,23.52-.15-30.39-.14c-6.72,0-12.94.31-19.19,0a58.21,58.21,0,0,1-18.22-3.72A42.51,42.51,0,0,0,83,462a44.83,44.83,0,0,0,7.53,1.61c5.55.88,11.88.7,18.58.7Zm330.2-42.46A69.43,69.43,0,0,1,468.68,449a72.51,72.51,0,0,1-25.41,18.37,74.09,74.09,0,0,1-15.15,4.46,61.19,61.19,0,0,1-7.85.93c-2.66.14-5.33.26-7.45.21l-5.41.16,7,.23c2.36.06,5.51-.06,8.71-.27,19.1-1.85,37.68-12.5,49.25-28.09a69.64,69.64,0,0,0,13.42-31.58,73.76,73.76,0,0,0,1-10.34l.1-9-.2-2.27,0,10.18-.19,3.93A67.1,67.1,0,0,1,483.84,421.5Zm23.76-192.64-.44-14c-.34-7.94-.73-12.29-1-8.55-.37,5.43-.73.3-1-11.37-.08-5.85-.19-13.32-.31-21.92s-1.12-19.66-6-29.61A64,64,0,0,0,440,106.05c-5,0-10.28.18-13.46.3-11.55.42-55.72.85-80.63.75L332.37,107c-16.59-.47-16.32-.48-40.52-.06l36.59,1.34a15.58,15.58,0,0,1,4.54.57H286l-15.61-.15-194.33.25c-2.7-.06-5.39.24-8,.36a4.43,4.43,0,0,0,.8.07c51.83-.45,103.4,0,155.17-.11l47.71-.07c31.49,0,40.5.16,36.44.91l45-.35,29-.15c22.74.13,44.11-.47,65,.1,21,2.1,39.76,15.37,48.61,33.75a59.64,59.64,0,0,1,6,22.37c.44,8.39.13,16.81.24,24.85,0,12.47.05,25,.08,37.51a62.29,62.29,0,0,1-11,35.88,61.13,61.13,0,0,1-18.47,17.33,55.83,55.83,0,0,1-15,6.44c-7.74,1.82-9.74,1.65-6.06.67a35.41,35.41,0,0,0,6.48-2.36,50.24,50.24,0,0,0,5.5-2.85,54.59,54.59,0,0,0,17.9-12c3.22-3.5,4.28-5,2.51-3.46a57.85,57.85,0,0,0,14.21-29.67c1-5.43.71-11,.77-16.71s0-11.32,0-17c-1-22.34,3.77-46.11-8.74-64.75l1.53,2.34a56.83,56.83,0,0,0-12-15.35,54.74,54.74,0,0,0-13.83-9.25A53.79,53.79,0,0,0,450,112.51c-5.46-1-11.1-.76-16.88-.8H329.06c-23.61-.09-30.33-.07-27.73.26,4.82.62-21.53.69-39.87.85L109,113.69l-31.45.12A75.54,75.54,0,0,0,62.55,115a58.21,58.21,0,0,0-14,5A56.17,56.17,0,0,0,27,139.44a55,55,0,0,0-8.75,26.69c-.34,7.06-.08,17.48-.16,26.27,0,9.14,0,18.17,0,27.17C18,228.8,17.69,237,20.4,245.11a55.45,55.45,0,0,0,34,36.11,59,59,0,0,0,9.45,2.65c3.59.76,7.38,1.28,8.69,1.57,5.23,1,6.32,1.44,9.51,2.2l25.66,4-8.19-1,56.16,8.26,53.43,8.27,1.37.05c-.07.36-.16.71-.22,1.07-9.64-1.43-14.17-2.09-17.34-2.31-2.58-.18-18.6-2.44-28.71-3.78-24.81-3.3-16.76-1.54-18.38-1.27-.57.1.75.48,1.37.83l20.54,3.32-34.1-4.77,2,0L120.44,298,73.59,292.1c-16.57-1.93,19.25,4.13,47.09,8.37l89,13.39c0,.1,0,.21,0,.31l-8.9-1.31,0,.15,8.87,1.36a42.51,42.51,0,0,0,.16,5.54l-9.38-1.43-5.25-.63c4.64.83,8.63,1.66,14.06,2.49l.63.1q.2,1.81.55,3.59l-46.55-7.16L74.65,303.36c-4.54-.71-8.46-1.18-13.5-2.08a72.21,72.21,0,0,1-15.05-4.33c.25,11,.53,20.39.83,26.71.32,6.9.48,16.91.37,34.42,0,10.31-.06,23-.08,33.83,0,5.31-.15,10.63,0,13.65,0,3.35.59,5.77.49,7a46.05,46.05,0,0,0,3.33,11.59A52.86,52.86,0,0,0,60.68,439c2.12,2.35,3.41,3.54,2.2,2.66-2.66-1.83-6.51-6.18-8.17-8.3a53.31,53.31,0,0,1-9.46-23.31c-1.14-7.82-.57-17.63-.77-26.48-.09-18-.18-35.46-.26-52.57-.07-12.15-.18-23.19-.24-35-.88-.38-1.74-.82-2.61-1.24.17,31.06.35,62.93.53,94.81.09,10.81-.46,21.07,3.12,30.67a56.24,56.24,0,0,0,16.9,25,56.7,56.7,0,0,0,26.87,12.86,76.39,76.39,0,0,0,15,.92l15.43-.11,27.2,0,111.94.15c5,0,17.09.13,20,.25,5.45.23,6.62.48,10,.76l26.6.12-8.45.24,58.15-.16c17.89-.08,35.79.37,55.19,0a19.31,19.31,0,0,0,3.17-.68,55.18,55.18,0,0,0,17.57-5.19,58.21,58.21,0,0,0,18.28-13.73,61.83,61.83,0,0,1-6.67,6.6l.16-.12c.63-.08,4.28-3,.56.59l-4,3.11a62.07,62.07,0,0,1-6.8,4.09,54.71,54.71,0,0,1-17.45,5.7,87,87,0,0,1-13.83.82c-3.36,0-5.61.1-7.42.24-2.65.2-19.22.35-29.65.51-25.63.41-17.21,1-18.82,1.48-.56.18.83.36,1.52.62l21.31.23-35.26.34,2.05-.33H328.68l-48.36,1.14c-17.08.55,20.13,1.23,49,1.3l55.14.05h27.75c9.4.19,19.69-1.26,28.66-5.17a65.57,65.57,0,0,0,19.53-13,62.8,62.8,0,0,1-10.56,8.46c-11,7.16-24.79,10.44-37.52,10l.05.14c8.32.16,17.58-.89,25.72-4,16.35-6.22,25.65-16.13,32-24.74A65.71,65.71,0,0,0,478.74,421a67.73,67.73,0,0,0,2.53-13.2c.36-5,.28-9.78.27-15-.06-25.09-.33-59.66.25-77.53.22-6.72.56-1.09.84-1.09V285.65a72.76,72.76,0,0,1-18.22,9.45c.06,2.07.11,4.35.16,7.11,0,5.26.12,14.9.17,21.74l-.23,62.22-.44-7,.1,7-.23,14.23a30.28,30.28,0,0,1-.14,3.19l-.2,2.82c-.19,1.87-.62,3.7-.91,5.55a49.49,49.49,0,0,1-9.93,19.87,47.95,47.95,0,0,1-28.13,16.43c-1.83.15-3.61.61-5.44.6s-3.41.17-6,.08a35,35,0,0,0,3.64-.25,46.29,46.29,0,0,0,25.85-8.76,47.21,47.21,0,0,0,16-20.11,50.74,50.74,0,0,0,3.23-12.58c.12-1.08.11-2.18.19-3.26s.14-2.16.11-3.7v-8.52c.11-22.69.21-45.18.32-66.93.14-13,.35-23.21.57-30.19-1.36.4-2.47.66-3.23.82-1.61.36-1.83.3-.31-.27.76-.26,1.95-.66,3.56-1.28,0-.1,0-.23,0-.32.42-.08.85-.13,1.25-.22v0c1.42-.57,3-1.25,5-2.17,4.49-2.38-.76,0,.14-.67,1.13-.92,4.12-2.18,11-7.28,1.26-.93,2.66-2.09,4.11-3.39.15-.21.32-.41.46-.63,0,.08,0,.13,0,.21a77.81,77.81,0,0,0,7.74-8.19,65.52,65.52,0,0,0,14.84-42.42Zm-43.18,66.23A70.94,70.94,0,0,0,482,285.25a63.92,63.92,0,0,1-17.61,9Zm-361-15.51L78,275.84l-6.34-.93c-2-.31-4.56-.61-5.91-.94a42.15,42.15,0,0,1-9.3-2.68c-9.14-3.85-13-8.22-14.59-9.3-1.43-1.31-.41.12,3.16,3.32,2.24,1.81.24.55.16.69-5.77-4-11.35-11.9-13-15.49a43.88,43.88,0,0,1-4.63-18.93c-.2-2.24-.2-5.8-.22-9s-.06-6.52-.08-9.76q-.08-9.71-.16-19.25t-.16-19l0-4.66.15-3.69a43.15,43.15,0,0,1,1.1-7.25,66.86,66.86,0,0,1,2.26-7.48c1.27-3,1.28-3.52.39-2.07a35.54,35.54,0,0,0-4.09,10.07,46.14,46.14,0,0,0-1.34,9c-.17,1.49-.15,3.91-.19,6.08l-.08,6.91c0,9.48-.1,19.93-.15,30.49l0,17.36A49.24,49.24,0,0,0,43,266.65a51.28,51.28,0,0,0,12.19,7.27,52.59,52.59,0,0,0,6.73,2.28c2.4.5,4.39,1,7.51,1.4l34.38,5.24c19.17,2.92,29.49,4.39,33.7,4.71,9.79.74,18.84,1.37,26.23,1.75,1.23.06-5.8-1.19-11.89-2.2C136.63,284.59,120.18,282.08,103.39,279.58ZM232.9,117.7c32.9.5,66,.11,92.78.13l-17.13-1-15-1.09-59.27,0c-27.49-.15-45.74.12-68.06.26l-51.33.26-26.79.12-13.74.06c-2.15.1-4.17.19-6.26.36-2,.4-4.15.52-6.17,1.1-2.53.7-7.85,2.59-10.48,4.3-1.23.79.3,0,3.21-1a51,51,0,0,1,17-3.1c6-.09,12.2.25,13.3.36,5.2.7,34.73.49,54.86.61,17.1.1,26.87-.05,33.61-.37,7-.34,18-.66,30.7-.93C209.28,117.7,228,117.63,232.9,117.7Zm69.44,178.14c.18.59.38,1.18.53,1.79l7.65-1,6.74-1.11L310.58,297l60.11-8.78,21-3.32c31.48-5.33,17.36-4.24-22.16,1.23l-64.66,9.38Zm-42.16,59a34.9,34.9,0,0,0,4.23-.91c-5.1.58-7.64,0-3.05-.66,1-.26-.17-.28,0-.46a7,7,0,0,1,2.61-1,53.15,53.15,0,0,0,8.76-3.12c4.54-2,8.29-6.44,6.68-5.71-2.42.82,3.41-3.17,7.87-10.88a33.11,33.11,0,0,0,4.45-14,20.2,20.2,0,0,0-.11-2.87,153.45,153.45,0,0,1-.63-15.55c0-.94.05-2.13.11-2.6.34-3.13.59-3.2-.39-8.19a35.83,35.83,0,0,1-.69,7.43c-.14.79-.32.61-.49.88A48,48,0,0,0,289,288c-.19-1.05-.38-2.08-.62-3.05A32.37,32.37,0,0,0,260,262.15l-1.57,0c.06,0,.08.1.15.1a32,32,0,0,1,25.52,14.64,32.6,32.6,0,0,1,3.95,8.49c1.56,6,1,7.9.4,7.11.29,3.36.26,6,.39,8.66,0,1.81.08,3.69.13,5.58,0,4.37.3,8.48-.12,12.57a32.92,32.92,0,0,1-3.43,11.45,30.69,30.69,0,0,1-5.73,7.51,33.71,33.71,0,0,1-12.67,7.7,24.9,24.9,0,0,1-8.07,1.31c-1.56,0-1.93-.23-1.2-.56a16,16,0,0,0,2.42-1.51c3.53-.41,5.65-1.4,4.68-1.56a29.66,29.66,0,0,0,18.72-15.19l-.16.51a24.59,24.59,0,0,0,1.67-3.3,31.92,31.92,0,0,0,2.05-12.44V300c0-1.16,0-2.38,0-3.49.08-4.55-.16-5.64-.37-5.17-.4.91-1-3.82-2.3-6.82a29.24,29.24,0,0,0-19.2-17.23c-6.9-2-15-1-20.82,2.52a38.74,38.74,0,0,0-3.77,2.5c-4.89,3.79-8.78,8.86-10.16,15.24-.26.8-.64,2.78-.83,3.24a12.56,12.56,0,0,1-.79,1.63c-.12,1.22-.17,2.86-.19,4.84l-.21-1.59c.05,4.07.09,7.53.14,10.92s-.23,6.83-.12,10.26l.34.56a27,27,0,0,0,1.59,7.32,12,12,0,0,1-.65-1.54c-.25.18-.23,1.07-.66.21a22.13,22.13,0,0,1-1.37-5.61,20.6,20.6,0,0,0-.39-3.91c-.17-.5-.3-3.61-.44-5.57-.35-4.82-.82-3.23-1.26-3.54-.15-.11-.31.16-.53.29l-.2,4-.29-6.62.28.39c0-1,0-2.56,0-3-.32-3.18-.66-6.64-.76-9.33.08-1.73-.5-.79-.81,1.41a59,59,0,0,0-.51,8c0,3.43,0,6.89,0,10.36,0,1.77,0,3.41,0,5.28a34.55,34.55,0,0,0,.59,5.75,37.52,37.52,0,0,0,3,9.18,34.83,34.83,0,0,1-3.91-14.9h-.12a30.3,30.3,0,0,0,.44,5.17,69.62,69.62,0,0,0,2,7.85,26.63,26.63,0,0,0,4.77,8.37c3.27,4.35,9.51,8.42,12.84,10.35,1.23.8,0,.54-.09.75a36.65,36.65,0,0,0,15,3.28,40.71,40.71,0,0,1-7.76,1l3.19.62c-4.83-.55-6-1-7.09-.93a14.86,14.86,0,0,1-5.68-1.62,34.9,34.9,0,0,0,7.37,3c-2.64-.33-5.6-1.49-4.31-.52.52.35-.45.19-1.78-.13s-2.92-1-3.78-1.21c-.68-.2.48.62.07.58a5.86,5.86,0,0,1-2.83-1c-3.77-2.45-6.14-3.18-10.6-8.92l-2-2.73a40.6,40.6,0,0,1-7-15.89l-.63-4.3-.18-4.33.14-6.34c0-2.71.08-5.6.12-8.54s-.11-5.44.19-9.9a42.62,42.62,0,0,1,40.14-38.91,55.59,55.59,0,0,1,6.27,0A39.41,39.41,0,0,1,277.65,256,38.07,38.07,0,0,1,289.46,266,47.29,47.29,0,0,1,297,278.9l0-.54a19.53,19.53,0,0,1,2.22,4.92c1.63,5.14,1.61,11.76,1.27,15.1-.2,2.88-.23,7.59-.35,12l-.69-1.21c0,3.24-.06,4.91-.23,6.68a6.82,6.82,0,0,1-.48,2.55c-.29.28-.52-1.58-.81-1.92a39.34,39.34,0,0,1-4.25,16.91c-3.93,7.84-11,14.52-18,17.48a42.71,42.71,0,0,1-8.09,3A32.59,32.59,0,0,1,260.17,354.84Zm-42.43-39-.17-1.21a22.78,22.78,0,0,0-.17,3.44,38,38,0,0,0,2.76,11.68,40.23,40.23,0,0,0,3.3,6.32,42.79,42.79,0,0,0,2.39,3.55l.47.33A39.79,39.79,0,0,1,217.75,315.82ZM249.94,263c-2.78.25-8.71,2.53-13.06,6.67a35.31,35.31,0,0,1,5-3.47l.14,0a34.46,34.46,0,0,0-3.7,2.59,33.7,33.7,0,0,1,5-3A31.8,31.8,0,0,1,249.94,263Zm-7.87,19a20.18,20.18,0,0,1,7-6.18l1.09-.61c1.91-1.21-3.74-.74-7.91,3.45a21.86,21.86,0,0,0-5.14,7.75,18.83,18.83,0,0,0-1.23,4.48,29.43,29.43,0,0,0-.35,5.27c0,3.73,0,5.74.29,6.55.61,1.88,1.23,3.63,1.85,5,.1.23.27-1.14.35-2.33.21-3,.24-6.17.23-9.43,0-1.9,0-2.77,0-3.76a18.83,18.83,0,0,1,.51-2.94c.88-2.89,1-3.34.12-2.06-.25.39-.27,0-.4-.06a13,13,0,0,1,1.37-2.9A13.75,13.75,0,0,1,242.07,282.05Zm26-8.7a46.37,46.37,0,0,0,4.27,2.41,16.45,16.45,0,0,1,3.82,2.66,16.9,16.9,0,0,1,2.57,3.54,36.66,36.66,0,0,1,2.48,6.9,26.78,26.78,0,0,1,.56,3.4,34.48,34.48,0,0,1,.14,3.56l.8-3a17.75,17.75,0,0,0,.69-2.48,28.75,28.75,0,0,0-3.12-9,22.81,22.81,0,0,0-7.41-8.05,25.86,25.86,0,0,0-15.89-4.72c-.47.15-1.45.4-2,.64-.24.11.07.24.61.3,1.69.1,4.7.56,5,1C261.28,271.05,265.49,271.81,268,273.35Zm-20.48,60.33a11,11,0,0,0,2.59,1c2,.49,2.67.12,2.19-.28s-2-1.14-4-2.42c-4.28-2.65-8-7-9.28-12a17.37,17.37,0,0,1-.64-4.07l-.18-.46a19.59,19.59,0,0,0,3.47,13l.65.59-.88-.4A21,21,0,0,0,247.55,333.68Z"/></svg>