<svg id="Layer_1" data-name="Layer 1" xmlns="http://www.w3.org/2000/svg" viewBox="0 0 512 512"><defs><style>.cls-1{fill:#e85454;}.cls-2{fill:#fff;}.cls-3{fill:#7f1c1c;}</style></defs><title>aim-and-arrow-flat</title><path class="cls-1" d="M448,268.8c0-120.18-97.42-217.6-217.6-217.6S12.8,148.62,12.8,268.8A217.52,217.52,0,0,0,124.55,458.95l-31.2,31.2a12.8,12.8,0,1,0,18.1,18.1L149,470.66a218.2,218.2,0,0,0,162.73,0l37.59,37.59a12.8,12.8,0,0,0,18.1-18.1l-31.2-31.2A217.52,217.52,0,0,0,448,268.8Z"/><circle class="cls-2" cx="230.4" cy="268.8" r="140.8"/><circle class="cls-1" cx="230.4" cy="268.8" r="64"/><path class="cls-3" d="M499.2,64a12.8,12.8,0,0,1-12.8,12.8H440.5L427.7,89.6H448a12.8,12.8,0,1,1,0,25.6H402.1L239.45,277.85a12.8,12.8,0,0,1-18.1-18.1L384,97.1V51.2a12.8,12.8,0,1,1,25.6,0V71.5l12.8-12.8V12.8a12.8,12.8,0,1,1,25.6,0V33.1l16.55-16.55a12.8,12.8,0,0,1,18.1,18.1L466.1,51.2h20.3A12.8,12.8,0,0,1,499.2,64Z"/></svg>