<svg id="Layer_1" data-name="Layer 1" xmlns="http://www.w3.org/2000/svg" viewBox="0 0 512 512"><defs><style>.cls-1{fill:#141f38;}</style></defs><title>aim-and-arrow-glyph</title><path class="cls-1" d="M486.4,64a12.8,12.8,0,0,1-12.8,12.8H427.7L414.9,89.6h20.3a12.8,12.8,0,1,1,0,25.6H389.3L252.22,252.28a38.53,38.53,0,1,1-18.1-18.1L371.2,97.1V51.2a12.8,12.8,0,1,1,25.6,0V71.5l12.8-12.8V12.8a12.8,12.8,0,0,1,25.6,0V33.1l16.55-16.55a12.8,12.8,0,0,1,18.1,18.1L453.3,51.2h20.3A12.8,12.8,0,0,1,486.4,64ZM409.6,268.8A191.27,191.27,0,0,0,374,157.63L337.15,194.5a140.91,140.91,0,1,1-45.25-45.25l36.86-36.86A191.27,191.27,0,0,0,217.6,76.8c-105.86,0-192,86.14-192,192,0,74.61,42.82,139.38,105.15,171.15l-50.2,50.2a12.8,12.8,0,1,0,18.1,18.1l57.57-57.57a191.13,191.13,0,0,0,122.75,0l57.57,57.57a12.8,12.8,0,1,0,18.1-18.1l-50.2-50.2C366.78,408.18,409.6,343.41,409.6,268.8Zm-192-64A63.86,63.86,0,0,1,234.11,207l39.1-39.1a115.25,115.25,0,1,0,45.25,45.25l-39.1,39.1A64,64,0,1,1,217.6,204.8Z"/></svg>