<svg id="Layer_1" data-name="Layer 1" xmlns="http://www.w3.org/2000/svg" viewBox="0 0 512 512"><defs><style>.cls-1{fill:#707070;}</style></defs><title>aim-and-arrow-handdrawn</title><path class="cls-1" d="M255,477.29c1.64-.16,3.37-.34,5.23-.55C258.39,477,256.65,477.16,255,477.29Zm0,0-.2,0ZM372,84.84c.55.44,1.08.91,1.63,1.36l.92.68ZM187.6,478.08a24.51,24.51,0,0,0,3.53.79C189.89,478.66,188.78,478.35,187.6,478.08Zm-172.49-278L17,192.7c.73-2.42,1.71-4.74,2.55-7.11l5.2-14,6.41-13.28,3.21-6.56c1.19-2.12,2.51-4.15,3.76-6.22,13.24-22.1,26.57-39,50.55-59.75C105.44,71.62,128,58.32,147,50.32l15.94-7.07c5.3-2.48,12-4,18.91-6.37-30.32,7-66.81,22.78-95.63,48.37L73.9,96.48c-4.93,4.84-9.46,10.13-11.59,12.28-5.31,5.2-9.25,10.9-13.1,15.62L43.92,131,40,136.85c-2.2,3.28-4.82,7.35-8.17,12.76-2.79,5.71-6.44,12.73-10.42,21.92l-6.54,18c-2,6.37-3.42,13-5,18.94-1.77,5.95-2,11.65-2.78,16-.59,4.43-1,7.72-1,9.24-.28,1.46-.23,8.12-.52,15.95,0,3.92-.47,8.14-.11,12.17l.81,11c.32,4.09.61,6.31.64,4.39,0-4.15-.06-11.45-.08-14.86C7.23,240.7,9.16,219.59,15.11,200.05Zm308.68-54.15c.39.31.74.66,1.12,1l.52.38ZM204.5,402.15a13.94,13.94,0,0,0,1.62.36C205.55,402.41,205,402.27,204.5,402.15Zm-43.86-3.25c23.83,12.55,52.75,19.57,77.49,17.89,4.94-.34,10.63-.85,9.64-.93-5.94-.56-13.15-.52-20.82-2-1.65-.26-4.52-.46-8.88-.82-4.3-.81-10.17-1.34-17.61-3-35.73-7.45-68.57-29.13-90.35-58.61-10-13.32-17.51-28-21.22-37.84-4.16-9.72-5.24-14.41-4.07-7.87.33,1.25,1.49,4.57,2.53,7.55a156.41,156.41,0,0,0,31.09,52.33c3.76,4.16,8.33,7.88,14.94,13.56,1.45,1.4,4.31,3.29,7.3,5.61a89.68,89.68,0,0,0,9.43,6.58c-.12.12,1.85,1.56-.75.12C140.94,386.32,142.67,388.53,160.64,398.9ZM83.93,268.35c.25,2.7.5,4.15.56,2.88.05-2.78.14-7.54.18-9.79.26-14.31,1.57-28.19,5.5-41,1.42-6.56,4.28-12.57,6.41-18.7l4.23-8.72a62.93,62.93,0,0,1,4.6-8.38c8.74-14.5,17.56-25.49,33.27-39.18,11-9.32,25.82-18,38.27-23.26l10.34-5c3.45-1.74,7.84-2.89,12.36-4.56-20,4.61-44.17,14.92-63.07,32L128.45,152c-3.26,3.19-6.26,6.67-7.68,8.07-3.54,3.4-6.18,7.12-8.77,10.21l-3.56,4.34-2.64,3.8c-1.5,2.14-3.27,4.81-5.51,8.38-1.87,3.76-4.29,8.41-6.91,14.51l-4.32,11.93c-1.29,4.21-2.27,8.58-3.29,12.54a96.83,96.83,0,0,0-2.31,16.75C83.6,244.47,82.64,260,83.93,268.35ZM320,390.59c-12.18,8.48-25.75,14.82-39.81,19.76a27.06,27.06,0,0,0,3.06-.81c4.46-1.66,9-3.18,13.41-5l12.77-6.17c31-16.94,56.83-45.44,69.73-77.13a135.83,135.83,0,0,0,8.13-29.29c.4-3.6-.74-.19-4.27,12-1.15,3.89-4,10.79-5.78,15.77a165.62,165.62,0,0,1-25.06,40.81,37.48,37.48,0,0,0,3.82-3.85,38,38,0,0,1-3.54,4.1C343.23,372.25,332,382,320,390.59ZM191.4,326.07c-4.36-2.46-3.56-1.25,5.54,4,12,6.38,26.74,10.08,39.23,9,2.5-.22,5.36-.58,4.85-.68-3-.65-6.65-1-10.44-2.14-1.63-.37-5.7-.56-13.12-2.07a75.66,75.66,0,0,1-44.89-29C162.39,292,158.37,276,159.19,282.71c.13.64.67,2.32,1.18,3.83a78.74,78.74,0,0,0,15.37,26.54,97.08,97.08,0,0,0,7.75,6.6c1.62,1.2,5.37,4.28,8.42,6.12C191.8,325.93,192.74,326.74,191.4,326.07ZM162,265.14c.2-1.32.34-3.65.44-4.72a70.71,70.71,0,0,1,10.2-36.71c4.25-6.89,8.56-12,16-18.61A72.45,72.45,0,0,1,206.9,194l4.74-3a58.89,58.89,0,0,1,5.81-2.75c-9.67,2.23-21.53,7.07-30.52,15.54L183,207.45l-3.77,3.86a106.13,106.13,0,0,0-7.68,8.61,45.89,45.89,0,0,0-2.85,4c-1,1.82-2.14,4.09-3.4,7.09-3.13,7-5.1,18.19-4.53,20.21.25,1,0,8.54.75,12.55C161.72,265.06,161.93,265.76,162,265.14Zm95.43,70.75a15.39,15.39,0,0,0,1.58-.32c2.27-.83,4.58-1.61,6.81-2.54l6.48-3.14c15.7-8.61,28.87-23,35.18-39.17,2.87-7.62,3.54-13.1,3.61-14.93s-.77-.17-2.7,5.85c-.63,1.93-2.09,5.36-3,7.84a82.77,82.77,0,0,1-12.39,20.42,20.4,20.4,0,0,0,2.09-1.77,20.41,20.41,0,0,1-1.81,2A79.51,79.51,0,0,1,257.45,335.89ZM410.63,71.3a1.77,1.77,0,0,0,.1-.48c.13-1.2.26-2.42.4-3.69a9.86,9.86,0,0,1-.37-1.22,10.32,10.32,0,0,1,0-1.25c.1,0,.21-.14.28,0,.24.6.36.43.36-.81a25.45,25.45,0,0,0-.1-4.82c-.06-.3-.18-.64-.25-.58a12.46,12.46,0,0,0-1.32,1.26c-.19.2-.24.7-.21,1.64.07,2.22.12,4.48.12,6.73C409.63,70.15,410.19,72.1,410.63,71.3Zm-.27-20.46-.06.33,1.12,5.35.11-.19c0-.57,0-1.15,0-1.7a59,59,0,0,0-.22-6.34c-.27-1.92-.89-2.6-1.26-1.06a4.67,4.67,0,0,0-.1,1c0,1,.09,1.89.14,2.92Zm32.39,61.5a25.42,25.42,0,0,0,4.82-.1c.3-.06.64-.18.58-.25a12.57,12.57,0,0,0-1.26-1.32c-.2-.19-.7-.24-1.64-.21-2.22.07-4.48.12-6.72.12-2,0-4,.55-3.19,1a1.75,1.75,0,0,0,.48.1l3.69.4a10.08,10.08,0,0,1,1.22-.37,10.34,10.34,0,0,1,1.25,0c0,.1.14.21,0,.28C441.34,112.22,441.5,112.33,442.74,112.34Zm-18.49-5.08c-.91.06-2,0-2.85,0-.25.23-.46.45-.72.66s-.53.4-.82.62a23,23,0,0,0,4.47-.08,5.64,5.64,0,0,1,1.39.07,6.26,6.26,0,0,1,1.48.57,2.68,2.68,0,0,0,1.62.23c1-.07,2.39.06,2.64-.37.12-.21,1.09-.39,1.62-.59.17-.07.26-.16.18-.24a4,4,0,0,0-.62-.38c-1.81-.11-3.49-.19-5.1-.31A19.6,19.6,0,0,0,424.25,107.26Zm25.87,5.11.19.11c.57,0,1.15,0,1.7,0a59.14,59.14,0,0,0,6.34-.22c1.92-.27,2.6-.89,1.06-1.26a4.67,4.67,0,0,0-1-.1c-1,0-1.89.09-2.92.14l.33.27-.33-.06Zm5-85.55a1.76,1.76,0,0,0,.1-.48c.13-1.2.26-2.42.4-3.69a10,10,0,0,1-.37-1.22,10.26,10.26,0,0,1,0-1.25c.1,0,.21-.14.28,0,.24.59.36.43.36-.81a25.42,25.42,0,0,0-.1-4.82c-.06-.3-.18-.64-.25-.58a12.66,12.66,0,0,0-1.32,1.26c-.19.2-.24.7-.21,1.64.07,2.23.12,4.48.12,6.73C454.11,25.67,454.67,27.61,455.11,26.82Zm-.27-20.46-.06.33L455.9,12l.11-.19c0-.57,0-1.15,0-1.7a59.15,59.15,0,0,0-.22-6.34c-.27-1.92-.89-2.6-1.26-1.06a4.69,4.69,0,0,0-.1,1c0,1,.09,1.89.14,2.92Zm1.84,54a8.36,8.36,0,0,0-1,.11l.14.06-6.54-.13c.23-.31-.36-.48-1.27-.5a8.22,8.22,0,0,0-.62-1,3.62,3.62,0,0,0-.54.34c-.41.35-.57-.35-.5-2.09-2.61,2.6-5.23,5.2-8,7.94L435.6,67.8c.27.52-.13,1.19-3.29,4.47l1.53-1L423.78,81.57c-3.37,3.42-6.56,6.66-8.71,8.94q-3,3.11-6.26,6.45c.86,0,1.74,0,2.59,0,1.07,0,2.16.07,3.36.12-.13-.44-1.39-1,1.74-1l-.3-.49c1.11-.09,2.28-.11,3-.25a10.42,10.42,0,0,1,3-.11,2.36,2.36,0,0,1,1,.42l-.09.11a26.89,26.89,0,0,0,2.75-.22,19.43,19.43,0,0,1,5.93-.18,9.64,9.64,0,0,0,1.14,0c2,0,4,0,5.95,0,1.71,0,3.4.13,5.12.15,1.45,0,3,0,4.34-.08a42.21,42.21,0,0,1,6.31-.06,3,3,0,0,0,.62,0c1.31-.31,1.7.12,2.54.19a.67.67,0,0,1,.55.39c.07.11-.19.24-.06.35.32.26,1.29.54,1.06.76s.31.4.82.58l-1.56.2c1.61.19.63.75,2.6.87l-.66.09,1.59,1.27h-3.3c0,.17.26.38-.05.51a10.92,10.92,0,0,1-3.64.16,6.44,6.44,0,0,0-2.13.15,5.19,5.19,0,0,1-1.79.2c-.38,0-.77,0-1.16,0,0,0,0,.06,0,.09l3.48.14c-.75.06-1.47.06-2.18.06-1.73,0-3.49,0-5.2,0-1.36,0-3.1.45-2.3.79a22.31,22.31,0,0,0,2.27.69,6.17,6.17,0,0,0,.74,0l-.1-.2,1.66.21-1,.14c0,.15-.1.27-.07.38.08.31-.32.65.88.9a6.61,6.61,0,0,1,1.39.31c.17.17.42.16,1,.18a6.1,6.1,0,0,1,1.52.18c.25.12,0,.3,0,.49l.45.08-2,0-.16-.22c-.93.06-1.76.15-2.6.16s-1.71-.06-2.73-.1l.4.15-1.25.07c-.16.17-.21.33-.47.46a2.91,2.91,0,0,1-.94.15c-1.82-.13-3.5.1-5.26.09-.43,0-.91,0-1.28,0-1.91-.2-4-.18-6-.3-2.5-.15-5-.28-7.34-.53-.88-.1-2.15-.14-1.92-.52.13-.2-.2-.22-1.33-.16-.28,0-.58,0-.87,0h-6.62a8.54,8.54,0,0,0-1,.11l.14.06-6.54-.13c.23-.31-.36-.48-1.27-.5a8,8,0,0,0-.62-1,3.55,3.55,0,0,0-.54.34c-.14.12-.25.07-.33-.06l-.25.25c-1.52,1.48-2.43,2.24-3.31,3l-1.24,1.05-.28.25a222.54,222.54,0,0,1,54.65,104.9c-1.78-5.17,1.45,8.48,3.2,29.66-.36,5.26-.75,8.58-1,14.69-.16,4.18-.53,2-1.11-6.63a221.18,221.18,0,0,0-41.63-120.16c-2.69-3.57-5.39-7.33-8.26-11l-8.28-9.12-.85.86-1.21,1.23c1.38,1.55,2.75,3.09,4.07,4.55l4.55,5.15,3.74,5.13,6.39,8.86c6.94,10.81,9.16,16,5.85,11.08-2.35-3.36-.24.94,3.95,8.51,2.07,3.8,4,8.78,6.38,13.89,1.12,2.6,2.51,5.17,3.52,7.93l2.94,8.26c4.17,10.28,5.82,19.06,7.62,26l1.18,4.9.6,4.39.93,7.14,1,8.82a21.58,21.58,0,0,1-.13,3.76c-.14,1-.65-4.35-.55.44.22,10.45.09,12.77-.3,9.72-.59-3-.41-11.53-2.69-22.43l1.2,9.66c.07,3.07.14,6,.21,9a100,100,0,0,0-1.62-15.4c-.93-5.1-1.55-10.39-2.77-16.06-1.53-5.57-3.22-12.83-5.11-19.45l-5.83-15.8c-1.33-3.81-3.54-7.37-5.31-11.21-2-3.74-3.56-7.79-5.93-11.5-4.7-7.43-9.06-15.43-14.94-22.59-2.89-3.59-5.3-7.63-8.61-10.95l-5.68-6.24-1.41,1.48c-6.82,7.25-17.7,18.23-25.88,26.09-1.37,1.32-3.31,3.26-5,4.93l-9.19,9.2-3.6,3.6a144.52,144.52,0,0,1,33.39,65.94c-1.34-3.32.66,5.57,1.77,19.3-.45,3.43-.9,5.58-1.25,9.53-.24,2.7-.56,1.29-1-4.27a147.38,147.38,0,0,0-4.27-29,139.67,139.67,0,0,0-22.53-48.44,94.88,94.88,0,0,0-8.53-10.63l-2.09,2.09a156.42,156.42,0,0,1,9.77,12.87c4.35,7,5.65,10.37,3.41,7.28-1.58-2.09-.36.74,2.19,5.61,1.26,2.44,2.4,5.64,3.9,8.9a89.71,89.71,0,0,1,4,10.31,105.66,105.66,0,0,1,6.39,26.93c.64,5.17.57,7.1.29,8-.16.66-.56-2.74-.56.29,0,6.61-.15,8.07-.48,6.15s-.41-7.26-1.91-14.11l.67,6.09c0,1.94,0,3.79,0,5.64-.19-6.64-1.7-12.57-2.89-19.74l-3.21-12.21L355.6,210a142.2,142.2,0,0,0-23.37-36.69l-3.33,3.33q-5.63,5.61-11.23,11.15c-3.74,3.7-7.49,7.4-11.24,11.14-6.37,6.34-13.08,13-18.95,19l-.59.6a66.42,66.42,0,0,1,12.52,27c-.91-1.46-.14,2.65.35,8.94-.55,1.59-1.05,2.59-1.51,4.38q-.47,1.83-.87-1.91a79,79,0,0,0-2-13,62.25,62.25,0,0,0-10-21.77c-.27-.41-.61-.8-.9-1.21l-2.22,2.25c2.85,4.22,3.58,7,2.24,5.41-1.62-1.61,1.53,5.17,3.43,11a38,38,0,0,1,2.46,11.46c.15,2.2,0,3-.29,3.41s-.48-1.12-.56.15c-.44,5.54-.67,2.42-1.8-3.2a26.63,26.63,0,0,1,0,4.83c-.14-2.72-.89-5.11-1.4-8l-1.3-5-1.52-4A66.09,66.09,0,0,0,277,228.55c-6.15,6.21-11.71,11.75-17.13,17.06-.81.79-2.19,2.17-2.67,2.68-3.74,4-5.89,6-8,7.92-1,1-2.05,1.9-3.27,3.09a14.71,14.71,0,0,1-2.72,2.24l-.66.42-.2-.14L241,263.05c-2.46,2.15-3.11,2.77-3.65,2.62-.6.53-1.37,1.24-2,1.81l-1,.92-.54-.56c-1,.87-2.36,2.19-4.63,4.43l-.38-.37-4.59,3.66-1.3-1.45,13.49-13.49a2.47,2.47,0,0,1,.83-1.46c2.79-3.15,8-8.3,12.62-12.85l3.27-3.23c2.51-2.48,5-5,7-7l-.36-.36c3.27-3.34,6.39-6.47,9.52-9.6l3.15-3.15-.74-.75-.07.07c-2.08,2.07-5.78,5.68-6.8,6.58a2.88,2.88,0,0,1-1.34.67l-1,.91-1.36-1.39,8.63-8.52c-1-.9-1.93-1.86-3-2.66l-20.16,21.39h0l.12.14-3.94,4c-3,3-5.85,5.95-8.77,8.88-1.41,1.42-3.43,3.38-4.55,4.43-2.94,2.75-4,3.71-4.71,3.71a.9.9,0,0,1-.65-.34c-.79-.79-1-1,7.86-10.18,6-6.24,12.51-12.75,18.8-19,3-3,5.92-5.92,8.83-8.85l4.45-4.47,1-1a52.16,52.16,0,0,0-14.71-7.71c.23.5,1.9,1.56,1.47,1.77s-2.8-.85-11.21-2l1.49,1.1c-5.84-.77-12.24-.58-15.93.48A69.84,69.84,0,0,0,211,215.45a37,37,0,0,1-4.81,2l.32-.42a49.24,49.24,0,0,0-10.76,10A68.6,68.6,0,0,0,188.38,240a62.61,62.61,0,0,0-4,15.85,32.07,32.07,0,0,0-.14,6,50.72,50.72,0,0,0,32.63,44.82,47.63,47.63,0,0,0,22.77,2.69,54.58,54.58,0,0,0,29.66-14.2,28.59,28.59,0,0,0,2.21-2.43c4.06-5.63,5.65-7,7.79-11a5.72,5.72,0,0,1,1.9-2.35c.35-.27-.08,1.1.4.54,1.08-1.42,3.36-6.36,3.27-5,.05,1.77,1.09-1.48,2.14-4.26a60.31,60.31,0,0,1-2.28,8.65,58.69,58.69,0,0,1,2.82-6.18c.64-1.06,1.35-2.39,2.22-8.16l-.43,3.89a63.16,63.16,0,0,0,3.08-9.38,56.9,56.9,0,0,1-3.59,19.94c.28.11,1.19-1.32.73.61-1,5.24-6.39,14.22-11.62,19.51a99.86,99.86,0,0,1-9.87,9,42.39,42.39,0,0,1-9.74,5.84c-2.23,1-4.54,1.82-6.86,2.62l0,.15a60.45,60.45,0,0,0,19.74-10,52.84,52.84,0,0,1-11.87,7.33,61.4,61.4,0,0,1-32.55,5.09c-8.68-.76-19.45-4.75-14.79-2.28a54.34,54.34,0,0,0,14.29,4.82,31.8,31.8,0,0,0,5,.4l-.63-.38a61.66,61.66,0,0,0,11.06.05c-3.95.56-6.19.6-6.69.69-.21.28-.66.5-.48.68.54.52-2.24,1.25,6.16,1.26,3.41-.22,8.8-1,9.67-1.19,1.21-.06,3-.3,6.89-1.81a45.46,45.46,0,0,0,5.83-2.36c1.85-.82,3.43-1.5,4-1.85,1.63-.74.41.36.41.76l2.85-1.58a51.65,51.65,0,0,1-7.14,4,44,44,0,0,1-6,2.54l-1.2,0a62.29,62.29,0,0,1-18.21,3.77,63.14,63.14,0,0,1-19.43-1.92,25.87,25.87,0,0,0,2.72.9,73.92,73.92,0,0,1-8.72-2.22,17.27,17.27,0,0,1-3.47-.41c-1-.1-4.8-1.82-6.35-2.58-11.66-6.37-21.22-14.82-27.83-25.95a65.47,65.47,0,0,1-4.28-8.34,77.4,77.4,0,0,1-4.93-21.17A67.62,67.62,0,0,1,198.28,202c5.35-3.49,14-6.46,12.66-5.22-.66.77,1.32-.49,9.12-2.42,1.9-.46,4-.66,6.08-1a66.91,66.91,0,0,1,44.53,10.37c1.95,1.24,3.76,2.59,5.66,3.88l-.72-.67c1.41,1.13,2.76,2.32,4.07,3.56.8-.81,1.63-1.66,2.43-2.47,2.58-2.6,5.23-5.2,8.1-8l2.16-2.13-.08-.08,5.75-6a16.89,16.89,0,0,1,1.39-1.8c.55-.65,3-3.2,4.05-4.26,4.83-4.73,9.41-9.38,13.84-13.87q3.42-3.47,6.88-7c-.43-.41-.86-.84-1.29-1.24l-1.85,1.85c-9.81,9.8-19.66,19.71-29.35,29.49a101.33,101.33,0,0,1-7.39,7.13c-2.69,2.07-4.71,3.57-6.37,4.73l-.72.5-.61-.64c-.65-.74-.47-.92,2.46-4,4.62-4.89,10-10.24,15.25-15.42,1.94-1.93,3.88-3.85,5.78-5.74,4.56-4.55,5.45-5.52,6-5.23,1.3-1.29,2.54-2.53,3.19-3.22,1.62-1.72,2.83-3.05,3.9-4.24l1.18-1.3,6.18-6c-2-1.73-4-3.41-6-5a129.55,129.55,0,0,0-40.81-21.9c.73.68,5.09,2.73,4.21,2.77-.91.29-6.72-3-27.92-6l4,1.48c-14.86-2.2-31.08-1.72-40.59.57-13.47,2.62-27,6.91-38.7,13.08-5.87,3.12-7.88,4.15-11.7,6.07l1-.82c-10.65,7-22.37,18.09-27.71,25-6.32,8.21-14,19.48-19.56,32.62a141.76,141.76,0,0,0-10,40.68c-.28,4.19-.77,10.22-.24,15.39,0,6.75,1.37,13.36,2.35,20,1.7,6.5,3.19,13.06,5.78,19.27a127.75,127.75,0,0,0,19.83,34.79c14.65,17.9,33.62,32.32,55.53,40.11,18.35,6.88,39.76,9.44,58,7.05a132.88,132.88,0,0,0,75.81-36.1c1.86-1.71,4.65-5,5.68-6.16,11-13.88,14.16-18.24,19.46-28.21a32.66,32.66,0,0,1,3.85-6.4c.61-.8-.76,2.53.18,1,2.13-3.85,7-16.37,6.29-13.25-.58,4.14,1.74-4,3.83-10.84l-2.42,10c-.75,3.39-2.25,6.75-3.6,10.93,4.22-10.46,4.67-12.66,5.74-15.33.51-1.35,1.05-2.85,1.92-5.7.61-2.9,1.38-7.2,2.41-14.09L366,281.9c.83-3.72,2.1-7.25,2.55-10.94l1.71-11.48c-.13,20-3.78,33.5-8.37,46.61.28.11,1.94-3.37.59,1a59,59,0,0,1-3.93,10.27,88.87,88.87,0,0,1-6.29,12.07l-3.78,6.2c-1.35,2-2.91,3.91-4.34,5.85s-2.85,3.84-4.31,5.64L335.28,352c-4.58,5.45-9.52,9.19-13.2,12.8l-9.81,7.75a122.25,122.25,0,0,1-22.64,13c-5.13,2.22-10.46,4.14-15.79,5.92v.16a138.41,138.41,0,0,0,45.06-23.07l-6.52,5c-2.19,1.58-4.55,2.85-6.79,4.27a107.82,107.82,0,0,1-13.9,7.4,131.1,131.1,0,0,1-36.49,10.87c-12.56,2.17-25.39,2-37.86.7-19.9-1.85-44-11.78-33.14-6.85A96.93,96.93,0,0,0,199,395.36c5.57,1.9,11.71,2.93,17.59,4,1.49.47,7.25.73,11.06.88l-1.42-.42c8.38.77,15.09.39,24.69-.32-8.82,1.07-13.81,1.06-14.92,1.24-.48.3-1.46.54-1.06.71,1.16.48-4.88,1.38,13.44.9,3.71-.38,8.48-1.09,12.59-1.61s7.4-1.59,8.37-1.63a65.71,65.71,0,0,0,14.85-4.27l6.35-2.3,6.23-2.93c4-1.83,7.36-3.39,8.65-4.22,3.4-1.81.58.26.39.78l6-3.51-8,4.9-7.3,3.56a93.77,93.77,0,0,1-12.94,5.42l-2.43.47c-13.53,4.58-26.18,7.3-39.2,7.79-13.07.93-26.53-.37-41.78-3.93,2,.56,3.18,1,4.29,1.29-3.06-.64-5.92-1.44-8.58-2.05a60.12,60.12,0,0,1-8.47-2.48c-2.38-.55-3.27-.59-7.1-1.73-2.12-.33-10.08-4.18-13.39-5.77-12.4-6.81-23.91-14.35-33.57-23.81-9.78-9.25-18.59-19.54-25.44-31.44-3.75-5.57-6.59-12.55-9.13-17.69A160.13,160.13,0,0,1,88,272.26c-1.48-15.78.18-31.88,3.72-46.91a145.22,145.22,0,0,1,65.33-89.28c3-1.66,6.09-3.82,9.44-5.38l9.4-4.37c5.67-2.33,9.57-3.29,8-2.44-.84.5-.09.32,2.9-.73,2.93-1.25,8.33-2.65,16.76-4.82,4.13-1,8.78-1.43,13.18-2.17,33.44-3.87,68.43,3.68,96.56,22.5,4,2.57,7.74,5.47,11.61,8.22,2,1.6,3.85,3.29,5.73,5l.23-.23c.86-.84,1.83-1.75,2.2-2.08.77-.66,1.56-1.36,2.28-.59.41.44.72.8-2.72,4.63.51.48,1,1,1.49,1.46,3.49-3.41,7.08-6.95,10.71-10.54l-.69-.5c-.67-.72-.05-1.4.8-2.35s1.77-1.94,2.77-3c1.51-1.63,3.57-3.87,3.83-4.26.62-1,3.36-3.8,7.8-8.26,1.28-1.28,2.55-2.55,3.66-3.69,3.29-3.38,5.54-5.53,7.29-7,1.5-1.27,3.85-3.37,6.78-6.09l.81-.77c-1.59-1.41-3.2-2.8-4.73-4.27a97.79,97.79,0,0,0-10.65-9c-18.6-14.54-39.88-26.83-65.16-34.83,1.22.86,8.29,3.9,7,3.77-1.39.28-10.65-5.15-44.63-10l6.42,1.85c-23.88-3.64-49.92-2.85-65.25.65-21.71,4-43.48,10.92-62.34,21l-18.6,10.15,1.63-1.22c-17.15,11.15-36,29-44.66,39.94-10.3,13.07-22.82,31.16-31.74,52.3a221.91,221.91,0,0,0-15.89,65.51c-.41,6.74-1.17,16.43-.34,24.74C29,280,31.1,290.66,32.7,301.34L36.75,317a48.54,48.54,0,0,0,2.43,7.72l2.79,7.6c7.8,20.08,18.24,39.28,31.92,56,2.75,3.77,6.17,7,9.2,10.5a95.88,95.88,0,0,0,9.74,10l10.27,9.41,11.12,8.37c1.87,1.36,3.65,2.87,5.6,4.12l5.94,3.62c4,2.34,7.82,5,12,7.11,8.39,4,16.6,8.44,25.52,11.27,29.52,11,63.91,15.14,93.2,11.41a209.72,209.72,0,0,0,65.62-19,207.19,207.19,0,0,0,56.35-39c3-2.77,7.47-8.08,9.15-9.88A141.31,141.31,0,0,0,398.9,382c3-4.12,5.86-7.38,7.81-10.87,4.08-6.83,8.34-12.09,12-20.43a82.84,82.84,0,0,1,5.8-10.45c.86-1.33-1.45,4,0,1.47,3.17-6.29,10.72-26.38,9.31-21.45-1.21,6.51,2.39-6.43,5.52-17.42l-3.93,15.93c-1.23,5.38-3.64,10.71-5.82,17.34,6.61-16.66,7.13-20.2,8.67-24.48.72-2.16,1.49-4.56,2.79-9.09.89-4.61,2.07-11.42,3.66-22.32-.86,7.16-2.09,15-2,14.66,1.11-5.91,2.89-11.52,3.39-17.36l2-18.09c-.2,31.4-5.94,52.66-13.16,73.28.28.11,2.69-5.42.44,1.4l-2.55,7.54c-.92,2.75-2.45,5.48-3.79,8.49-2.82,5.95-5.73,12.62-9.89,18.89l-5.92,9.72c-2.11,3.18-4.55,6.14-6.78,9.18s-4.46,6-6.74,8.84l-7.09,7.74c-7.18,8.54-14.9,14.41-20.7,20l-15.46,12a207,207,0,0,1-22.84,14l.27.29a216.2,216.2,0,0,0,32.69-20.88l-10.21,7.72c-3.42,2.47-7.11,4.45-10.61,6.67-3.59,2.07-6.94,4.51-10.67,6.23l-1,.48c.81.83,1.61,1.67,2.3,2.44.44.49,1.1,1.15,1.68,1.72l.53.53a51.52,51.52,0,0,0,5.16-2.77c5.18-2.89.75.16.37.79l9.23-5.45L341,455.94l-1.59.77,2,2c1.93,1.91,3.85,3.83,5.75,5.75l.49.5c5.07-2.87,10-5.93,14.86-9.23,18.08-12.74,35.06-27.21,49-44.4,1.22-1.26,2.29-2.64,3.4-4-.94,1.05-2.06,2.22-3.67,3.74A248.47,248.47,0,0,0,449,349.86c2.62-7.48,6.91-17.85,8.59-23.71,5.13-18.27,6.64-23.41,5.84-18.06-.47,2.66-1.6,7.93-3.36,15.45l-1.46,6-2.29,6.66c-1.66,4.68-3.4,9.91-5.54,15.49a233.22,233.22,0,0,1-42,65.8,242.18,242.18,0,0,1-60.29,48.15l2.66,2.73q1.92,2,3.86,4c2.2,2.22,4.56,4.57,6.68,6.58,3.9,3.67,6.91,6.65,9.75,9.67.25.26.7.71.87.86a17.55,17.55,0,0,1,2.86,2.91c.3.37.6.74,1,1.16a3,3,0,0,1,.83,1.5l.11.53-.06.08.11.17c.55.82.93,1.39.8,1.9l.29.37.33.43L378,499l.15.31c.26.32.64.75,1.24,1.37l-.35.35,3.93,7.66-8.79-8.78a1.38,1.38,0,0,1-.94-.33,42.37,42.37,0,0,1-4.72-4.47L367.42,494c-.86-.88-1.73-1.75-2.44-2.39l-.36.36c-1.2-1.12-2.3-2.22-3.4-3.32L359,486.43l-2.22-2.22-.46.47.45.53a9.25,9.25,0,0,1,1.39,1.75,8,8,0,0,0,1.07,1.2,33.74,33.74,0,0,1,2.5,2.74,1.3,1.3,0,0,1,.26,1h0a1,1,0,0,1-.13.34l-.31.53h-.48l-.5.47-3.34-3.29-.07-.25-1-1.05c-1-1-2-1.85-2.9-2.78s-1.81-1.83-2.78-2.85l-.73-.75-.09.07-1.8-1.72a3.61,3.61,0,0,1-1-.47,15.21,15.21,0,0,1-1.7-1.48c-1.63-1.74-3.3-3.33-4.91-4.88q-1.33-1.28-2.66-2.59l-1.73.83c.44.42.87.83,1.39,1.35,3.42,3.43,6.91,6.85,10.36,10.22a13.16,13.16,0,0,1,2.58,2.92,29.21,29.21,0,0,1,1.16,2.86l.23.7-.16.12,8,6.74-.62-1.24,5.66,5.43c1,1,2,1.91,3,2.88h0c.51.51,1.2,1.27,1.56,1.7.86,1,1.75,2.12.92,2.92a1,1,0,0,1-.7.32c-.68,0-1.75-.72-4-2.74s-4.51-4.26-6.69-6.45c-1.06-1.06-2.12-2.12-3.19-3.16-.58-.56-1.17-1.15-1.75-1.74l-1.15-1.27-1.81-3a1,1,0,0,1-.23.08c-.48,0-1-.42-1.67-1-1.81-1.53-3.66-3.43-5.44-5.27l-2.06-2.1c-1.54-1.54-2.15-2.15-2-2.76-.28-.29-.53-.53-.7-.67-.65-.55-1.17-.94-1.63-1.29l-.42-.32-3.55-3.86L327.38,476c-6.57,2.74-13.37,5-20,7.49a39.22,39.22,0,0,1-4.54,1.3,289.4,289.4,0,0,0,29.63-12L331,471.19c-.32-.35-.66-.76-.77-.92-.61-1-.22-1.48.06-1.71s1-.84,5,2.88c.57-.28,1.12-.6,1.68-.88l-.48-.48c-.51-.51-1-1-1.43-1.47-1.25-1.35-2.63-2.77-4-4.17l.1.22-.59.56a1,1,0,0,1-.61.23,1.82,1.82,0,0,1-1-.42c-.34-.25-.75-.58-1.17-.91s-1.14-.9-1.37-1c-2.23,1.1-4.42,2.18-6.61,3l-9.78,3.6-3.65.92c-20.79,7-40.21,11.07-60.19,11.82-20.05,1.42-40.71-.52-64.12-5.94,2.41.65,4.1,1.18,5.56,1.6-4.28-1-8.34-2.06-12.09-2.94a91.67,91.67,0,0,1-13-3.83c-3.59-1-4.91-1.19-10.72-3.06a48.41,48.41,0,0,1-7.85-3l-.13.13c-.48.44-1.15,1.11-1.72,1.69l-3.41,3.44-.54.54a216.49,216.49,0,0,0,45.3,15c11.19,2.5,20,3.28,26.49,4.48,6.55.5,10.88.75,13.36,1.06,11.55,1.82,22.35,1.35,31.21,1.82,1.47.05-7,.71-14.43,1.17-33.09,2-71.07-6.09-104.23-21.23-.95,1-1.9,1.92-2.85,2.86-1.28,1.27-2.57,2.52-3.85,3.78s-2.71,2.65-4.07,4c-2.21,2.2-4.57,4.57-6.58,6.7-3.67,3.91-6.65,6.93-9.66,9.78-.27.25-.72.7-.86.87a17.83,17.83,0,0,1-2.92,2.88c-.37.3-.73.6-1.15,1a3,3,0,0,1-1.5.83l-.52.11-.09-.07-.17.12c-.85.59-1.39,1-1.92.81l-.38.3-.41.32-.52-.56a16.85,16.85,0,0,0-1.65,1.44l-.35-.35-7.6,3.9,8.72-8.75a1.54,1.54,0,0,1,.33-.94,41.47,41.47,0,0,1,4.54-4.81l1-1c.88-.86,1.76-1.74,2.39-2.45l-.36-.36c1-1,1.93-2,2.88-3l2.83-2.85,2-2-.47-.47-.48.42a9.5,9.5,0,0,1-1.81,1.43,8.56,8.56,0,0,0-1.19,1.08l-.18.17a31.7,31.7,0,0,1-2.57,2.33,1.22,1.22,0,0,1-.94.26h0a1.06,1.06,0,0,1-.34-.13l-.53-.31v-.47l-.47-.5,3.29-3.35.26-.07L109,485c.89-1,1.74-1.86,2.63-2.76s1.78-1.77,2.77-2.72l.84-.81-.08-.08,1.72-1.81a3.8,3.8,0,0,1,.47-1,15.33,15.33,0,0,1,1.48-1.71c1.7-1.61,3.26-3.24,4.78-4.83l1.26-1.29-.53-.26c-.41-.21-.75-.41-1.14-.63-3.12,3.14-6.23,6.31-9.3,9.46a12.94,12.94,0,0,1-2.93,2.6,29.16,29.16,0,0,1-2.84,1.17l-.7.23-.09-.13-6.77,8,1.19-.6-4.71,4.94c-1.22,1.28-2.36,2.48-3.53,3.68-.51.53-1.27,1.21-1.7,1.57a4.29,4.29,0,0,1-2.19,1.26,1,1,0,0,1-.74-.34c-.51-.53-.49-1.13.76-2.75l-.13.07.23-.21c.4-.51.91-1.11,1.56-1.84,2-2.27,4.28-4.54,6.46-6.74,1.06-1.06,2.11-2.11,3.14-3.17.73-.75,1.5-1.51,2.25-2.26l.89-.73,2.82-1.78c-.12-.57.32-1.13.94-1.87,1.53-1.81,3.42-3.66,5.25-5.44.71-.7,1.43-1.39,2.11-2.08,1.55-1.55,2.21-2.13,2.76-2,.29-.29.53-.54.68-.7.5-.6.86-1.09,1.18-1.52l.41-.54h0c-4.8-2.73-8.58-5.27-11.64-7-3.82-2.38-6.36-3.87-7.48-4.9-2.28-2-.3-.11,6.22,3.44,3.85,2.2.86.14,1,0-4.66-2.57-9.57-6.45-14.12-9.85s-8.77-6.3-10.93-8.42l-12.7-11.1c-3.78-3.1-6.45-6.49-9.43-9.43a234.1,234.1,0,0,1-46.81-78.13c-1.58-4.46-3.35-9.41-3.89-11.27-1.92-9.74-.53-2.67,5.57,12,5.4,14.88,16.62,37,31.63,57a234.08,234.08,0,0,0,75,65.45l3.56-3.28a9,9,0,0,1,1-.79c1-.6,1.46-.22,1.68.08s.82,1.13-3.4,5.56c.56.3,1.13.56,1.7.86l.22-.22c.5-.51,1-1,1.44-1.42,1.34-1.24,2.74-2.62,4.13-4h0l-.16.08-.28-.29-1.11-.53c-5-2.17-9.38-5.32-14-8s-9.17-5.36-13.26-8.68l-12.56-9.36L80,422.87C65.1,408.69,51.66,392.93,41.2,374.74c-5.73-8.51-10.06-19.2-14-27A243,243,0,0,1,10.52,279c-2.3-24.15.22-48.8,5.59-71.82A223.12,223.12,0,0,1,115.88,70.1c4.55-2.57,9.32-5.9,14.45-8.31L144.73,55c8.68-3.64,14.64-5.2,12.14-4.06-1.32.67-.19.36,4.4-1.28,2.34-.7,5.37-2.25,9.71-3.22l16.08-4.18c6.36-1.48,13.51-2.2,20.27-3.34,51.47-6,105.3,5.66,148.59,34.63,6.17,3.93,11.8,8.41,17.68,12.63q7.31,5.94,14.12,12.48,3.81-3.88,7.41-7.45c0-.29-.06-.64-.07-1.11l-.49.3c-.09-1.11-.11-2.28-.25-3a10.41,10.41,0,0,1-.11-3,2.36,2.36,0,0,1,.42-1l.11.09a26.76,26.76,0,0,0-.22-2.75,19.44,19.44,0,0,1-.18-5.93,9.54,9.54,0,0,0,0-1.14c0-2,0-4,0-5.95,0-1.71.13-3.4.15-5.12,0-1.45,0-3-.08-4.34a42.27,42.27,0,0,1-.06-6.31,3,3,0,0,0,0-.62c-.31-1.31.12-1.7.18-2.54a.67.67,0,0,1,.39-.55c.11-.07.24.19.35.06.26-.32.54-1.29.76-1.06s.4-.31.58-.82l.2,1.56c.19-1.61.74-.63.87-2.6l.09.66L399,44.48v3.3c.17,0,.38-.26.51.05a10.9,10.9,0,0,1,.15,3.64,6.46,6.46,0,0,0,.15,2.13,5.2,5.2,0,0,1,.2,1.8c0,.38,0,.77,0,1.16h.09l.14-3.48c.06.75.06,1.47.06,2.18,0,1.73,0,3.49,0,5.2,0,1.36.45,3.1.79,2.3a22.35,22.35,0,0,0,.69-2.27,6.07,6.07,0,0,0,0-.74l-.2.1.21-1.66.14,1c.15,0,.27.1.38.07.31-.08.65.32.9-.88a6.55,6.55,0,0,1,.31-1.39c.17-.17.16-.42.18-1a6.13,6.13,0,0,1,.18-1.52c.12-.25.3,0,.5,0l.08-.45c0,.88,0,1.47,0,2l-.22.16c.06.93.15,1.76.16,2.6s-.06,1.72-.1,2.73l.15-.4.07,1.25c.17.16.33.21.46.47a2.89,2.89,0,0,1,.15.94c-.13,1.82.1,3.5.09,5.26,0,.43,0,.91,0,1.28-.2,1.91-.18,4-.3,6-.15,2.5-.28,5-.53,7.34-.1.88-.14,2.15-.52,1.92-.2-.13-.22.2-.16,1.34,0,.09,0,.18,0,.27l1.84-1.86.61-.61c0-.76.07-1.61,0-2.37a19.51,19.51,0,0,1,.16-3.28c.12-1.61.2-3.28.31-5.09a4,4,0,0,1,.38-.62c.07-.08.17,0,.24.18.2.53.38,1.5.59,1.62.43.25.3,1.67.37,2.64a2.68,2.68,0,0,1-.23,1.62,6.29,6.29,0,0,0-.57,1.48,5.66,5.66,0,0,0-.06,1.39,8.21,8.21,0,0,1,.07,1.15l.64-.64,9.56-9.55q10.34-10.34,20.67-20.68c.69-.69,1.36-1.39,2-2.09,0-1,.07-2,.11-3.12-.44.13-1,1.39-1-1.73l-.49.3c-.09-1.11-.11-2.29-.25-3a10.41,10.41,0,0,1-.11-3,2.35,2.35,0,0,1,.42-1l.11.09a26.65,26.65,0,0,0-.22-2.75,19.44,19.44,0,0,1-.18-5.93,9.49,9.49,0,0,0,0-1.14c0-2,0-4,0-5.95,0-1.71.13-3.4.15-5.12,0-1.45,0-3-.08-4.34a42.21,42.21,0,0,1-.06-6.31,3.05,3.05,0,0,0,0-.62c-.31-1.31.12-1.7.18-2.54a.67.67,0,0,1,.39-.55c.11-.07.24.19.35.06.26-.32.54-1.29.76-1.06s.4-.31.58-.82l.2,1.56c.19-1.61.74-.63.87-2.6l.09.66L443.53,0V3.3c.17,0,.38-.26.51.05A10.9,10.9,0,0,1,444.19,7a6.46,6.46,0,0,0,.15,2.13,5.21,5.21,0,0,1,.2,1.8c0,.38,0,.77,0,1.16h.09l.14-3.48c.06.75.06,1.47.06,2.18,0,1.73,0,3.49,0,5.2,0,1.35.45,3.1.79,2.3a22.28,22.28,0,0,0,.69-2.27,6.16,6.16,0,0,0,0-.74l-.2.1.21-1.66.14,1c.15,0,.27.1.38.07.31-.08.65.32.9-.88a6.58,6.58,0,0,1,.31-1.39c.17-.17.16-.42.18-1a6.12,6.12,0,0,1,.18-1.52c.12-.25.3,0,.5,0l.08-.45,0,2-.22.16c.06.93.15,1.76.16,2.6s-.06,1.71-.1,2.73l.15-.4.07,1.25c.17.16.33.21.46.47a2.91,2.91,0,0,1,.15.94c-.13,1.82.1,3.5.09,5.26,0,.43,0,.91,0,1.28-.2,1.91-.18,4-.3,6-.15,2.5-.28,5-.53,7.34-.1.88-.14,2.15-.52,1.92-.2-.13-.22.2-.16,1.34,0,0,0,.05,0,.08l2.45-2.44c0-.73.07-1.5,0-2.2a19.48,19.48,0,0,1,.16-3.28c.12-1.61.2-3.28.31-5.09a4,4,0,0,1,.38-.62c.07-.08.17,0,.24.18.2.52.38,1.5.59,1.62.43.25.3,1.67.37,2.64a2.69,2.69,0,0,1-.23,1.62,6.25,6.25,0,0,0-.57,1.48,5.65,5.65,0,0,0-.07,1.39,8.06,8.06,0,0,1,.06,1l18.63-18.53.2.16,0-.05c.08,0,.87-.58,5.7-5.35l1.22-.78c.7-.42,1.36-.82,2.26-1.46.33-.23,1.19-.85,1.81-.1.75.9.82,1-10.12,11.76-3.14,3.1-6.32,6.25-9.5,9.41l-2.73,2.71c.73-.48,1.06-.51,1.29-.39,1.62-1.34,4.5-3.91,7.34-6.72,9.27-9.18,10.86-10.34,11.62-10.72l.65-.32,0,0c1.89-1.7,2.38-2,3.07-1.32.53.53.66.77-.85,2.5l.3.3-1.5,1.58c-1.48,1.56-3,3.11-4.66,4.85-1,1.06-2.38,2.38-3.64,3.64-1.49,1.48-2.9,2.88-3.64,3.66-5.11,5.42-11.36,11.68-17.41,17.74l-1.27,1.27H451a27.58,27.58,0,0,1,4.91-.26c1.07,0,2.16.07,3.36.12-.13-.44-1.39-1,1.74-1l-.3-.49c1.11-.08,2.28-.11,3-.25a10.42,10.42,0,0,1,3-.11,2.36,2.36,0,0,1,1,.42l-.09.11a26.65,26.65,0,0,0,2.75-.22,19.43,19.43,0,0,1,5.93-.18,9.47,9.47,0,0,0,1.14,0c2,0,4,0,5.95,0,1.71,0,3.4.13,5.12.15,1.45,0,3,0,4.34-.08a42.21,42.21,0,0,1,6.31-.06,3,3,0,0,0,.62,0c1.31-.31,1.7.12,2.54.18a.67.67,0,0,1,.55.39c.07.11-.19.24-.06.35.32.26,1.29.54,1.06.76s.31.4.82.58l-1.56.2c1.61.19.63.74,2.6.87l-.66.09,1.59,1.27h-3.3c0,.17.26.38-.05.51a10.9,10.9,0,0,1-3.64.16,6.47,6.47,0,0,0-2.13.15,5.21,5.21,0,0,1-1.79.2c-.38,0-.77,0-1.16,0v.09l3.48.14c-.75.06-1.47.06-2.18.06-1.73,0-3.49,0-5.2,0-1.36,0-3.1.45-2.3.79a22.32,22.32,0,0,0,2.27.69,6,6,0,0,0,.74,0l-.1-.2,1.66.21-1,.14c0,.15-.1.27-.07.38.08.31-.32.65.88.9a6.61,6.61,0,0,1,1.39.31c.17.17.42.16,1,.18a6.13,6.13,0,0,1,1.52.18c.25.12,0,.3,0,.49l.45.08-2,0-.16-.23c-.93.06-1.76.15-2.6.16s-1.72-.06-2.73-.1l.4.15-1.25.07c-.16.17-.21.33-.47.46a2.9,2.9,0,0,1-.94.15c-1.82-.13-3.5.1-5.26.09-.43,0-.91,0-1.28,0-1.91-.2-4-.18-6-.3-2.5-.15-5-.28-7.34-.53-.88-.1-2.15-.14-1.92-.52.13-.2-.2-.22-1.33-.16-.28,0-.58,0-.87,0Zm37.65-7.16.25.1,5.1-.19-.11-.12c-.28,0-.56.06-.84.06-.46,0-.92,0-1.39,0-.78,0-1.57,0-2.34,0A2.17,2.17,0,0,0,494.32,53.16ZM478.8,58.67c.58.09,1.13.19,1.76.25a13.85,13.85,0,0,0,1.43-.09l-1.11-.09,0,0,1.48,0A10.26,10.26,0,0,0,478.8,58.67Zm-170.12,403c-4.16,1.43-8.2,3.28-12.46,4.38v.16a214.64,214.64,0,0,0,24-8.81c-.06-.07-.09-.12-.15-.19C316.39,459.05,312.45,460.18,308.68,461.71Zm-19.18-.07L295,460.4c36-11.41,69.34-32,94.34-60.37l-1.75,1.6c-2.1,2.26-4,4.71-6.28,6.84l-6.83,6.24c-7.37,7.26-16,12.89-24.25,19l-11.14,6.73c-1.87,1.11-3.69,2.3-5.6,3.34l-5.88,2.81-11.69,5.63-12,4.44-7.4,2.88Zm-133.1,1L167,466.87c3.82,1.59,8.16,2.45,12.51,3.78,4.4,1.1,8.84,2.79,13.51,3.47l13.87,2.41c2.32.7,11.25,1.13,17.16,1.37l-2.21-.46c6.51.33,12.36,1,18.45.49,4.54-.31,9.25-.24,14.44-.62-10.31,1-16.24,1-17.72,1.22-.74.31-2.27.58-1.65.74,1.79.45-7.52,1.51,20.72.53,5.71-.64,13.07-1.78,19.39-2.62s11.39-2.55,12.86-2.66a115.52,115.52,0,0,0,22.82-6.73l9.76-3.56,4.15-2c-.5-.44-1.15-1.06-2.07-2L321.74,459c-.52-.49-.9-.89-1.27-1.28-1,.51-2.09,1-3.18,1.41l-7,2.56c-4.7,1.61-9.28,3.65-14.09,4.91C286.54,469.07,277,471.92,267,473c-9.79,1.93-19.75,2.07-29.64,2.61-4.94.41-9.88-.31-14.81-.41-4.91-.36-9.87-.17-14.7-1.14C176.78,471.12,139.37,455.24,156.4,462.63Zm112.57-76,3.49-.71c22.62-7.22,43.58-20.18,59.27-38.07l-1.16,1a72.49,72.49,0,0,1-8.21,8.25c-4.63,4.57-10,8.08-15.26,11.94-4.74,2.65-9.17,6-14.22,8.08l-7.34,3.54L278,383.38c-1.73.64-3.21,1.26-4.63,1.87Zm-20.53-75,1.46-.19a54.28,54.28,0,0,0,24.2-15.77l-.57.3a26.1,26.1,0,0,1-3.31,3.42A55.28,55.28,0,0,1,264,304.2a57.54,57.54,0,0,1-11.9,5.85C250.67,310.63,249.68,311.19,248.45,311.6Zm-72.74-26.45.15.19,2.06,4.33,2.67,4.49c-5.11-8.45-7.78-18.06-9-22.48a63.58,63.58,0,0,0,3,11.57,50.93,50.93,0,0,0,4.42,8.62A69.38,69.38,0,0,1,175.71,285.16ZM255,202.65a62.48,62.48,0,0,1,18.35,10.71c.66.56,1.22,1.13,1.82,1.7l2.06-2.1L275,210.83a61,61,0,0,0-37.17-15.51,75.26,75.26,0,0,0-9.52-.05c-2.29.14-4.52.54-6.92.81-2.35.53-4.89,1-7.65,1.85.76.15.44.53-1.25,1.3a97.74,97.74,0,0,0-9.31,4.36,62.89,62.89,0,0,0-12.57,9.09,63.56,63.56,0,0,0-20.2,44.84c0,.11.06.16.1.26l.2-2.56c1.22-21.07,14-40.79,32.35-50.95,1.36-.87,2.88-1.62,4.43-2.42A62.75,62.75,0,0,1,222,197.13c-.39.29-.07.39-1.31.9l-5.22,2.1L210,202.9c7.25-2.3,7.17-2,12.1-3.8.73-.18,2.66-.52,4.17-.77a57.44,57.44,0,0,1,14.22,0c2.4.48,4.69.84,6.55,1.34s3.29,1.07,4.13,1.4S253.6,202.13,255,202.65Zm24.77,12.84-.52-.52-2.11,2c.2.21.36.41.55.61ZM104.21,315.21c-1-2.33-1.73-4.69-2.57-6.91l-2.35-6.42-1.6-5.93c-.93-3.72-2-6.85-2.44-9.35.73,4.31,1.92,8.41,2.86,12.66s2.75,8.34,4.22,12.84a48.61,48.61,0,0,0,3.24,7.31c1.63,3.08,3.25,7.21,6.37,11.85a74.1,74.1,0,0,1-5-9.49l-2.5-5.32.27.44,4.6,9.6c1.79,3.18,3.84,6.4,6,10-2.68-4.74-5.72-9.3-7.76-14.2Zm221.93-159,2.11-2.05c-1.07-1-2.18-2.05-3.17-3a148.15,148.15,0,0,0-37.15-23.08,137.53,137.53,0,0,0-45.61-10.47c-7.12-.67-14.21-.21-21,.08-5,.37-10,1.32-15.23,2-5.15,1.25-10.73,2.32-16.77,4.3,1.51-.13.74.42-3.07,2-1.89.81-4.61,1.72-8.06,3.2-3.35,1.71-7.65,3.59-12.66,6.27-4.85,3.1-10.05,5.67-14.52,9.32L144.07,150l-6.37,5.77a141.1,141.1,0,0,0-45,99.39,2.13,2.13,0,0,0,.09.57l.35-5.68c2.6-46.84,30.94-90.83,71.76-113.54,3-1.94,6.5-3.44,9.95-5.22,5-2.69,10.44-4.18,15.69-6.25,5.39-1.66,10.9-3,16.4-4.24A13.26,13.26,0,0,1,203.9,122L192,125.91l-12.48,5.39c16.22-5.75,16.13-5.16,27.45-8.54l9.46-1.58c4.35-1,9.69-.71,15.23-1.11,5.56-.2,11.4.52,16.93.78,5.46,1,10.66,1.68,14.9,2.68l9.5,2.78c2.19.53,5.6,2.14,8.91,3.33a140.78,140.78,0,0,1,41.94,24.45C324.64,154.8,325.33,155.53,326.14,156.24Zm2.17,2c.45.42.93.83,1.36,1.25l2-2c-.47-.45-.92-.91-1.38-1.34ZM449.84,97.64l.25.1,5.1-.19-.11-.12c-.28,0-.56.06-.84.06-.47,0-.92,0-1.39,0-.78,0-1.57,0-2.34,0A2.19,2.19,0,0,0,449.84,97.64Zm-15.53,5.52c.58.09,1.13.19,1.76.25.26,0,.69,0,1.43-.09l-1.11-.09,0,0,1.48,0A10.26,10.26,0,0,0,434.31,103.16ZM402.2,72.32c.09-.58.19-1.13.25-1.77a14.09,14.09,0,0,0-.09-1.43l-.09,1.11,0,0c0-.47,0-.93,0-1.48A10.26,10.26,0,0,0,402.2,72.32ZM402,84.12a1.57,1.57,0,0,0,0,.27l.27-.27c0-.75,0-1.49,0-2.24,0-2.49-.06-5-.09-7.46,0,0,0,0-.06,0s0,.25,0,.38Q402.06,79.45,402,84.12Zm-1.07,1-.09.42.19-.19Zm-4.39-32.78c0,.46,0,.92,0,1.39,0,.78,0,1.57,0,2.34a2.18,2.18,0,0,0,.23.69l.1-.25-.19-5.11-.12.11C396.49,51.81,396.53,52.09,396.53,52.37ZM25,325.23c-1-3.22-1.68-6.34-2.47-9.2-1-4-2-7.45-2.82-10.53,1.13,5.23,2.48,10.35,3.68,15.58,1.51,6.57,4.33,12.89,6.64,19.85a78.5,78.5,0,0,0,5,11.32c2.5,4.78,5,11.17,9.8,18.39A114.94,114.94,0,0,1,37.11,356l-3.9-8.22.39.7,7.14,14.87c2.78,4.93,6,9.92,9.23,15.41-4.2-7.32-9-14.35-12.13-21.94l-5.17-10.89c-1.55-3.61-2.7-7.27-4-10.71ZM374.19,94.83l9.16,8.34c.67-.71,1.36-1.39,2-2.09l-1.33-1.21-8.93-8.22a230.83,230.83,0,0,0-57.71-35.51C296,47,272.15,41.67,246.77,40.08c-5.51-.11-11-1-16.44-.5l-16.07.71c-7.79.61-15.39,2.09-23.54,3.15-4,.8-8.11,2-12.42,3-4.27,1.19-8.91,1.89-13.47,3.77,2.27-.41,1,.31-4.89,2.64-2.94,1.22-7.16,2.6-12.52,4.89-5.2,2.63-11.85,5.54-19.61,9.7-7.51,4.8-15.56,8.79-22.48,14.45l-10.71,8L84.74,98.8C42.13,138.1,16.31,194.83,15,252.73a4.92,4.92,0,0,0,.07.88l.51-8.81c4-72.62,47.86-140.87,111.17-176.13,4.7-3,10.12-5.26,15.47-8l5.89-2.85c2-.9,4.08-1.54,6.12-2.33L166.57,51c4.09-1.58,8.45-2.31,12.66-3.51,4.26-1,8.45-2.38,12.77-3.07a48.86,48.86,0,0,1-4.83,1.66c-5.75,1.77-12.13,3.51-18.67,5.62-6.38,2.63-13.06,5.2-19.58,8C174.1,50.5,174,51.4,191.7,46.43L206.46,44l5.35-.83,5.82-.31,12.56-.6c4.33-.41,8.77.17,13.2.34l13.17.78c8.51,1.48,16.63,2.51,23.26,4l14.87,4.16c3.44.77,8.8,3.18,14,5A219.11,219.11,0,0,1,374.19,94.83Zm28.42-6.36c0-.12,0-.24,0-.35,0-.44.09-.93.14-1.4l0,.06q-.92,1.13-1.71,2.12c0,.43-.07.87-.13,1.28Zm8.4,12.88c-2,0-3.51-.4-3-.85.35-.3-.78-.92-1.78-1l-2.74,2.72a3.79,3.79,0,0,0-.09.66,9.72,9.72,0,0,1,1.77,0c1.18.06,2.4.08,3.6.11.77,0,1.64,0,2.29.08a57.77,57.77,0,0,0,6.05.45c.47,0,.95.05,1.4.09l2.17.21c-.2-.46.24-.57,1.75-.56.77,0,1.53,0,2.3,0l7.47-.09s0,0,0-.06-.25,0-.38,0l-9.35-.15c-.24,0-.49.09-.75.09-.75,0-1.51,0-2.26,0,.07-.12,0-.24.22-.35.52-.27,1.14-.53,1.76-.81-1.17-.25-1.15-.25-2,0a3.13,3.13,0,0,1-.65.08,13,13,0,0,1-3.88-.46,1.75,1.75,0,0,0-.65-.18C413.24,101.33,412.12,101.32,411,101.34Zm35.67-73.5c.09-.58.19-1.13.25-1.76a14,14,0,0,0-.09-1.43l-.09,1.11,0,0,0-1.48A10.27,10.27,0,0,0,446.69,27.84Zm-1.24,14.79a3.16,3.16,0,0,1,.08.65,14.26,14.26,0,0,1-.11,2.16l1.69-1.69s0-.08,0-.13c.06-.67.13-1.32.21-2.17-.46.2-.57-.24-.56-1.75,0-.77,0-1.53,0-2.3,0-2.49-.06-5-.09-7.47,0,0,0,0-.06,0s0,.25,0,.38q-.08,4.68-.15,9.35c0,.24.09.49.09.75,0,.75,0,1.51,0,2.26-.12-.07-.24,0-.35-.22-.27-.52-.53-1.14-.81-1.76C445.15,41.84,445.15,41.83,445.44,42.62ZM441,7.89c0,.46,0,.92,0,1.39,0,.78,0,1.57,0,2.34a2.17,2.17,0,0,0,.23.69l.1-.25-.19-5.11-.12.11C441,7.33,441,7.61,441,7.89ZM461.61,59c.47,0,.94.05,1.4.09l2.17.21c-.2-.46.24-.57,1.75-.56.77,0,1.53,0,2.3,0l7.47-.09s0,0,0-.07-.25,0-.38,0L467,58.46c-.24,0-.49.09-.75.09-.75,0-1.51,0-2.26,0,.07-.12,0-.24.22-.35.52-.27,1.14-.53,1.76-.81-1.17-.25-1.15-.25-2,0a3.24,3.24,0,0,1-.65.08,13,13,0,0,1-3.88-.46,1.73,1.73,0,0,0-.65-.18c-1.1,0-2.22,0-3.33,0-2,0-3.51-.4-3-.85.36-.31-.84-1-1.86-1a7.44,7.44,0,0,1-1.9-.24l-.34.34,0,2.22c-.28-.21-.43.31-.48,1.08a9.72,9.72,0,0,1,1.77,0c1.18.06,2.4.08,3.6.11.77,0,1.64,0,2.29.08A57.75,57.75,0,0,0,461.61,59Zm28.12,7c-2.22.07-4.48.12-6.73.12-2,0-4,.55-3.19,1a1.81,1.81,0,0,0,.48.1l3.69.4a9.93,9.93,0,0,1,1.22-.37,10.51,10.51,0,0,1,1.25,0c0,.1.14.21,0,.28-.6.24-.43.36.81.36a25.42,25.42,0,0,0,4.82-.1c.3-.06.64-.18.58-.25a12.53,12.53,0,0,0-1.26-1.32C491.16,66,490.66,66,489.72,66Zm-17.72-3a19.52,19.52,0,0,0-3.28-.16c-.91.06-2,0-2.85,0-.24.23-.46.45-.72.66s-.53.4-.82.62a23.11,23.11,0,0,0,4.47-.08,5.65,5.65,0,0,1,1.39.07,6.25,6.25,0,0,1,1.48.57,2.69,2.69,0,0,0,1.62.23c1-.07,2.39.06,2.64-.37.12-.21,1.09-.39,1.62-.59.17-.06.26-.16.18-.24a4,4,0,0,0-.62-.38C475.29,63.14,473.61,63.06,472,62.94Zm31.89,3.58a4.67,4.67,0,0,0-1-.1c-1,0-1.89.09-2.92.14l.33.27-.33-.06-5.35,1.12.19.11c.57,0,1.15,0,1.7,0a58.93,58.93,0,0,0,6.34-.22C504.75,67.5,505.43,66.88,503.89,66.52Z"/></svg>