<svg id="Layer_1" data-name="Layer 1" xmlns="http://www.w3.org/2000/svg" viewBox="0 0 512 512"><defs><style>.cls-1{fill:#707070;}</style></defs><title>credit-card-back-handdrawn</title><path class="cls-1" d="M511.9,233.62c-.06-8.35-.12-16.61-.19-25V165.94c-.08-7.05.35-14.25-.84-21.54a64.08,64.08,0,0,0-7-20.64,64.94,64.94,0,0,0-32.11-28.53,60.78,60.78,0,0,0-21.31-4.53c-7.23-.24-14.25-.07-21.38-.12H406.57c-29.31.09-37.64.07-34.41-.27,6-.64-26.72-.7-49.48-.87l-189.14-.89-39-.12c-6.6,0-13-.11-19.81,0a63.28,63.28,0,0,0-20.52,3.8C40.93,96.83,29.64,106,21.8,117.15A70.5,70.5,0,0,0,13,135.43,71.19,71.19,0,0,0,10.12,155c0,9.49,0,21.89,0,33,.05,45.37.1,88.62.15,135.62,0,6.07.14,20.71.26,24.18a72.93,72.93,0,0,0,1.28,12.42A64.91,64.91,0,0,0,23,389.32,71.66,71.66,0,0,1,18.85,382a68.45,68.45,0,0,0,11.55,16,71.15,71.15,0,0,0,14.8,11.25,66.22,66.22,0,0,0,33.66,8.07l67.1-.26,4.09.38,52.71-.06-11.68-.13c.7-.33,6.55-.62.07-.83-5.13-.16-25-.28-39.18-.3-15.22,0-21.72,0-26.1-.3-3.21-.21-23.28-.35-35.93-.52-15.5-.1-20.82-.72-22.29-1.39-1.52-.49.56-.45-.36-.85-.64-.29,1-.22,1.87-.35.93.23,3.49.22,7.7.39l17.94-.17c-8.28-.15-15.48.06-22-.36A58.91,58.91,0,0,1,53.41,408l2.15,1.14c-6.11-2-14.38-7.23-16.24-9a61,61,0,0,1-18-24A61.67,61.67,0,0,1,17,350.28c.14-5.17.29-6.24.43-4.37s.17,6.78.75,12.79a61,61,0,0,0,6.79,21,59.4,59.4,0,0,0,16.38,18.91A57.93,57.93,0,0,0,69.89,410c5,.46,10.65.38,16.27.37h84l56.25-.11L136.71,410l.06-.15,29.8-.07c19.57,0,34.09,0,46.28-.33,11.21-.27,29.62-.3,54.8-.26,30.4.06,72.28.34,93.93-.26,8.14-.23,1.32-.57,1.32-.85h85.17l-41-2.12,17-.14c-50.75-.2-25.57-1.13-67.08-1.45l40.29-.33c-13.24-.29-28.92-.5-21.24-1,6-.36-19.07-.83-27.36-1.27-3.34-.18,3.45-.39,1.62-.58a122.75,122.75,0,0,0-14.06-.65c-21.47-.1-31.54-.82-65.38-.31l-15.94,0c-55.26-.26-107.88-.16-162.78.1l-13.28.05c-2.46.05-4.1-.08-5.85-.16a38.65,38.65,0,0,1-5.28-.62A46.11,46.11,0,0,1,48,391.19,48,48,0,0,1,28.27,353.4c.06-37.25.11-74.18.17-111.32l46.22.36L98,241.82l24,0c0,.16,2.77.35-.66.47-11.44.4-8.34.6,15.53.61,31,0,64.12.33,92.62-.16,5.71-.1,12.31-.29,11.18-.42-6.81-.74-15.18-1.47-24.24-2.2-3.9-.31-13.54-.39-31.48-.34l-129.28.2-27.29.18c0-2.44,0-4.86,0-7.3h9.21l101.12-.15c4.53,0,15.44-.14,18-.26,4.93-.23,6-.49,9-.78l24-.12-7.63-.25,52.53.16,50-.26,3,.38,39.3-.06-8.71-.13c.52-.33,4.89-.62.05-.83-3.83-.16-18.65-.28-29.21-.3-11.35,0-16.19,0-19.46-.3-2.39-.21-17.36-.35-26.79-.52-23.16-.42-15.54-1-17-1.5-.51-.19.75-.37,1.37-.63l19.25-.24-31.86-.34,1.85.33H202.34l-43.68-1.16c-15.43-.56,18.18-1.25,44.24-1.32l99.94-.05,41.94-.11-66.9-.23,0-.15,22.22-.07c14.59,0,25.42,0,34.5-.33,8.36-.27,22.08-.3,40.86-.26,22.67.06,53.89.34,70-.26,6.07-.23,1-.57,1-.85h52.05c0,2.24,0,4.5,0,6.73.1,42.94.21,88.53.3,126a46,46,0,0,1-3.25,15.69,52.18,52.18,0,0,1-10.13,16.27,51.32,51.32,0,0,1-25.79,15.53,49,49,0,0,0,16.66-6.66,55.33,55.33,0,0,1-20.14,8.37c-1.46.34-1.63.48-.15.38a38,38,0,0,0,9.52-2c4.48-1.5-.46.55.54.38,1.3-.31,4.45-.72,11.56-5a53.32,53.32,0,0,0,24.19-35.45l.7-4.35.27-4.44c.17-3,.12-6.59.21-9.75l.45-17.43c.34-9.85.74-15.25,1-10.61.75,13.48,1.46-25.45,1.42-77,0-28.55,0-57.35,0-85.79a67.88,67.88,0,0,0-2.07-15.46,54.26,54.26,0,0,0-6.52-14.9A58,58,0,0,0,480,105a59.26,59.26,0,0,0-26.18-9.41c-4.52-.33-9.26-.35-13.77-.32H427.43l-16.75.13c-20.58.48-20.25.49-50.29.06l45.41-1.36a23.27,23.27,0,0,0,5.64-.58h-58.3l-19.37.16L92.6,93.43l-9.79-.06a6.27,6.27,0,0,1,1-.11l192.47-.15,59.21.07c39.08,0,50.26-.17,45.22-.93l55.84.36c5.81.06,11.78-.05,17.73.41a68.27,68.27,0,0,1,17.44,4.5,62.56,62.56,0,0,1,29.87,26.77,63.71,63.71,0,0,1,6.69,18.42c1.3,6.38,1,12.85,1,19.31-.17,25.78-.34,50.7-.5,75.46,0,16.69-.09,39.22-.13,59.08,0,15.47-.05,31-.08,46.55,0,7.81.18,15.42-1.59,22.75A60,60,0,0,1,498,386.3,62.19,62.19,0,0,1,475.75,406a59.21,59.21,0,0,1-18.29,6.13c-9.28,1.27-11.73,1.17-7.14,1.44a70.46,70.46,0,0,0,16.18-1,67.17,67.17,0,0,0,24-13.57c4.59-4,6.09-6,4.32-3.45A62.73,62.73,0,0,0,511.66,356c.37-14.33.13-28.25.23-42.31,0-28,.07-55.86.11-83.69ZM148.5,403.81l60.3,0,35.87.08,21.54-.1L269,404l-131.61.31-6.56-.16C136.63,404.05,141.68,403.82,148.5,403.81ZM16.66,143.17c-1.57,7.83-1,16.67-1.16,25.79s-.15,18.48-.23,27.84c0-14.19,0-26.2,0-38.21l0-.88c0,5.8-.06,11.6-.16,28.5,0-19.13-.43-30.23.1-36.77a60.43,60.43,0,0,1,16.72-36.69A63,63,0,0,0,16.66,143.17Zm224.62,11,41.64.36,26.83.15,116.36.76,44.05.13,28.54.07c0,1.81,0,3.6,0,5.39l-9.67-.5c-5-.29-7.26-.61-4.4-.82,10.05-.75-19-1.46-57.39-1.42l-64,0c-4.61,0-9.51-.19-12.46-.31-10.69-.43-51.56-.86-74.61-.76l-12.49.13c-15.35.48-15.1.49-37.5.06L260,156.07a13.21,13.21,0,0,0,4.21-.58H220.75l-14.44.16L28.48,155.4v-.18l134.94-.14,44.15.07C236.71,155.17,245,155,241.28,154.21ZM28.46,227.85v-.12l7.85.06Zm0-.24s0-.09,0-.14l15.75.16Zm249.89-9.15-4.89-.16c4.36-.13,8.12-.37,13.21-.38l45,0,26.74.08,16.06-.1,2,.21Zm201.13,1.66,12.7-.14c-37.84-.2-19.06-1.13-50-1.45l30-.33c-9.87-.29-21.56-.5-15.84-1,4.47-.36-14.22-.83-20.4-1.27-2.49-.18,2.58-.39,1.2-.58a68.51,68.51,0,0,0-10.49-.65c-16-.1-23.52-.82-48.75-.31l-11.88,0c-41.2-.26-80.44-.16-121.37.1l-83.51.13-98.34-.25H28.48v-6.75q0-12.08,0-24.17V168.36a1,1,0,0,1,.34.06l28,.22H87.43c20.21-.06,39.49-.24,54.17-.52l52.92-.36-1.79.19c6,.24,9.21.62,18.68.7,18.84.16,38.85.15,58.38-.19L327.6,168l-5.82-.82c60.14-.14,35.84-1,33.36-1.74l64.63.2,46.47,0,22.57-.1,5.46,0,1.57,0,.61,0,2.26-.12q0,10.94-.07,21.53c0,11.76,0,23.22-.05,34.59ZM94.1,106.45c49.51.43,113.5.26,152.89-.29l71-.36-2.4.19c8.08.24,12.35.62,25.06.7,25.27.16,52.1.15,78.3-.19l15.94-.15,9.23-.05c1.5,0,3.42-.06,4.66,0l3.86.17a49,49,0,0,1,29.29,13.61,54.31,54.31,0,0,0-4.11-4.61,48.43,48.43,0,0,1,13.07,14.94,49.72,49.72,0,0,1,4.84,11.88,73.87,73.87,0,0,1,1.83,9.66c.2.6.29-.9.41-2.75-.09-1.82-.24-4-.15-4.7l.69,4.65.15,3.21-78.08-.13,2.67.1-18.67.19h-144c-21.85.09-28.07.07-25.66-.27,4.46-.64-19.92-.7-36.89-.87l-141-.89-28.31-.1a22.53,22.53,0,0,1,.3-2.67l80.88.4c20.66.14,37.54.41,63,.26l54.85,0,13.9-1.11,15.85-1c-24.79,0-55.4-.38-85.85.13-4.58.08-21.85,0-26.65-.11-11.75-.28-21.9-.61-28.41-.95-6.23-.33-15.27-.48-31.1-.38-18.63.12-46-.1-50.76.62-.41.06-1.32.12-2.59.18l-2.73.08c3.17-18.94,19.05-35.43,38.12-38.64a43.09,43.09,0,0,1,5.81-.69l3-.17h3.85ZM24.32,391.17c-.46-.62-.88-1.22-1.31-1.85C23.45,389.93,23.85,390.55,24.32,391.17Zm62.58,37c.76.06-1.08.14-4.06.22s-6.86.23-11.93-.06c-23.55-1-48.13-15.35-60.9-38.08A76.67,76.67,0,0,1,0,352.81c0-10.63,0-21.23,0-31.65,0-32,.2-36.18.61-20.83.12,4.6.31.83.47.88,0-11,0-26,0-32.24L.47,237.62c.11-16.4.23-32.43.34-48.24q.08-11.85.17-23.56l.09-11.7.4-7.06c.26-2.34.69-4.66,1.06-7,.59-2.92,1.47-6,2.23-8.55L7,125.75c2.73-5.59,3.38-6.21,2.13-3.29a79.88,79.88,0,0,0-5.58,19.4,58.44,58.44,0,0,0-.78,7.84L2.59,154q0,1.86,0,3.81c.05,5.14.11,10.72.18,16.6,0,11.77.1,24.74.15,37.84,0,28.9,0,57.9.05,86.86q0,21.72.06,43.37l.06,11,.34,6.37,1,6.31A74.26,74.26,0,0,0,36.19,413.6,75.42,75.42,0,0,0,45,418.66a58.41,58.41,0,0,0,5.84,2.68,71.84,71.84,0,0,0,20,5.47l4.84.51,4,.3ZM55.3,88.33c-2.18.67.23-.52,5-1.76a62.91,62.91,0,0,1,13.08-2c4.94-.36,9-.24,13.28-.38,8.34-.16,15.38-.32,16.94-.5,6.45-.72,43.1-.49,68.08-.62,21.22-.1,33.34.05,41.7.38,8.73.34,22.35.67,38.1.95l35.74.11c40.83-.51,81.89-.11,115.14-.13l-21.26,1L362.47,86.5l-73.56,0c-34.11.15-56.76-.12-84.46-.26l-63.7-.27-33.25-.12-17.05-.06-8.64,0c-2.9,0-5.7-.08-9.06.14C68.68,85.58,60,87.1,55.3,88.33ZM377.48,426.52c39.62.61,22.09,1.65-27.42,2.1-52.66.49-109.07.25-163.5.36H142.63l-4.88-.18,138-1.87,8.47.1-8.46-.45,75.38-.24ZM381.55,241l6.32.1-6.31-.45,56.21-.24,19.64.17c29.54.61,16.47,1.65-20.44,2.1-39.27.49-81.33.25-121.91.36H282.3l-3.64-.18ZM91.67,299l-1.24.14c3.7.2,1.86,1.13,4.89,1.45l-2.94.33c1,.29,2.11.5,1.55,1s1.39.83,2,1.27c.24.18-.25.39-.12.58a1.25,1.25,0,0,0,1,.65c1.57.1,2.3.82,4.77.31a6.48,6.48,0,0,1,1.16,0,89.33,89.33,0,0,0,11.87-.1c2.54-.17,5.45-.16,8.17-.13,3.22,0,6.4.22,9.62.25,3.72,0,7.45,0,11.18,0a20.13,20.13,0,0,1,2.14.07,41.08,41.08,0,0,0,11.15-.29c1.2-.23,3.42-.25,5.18-.36l-.17.19a4.72,4.72,0,0,0,1.83.7,22,22,0,0,0,5.71-.19c1.36-.24,3.57-.27,5.65-.42l-.57-.82c5.88-.14,3.51-1,3.26-1.74,2.25.08,4.31.22,6.32.2a58.38,58.38,0,0,0,9.23-.44c.61-.11,2.16,0,3.14,0s1.81-.24,2.7-.36l-1.58-.46c1.88-.33,2.85-.76,1.09-1.32-.4-.13.05-.36,0-.54-.23-.48-1-1-4.71-1.12-1.92-.06-4.18-1.14-3.5-1.66,1-.75-1.86-1.46-5.61-1.42-2.08,0-4.19,0-6.26,0a3.57,3.57,0,0,1-1.22-.31,27.35,27.35,0,0,0-7.3-.76,6.66,6.66,0,0,0-1.22.13c-1.5.48-1.48.49-3.67.06,1.16-.47,2.34-.91,3.31-1.36.37-.17.29-.39.41-.58-1.42,0-2.84,0-4.25,0-.49,0-1,.16-1.41.16q-8.8-.11-17.59-.25c-.25,0-.48,0-.71-.06,0,0,0-.11.07-.11,4.68-.05,9.36-.11,14-.15,1.43,0,2.88.06,4.32.07,2.85,0,3.67-.17,3.3-.93,1.59.14,2.81.26,4.07.36.85.07,1.74.14,2.63.15,4.11.06,7.77.37,11.38.76,1.22.13,2.86.09,4.31.13,2.26.06,4.54.09,6.77.19,3.54.15,4.92-.12,4.24-.83a12.94,12.94,0,0,1-1.18-1.65c-1.7,0-2.82-.32-2.39-.84l-12.29-.21.26.1a17.83,17.83,0,0,1-1.83.19c-4.15,0-8.29,0-12.44,0-.55,0-1.12,0-1.64,0-2.14.09-2.75.07-2.51-.27.44-.64-1.95-.7-3.61-.87-4.38-.43-9.1-.64-13.8-.89-3.75-.2-7.74-.17-11.33-.5-.69-.06-1.6,0-2.4,0-3.31,0-6.46.37-9.89.15a6.08,6.08,0,0,0-1.76.26c-.48.23-.59.49-.88.78l-2.35.12.75.25c-1.91-.07-3.54-.18-5.14-.16s-3.15.16-4.89.26l-.3-.38-3.85.06.85.13c-.05.33-.48.62,0,.83a12.9,12.9,0,0,0,2.86.3c1.11,0,1.58,0,1.9.3a13.67,13.67,0,0,0,2.62.52c2.27.42,1.52,1,1.66,1.5,0,.19-.07.37-.13.63l-1.88.24,3.12.34-.18-.33a12.85,12.85,0,0,1,1.4,0c1.5.37,3.14.74,4.27,1.16,1.51.56-1.78,1.25-4.33,1.32-3.22.08-6.51,0-9.78.05-1.34,0-2.68,0-4.1.11l6.54.23s0,.1,0,.15c-.73,0-1.45.07-2.17.07a11,11,0,0,0-3.38.33,13.64,13.64,0,0,1-4,.26c-2.22-.06-5.27-.34-6.85.26-.59.23-.1.57-.1.85H88.68ZM137,291.53l.06,0-2.08-.16c1.4-.08,2.2-.19,2.69-.15,1.18.11,2.22.28,3.32.43a21.68,21.68,0,0,1-6.78-.12Zm-25.69,9.14.48.16a4.49,4.49,0,0,1-1.29.38c-1.44,0-2.93,0-4.4,0-.88,0-1.74-.07-2.62-.08-.52,0-1,.06-1.57.1l-.2-.21Zm15.35-23.81c-.34.12-.06.31-.06.47a21.87,21.87,0,0,0,2.35,0,20.51,20.51,0,0,0,2.29-.62l6.94.67a3.68,3.68,0,0,1,.9.17c1.5.73-2.17,1.66-6,1.66-4.22,0-8.46.08-12.65.2-1.76,0-2.7,0-3.08-.34a22.24,22.24,0,0,1-2.37-2.2c-.11-.12.54-.32,1.09-.42,2.79-.49,6-.17,9.06-.16C127.51,276.27,127.82,276.46,126.7,276.86Zm17.52,7.1a7.81,7.81,0,0,1-1.16-.64c-.15-.12,0-.29.34-.39,1-.34,2.81-.64,3-1,.47-.72,3.14-.49,5-.62a5.61,5.61,0,0,1,3,.38,12.72,12.72,0,0,0,2.78.95,12,12,0,0,0,2.61.11c3-.51,6-.11,8.4-.13-.56.38-1.1.71-1.55,1s-.9.73-1.36,1.11c-1.61,0-3.65-.15-5.37,0a41.12,41.12,0,0,1-6.16-.26C150.77,284.27,147.62,284.14,144.21,284Zm-43-5.88-.62-.1.62.45c-1.95.09-3.71.19-5.5.24a9.87,9.87,0,0,1-1.92-.17c-2.89-.61-1.61-1.65,2-2.1,3.84-.49,8-.25,11.93-.36,1,0,2.13,0,3.2,0l.36.18Zm119.14,62.53c6.39.06,12.09.37,17.71.76,1.89.13,4.45.09,6.7.13,3.51.06,7.07.09,10.53.19,5.51.15,7.65-.12,6.6-.83a15,15,0,0,1-1.83-1.65c-2.65,0-4.39-.32-3.71-.84l-19.12-.21.41.1c-.95.07-1.88.18-2.84.19q-9.67,0-19.35,0c-.85,0-1.74,0-2.55,0-3.33.09-4.27.07-3.9-.27.68-.64-3-.7-5.61-.87-6.81-.43-14.15-.64-21.46-.89-5.83-.2-12-.17-17.62-.5-1.08-.06-2.48,0-3.74,0-5.15,0-10.06.37-15.39.15a14.39,14.39,0,0,0-2.74.26,4.32,4.32,0,0,0-1.37.78l-3.66.12,1.16.25c-3-.07-5.51-.18-8-.16s-4.89.16-7.61.26l-.46-.38-6,.06,1.32.13c-.08.33-.74.62,0,.83a30.8,30.8,0,0,0,4.45.3c1.73,0,2.46,0,3,.3a31.84,31.84,0,0,0,4.08.52c3.52.42,2.37,1,2.59,1.5.08.19-.11.37-.21.63l-2.93.24,4.85.34-.28-.33c.75,0,1.87,0,2.17,0,2.34.37,4.89.74,6.65,1.16,2.35.56-2.77,1.25-6.73,1.32-5,.08-10.13,0-15.21.05-2.09,0-4.17,0-6.38.11l10.18.23s0,.1,0,.15c-1.13,0-2.26.07-3.38.07a26.16,26.16,0,0,0-5.25.33,32.74,32.74,0,0,1-6.22.26c-3.45-.06-8.2-.34-10.66.26-.92.23-.15.57-.15.85H88.68l4.65,2.12-1.93.14c5.76.2,2.9,1.13,7.61,1.45l-4.57.33c1.5.29,3.28.5,2.41,1-.68.36,2.16.83,3.1,1.27.38.18-.39.39-.18.58a2.17,2.17,0,0,0,1.6.65c2.44.1,3.58.82,7.42.31a15.66,15.66,0,0,1,1.81,0c6.27.26,12.24.16,18.47-.1,4-.17,8.48-.16,12.71-.13,5,0,10,.22,15,.25,5.78,0,11.59,0,17.39,0,1.12,0,2.42,0,3.32.07A99.06,99.06,0,0,0,194.8,354c1.87-.23,5.32-.25,8.05-.36l-.27.19a10.07,10.07,0,0,0,2.84.7,53,53,0,0,0,8.88-.19c2.11-.24,5.55-.27,8.79-.42l-.89-.82c9.15-.14,5.45-1,5.08-1.74,3.5.08,6.7.22,9.83.2a140.85,140.85,0,0,0,14.36-.44c1-.11,3.36,0,4.89,0s2.81-.24,4.2-.36l-2.46-.46c2.92-.33,4.43-.76,1.7-1.32-.62-.13.08-.36-.05-.54-.35-.48-1.58-1-7.32-1.12-3-.06-6.5-1.14-5.44-1.66,1.53-.75-2.89-1.46-8.73-1.42-3.24,0-6.51,0-9.74,0a8.14,8.14,0,0,1-1.9-.31,65.31,65.31,0,0,0-11.35-.76,15.92,15.92,0,0,0-1.9.13c-2.34.48-2.3.49-5.71.06,1.81-.47,3.63-.91,5.15-1.36.58-.17.45-.39.64-.58-2.21,0-4.42,0-6.62,0-.76,0-1.49.16-2.2.16q-13.69-.11-27.36-.25c-.38,0-.75,0-1.11-.06,0,0,.06-.11.11-.11q10.92-.08,21.84-.15c2.23,0,4.47.06,6.72.07,4.43,0,5.7-.17,5.13-.93,2.47.14,4.37.26,6.34.36C217.62,340.53,219,340.6,220.39,340.61Zm-97.72,10.17c-2.24,0-4.56,0-6.84,0-1.36,0-2.71-.07-4.07-.08-.81,0-1.63.06-2.44.1l-.31-.21,14.93-.31.74.16A10.09,10.09,0,0,1,122.67,350.78Zm36.9-9.72,4.34,0,.1,0-3.23-.16c2.17-.08,3.42-.19,4.18-.15,1.84.11,3.46.28,5.16.43A52.28,52.28,0,0,1,159.57,341.06Zm-11.85-14.16c1.25,0,2.95.06,3.66,0,1.54-.18,2.57-.44,3.56-.62l10.79.67a8.59,8.59,0,0,1,1.41.17c2.33.73-3.37,1.66-9.32,1.66-6.56,0-13.17.08-19.67.2-2.73,0-4.2,0-4.79-.34a33.37,33.37,0,0,1-3.69-2.2c-.17-.12.83-.32,1.7-.42,4.34-.49,9.37-.17,14.09-.16,3.63,0,4.1.2,2.36.61C147.3,326.56,147.72,326.75,147.72,326.91Zm51.65,5.43c4.63-.51,9.29-.11,13.06-.13-.88.38-1.71.71-2.41,1s-1.4.73-2.12,1.11c-2.51,0-5.68-.15-8.35,0-3.87.15-6.44-.12-9.58-.26-4.7-.21-9.6-.34-14.91-.52a15.19,15.19,0,0,1-1.8-.64c-.23-.12,0-.29.54-.39,1.54-.34,4.37-.64,4.73-1,.73-.72,4.89-.49,7.72-.62a13.18,13.18,0,0,1,4.73.38,27.88,27.88,0,0,0,4.32.95A29,29,0,0,0,199.36,332.33Zm-91.13-4.68-1-.1,1,.45c-3,.09-5.77.19-8.55.24a23.67,23.67,0,0,1-3-.17c-4.49-.61-2.51-1.65,3.11-2.1,6-.49,12.38-.25,18.55-.36,1.63,0,3.32,0,5,0l.55.18Z"/></svg>