<svg id="Layer_1" data-name="Layer 1" xmlns="http://www.w3.org/2000/svg" viewBox="0 0 512 512"><defs><style>.cls-1{fill:#707070;}</style></defs><title>coins-1-handdrawn</title><path class="cls-1" d="M512,246.12a87,87,0,0,0-.94-12.48c-.61-4.15-1-8.45-2-13.06-1.16-4.54-2.57-10.42-4.14-15.79l-4.66-12.85c-9.22-24.5-28.38-51.45-52.32-69.76a164.08,164.08,0,0,0-53.24-28c1.19,0,7.23,1.83,6.34,1.16-.93-.31-8.44-5.25-36.61-9.41l5.56,0c-19.95-3.32-41.65-2.66-54.63-.21C297,88.43,278.56,94.34,262.83,103c-3.38,1.89-5.69,3.34-7.64,4.65a162.27,162.27,0,0,0-31.34-13.54c1.19,0,7.23,1.83,6.34,1.16-.93-.31-8.44-5.25-36.61-9.41l5.56,0c-19.95-3.32-41.65-2.66-54.63-.21C126.16,88.43,107.69,94.34,92,103c-7.88,4.4-10.14,6.53-14.92,9.64l1.55-.73c-14.43,9.1-30.13,23.94-37.71,32.83-9,10.56-19.83,25.62-27.43,43.39a170.35,170.35,0,0,0-13,55.18C.22,249-.35,257.12.3,264.08c.1,9.07,1.78,18,3.18,27l3.37,13.18c1,4.44,2.93,8.58,4.37,12.88A170.57,170.57,0,0,0,38,364.05c19.8,24.14,45.64,43.09,75.13,53.56,24.78,9.22,53.47,12.56,78,9.78a172.25,172.25,0,0,0,67.13-21.68A159.46,159.46,0,0,0,284,417.61c24.78,9.22,53.47,12.56,78,9.78a170.59,170.59,0,0,0,102.36-48.46c2.46-2.35,6.25-6.78,7.72-8.24A95.86,95.86,0,0,0,481.83,359c2.53-3.46,4.82-6.28,6.39-9.25,3.27-5.84,6.41-10.49,9.45-17.47a60.38,60.38,0,0,0,3.72-9.23c.39-1.24-1.87,3-1,.8,1.94-5.53,7.24-22.26,5.45-18.4-1.83,5,.81-5.59,2.76-14.56l-3.44,12.77c-1.1,4.29-3.08,8.57-5,13.84,5-13.49,4.9-16.47,5.61-20,.31-1.79.67-3.76,1.47-7.4l2.42-17.74c-.78,5.65-1.9,11.8-1.83,11.55.25-4.77,1-9.25.77-13.85s-.23-9.17-.35-14.1c-.16,24.17-4.56,40.6-10.14,56.5-.26-.1,1-4.53-1.1.55a111.69,111.69,0,0,1-5.33,12,129.67,129.67,0,0,1-7.65,14.31l-4.49,7.41c-1.59,2.43-3.42,4.7-5.1,7s-3.36,4.61-5.08,6.77L464,366.46c-5.45,6.52-11.31,11-15.77,15.25-4.83,3.81-9,6.63-12,8.8A223.25,223.25,0,0,1,409,405.35c-2.94,1.56-6.2,2.4-9.29,3.62-3.16,1.06-6.23,2.41-9.46,3.23l-.08-.13a163,163,0,0,0,42.53-20.24c-1.8,1.11-3.62,2.18-5.39,3.3A131.58,131.58,0,0,1,411,403.8a76.51,76.51,0,0,1-10.36,4.28c-3.54,1.21-7,2.74-10.61,3.69-7.26,1.85-14.47,4-21.93,4.8-7.37,1.44-14.86,1.56-22.29,1.94-3.72.29-7.43-.24-11.13-.33-3.69-.28-7.42-.17-11-.9-23.49-2.35-51-15.38-37.89-10.77a133.69,133.69,0,0,0,17.42,4.93c3.28.65,6.58,1.72,10,2.07l10.24,1.29c1.71.43,8.23.82,12.55,1l-1.65.24c9.56.62,17.2,0,28.07-1.12-10.05.91-15.68.73-16.94.89-.55-.23-1.66-.36-1.21-.56,1.25-.57-5.34-.8,14.76-2.23l13.74-2.3a66.14,66.14,0,0,0,9-2.35c2.64-1.09,6.86-1.61,16-5.25l6.87-2.57,6.71-3.31c4.28-2.08,7.87-3.9,9.18-5,3.46-2.34.09-.63-.44-.68l6.33-4-8.6,5.21L410,396.59c-2.46,1.13-4.71,2.38-7,3.25l-6.82,2.48-2.34,1.25a151.88,151.88,0,0,1-42.1,7.82,149.16,149.16,0,0,1-38.93-2.75c-3.72-.75-7.11-1.81-10.27-2.57a62.43,62.43,0,0,1-9-2.76c-2.34-1.15-3.1-1.71-7-3.36-1.75-.47-7.46-3.42-11.44-5.39,2.13-1.59,4.27-3.16,6.34-4.85A135.18,135.18,0,0,0,311.09,400c7.1,1.63,12.73,2.09,16.84,2.8,4.18.21,6.94.2,8.53.15,7.38,0,14.1-1.59,19.48-2.45.89-.16-4.4-.11-9,0-20.07.56-42.8-4.07-63-13,3.23-2.75,6.41-5.59,9.45-8.6,2.46-2.35,6.25-6.78,7.72-8.24A95.86,95.86,0,0,0,311,359c2.53-3.46,4.82-6.28,6.39-9.25,3.27-5.84,6.41-10.49,9.45-17.47a60.38,60.38,0,0,0,3.72-9.23c.39-1.24-1.87,3-1,.8,1.94-5.53,7.24-22.26,5.45-18.4-1.83,5,.81-5.59,2.76-14.56l-3.44,12.77c-1.1,4.29-3.08,8.57-5,13.84,5-13.49,4.9-16.47,5.61-20,.31-1.79.67-3.76,1.47-7.4l2.42-17.74c-.78,5.65-1.9,11.8-1.83,11.55.25-4.77,1-9.25.77-13.85s-.23-9.17-.35-14.1c-.16,24.17-4.56,40.6-10.14,56.5-.26-.1,1-4.53-1.1.55a111.69,111.69,0,0,1-5.33,12,129.67,129.67,0,0,1-7.65,14.31l-4.49,7.41c-1.59,2.43-3.42,4.7-5.1,7s-3.36,4.61-5.08,6.77l-5.35,5.94c-5.45,6.52-11.31,11-15.77,15.25-4.83,3.81-9,6.63-12,8.8a223.25,223.25,0,0,1-27.24,14.84c-2.94,1.56-6.2,2.4-9.29,3.62-3.16,1.06-6.23,2.41-9.46,3.23l-.08-.13a163,163,0,0,0,42.53-20.24c-1.8,1.11-3.62,2.18-5.39,3.3a131.58,131.58,0,0,1-16.36,8.67,76.51,76.51,0,0,1-10.36,4.28c-3.54,1.21-7,2.74-10.61,3.69-7.26,1.85-14.47,4-21.93,4.8-7.37,1.44-14.86,1.56-22.29,1.94-3.72.29-7.43-.24-11.13-.33-3.69-.28-7.42-.17-11-.9-23.49-2.35-51-15.38-37.89-10.77a133.69,133.69,0,0,0,17.42,4.93c3.28.65,6.58,1.72,10,2.07l10.24,1.29c1.71.43,8.23.82,12.55,1l-1.65.24c9.56.62,17.2,0,28.07-1.12-10.05.91-15.68.73-16.94.89-.55-.23-1.66-.36-1.21-.56,1.25-.57-5.34-.8,14.76-2.23l13.74-2.3a66.14,66.14,0,0,0,9-2.35c2.64-1.09,6.86-1.61,16-5.25l6.87-2.57,6.71-3.31c4.28-2.08,7.87-3.9,9.18-5,3.46-2.34.09-.63-.44-.68l6.33-4-8.6,5.21-7.81,3.77c-2.46,1.13-4.71,2.38-7,3.25l-6.82,2.48-2.34,1.25a151.88,151.88,0,0,1-42.1,7.82,149.16,149.16,0,0,1-38.93-2.75c-3.72-.75-7.11-1.81-10.27-2.57a62.43,62.43,0,0,1-9-2.76c-2.34-1.15-3.1-1.71-7-3.36-2.15-.58-10.38-5-13.88-6.56-13.14-7-25.26-15-35.32-25.05A151.38,151.38,0,0,1,40,335.09c-4-5.84-6.86-13.2-9.66-18.53a161.23,161.23,0,0,1-12-47.11c-1.69-16.65,0-33.66,3.52-49.59a154.61,154.61,0,0,1,25.23-55.41A158.39,158.39,0,0,1,90,123.86c3.14-1.85,6.44-4.23,10-6l10-5c6-2.73,10.08-4.11,8.12-3.82-1,.2-.3-.16,2.93-1.38,3.16-1.44,9.05-2.91,18.23-5.18,4.5-1,9.54-1.55,14.32-2.36,36.36-4.2,74.39,4,104.94,24.47,4.59,2.92,8.62,6.46,12.94,9.65l-1.9-1.31a157.94,157.94,0,0,1,56.46,90.2c-.39-3.86,2.38,5.72,3.7,20.82.78,3.67,1.42,6,2.15,10.44.5,3,.67,1.47.48-4.86a134.67,134.67,0,0,0-4.66-33,160,160,0,0,0-25.92-54.78c-7.36-10.84-18.17-21.14-26.44-28.29a171.81,171.81,0,0,0-42.42-25.09,160.53,160.53,0,0,0-51.27-11.2c-8-.72-15.91,0-23.49.42-5.62.52-11.09,1.69-16.95,2.56-5.72,1.52-11.89,2.85-18.56,5.19,1.43-.92.42-.8-4,.65-2.17.77-5.26,1.7-9.18,3.32-3.8,1.87-8.64,4-14.27,7-5.45,3.5-11.29,6.43-16.29,10.56l-7.75,5.82L64,139.28C33,167.77,14.12,208.94,13.08,251a2.89,2.89,0,0,1-.14.63l.26-6.42C15.94,192.34,47.79,142.42,94,116.54c3.43-2.21,7.51-3.61,11.42-5.61,5.61-3,11.82-4.71,17.76-7,6.09-1.88,12.32-3.43,18.54-4.82-1.13,0-.46-.47-3.74.22-4.31.91-9.11,1.81-14.06,3-4.84,1.56-9.94,3.1-15,4.82,18.49-7.55,18.56-6.92,31.91-9.78l11-1.55c5-1,11.22-.8,17.64-1.32,6.44-.3,13.21.39,19.63.54,6.36,1,12.44,1.58,17.43,2.54l11.27,2.58c2.63.38,6.76,1.88,10.66,3.26a162.31,162.31,0,0,1,49.32,28.7c26.32,22.56,38.13,46.76,34.44,38.22-1.41-2.81.81.08,4.57,5.63,1.86,2.79,3.6,6.51,5.67,10.39,1,2,2.11,3.94,3,6.06l2.41,6.38a169,169,0,0,1,8.79,32.9l1.92,9.72c.22.79.22-3.5.55.26.71,8.23,1,10.09,1.13,7.64a97.7,97.7,0,0,0-1.11-18.06l1.38,7.72.59,7.18a87,87,0,0,0-.94-12.48c-.61-4.15-1-8.45-2-13.06-1.16-4.54-2.57-10.42-4.14-15.79l-4.66-12.85c-9.22-24.5-28.38-51.45-52.32-69.76-.35-.27-.74-.51-1.09-.79a149.79,149.79,0,0,1,32.85-12.18c-4.68.94-9.3,1.4-13,2.54l-11.34,3c-3.4,1.45-7,3.23-10.61,5.14-.94-.71-1.92-1.39-2.89-2.08l9.78-4.86c6-2.73,10.08-4.11,8.12-3.82-1,.2-.3-.16,2.93-1.38,3.16-1.44,9.05-2.91,18.23-5.18,4.5-1,9.54-1.55,14.32-2.36,36.36-4.2,74.39,4,104.94,24.47,4.59,2.92,8.62,6.46,12.94,9.65l-1.9-1.31a157.94,157.94,0,0,1,56.46,90.2c-.39-3.86,2.38,5.72,3.7,20.82.78,3.67,1.42,6,2.15,10.44.5,3,.67,1.47.48-4.86a134.67,134.67,0,0,0-4.66-33,160,160,0,0,0-25.92-54.78c-7.36-10.84-18.17-21.14-26.44-28.29a171.81,171.81,0,0,0-42.42-25.09,160.53,160.53,0,0,0-51.27-11.2c-8-.72-15.91,0-23.49.42-5.62.52-11.09,1.69-16.95,2.56-5.72,1.52-11.89,2.85-18.56,5.19,1.43-.92.42-.8-4,.65-2.17.77-5.26,1.7-9.18,3.32-3.39,1.67-7.65,3.56-12.53,6.1l-.39-.28c2.84-1.47,5.87-2.74,8.87-4.28,5.61-3,11.82-4.71,17.76-7,6.09-1.88,12.32-3.43,18.54-4.82-1.13,0-.46-.47-3.74.22-4.31.91-9.11,1.81-14.06,3-4.84,1.56-9.94,3.1-15,4.82,18.49-7.55,18.56-6.92,31.91-9.78l11-1.55c5-1,11.22-.8,17.64-1.32,6.44-.3,13.21.39,19.63.54,6.36,1,12.44,1.58,17.43,2.54l11.27,2.58c2.63.38,6.76,1.88,10.66,3.26a162.31,162.31,0,0,1,49.32,28.7c26.32,22.56,38.13,46.76,34.44,38.22-1.41-2.81.81.08,4.57,5.63,1.86,2.79,3.6,6.51,5.67,10.39,1,2,2.11,3.94,3,6.06l2.41,6.38a169,169,0,0,1,8.79,32.9l1.92,9.72c.22.79.22-3.5.55.26.71,8.23,1,10.09,1.13,7.64A97.7,97.7,0,0,0,510,231.21l1.38,7.72ZM392.22,417.35c29-9,55.92-25.36,76.22-48.09l-1.13,1.55c-1.72,1.8-3.33,3.73-5.16,5.42l-5.54,5c-6,5.83-12.78,10.51-19.49,15.46-6,3.5-11.77,7.7-18.23,10.49l-9.45,4.55-9.73,3.59c-2.23.81-4.19,1.45-6.07,2.06l-5.77,1.26Zm-94.65-48.09-1.13,1.55c-1.72,1.8-3.33,3.73-5.16,5.42l-5.54,5c-1.69,1.66-3.47,3.2-5.28,4.71l-.23-.1A157,157,0,0,0,297.57,369.26ZM278,387.6l-.29.32.2.09c-3.58,2.81-7.27,5.48-11,8.19-.91.5-1.88.92-2.85,1.36A166.23,166.23,0,0,0,278,387.6Zm-56.61,29.74a177.06,177.06,0,0,0,33-14l.51.31a63.6,63.6,0,0,1-6.82,3.55l-9.45,4.55-9.73,3.59c-2.23.81-4.19,1.45-6.07,2.06L217,418.64Zm27.57-25.56ZM19.47,300.68c1.22,4.74,3.38,9.28,5.14,14.28a69.83,69.83,0,0,0,3.58,8.22c1.76,3.49,3.5,8.16,6.92,13.43A83.78,83.78,0,0,1,29.33,326l-2.92-5.94.21.54,5.22,10.8c2,3.58,4.35,7.2,6.74,11.18-3.2-5.22-6.77-10.28-9.18-15.77L25.53,319c-1.15-2.62-2-5.28-3-7.79l-2.65-7.26c-.69-2.36-1.2-4.63-1.74-6.73-1-4.23-2.07-7.79-2.39-10.65C16.75,291.37,18.25,295.95,19.47,300.68Zm435.28,50.63a31,31,0,0,0,2.91-4.2,31.35,31.35,0,0,1-3.18,4c-9.09,10.47-20.08,19-31.55,26.56-11.64,7.38-24.42,12.58-37.45,16.58a21.19,21.19,0,0,0,2.69-1.08c4.06-1.55,8.22-2.92,12.24-4.59l11.68-5.61c28.52-15.4,51.73-41.67,64.43-70.27,5.75-13.56,8.05-23.32,9.35-26.47s.82.09-1.89,11.73c-.89,3.73-3.5,10.3-5.13,15A155.92,155.92,0,0,1,454.75,351.31ZM272.22,384.44c-3.34,2.62-6.84,5-10.37,7.4.88-.55,1.77-1.08,2.62-1.68ZM34.93,307.23c-3.38-9.41-3.52-14-1.79-8.08l2.7,6.91a145.18,145.18,0,0,0,29.9,47.81c3.18,4.11,7.11,7.86,13,13.46,1.28,1.39,4,3.11,6.76,5.28a79.17,79.17,0,0,0,8.79,6.1c.06-.15,2.08.86-.2-.66-7.37-5.42-5.47-3.72,11,5.79,22,11.43,48.27,17.33,71.05,16.69,4.55-.15,9.84-.2,9,0-5.38.87-12.1,2.44-19.48,2.45-1.59.06-4.35.07-8.53-.15-4.11-.71-9.74-1.17-16.84-2.8-34.08-7.31-65.27-28.2-86.07-56.3C44.61,331,37.8,316.78,34.93,307.23Zm-12.8-57.69a107.93,107.93,0,0,0-.35,15.33c0,2.72-.06,4.22-.24,3L20.4,258c.11-14.57,1.23-28.75,5.11-41.88,1.34-6.72,4.23-12.86,6.29-19.18l4.21-9,2.09-4.45c.78-1.43,1.66-2.81,2.48-4.21,8.68-15,17.36-26.7,33.74-40.56a173.15,173.15,0,0,1,39.3-24l11.34-3c3.71-1.13,8.32-1.59,13-2.54-20.05,4.61-43.64,15.51-63.17,31.71l-8.17,7.4c-3.23,3.23-6.15,6.79-7.49,8.26-3.35,3.57-5.71,7.5-8,10.75L48,171.91l-2.17,4c-1.2,2.29-2.73,5-4.83,8.6l-6.72,14.26-4.32,11.68c-1.28,4.13-2.22,8.42-3.3,12.29-1.87,7.82-2.54,14.44-3.34,16.34C22.8,240,22.6,244.39,22.13,249.54ZM283.88,351.31a31,31,0,0,0,2.91-4.2,31.35,31.35,0,0,1-3.18,4c-9.09,10.47-20.08,19-31.55,26.56-11.64,7.38-24.42,12.58-37.45,16.58a21.19,21.19,0,0,0,2.69-1.08c4.06-1.55,8.22-2.92,12.24-4.59l11.68-5.61c28.52-15.4,51.73-41.67,64.43-70.27,5.75-13.56,8.05-23.32,9.35-26.47s.82.09-1.89,11.73c-.89,3.73-3.5,10.3-5.13,15A155.92,155.92,0,0,1,283.88,351.31ZM202.7,306.2a29.87,29.87,0,0,0,11.67-15.64,18.43,18.43,0,0,0,.78-3.92v-.46l0-.17,0-.29c0-.33.07-.7.1-1.09l.07-.85a30.89,30.89,0,0,0,.24-3.37l.64-8.61-1,3a29,29,0,0,0-1.5-6.44,27.75,27.75,0,0,0-11.44-14.44A39.7,39.7,0,0,0,185.1,248l-5.72-.64c-10.89-1-18.6-2.71-24.22-5.34s-7.09-5.11-5.94-9.27A22.19,22.19,0,0,1,158,221.28a27.81,27.81,0,0,1,10.4-4.19,34.83,34.83,0,0,1,11.67-.21,8.07,8.07,0,0,1,1.93.42c4.3,1.62,5.53,2.11,8,3.87a10.5,10.5,0,0,0,2,1.19l.67.26.2,0,1,.88a4.72,4.72,0,0,0,1.84,1.23c.29.32.81.91,1.37,1.63l.35.46.61-.42a32.78,32.78,0,0,1,1.87,3l.29.51.51-.26a32.68,32.68,0,0,1,1.75,2.77l.28.49,2.68-1.26-.2-.52a36.17,36.17,0,0,0-6.85-11.35,2.67,2.67,0,0,0-.65-1.31c-2.5-3.43-9.15-7.42-14.24-8.53-1.15-.26-2.31-.46-3.51-.63,0-1.64.11-3.36.19-5l0-.86a37.2,37.2,0,0,1,5.8,1.37l0,.17.55.18A35.76,35.76,0,0,1,200,213.05a51.05,51.05,0,0,1,3.78,3.83l1.47,1.71.46.54c1.27,1.5,1.9,2.24,3.08,1.54.77-.47.94-1.26.48-2.4-.3-.64-2-4-6.65-8.47a38,38,0,0,0-16.37-9.11,37.64,37.64,0,0,0-5.9-1,30.49,30.49,0,0,0-1.23-10c.51-.88-.22-1.69-1.11-2.69l-.29-.32v-.15l-.48-.38-.89-1.06-2.11-4.9-.17,2.47-4.66-5.11,4.45,8.16-.05.75c0,.63-.34,3.56-.6,5.79H173v.16l-2.72-10.21-.06,11.41c0,1.67-.07,3.28-.14,5a2.59,2.59,0,0,0-.48-1.65,11.48,11.48,0,0,0-.83-.93l.15-.86.57.78.23-4.95c0-.54,0-1,.06-1.57a5.45,5.45,0,0,0-.1-1.1c-.3-1.46-1.24-1.84-1.79-1.84a1.42,1.42,0,0,0-1.16.46l-1.16-1.62.45,3c-.08.32-.12.63-.15.88a27.76,27.76,0,0,0-.13,3.36c0,.49,0,1,0,1.49,0,.29,0,.6,0,.88v.41l.42,1.05a2.92,2.92,0,0,0-.25.71,14.18,14.18,0,0,0-.1,2.88v.15a41.91,41.91,0,0,0-7.5,2l-1.5.69,1.13,2.78.55-.2a39.61,39.61,0,0,1,7.52-1.86l.21,2.31c-1.76.33-3.24.73-4.46,1.08l-.84.49a34.81,34.81,0,0,0-11.56,6.2,33.19,33.19,0,0,0-7.48,8.5l-.08,0-.3.48a30.31,30.31,0,0,0-2.79,5.7l-.27.51a10.6,10.6,0,0,0-.82,1.81A16.3,16.3,0,0,0,137,236,18.07,18.07,0,0,0,144,249.26a37.89,37.89,0,0,0,12,6.11,56.35,56.35,0,0,0,6.1,1.62,95,95,0,0,0,13.06,1.94v.24c-.09,1.45,1.35,1.69,2.31,1.84,2.77.38,6.42,1.12,6.71,1.21a14.91,14.91,0,0,0,2.13.69c2.12.62,5.67,1.65,7.71,3.1a19.71,19.71,0,0,1,3.75,3l.67.63a12.08,12.08,0,0,1,2.66,4.17,18.11,18.11,0,0,1,.85,4.7,25.39,25.39,0,0,1-.35,4.44l-.05.26c-.05.27-.11.57-.2,1.16l-.22,1a13.68,13.68,0,0,1-.59,1.88,16.73,16.73,0,0,1-4.2,6.17l-.42.4,1.94,2.26.41-.31-.37.34a20.77,20.77,0,0,1-3,2.19,33.38,33.38,0,0,1-13.74,4.45,50.89,50.89,0,0,1-14.83-.18c-1.09-.18-2.09-.37-3.05-.63l0-.1-.6-.14a39.59,39.59,0,0,1-23.18-16.34l-6.14-8.77.33.94a1.53,1.53,0,0,0-1-.39l-1,0-.42.83c-.56,1.1.64,3.81,2.19,6.5a9.85,9.85,0,0,0-1.33-1.7l-.38-.33c-.77-1.41-1.6-2.77-3-2-.9.48-1.06,1.15-.54,2.62l-.39.2.25.54a48.78,48.78,0,0,0,3.76,6.82,55.58,55.58,0,0,0,5.67,7c5.48,6.26,14.32,11.46,23.08,13.57a59.77,59.77,0,0,0,6.17,1l-.33.71a2.4,2.4,0,0,0-.21.89l-.29,3,.17.58a3.18,3.18,0,0,0-.32,1.67c0,.21,0,.42,0,.63v.32a14.14,14.14,0,0,0,.11,2.91,2.48,2.48,0,0,0,.2.61l-.22.44-.16,1.08c0,.3,0,.6,0,.91,0,.48,0,1,0,1.61a26.08,26.08,0,0,0,.14,3.25,5.79,5.79,0,0,0,.22,1.12l-.33,2.66,1-1.48a1.71,1.71,0,0,0,1.1.42c.53,0,1.47-.24,1.81-1.87a6.14,6.14,0,0,0,.09-1.08c0-.51,0-1-.06-1.54l-.38-4.8-.45.63-.17-.83a10.49,10.49,0,0,0,.85-.94,3,3,0,0,0,.48-2c.07,1.78.15,3.49.15,5.27l0,11.45L173,327.5v.16h.2c.25,2.22.55,5.19.6,5.79l.06.8-4.62,8.44,4.83-5.39.17,2.41,2-4.63.72-1,1.08-1.2c.92-1,1.67-1.87,1.08-2.76,1.47-4.45,1.34-9.53,1.05-14.89,0-.51-.05-1-.08-1.54l6.2-1A42.17,42.17,0,0,0,202.7,306.2ZM169,312.36c.3,0,.59.07.89.1,0,.74,0,1.36,0,2.07A3.49,3.49,0,0,0,169,312.36Zm-32.23-80.59a17.86,17.86,0,0,0,.89,9.94,19.61,19.61,0,0,0,6,7.9,35,35,0,0,0,7.82,4.56,104.62,104.62,0,0,0,14,4.37c2.54.63,3.5.87,3.3,2.32s-1.56,1.36-2,1.36h-.45l-2.58-.36c-6.32-1.23-12.52-2.63-19.11-6.38a33.1,33.1,0,0,1-6.05-5.1,29.93,29.93,0,0,1-3.16-4.26,2.06,2.06,0,0,1-1.08-1l-.2-.38A19.53,19.53,0,0,1,132,237c-.51-6.52,1.62-11.68,3.78-15.86a36.78,36.78,0,0,1,8.95-10.92c2-1.77,3.36-2.48,4.2-2.21l.82.27.35,1.73-.68.61a46.1,46.1,0,0,0-4.3,5.23,12.25,12.25,0,0,1-.87,1.14,39.62,39.62,0,0,0-4.26,6.14A28.34,28.34,0,0,0,136.77,231.77Z"/></svg>