<svg id="Layer_1" data-name="Layer 1" xmlns="http://www.w3.org/2000/svg" viewBox="0 0 512 512"><defs><style>.cls-1{fill:#707070;}</style></defs><title>coins-2-handdrawn</title><path class="cls-1" d="M279.35,406.64c-3.43,2.69-7,5.17-10.65,7.59.9-.56,1.82-1.1,2.69-1.72Zm-98.61,16.5c-23.38.65-50.38-5.4-72.91-17.13-16.88-9.76-18.83-11.5-11.26-5.94,2.34,1.56.27.53.21.68a81.28,81.28,0,0,1-9-6.26c-2.86-2.22-5.62-4-6.94-5.41-6.05-5.74-10.09-9.59-13.35-13.81A149,149,0,0,1,36.78,326.2L34,319.11c-1.77-6.06-1.63-1.37,1.84,8.29,2.94,9.81,9.93,24.36,19.71,37.41,21.35,28.84,53.35,50.27,88.32,57.77,7.29,1.68,13.07,2.14,17.29,2.88,4.29.22,7.12.21,8.75.15,7.58,0,14.47-1.63,20-2.52C190.83,422.93,185.4,423,180.73,423.14ZM42,201.52c2.15-3.65,3.73-6.48,5-8.83l2.22-4.15,3.22-4.7c2.38-3.33,4.81-7.37,8.24-11,1.38-1.51,4.38-5.16,7.69-8.47l8.38-7.59c20-16.62,44.25-27.81,64.82-32.54-4.8,1-9.54,1.44-13.34,2.6l-11.64,3.07a177.68,177.68,0,0,0-40.33,24.62c-16.81,14.23-25.71,26.25-34.62,41.63-.84,1.44-1.74,2.85-2.55,4.32L37,205l-4.32,9.2c-2.11,6.48-5.08,12.78-6.45,19.68-4,13.47-5.13,28-5.24,43L22.1,287c.18,1.29.28-.25.25-3a110.76,110.76,0,0,1,.36-15.73c.48-5.28.68-9.74,1.19-10.68.82-1.95,1.51-8.75,3.43-16.77,1.11-4,2.08-8.37,3.39-12.61l4.44-12Zm281.2,104.31c-1.33,3.24-3.69,13.25-9.59,27.16-13,29.34-36.85,56.31-66.12,72.11l-12,5.76c-4.12,1.71-8.4,3.12-12.56,4.71a21.77,21.77,0,0,1-2.76,1.11c13.37-4.1,26.49-9.45,38.43-17,11.77-7.71,23-16.51,32.37-27.25a32.14,32.14,0,0,0,3.26-4.08,31.79,31.79,0,0,1-3,4.31A160,160,0,0,0,316,333.29c1.68-4.85,4.35-11.59,5.26-15.42C324.09,305.92,324.44,302.56,323.25,305.83ZM382.81,90l2,.34c6.18.44,12.42,1.13,18.43,1.83,22.63,2.76,46.09,8,64.95,16a118.9,118.9,0,0,1,15.1,7.88c1.5.9,1-.68-4.93-4.9a65.25,65.25,0,0,0-8.82-4.9,164.27,164.27,0,0,0-29.11-9.74l3.28,1.33-3.38-1A333.72,333.72,0,0,0,382.81,90ZM512,285.21c-.12,16.76.1,41.34-.62,45.66-.1.58-.19,2.28-.28,4.63l-.27,13c-3.28,2.16-6.78,4.5-10.12,6.42l-4,2.12c-1.13.62-2.22,1.06-3.22,1.49-2.88,1.24-4.48,1.8-3.22,1.08l5.12-2.84,5.25-3.24c3.13-2,6.26-4.11,8.69-5.85-.17-30.13-.33-57.76-.48-84.4-.14-18.58-.42-33.77-.26-56.65,0-15.75,0-34.51,0-49.33l.57-6.42.55-9.38.14-3.1a37,37,0,0,1-5.43,8c0,4.46.12,5.58.3,4.31.64-3.76.71,18,.87,33.31.29,40.29.6,83.67.9,126.85,0,11.59.09,23.4.14,35.37a93.49,93.49,0,0,1-9.48,6.16c-2.72,1.62-5.53,2.93-8.34,4.25a174,174,0,0,1-17.15,6.66,284.87,284.87,0,0,1-34.33,8.72c-6.32,1.27-14.64,2.53-22.07,3.48-30.51,3.81-59.83,4.28-91.56,2.9-.74,0-1.71-.08-2.75-.15l-1.75,2.37c-1,1.4-2.17,2.9-3.39,4.45a524.06,524.06,0,0,0,83.78-.63c17.94-1.54,35.49-4.18,46.83-6.25s16.5-3.21,9.58-1l-8.42,2.08a434,434,0,0,1-65.22,9c-6,.19-12.25.16-21.58.13-4.3,0-14.58.07-22.16-.11,0,.16-2.56.27.59.5,10.55.42,7.69,1-14.37.06-3.77-.18-7.62-.49-11.45-.77-1.27,1.49-2.62,3-4.2,4.58s-5.39,6-7.92,8.46a175.06,175.06,0,0,1-105,49.73c-25.15,2.86-54.59-.57-80-10-30.27-10.75-56.78-30.19-77.1-55-11.77-14.33-20.82-30.85-27.51-48.18C10,333.13,8,328.88,7,324.33L3.57,310.8C2.13,301.61.41,292.43.31,283.12c-.66-7.14-.08-15.47.16-21.27a174.82,174.82,0,0,1,13.32-56.63C21.6,187,32.67,171.54,41.95,160.7c7.78-9.13,23.89-24.35,38.7-33.69l-1.59.75c4.91-3.18,7.23-5.38,15.31-9.89,16.14-8.92,35.1-15,53.94-17.77,12.13-2.28,31.68-3,50.54-.56a53.56,53.56,0,0,1,4.43-4.3,87.19,87.19,0,0,1,16.84-10.92A177.3,177.3,0,0,1,254.3,71.7c19.81-5.23,39.5-8,59.41-9.72,16.83-1.39,34.83-1.87,50.55-1.58,24.79.42,48.63,2.63,73.41,8.24l7.16,1.63C460.17,73.69,464.47,76,474,79.83a23.71,23.71,0,0,1,6,3.32c.73.55-2.35-.65-1,.2,3.51,1.78,14.09,8.51,11.29,7.36-3.54-1.46,3.14,2.34,8.33,7.11A84.72,84.72,0,0,0,481.5,87.37c8.81,4.71,10.28,6.46,12.27,8.11,1,1,2.1,1.79,4.16,3.75a48.29,48.29,0,0,1,9.22,10.84,40.92,40.92,0,0,0-6-7.34c4.56,5.57,8.52,12.8,7.93,21.75a26.22,26.22,0,0,0-4.13-13.65,42.41,42.41,0,0,0-7.36-8.56A76.82,76.82,0,0,0,482.25,92c-.13.26,2.5,2-.94.48a232,232,0,0,0-40-13.8,192.78,192.78,0,0,0-24-4.46l-20.4-2.3c-4.36-.44-8.77-.77-13.16-1.06l0,.15a385.7,385.7,0,0,1,39.41,5c-8.52-1.38-16.6-2.51-24.69-3.34a432.27,432.27,0,0,0-59.16-2.13c-15.46.37-35.21,3.17-26.06,2.85,6.84-.19,16.75-.47,25.8-.34l8.42-.16-1.1-.33c6.39.06,11.47.14,18.77.49-6.75-.06-10.49.08-11.34.06-.37.26-1.11.44-.81.63.85.55-3.61,1,10,1.65,5.52.25,14.28.86,15.66,1.17,1.89.38,4.72.54,11.34,1.11,6.16.56,14.76,1.65,16.94,2.15,2.77.57.2.54-.14.82-1.24-.18.61.07,5,.81-9.76-1.37-16.3-2-22.76-2.53l-1.74-.52c-10.4-.72-19.7-1-29.17-1.07s-19.24-.08-30.65.49l4.46,0c-5.49.3-10.1.64-14,1-1.73.42-2.33.71-5.16,1.23l-10.39,1.35a264.1,264.1,0,0,0-57,12.47c-4.49,1.51-9.36,3.53-13,5.16a91,91,0,0,0-10.67,5.74A92.25,92.25,0,0,1,231.74,108c5.49-3.26,15-7.37,25.46-10.3,23.12-6.6,47.89-9.93,72.27-11.38,10.25-.55,15.78-.51,18-.21,5.19.67,10,1.47,13.83,2.29.64.12-3.12.25-6.37.34-16.21.38-35,.93-52.45,3.07-13.35,1.75-15.08,2-8.77.57,1.89-.41.3-.36.3-.53-4.6.67-10.81,1.65-13.36,2.26-5.56,1.23-9.2,2.33-12.65,3.34-12.55,2.8-24.33,6.4-34.57,11.25,1.67.72,2.51,1.2,2.78,1.29.61.46-1.95-.21-4.08-.71l-.4.18-.09,0a168.63,168.63,0,0,1,52.69,28.05,164.83,164.83,0,0,1,27.48,27.06c5.73.6,11.3,1.1,16.36,1.36l-9.19.45-5.51.29c1.28,1.63,2.59,3.23,3.8,4.89,2.37.22,6.32.48,12.38.78l9.81.38a423.1,423.1,0,0,0,74.18-4.2c3.64-.53,7.16-1.27,10.73-2l-1.55.18a257.16,257.16,0,0,0,35.29-8.63c11.44-3.9,23-8.6,32.47-16.23-.79,1,.08.54,2.14-1A28.66,28.66,0,0,0,500,131.9c1.44-2,2.62-3.32,3.33-6.37.4-2.12,1-1,.22,3.48h7.11c0,1.06,0,2.17,0,3.24.22-.6.41-1.13.52-1.48.38-1.09.47-.94.31.25a16.1,16.1,0,0,1-.82,3.29c0,.56,0,1.11,0,1.68.29-.61.68-1.14.93-1.78-.27.75-.63,1.37-.93,2.07,0,10.95.07,22.59.1,34.66s0,24.38-.26,36.77c-.08,4.12,0,19.66.11,24,.28,10.56.61,19.7,1,25.55C511.91,262.85,512.07,271,512,285.21ZM381.45,64.92l2.92.36a360.2,360.2,0,0,1,58.71,8.41l-1.17-.49-9.58-2c-5.33-1-10.6-2.07-16-2.88-9-1.4-18.13-2.49-27-3.18C386.36,64.91,384.08,64.93,381.45,64.92Zm-63,108.36.2.29s0,0,0,0c.81,1.14,1.6,2.29,2.38,3.45,3,.22,5.32.2,10.14.21l7.38.15c13.62.5,37.79.14,44.15,0,1.75,0,4.66-.05,7.39-.26a354.74,354.74,0,0,0,37.67-5.1c22.47-4.16,39.09-10,33.63-7.19-3.84,1.78,9.87-1.2,20.91-7,2-1.05,3.88-2.09,5.6-3.11v-.12c0-4.21,0-2.65,0-3l0-.05a.17.17,0,0,0,0-.09c-.31,0,1.2-.09-3-.14l-2.84,0c-9.5,5.27-19.87,9-30.22,12.07a240.45,240.45,0,0,1-25.32,5.88c-21.47,3.63-43.48,5.39-68.18,5.71-5.35.05-10.68,0-15.77-.22C335.17,174.59,327.86,174.12,318.49,173.29Zm-88.78-64.54.45.16.13-.08A5,5,0,0,0,229.71,108.75Zm-15.33-5.67.36.08A85.4,85.4,0,0,1,228,95.66c2.66-1.2,7-3.42,14.92-6.31-7,2.41-9.36,3.5-11.72,4.48l.33-.21a168.16,168.16,0,0,1,15.75-5.92C234,91.38,221.4,97.71,214.38,103.08Zm-201,166.68c1.07-43.21,20.44-85.46,52.23-114.7L73,148.39l8-6c5.14-4.24,11.12-7.25,16.72-10.84,5.78-3.11,10.75-5.27,14.65-7.18,4-1.66,7.19-2.61,9.42-3.4,4.5-1.5,5.53-1.62,4.07-.67,6.85-2.41,13.18-3.77,19-5.33,6-.89,11.62-2.09,17.39-2.63,7.78-.48,15.93-1.16,24.1-.43A164.74,164.74,0,0,1,239,123.43a176.32,176.32,0,0,1,43.54,25.75c8.48,7.34,19.57,17.91,27.13,29a164.15,164.15,0,0,1,26.6,56.22,143.13,143.13,0,0,1,4.41,25.85q3.71.11,7.43.17l0-.35c-.33-3.86-.34.55-.56-.27l-2-10a173.4,173.4,0,0,0-9-33.76L334,209.55c-.87-2.17-2.05-4.2-3-6.22-2.12-4-3.91-7.8-5.81-10.66-1.25-1.84-2.3-3.36-3.15-4.52h-.24c-.3-.49-.6-1-.9-1.52-.9-1.14-1.14-1.19-.4.27,3.78,8.77-8.33-16.06-35.34-39.22a166.56,166.56,0,0,0-50.61-29.45c-4-1.42-8.24-3-10.94-3.35L212,112.23c-5.12-1-11.36-1.63-17.88-2.61-6.6-.16-13.54-.86-20.15-.56-6.59.54-12.92.3-18.1,1.36L144.55,112c-13.7,2.94-13.77,2.28-32.74,10,5.15-1.76,10.38-3.34,15.35-4.94,5.08-1.22,10-2.15,14.43-3.08,3.37-.71,2.67-.2,3.84-.22-6.38,1.42-12.78,3-19,4.94-6.1,2.4-12.46,4.13-18.22,7.23-4,2-8.19,3.49-11.72,5.75C49,158.28,16.36,209.51,13.55,263.82l-.27,6.59A3,3,0,0,0,13.42,269.76Zm389,5.26c-12.13,1.72-25.3,2.79-38.43,3.38-5.81.2-11.78.26-17.7.28l.26,10.59c.22,4.72-.54,9.32-.79,14.22-.07.26,1.07-6.05,1.88-11.85l-2.48,18.2-.14.65c1.68,0,3.35.11,5,.11,1.94,0,4.19,0,5.76-.09,9.74-.4,22.28-.91,30-.85,3.24-.05,9.21-.45,13.91-.87l-.49-.14a27.88,27.88,0,0,1,4.8-1.24c4.9-.67,10.08-1.43,15.19-1.82,3.62-.33,9.47-1.23,14.94-2.2l-1.33,1.1c15.41-3,9.37-1,8.91,0,5.89-1.34,11.16-2.86,16.31-4.3,8.09-2.18,16.33-5.21,23.09-7.47,1.41-.46,4.59-1.93,6.84-3,0-2.07,0-4.17,0-6.23,0-10.44.11-20.57.22-29.84A212.32,212.32,0,0,1,462.07,263l.67-.3-5,1.2a330.72,330.72,0,0,1-34,7.1c-1.51.24-3.08.55-4.52.72-5.92.71-7.6,1-6.9,1.21C413.67,273.49,407.07,274.4,402.47,275Zm11.37,45.89c4.35-.7,7.69-1.32,11.13-2l7.15-1.38a224.9,224.9,0,0,0,30.5-7.92l11.31-3.7c4.8-1.74,9.56-3.67,14.16-5.78v-6.32c-1.11.55-2.34,1.15-3.84,1.83-4.61,2.15-10,5.12-8.09,5,2.77-.22-4.15,3.3-14,6.11-5.46,1.61-11,3-16.59,4.32a24.41,24.41,0,0,0-3.2,1c-2.68,1.12-13.42,3.61-19.59,4.44-1.2.18-2.74.38-3.34.41-4.17.07-4.1.06-10,1.3l9.24.13c1,0,.84.28,1.21.42l-11.67,1.56-3.91.27a475.67,475.67,0,0,1-48.6,3l-2,.09c.08,0,.11.11.2.11,13,0,25.93-.5,38.87-1.54,4-.29,7.94-.76,11.9-1.23C412.49,320.24,414.73,320,413.83,320.91Zm-64.12-60.43-.26-3.16L348,249.4a82.76,82.76,0,0,1,1.1,11.07Zm-8.66,13c0,.08,0,.13,0,.2.61,0,1.21,0,1.82-.05C342.36,273.55,341.73,273.5,341.05,273.45ZM39.59,363.74c-2.46-4.09-4.84-7.81-6.92-11.48l-5.36-11.08-.21-.55,3,6.09A86,86,0,0,0,36,357.56c-3.52-5.41-5.3-10.2-7.11-13.78a71.74,71.74,0,0,1-3.68-8.44c-1.8-5.14-4-9.8-5.27-14.66s-2.79-9.55-3.8-14.51c.33,2.93,1.45,6.59,2.46,10.93.56,2.16,1.08,4.49,1.79,6.91l2.72,7.45c1,2.57,1.87,5.31,3.05,8l4,8.1C32.64,353.18,36.31,358.38,39.59,363.74Zm265.77,27.32c-20.83,23.32-48.45,40.16-78.22,49.35l-4.47,1.33,5.92-1.29c1.93-.62,3.94-1.28,6.23-2.11l10-3.68,9.7-4.67c6.64-2.86,12.51-7.18,18.71-10.77,6.89-5.08,13.88-9.88,20-15.87l5.69-5.13c1.88-1.74,3.53-3.72,5.3-5.57Zm23.88-45.4a114.6,114.6,0,0,0,5.47-12.33c2.15-5.21.86-.66,1.12-.56,5.41-15.43,9.7-31.43,10.29-54.09-2.14,0-4.3,0-6.4,0,0-1.3.1-2.59.1-3.89,0-.37,0-.73,0-1.1l.78,0,0-.25-.74,0c0-1.73-.18-3.41-.25-5.13-.4-1.87-.8-3.59-1.25-5.7-1.36-15.49-4.2-25.33-3.8-21.37a162.08,162.08,0,0,0-57.94-92.56l2,1.34c-4.43-3.28-8.57-6.9-13.27-9.9-31.36-21-70.38-29.42-107.69-25.11-4.9.83-10.08,1.39-14.69,2.42-9.42,2.33-15.47,3.84-18.71,5.32-3.31,1.25-4.07,1.62-3,1.42,2-.29-2.19,1.12-8.34,3.92l-10.22,5.08c-3.65,1.79-7,4.23-10.25,6.13a162.54,162.54,0,0,0-44,41.65,158.65,158.65,0,0,0-25.89,56.87c-3.62,16.35-5.35,33.8-3.61,50.89A165.46,165.46,0,0,0,31.11,337C34,342.45,37,350,41,356A155.33,155.33,0,0,0,68.21,390.1c10.32,10.34,22.76,18.55,36.24,25.71,3.6,1.65,12,6.14,14.25,6.74,4,1.7,4.75,2.27,7.15,3.45a64.1,64.1,0,0,0,9.23,2.83c3.24.79,6.72,1.87,10.54,2.64a153.08,153.08,0,0,0,39.95,2.82,155.86,155.86,0,0,0,43.21-8l2.4-1.28,7-2.54c2.37-.9,4.68-2.18,7.2-3.34l8-3.87,8.83-5.34L255.73,414c.55.05,4-1.7.45.7-1.34,1.08-5,2.94-9.42,5.08l-6.89,3.39-7.05,2.64c-9.38,3.73-13.7,4.27-16.41,5.39a67.87,67.87,0,0,1-9.26,2.41L193,436c-20.62,1.47-13.86,1.69-15.14,2.28-.46.21.68.34,1.24.57,1.29-.17,7.07,0,17.38-.91-11.16,1.14-19,1.78-28.8,1.14l1.69-.25c-4.44-.18-11.13-.58-12.88-1L146,436.46c-3.55-.35-6.93-1.46-10.3-2.12a137.22,137.22,0,0,1-17.88-5.06c-13.42-4.73,14.78,8.65,38.89,11.06,3.72.76,7.54.64,11.33.93,3.8.09,7.61.64,11.42.34,7.63-.39,15.31-.51,22.87-2,7.66-.85,15.06-3,22.51-4.93,3.72-1,7.25-2.54,10.88-3.79a78.54,78.54,0,0,0,10.63-4.4,135,135,0,0,0,16.78-8.89c1.82-1.14,3.69-2.24,5.53-3.38A167.27,167.27,0,0,1,225.05,435l.08.13c3.31-.84,6.46-2.23,9.7-3.32,3.18-1.26,6.52-2.12,9.54-3.72a229.08,229.08,0,0,0,27.95-15.23c3.15-2.23,7.37-5.13,12.33-9,4.59-4.33,10.6-9,16.19-15.65l5.49-6.09c1.76-2.21,3.44-4.59,5.21-6.94s3.6-4.72,5.23-7.21l4.6-7.6C324.63,355.45,326.95,350.26,329.24,345.66Zm8.69-7.7c1.67-4.66,3.38-8.56,4.55-12.36a68.38,68.38,0,0,0,1.17-7.94C343,321.2,343,324.41,337.93,338Zm131.5,20.6c-5.62,1.58-14.53,4.11-25.23,6.37s-23.13,4.37-35.54,6c9.44-1.06,17.38-2.32,25.29-3.69l.59-.06c-3.83.64-7.62,1.52-18.82,3.06,12.73-1.56,20-2.93,24.35-3.81A255.25,255.25,0,0,0,469.43,358.56Zm18.93-22.24a.55.55,0,0,0-.05-.19c-.07-8-.14-16.48-.22-25.2,0-2.36,0-4.76,0-7.14a212.86,212.86,0,0,1-26,9.35l.67-.3-5,1.2a330.72,330.72,0,0,1-34,7.1c-1.51.24-3.08.55-4.52.72-5.92.71-7.6,1-6.9,1.21,1.3.51-5.31,1.42-9.91,2-12.13,1.72-25.3,2.79-38.43,3.38-6.85.24-14,.31-20.88.29-1.35,4.62-3.82,12.26-5,15.69-.88,2.25,1.44-2.09,1-.82a61.93,61.93,0,0,1-3.82,9.47c-1.17,2.7-2.36,5-3.57,7.22A527.29,527.29,0,0,0,391,359.21a411.69,411.69,0,0,0,49.06-6.7c16-3.35,31.86-7.81,45.25-14.46l2.92-1.62A.69.69,0,0,0,488.36,336.32Zm.08-92.81c-1.19.6-2.53,1.25-4.2,2-4.61,2.15-10,5.12-8.09,5,2.77-.22-4.15,3.3-14,6.11-5.46,1.61-11,3-16.59,4.32a24.41,24.41,0,0,0-3.2,1c-2.68,1.12-13.42,3.61-19.59,4.44-1.2.18-2.74.38-3.34.41-4.17.07-4.1.06-10,1.3l9.24.13c1,0,.84.28,1.21.42l-11.67,1.56-3.91.27a475.67,475.67,0,0,1-48.6,3l-2,.09c.08,0,.11.11.2.11,13,0,25.93-.5,38.87-1.54,4-.29,7.94-.76,11.9-1.23,7.85-.85,10.1-1.13,9.2-.18,4.35-.7,7.69-1.32,11.13-2l7.15-1.38a224.9,224.9,0,0,0,30.5-7.92l11.31-3.7c4.89-1.77,9.74-3.74,14.42-5.9C488.37,247.7,488.41,245.58,488.44,243.51Zm.4-40.26a211.16,211.16,0,0,1-26.77,9.7l.67-.3-5,1.2a330.72,330.72,0,0,1-34,7.1c-1.51.24-3.08.55-4.52.72-5.92.71-7.6,1-6.9,1.21,1.3.51-5.31,1.42-9.91,2-12.13,1.72-25.3,2.79-38.43,3.38-6.39.22-13,.29-19.49.29.92,3.52,1.78,7,2.52,9.9,1,4.73,1.39,9.15,2,13.4a66.74,66.74,0,0,1,.8,8.6h.2c1.94,0,4.19,0,5.76-.09,9.74-.4,22.28-.91,30-.85,3.24-.05,9.21-.45,13.91-.87l-.49-.14a27.88,27.88,0,0,1,4.8-1.24c4.9-.67,10.08-1.43,15.19-1.82,3.62-.33,9.47-1.23,14.94-2.2l-1.33,1.1c15.41-3,9.37-1,8.91,0,5.89-1.34,11.16-2.86,16.31-4.3,8.09-2.18,16.33-5.21,23.09-7.47,1.49-.49,5-2.13,7.27-3.22,0-1.59.06-3.16.09-4.65C488.66,227.12,488.75,215.19,488.84,203.24Zm.08-10.08c-1.28.66-2.78,1.39-4.68,2.25-4.61,2.15-10,5.12-8.09,5,2.77-.22-4.15,3.3-14,6.11-5.46,1.61-11,3-16.59,4.32a24.41,24.41,0,0,0-3.2,1c-2.68,1.12-13.42,3.61-19.59,4.44-1.2.18-2.74.38-3.34.41-4.17.07-4.1.06-10,1.3l9.24.13c1,0,.84.28,1.21.42l-11.67,1.56-3.91.27a475.67,475.67,0,0,1-48.6,3l-2,.09c.08,0,.11.11.2.11,13,0,25.93-.5,38.87-1.54,4-.29,7.94-.76,11.9-1.23,7.85-.85,10.1-1.13,9.2-.18,4.35-.7,7.69-1.32,11.13-2l7.15-1.38a224.9,224.9,0,0,0,30.5-7.92l11.31-3.7c5.07-1.84,10.11-3.88,14.95-6.13C488.89,197.4,488.9,195.27,488.92,193.17Zm0-6.06-.19,1.61c-.25-5.42-.62-8.28-.71-16.81,0-4.18,0-8.46-.07-12.74-3.06,1.75-5.85,3.17-7.47,4-16.1,8.29-36.54,13.6-55.77,17a360.25,360.25,0,0,1-38.84,4.57c.77.31,4.84.4,4.18.79s-6,1.32-24.21,2l3.55.72c-12.89.66-26.58.48-35,.39-2.08,0-4.18-.16-6.27-.24A147.38,147.38,0,0,1,338,209.1l.37,1c3.89.14,7.79.26,11.69.28,1.94,0,4.19,0,5.76-.09,9.74-.4,22.28-.91,30-.85,3.24-.05,9.21-.45,13.91-.87l-.49-.14a27.88,27.88,0,0,1,4.8-1.24c4.9-.67,10.08-1.43,15.19-1.82,3.62-.33,9.47-1.23,14.94-2.2l-1.33,1.1c15.41-3,9.37-1,8.91,0,5.89-1.34,11.16-2.86,16.31-4.3,8.09-2.18,16.33-5.21,23.09-7.47,1.52-.5,5.16-2.19,7.4-3.28l.31-.14C489,188.41,489,187.74,489,187.1Zm10.84-36.25c-.19.17-.36.35-.56.52l.16,7.27Zm.59-11.58-2.2-.12c-.37.44-.75.87-1.16,1.31l2.09.08c0,1.83,0,3.64,0,6.15v.06c.32-.29.61-.56.91-.84Zm1.31,155.06c-.12.15-.2.28-.3.42l.07,43.32c0,1.85,0,3.64.06,5.37,0,.24-.34.29-.48.44a2.47,2.47,0,0,0,.6-.28v-.1Zm.06-50.18c-.17.22-.29.41-.44.61q0,24.46.08,48.92l.3-.09Q501.73,268.89,501.76,244.16Zm0-29.08c0-7,0-14,0-21-.2.25-.35.48-.51.71q0,24.43.08,48.84a2.57,2.57,0,0,1,.44-.13Zm.12-66.18-.53.5c0,4.71,0,9.44,0,14.12-.05,4.48-.11,8.84-.16,13q0,8.52,0,17a2.89,2.89,0,0,1,.51-.16c0-6,0-12,0-18C501.71,161.79,501.75,153.45,501.91,148.9Zm.74-5.57-.07-6.24-2.78,0c-.28.39-.6.78-.9,1.17h2.49c0,2.13,0,4.23,0,6.36.35-.35.7-.7,1-1Zm7.18-6.82a34.11,34.11,0,0,1-5.52,8.84,35.6,35.6,0,0,0,5.46-7.62Zm.32-7-6.64-.35a18.13,18.13,0,0,1-2.54,6.18h3.33c0,2.37,0,4.33,0,6.12,2-2.29,2.8-3.59,3.32-4.11s-1.09,2.89.61,0a34.12,34.12,0,0,0,1.71-3.39ZM410.9,327.17c-4.5.53-10.2,1.36-15,1.64-7,.49-11.6,1-17.27,1.5-8.48.67-17.33,1-26.93,1.23-.75.13-2.36.36-3.26.61-.42.12.07.29,1,.41,2.78.42,7.93.6,8.58,1,1.34.74,8.9.39,14.05.27a36.07,36.07,0,0,0,8.58-.8c1.78-.46,4.56-.94,7.78-1.44,1.31-.23,6.06-.7,7.33-.73,8.44-.21,16.81-1.66,23.61-2.61l-4.49-.45Zm0-100.2c-4.5.53-10.2,1.36-15,1.64-7,.49-11.6,1-17.27,1.5-8.48.67-17.33,1-26.93,1.23-.75.13-2.36.36-3.26.61-.42.12.07.29,1,.41,2.78.42,7.93.6,8.58,1,1.34.74,8.9.39,14.05.27a36.07,36.07,0,0,0,8.58-.8c1.78-.46,4.56-.94,7.78-1.44,1.31-.23,6.06-.7,7.33-.73,8.44-.21,16.81-1.66,23.61-2.61l-4.49-.45Zm-32.28,53.24c-8.48.67-17.33,1-26.93,1.23-.75.13-2.36.36-3.26.61-.42.12.07.29,1,.41,2.78.42,7.93.6,8.58,1,1.34.74,8.9.39,14.05.27a36.07,36.07,0,0,0,8.58-.8c1.78-.46,4.56-.94,7.78-1.44,1.31-.23,6.06-.7,7.33-.73,8.44-.21,16.81-1.66,23.61-2.61l-4.49-.45-3.95-.6c-4.5.53-10.2,1.36-15,1.64C388.9,279.19,384.29,279.75,378.62,280.21ZM220.41,312.42a30.65,30.65,0,0,1-12,16.05,43.27,43.27,0,0,1-16.83,6.71l-6.37,1c0,.53.06,1.05.09,1.58.29,5.5.43,10.71-1.08,15.28.61.92-.17,1.78-1.11,2.83L182,357.11l-.74,1-2,4.75-.18-2.47-5,5.53,4.74-8.66-.06-.83c0-.61-.35-3.66-.61-5.94H178v-.17l-2.81,10.53,0-11.75c0-1.82-.08-3.58-.16-5.41a3,3,0,0,1-.49,2,10.76,10.76,0,0,1-.87,1l.17.86.46-.64.39,4.93c0,.54,0,1.06.06,1.58a6.3,6.3,0,0,1-.09,1.11c-.35,1.67-1.31,1.91-1.86,1.91a1.75,1.75,0,0,1-1.13-.43l-1.05,1.52.34-2.73a5.94,5.94,0,0,1-.23-1.15,26.76,26.76,0,0,1-.14-3.33c0-.64,0-1.16,0-1.65,0-.31,0-.62,0-.93l.17-1.11.23-.45a2.54,2.54,0,0,1-.21-.63,14.51,14.51,0,0,1-.11-3v-.33c0-.21,0-.43,0-.64a3.26,3.26,0,0,1,.32-1.71l-.18-.6.29-3.09a2.46,2.46,0,0,1,.22-.91l.34-.72a61.33,61.33,0,0,1-6.34-1.05c-9-2.16-18.05-7.5-23.68-13.93a57,57,0,0,1-5.82-7.14,50.06,50.06,0,0,1-3.86-7l-.26-.55.4-.2c-.54-1.5-.37-2.19.55-2.68,1.46-.76,2.31.64,3.1,2.08l.39.34a10.11,10.11,0,0,1,1.36,1.74c-1.59-2.76-2.82-5.53-2.24-6.67l.43-.85,1,0a1.57,1.57,0,0,1,1.07.4l-.34-1,6.31,9a40.62,40.62,0,0,0,23.78,16.76l.61.15,0,.1c1,.27,2,.46,3.13.65a52.23,52.23,0,0,0,15.22.18,34.26,34.26,0,0,0,14.1-4.56,21.32,21.32,0,0,0,3.07-2.24l.38-.35-.42.32-2-2.32.43-.41a17.17,17.17,0,0,0,4.31-6.33,14,14,0,0,0,.61-1.93l.23-1c.09-.6.15-.91.2-1.19l.06-.27a26.06,26.06,0,0,0,.35-4.56,18.58,18.58,0,0,0-.87-4.83,12.4,12.4,0,0,0-2.73-4.28l-.68-.65a20.22,20.22,0,0,0-3.85-3.07c-2.09-1.49-5.73-2.54-7.91-3.18a15.3,15.3,0,0,1-2.18-.71c-.3-.09-4-.85-6.89-1.24-1-.16-2.46-.4-2.37-1.89V280a97.48,97.48,0,0,1-13.4-2,57.82,57.82,0,0,1-6.26-1.66A38.88,38.88,0,0,1,148.24,270,18.54,18.54,0,0,1,141,256.48a16.73,16.73,0,0,1,.68-5.67,10.88,10.88,0,0,1,.84-1.85l.28-.53a31.1,31.1,0,0,1,2.86-5.85l.31-.49.08,0a34.06,34.06,0,0,1,7.68-8.73,35.72,35.72,0,0,1,11.86-6.36l.86-.5c1.26-.36,2.78-.77,4.58-1.11l-.22-2.37a40.65,40.65,0,0,0-7.71,1.91l-.57.21-1.16-2.86,1.54-.71a43,43,0,0,1,7.7-2v-.16a14.55,14.55,0,0,1,.1-3,3,3,0,0,1,.26-.73l-.43-1.08v-.42c0-.29,0-.61,0-.91,0-.51,0-1,0-1.53a28.49,28.49,0,0,1,.13-3.44c0-.26.08-.57.16-.91l-.46-3.11,1.19,1.66a1.46,1.46,0,0,1,1.19-.47c.56,0,1.53.39,1.83,1.89a5.6,5.6,0,0,1,.1,1.13c0,.54,0,1.06-.06,1.61l-.24,5.08-.59-.8-.16.89a11.78,11.78,0,0,1,.85,1A2.66,2.66,0,0,1,175,218c.07-1.72.13-3.37.14-5.09l.06-11.71L178,211.67v-.17h.2c.26-2.29.57-5.3.61-5.94l.06-.77-4.57-8.37,4.78,5.25.18-2.54,2.16,5,.92,1.09.5.39v.16l.3.32c.92,1,1.66,1.86,1.14,2.76a31.29,31.29,0,0,1,1.26,10.25,38.62,38.62,0,0,1,6.05,1.08,39,39,0,0,1,16.79,9.34c4.75,4.55,6.52,8,6.83,8.7.47,1.16.31,2-.49,2.46-1.21.72-1.86,0-3.16-1.58l-.47-.55-1.51-1.76a52.39,52.39,0,0,0-3.88-3.93,36.7,36.7,0,0,0-13.83-8.08l-.56-.18,0-.18a38.18,38.18,0,0,0-6-1.41l0,.89c-.09,1.72-.18,3.48-.2,5.17,1.24.17,2.42.39,3.6.65,5.22,1.14,12.05,5.24,14.62,8.76a2.74,2.74,0,0,1,.67,1.35,37.12,37.12,0,0,1,7,11.65l.2.54-2.75,1.3-.29-.51a33.54,33.54,0,0,0-1.79-2.84l-.52.26-.29-.53a33.64,33.64,0,0,0-1.92-3.11l-.62.43-.36-.48c-.57-.75-1.11-1.35-1.41-1.68a4.84,4.84,0,0,1-1.89-1.27l-1.06-.91-.2,0-.68-.26a10.78,10.78,0,0,1-2-1.22c-2.57-1.8-3.83-2.31-8.25-4a8.28,8.28,0,0,0-2-.43,35.75,35.75,0,0,0-12,.22,28.54,28.54,0,0,0-10.67,4.3,22.77,22.77,0,0,0-9,11.78c-1.19,4.27.35,6.67,6.09,9.52s13.67,4.45,24.85,5.48l5.86.66a40.74,40.74,0,0,1,17.72,6,28.48,28.48,0,0,1,11.74,14.82,29.73,29.73,0,0,1,1.54,6.6l1-3-.66,8.84a31.69,31.69,0,0,1-.25,3.46l-.07.87c0,.4-.07.78-.1,1.12l0,.29c0,.07,0,.13,0,.18v.48A18.91,18.91,0,0,1,220.41,312.42ZM174.81,337c0-.73-.06-1.37,0-2.13-.31,0-.61-.07-.91-.1A3.58,3.58,0,0,1,174.81,337Zm-38.95-79.51a20,20,0,0,0,2.2,7.86l.2.39a2.12,2.12,0,0,0,1.11,1.05,30.72,30.72,0,0,0,3.25,4.37,34,34,0,0,0,6.21,5.24c6.76,3.84,13.12,5.28,19.61,6.54l2.65.37h.46c.46,0,1.88,0,2.07-1.4s-.77-1.73-3.38-2.38a107.36,107.36,0,0,1-14.38-4.48,36,36,0,0,1-8-4.68,20.12,20.12,0,0,1-6.13-8.11,18.33,18.33,0,0,1-.92-10.2,29.08,29.08,0,0,1,3.27-8.81,40.65,40.65,0,0,1,4.37-6.31,12.57,12.57,0,0,0,.89-1.17,47.31,47.31,0,0,1,4.42-5.37l.7-.62-.35-1.78-.84-.28c-.87-.28-2.3.45-4.31,2.26a37.74,37.74,0,0,0-9.18,11.21C137.53,245.52,135.34,250.82,135.86,257.51Z"/></svg>