<svg id="Layer_1" data-name="Layer 1" xmlns="http://www.w3.org/2000/svg" viewBox="0 0 512 512"><defs><style>.cls-1{fill:#707070;}</style></defs><title>credit-card-front-handdrawn</title><path class="cls-1" d="M511.9,233.62c-.06-8.35-.12-16.61-.19-25V165.94c-.08-7.05.35-14.25-.84-21.54a64.08,64.08,0,0,0-7-20.64,64.94,64.94,0,0,0-32.11-28.53,60.78,60.78,0,0,0-21.31-4.53c-7.23-.24-14.25-.07-21.38-.12H406.57c-29.31.09-37.64.07-34.41-.27,6-.64-26.72-.7-49.48-.87l-189.14-.89-39-.12c-6.6,0-13-.11-19.81,0a63.28,63.28,0,0,0-20.52,3.8C40.93,96.83,29.64,106,21.8,117.15A70.5,70.5,0,0,0,13,135.43,71.19,71.19,0,0,0,10.12,155c0,9.49,0,21.89,0,33,.05,45.37.1,88.62.15,135.62,0,6.07.14,20.71.26,24.18a72.93,72.93,0,0,0,1.28,12.42A64.91,64.91,0,0,0,23,389.32,71.66,71.66,0,0,1,18.85,382a68.45,68.45,0,0,0,11.55,16,71.15,71.15,0,0,0,14.8,11.25,66.22,66.22,0,0,0,33.66,8.07l67.1-.26,4.09.38,52.71-.06-11.68-.13c.7-.33,6.55-.62.07-.83-5.13-.16-25-.28-39.18-.3-15.22,0-21.72,0-26.1-.3-3.21-.21-23.28-.35-35.93-.52-15.5-.1-20.82-.72-22.29-1.39-1.52-.49.56-.45-.36-.85-.64-.29,1-.22,1.87-.35.93.23,3.49.22,7.7.39l17.94-.17c-8.28-.15-15.48.06-22-.36A58.91,58.91,0,0,1,53.41,408l2.15,1.14c-6.11-2-14.38-7.23-16.24-9a61,61,0,0,1-18-24A61.67,61.67,0,0,1,17,350.28c.14-5.17.29-6.24.43-4.37s.17,6.78.75,12.79a61,61,0,0,0,6.79,21,59.4,59.4,0,0,0,16.38,18.91A57.93,57.93,0,0,0,69.89,410c5,.46,10.65.38,16.27.37h84l56.25-.11L136.71,410l.06-.15,29.8-.07c19.57,0,34.09,0,46.28-.33,11.21-.27,29.62-.3,54.8-.26,30.4.06,72.28.34,93.93-.26,8.14-.23,1.32-.57,1.32-.85h85.17l-41-2.12,17-.14c-50.75-.2-25.57-1.13-67.08-1.45l40.29-.33c-13.24-.29-28.92-.5-21.24-1,6-.36-19.07-.83-27.36-1.27-3.34-.18,3.45-.39,1.62-.58a122.75,122.75,0,0,0-14.06-.65c-21.47-.1-31.54-.82-65.38-.31l-15.94,0c-55.26-.26-107.88-.16-162.78.1l-13.28.05c-2.46.05-4.1-.08-5.85-.16a38.65,38.65,0,0,1-5.28-.62A46.11,46.11,0,0,1,48,391.19,48,48,0,0,1,28.27,353.4c.07-44.05.13-87.59.2-131.64q0-19.1,0-38.25V154.77a54.47,54.47,0,0,1,.58-7.48c2.59-19.53,18.89-36.75,38.43-40a43.09,43.09,0,0,1,5.81-.69l3-.17h3.85l14,.06c49.51.43,113.5.26,152.89-.29l71-.36-2.4.19c8.08.24,12.35.62,25.06.7,25.27.16,52.1.15,78.3-.19l15.94-.15,9.23-.05c1.5,0,3.42-.06,4.66,0l3.86.17a49,49,0,0,1,29.29,13.61,54.31,54.31,0,0,0-4.11-4.61,48.43,48.43,0,0,1,13.07,14.94,49.72,49.72,0,0,1,4.84,11.88,73.87,73.87,0,0,1,1.83,9.66c.2.6.29-.9.41-2.75-.09-1.82-.24-4-.15-4.7l.69,4.65.22,4.66q0,5.63,0,11.14,0,11.12-.07,21.87c0,14.36,0,28.3-.06,42.11.1,42.94.21,88.53.3,126a46,46,0,0,1-3.25,15.69,52.18,52.18,0,0,1-10.13,16.27,51.32,51.32,0,0,1-25.79,15.53,49,49,0,0,0,16.66-6.66,55.33,55.33,0,0,1-20.14,8.37c-1.46.34-1.63.48-.15.38a38,38,0,0,0,9.52-2c4.48-1.5-.46.55.54.38,1.3-.31,4.45-.72,11.56-5a53.32,53.32,0,0,0,24.19-35.45l.7-4.35.27-4.44c.17-3,.12-6.59.21-9.75l.45-17.43c.34-9.85.74-15.25,1-10.61.75,13.48,1.46-25.45,1.42-77,0-28.55,0-57.35,0-85.79a67.88,67.88,0,0,0-2.07-15.46,54.26,54.26,0,0,0-6.52-14.9A58,58,0,0,0,480,105a59.26,59.26,0,0,0-26.18-9.41c-4.52-.33-9.26-.35-13.77-.32H427.43l-16.75.13c-20.58.48-20.25.49-50.29.06l45.41-1.36a23.27,23.27,0,0,0,5.64-.58h-58.3l-19.37.16L92.6,93.43l-9.79-.06a6.27,6.27,0,0,1,1-.11l192.47-.15,59.21.07c39.08,0,50.26-.17,45.22-.93l55.84.36c5.81.06,11.78-.05,17.73.41a68.27,68.27,0,0,1,17.44,4.5,62.56,62.56,0,0,1,29.87,26.77,63.71,63.71,0,0,1,6.69,18.42c1.3,6.38,1,12.85,1,19.31-.17,25.78-.34,50.7-.5,75.46,0,16.69-.09,39.22-.13,59.08,0,15.47-.05,31-.08,46.55,0,7.81.18,15.42-1.59,22.75A60,60,0,0,1,498,386.3,62.19,62.19,0,0,1,475.75,406a59.21,59.21,0,0,1-18.29,6.13c-9.28,1.27-11.73,1.17-7.14,1.44a70.46,70.46,0,0,0,16.18-1,67.17,67.17,0,0,0,24-13.57c4.59-4,6.09-6,4.32-3.45A62.73,62.73,0,0,0,511.66,356c.37-14.33.13-28.25.23-42.31,0-28,.07-55.86.11-83.69ZM148.5,403.81l60.3,0,35.87.08,21.54-.1L269,404l-131.61.31-6.56-.16C136.63,404.05,141.68,403.82,148.5,403.81ZM16.66,143.17c-1.57,7.83-1,16.67-1.16,25.79s-.15,18.48-.23,27.84c0-14.19,0-26.2,0-38.21l0-.88c0,5.8-.06,11.6-.16,28.5,0-19.13-.43-30.23.1-36.77a60.43,60.43,0,0,1,16.72-36.69A63,63,0,0,0,16.66,143.17Zm7.66,248c-.46-.62-.88-1.22-1.31-1.85C23.45,389.93,23.85,390.55,24.32,391.17Zm62.58,37c.76.06-1.08.14-4.06.22s-6.86.23-11.93-.06c-23.55-1-48.13-15.35-60.9-38.08A76.67,76.67,0,0,1,0,352.81c0-10.63,0-21.23,0-31.65,0-32,.2-36.18.61-20.83.12,4.6.31.83.47.88,0-11,0-26,0-32.24L.47,237.62c.11-16.4.23-32.43.34-48.24q.08-11.85.17-23.56l.09-11.7.4-7.06c.26-2.34.69-4.66,1.06-7,.59-2.92,1.47-6,2.23-8.55L7,125.75c2.73-5.59,3.38-6.21,2.13-3.29a79.88,79.88,0,0,0-5.58,19.4,58.44,58.44,0,0,0-.78,7.84L2.59,154q0,1.86,0,3.81c.05,5.14.11,10.72.18,16.6,0,11.77.1,24.74.15,37.84,0,28.9,0,57.9.05,86.86q0,21.72.06,43.37l.06,11,.34,6.37,1,6.31A74.26,74.26,0,0,0,36.19,413.6,75.42,75.42,0,0,0,45,418.66a58.41,58.41,0,0,0,5.84,2.68,71.84,71.84,0,0,0,20,5.47l4.84.51,4,.3ZM55.3,88.33c-2.18.67.23-.52,5-1.76a62.91,62.91,0,0,1,13.08-2c4.94-.36,9-.24,13.28-.38,8.34-.16,15.38-.32,16.94-.5,6.45-.72,43.1-.49,68.08-.62,21.22-.1,33.34.05,41.7.38,8.73.34,22.35.67,38.1.95l35.74.11c40.83-.51,81.89-.11,115.14-.13l-21.26,1L362.47,86.5l-73.56,0c-34.11.15-56.76-.12-84.46-.26l-63.7-.27-33.25-.12-17.05-.06-8.64,0c-2.9,0-5.7-.08-9.06.14C68.68,85.58,60,87.1,55.3,88.33ZM377.48,426.52c39.62.61,22.09,1.65-27.42,2.1-52.66.49-109.07.25-163.5.36H142.63l-4.88-.18,138-1.87,8.47.1-8.46-.45,75.38-.24ZM132.73,340.61a54.48,54.48,0,0,1,7.59.76,28.21,28.21,0,0,0,2.87.13c1.5.06,3,.09,4.51.19,2.36.15,3.28-.12,2.83-.83a14.24,14.24,0,0,1-.79-1.65c-1.14,0-1.88-.32-1.59-.84l-8.2-.21.17.1a8.09,8.09,0,0,1-1.22.19c-2.76,0-5.53,0-8.29,0-.37,0-.75,0-1.09,0-1.43.09-1.83.07-1.67-.27.29-.64-1.3-.7-2.41-.87-2.92-.43-6.07-.64-9.2-.89-2.5-.2-5.16-.17-7.55-.5a14.07,14.07,0,0,0-1.6,0c-2.21,0-4.31.37-6.59.15a2.83,2.83,0,0,0-1.18.26,2.41,2.41,0,0,0-.59.78l-1.57.12.5.25c-1.28-.07-2.36-.18-3.43-.16s-2.1.16-3.26.26l-.2-.38-2.56.06.57.13c0,.33-.32.62,0,.83a5.89,5.89,0,0,0,1.91.3c.74,0,1.06,0,1.27.3a6.56,6.56,0,0,0,1.75.52c1.51.42,1,1,1.11,1.5a2.15,2.15,0,0,1-.09.63l-1.26.24,2.08.34-.12-.33a5.72,5.72,0,0,1,.93,0,23.14,23.14,0,0,1,2.85,1.16c1,.56-1.19,1.25-2.89,1.32-2.15.08-4.34,0-6.52.05a24.8,24.8,0,0,0-2.74.11l4.36.23s0,.1,0,.15c-.48,0-1,.07-1.45.07a5,5,0,0,0-2.25.33,6.16,6.16,0,0,1-2.66.26c-1.48-.06-3.51-.34-4.57.26-.4.23-.06.57-.06.85H76.29l2,2.12-.83.14c2.47.2,1.24,1.13,3.26,1.45l-2,.33c.64.29,1.41.5,1,1s.93.83,1.33,1.27c.16.18-.17.39-.08.58s.27.61.68.65c1,.1,1.53.82,3.18.31a2.89,2.89,0,0,1,.78,0,39.76,39.76,0,0,0,7.92-.1A50.19,50.19,0,0,1,99,354c2.15,0,4.27.22,6.41.25,2.48,0,5,0,7.45,0a9,9,0,0,1,1.42.07,18.39,18.39,0,0,0,7.43-.29,25.4,25.4,0,0,1,3.45-.36l-.12.19c.39.24.6.62,1.22.7a9.84,9.84,0,0,0,3.81-.19,32,32,0,0,1,3.77-.42l-.38-.82c3.92-.14,2.34-1,2.18-1.74,1.5.08,2.87.22,4.21.2a26.11,26.11,0,0,0,6.15-.44c.41-.11,1.44,0,2.09,0a15.86,15.86,0,0,0,1.8-.36l-1.05-.46c1.25-.33,1.9-.76.73-1.32-.27-.13,0-.36,0-.54-.15-.48-.68-1-3.14-1.12-1.28-.06-2.78-1.14-2.33-1.66.66-.75-1.24-1.46-3.74-1.42-1.39,0-2.79,0-4.18,0a1.79,1.79,0,0,1-.81-.31,12.5,12.5,0,0,0-4.87-.76,3,3,0,0,0-.81.13c-1,.48-1,.49-2.45.06.78-.47,1.56-.91,2.21-1.36.25-.17.19-.39.27-.58-.95,0-1.89,0-2.84,0-.32,0-.64.16-.94.16q-5.87-.11-11.73-.25a4.16,4.16,0,0,1-.48-.06s0-.11,0-.11c3.12-.05,6.24-.11,9.36-.15,1,0,1.92.06,2.88.07,1.9,0,2.44-.17,2.2-.93,1.06.14,1.87.26,2.72.36C131.55,340.53,132.14,340.6,132.73,340.61ZM90.86,350.78c-1,0-2,0-2.93,0-.58,0-1.16-.07-1.74-.08a9.86,9.86,0,0,0-1,.1l-.13-.21,6.4-.31.32.16A2.31,2.31,0,0,1,90.86,350.78Zm15.81-9.72,1.86,0,0,0-1.39-.16a13.33,13.33,0,0,1,1.79-.15c.79.11,1.48.28,2.21.43A9.71,9.71,0,0,1,106.67,341.06Zm-5-14.63c-.22.12,0,.31,0,.47a9.73,9.73,0,0,0,1.57,0,10.31,10.31,0,0,0,1.52-.62l4.63.67a1.76,1.76,0,0,1,.6.17c1,.73-1.44,1.66-4,1.66-2.81,0-5.64.08-8.43.2-1.17,0-1.8,0-2.05-.34a19.58,19.58,0,0,1-1.58-2.2c-.07-.12.36-.32.73-.42,1.86-.49,4-.17,6-.16C102.18,325.84,102.38,326,101.63,326.43Zm22.09,5.9c2-.51,4-.11,5.6-.13-.38.38-.73.71-1,1s-.6.73-.91,1.11a34.39,34.39,0,0,0-3.58,0,18.37,18.37,0,0,1-4.11-.26c-2-.21-4.11-.34-6.39-.52a5.09,5.09,0,0,1-.77-.64c-.1-.12,0-.29.23-.39.66-.34,1.87-.64,2-1,.31-.72,2.1-.49,3.31-.62a2.65,2.65,0,0,1,2,.38,6.85,6.85,0,0,0,1.85.95A5.37,5.37,0,0,0,123.72,332.33Zm-39.06-4.68-.41-.1.41.45c-1.3.09-2.47.19-3.67.24a4.47,4.47,0,0,1-1.28-.17c-1.93-.61-1.07-1.65,1.33-2.1,2.56-.49,5.3-.25,8-.36.7,0,1.42,0,2.14,0l.24.18Zm147.21,13a54.48,54.48,0,0,1,7.59.76,28.21,28.21,0,0,0,2.87.13c1.5.06,3,.09,4.51.19,2.36.15,3.28-.12,2.83-.83a14.24,14.24,0,0,1-.79-1.65c-1.14,0-1.88-.32-1.59-.84l-8.2-.21.17.1a8.09,8.09,0,0,1-1.22.19c-2.76,0-5.53,0-8.29,0-.37,0-.75,0-1.09,0-1.43.09-1.83.07-1.67-.27.29-.64-1.3-.7-2.41-.87-2.92-.43-6.07-.64-9.2-.89-2.5-.2-5.16-.17-7.55-.5a14.07,14.07,0,0,0-1.6,0c-2.21,0-4.31.37-6.59.15a2.83,2.83,0,0,0-1.18.26,2.41,2.41,0,0,0-.59.78l-1.57.12.5.25c-1.28-.07-2.36-.18-3.43-.16s-2.1.16-3.26.26l-.2-.38-2.56.06.57.13c0,.33-.32.62,0,.83a5.89,5.89,0,0,0,1.91.3c.74,0,1.06,0,1.27.3a6.56,6.56,0,0,0,1.75.52c1.51.42,1,1,1.11,1.5a2.15,2.15,0,0,1-.09.63l-1.26.24,2.08.34-.12-.33a5.72,5.72,0,0,1,.93,0,23.14,23.14,0,0,1,2.85,1.16c1,.56-1.19,1.25-2.89,1.32-2.15.08-4.34,0-6.52.05a24.8,24.8,0,0,0-2.74.11l4.36.23s0,.1,0,.15c-.48,0-1,.07-1.45.07a5,5,0,0,0-2.25.33,6.16,6.16,0,0,1-2.66.26c-1.48-.06-3.51-.34-4.57.26-.4.23-.06.57-.06.85h-4.14l2,2.12-.83.14c2.47.2,1.24,1.13,3.26,1.45l-2,.33c.64.29,1.41.5,1,1s.93.83,1.33,1.27c.16.18-.17.39-.08.58s.27.61.68.65c1,.1,1.53.82,3.18.31a2.89,2.89,0,0,1,.78,0,39.76,39.76,0,0,0,7.92-.1,50.19,50.19,0,0,1,5.45-.13c2.15,0,4.27.22,6.41.25,2.48,0,5,0,7.45,0a9,9,0,0,1,1.42.07,18.39,18.39,0,0,0,7.43-.29,25.4,25.4,0,0,1,3.45-.36l-.12.19c.39.24.6.62,1.22.7a9.84,9.84,0,0,0,3.81-.19,32,32,0,0,1,3.77-.42l-.38-.82c3.92-.14,2.34-1,2.18-1.74,1.5.08,2.87.22,4.21.2a26.11,26.11,0,0,0,6.15-.44c.41-.11,1.44,0,2.09,0a15.86,15.86,0,0,0,1.8-.36l-1.05-.46c1.25-.33,1.9-.76.73-1.32-.27-.13,0-.36,0-.54-.15-.48-.68-1-3.14-1.12-1.28-.06-2.78-1.14-2.33-1.66.66-.75-1.24-1.46-3.74-1.42-1.39,0-2.79,0-4.18,0a1.79,1.79,0,0,1-.81-.31,12.5,12.5,0,0,0-4.87-.76,3,3,0,0,0-.81.13c-1,.48-1,.49-2.45.06.78-.47,1.56-.91,2.21-1.36.25-.17.19-.39.27-.58-.95,0-1.89,0-2.84,0-.32,0-.64.16-.94.16q-5.87-.11-11.73-.25a4.16,4.16,0,0,1-.48-.06s0-.11,0-.11c3.12-.05,6.24-.11,9.36-.15,1,0,1.92.06,2.88.07,1.9,0,2.44-.17,2.2-.93,1.06.14,1.87.26,2.72.36C230.69,340.53,231.28,340.6,231.88,340.61ZM190,350.78c-1,0-2,0-2.93,0-.58,0-1.16-.07-1.74-.08a9.86,9.86,0,0,0-1,.1l-.13-.21,6.4-.31.32.16A2.31,2.31,0,0,1,190,350.78Zm15.81-9.72,1.86,0,0,0-1.39-.16a13.33,13.33,0,0,1,1.79-.15c.79.11,1.48.28,2.21.43A9.71,9.71,0,0,1,205.81,341.06Zm-5-14.63c-.22.12,0,.31,0,.47a9.73,9.73,0,0,0,1.57,0,10.31,10.31,0,0,0,1.52-.62l4.63.67a1.76,1.76,0,0,1,.6.17c1,.73-1.44,1.66-4,1.66-2.81,0-5.64.08-8.43.2-1.17,0-1.8,0-2.05-.34a19.58,19.58,0,0,1-1.58-2.2c-.07-.12.36-.32.73-.42,1.86-.49,4-.17,6-.16C201.32,325.84,201.52,326,200.78,326.43ZM218.84,334c-2-.21-4.11-.34-6.39-.52a5.09,5.09,0,0,1-.77-.64c-.1-.12,0-.29.23-.39.66-.34,1.87-.64,2-1,.31-.72,2.1-.49,3.31-.62a2.65,2.65,0,0,1,2,.38,6.85,6.85,0,0,0,1.85.95,5.37,5.37,0,0,0,1.74.11c2-.51,4-.11,5.6-.13-.38.38-.73.71-1,1s-.6.73-.91,1.11a34.39,34.39,0,0,0-3.58,0A18.37,18.37,0,0,1,218.84,334Zm-35-6.4-.41-.1.41.45c-1.3.09-2.47.19-3.67.24a4.47,4.47,0,0,1-1.28-.17c-1.93-.61-1.07-1.65,1.33-2.1,2.56-.49,5.3-.25,8-.36.7,0,1.42,0,2.14,0l.24.18Zm147.21,13a54.48,54.48,0,0,1,7.59.76,28.21,28.21,0,0,0,2.87.13c1.5.06,3,.09,4.51.19,2.36.15,3.28-.12,2.83-.83a14.24,14.24,0,0,1-.79-1.65c-1.14,0-1.88-.32-1.59-.84l-8.2-.21.17.1a8.09,8.09,0,0,1-1.22.19c-2.76,0-5.53,0-8.29,0-.37,0-.75,0-1.09,0-1.43.09-1.83.07-1.67-.27.29-.64-1.3-.7-2.41-.87-2.92-.43-6.07-.64-9.2-.89-2.5-.2-5.16-.17-7.55-.5a14.07,14.07,0,0,0-1.6,0c-2.21,0-4.31.37-6.59.15a2.83,2.83,0,0,0-1.18.26,2.41,2.41,0,0,0-.59.78l-1.57.12.5.25c-1.28-.07-2.36-.18-3.43-.16s-2.1.16-3.26.26l-.2-.38-2.56.06.57.13c0,.33-.32.62,0,.83a5.89,5.89,0,0,0,1.91.3c.74,0,1.06,0,1.27.3a6.56,6.56,0,0,0,1.75.52c1.51.42,1,1,1.11,1.5a2.15,2.15,0,0,1-.09.63l-1.26.24,2.08.34-.12-.33a5.72,5.72,0,0,1,.93,0,23.14,23.14,0,0,1,2.85,1.16c1,.56-1.19,1.25-2.89,1.32-2.15.08-4.34,0-6.52.05a24.8,24.8,0,0,0-2.74.11l4.36.23s0,.1,0,.15c-.48,0-1,.07-1.45.07a5,5,0,0,0-2.25.33,6.16,6.16,0,0,1-2.66.26c-1.48-.06-3.51-.34-4.57.26-.4.23-.06.57-.06.85h-4.14l2,2.12-.83.14c2.47.2,1.24,1.13,3.26,1.45l-2,.33c.64.29,1.41.5,1,1s.93.83,1.33,1.27c.16.18-.17.39-.08.58s.27.61.68.65c1,.1,1.53.82,3.18.31a2.89,2.89,0,0,1,.78,0,39.76,39.76,0,0,0,7.92-.1,50.19,50.19,0,0,1,5.45-.13c2.15,0,4.27.22,6.41.25,2.48,0,5,0,7.45,0a9,9,0,0,1,1.42.07,18.39,18.39,0,0,0,7.43-.29,25.4,25.4,0,0,1,3.45-.36l-.12.19c.39.24.6.62,1.22.7a9.84,9.84,0,0,0,3.81-.19,32,32,0,0,1,3.77-.42l-.38-.82c3.92-.14,2.34-1,2.18-1.74,1.5.08,2.87.22,4.21.2a26.11,26.11,0,0,0,6.15-.44c.41-.11,1.44,0,2.09,0a15.86,15.86,0,0,0,1.8-.36l-1.05-.46c1.25-.33,1.9-.76.73-1.32-.27-.13,0-.36,0-.54-.15-.48-.68-1-3.14-1.12-1.28-.06-2.78-1.14-2.33-1.66.66-.75-1.24-1.46-3.74-1.42-1.39,0-2.79,0-4.18,0a1.79,1.79,0,0,1-.81-.31,12.5,12.5,0,0,0-4.87-.76,3,3,0,0,0-.81.13c-1,.48-1,.49-2.45.06.78-.47,1.56-.91,2.21-1.36.25-.17.19-.39.27-.58-.95,0-1.89,0-2.84,0-.32,0-.64.16-.94.16q-5.87-.11-11.73-.25a4.16,4.16,0,0,1-.48-.06s0-.11,0-.11c3.12-.05,6.24-.11,9.36-.15,1,0,1.92.06,2.88.07,1.9,0,2.44-.17,2.2-.93,1.06.14,1.87.26,2.72.36C329.83,340.53,330.42,340.6,331,340.61Zm-41.88,10.17c-1,0-2,0-2.93,0-.58,0-1.16-.07-1.74-.08a9.86,9.86,0,0,0-1,.1l-.13-.21,6.4-.31.32.16A2.31,2.31,0,0,1,289.14,350.78ZM305,341.06l1.86,0,0,0-1.39-.16a13.33,13.33,0,0,1,1.79-.15c.79.11,1.48.28,2.21.43A9.71,9.71,0,0,1,305,341.06Zm-5-14.63c-.22.12,0,.31,0,.47a9.73,9.73,0,0,0,1.57,0,10.31,10.31,0,0,0,1.52-.62l4.63.67a1.76,1.76,0,0,1,.6.17c1,.73-1.44,1.66-4,1.66-2.81,0-5.64.08-8.43.2-1.17,0-1.8,0-2.05-.34a19.58,19.58,0,0,1-1.58-2.2c-.07-.12.36-.32.73-.42,1.86-.49,4-.17,6-.16C300.46,325.84,300.66,326,299.92,326.43Zm22.09,5.9c2-.51,4-.11,5.6-.13-.38.38-.73.71-1,1s-.6.73-.91,1.11a34.39,34.39,0,0,0-3.58,0A18.37,18.37,0,0,1,318,334c-2-.21-4.11-.34-6.39-.52a5.09,5.09,0,0,1-.77-.64c-.1-.12,0-.29.23-.39.66-.34,1.87-.64,2-1,.31-.72,2.1-.49,3.31-.62a2.65,2.65,0,0,1,2,.38,6.85,6.85,0,0,0,1.85.95A5.37,5.37,0,0,0,322,332.33Zm-34.72-6.73c.7,0,1.42,0,2.14,0l.24.18L283,327.65l-.41-.1.41.45c-1.3.09-2.47.19-3.67.24a4.47,4.47,0,0,1-1.28-.17c-1.93-.61-1.07-1.65,1.33-2.1C281.9,325.48,284.64,325.71,287.29,325.6Zm142.87,15a54.48,54.48,0,0,1,7.59.76,28.21,28.21,0,0,0,2.87.13c1.5.06,3,.09,4.51.19,2.36.15,3.28-.12,2.83-.83a14.24,14.24,0,0,1-.79-1.65c-1.14,0-1.88-.32-1.59-.84l-8.2-.21.17.1a8.09,8.09,0,0,1-1.22.19c-2.76,0-5.53,0-8.29,0-.37,0-.75,0-1.09,0-1.43.09-1.83.07-1.67-.27.29-.64-1.3-.7-2.41-.87-2.92-.43-6.07-.64-9.2-.89-2.5-.2-5.16-.17-7.55-.5a14.07,14.07,0,0,0-1.6,0c-2.21,0-4.31.37-6.59.15a2.83,2.83,0,0,0-1.18.26,2.41,2.41,0,0,0-.59.78l-1.57.12.5.25c-1.28-.07-2.36-.18-3.43-.16s-2.1.16-3.26.26l-.2-.38-2.56.06.57.13c0,.33-.32.62,0,.83a5.89,5.89,0,0,0,1.91.3c.74,0,1.06,0,1.27.3a6.56,6.56,0,0,0,1.75.52c1.51.42,1,1,1.11,1.5a2.15,2.15,0,0,1-.09.63l-1.26.24L393,342l-.12-.33a5.72,5.72,0,0,1,.93,0,23.14,23.14,0,0,1,2.85,1.16c1,.56-1.19,1.25-2.89,1.32-2.15.08-4.34,0-6.52.05a24.8,24.8,0,0,0-2.74.11l4.36.23s0,.1,0,.15c-.48,0-1,.07-1.45.07a5,5,0,0,0-2.25.33,6.16,6.16,0,0,1-2.66.26c-1.48-.06-3.51-.34-4.57.26-.4.23-.06.57-.06.85h-4.14l2,2.12-.83.14c2.47.2,1.24,1.13,3.26,1.45l-2,.33c.64.29,1.41.5,1,1s.93.83,1.33,1.27c.16.18-.17.39-.08.58s.27.61.68.65c1,.1,1.53.82,3.18.31a2.89,2.89,0,0,1,.78,0,39.76,39.76,0,0,0,7.92-.1,50.19,50.19,0,0,1,5.45-.13c2.15,0,4.27.22,6.41.25,2.48,0,5,0,7.45,0a9,9,0,0,1,1.42.07,18.39,18.39,0,0,0,7.43-.29,25.4,25.4,0,0,1,3.45-.36l-.12.19c.39.24.6.62,1.22.7a9.84,9.84,0,0,0,3.81-.19,32,32,0,0,1,3.77-.42l-.38-.82c3.92-.14,2.34-1,2.18-1.74,1.5.08,2.87.22,4.21.2a26.11,26.11,0,0,0,6.15-.44c.41-.11,1.44,0,2.09,0a15.86,15.86,0,0,0,1.8-.36l-1.05-.46c1.25-.33,1.9-.76.73-1.32-.27-.13,0-.36,0-.54-.15-.48-.68-1-3.14-1.12-1.28-.06-2.78-1.14-2.33-1.66.66-.75-1.24-1.46-3.74-1.42-1.39,0-2.79,0-4.18,0a1.79,1.79,0,0,1-.81-.31,12.5,12.5,0,0,0-4.87-.76,3,3,0,0,0-.81.13c-1,.48-1,.49-2.45.06.78-.47,1.56-.91,2.21-1.36.25-.17.19-.39.27-.58-.95,0-1.89,0-2.84,0-.32,0-.64.16-.94.16q-5.87-.11-11.73-.25a4.16,4.16,0,0,1-.48-.06s0-.11,0-.11c3.12-.05,6.24-.11,9.36-.15,1,0,1.92.06,2.88.07,1.9,0,2.44-.17,2.2-.93,1.06.14,1.87.26,2.72.36C429,340.53,429.57,340.6,430.16,340.61Zm-41.88,10.17c-1,0-2,0-2.93,0-.58,0-1.16-.07-1.74-.08a9.86,9.86,0,0,0-1,.1l-.13-.21,6.4-.31.32.16A2.31,2.31,0,0,1,388.28,350.78Zm15.81-9.72,1.86,0,0,0-1.39-.16a13.33,13.33,0,0,1,1.79-.15c.79.11,1.48.28,2.21.43A9.71,9.71,0,0,1,404.09,341.06Zm-5-14.63c-.22.12,0,.31,0,.47a9.73,9.73,0,0,0,1.57,0,10.31,10.31,0,0,0,1.52-.62l4.63.67a1.76,1.76,0,0,1,.6.17c1,.73-1.44,1.66-4,1.66-2.81,0-5.64.08-8.43.2-1.17,0-1.8,0-2.05-.34a19.58,19.58,0,0,1-1.58-2.2c-.07-.12.36-.32.73-.42,1.86-.49,4-.17,6-.16C399.6,325.84,399.8,326,399.06,326.43Zm22.09,5.9c2-.51,4-.11,5.6-.13-.38.38-.73.71-1,1s-.6.73-.91,1.11a34.39,34.39,0,0,0-3.58,0,18.37,18.37,0,0,1-4.11-.26c-2-.21-4.11-.34-6.39-.52a5.09,5.09,0,0,1-.77-.64c-.1-.12,0-.29.23-.39.66-.34,1.87-.64,2-1,.31-.72,2.1-.49,3.31-.62a2.65,2.65,0,0,1,2,.38,6.85,6.85,0,0,0,1.85.95A5.37,5.37,0,0,0,421.15,332.33Zm-39.06-4.68-.41-.1.41.45c-1.3.09-2.47.19-3.67.24a4.47,4.47,0,0,1-1.28-.17c-1.93-.61-1.07-1.65,1.33-2.1,2.56-.49,5.3-.25,8-.36.7,0,1.42,0,2.14,0l.24.18Zm-83.29-97.47a53.76,53.76,0,0,0,32,20.62c5.29,1.07,8.18,1.22,9.34,1.57,2.7,1,5.3,1.44,7.49,2.08.37.1-1.69.42-3.49.6-9,.9-19.66-1.84-28.34-6.45-6.58-3.79-7.12-4.71-3.92-3,1,.46.33-.16.43-.29-2.19-1.32-4.88-3.54-6.05-4.4-2.47-2-4.22-3.21-5.68-4.64a56.63,56.63,0,0,1-10.93-19.2,27.6,27.6,0,0,1-.81-2.77C288.44,209.43,291.56,220.82,298.81,230.18Zm-6.93-29.58c-.65-2.8-.52-8.1-.79-8.81-.59-1.44.86-9.3,3-14.28,1.73-4.26,3.24-6.45,4.49-7.78s3.22-3.59,5.6-5.9c.91-1,4.45-4.34,5.41-5.2,6.21-6,14.61-9.36,21.37-10.92a39,39,0,0,0-4,2.19c-1.19.81-2.14,1.56-3.19,2.35a49,49,0,0,0-12.66,7.66A56.07,56.07,0,0,0,300,172.77a49,49,0,0,0-7.22,25.49c-.11.75-.27,2.37-.48,3.3C292.23,202,292,201.51,291.88,200.6Zm68.82,52a61.14,61.14,0,0,0,9.61-4.11c1.24-.68,2.44-1.46,3.63-2.24.93.59,2.2,1.37,3.86,2.32,8.68,4.62,19.33,7.36,28.34,6.45,1.8-.18,3.86-.49,3.49-.6-2.2-.64-4.8-1.12-7.49-2.08-1.16-.34-4.05-.5-9.34-1.57a51.91,51.91,0,0,1-16.21-6.39,59.31,59.31,0,0,0,5.88-5c.18.1.34.23.53.33a21.92,21.92,0,0,0,4.39,1.71,9,9,0,0,0,2.45.07,50.16,50.16,0,0,0,6,1.48,17.84,17.84,0,0,1-1.84-.68,42.36,42.36,0,0,0,13.23,1.35,41.74,41.74,0,0,0,12.38-2.64l.85.09a41.85,41.85,0,0,0,9-4.45l-2,1c0-.36.74-1.17-.4-.73-.9.33-4.21,2-6.72,2.77-2.63,1-3.84,1.18-4.68,1.14-.6,0-4.24.55-6.54.65-5.65-.13-3.77-.79-4.14-1.29-.12-.18.17-.38.31-.65.33-.07,1.82-.12,4.42-.53a40.71,40.71,0,0,1-7.31-.14l.41.35a19.24,19.24,0,0,1-3.28-.27,34.06,34.06,0,0,1-9.32-3.52c-3-1.78,4.13.61,9.74,1.08A40,40,0,0,0,421,233.3a32.89,32.89,0,0,0,7.67-4.78,39.11,39.11,0,0,1-12.81,6.38l0-.14c1.49-.52,3-1.09,4.42-1.71a23.35,23.35,0,0,0,6.23-3.86c1.27-1.27,3.62-2.95,6.29-5.87,3.37-3.37,6.9-9.13,7.38-12.56.22-1.26-.47-.38-.73-.49a36.17,36.17,0,0,0,2.28-12.68,38.47,38.47,0,0,1-2.66,5.85l.22-2.43c-.58,3.59-1.11,4.39-1.61,5a16.5,16.5,0,0,0-2,3.72,37.33,37.33,0,0,0,1.28-5.32c-.75,1.67-1.44,3.62-1.64,2.5-.08-.83-1.62,2.09-2.4,2.86-.35.3-.16-.54-.44-.41a2.49,2.49,0,0,0-1.35,1.27c-1.29,2.28-2.45,2.93-4.66,6.34a12.32,12.32,0,0,1-1.28,1.43,33.62,33.62,0,0,1-17.31,8.33,27,27,0,0,1-13.34-1.53,29.94,29.94,0,0,1-19-26.26,16.24,16.24,0,0,1,.11-3.53,42.33,42.33,0,0,1,2.41-9.2,48.82,48.82,0,0,1,4.14-7.65,27.26,27.26,0,0,1,6.23-6l-.15.31a12.6,12.6,0,0,0,3-.93,55.71,55.71,0,0,1,8.73-3.1c2.13-.73,5.89-.83,9.32-.44l-.83-1c5,.65,6.42,1.24,6.72,1s-.66-1-.75-1.45a33.13,33.13,0,0,1,9.9,5.49c4.54,3.44,8,8.5,10.32,12.9a32.36,32.36,0,0,1,1.73,5.44,46.61,46.61,0,0,1,1,4.86,15.74,15.74,0,0,0,.16-3c.81,3.42,1.1,5.37,1.57,1.92.1-.8.36.07.54-.11s.45-.77.42-2.16a21.1,21.1,0,0,0-1.41-7.25c-1.17-3.7-2.86-8.19-1.69-7.26,1.68,1.56-.38-4.66-6.82-10.15a41,41,0,0,0-11.89-6.95c-.94-.34-1.86-.92-2.47-1.15a28.28,28.28,0,0,0-6.92-2,35,35,0,0,0-9.29,0c-1,.17-2.25.41-2.72.55-3.19,1.31-3.12,1.12-7.9,2.5a51.3,51.3,0,0,1,6.84-3.59c.8-.39.58-.53.83-.77a41.24,41.24,0,0,0-9.56,3.12c-1,.54-2,1.07-2.91,1.65a41,41,0,0,0-8.2,6c-.11-.12-.24-.23-.36-.35l.2-.21a41.47,41.47,0,0,1,8.36-6c6-3.14,8.06-3.45,6.92-4a44.71,44.71,0,0,1,9.75-1.67,53.56,53.56,0,0,1,6.35.08,39.89,39.89,0,0,1,24.62,10.51,48.71,48.71,0,0,1,6.83,7.55,41,41,0,0,1,6.57,14.43,62,62,0,0,1,1.33,8.6c.22,1.65.49,2.08.8,1.26a29.55,29.55,0,0,1,1.5-2.95c-.31-4.23-.75-7,0-6.07A45.54,45.54,0,0,0,432.76,162l.47.47-3.86-2.58a45.27,45.27,0,0,0-30.11-7c-1.37.23-2.82.36-4.11.67-5.26,1.33-6.6,2.18-6.19,1.56.85-1-5,1-8.71,3.32a42.15,42.15,0,0,0-7.51,5.47c-.65-.6-1.21-1.31-1.9-1.87.74-.71,1.45-1.4,2.3-2.16a49,49,0,0,1,12.66-7.66c1-.79,2-1.54,3.19-2.35a39,39,0,0,1,4-2.19c-6.77,1.56-15.16,4.88-21.37,10.92-.46.41-1.5,1.38-2.56,2.38l-1.63-1.09a45.27,45.27,0,0,0-30.11-7c-1.37.23-2.82.36-4.11.67-5.26,1.33-6.6,2.18-6.19,1.56.85-1-5,1-8.71,3.32A45.85,45.85,0,0,0,297,186.64c-2.63,9.66-1.51,20.65,2,29.62a42.55,42.55,0,0,0,2.93,5.74c4.55,7.66,11.17,13.36,19.14,17.79a21.92,21.92,0,0,0,4.39,1.71,9,9,0,0,0,2.45.07,50.16,50.16,0,0,0,6,1.48,17.84,17.84,0,0,1-1.84-.68,42.36,42.36,0,0,0,13.23,1.35,41.74,41.74,0,0,0,12.38-2.64l.85.09a42,42,0,0,0,6.43-2.91c1,.77,2.06,1.61,3.37,2.65,1.1.8,3.53,2.78,5.64,4.12-.16.12-.33.21-.48.33-1.6-.81-1.91-.75-.44.28a57.77,57.77,0,0,1-13.41,7.19C359.94,252.78,360.32,252.69,360.7,252.62Zm54.88-24.22a36.41,36.41,0,0,0,7.25-3.55,33.32,33.32,0,0,0,3.83-2.94,14.34,14.34,0,0,0,2-2.11l.4-.14a33.2,33.2,0,0,1-14.74,9.74l-.91.06C414.17,229.18,414.74,228.76,415.59,228.4Zm-41.84-59.06a41.63,41.63,0,0,0-11.11,25.44l-.15,1.69c0-.07-.1-.1-.1-.17A42.11,42.11,0,0,1,370,173.16c.58-.61,1.15-1.22,1.79-1.77l-.23-.26c.59-.74,1.18-1.47,1.82-2.17ZM358.31,233c.48-.22.8-.43,1.24-.65l.19.25a38.89,38.89,0,0,1-5.82,2.26l0-.14C355.38,234.24,356.87,233.67,358.31,233Zm-5.94-3.63-.91.06c.75-.29,1.32-.71,2.16-1.07a23.06,23.06,0,0,0,2.61-1.1c.08.15.19.29.27.43A36,36,0,0,1,352.37,229.42Zm5.95-2.7-.2-.32c.93-.5,1.86-1,2.76-1.54,1.09-.82,2.23-1.56,3.26-2.46l.12.17A32.69,32.69,0,0,1,358.32,226.72Zm6.7-13.29a40.9,40.9,0,0,1-1.84-7.73c.58,1.89,1.57,5.26,3.05,8.92l-.21.27-.06-.12-.11-.12c0,.09.09.19.13.28l-.2.26A15,15,0,0,1,365,213.43Zm3.64-45.26c-.17-.16-.32-.31-.5-.47-.51-.43-1.1-.74-1.63-1.14.62-.72,1.31-1.46,2-2.19.41.34.88.63,1.27,1l.73.71C369.89,166.74,369.27,167.45,368.66,168.17Zm2.18-6.1.44.44-.53-.35ZM306,219.14a32,32,0,0,1-3-5.71,40.9,40.9,0,0,1-1.84-7.73c.89,2.92,2.63,9.26,5.92,14.94a42.12,42.12,0,0,1-3.13-5.87l-.11-.12A46.22,46.22,0,0,0,306,219.14Zm-5.37-24.37-.15,1.69c0-.07-.1-.1-.1-.17a42.19,42.19,0,0,1,13.38-29.8,41.47,41.47,0,0,1,8.36-6c6-3.14,8.06-3.45,6.92-4a44.71,44.71,0,0,1,9.75-1.67,53.56,53.56,0,0,1,6.35.08,39.25,39.25,0,0,1,21.71,8.25c-.27.27-.57.57-.71.73-.53.52-1,1-1.45,1.47a40.8,40.8,0,0,0-8.48-4.54c-.94-.34-1.86-.92-2.47-1.15a28.28,28.28,0,0,0-6.92-2,35,35,0,0,0-9.29,0c-1,.17-2.25.41-2.72.55-3.19,1.31-3.12,1.12-7.9,2.5a51.3,51.3,0,0,1,6.84-3.59c.8-.39.58-.53.83-.77a41.24,41.24,0,0,0-9.56,3.12c-1,.54-2,1.07-2.91,1.65A42.15,42.15,0,0,0,300.67,194.77ZM320,215.89A29.22,29.22,0,0,1,313.57,199a16.24,16.24,0,0,1,.11-3.53,42.33,42.33,0,0,1,2.41-9.2,48.82,48.82,0,0,1,4.14-7.65,27.26,27.26,0,0,1,6.23-6l-.15.31a12.6,12.6,0,0,0,3-.93,55.71,55.71,0,0,1,8.73-3.1c2.13-.73,5.89-.83,9.32-.44l-.83-1c5,.65,6.42,1.24,6.72,1s-.66-1-.75-1.45a30.29,30.29,0,0,1,7.3,3.73,27.93,27.93,0,0,0-3.66,6.78c-2.18,5-3.63,12.84-3,14.28.26.71.14,6,.79,8.81.16.91.35,1.39.45,1,.2-.93.37-2.55.48-3.3A49,49,0,0,1,362,172.77l.25-.36.13.09a23.63,23.63,0,0,1,1.9,1.66A45.06,45.06,0,0,0,359,186.64c-2.63,9.66-1.51,20.65,2,29.62.4.87.85,1.89,1.36,2.92a34.4,34.4,0,0,1-6.06,4.09c-4-7-5.72-12.66-5.4-9a27.6,27.6,0,0,0,.81,2.77,56.34,56.34,0,0,0,3,7,33.61,33.61,0,0,1-8.66,2.66,27,27,0,0,1-13.34-1.53A29.34,29.34,0,0,1,320,215.89Zm38.37,23.9c-2.63,1-3.84,1.18-4.68,1.14-.6,0-4.24.55-6.54.65-5.65-.13-3.77-.79-4.14-1.29-.12-.18.17-.38.31-.65.33-.07,1.82-.12,4.42-.53a40.71,40.71,0,0,1-7.31-.14l.41.35a19.24,19.24,0,0,1-3.28-.27,34.06,34.06,0,0,1-9.32-3.52c-3-1.78,4.13.61,9.74,1.08a40,40,0,0,0,21.1-3.32c.29-.13.56-.31.85-.45.85,1.15,1.7,2.3,2.66,3.4.42.42.95.83,1.43,1.23A55.5,55.5,0,0,1,358.33,239.8Zm8.53-2.75.55-.33-.58.31a53.35,53.35,0,0,1-4.8-5.3,30.53,30.53,0,0,0,4.7-3.21,39,39,0,0,1-4.86,3l-.2-.25a19.58,19.58,0,0,0,2.87-2.09c.65-.65,1.58-1.41,2.7-2.38A50.83,50.83,0,0,0,381,238.56a56.33,56.33,0,0,1-5.64,5.15A54.65,54.65,0,0,1,366.86,237Zm90.77-16.9c-4.45,11.73-14,22.12-25.35,28.35a61.14,61.14,0,0,1-9.61,4.11c-.39.07-.76.16-1.16.19a57.12,57.12,0,0,0,25.58-18.91,15.42,15.42,0,0,0,1.31-1.43,15.8,15.8,0,0,1-1.58,1.2A59.28,59.28,0,0,0,455.63,219l2.17-5.59c1.45-4.28,2.1-5.48,2.2-4.13S459.65,214.63,457.62,220.15Zm-280.3-7.83-.14.79c.07-1.9-.06-3.62-.07-5.37V189.91c0-3,.08-5.91-.22-9.1a33.21,33.21,0,0,0-2.44-9.06,30.06,30.06,0,0,0-2.35-4.37c-3.67-5.33-5.49-6.19-4.61-6.05,1.48.47-3.85-4.83-8.7-6.94a33.33,33.33,0,0,0-10-3.05c-3.71-.38-6.82-.32-10.17-.42l-20.12-.38-8.16-.12-4.16,0a34.68,34.68,0,0,0-4.64.35,35.38,35.38,0,0,0-16.61,7,31.94,31.94,0,0,0-5.51,5.56,33.68,33.68,0,0,0-6.53,14.44,44.12,44.12,0,0,0-.61,7.83l-.06,7.24a48.25,48.25,0,0,0,.26,5.05,11,11,0,0,0,.78,2.53c0,1.87.07,4.1.12,6.74l.25-2.14c-.11,5.27-.3,10.63,1.29,15.44a32.3,32.3,0,0,0,7.9,12.94l.37.94a34,34,0,0,0,10,6.74c-1.3-.69-2-1.12-2.34-1.29.32-.2,1.59.1.4-.71-.91-.71-4.65-3.07-6.78-5.39-2.36-2.38-3.17-3.59-3.51-4.52a44.24,44.24,0,0,1-3.26-7.06c-1.69-6.46-.27-4.49,0-5,.15-.17.41.12.71.22a30.52,30.52,0,0,0,1.82,4.81,30,30,0,0,1-1.82-8.2l-.25.52a29.39,29.39,0,0,1-.25-3.8c.37-4.3.74-9,1.16-12.25.56-4.33,1.26,5.1,1.32,12.41A26.5,26.5,0,0,0,90.9,231.64a24.13,24.13,0,0,0,9.12,4.28,26.07,26.07,0,0,1-13.27-8.64l.12-.09a30.45,30.45,0,0,0,3.85,3.62A17.45,17.45,0,0,0,98,234.46a36.59,36.59,0,0,0,9.54,1.28c6.36.06,15.11.34,19.64-.26,1.7-.23.28-.57.28-.85h17.81l-8.57-2.12,3.56-.14c-10.61-.2-5.35-1.13-14-1.45l8.42-.33c-2.77-.29-6-.5-4.44-1,1.25-.36-4-.83-5.72-1.27-.7-.18.72-.39.34-.58a5.94,5.94,0,0,0-2.94-.65c-4.49-.1-6.6-.82-13.67-.31l-1.52,0-1-.08a17.45,17.45,0,0,1-14.09-9.94,14.25,14.25,0,0,1-1.34-6c0-3.94,0-7.94,0-11.81,0-4.61.08-9.2.13-13.79a8.93,8.93,0,0,1,.06-1.31l.06-.92c0-.61.22-1.2.28-1.8a18.66,18.66,0,0,1,1.21-3.43,16.28,16.28,0,0,1,13.31-9.38l.85,0,.43,0h.81l2.92.06c10.35.43,23.73.26,32-.29l3.05-.14c.63.05,1.34,0,2,.07a18.07,18.07,0,0,1,4.25,1l-.33.09c.75.59,1,1.06,2.18,1.88a23.47,23.47,0,0,1,6,6.12,12,12,0,0,1,1.58,3.53,15.57,15.57,0,0,1,.48,2.29c0,.79.17,1.44.17,3.22l.82-1.63c.14,16.87,1,10.05,1.74,9.36l-.26,17.65c-.09,5.65-3.33,11.09-7.09,14.43-.76.88-3.32,2.16-5,2.8a23.94,23.94,0,0,1-4.71,1.49,21.53,21.53,0,0,0,3-.09c-3.36,1.1-5.43,1.43-1.84,1.71.82,0-.05.37.15.53a3.16,3.16,0,0,0,2.31.24,16.82,16.82,0,0,0,7.34-2.82c3.54-2.22,7.34-5.82,6.83-4.29-.44,1.13.63.59,2.21-1.47a21.48,21.48,0,0,0,4-10.42c.21-2.4.15-5.53.16-8.53s0-6,0-9a26.88,26.88,0,0,1,.31-3.49c.19-1.45.48-5.21.53-9.06A24.05,24.05,0,0,0,170,173.34a14.87,14.87,0,0,0-1.58-2.72c-2.55-2.93-2.3-3-6.15-7.07a31.22,31.22,0,0,1,6.77,5.59c.67.76.73.46,1.08.65a28.92,28.92,0,0,0-7.78-8.61,33.42,33.42,0,0,0-3.32-2,28.43,28.43,0,0,0-11.41-3.49c-4-.26-8.34-.11-12.49-.18l-25.21-.13-2-.06c.08,0,.11-.11.2-.11,13.37,0,26.91-.27,40.16,0a28.61,28.61,0,0,1,11.34,3.71c6.76,4.16,7.82,6.52,7.83,5.05a30.22,30.22,0,0,1,5.76,10,32.8,32.8,0,0,1,1.6,7.23c.24,11.61-.12,22.38-.72,32.44a30.64,30.64,0,0,1-3.67,11.14,29,29,0,0,1-13.52,12.1,33.22,33.22,0,0,1-9.7,2.5c-1.9.23-2.4.51-1.46.81,1.39.42,2.2,1,3.49,1.39,5-.63,8.14-1.92,7.12-.91A32.2,32.2,0,0,0,177.32,212.32ZM92.61,224.45A20.45,20.45,0,0,0,99.37,229a18.44,18.44,0,0,0,4.66,1.28,23.2,23.2,0,0,0,3.16.08l.57.21c-1.31,0-1.93,0-2.69,0a18,18,0,0,1-2.23-.24A19.77,19.77,0,0,1,98.53,229a21,21,0,0,1-7.35-5.32,6.54,6.54,0,0,1-.43-.82C91.29,223.46,92,223.75,92.61,224.45Zm-10.2-56.57a31.12,31.12,0,0,1,5.21-5.69l.1-.16a32.74,32.74,0,0,0-4.15,4,25.81,25.81,0,0,1,5.3-5.3,26.81,26.81,0,0,1,8.33-3.92C94,158.15,87,161.67,82.41,167.89Zm-16.68,8.52A55.41,55.41,0,0,0,65,187.66l.15,18.09c0,5.72,0,8.55,0,10.27a53.61,53.61,0,0,0,.18,9.88c.06.47-1.15-2-1.76-4.26a36.28,36.28,0,0,1-1.55-9c-.12-1.78-.11-2.77-.11-3.83v-3.28c0-4.41.07-8.9.11-13.26,0-6.69.2-7.56.61-4.36.12,1,.31.17.47.18,0-1.16,0-2.53,0-3.78l.18-4.31a54.34,54.34,0,0,1,1.42-9.42,44.19,44.19,0,0,1,17.56-22.12c1.26-.76,2.7-1.55,3.25-1.79,6-2-8.45,4.29-15.56,18A43.62,43.62,0,0,0,65.73,176.41Zm35.83-29c-.54,0,0-.31,1.17-.56,4-.65,8.66-.78,9.47-1.18,1.35-.72,9-.49,14.24-.62a44.1,44.1,0,0,1,8.72.38c1.83.34,4.67.67,8,.95a84.75,84.75,0,0,1,8.83.74c10.93,1.29,20.06,8.77,24.8,16a35.25,35.25,0,0,0-4.26-3.66,30.82,30.82,0,0,0-4.14-2.47A35.27,35.27,0,0,0,152,149.09a40.76,40.76,0,0,0-5.87-.58l-4.53-.11-8.33-.24-27.61-.48C104.75,147.6,102.72,147.37,101.57,147.36Zm7.62,106.08,1.77.1-1.77-.45,15.76-.24c1.73,0,4.18.08,5.51.17,8.28.61,4.62,1.65-5.73,2.1-5.51.24-11.21.31-17,.32-1.11,0-3.79-.09-5.77-.22a47.67,47.67,0,0,1-6.3-1.14,44.15,44.15,0,0,1-11.76-4.77,42.67,42.67,0,0,1-10.48-8.51l-.87-1.24a44.79,44.79,0,0,0,17.36,11.51,43,43,0,0,0,10.12,2.3,36.64,36.64,0,0,0,5.14.23C107.16,253.65,107.82,253.5,109.19,253.44Z"/></svg>