<svg id="Layer_1" data-name="Layer 1" xmlns="http://www.w3.org/2000/svg" viewBox="0 0 512 512"><defs><style>.cls-1{fill:#141f38;}</style></defs><title>dollar-bill-glyph</title><path class="cls-1" d="M512,166.4V192H486.4a64.07,64.07,0,0,1-64-64V102.4H448A64.19,64.19,0,0,1,512,166.4ZM422.4,384v25.6H448a64.19,64.19,0,0,0,64-64V320H486.4A64.07,64.07,0,0,0,422.4,384ZM89.6,128V102.4H64a64.19,64.19,0,0,0-64,64V192H25.6A64.07,64.07,0,0,0,89.6,128Zm-64,192H0v25.6a64.19,64.19,0,0,0,64,64H89.6V384A64.07,64.07,0,0,0,25.6,320ZM278,251.62a23,23,0,0,0-6.4-2.72,82.26,82.26,0,0,0-13.49-2.25c-9.12-.95-14.09-2.6-14.09-7,0-5.09,3.55-6.87,12-6.87,6.51,0,9.59,2.25,12,6.87,1.78,3.31,3.32,3.79,6.51,2.37l8.17-3.67c3.67-1.54,4.5-3.31,2.72-6.63-4-8.64-10.77-13.73-20.36-15.39v-4.85c0-3.2-1.06-4.26-4.38-4.26h-9c-3.2,0-4.38,1.07-4.38,4.26v4.85c-14.68,2.37-22.61,10.89-22.61,23.32,0,7.69,3.08,13.73,6.75,16.93a20.62,20.62,0,0,0,7.34,4.14c6,2.37,9.47,2.72,16.1,3.55,9.35.95,14,2.49,14,7.22,0,5.09-4.5,7.58-13.5,7.58-6.75,0-11.13-2.37-13-7.22-1.54-3.43-3.2-4.14-6.63-2.84l-8.05,2.84q-4.79,1.78-3.19,6.39c3.67,9.71,11.25,15.51,22.84,17.28v4.85c0,3.32,1.19,4.38,4.38,4.38h9c3.31,0,4.38-1.06,4.38-4.38V295.3c14.68-2.72,23-11.48,23-24.15C288.45,261,283.35,254.82,278,251.62Zm208.37-34H512v76.8H486.4A89.6,89.6,0,0,0,396.8,384v25.6H115.2V384a89.6,89.6,0,0,0-89.6-89.6H0V217.6H25.6A89.6,89.6,0,0,0,115.2,128V102.4H396.8V128A89.6,89.6,0,0,0,486.4,217.6ZM358.4,256A102.4,102.4,0,1,0,256,358.4,102.4,102.4,0,0,0,358.4,256Z"/></svg>