<svg id="Layer_1" data-name="Layer 1" xmlns="http://www.w3.org/2000/svg" viewBox="0 0 512 512"><defs><style>.cls-1{fill:#707070;}</style></defs><title>dollar-bill-handdrawn</title><path class="cls-1" d="M511.9,228.23c-.06-8.08-.12-16.07-.19-24.23-.09-13.79.19-27.4-.21-41.35A63.85,63.85,0,0,0,459.14,104c-7-1.39-14.07-1-20.87-1H395.86c-28.36.09-36.42.07-33.3-.27,5.79-.64-25.86-.7-47.88-.87l-183-.89-37.77-.12c-6.39,0-12.63-.1-19.17,0a64.11,64.11,0,0,0-19.88,3.55A66.4,66.4,0,0,0,10.22,164.1c-.31,9.5-.1,21.27-.16,32,.05,43.9.1,85.75.15,131.23,0,2.94,0,7.95.07,12.64l.44,6.9.78,4.45a46.6,46.6,0,0,0,4,11.67,64.53,64.53,0,0,0,18.7,26.37,68.12,68.12,0,0,1-7.13-7.49,64.15,64.15,0,0,0,47.63,22.93c5.53.16,10.76.06,16.09.09l64.93-.26,4,.38,51-.06-11.3-.13c.68-.33,6.34-.62.07-.83-5-.16-24.2-.28-37.91-.3-14.73,0-21,0-25.26-.3-3.1-.21-22.53-.35-34.76-.52-30.05-.42-20.17-1-22.06-1.5-.66-.19,1-.37,1.78-.63l25-.24-21.44-.18c-6.61-.16-12.83.23-19.49-1.22l2.26.68c-6.18-.69-15.1-3.85-17.2-5.25a59.27,59.27,0,0,1-22-18.86,57.69,57.69,0,0,1-10-23.21c-.68-4.74-.62-5.72-.23-4.05A65.48,65.48,0,0,0,21.45,360a59.39,59.39,0,0,0,11.14,18.2A60.26,60.26,0,0,0,52,392.63a65.35,65.35,0,0,0,7,2.75,68.16,68.16,0,0,0,7.31,1.71c5,1,9.84.89,15.38.91h97.49l54.43-.11-86.82-.23.06-.15,28.84-.07c18.93,0,33,0,44.78-.33,10.84-.27,28.66-.3,53-.26,29.42.06,69.94.34,90.89-.26,7.87-.23,1.27-.57,1.27-.85h22.42c3.82.46,7.63.93,11.45,1.28-.1-.43-.17-.86-.27-1.28h.36c.11.44.23.87.33,1.31,1.45.13,2.91.2,4.36.28-.13-.53-.23-1.06-.35-1.59h2.64c.81,1,2.94.44,4.75.54l7.55,0,4.22,0c1.51-.2,3-.36,4.53-.55h20.42L433.62,395l4-.8-13.44-.12-7.31,0-8.43-.45,16.48-.14c-6.88,0-12.28-.07-16.66-.12a14.52,14.52,0,0,1,0-4.28,4.83,4.83,0,0,0,.1-.72l-.11-1.92-.44-5.61c-.38-5.48.58-13.51.24-15a21.3,21.3,0,0,1,.07-3.8c.19-1.85.66-4,.85-5.47.14-1,.11-1.54-.12-1.13-.49.88-1.17,2.54-1.51,3.31a83.52,83.52,0,0,0-2,29.67c.2,1.86.43,3.33.74,4.92l-2.65,0c-.26-1.39-.48-2.77-.66-4.18-.24-1.86-.42-3.75-.53-5.64a71.79,71.79,0,0,1,.22-11.35c.88-12,4.49-24.66,10.44-34.56l4-6.55c6-8.71,13-16.36,22.25-22.35,1.23-.71,4.07-2.63,4.71-3.16,1.22-1,1.35-1.46,2.09-2.1l6.84-3.4c-.65.19-1.16.41-2.3.81a88.44,88.44,0,0,1,15.88-5.2,87.47,87.47,0,0,1,15.77-2.3l1,.33a67.74,67.74,0,0,1,12.48.49c-2.41-.41-3.42-.51-2.74-.43.19-.31,1.62-.46.09-.82a46.09,46.09,0,0,0-9.4-.58c-3.66.16-5.23.25-6.31,0-.8-.25-5.62.46-8.7.72-7.44,1.34-5.18.28-5.77-.14-.21-.14.15-.42.28-.72a59.69,59.69,0,0,1,6.23-1.65c-4.13.53-6.9,1.43-10.49,2.15l.7.16c-1.58.45-3.87,1.43-4.52,1.58a53.61,53.61,0,0,0-7.44,2.48c-2.35,1-4.69,1.69-6.43,2.61-2.37,1.14-1.26,0,1.53-1.85A67,67,0,0,1,454.38,292a92.85,92.85,0,0,1,33.81-5.5,95.37,95.37,0,0,1,10.48.93c0,20.28.06,39.91.09,57.64a52.5,52.5,0,0,1-3.84,15,52.93,52.93,0,0,1-35.58,30,49.32,49.32,0,0,0,16.2-6.26A53.37,53.37,0,0,1,456,391.82c-1.41.33-1.57.47-.15.38a37.75,37.75,0,0,0,9.23-1.81c4.33-1.46-.45.55.53.38,1.27-.27,4.31-.63,11.25-4.65a49.58,49.58,0,0,0,12.46-10.33,54.59,54.59,0,0,0,13.43-31.69l.27-4.32.08-4.75.45-16.86c.34-9.53.74-14.75,1-10.26.75,13,1.46-24.63,1.42-74.48,0-13.82,0-27.71,0-41.58V171.05c.07-3.55-.1-6.78-.27-10a61.6,61.6,0,0,0-1.77-9.48,62.39,62.39,0,0,0-5.52-14,57,57,0,0,0-29.54-25.84,41.3,41.3,0,0,0-6.4-2.07,46.39,46.39,0,0,0-6.69-1.34,99.68,99.68,0,0,0-13.89-.63l-25.8,0-16.2.13c-19.92.48-19.59.49-48.66.06l43.94-1.36a21.83,21.83,0,0,0,5.46-.58H344.15l-18.74.16-233.36-.25-9.47-.06a5.87,5.87,0,0,1,.94-.11l186.24-.15,57.29.07c37.82,0,48.64-.17,43.76-.93l54,.36,17.2.1c5.84,0,11.7,0,17.46,1.17a61.53,61.53,0,0,1,49.26,52.81c.67,6.09.42,12.3.41,18.45s-.08,12.25-.12,18.32C509,208,508.87,220,508.78,232c0,16.15-.09,38-.13,57.17,0,15-.05,30-.08,45,.81,14.92-3,29.61-11.67,41.25a60.51,60.51,0,0,1-22,18.63,59.23,59.23,0,0,1-17.75,5.77c-9,1.2-11.36,1.13-6.91,1.39a68.49,68.49,0,0,0,15.67-.87,67,67,0,0,0,23.48-12.71c4.56-3.78,6-5.64,4.29-3.21a64.39,64.39,0,0,0,17.8-37.68c.56-7.11.31-13.81.38-20.64s0-13.6,0-20.38c0-27.12.07-54,.11-81ZM17.21,152.89c-1.93,7.53-1.66,16-1.73,24.82s-.15,17.89-.23,26.94c0-13.73,0-25.35,0-37l0-.85c0,5.61-.06,11.23-.16,27.58,0-18.52-.49-29.25.4-35.52a60.1,60.1,0,0,1,20.13-37.41A62.39,62.39,0,0,0,17.21,152.89ZM31,289c1.3,0,6.28-.25,9.82,0,3.8.21,5.43.29,6.5.63L56,291.39c7.39,2.19,4.76,2.2,5.11,2.79.11.22-.33.3-.59.5a56.74,56.74,0,0,0-6.13-1.14c3.94.77,6.55,1.81,9.92,2.71l-.48-.47c1.52.44,3.76,1.3,4.35,1.54a48.84,48.84,0,0,1,6.71,3.39,45.25,45.25,0,0,1,5.55,3.5c2,1.54.58,1-2.21-.3-2.91-1.08-7.12-3.13-11.05-4.32a87.87,87.87,0,0,0-30.8-4.91,73,73,0,0,0-8.1.72v-2.77c0-1.43,0-2.88,0-4.31,1.36-.1,2.24-.16,2.57-.17C30.75,288.49,29.32,288.93,31,289Zm-2.65,6.55.24,0q2.6-.31,5.22-.45a69.13,69.13,0,0,1,10.45.2l0,.15c-2.31,0-4.63-.27-6.93-.17a49.93,49.93,0,0,0-9,.91Zm0,6.11,1.22-.18a67.12,67.12,0,0,1,14.22-.52l1.41.23a33.35,33.35,0,0,1-3.85.19,68.24,68.24,0,0,0-12.95.61H28.3C28.3,301.85,28.3,301.73,28.3,301.62Zm.15-75.82a87.17,87.17,0,0,0,16.5.23l1.81.07c-1.59.22-3,.52-4.85.63a72.83,72.83,0,0,1-13.46-.57Zm16.31-5.32c-2.57.11-5.13.44-7.7.33-3.48-.1-6.13-.29-8.61-.49q0-.26,0-.52c1.58.2,3.16.39,4.76.51a77.53,77.53,0,0,0,11.56,0ZM77.63,388.16A47.62,47.62,0,0,1,56.84,384c-13-5.76-23.5-17.86-26.92-31.42a48.59,48.59,0,0,1-1.69-12.23V324.48q0-7.4,0-14.78c.08-1.32.17-2.59.25-3.89.13-.06.18,0-.08-.24,0,0-.06-.12,0-.09l.3.07,3.18-.37c1.38-.13,2.75-.24,4.13-.3a92.64,92.64,0,0,1,16.65,1,71.39,71.39,0,0,1,21.64,7.67A72.5,72.5,0,0,1,95,331a73.64,73.64,0,0,1,14.22,27.82,32.62,32.62,0,0,1,1.23,5.88,102.83,102.83,0,0,1,.85,16.41L111,385.2l-.2,2c-.09.77,0,.29,0,.46a1.61,1.61,0,0,1,.23.4l-5,0c-.59-.1-1.19-.19-1.94-.26,0,.09,0,.18.08.27h-.48Zm32.86-58.74c2.45,4,4.06,6.15,4.71,7.63a76.09,76.09,0,0,1,4.09,10.28,128,128,0,0,0-10.46-19.9c2.15,2.7,3.38,5.39,5,7.83l.15.16Zm12.76,32.69c-.13-.81-.17-1.6-.32-2.35.07.08.14.11.17.2a95.75,95.75,0,0,1,1.63,23.25c-.11,1.62-.28,3.2-.48,4.77h-.44A84.35,84.35,0,0,0,123.24,362.11ZM147.4,392l-6.35-.16c5.66-.13,10.54-.37,17.14-.38l58.35,0,34.7.08,20.84-.1,2.66.21ZM360,392l25.29-.21.14.77C381.21,392.36,375.27,392.15,360,392Zm38.72,1.16c-.1-.49-.23-1-.31-1.48h.47q.13.74.27,1.49Zm.08-31.49c.14-.83.26-1.62.46-2.39,0,.1.07.15,0,.26a97.73,97.73,0,0,0-1.5,23.78c.2,2.73.59,5.53,1.07,8.36h-.47A86.51,86.51,0,0,1,398.79,361.69Zm10-27.4-.07.21,3.81-6c-2.36,4.12-3.79,6.44-4.53,7.91-1.8,3.59-3.67,6.61-5,10.13,1-4.27,5.21-12.91,10.91-20.26C411.74,329.08,410.46,331.81,408.81,334.3Zm68.77-53.66c1.59-.22,3-.52,4.85-.63a78.93,78.93,0,0,1,16.23.86c0,.11,0,.22,0,.33l-1.23-.16a87.3,87.3,0,0,0-18-.34Zm21-76.12-.63.18-1.12.26c-.4.08-.51.12-2,.33a67.12,67.12,0,0,1-14.22.52l-1.41-.23a33.35,33.35,0,0,1,3.85-.19,68.24,68.24,0,0,0,12.95-.61,21,21,0,0,0,2.44-.39l.18-.06C498.6,204.39,498.6,204.45,498.6,204.51Zm-18.46,6.84c2.31,0,4.63.27,6.93.17a44.46,44.46,0,0,0,10.4-1.24c.33-.1.73-.21,1.12-.31v.9c-.79.13-1.59.24-2.8.39q-2.6.31-5.22.45a69.13,69.13,0,0,1-10.45-.2Zm16.75,75.7q-2.86-.4-5.75-.62a77.53,77.53,0,0,0-11.56,0v-.15c2.57-.11,5.13-.44,7.7-.33,4.78.14,8,.44,11.39.71v.69C498,287.23,497.38,287.12,496.88,287.05ZM458.73,119.82a45.54,45.54,0,0,1,14.86,6.12,36.88,36.88,0,0,0-4.79-3.56,51.23,51.23,0,0,1,22.78,21.47l1.86,3.63,1.06,2.63,1.07,2.39c.73,1-1.11-5.75-1.54-7a50.77,50.77,0,0,1,4.45,17.24l.19,4.48,0,5.31q0,5.29,0,10.5c0,.42,0,.82,0,1.23-.36-.76-.8,4.86-1.21,6.8-.18.82-.39-.85-.58-.4a8,8,0,0,0-.65,3.45c-.05,2.61-.26,4.62-.39,6.84-.13.06-.18,0,.08.24,0,0,.05.12,0,.09l-.3-.07-3.18.37c-1.38.13-2.75.24-4.13.3a92.64,92.64,0,0,1-16.65-1A71.39,71.39,0,0,1,450,193.17a72.5,72.5,0,0,1-20.66-17.44,73.64,73.64,0,0,1-14.22-27.82,32.65,32.65,0,0,1-1.23-5.88,102.83,102.83,0,0,1-.85-16.41l.27-4.08.2-2c.09-.77,0-.29,0-.46a1.84,1.84,0,0,1-.15-.25l28.36-.2C448.9,118.55,453.3,118.66,458.73,119.82Zm-44.89,57.5c-2.45-4-4.06-6.15-4.71-7.63a76.09,76.09,0,0,1-4.09-10.28,128,128,0,0,0,10.46,19.9c-2.15-2.7-3.38-5.39-5-7.83l-.15-.16Zm-12.76-32.69c.13.81.17,1.6.32,2.35-.07-.08-.14-.11-.17-.2a95.75,95.75,0,0,1-1.63-23.25c.11-1.58.4-3,.59-4.56h.3A84.34,84.34,0,0,0,401.09,144.63ZM241.45,118.55l68.68-.36-2.32.19c7.81.24,11.95.62,24.25.7,18.7.12,38.29.14,57.81,0a54.66,54.66,0,0,0-.49,6c-.22,6.8.5,16.75,1.64,18.34a31.35,31.35,0,0,1,1.19,4.43c.58,2.17,1.46,4.62,2.05,6.33.4,1.1.72,1.67.7,1.11,0-1.2-.33-3.27-.43-4.24a94.8,94.8,0,0,1-1.45-32l2.64,0c-.17,1.24-.36,2.48-.47,3.74a79.08,79.08,0,0,0-.16,12.34,92.24,92.24,0,0,0,10.47,38.15c1.22,2.12,2.88,4.85,4.39,7.26,6.6,9.67,14.82,17.45,24.71,24.37,1.32.84,4.62,2.66,5.44,3a9.83,9.83,0,0,0,3,.85l7.44,3.42c-.64-.33-1.14-.67-2.25-1.33a83.26,83.26,0,0,0,16.83,5.86A81.3,81.3,0,0,0,482,218.62l1,.43a73.4,73.4,0,0,0,13.36-.66c-1.64.13-2.59.18-3,.2.15-.34,1.58-.78-.06-.82-1.3,0-6.28.25-9.82,0-3.8-.21-5.43-.29-6.5-.63l-8.77-1.79c-7.39-2.19-4.76-2.2-5.11-2.79-.11-.22.33-.3.59-.5a56.76,56.76,0,0,0,6.13,1.14c-3.94-.77-6.55-1.81-9.92-2.71l.48.47c-1.52-.44-3.76-1.3-4.35-1.54a48.84,48.84,0,0,1-6.71-3.39,45.26,45.26,0,0,1-5.55-3.5c-2-1.54-.58-1,2.21.3,2.91,1.08,7.12,3.13,11.05,4.32a87.87,87.87,0,0,0,30.8,4.91,70.27,70.27,0,0,0,10.67-1.15c0,4.28,0,8.58,0,12.83,0,17.63.06,35.7.08,53.46l-.54-.08-2.88-.34c-1.92-.19-3.85-.34-5.78-.4a104.94,104.94,0,0,0-23.08,2,112.25,112.25,0,0,0-29.89,10.93,98.58,98.58,0,0,0-48.72,62.39,82.74,82.74,0,0,0-1.87,8.16,91,91,0,0,0-1.68,22.84c.12,1.94.3,3.86.54,5.72l.4,2.75,0,.27c-7.11-.17-11.5-.37-6.78-.66,5.81-.36-18.45-.83-26.47-1.27-3.23-.18,3.34-.39,1.56-.58a115,115,0,0,0-13.61-.65c-20.77-.1-30.52-.82-63.27-.31l-15.42,0c-43.07-.21-84.53-.18-126.78,0a54.59,54.59,0,0,0,.52-6.27c.22-6.8-.5-16.75-1.64-18.34a31.35,31.35,0,0,1-1.19-4.43c-.58-2.17-1.46-4.62-2-6.33-.4-1.1-.72-1.67-.7-1.11,0,1.2.33,3.27.43,4.24a94.71,94.71,0,0,1,1.43,32.25h-2.64c.18-1.32.38-2.64.5-4a79.08,79.08,0,0,0,.16-12.34,92.23,92.23,0,0,0-10.47-38.15c-1.22-2.12-2.88-4.85-4.39-7.26-6.6-9.67-14.82-17.45-24.71-24.37-1.32-.84-4.62-2.66-5.44-3a9.83,9.83,0,0,0-3-.85l-7.44-3.42c.64.33,1.14.67,2.25,1.33A83.26,83.26,0,0,0,59.18,290a81.3,81.3,0,0,0-16.86-1.92l-1-.43a72.62,72.62,0,0,0-13,.62c0-3.53,0-7.08,0-10.6a89.4,89.4,0,0,1,16.73-1.2l-1.39-.25a78.28,78.28,0,0,0-12.59.11c-.92.08-1.84.21-2.76.31,0-15.57.06-31.13.09-46.78l.66.08c1.92.19,3.85.34,5.78.4a104.94,104.94,0,0,0,23.08-2,112.25,112.25,0,0,0,29.89-10.93,100.58,100.58,0,0,0,29-23.68,100.52,100.52,0,0,0,19.76-38.7,82.63,82.63,0,0,0,1.87-8.16,91,91,0,0,0,1.68-22.84c-.11-1.7-.28-3.36-.47-5C176.6,119.14,214.83,118.94,241.45,118.55ZM111.79,178.19c2.36-4.12,3.79-6.44,4.53-7.91,1.8-3.59,3.67-6.61,5-10.13-1,4.27-5.21,12.91-10.91,20.26,2.22-2.74,3.51-5.47,5.16-8l.07-.21Zm14.75-54.79c-.1-1.43-.34-2.9-.53-4.36h.37a86.32,86.32,0,0,1-.83,26c-.14.83-.26,1.62-.46,2.39,0-.1-.07-.15,0-.26A97.73,97.73,0,0,0,126.54,123.39Zm-33-4.55c7.22.07,14.79.12,22.52.15l.08,1.31.44,5.61c.38,5.48-.58,13.51-.24,15a21.26,21.26,0,0,1-.07,3.8c-.19,1.85-.66,4-.85,5.47-.14,1-.11,1.54.12,1.13.49-.88,1.17-2.54,1.51-3.31a83.67,83.67,0,0,0,2-29h2.65c.16,1.41.31,2.83.4,4.25a71.79,71.79,0,0,1-.22,11.35c-.88,12-4.49,24.66-10.44,34.56l-4,6.55c-6,8.71-13,16.36-22.25,22.35-1.23.71-4.07,2.63-4.71,3.16-1.22,1-1.35,1.46-2.09,2.1l-6.84,3.4c.65-.19,1.16-.41,2.3-.81a88.44,88.44,0,0,1-15.88,5.2,87.47,87.47,0,0,1-15.77,2.3l-1-.33a67.73,67.73,0,0,1-12.48-.49c2.41.41,3.42.51,2.74.43-.19.31-1.62.46-.09.82a46.09,46.09,0,0,0,9.4.58c3.66-.16,5.23-.25,6.31,0,.8.25,5.62-.46,8.7-.72,7.44-1.34,5.18-.28,5.77.14.21.14-.15.42-.28.72A59.69,59.69,0,0,1,55,216.22c4.13-.53,6.9-1.43,10.49-2.15l-.7-.16c1.58-.45,3.87-1.43,4.52-1.58a53.59,53.59,0,0,0,7.44-2.48c2.35-1,4.7-1.69,6.43-2.61,2.37-1.14,1.26,0-1.53,1.85A67,67,0,0,1,70,214.73a92.85,92.85,0,0,1-33.81,5.5c-2.67-.11-5.06-.27-7.7-.57V202.15l.07,0c.2,0-.2-.1.65,0a63.23,63.23,0,0,0,14.23-.48l-1-.13a57.48,57.48,0,0,1-9,0c-1.39-.09-2.77-.24-4.16-.43l-.44-.06h0c0-.17,0,.36-.08-.41l-.24-9.68V173.26c0-6.78,0-11,.9-15.76a52.18,52.18,0,0,1,4.78-13.41,54.07,54.07,0,0,1,8.59-11.45,48.27,48.27,0,0,1,25-13,39.2,39.2,0,0,1,5.62-.66l2.9-.16H80Zm5.09,297c1.47.12-7.1.32-14.51.42l-7,.08c-2.52,0-5.71-.19-8.57-.33A78,78,0,0,1,51,412.05a76.32,76.32,0,0,1-48.58-53.1A78.58,78.58,0,0,1,0,340.22Q0,332.56,0,325c0-31,.2-35,.61-20.16.12,4.45.31.8.47.85,0-10.66,0-25.13,0-31.19L.45,244.16c.11-15.87.23-31.38.34-46.68Q.86,186,.95,174.69c.08-4-.08-7.05.27-12a46.26,46.26,0,0,1,.7-6.8,52.82,52.82,0,0,1,1.32-6.71,65.66,65.66,0,0,1,4.9-13.66c2.77-5.35,3.37-5.94,2.14-3.12A84.63,84.63,0,0,0,4.1,150.95c-.49,2.34-.74,4.89-1.13,7.55-.22,2.66-.28,5.58-.36,8.42.05,5,.11,10.38.18,16.07,0,11.39.1,23.94.15,36.62,0,28,0,56,.05,84l0,21,0,10.49,0,5.29.32,6.18a73.15,73.15,0,0,0,20.14,44A74.67,74.67,0,0,0,50,408.32a80.48,80.48,0,0,0,15.46,4.4,77.79,77.79,0,0,0,10.19,1.4l8.29.58ZM55.94,100.5c-2.13.57.25-.45,4.85-1.67a65,65,0,0,1,12.66-1.91c4.78-.35,8.68-.23,12.85-.37,8.07-.16,14.88-.32,16.39-.5,6.24-.72,41.7-.49,65.87-.62,20.53-.1,32.26.05,40.35.38,8.45.34,21.63.67,36.87.95l34.58.11c39.51-.51,79.24-.11,111.41-.13l-20.57,1-18,1.11-71.18,0c-33,.15-54.92-.12-81.73-.26-40.26-.13-81.55-.5-127.44-.35C68.9,97.94,60.55,99.4,55.94,100.5ZM379.76,414.14c38.34.61,21.37,1.65-26.53,2.1-51,.49-105.54.25-158.21.36H152.52l-4.72-.18,133.53-1.87,8.2.1-8.19-.45,72.94-.24ZM245,341a8.3,8.3,0,0,1-.87-.2Zm72.94-156.2-.1-.07c-.3-.25-.58-.53-.89-.78Zm-86.47-14.3c1.87-1.33-9.51,2.61-16.5,7.27a89.06,89.06,0,0,0-42.55,83.44A99.24,99.24,0,0,0,179,288.83c1.54,3.16,3.3,7.45,5.6,10.88,8.62,14.51,21,25.69,36.29,33.94,2,1,6.94,3.31,8.25,3.49a34,34,0,0,0,4.42.89,86.48,86.48,0,0,0,10.57,2.77c-.71-.2-1.47-.48-2.73-.86a84.13,84.13,0,0,0,25.58,2.44,83.18,83.18,0,0,0,24-4.83l1.52-.2a57.52,57.52,0,0,0,7.93-3.32l4.47-2.18,4.92-3L306.06,331c.08-.38,1.77-1.71-.33-.64-.8.49-2.87,1.43-5.31,2.53l-3.81,1.77-3.88,1.4a35.42,35.42,0,0,1-9.09,2.54c-.59,0-2.61.63-5.12.93l-7.68.92c-11.17.2-7.48-.48-8.19-.9-.24-.15.35-.34.64-.58.67-.11,3.69-.13,9-.81a83.46,83.46,0,0,1-14.94.11l.85.33a46.74,46.74,0,0,1-6.69-.54A77,77,0,0,1,232,332.1c-6.48-3.1,8.09,2.72,20,3.81a83.89,83.89,0,0,0,44.67-7,64.31,64.31,0,0,0,8.35-4.45,61.07,61.07,0,0,0,8-5.57A83.11,83.11,0,0,1,286,332.74l0-.13c3.19-1.07,6.39-2.23,9.47-3.57A68.06,68.06,0,0,0,309,321.15l5.84-4.69c2.2-2.17,5.16-4.41,7.9-7.67a53.52,53.52,0,0,0,5.31-6.32,54.41,54.41,0,0,0,4.87-7.21,51.1,51.1,0,0,0,3.75-7.23,32.72,32.72,0,0,0,2.29-6.17c.76-2.64-.32-.58-.55-.67a79.43,79.43,0,0,0,5-27.81,90.58,90.58,0,0,1-3.07,13.29l.69-5.5c-.63,4.08-1.11,6.62-1.49,8.33-.55,1.68-.91,2.56-1.24,3.35-.71,1.56-1,2.84-3.58,9a85.88,85.88,0,0,0,3.47-12.38c-1.31,4-2.72,8.78-2.49,6.31.35-1.85-2.66,5.44-4,7.65-.6.87.16-1.1-.24-.65a13.64,13.64,0,0,0-2.4,3.66c-3.11,5.8-5.08,8.21-11.39,16.37-.59.66-2.21,2.6-3.3,3.59a78.3,78.3,0,0,1-44.08,21,72.36,72.36,0,0,1-33.75-4.07c-12.75-4.54-23.76-13-32.27-23.39-9.61-12.2-15.79-27.38-16.26-43.06a53.29,53.29,0,0,1,.16-9A85.15,85.15,0,0,1,194,224.3a90.59,90.59,0,0,1,11.26-19,76,76,0,0,1,16.08-14.62l-.54.52c2.27-1.06,3.48-1.58,6.9-3.37a87.82,87.82,0,0,1,22.46-7.64c5.51-1.4,15-1.68,23.62-.44l-2.28-1.08c12.38,1.73,15.79,3.59,16.35,3.34s-2-1.41-2.38-1.9A76.55,76.55,0,0,1,309.37,193c10.86,8.27,19.38,20.43,24.17,31.27l2.17,5.82,1.88,7.17c.71,4.21,1.66,7.69,1.79,11.6a39.53,39.53,0,0,0-.3-6.92c1.41,8.1,1.48,12.51,1.75,4.66,0-1.8.33.21.47-.19s.34-1.68,0-4.77a59.68,59.68,0,0,0-3.7-16c-1.29-4.17-3.39-8.43-4.57-11.51-1.45-2.94-2.09-4.69-1.09-3.47,2.76,3.81-2.39-9-15.94-20.56a85,85,0,0,0-25.2-14.69c-2-.71-4-1.73-5.33-2.07l-5.7-1.75c-2.55-.63-5.68-1.07-9-1.68a83.52,83.52,0,0,0-19.38.16l-5.7,1c-6.79,2.15-6.72,1.79-16.53,5.16l7.47-3.4,7.18-2.49a5.25,5.25,0,0,0,1.83-.91,85.22,85.22,0,0,0-19.44,6.35c-2.09,1.08-4.17,2-6,3.19-24.73,13.73-41.91,40.36-43.51,68.74l-.23,3.44a1,1,0,0,1-.08-.34,85.53,85.53,0,0,1,27.24-60.27c4.95-4.9,10.88-8.71,16.87-12.26,3-1.63,5.64-2.76,7.67-3.81l4.88-2c2.3-1,2.75-1.36,1.8-1.37,3.68-1.19,7.07-1.82,10.21-2.57,3.21-.39,6.2-.95,9.26-1.16a95.7,95.7,0,0,1,12.76,0,83.3,83.3,0,0,1,50.12,20.5c4.3,4,10.12,9.43,14,15.26a84.39,84.39,0,0,1,13.6,29.34A93.94,93.94,0,0,1,347.45,250c.29,3.37.55,4.22.78,2.58.33-2.4.73-3.72,1.15-5.81-.67-8.37-1.83-13.8-.89-11.8a88.9,88.9,0,0,0-30.68-50.21c-2.45-1.71-4.8-3.53-7.34-5.15-17.18-11.49-38.54-16.1-59-13.74-2.68.45-5.52.73-8,1.32C233.14,169.68,230.51,171.37,231.44,170.51Zm56.5,155.78c6-1.9,11.7-5.14,17.14-8.46,3.07-2.28,6.27-4.32,9-7a41,41,0,0,0,4.82-4.87l.72-.52a78,78,0,0,1-34.88,22.5l-2.07.38A50.28,50.28,0,0,0,287.95,326.29ZM190.08,300l-3.6-6-2.78-5.82-.17-.26a93.26,93.26,0,0,0,4.5,9,63.47,63.47,0,0,1-3.89-7.18,28.22,28.22,0,0,1-2-4.43A87.93,87.93,0,0,1,178,269.8C179.38,275.78,183,288.77,190.08,300ZM168.4,282.42c-1.33-8.35,3.32,11.87,16.17,28.48,13.61,18.43,34.17,32,56.52,36.61,4.66,1,8.32,1.36,11,1.88,2.72.24,4.51.39,5.54.58,4.79,1.07,9.32,1.21,13.07,1.72.62.07-2.95.44-6.06.67-15.56,1.16-33.79-3.32-48.78-11.23-11.32-6.53-12.37-8-7-4.76,1.65.88.43-.06.53-.16a126.21,126.21,0,0,1-10.51-7.65,110.69,110.69,0,0,1-9.48-8.43,98.26,98.26,0,0,1-19.42-33C169.31,285.3,168.6,283.21,168.4,282.42Zm.1-39.6a50.1,50.1,0,0,1,1.32-10.44c.63-2.47,1.24-5.18,2-7.81l2.68-7.43c1.62-3.8,3.12-6.69,4.31-9,1.4-2.22,2.53-3.87,3.49-5.17a53.25,53.25,0,0,1,3.94-5,76.38,76.38,0,0,1,5.52-6.27c.89-.86,2.76-3,4.79-5l5-4.6c11.65-10.66,26.71-17,39.11-19.85a79.67,79.67,0,0,0-7.6,3.05l-6.3,3.34A96.1,96.1,0,0,0,203.23,183c-9.67,8.47-15.15,15.21-20.58,24.15-8.2,13.35-12.84,29.73-12.93,47.45-.06,1.39-.12,4.38-.26,6.07-.06.79-.26-.11-.44-1.78C168.14,253.71,168.67,244.05,168.51,242.82Zm167.56,73.82a103.81,103.81,0,0,0,15.65-25.59c1.1-3.12,2.91-7.43,3.66-9.87,2.28-7.59,3.07-9.72,2.91-7.44a77.65,77.65,0,0,1-4.91,18.48c-8,20-24.31,37.93-43.85,48.6l-8,3.89c-2.77,1.16-5.64,2.12-8.45,3.16a17.5,17.5,0,0,1-1.94.47,103.6,103.6,0,0,0,25-12.61,100.37,100.37,0,0,0,20.25-18.9,24.36,24.36,0,0,0,2.23-2.56A24.12,24.12,0,0,1,336.07,316.64ZM83.64,187.24c-.69.66.05.35.14.48a38.81,38.81,0,0,0,5.11-4.35A33.09,33.09,0,0,0,93,178.32a69.25,69.25,0,0,0,11.69-15.81c.47-.91,1-1.9,1.27-2.25,2.4-3.72-.57,6.74-7.61,15.61-7.48,9.85-17.76,17.51-28.83,22.7-4.74,2-7.4,2.8-8.55,2.84-2.72-.07-5.17-.2-7.14-.43-.33,0,1.4-.7,2.89-1.19,7.48-2.3,16-5.62,23.09-10.46C85.1,185.38,86,185,83.64,187.24ZM394.7,171.17c-1.63-5.62,4.29,7.33,13.37,18.73,9.75,12.78,23.18,22.66,37.69,29.1,6.18,2.51,9.58,3.68,10.87,4.43,3.06,1.56,6,3.06,8.33,4.41.4.23-2.09-.2-4.24-.64-10.77-2.09-22.54-7.51-32.34-14.26-7.35-5.47-8.13-6.36-4.41-4,1.12.69.38-.11.49-.22-2.59-1.76-5.61-4.74-7-5.86a85,85,0,0,1-6.69-5.88,95.67,95.67,0,0,1-14.71-22.54C395.5,173.14,394.89,171.72,394.7,171.17Zm85.93,59.32-1.39-.25a90.49,90.49,0,0,0,19.22-1.54q0,.54,0,1.08c-1.74.24-3.48.45-5.23.6A78.28,78.28,0,0,1,480.64,230.49Zm-351,105.07c1.63,5.62-4.29-7.33-13.37-18.73-9.75-12.78-23.18-22.66-37.69-29.1C72.4,285.22,69,284,67.71,283.3c-3.06-1.56-6-3.06-8.33-4.41-.4-.23,2.09.2,4.24.64C74.39,281.62,86.16,287,96,293.8c7.35,5.47,8.14,6.36,4.41,4-1.12-.69-.38.11-.49.22,2.59,1.76,5.61,4.74,7,5.86a85,85,0,0,1,6.69,5.88,95.66,95.66,0,0,1,14.71,22.54C128.84,333.6,129.45,335,129.63,335.56Zm311.06-16.07c.69-.66-.05-.35-.14-.48a38.77,38.77,0,0,0-5.11,4.35,33.07,33.07,0,0,0-4.13,5.05,69.26,69.26,0,0,0-11.69,15.81c-.47.91-1,1.9-1.27,2.25-2.4,3.72.57-6.74,7.61-15.61,7.48-9.85,17.76-17.51,28.83-22.7,4.74-2,7.4-2.8,8.55-2.84,2.72.07,5.17.2,7.14.43.33,0-1.4.7-2.89,1.19-7.48,2.3-16,5.62-23.09,10.46C439.23,321.35,438.38,321.69,440.69,319.49Zm56.88-14.81-.1.34a5.71,5.71,0,0,0,.45-.53l.07.79a14.36,14.36,0,0,1,.07,2c0,3.06.07,6,.1,9.06,0,2-.08,4.91-.17,6.47-.61,9.73-1.65,5.43-2.1-6.74l-.25-9.85c0-.77-.07-.23-.08-.41h0l-.44-.06c-1.39-.19-2.78-.34-4.16-.43a57.49,57.49,0,0,0-9,0l-1-.13a63.23,63.23,0,0,1,14.23-.48c.84.08.45,0,.65,0l.22-.08a4,4,0,0,1,.55-.12C497,304.31,497.55,304.26,497.57,304.68ZM273.09,285.56l-2.93.44v.08a24.83,24.83,0,0,1-.57,8.63c.3.92-.44,1.71-1,2.26l-1,1.19-1.08,2.51a1,1,0,0,1-1,.53,1,1,0,0,1-.55-.3l-1.63,1.75a1,1,0,0,1-1.23.13.86.86,0,0,1-.28-1.15l1-1.66a.88.88,0,0,1-.45-.76v-1.68a1.6,1.6,0,0,1-.84,0l-.19.26a.93.93,0,0,1-1.1.32.89.89,0,0,1-.59-.94l.18-1.36a4,4,0,0,1-.11-.64,15.27,15.27,0,0,1-.09-2c0-.35,0-.64,0-.9s0-.39,0-.59l.11-.73a.75.75,0,0,1,0-.17l0-.13a8.76,8.76,0,0,1-.08-1.86v-.56a3.09,3.09,0,0,1,.13-1v0a.8.8,0,0,1,0-.34l.17-1.75s0-.07,0-.1c-1-.13-1.88-.29-2.7-.47a29.49,29.49,0,0,1-14.47-8.16,33.28,33.28,0,0,1-3.51-4.13,29,29,0,0,1-2.34-4.08l-.15-.31a.87.87,0,0,1,0-.8,1.69,1.69,0,0,1,.94-2,2.14,2.14,0,0,1,1-.24,1.62,1.62,0,0,1,.19-.8l.25-.48a.94.94,0,0,1,.81-.49h.31a1,1,0,0,1,1.48.06l3.72,5.09a23,23,0,0,0,13.49,9.13l.36.07a1.12,1.12,0,0,1,.33.15c.46.11.94.19,1.45.28a31.43,31.43,0,0,0,8.7.1,20.07,20.07,0,0,0,7.95-2.45c.34-.2.67-.41,1-.63l-.57-.64a.86.86,0,0,1,.07-1.22l.25-.23a8.87,8.87,0,0,0,2.31-3.24,6.78,6.78,0,0,0,.32-1l.13-.55c0-.3.08-.49.11-.66a13.29,13.29,0,0,0,.22-2.55,10.14,10.14,0,0,0-.43-2.35,6.11,6.11,0,0,0-1.4-2.14l-.41-.38a11,11,0,0,0-2.12-1.62,17.08,17.08,0,0,0-4.4-1.69,10.87,10.87,0,0,1-1.47-.46h0c-.07,0-2.14-.41-3.78-.62-.49-.08-1.75-.28-2.11-1.28-.75-.07-1.48-.17-2.22-.25a1.68,1.68,0,0,1,.07.69c-.05.36-.36,1.56-2.14,1.56h-.29l-1.67-.22a37.9,37.9,0,0,1-11.9-3.8,21.29,21.29,0,0,1-3.88-3.12,18.84,18.84,0,0,1-1.89-2.39,2.25,2.25,0,0,1-.83-.86v0l-.12-.22a11.89,11.89,0,0,1-1.39-4.77,16.86,16.86,0,0,1,2.39-9.69,22.56,22.56,0,0,1,5.65-6.62c1.47-1.26,2.52-1.7,3.43-1.43l.48.15a.9.9,0,0,1,.63.67l.21,1c0,.11-.08.19-.1.3a21.87,21.87,0,0,1,3.66-1.89.92.92,0,0,1-.57-.51l-.68-1.61a.88.88,0,0,1,.47-1.14l.91-.41a26.5,26.5,0,0,1,4-1.07,6.63,6.63,0,0,1,.09-1.18c0-.08,0-.16.07-.26l-.12-.28a.9.9,0,0,1-.06-.33v-.24c0-.15,0-.35,0-.54s0-.56,0-.84a16.66,16.66,0,0,1,.08-2.05c0-.13,0-.28.07-.43l-.25-1.6a.88.88,0,0,1,.57-1,.94.94,0,0,1,1.1.31l.25.33a1,1,0,0,1,.45,0,1.76,1.76,0,0,1,.45.06V208.9a.88.88,0,0,1,.44-.75l-.86-1.5a.87.87,0,0,1,.28-1.15,1,1,0,0,1,1.23.13l1.51,1.58a.93.93,0,0,1,.58-.32,1,1,0,0,1,1,.52l1.22,2.72.61.61a.91.91,0,0,1,.29.38c.53.56,1.22,1.3,1,2.19a17.1,17.1,0,0,1,.69,5,22.63,22.63,0,0,1,2.87.54,24.22,24.22,0,0,1,10.31,5.5,19.07,19.07,0,0,1,4.23,5.18,1.81,1.81,0,0,1-.65,2.53c-1.39.82-2.28-.2-3.06-1.08l-1.16-1.3a30.13,30.13,0,0,0-2.19-2.12,21,21,0,0,0-7.84-4.4l-.34-.1a1,1,0,0,1-.38-.23c-.63-.18-1.28-.34-1.95-.46,0,.56-.05,1.09-.07,1.61.47.08.93.16,1.39.26,3.32.7,7.52,3.12,9.17,5.3a2.42,2.42,0,0,1,.5.86A21.72,21.72,0,0,1,285.3,237l.12.31a.88.88,0,0,1-.47,1.12l-1.62.74a1,1,0,0,1-1.21-.37l-.17-.29c-.2-.34-.41-.68-.64-1a.93.93,0,0,1-.73-.46l-.17-.3c-.24-.39-.45-.75-.65-1.06a.78.78,0,0,1-.78-.35l-.21-.27c-.23-.29-.45-.53-.62-.72a4.58,4.58,0,0,1-1.19-.81l-.43-.36h0l-.41-.15a6.69,6.69,0,0,1-1.38-.77,16.91,16.91,0,0,0-4.68-2.15,4.73,4.73,0,0,0-1-.2,21.12,21.12,0,0,0-6.75.12,16.12,16.12,0,0,0-5.94,2.29,12,12,0,0,0-4.94,6.16c-.51,1.74-.18,2.78,3.11,4.34s7.85,2.44,14.34,3l3.48.38a25.63,25.63,0,0,1,10.86,3.54,17.12,17.12,0,0,1,7.3,8.86,12.25,12.25,0,0,1,.46,1.4,1,1,0,0,1,.31,0,.9.9,0,0,1,.75.94l-.39,5a18.31,18.31,0,0,1-.15,2l-.12,1.55a11,11,0,0,1-.51,2.53,18.33,18.33,0,0,1-7.44,9.56A27.26,27.26,0,0,1,273.09,285.56Z"/></svg>