<svg id="Layer_1" data-name="Layer 1" xmlns="http://www.w3.org/2000/svg" viewBox="0 0 512 512"><defs><style>.cls-1{fill:#141f38;}</style></defs><title>medal-1-glyph</title><path class="cls-1" d="M256,51.2A153.6,153.6,0,1,0,409.6,204.8,153.6,153.6,0,0,0,256,51.2Zm25.6,210.38c0,5.45-1.75,7.22-7.21,7.22H260.14c-5.45,0-7.21-1.76-7.21-7.22V176l-17.06,9.67c-4.76,2.82-8.45,1.94-10.91-2.81l-6.16-11.09c-2.28-4.75-1.4-6.86,3.52-9.68l31.84-18.47a19,19,0,0,1,10.2-2.82h10c5.45,0,7.21,1.76,7.21,7.22Zm114.34,92.68A204.19,204.19,0,0,0,460.8,204.8C460.8,91.69,369.11,0,256,0S51.2,91.69,51.2,204.8a204.18,204.18,0,0,0,64.86,149.46L77.57,460a12.5,12.5,0,0,0,14.12,16.54L135.94,468a12.5,12.5,0,0,1,12.08,4.4l28.38,35a12.5,12.5,0,0,0,21.45-3.6l34.77-95.54a200.51,200.51,0,0,0,46.75,0l34.77,95.54a12.5,12.5,0,0,0,21.45,3.6l28.38-35a12.49,12.49,0,0,1,12.08-4.4l44.24,8.57A12.5,12.5,0,0,0,434.43,460ZM76.8,204.8C76.8,106,157.19,25.6,256,25.6S435.2,106,435.2,204.8,354.81,384,256,384,76.8,303.61,76.8,204.8Z"/></svg>