<svg id="Layer_1" data-name="Layer 1" xmlns="http://www.w3.org/2000/svg" viewBox="0 0 512 512"><defs><style>.cls-1{fill:#141f38;}</style></defs><title>medal-1-outline</title><path class="cls-1" d="M396,354.3A204.22,204.22,0,0,0,460.8,204.8C460.8,91.69,369.11,0,256,0S51.2,91.69,51.2,204.8A204.22,204.22,0,0,0,116,354.3L77.57,460a12.51,12.51,0,0,0,11.67,16.78,12.88,12.88,0,0,0,2.44-.24L135.94,468a12.49,12.49,0,0,1,12.08,4.4l28.38,35a12.49,12.49,0,0,0,21.45-3.6l34.76-95.51a205.2,205.2,0,0,0,46.77,0l34.76,95.51a12.49,12.49,0,0,0,21.45,3.6l28.38-35a12.49,12.49,0,0,1,12.08-4.4l44.24,8.57a12.88,12.88,0,0,0,2.44.24A12.51,12.51,0,0,0,434.43,460Zm-214.25,119-13.81-17a38.1,38.1,0,0,0-36.84-13.41L109.54,447,137,371.51a203.86,203.86,0,0,0,70,32.19ZM76.8,204.8C76.8,106,157.19,25.6,256,25.6S435.2,106,435.2,204.8,354.81,384,256,384,76.8,303.61,76.8,204.8Zm304.13,238a38.1,38.1,0,0,0-36.84,13.41l-13.81,17L305,403.69a203.85,203.85,0,0,0,70-32.19L402.46,447ZM256,51.2A153.6,153.6,0,1,0,409.6,204.8,153.6,153.6,0,0,0,256,51.2Zm0,281.6a128,128,0,1,1,128-128A128.14,128.14,0,0,1,256,332.8ZM281.6,148V261.58c0,5.45-1.76,7.22-7.21,7.22H260.14c-5.45,0-7.21-1.76-7.21-7.22V176l-17.06,9.68c-4.76,2.82-8.45,1.94-10.91-2.81l-6.16-11.09c-2.28-4.75-1.4-6.86,3.52-9.68l31.84-18.47a19,19,0,0,1,10.2-2.82h10C279.84,140.8,281.6,142.56,281.6,148Z"/></svg>