<svg id="Layer_1" data-name="Layer 1" xmlns="http://www.w3.org/2000/svg" viewBox="0 0 512 512"><defs><style>.cls-1{fill:#707070;}</style></defs><title>medal-1-handdrawn</title><path class="cls-1" d="M281.65,148l0-.46v-.35a2.78,2.78,0,0,1,0-.54l.05-.82-.54-.31c-.7-.4-1.48.06-3.07,1.34-.62.5-1.26,1-1.9,1.51a1,1,0,0,0,0-.83,1.15,1.15,0,0,0-.08-.18,3.34,3.34,0,0,1,.63-.68c1.67-1.33,2.18-2,2.05-2.79,0,0,0,0,0-.07a1,1,0,0,0,0-1.07l2.45-3-4.57,2.6a10.59,10.59,0,0,0-1,.56c-.21.14-.47.34-.72.53a5.73,5.73,0,0,1-.57.43,18,18,0,0,0-2,1.22l-1.34-4.17v5.14l-.28.21-.69.51c-.6.44-1.18.92-1.79,1.41a1.38,1.38,0,0,0-1.33.14l0-.53-2.31,1.54c-.5.34-.91.6-1.31.84a.91.91,0,0,0-.79-.47h0c-.62,0-1,.44-1.22,1.87-.35.26-.7.43-1,.73a3.14,3.14,0,0,0-.75,1l-.41.31a14.52,14.52,0,0,1-1.47.95,26,26,0,0,0-5.13,3.66c-.22.2-.55.45-.84.67l-1.73,1.29c-1.05.78-2.1,1.56-3.13,2.35-.7.54-1.38,1.08-2.07,1.63s-1.35,1.08-2,1.6c-1,.77-2.32,1.77-3.54,2.57a55.41,55.41,0,0,0-5.28,3.9,2.69,2.69,0,0,1-.31.24,4.91,4.91,0,0,0-1.74,1.35,3.26,3.26,0,0,1-.43.44,1.62,1.62,0,0,0-.59,1.28,1.08,1.08,0,0,0,0,.27,1.67,1.67,0,0,0-.37,1.21l-3.27,4.18,2.87-1.77-1.38,3.7,4.54-3.41.25.11.41-.14a10.31,10.31,0,0,0,2.77-1.84l.56-.44a13,13,0,0,1,1.27-.91l.27.38-2.54,2.33,5.53-3.26a7.37,7.37,0,0,0-1.32,1.26l-.26.5.12.4c.15.47.51.59.52.56l.64.61,1.87-1.44.33-.44.34-.22c.54-.36,1.06-.7,1.56-1.07.28-.21.56-.43.85-.65l1.82-1.25a2.1,2.1,0,0,0,.6-.05,4,4,0,0,0,1.21-.66c.82-.69,1.66-1.27,2.54-1.88.59-.41,1.18-.81,1.76-1.25l.23-.17c.31-.22.62-.46.86-.67.59-.52,1.25-1,1.89-1.55l-.13.51.41.39a1,1,0,0,0,.7.27,1.46,1.46,0,0,0,.48-.09c.21-.08.46-.19.71-.3s.42-.2.57-.24a1.88,1.88,0,0,0,.74-.21c0,.53,0,1.06,0,1.6v1l.84,3.76c-.42.3-.57.86-.64,1.77-.18,2.25-.15,4.77-.11,7.21,0,.9,0,1.82,0,2.7,0,2,0,2.86.54,3.13,0,.38,0,.72,0,.93-.07.77-.15,1.35-.22,1.87l-.08.73.33,7.54a9.29,9.29,0,0,0,.1,1.13c.2.92.7,1.09,1,1.09h.12c.58-.07,1.45-.16,1.44-7.78,0-4.57,0-9.19.1-13.72a12.37,12.37,0,0,0-.23-3.67,27.33,27.33,0,0,0-1.12-2.67l-.32-.63-.14,0,.63-7.47a4,4,0,0,0,1.35-1.34,6.51,6.51,0,0,1,.81-1.11,6.6,6.6,0,0,1,.84-.68,18,18,0,0,0,2.82-2c.34-.28.66-.54,1-.77l.56-.41V161c0,1.16,0,2.32,0,3.22h-.48c-.05,1.56-.05,3-.05,4.49v5.93h-.62l0-.63a9,9,0,0,0-.24-2.12,8.73,8.73,0,0,1-.08-1.74c0-.11,0-2.6-.17-3.26a1.22,1.22,0,0,0-.46-.8h0a.9.9,0,0,0-.3-.14.94.94,0,0,0-.82.17l-.67,0,0,4.43.18.3,0,1.46c0,1.24-.07,2.42-.08,3.62s0,2.33,0,3.6l0,1.15-.18,2.41a3.3,3.3,0,0,0-.34.93,14.64,14.64,0,0,0-.15,2.14c.07,2.22,0,4.38,0,6.47,0,1.41-.06,2.82-.06,4.25v.82c0,.64,0,1.29,0,1.82.07,1.76.09,3.65.12,5.52l-.13-.33-.7.08c-.78.08-.91.92-1,1.2s-.11.86-.17,1.35-.17,1.5-.17,1.57c-.38.55-.42,1.59-.44,4.18,0,.59,0,1.18,0,1.7a13.37,13.37,0,0,0,.22,3.54,26.22,26.22,0,0,1,.44,2.9c0,.47.08,2.24.05,2.66-.18,2.29-.14,4.6-.09,6.64,0,.89,0,1.75,0,2.55l0,6.27,2-6.55c.12-.4.23-.77.34-1.1s.23-.66.35-1l.09-.24a1.62,1.62,0,0,0,.35.91c0,.54,0,1.39,0,2,0,.38,0,.79,0,1.2v14.11c0,.46,0,.9-.05,1.35l0,.34h-.06l.13,16.9.39-.72.14.24.3.44a5,5,0,0,1,.45.74,1.06,1.06,0,0,0,1,.7.77.77,0,0,0,.21,0c.86-.2,1-.71.95-5.68,0-1.73-.05-3.48-.07-5.23v-.15c.21.55.47.64.71.69a15.31,15.31,0,0,1,.28,2.71c.07,4.61.4,5.31.8,5.72l.12.12c.13.62.38,1.2,1.07,1.2h0c.65,0,.92-.47,1.06-1.31h.4l.05-.75c.05-.71.11-1.41.13-2.22,0-.5,0-1.15,0-1.76s0-1.27,0-1.61c.21-2.54.21-5.55.21-8.46v-1.63c0-1.48,0-3-.05-4.55l0-.77c.45-.19.65-.65.74-2.11l.39.61.15-5.18c0-1.49.07-2.89.14-3.86a51.39,51.39,0,0,0,.09-6.31,6.93,6.93,0,0,0-.24-1.63c0-.15-.08-.3-.11-.48l-.06-.26,0-1.23c0-1.4.05-2.81.13-3.7a98.21,98.21,0,0,0,.15-12.24c0-.62,0-1.51,0-2.27v-4.67q0-3.74,0-7.48c0-1.69,0-3.36-.07-5s-.05-3.6-.06-5.41c0-2.94,0-6.09.07-8.84.14-5.12.16-9.12,0-12.95,0-.34,0-.93,0-1.14a16.55,16.55,0,0,0,0-3.86c0-.45-.09-.89-.11-1.44a2.78,2.78,0,0,0-.45-1.55l-.3-.47h-.07a1.21,1.21,0,0,0,0-.14c0-.13,0-.2-.07-.31l6.44-5Zm-12.56,11.39-.59.05a6.42,6.42,0,0,1-.67,0h-.32a1.32,1.32,0,0,0,.31-.61l.56-.38,2.21-1.67c0,.05,0,.11,0,.16l-.22.3.22-.17c0,.71,0,1.43,0,2.15Zm-25.59,22-.27.73,3.95-2,0-.31a12.07,12.07,0,0,1,.41-1.76c.15-.53.65-1,1.58-1.62,1.85-1.31,3.71-2.66,5.53-4,2.15-1.62,3.59-2.11,4.26-1.53a1.07,1.07,0,0,1,.17,1.39,2.39,2.39,0,0,1-.52.59l-2.83,2.54-.25.16-.31.12a5.57,5.57,0,0,0-.77.34c.06.6-.55,1.06-1.24,1.58-.35.26-.7.54-1.05.82a20.52,20.52,0,0,1-3.05,2.15,2.29,2.29,0,0,1-1,.33,1,1,0,0,1-.26-.08l-.76,1.51-.41.31-1,.75c-.57.4-1.14.83-1.7,1.25a40.31,40.31,0,0,1-3.66,2.54,5,5,0,0,1-2.22.86,1,1,0,0,1-.88-.4c-.64-.79.21-1.72.48-2a6.57,6.57,0,0,1,.92-.82c.57-.41,1.14-.8,1.74-1.21Zm-115.24,267,18-4.13,2.28-.52a32.78,32.78,0,0,1,4.12-.75,21.48,21.48,0,0,1,8.93,1,22.72,22.72,0,0,1,8,4.71,26.77,26.77,0,0,1,3.26,3.59l1.86,2.43,7.33,10.78,8,10.71c.1-.11,1.16,1,.11-.58-1.76-2.67-2.35-3.69-1.5-2.71l2.37,3,4.31,5.71c.09.15.26,0,.26-.07l2.48-7.31,4.19-11.84c1.11-3,2.47-6.53,2.37-5.88-.6,3.91-1.49,8.67-2.51,13.79-.22,1.1-.75,3-1.63,5.74l-1.59,4.9-.65,2c-.09.25-.16.52-.29.78a2.41,2.41,0,0,1-3.28,1.29,3.88,3.88,0,0,1-1.37-1.42l-5.1-6.88-10.72-14.44L172.07,455a26.6,26.6,0,0,0-5.06-5.55,20.28,20.28,0,0,0-6.71-3.55,19.6,19.6,0,0,0-6.71-.83,39.37,39.37,0,0,0-5.62.9l-7.12,1.39L129,449.45c-6.44,1-9.37,1.24-5.47.05C124.27,449.27,126.37,448.77,128.26,448.33Zm264.49,24c6.88,1.66,9.92,2.66,5.54,2.17-.86-.1-3.16-.48-5.23-.84l-19.73-3.49-2.5-.44c-.78-.13-.31,0-.53-.06a.67.67,0,0,0-.3.11.66.66,0,0,0-.21.21l-.06.13-1.28,1.64-8.9,10-8.69,10.68c.13.08-.73,1.45.6,0,2.22-2.42,3.08-3.26,2.32-2.16l-2.4,3.14-5.5,6.85A26.49,26.49,0,0,1,324.35,512a25.79,25.79,0,0,1-21.51-11c-.56-.91-1.17-1.78-1.68-2.72l-1.33-3-1.9-5.18-2.22-6.21-4.12-12c-1-3.11-2.14-6.73-1.81-6.16,2,3.42,4.33,7.68,6.77,12.32a59,59,0,0,1,2.34,5.54l1.82,4.87,1.48,4.07a29.41,29.41,0,0,0,2.65,5.69,22.7,22.7,0,0,0,26.74,9.55c5-1.52,8.91-5.26,12.29-9.6l6.13-7.52,11.72-14.39,5.85-7.2.56-.68a2.45,2.45,0,0,1,.37-.35,2.63,2.63,0,0,1,.9-.45,2.37,2.37,0,0,1,.9-.07l2,.4,7.7,1.61ZM379.19,363.5c-2.69,2.11-5.44,4.13-8.24,6.09Zm82.36-168.07a104.3,104.3,0,0,0-1.18-15.06c-.76-5-1.28-10.19-2.41-15.76-1.4-5.48-3.11-12.58-5-19.05l-5.63-15.51c-11.22-29.52-34.31-62-63.2-84.12a198.3,198.3,0,0,0-64.2-33.84c1.41.13,8.67,2.36,7.57,1.62-1.15-.31-10.21-6.22-44.13-11.21l6.67.2c-24-4-50.13-3.17-65.73-.17C202.24,5.87,180,13,161.11,23.39c-9.48,5.27-12.24,7.78-18,11.47l1.84-.91c-4.45,2.55-8.6,6.13-13.11,9.32-2.18,1.69-4.52,3.22-6.58,5.05l-6.1,5.48c-8.29,6.93-14.66,14.66-19.54,19.72C88.76,86.28,75.81,104.4,66.67,125.78A206.55,206.55,0,0,0,51,192.14c-.29,6.81-1,16.56-.21,24.94.12,10.92,2.14,21.67,3.83,32.44l4.06,15.86c1.18,5.34,3.53,10.32,5.25,15.49,7.84,20.31,18.44,39.67,32.24,56.48,2.8,3.78,6.21,7,9.3,10.58a102.74,102.74,0,0,0,9.86,10l2.91,2.62c-2.73,8-5.58,16.35-7.44,21.38-2.88,7.81-6.51,18.13-10.2,29l-5.5,16.46-2.63,8.08-1.26,3.92-1,3.1c-.44,1.25-.75,2.5-1.06,3.74-1.84,6.29-.53,15.87,3.94,22a22.87,22.87,0,0,0,25,9.46L134,474.35c8.81-1.81,24-5.13,19.95-4.11l13.75,18.22,8.47,11.24c4.87,7.73,12.48,12,20.45,11.86a22.73,22.73,0,0,0,17.67-9.34,32.22,32.22,0,0,0,4.86-10.28l2.09-6.22,7.52-22.06c5.76-16.65,11.27-32.85,16.74-49.4a201,201,0,0,0,24.83.14c1.4,3.85,2.81,7.72,4.18,11.54l6.42,17.64.88,1.9L271.5,414.29c3-.19,6-.39,8.89-.73s5.74-.69,8.59-1.12l5,13.84,19.54,53.83,1.86,5.26a30.34,30.34,0,0,0,1.5,3.95,9.14,9.14,0,0,0,5.8,4.47,12.07,12.07,0,0,0,4.27.24c.61-.06.36.35-1.41.79a9.64,9.64,0,0,1-8.93-2.72,14.14,14.14,0,0,1-2.79-4.9l-2.46-6-2.8-7.69.67.89-6.56-17,3.55,10.44c-.12.42,0,1.16-.31.95-.76-.61.21,3.68-4.71-8.65-2-5-5.07-13-5.73-14.25-.9-1.67-1.84-4.28-4.09-10.38-2.09-5.68-5.11-13.62-6-15.63-1.14-2.53-.55-.08-.75.31l-1.82-4.65,7.65,21.18.94,1.51,9.57,27,5,13.47,2.66,7.15c.94,2.3,1.88,5.65,3.54,8.21a14.52,14.52,0,0,0,8.91,6.56,11.69,11.69,0,0,0,6.13.81,15.26,15.26,0,0,0,5.44-2,20.67,20.67,0,0,0,5.06-4.8l18.72-23.09c3-3.46,6.22-8.08,8.46-9.75a8.52,8.52,0,0,1,4.79-1.48,12.34,12.34,0,0,1,2.53.34l3.53.68L389.46,464l15.89,2.89,4.29.8a37.84,37.84,0,0,0,5.18.75,15.27,15.27,0,0,0,9.76-2.75,15.64,15.64,0,0,0,5.59-18.41l-6.05-16.4-26.39-70.15c.76-.7,1.5-1.43,2.26-2.14l3.37,9.21c4.85,13.75,8.41,22.75,12.58,33.82l9.55,25.48,5,13.31a78.81,78.81,0,0,1,3,8.88,18.06,18.06,0,0,1-.75,10.17,20.09,20.09,0,0,1-5.07,8c-.93.82.46.21,2.37-1.72a19.3,19.3,0,0,0,5.34-14.07,26,26,0,0,0-1.36-7l-.76-2.44a6.12,6.12,0,0,1-.22-1c-.28-2.83-5.84-17.47-9.38-27.54-3-8.55-4.92-13.37-6.44-16.62s-3.88-8.75-6.44-15c-1-2.55-4.5-11.82-5.32-14.31-1.22-3.66-2.51-7.2-3.78-10.78.62-.6,1.26-1.17,1.88-1.78,3-2.83,7.53-8.15,9.28-9.92a117.37,117.37,0,0,0,11.7-14.07c3-4.16,5.81-7.54,7.71-11.11,3.95-7,7.78-12.58,11.43-21a87.9,87.9,0,0,0,4.61-11c.5-1.48-2.18,3.64-1.11,1,2.41-6.62,8.9-26.76,6.82-22.09-2.11,6.1,1.1-6.7,3.53-17.52l-4.12,15.43c-1.32,5.19-3.7,10.36-6,16.73,6.1-16.29,6-19.86,6.94-24.13.4-2.15.87-4.53,1.87-8.93l3-21.45c-.94,6.84-2.27,14.28-2.18,14,.38-5.76,1.35-11.18,1.16-16.74s-.13-11.11-.19-17.08c-.19,29.32-5.54,49.24-12.29,68.52-.26-.1,1.34-5.46-1.16.73a129.48,129.48,0,0,1-6.41,14.62c-2.7,5.45-5.44,11.59-9.27,17.39l-5.45,9c-1.93,2.95-4.16,5.7-6.2,8.53s-4.09,5.6-6.18,8.21l-6.5,7.2c-6.62,7.91-13.73,13.38-19.15,18.52-5.87,4.63-10.86,8.07-14.56,10.73a259.74,259.74,0,0,1-33.05,18.09c-3.57,1.9-7.53,2.92-11.29,4.41-3.83,1.3-7.56,2.94-11.49,3.94l-.09-.13a198.23,198.23,0,0,0,52.92-25.31c-2.56,1.66-5.2,3.18-7.75,4.78-3.29,1.88-6.37,4.1-9.77,5.67l-10.11,4.87a92.76,92.76,0,0,1-12.59,5.21c-4.3,1.48-8.49,3.33-12.89,4.49-8.83,2.25-17.59,4.84-26.66,5.83-9,1.75-18.06,1.89-27.1,2.36-4.52.36-9-.29-13.53-.4-4.49-.34-9-.2-13.43-1.09-14.09-1.76-29.92-5.74-39.77-9.61s-14.35-5.84-6.4-3.22l9.79,3.26c3.5,1.25,7.45,1.85,11.39,2.86,4,.81,8,2.14,12.22,2.58L233.64,401c2.08.53,10,1,15.31,1.21l-2,.22c5.84.19,11.07.68,16.51.12s11.12-.34,17.71-1.4c-12.25,1.14-19.12.93-20.65,1.14-.67-.22-2-.33-1.47-.54,1.53-.58-6.53-.73,18-2.38l16.81-2.75a85.6,85.6,0,0,0,11.05-2.82c3.25-1.27,8.41-1.92,19.59-6.36l8.42-3.14,8.22-4c5.25-2.54,9.65-4.75,11.26-6,4.27-2.83.17-.68-.45-.67l7.77-4.86-10.54,6.39-9.58,4.62c-3,1.38-5.77,2.92-8.6,4l-8.36,3-2.89,1.45c-17.87,5.81-34.51,9-51.58,9.64-15.41,1.07-31.34-.13-49-3.64-4.06-.89-7.85-2-11.35-2.85a76.8,76.8,0,0,1-11-3.37c-2.89-1.35-3.84-2-8.61-4-2.65-.68-12.76-6-17.06-8-4.24-1.78-8-4.43-11.85-6.67s-7.77-4.49-11.21-7.31l-10.59-7.94-9.7-8.83c-12.52-12.07-23.73-25.45-32.55-40.78-4.86-7.17-8.43-16.2-11.86-22.75a198.68,198.68,0,0,1-14.63-57.85c-2.06-20.43,0-41.3,4.36-60.84a189.58,189.58,0,0,1,31-67.94,193.74,193.74,0,0,1,52.64-49.67c3.85-2.26,7.9-5.17,12.25-7.29l12.22-6c7.35-3.32,12.37-5,10-4.55-1.25.28-.34-.15,3.61-1.63,2-.63,4.63-2,8.38-2.81l13.92-3.53c5.51-1.24,11.68-1.9,17.53-2.89,44.5-5.15,91,4.88,128.44,29.95,5.61,3.58,10.56,7.88,15.86,11.78l-2.32-1.62C411,84,436.33,123,445.79,167.21c-.59-4.7,2.73,7,4.34,25.5.81,4.5,1.48,7.37,2.26,12.77.53,3.7.68,1.79.42-5.93a166.91,166.91,0,0,0-5.7-40.21,194.9,194.9,0,0,0-31.57-66.82l-7.38-9.76-8.35-9.17-4.1-4.46-4.35-3.93-8-7.21a209.1,209.1,0,0,0-51.7-30.71c-19.08-7.83-40.15-12.38-62.56-13.73-4.86-.09-9.72-.81-14.51-.33L240.39,14c-6.86.63-13.55,2-20.7,3.09-3.53.76-7.11,1.84-10.89,2.81S201,21.72,197,23.43c1.77-1,.55-.85-4.78,1-2.65,1-6.42,2.1-11.19,4.08-4.63,2.29-10.54,4.85-17.41,8.55-6.65,4.26-13.77,7.84-19.88,12.88L134.28,57l-8.74,7.93c-37.8,34.77-60.81,85-62.07,136.39a4.27,4.27,0,0,1-.15.77l.33-7.83c3.36-64.55,42.23-125.43,98.58-157,4.19-2.69,9.15-4.43,13.91-6.87,6.84-3.69,14.42-5.74,21.66-8.6,3.64-1.4,7.51-2.07,11.26-3.13,3.79-.89,7.52-2.12,11.36-2.74-1.37.07-.54-.49-4.53.39-5.24,1.16-11.08,2.31-17.1,3.8-5.88,1.95-12.07,3.87-18.15,6,22.54-9.1,22.61-8.32,38.83-11.91l13.41-1.92,4.85-.73,5.27-.28,11.36-.6c3.92-.4,7.94.07,12,.17l11.94.53c7.73,1.18,15.13,2,21.2,3.15l13.69,3.2c3.2.49,8.21,2.35,12.94,4a197.66,197.66,0,0,1,60,34.9c32,27.44,46.23,56.93,41.61,46.63-1.76-3.38.87.18,5.36,6.95,2.22,3.4,4.3,7.93,6.78,12.64,1.16,2.39,2.54,4.79,3.57,7.35l2.91,7.74a200,200,0,0,1,10.56,39.87c1.46,7.66,2,10.5,2.17,11.78.23,1,.18-4.23.55.33.79,10,1.14,12.2,1.2,9.25a123.09,123.09,0,0,0-1.47-21.81l1.62,9.33ZM299.15,439.61l-10.07-27.18.57-.1c1.38,4.23,3.1,9.07,5.34,15.21l4.29,12Zm5.14-2.16-9.32-26,.34-.06,7.84,21.43c1,2.74,1.51,4.85,2.24,7.24Zm88.45,22.37-15.42-3.13,12,2.16-.36-.12-16.05-3.07c15.72,2.65,31.9,5.74,38.83,7.41ZM412,450.11l-15-2.92-16.07-3.12c-3-.43-4.19-1.13-10.67-1.74a25.6,25.6,0,0,0-15.08,4.23c-3.78,2.24-7.3,7.18-8.15,8.17l-4.42,5.49-8.8,11-8.51,10.61a.57.57,0,0,1-.46.35.54.54,0,0,1-.46-.23,1.35,1.35,0,0,1-.1-.25l-1.9-5.25-7.92-22.16c-5.18-14.74-10.37-29.11-15.67-43.57a205.56,205.56,0,0,0,85.79-38.93c2.61,7.35,5.24,14.74,6.78,19.43,2.62,8,6.23,18.44,10.14,29.34l6,16.46,3,8,1.48,3.88c.34.9.3.72.3.72l.05,0a.2.2,0,0,1,0,.31C412.31,450.15,412.12,450.16,412,450.11Zm-12.89-75,14,38.67,7,19.33,3.5,9.66c1.07,3.36,2.54,6,2.85,9.29,0,.17-.07.23-.11.36a12.2,12.2,0,0,0-.8-3.77L394.38,363.7l.4-.35Zm-5.66-15.41-.4.36-.07-.18.4-.36Zm2.91-2.63-.06-.16c.76-.71,1.57-1.37,2.32-2.08l.06.16ZM409,344.12l-1.4,1.84c-2.08,2.18-4,4.51-6.22,6.56l-1,.9-.09-.25C403.28,350.25,406.2,347.25,409,344.12Zm-92,58.13a210.18,210.18,0,0,0,66.25-34.33l.11.3c-4,3.06-8.11,6-12.19,9l-10.83,6.61c-1.82,1.08-3.6,2.25-5.46,3.26l-5.72,2.78-11.41,5.5L326,399.7l-7.31,2.51-7,1.57Zm34.73-28.55ZM100.2,452.38a1.78,1.78,0,0,1-.09.46,14.14,14.14,0,0,1,.65-4.38l26.56-80,.39.29-1.92,5.78-13,38.62-6.5,19.3L103,442.11C102.12,445.25,100.41,448.81,100.2,452.38Zm15.44,12.8L133.27,461l14.23-2.85-11,2.47.35,0,14.72-3.14C137.19,460.91,122.75,464,115.63,465.18Zm111.1-22.58-.13,0,9.6-29.2.63.06c-1.75,4.56-3.62,10-6,17.22Zm14.79-26.89-8.07,24.22c-.93,2.73-1.8,4.68-2.7,7l.74-2.69,10.32-30.32.29,0Zm-92.83-32.24c4,2.35,7.93,5,12.11,7.08,8.46,4,16.77,8.4,25.75,11.28a203.44,203.44,0,0,0,32.57,9c-.61,1.81-1.22,3.63-1.82,5.43l-5.91,17.63-.5,2L220,411c5.35,1,10.72,1.78,16.09,2.38L230.81,429l-18.06,53.79-1.9,5.53a31.65,31.65,0,0,1-2.78,6.53,13.68,13.68,0,0,1-9.3,6.35,10.73,10.73,0,0,1-6.14-.67c-.81-.44-.32-.25,2,0a12.75,12.75,0,0,0,10.94-5,19,19,0,0,0,3-6.69l1.94-6.6,2.57-7.69-.05,1.11,5.45-17.27-3.67,10.28c-.33.25-.71.86-.78.53-.18-1-2,3,1.79-9.65,1.55-5.13,4.13-13.24,4.38-14.6.35-1.85,1.23-4.46,3.26-10.58,1.88-5.7,4.46-13.72,5-15.83.7-2.67-.34-.42-.71-.25l1.46-4.73-7.13,21.14-.23,1.77-9.24,26.85-4.47,13.51-2.35,7.19a47.38,47.38,0,0,1-2.31,6.38,17.2,17.2,0,0,0,1.12-3.37c-1,4.23-4.07,6.73-6.8,7.23a12.45,12.45,0,0,1-3.62-.86,9.79,9.79,0,0,1-2.84-1.61,17.7,17.7,0,0,1-2.49-3l-16.64-22.32-4.11-5.59c-1.23-1.57-3-4.51-5.34-6.15a13.81,13.81,0,0,0-7.95-2.78,17.26,17.26,0,0,0-4.24.52l-3.3.69-12.71,2.72-14.55,3.25-3.51.77c-.91.18-1.81.44-2.74.56a7.26,7.26,0,0,1-5.37-1.32c-7.62-5.52-.78-15,2-25.85L130.63,371l2.16,1.62c-4.52,13.14-7.3,22.19-10.82,33.11l-8.33,25.66-4.37,13.39c-.88,2.72-1.14,3.45-1.53,4.83a6.93,6.93,0,0,0,.12,4,5.53,5.53,0,0,0,2.41,2.42c.42.15.09-.25-.37-1a6.06,6.06,0,0,1-.8-4.69,10,10,0,0,1,.78-1.93l.69-1.35c1.47-2.35,6.21-17.14,9.67-27.13,2.94-8.48,4.44-13.4,5.28-16.87.89-3.62,2.44-9.2,4.32-15.61.71-2.44,3.38-10.6,4.47-13.7l2.71,2c1.9,1.36,3.71,2.85,5.68,4.1ZM71.22,261.88c1.48,5.78,4.1,11.33,6.23,17.45a83.29,83.29,0,0,0,4.38,10c2.16,4.25,4.28,10,8.47,16.38a102.22,102.22,0,0,1-7-12.91l-3.55-7.25.26.65,6.37,13.18c2.48,4.36,5.3,8.79,8.22,13.65-3.88-6.39-8.23-12.57-11.16-19.26l-4.71-9.63c-1.41-3.2-2.45-6.44-3.62-9.5l-3.24-8.86c-.84-2.87-1.46-5.65-2.13-8.21-1.2-5.15-2.55-9.5-3-13C67.94,250.51,69.75,256.1,71.22,261.88ZM369.77,370.47c-.65.46-1.33.85-2,1.28,1.06-.71,2.13-1.41,3.17-2.15ZM87.42,270.87c-4.26-11.64-4.54-17.29-2.48-9.94l3.31,8.59a180.34,180.34,0,0,0,37,59.49c2.17,2.36,4,5.13,6.85,7.64l9.42,9c1.6,1.71,4.94,3.86,8.4,6.54s7.3,5.63,10.92,7.58c.05-.15,2.54,1.14-.31-.73-9.22-6.66-6.89-4.5,13.57,7.32,27.3,14.23,60,21.63,88.37,20.73,5.66-.2,12.23-.32,11.12-.15-6.7.9-15,2.67-24.18,2.51-2,0-5.38,0-10.56-.26-5.09-.89-12.06-1.46-20.86-3.48-42.22-9-80.87-34.88-106.64-69.7C99.54,300.23,91.05,282.69,87.42,270.87ZM72.47,199.39c-.15,3.18-.7,6.61-.54,9.89s.16,6.42.22,9c.06,3.35,0,5.19-.2,3.64L70.7,209.77c.15-17.94,1.55-35.39,6.34-51.54l1.53-6.09c.58-2,1.38-3.93,2.06-5.88l4.18-11.62,5.2-11,2.59-5.47c1-1.76,2-3.45,3.06-5.17,10.71-18.42,21.43-32.79,41.55-49.86a211.63,211.63,0,0,1,48.35-29.5l13.87-3.92c4.54-1.47,10.21-2.11,16-3.36C190.67,32,161.51,45.38,137.5,65.45l-10.07,9.12c-4,4-7.6,8.35-9.26,10.16-4.15,4.38-7.09,9.21-10,13.19l-3.92,5.62-2.73,5c-1.51,2.81-3.43,6.19-6,10.58-2.11,4.65-5,10.28-8.31,17.62l-5.33,14.43c-1.58,5.11-2.74,10.4-4.07,15.19-1.5,4.76-1.72,9.33-2.49,12.85-.62,3.54-1.14,6.16-1.51,7.35C73.22,187.67,73,193,72.47,199.39ZM397.66,323.56c.9-1.21,1.53-2.18,2.12-3.14a39.4,39.4,0,0,1-4,4.92c-11.23,13-24.8,23.75-39,33.14-14.41,9.23-30.28,15.78-46.46,20.82a26.83,26.83,0,0,0,3.36-1.3c5-1.93,10.23-3.63,15.23-5.71l14.53-7A183.36,183.36,0,0,0,391,327.75a190.08,190.08,0,0,0,32.59-49.91l4.54-11.73,2-5,1.31-4.58c1.62-5.69,2.85-9.66,3.57-11.64,1.34-4,.83.07-2.61,14.49C431.2,264,428,272.12,425.93,278A193.74,193.74,0,0,1,397.66,323.56Zm-1.58,2c.56-.66,1-1.33,1.58-2C397.21,324.15,396.72,324.79,396.09,325.55Zm-26.54-4.83c2.27-2.17,5.77-6.25,7.12-7.6a87.78,87.78,0,0,0,9-10.76,75.26,75.26,0,0,0,5.89-8.53c3-5.39,5.89-9.68,8.69-16.13a51.75,51.75,0,0,0,3.39-8.53c.34-1.15-1.75,2.75-1,.72,1.76-5.11,6.61-20.53,4.94-17-1.72,4.62.7-5.16,2.48-13.42l-3.17,11.75c-1,4-2.84,7.89-4.59,12.74,4.62-12.43,4.48-15.17,5.11-18.44.27-1.65.59-3.46,1.33-6.82L411,222.4c-.73,5.2-1.76,10.85-1.69,10.62.21-4.39.86-8.52.64-12.75l-.4-13c-.14,22.21-4.19,37.31-9.32,51.92-.26-.1.87-4.18-1.07.48a104.7,104.7,0,0,1-4.92,11,120.07,120.07,0,0,1-7,13.14l-4.12,6.8c-1.46,2.23-3.14,4.31-4.68,6.45s-3.09,4.24-4.66,6.22l-4.91,5.45c-5,6-10.38,10.13-14.49,14-4.44,3.49-8.23,6.08-11,8.07a208.94,208.94,0,0,1-25,13.61c-5.58,2.42-11.41,4.42-17.22,6.29l-.08-.13a149.64,149.64,0,0,0,39.19-18.7c-1.7,1.06-3.42,2.07-5.1,3.12a120.92,120.92,0,0,1-15,8,70.41,70.41,0,0,1-9.51,3.93c-3.25,1.11-6.41,2.51-9.74,3.39-6.67,1.7-13.28,3.65-20.13,4.41-13.56,2.32-27.39,2.13-40.82.64-21.57-2.16-46.77-14.17-34.75-10a123.59,123.59,0,0,0,16,4.48c5.94,1.6,12.43,2.31,18.6,3a104.86,104.86,0,0,0,11.51.91l-1.51.25c8.77.56,15.77,0,25.73-1-9.22.82-14.38.65-15.53.8-.5-.23-1.52-.36-1.11-.56,1.14-.56-4.89-.81,13.51-2.15L284.85,349a58.91,58.91,0,0,0,8.26-2.17c2.41-1,6.27-1.5,14.63-4.83l6.29-2.35,6.14-3a61.86,61.86,0,0,0,8.39-4.55c3.16-2.16.07-.61-.44-.68l5.78-3.66L326,332.5l-7.15,3.44c-2.25,1-4.31,2.18-6.42,3l-6.24,2.27-2.13,1.17a139.15,139.15,0,0,1-38.52,7.13,136.48,136.48,0,0,1-35.23-2.43c-3.56-.69-6.77-1.72-9.76-2.45a57.07,57.07,0,0,1-8.23-2.52c-2.13-1.08-2.82-1.6-6.35-3.13-2-.54-9.48-4.55-12.68-6-12-6.37-23.09-13.69-32.28-22.9a138.61,138.61,0,0,1-24.21-30.39c-3.62-5.33-6.27-12.07-8.84-16.93a147.13,147.13,0,0,1-11-43.06c-1.55-15.22,0-30.77,3.2-45.34a141.39,141.39,0,0,1,23-50.68,145,145,0,0,1,39.19-37.15c2.87-1.69,5.88-3.88,9.13-5.47l9.11-4.54c5.48-2.5,9.21-3.78,7.42-3.54-1,.17-.28-.17,2.67-1.29,2.89-1.32,8.29-2.67,16.68-4.74,4.12-.92,8.73-1.42,13.11-2.16,33.28-3.85,68.09,3.64,96.05,22.4,4.2,2.68,7.88,5.92,11.83,8.84l-1.75-1.19a144.55,144.55,0,0,1,51.69,82.54c-.31-3.54,2.23,5.23,3.45,19.05.75,3.36,1.38,5.51,2.1,9.56.49,2.78.66,1.35.5-4.46a122.56,122.56,0,0,0-4.26-30.24A146.7,146.7,0,0,0,376.42,121c-6.75-9.94-16.66-19.38-24.24-25.93a157.63,157.63,0,0,0-38.9-23,147.33,147.33,0,0,0-47-10.25c-7.3-.66-14.58,0-21.52.39-5.15.48-10.16,1.56-15.52,2.36-5.24,1.4-10.89,2.62-17,4.77,1.3-.87.37-.78-3.65.54-2,.7-4.83,1.55-8.41,3-3.48,1.71-7.92,3.63-13.08,6.41-5,3.2-10.34,5.89-14.93,9.68l-7.1,5.34-6.57,6a145.78,145.78,0,0,0-46.66,102.44,2.46,2.46,0,0,1-.14.58l.24-5.89c2.51-48.51,31.7-94.28,74-118,3.15-2,6.89-3.3,10.47-5.13,5.15-2.77,10.84-4.32,16.28-6.46,5.58-1.73,11.3-3.15,17-4.42-1,0-.43-.46-3.44.16-4,.81-8.36,1.63-12.91,2.71-4.44,1.41-9.13,2.81-13.74,4.37,17-7,17-6.38,29.28-9L239,60.34c4.63-.95,10.29-.74,16.18-1.22,5.91-.28,12.12.35,18,.49,5.83.87,11.41,1.44,16,2.32l10.35,2.34a63.12,63.12,0,0,1,9.79,3,148.91,148.91,0,0,1,45.28,26.35c24.16,20.71,35,42.9,31.7,35-1.28-2.59.79,0,4.26,5.14,1.72,2.55,3.33,6,5.24,9.54a73.11,73.11,0,0,1,5,11.43A157,157,0,0,1,408.93,185c1.15,5.81,1.6,8,1.81,8.93.22.73.24-3.22.54.24.67,7.57,1,9.28,1.09,7a88.27,88.27,0,0,0-1-16.63l1.29,7.11.56,6.61c0-7.85-1.32-15-2.66-23.52-1.06-4.18-2.37-9.6-3.81-14.54l-4.29-11.84c-8.46-22.58-26.11-47.41-48.17-64.28a151,151,0,0,0-49-25.8c1.1,0,6.68,1.63,5.87,1-.85-.31-7.77-4.88-33.73-8.72l5.13,0c-18.39-3.08-38.41-2.46-50.38-.23a145.22,145.22,0,0,0-48.49,16c-7.26,4.06-9.34,6.05-13.74,8.93l1.44-.66c-13.31,8.39-27.78,22.06-34.79,30.26a159.16,159.16,0,0,0-25.33,40,156.59,156.59,0,0,0-12,50.9c-.21,5.22-.74,12.7-.14,19.12.1,8.36,1.64,16.61,2.94,24.87,2,8.12,4,16.27,7.14,24A157.26,157.26,0,0,0,133.94,307c18.26,22.26,42.1,39.73,69.29,49.38,22.85,8.5,49.31,11.58,71.91,9A157.09,157.09,0,0,0,369.55,320.72Zm-66.61,35.16c26.71-8.24,51.49-23.34,70.19-44.26l-1,1.44a102.66,102.66,0,0,1-9.86,9.6c-5.49,5.37-11.76,9.68-17.94,14.24-5.56,3.22-10.83,7.09-16.79,9.66l-8.71,4.19-9,3.3c-2.05.74-3.86,1.34-5.59,1.88l-5.32,1.14ZM126.79,272.3l-3.55-7.23c-1.06-2.4-1.85-4.84-2.73-7.14l-2.43-6.66c-.63-2.16-1.1-4.25-1.59-6.17-.89-3.88-1.89-7.14-2.18-9.76.9,4.42,2.28,8.62,3.41,13s3.11,8.5,4.72,13.09a64.61,64.61,0,0,0,3.28,7.54c1.61,3.2,3.2,7.48,6.34,12.31a76.83,76.83,0,0,1-5.31-9.68l-2.68-5.44.19.5,4.79,9.9c1.86,3.28,4,6.6,6.18,10.25C132.29,282,129,277.33,126.79,272.3Zm222.72,53c-3,2.37-6.18,4.56-9.38,6.69.76-.47,1.52-.92,2.25-1.44ZM132.78,254c-3.05-8.57-3.14-12.74-1.55-7.38l2.47,6.28a132,132,0,0,0,27.22,43.44c2.88,3.75,6.44,7.17,11.79,12.27,1.16,1.26,3.61,2.83,6.14,4.8a71.88,71.88,0,0,0,8,5.55c.06-.14,1.91.75-.16-.64-6.69-5-4.94-3.42,10,5.22,20,10.38,43.86,15.72,64.56,15.18,4.13-.13,8.95-.16,8.14,0-4.89.85-11,2.35-17.72,2.41-1.45.07-4,.08-7.77-.11-3.74-.65-8.87-1.06-15.34-2.55-31-6.67-59.41-25.69-78.35-51.27C141.55,275.58,135.36,262.67,132.78,254Zm-12-52.51a98.71,98.71,0,0,0-.36,14c0,2.48-.08,3.85-.25,2.7l-1.08-9c.09-13.3,1.11-26.25,4.64-38.23,1.22-6.14,3.86-11.74,5.73-17.51l3.84-8.19a56.39,56.39,0,0,1,4.17-7.9c7.92-13.68,15.83-24.4,30.79-37.06A158.57,158.57,0,0,1,204.2,78.33l10.39-2.65c3.39-1,7.61-1.4,11.89-2.23-18.29,4.21-39.79,14.17-57.63,28.92l-7.45,6.75c-2.94,2.95-5.61,6.19-6.83,7.54-3,3.26-5.19,6.86-7.3,9.83l-2.85,4.19-2,3.7c-1.08,2.09-2.47,4.61-4.38,7.85l-6.13,13L128,165.87c-1.16,3.77-2,7.67-3,11.2-1.71,7.12-2.33,13.16-3.09,14.89C121.45,192.79,121.26,196.76,120.82,201.45ZM359.3,294.06a28.08,28.08,0,0,0,2.62-3.84,28.36,28.36,0,0,1-2.89,3.62c-8.29,9.51-18.3,17.29-28.74,24.1-10.59,6.69-22.23,11.39-34.07,15a19.23,19.23,0,0,0,2.44-1c3.68-1.41,7.47-2.65,11.12-4.17l10.61-5.09c25.92-14,47-37.87,58.57-63.83,5.24-12.31,7.37-21.18,8.58-24s.81.09-1.63,10.69c-.8,3.4-3.17,9.38-4.65,13.68A141.85,141.85,0,0,1,359.3,294.06Z"/></svg>