<svg id="Layer_1" data-name="Layer 1" xmlns="http://www.w3.org/2000/svg" viewBox="0 0 512 512"><defs><style>.cls-1{fill:#707070;}</style></defs><title>medal-2-handdrawn</title><path class="cls-1" d="M499.65,227.5l-1.67-4h0l1.67,4ZM425.75,75.95c-.5-.3-1-.6-1.5-.88C424.76,75.35,425.25,75.64,425.75,75.95Zm-10.08-4.45c-.11,0-.24,0-.35-.08l1.08.33C416.16,71.67,415.92,71.56,415.67,71.49Zm5.09,1.86c1.18.53,2.36,1.07,3.49,1.71C423.11,74.43,421.95,73.87,420.76,73.35Zm88.67,187A45.92,45.92,0,0,0,506.1,239,43.38,43.38,0,0,1,495,286a42.41,42.41,0,0,0,0-60l1.82,4.39L495,226a30.1,30.1,0,0,1-8.66-24c-.23-.06-1.05,5.95-.68-1.24a29.56,29.56,0,0,1,1.89-7.83l.4-2-.39,2a42.22,42.22,0,0,0,.54-29.67,41.53,41.53,0,0,0-23-24.27l3.11,4.65L465.09,139A31.24,31.24,0,0,1,447.4,119.6a31.58,31.58,0,0,1-1.41-8l-.21-4.66c-.06-1.68-.44-3.3-.65-4.9a41.11,41.11,0,0,0-7.19-16.2A40.47,40.47,0,0,0,416.85,71a44,44,0,0,0-11.19-1.64,35.59,35.59,0,0,1-9.89-1.22,31.53,31.53,0,0,1-18.29-14c-2-3.4-4.13-9.53-7.91-13.95a39.84,39.84,0,0,0-13.44-10.93l-.13.1a40.25,40.25,0,0,1,18,18.31c1,2.12,1.64,3.65,2.44,5.15a29.71,29.71,0,0,0,2.77,4.34,32.31,32.31,0,0,0,7.43,7.09,31.44,31.44,0,0,0,9.31,4.35,29.21,29.21,0,0,0,5.06,1c1.8.26,3.19.16,5.56.34a37.28,37.28,0,0,1,8.78,1.52c-5.06-1.55-11.1-1.35-14.8-1.74A32.09,32.09,0,0,1,378.9,57.14a30.67,30.67,0,0,1-3.72-6.32A54.58,54.58,0,0,0,371,42.89a40.82,40.82,0,0,0-13.4-12.34,40.36,40.36,0,0,0-35.27-2.24h0A32.4,32.4,0,0,1,291,24.62c-2.2-1.59-4-3.46-6.73-5.87a40.68,40.68,0,0,0-8.59-5.37,40,40,0,0,0-34.52.37,38,38,0,0,0-6.63,4.14,72.1,72.1,0,0,0-5.43,4.84,33.24,33.24,0,0,1-19.95,8.52,37.75,37.75,0,0,1-12.33-1.34c-1.68-.57-.9.24,3.93,1.5A33.56,33.56,0,0,0,226.37,27a39.94,39.94,0,0,0,6-4.75,37.37,37.37,0,0,1,6.89-5.08,37.84,37.84,0,0,1,16.15-5,40.07,40.07,0,0,1,8.76.29A36.64,36.64,0,0,1,275.58,16l-2.32-1.43a40.47,40.47,0,0,1,9.72,6c2.86,2.56,5,4.85,7.84,6.73a34.36,34.36,0,0,0,20.85,5.94,34.71,34.71,0,0,1-17.39-3.53,34.39,34.39,0,0,1-6.63-4.26c-.83-.31-2.17-1.39-1.8-.77.57.87-1.18-.39-.15.91a23.07,23.07,0,0,0,4.72,4.06,35.58,35.58,0,0,0,16.2,5.81,37.3,37.3,0,0,0,17.6-2.46h0A34,34,0,0,1,343.13,31a41.86,41.86,0,0,1,8.53,2.75,34.82,34.82,0,0,1,13.27,10.39c2.32,2.79,3.85,6.1,5.59,10a37.27,37.27,0,0,0,7.22,10.3,39.46,39.46,0,0,0,14.82,9.4c6.79,2.13.53.76-.33.74l1,.34A42.21,42.21,0,0,0,405,76.83a39.19,39.19,0,0,1-29.23-12.7,39.67,39.67,0,0,1-7.3-11.4,35.41,35.41,0,0,0-5.73-9.17,27.56,27.56,0,0,0-2.5-3.05,33.74,33.74,0,0,0-35.37-6l-1,.21,1-.21a39.09,39.09,0,0,1-30.43-.19,40.94,40.94,0,0,1-8-4.65,38.52,38.52,0,0,1-3.53-3l-3-2.78a34.61,34.61,0,0,0-14.66-6.94c-11.09-2.13-23.27,1.15-32.5,11.19l4.65-4c1.2-.91,2.23-1.63,3.37-2.35a48.56,48.56,0,0,0-6.9,5.76A39.17,39.17,0,0,1,226.21,33a39.22,39.22,0,0,1-15.8,4.67c-4.52.39-6.26,1-13.68-.63a36.65,36.65,0,0,1-4.5-1.44h0a38,38,0,0,0-9.41-2.21,36.87,36.87,0,0,0-8.87.47,32.82,32.82,0,0,0-14.56,6.69A33.29,33.29,0,0,0,150,53.21a40.37,40.37,0,0,1-28.91,23.91,50.74,50.74,0,0,1-9.33.94,30.63,30.63,0,0,0-7.62,1.22A32.16,32.16,0,0,0,81,107.42c-.17,2.31-.12,5.89-.65,9.11a40.72,40.72,0,0,1-7.71,18,40.29,40.29,0,0,1-14.08,11.65l-2.64,1.19,2.53-3.78-2.53,3.79a32.22,32.22,0,0,0-17.59,42h0a40.19,40.19,0,0,1-8.75,43.61l1.11-2.67-1.11,2.67a32.61,32.61,0,0,0-6.3,37.16,31.7,31.7,0,0,0,3.48,5.66c1.35,1.76,2.82,3.23,4.76,5.38A40,40,0,0,1,38,322.4l.26-1.33L38,322.41a33,33,0,0,0,5.49,34.13,32.1,32.1,0,0,0,6.78,6c2.57,1.74,5.11,2.66,8.56,4.41a39.1,39.1,0,0,1,15.42,14.66,39.63,39.63,0,0,1,5.56,20.3,33.45,33.45,0,0,0,33.85,33.47A38.94,38.94,0,0,1,132.92,441a38.39,38.39,0,0,1,13.37,13.69c2.74,5.33,4,8.82,5.5,11s1.89,2.87.88,1.79c-1-1.25-.64.07,3.06,3.91a35,35,0,0,0,9.12,6.34,34.35,34.35,0,0,0,17.58,3.3,37.73,37.73,0,0,0,10.63-2.53h0a38.18,38.18,0,0,1,12.11-2.77c11.33-.88,22.89,4.15,30.45,12.18a34.39,34.39,0,0,0,28.81,8.44,33.46,33.46,0,0,0,14.24-5.86,55.16,55.16,0,0,0,6-5.17,37,37,0,0,1,6.91-4.93,37.89,37.89,0,0,1,32.83-1.89h0c14,6,31.62,1.36,40.63-10.93,2.7-3.37,4.05-7,6.11-11.22a37.53,37.53,0,0,1,8.36-10.69c-1,.83-2,1.73-2.88,2.66a38.1,38.1,0,0,1,19.55-11.22c3.61-.93,7.83-.87,11.08-1.06a33.94,33.94,0,0,0,10-2.31A34.52,34.52,0,0,0,439,401.3a38,38,0,0,1,7.1-21.53c4.36-6.3,11.11-11,17.94-13.76a34.57,34.57,0,0,0,19.58-34.48c.24,3.61,1.43-.8-1.84-10h0a38.2,38.2,0,0,1-1.46-23.62c2.27-5.68,4.42-9,9.21-14,3.06-2.67,2-1.88-1.73,3.27a35.81,35.81,0,0,0-5.36,12.34,35.2,35.2,0,0,0,1.77,21l.12.6-.12-.6a37.78,37.78,0,0,1-9.47,42.22,37,37,0,0,1-10.49,6.78,35.86,35.86,0,0,0-9.93,6,34.69,34.69,0,0,0-11.48,19.77c-.84,3.77-.47,7.73-1.1,12a36,36,0,0,1-3.83,11.89,37.91,37.91,0,0,1-25.59,19.42,45.43,45.43,0,0,1-8.08.81,37.82,37.82,0,0,0-7.28.82,35.59,35.59,0,0,0-12.34,5.37,34.69,34.69,0,0,0-11.86,13.91,39.62,39.62,0,0,1-11.46,15.77,37.41,37.41,0,0,1-37.77,5.45l.28.06-.29-.06a35.63,35.63,0,0,0-38,6.82A37.82,37.82,0,0,1,266.9,498a36.13,36.13,0,0,1-30.23-6.55c-2.6-1.91-4.69-4.34-7.12-6.21a36,36,0,0,0-35.77-5.05h0a37.32,37.32,0,0,1-17.39,2.49,36.9,36.9,0,0,1-19-7.78c2,1.72.16,1.49-5.12-3.84a30.75,30.75,0,0,1-4.06-5.37c-1.49-2.18-2.55-5.12-4.05-8a35.48,35.48,0,0,0-17.93-16.17,38.8,38.8,0,0,0-14.79-2.7A37,37,0,0,1,77.1,411.13c-1.3-4.46-1.08-9.29-1.51-13.59a34.94,34.94,0,0,0-4-12.57,35.56,35.56,0,0,0-8.35-10.22c-3.4-3-7.31-4.75-11.54-6.69a37.13,37.13,0,0,1-17.76-47.34l-.07.34.07-.35a35.44,35.44,0,0,0,1.63-21.93,35.45,35.45,0,0,0-4.31-10.25c-1.93-3.27-4.55-5.73-7.21-8.72-10.4-12-11.48-30.67-2.82-43.88l.49-.92A36.24,36.24,0,0,0,17,244.4a37.31,37.31,0,0,0-.67,21A38.6,38.6,0,0,0,27,283.43a35.12,35.12,0,0,1,6.65,37.17h0a37.63,37.63,0,0,0,7.72,40.45A39.5,39.5,0,0,0,50,367.67c3.29,1.76,6.48,2.89,9.3,4.75a34.89,34.89,0,0,1,15.81,24.91c.48,3.26.13,6.9.83,10.54a37.54,37.54,0,0,0,27.91,30.4,44.7,44.7,0,0,0,10.71,1.23,35.58,35.58,0,0,1,25.66,12.89,37.34,37.34,0,0,1,4,6.12c1,2.13,2,4.63,3.36,6.86a37.43,37.43,0,0,0,40.32,17.74c-1.75.57-.46.67-6,1.38a38.17,38.17,0,0,1-23-5.43,39.43,39.43,0,0,1-9.83-8.57,42.05,42.05,0,0,1-3.8-5.51l-2.82-5.62,2.27,5a44.94,44.94,0,0,0,2.62,4.58A40.1,40.1,0,0,0,153,475.6a36.79,36.79,0,0,0,10.4,7,35.32,35.32,0,0,0,10.1,3,37.58,37.58,0,0,0,13.89-.46,52.64,52.64,0,0,0,7.44-2.33l-1.14.23,1.15-.23a33,33,0,0,1,33,4.37c1.86,1.37,3.38,3.07,5.61,5a42.31,42.31,0,0,0,6.9,4.76,39.28,39.28,0,0,0,15.93,4.57,39.89,39.89,0,0,0,27.93-8.92l4.26-3.79a34.56,34.56,0,0,1,3.62-2.63,29.84,29.84,0,0,1,6-2.92,34.8,34.8,0,0,1,15.3-1.77,32.36,32.36,0,0,1,8.88,2.27l1.53.3-1.53-.3a40.48,40.48,0,0,0,41.26-6.36,42.29,42.29,0,0,0,7.38-8.12,43.59,43.59,0,0,0,2.74-4.76l2.09-4.49a32.41,32.41,0,0,1,11.61-12.89,31.58,31.58,0,0,1,16.31-5,41.82,41.82,0,0,0,18.83-4.2,40.68,40.68,0,0,0,20.52-23,41.12,41.12,0,0,0,2.27-10.58,54.82,54.82,0,0,1,.55-5.75c.43-2.28.6-2.13.44.85.36,4.2-.24-.91,3.06-8.74a31.19,31.19,0,0,1,9-11.58,29.66,29.66,0,0,1,7.21-4.18,45.09,45.09,0,0,0,10.62-6.18,43.66,43.66,0,0,0,16.17-29.06,44.68,44.68,0,0,0-2.85-21.42h0a26.66,26.66,0,0,1-1.81-11.54,15,15,0,0,1,.81-4.31c.32-.89-.24,4,.58-.26a23.82,23.82,0,0,1,3.43-8.27c.78-1.11.79-.9.2.33a28.19,28.19,0,0,0-2,19.42,26.11,26.11,0,0,1,1.49-15.92,25.76,25.76,0,0,0,.39,19.28l.81,4.08-.81-4.08A49.88,49.88,0,0,1,496,330.32a47.39,47.39,0,0,1-7.34,30.16,48,48,0,0,1-19.79,17.11l-3.07,1.47c-.76.41-1.54.83-2.27,1.31a26.51,26.51,0,0,0-4.14,3.33,25.91,25.91,0,0,0-5.89,9.13,27.9,27.9,0,0,0-1.36,5.42,26,26,0,0,0-.21,2.82l-.21,4.69a46.4,46.4,0,0,1-6.64,20.57,47.38,47.38,0,0,1-36.39,22.7l-4.89.24a28.91,28.91,0,0,0-2.94.24,27.4,27.4,0,0,0-5.66,1.56,24.85,24.85,0,0,0-9.44,6.73,23.81,23.81,0,0,0-3.24,4.69,11.43,11.43,0,0,0-.63,1.29l-.78,1.68a45.15,45.15,0,0,1-2.48,4.86,47.52,47.52,0,0,1-15.11,15.9,47.29,47.29,0,0,1-44,4l4.24.84-4.24-.84a25.16,25.16,0,0,0-14.72-1.44c1.27-.16,7.62.17,6.51.6a33.3,33.3,0,0,0-8.36,1.41,23.81,23.81,0,0,0-9.37,5.67l-2.35,2.16a29.28,29.28,0,0,1-3,2.49,50.7,50.7,0,0,1-7.08,4.54A48,48,0,0,1,262.64,511a49.68,49.68,0,0,0,11-1.31,49.84,49.84,0,0,1-30.32-.1,48.21,48.21,0,0,1-13.56-6.84A49.75,49.75,0,0,1,224,498l-1.52-1.38c-.39-.39-.86-.68-1.28-1a22.23,22.23,0,0,0-21.39-3l-.79.3-5.34,1.06,5.34-1.06a50.08,50.08,0,0,1-52.58-8.6,48.55,48.55,0,0,1-9.09-10.62,44.46,44.46,0,0,1-3.31-6.11L133,465.22a12,12,0,0,0-.66-1.36,21.9,21.9,0,0,0-8.12-8.59,24.36,24.36,0,0,0-8.47-3.19,14.94,14.94,0,0,0-1.7-.25l-2.4-.21a50.1,50.1,0,0,1-7.83-1l3.41.33a49.5,49.5,0,0,1-40.77-32A48.77,48.77,0,0,1,63.5,406c-.3-5.28-.23-5.84-.57-7.91a22.63,22.63,0,0,0-3.6-8.78,22.92,22.92,0,0,0-7.83-7c-.88-.51-1.52-.73-2.75-1.31a52.37,52.37,0,0,1-5.82-2.9,49.93,49.93,0,0,1-10.67-8.23A50.71,50.71,0,0,1,19,345.07a50,50,0,0,1,2.73-29.4h0a22.32,22.32,0,0,0-4.26-23.53l-1.74-1.91-2.34-2.65a52.9,52.9,0,0,1-4-5.82A48.46,48.46,0,0,1,4,269a50.12,50.12,0,0,1,.27-26.44,51.24,51.24,0,0,1,12.85-21.88l-4,9.77,4-9.77a22.65,22.65,0,0,0,4.26-6A22.48,22.48,0,0,0,22,196.23l-1.05-5.29L22,196.23a50,50,0,0,1,27.07-65.39l-8.55,12.79,8.55-12.79A22.46,22.46,0,0,0,62.48,114.2a18.77,18.77,0,0,0,.33-2.76L63,106.8A49.59,49.59,0,0,1,78.53,73.86,50.46,50.46,0,0,1,97.26,62.67,52.61,52.61,0,0,1,108,60.4l5.17-.25a22.17,22.17,0,0,0,2.45-.16,22.49,22.49,0,0,0,16.16-10c.49-.66.82-1.41,1.25-2.12l1.46-3.13a46.68,46.68,0,0,1,5.59-9.34A49.78,49.78,0,0,1,198.9,19.45l-5.2-1,5.2,1A22.74,22.74,0,0,0,205.16,21a22.84,22.84,0,0,0,17.13-5.3l2.23-2.06a44.55,44.55,0,0,1,3.88-3.32A48.53,48.53,0,0,1,237.1,5a49.89,49.89,0,0,1,56.32,9l2,1.8c.6.44,1.14,1,1.78,1.33A22.57,22.57,0,0,0,301,19.24,22.53,22.53,0,0,0,309.38,21a22.87,22.87,0,0,0,9.17-1.74l5.27-1-5.27,1a49.89,49.89,0,0,1,59.56,16.58,53,53,0,0,1,3.59,5.58l1.46,3,1.11,2.36a22.32,22.32,0,0,0,18.25,13.1A14.19,14.19,0,0,0,404,60l2.56.12a42.93,42.93,0,0,1,6.62.69,47.87,47.87,0,0,1,12.72,4,49.93,49.93,0,0,1,28.61,42.56l.17,4.2a20.89,20.89,0,0,0,.38,2.91,19.43,19.43,0,0,0,1.4,4.44,23.2,23.2,0,0,0,12.07,11.77l8.65,12.94-8.65-12.94A49.2,49.2,0,0,1,489.93,148a50.24,50.24,0,0,1,9,25.39,43.49,43.49,0,0,1-1,13.35,38.67,38.67,0,0,1-2.13,6.27c-.52,1.19,0-.49.36-1.91s.48-2.65-.18-.41L494,195.61h0a24.69,24.69,0,0,0-2.24,11.84c.25,3.8,1.16,6.21.35,4.43-1.4-5-.86,4.52,5.71,11.29l.13.31-.2-.23,1.65,4,.23.28,1.2,2.9-1.2-2.9a44,44,0,0,1,5.17,8A45.91,45.91,0,0,1,509.43,260.32ZM51.08,144.49l2.15-1,.66-1A37.36,37.36,0,0,0,33.3,163.68a36.16,36.16,0,0,0-1.38,21.59A37.1,37.1,0,0,1,51.08,144.49Zm22.64-22.16q-.48,1.3-1,2.46C73.08,124,73.41,123.19,73.72,122.33ZM76,106.67c-.29,4.15-.2,7.88-1.25,11.65a35.66,35.66,0,0,1-4.47,10.43,35.16,35.16,0,0,1-16.35,13.73l-.66,1,.89-.42-.38.57.38-.57a35.63,35.63,0,0,0,11.1-7.35,36.7,36.7,0,0,0,6.7-9.28A37.61,37.61,0,0,1,66.6,134a36.37,36.37,0,0,1-7.93,6.43l.73-.53C69.76,133.4,76.5,121.5,76,106.67ZM452.58,119a17.46,17.46,0,0,1-.42-2,21.94,21.94,0,0,1-.78-3.92,14.6,14.6,0,0,1-.16-2l-.14-2.9a44.83,44.83,0,0,0-2.84-14,46.63,46.63,0,0,0-35-29.72,47.34,47.34,0,0,0-5-.66l-4.41-.22a24.27,24.27,0,0,1-5.55-.79A25.84,25.84,0,0,1,381.43,49l-1.6-3.44a32.32,32.32,0,0,0-2.37-4.4,43.79,43.79,0,0,0-6.07-7.89c-6.41-6.57-12.73-9.67-20.09-12a52.58,52.58,0,0,1,8,3.47A47.05,47.05,0,0,1,375.5,39c1.05,1.48,1.95,3.08,2.88,4.64l2.18,4.58a24.93,24.93,0,0,0,3.15,5.33,26.27,26.27,0,0,0,9.52,7.76,28.28,28.28,0,0,0,5.85,2,25.65,25.65,0,0,0,3.06.46,13.79,13.79,0,0,0,1.54.09l2,.08a47.06,47.06,0,0,1,21,5.52A47.78,47.78,0,0,1,442.82,84a46.72,46.72,0,0,1,7.75,20.31,53,53,0,0,1,.4,5.46c.09,1.39,0,2.16.21,3.25A24,24,0,0,0,452.58,119ZM499.42,230.4l-2.58-6.23c.75.87,1.64,1.9,2.57,3l-1.65-4a26.33,26.33,0,0,1-7-25.26,27.69,27.69,0,0,0-.62,11.89,28.85,28.85,0,0,0,1.86,6.43,25.79,25.79,0,0,0,4.85,7.88Zm-83-158.66a40.47,40.47,0,0,1,4.36,1.61A40,40,0,0,0,416.4,71.74ZM323.83,33l.38-.08h0Zm0-5-1.53.3h0ZM425.75,75.95a42,42,0,0,1,4.61,3.23A39.5,39.5,0,0,0,425.75,75.95ZM33.63,320.61h0l-.09.47Zm456.49.47-.56-2.81h0Zm7.73-97.91.13.31c1.09,1.18,2.21,2.35,3.24,3.6C500.16,225.72,499,224.44,497.85,223.16ZM82.11,136.63a49.42,49.42,0,0,0,6.1-13.74,45.11,45.11,0,0,0,1.42-7.42,36.65,36.65,0,0,0,.28-3.77L90,110l.07-.88a22.93,22.93,0,0,1,16.14-20.6,30.36,30.36,0,0,1,4.21-1l2.31-.21c1.18-.1,3.3-.11,5-.34a49.86,49.86,0,0,0,23-8.64,50.53,50.53,0,0,0,13.9-14.54,47.06,47.06,0,0,0,3-5.61l1.71-3.65a23.94,23.94,0,0,1,3.41-4.77c.1.12,1.89-1.57-.05.73-3,4-3.26,6-2.37,4.14A25.69,25.69,0,0,1,163.87,50a22.41,22.41,0,0,1,24.46-5L193.69,46l-5.36-1.07a50.41,50.41,0,0,0,36.85.67,49.87,49.87,0,0,0,16-9.72l2.61-2.39a12.55,12.55,0,0,1,1.58-1.33,22.06,22.06,0,0,1,19.16-3.81,22.66,22.66,0,0,1,7.07,3.25,28.78,28.78,0,0,1,3.12,2.53,51,51,0,0,0,6.61,5.4c9.07,6.67,22,8.42,19.84,7.82A50,50,0,0,1,282,38.24a45.64,45.64,0,0,1-4.36-3.83l-3-3.08a22.84,22.84,0,0,0-4.95-3.94,20.63,20.63,0,0,0-9.66-2.81,24.54,24.54,0,0,0-18.69,6.82l-2.14,2a35.06,35.06,0,0,1-2.69,2.28,44.34,44.34,0,0,1-5.86,3.93,47.21,47.21,0,0,1-13.19,5,47.17,47.17,0,0,1-28.05-2.47l4.21.84-4.21-.84A25.3,25.3,0,0,0,166.7,44a24.13,24.13,0,0,0-8.28,8.32c-1.17,1.79-1.45,2.9-3.41,6.93a48.47,48.47,0,0,1-6.23,9.27,47.27,47.27,0,0,1-18,13,49.25,49.25,0,0,1-10.77,3,50.84,50.84,0,0,1-5.57.49l-3.7.17A25.09,25.09,0,0,0,91.41,97.32,23.63,23.63,0,0,0,88,108.51l-.16,4a45.72,45.72,0,0,1-.55,5.38A47.73,47.73,0,0,1,60.9,153.24l-1.58,2.37A49.25,49.25,0,0,0,82.11,136.63Zm-14.78,7-6.42,9.61h0Zm-1.46,0-7.11,10.64a23.39,23.39,0,0,0-11.89,11.59c-1,2.82-.92,2.75,1.15-.68a23.52,23.52,0,0,1,5.5-6.18,26.65,26.65,0,0,1,5.79-3.38l1.58-2.37c-.71.35-1.43.72-2.14,1ZM42,220.67c1.84-5.19,2-8.21,1.4-5.74a44.43,44.43,0,0,1-3.85,9.4A43.74,43.74,0,0,1,34.1,232l-.24.27-1.48,3.56A43.6,43.6,0,0,0,42,220.67Zm-7.31,9.73-.79,1.91h0Zm5.72,93a30.24,30.24,0,0,0,2,27.2,29.73,29.73,0,0,0,12.7,11.68l4.76,2.28a46.75,46.75,0,0,1,5,3.11,42.08,42.08,0,0,1,17.39,31.51l.25,5.64a33.25,33.25,0,0,0,.95,5,30.55,30.55,0,0,0,16.87,19.75,31.42,31.42,0,0,0,12.08,2.73c1.52.09,3.72.08,5.53.36a41.77,41.77,0,0,1,33.39,25,30.75,30.75,0,0,0,10.51,12.21A29.18,29.18,0,0,0,178.55,475a28.22,28.22,0,0,1-22.6-13.09,22.94,22.94,0,0,1-1.41-2.5l-1.4-3a43.76,43.76,0,0,0-26.74-24.07,43.63,43.63,0,0,0-9.31-1.9c-1.49-.18-3.39-.15-4.56-.23s-2.07,0-3.09-.2a28.83,28.83,0,0,1-20.59-12.73,27.73,27.73,0,0,1-4.46-13.72c-.11-1.18-.08-3.76-.31-6A43.15,43.15,0,0,0,83,391.23a44.21,44.21,0,0,0-3.15-8.82,44.61,44.61,0,0,0-18.56-19.73c-4.18-2.24-5.92-2.77-7.76-4.16a25,25,0,0,1-4.5-3.8,28.91,28.91,0,0,1-6.45-10.67,27.56,27.56,0,0,1,.48-19.53h0l.08-.21a45.65,45.65,0,0,0,2.46-25.87,45.58,45.58,0,0,0-12.51-23.28,29,29,0,0,1-6.93-11.49A44.7,44.7,0,0,1,24.72,256a24.52,24.52,0,0,1,.79-7.92,29.2,29.2,0,0,1,6.87-12.22l1.48-3.57c-.82,1-1.71,1.87-2.41,2.63l1.88-4.54-1.88,4.55c-10.64,10.29-11.54,28-3,38.88A40.77,40.77,0,0,0,32,278a39.79,39.79,0,0,1,4.48,5.62,41.69,41.69,0,0,1,5.78,12.88,42.59,42.59,0,0,1-1.91,26.94l.46-2.32Zm437.19-93,2.79,6.73h0Zm6.6,11.88c.14,0-.4-1.18-2.16-3.27l-3.56-8.6L482,239c-.48-.52-1-1.16-1.65-1.87l1,2.49A29.67,29.67,0,0,0,484.17,242.28ZM435.86,134.94a49.54,49.54,0,0,0,5,7.36,46.68,46.68,0,0,1-5.3-7.2,48.15,48.15,0,0,1-7.09-22.73l-.24-4.07c0-1-.33-1.93-.43-2.9a24.85,24.85,0,0,0-2-5.46,23.29,23.29,0,0,0-18.23-12.64c-.94-.17-1.92-.06-2.87-.16a56.77,56.77,0,0,1-6-.33A49.28,49.28,0,0,1,366.73,70a51.15,51.15,0,0,1-6.88-10.24L358.54,57l-.68-1.33a18.9,18.9,0,0,0-1.4-2.41A22.41,22.41,0,0,0,348.3,46a22.32,22.32,0,0,1,2.51,1.84,20.82,20.82,0,0,1,4.84,4.94,19.27,19.27,0,0,1,1.76,3l1,2c.57,1.2,1.06,2.44,1.74,3.6A50.26,50.26,0,0,0,401.83,88l3.76.16a11.76,11.76,0,0,1,2.2.2A18.3,18.3,0,0,1,412,89.46a22.18,22.18,0,0,1,12.65,11.69,21.73,21.73,0,0,1,1.92,8.57l.2,4.46c.19,1.67.32,3.36.67,5a50,50,0,0,0,2.78,9.69,50.53,50.53,0,0,0,27.5,27.81l-2.63-3.93A48,48,0,0,1,435.86,134.94ZM449,143.63l6.09,9.11h0Zm19.31,60.61A49.64,49.64,0,0,1,472,186.5h0l.31-.91c4.54-11.44-1.15-26.13-13.68-31.08l-7.27-10.87,7.27,10.87c-1.18-.47-2.35-1.16-3.53-1.76l2.63,3.93a22.37,22.37,0,0,1,12.72,27.48l-.49,1.5h0a49.74,49.74,0,0,0-.66,35.57,48.21,48.21,0,0,0,12.06,18.4l-1-2.49a49.1,49.1,0,0,1-12-32.9ZM472,186.5h0l-.88,4.44ZM220.55,436.63a19.25,19.25,0,0,0,2.65.59C222.27,437.06,221.44,436.83,220.55,436.63Zm97.81-6.28c-17.16,5.78-33.2,9.17-49.7,9.79-16.56,1.18-33.63-.44-53-4.92,2.14.59,3.58,1,4.85,1.41-3.64-.8-7.07-1.74-10.25-2.48A75.74,75.74,0,0,1,199.58,431c-3-.79-4.08-.92-8.89-2.45-2.66-.46-12.7-5.38-16.89-7.38-15.69-8.58-30.24-18.12-42.44-30.1-12.35-11.72-23.47-24.74-32.12-39.78-4.74-7-8.32-15.87-11.55-22.35a201.21,201.21,0,0,1-13.77-56.76c-1.89-20,.2-40.33,4.64-59.35A184.22,184.22,0,0,1,161.05,99.6c3.76-2.12,7.71-4.86,11.94-6.85l11.9-5.58c7.18-3,12.1-4.26,10-3.29-1.09.58-.15.33,3.64-1,3.72-1.6,10.58-3.37,21.28-6.11C225.12,75.52,231,74.93,236.6,74c42.48-4.92,86.91,4.67,122.64,28.58,5.15,3.28,9.84,7,14.76,10.53,32,26.08,55.48,62.94,64.25,104.6-1.53-4.26,1.11,7,2.55,24.48-.37,4.34-.75,7.08-1,12.12-.17,3.45-.51,1.65-1-5.46a181.84,181.84,0,0,0-5.43-37.11,178.74,178.74,0,0,0-28.85-61.87c-2.21-2.94-4.44-6-6.8-9l-7.71-8.5-3.78-4.14-4-3.66-7.35-6.78a189.94,189.94,0,0,0-47.52-29.31c-17.66-7.52-37.29-11.95-58.21-13.26-4.54-.09-9.07-.81-13.55-.42l-13.24.57c-6.43.49-12.69,1.71-19.41,2.58-3.32.66-6.69,1.61-10.25,2.46s-7.35,1.55-11.11,3.09c1.89-.29.88.32-4,2.26-2.42,1-5.89,2.15-10.31,4-4.29,2.17-9.77,4.57-16.16,8-6.19,4-12.83,7.24-18.53,11.91l-8.82,6.57-8.14,7.37C100.51,156,79.24,202.74,78.18,250.45a3.61,3.61,0,0,0,.07.72l.43-7.26c3.29-59.83,39.45-116,91.6-145.08,3.87-2.48,8.33-4.34,12.74-6.61,6.33-3.44,13.34-5.33,20-8,3.37-1.3,7-1.91,10.43-2.89,3.51-.82,7-2,10.52-2.53a29.87,29.87,0,0,1-4,1.43c-4.73,1.48-10,2.94-15.35,4.71-5.24,2.19-10.73,4.33-16.08,6.67,20.74-7.52,20.66-6.77,35.2-10.92l12.14-2,4.4-.69,4.79-.25,10.33-.49c7.13-.27,14.61.64,21.7.94,7,1.22,13.68,2.09,19.13,3.35L308.53,85c2.83.65,7.22,2.65,11.47,4.17a180.34,180.34,0,0,1,53.89,31.4L384,129.8c3,3.14,5.72,6.31,8.34,9.2l3.74,4.24,3.07,4.23,5.24,7.29c5.68,8.9,7.46,13.22,4.7,9.17-2-2.74-.26.82,3.14,7,1.68,3.13,3.21,7.23,5.19,11.42.91,2.13,2.05,4.25,2.87,6.51l2.4,6.78c6.23,17.07,7.65,28.14,8.42,34.8s.9,9.18.63,10.32c-.14.85-.58-3.56-.51.36.15,8.57,0,10.47-.33,8-.51-2.48-.38-9.44-2.27-18.37l1,7.91c0,2.52.1,4.93.14,7.34a81.5,81.5,0,0,0-1.35-12.61c-.77-4.17-1.29-8.5-2.28-13.14-1.26-4.56-2.64-10.5-4.18-15.92l-4.78-12.93c-1.09-3.12-2.91-6-4.37-9.16-1.63-3.06-2.92-6.37-4.87-9.4-3.86-6.07-7.42-12.62-12.24-18.47-4.29-6.24-9.63-11.78-14.79-17.46-2.55-2.87-5.61-5.23-8.37-7.87a79.66,79.66,0,0,0-8.72-7.35,168.38,168.38,0,0,0-53.3-28.52c1,.75,6.75,3.28,5.64,3.21-1.15.27-8.72-4.14-36.5-8.1l5.23,1.62c-19.5-3-40.78-2.31-53.29.58-17.72,3.31-35.48,9-50.89,17.13l-15.23,8.22,1.32-1c-14,9.12-29.38,23.68-36.45,32.66-8.39,10.7-18.59,25.48-25.86,42.74a182.36,182.36,0,0,0-13,53.48c-.34,5.5-1,13.42-.29,20.21,0,8.86,1.78,17.54,3.09,26.27L97.55,303c.91,4.33,2.9,8.32,4.27,12.51,6.37,16.39,14.89,32.08,26.06,45.69,2.24,3.08,5,5.7,7.52,8.58a77.85,77.85,0,0,0,7.95,8.14l8.39,7.69,9.08,6.84a73.31,73.31,0,0,0,9.43,6.33c3.27,1.91,6.39,4.11,9.77,5.81,6.85,3.25,13.55,6.9,20.84,9.21,24.1,9,52.2,12.37,76.12,9.31a173,173,0,0,0,99.59-47.38c2.43-2.26,6.1-6.6,7.47-8.07a117.19,117.19,0,0,0,9.21-11.59c2.44-3.37,4.79-6,6.39-8.86,3.34-5.57,6.85-9.85,9.84-16.66a59.39,59.39,0,0,1,4.81-8.5c.73-1.08-1.14,3.25,0,1.23,2.64-5.12,8.87-21.53,7.76-17.49-.94,5.35,2-5.24,4.63-14.23l-3.2,13.05c-1,4.4-3,8.78-4.75,14.21,5.43-13.63,5.9-16.53,7.19-20,.6-1.76,1.26-3.73,2.34-7.44.75-3.78,1.72-9.35,3-18.29-.7,5.87-1.7,12.28-1.63,12,.95-4.84,2.46-9.43,2.9-14.22L434.4,256c-.16,25.78-4.88,43.24-10.81,60.16.26.1,2.28-4.43.46,1.18a80.64,80.64,0,0,1-5.17,13.18c-2.31,4.89-4.7,10.37-8.12,15.52l-4.86,8c-1.73,2.61-3.74,5-5.57,7.54s-3.67,5-5.54,7.26L389,375.21c-5.9,7-12.25,11.84-17,16.47l-12.68,9.91a166.1,166.1,0,0,1-29.19,16.67c-3.19,1.7-6.73,2.61-10.08,4-3.42,1.18-6.74,2.7-10.24,3.61V426a177.89,177.89,0,0,0,57.88-29.72l-8.39,6.35c-2.81,2-5.85,3.66-8.72,5.48s-5.71,3.71-8.77,5.12l-9.09,4.38a81.39,81.39,0,0,1-11.32,4.69c-3.87,1.32-7.63,3-11.59,4-7.94,2-15.81,4.35-24,5.24-8,1.59-16.24,1.7-24.37,2.15-4.07.34-8.12-.26-12.18-.33-4-.3-8.12-.13-12.09-.93-25.58-2.4-56.39-15.39-42.4-9.25l8.75,3.52c3.14,1.32,6.71,2,10.29,3.14,3.62.91,7.27,2.32,11.11,2.89l11.42,2c1.91.58,9.27.93,14.13,1.13l-1.82-.42c10.72.95,19.29.43,31.56-.54-11.28,1.32-17.65,1.28-19.07,1.5-.61.28-1.87.53-1.36.69,1.48.43-6.2,1.37,17.09.61,4.71-.51,10.78-1.45,16-2.14s9.4-2.08,10.62-2.16a92.17,92.17,0,0,0,18.84-5.52l8.06-2.94,7.91-3.74a120.39,120.39,0,0,0,10.95-5.41c4.29-2.37.65.18.35.73l7.63-4.49L347,418.28l-9.25,4.5c-2.92,1.35-5.58,2.83-8.32,3.88l-8.08,3Zm-14.3-8.82,4.53-1c29.46-9.35,56.77-26.19,77.23-49.46l-1.45,1.3c-1.72,1.85-3.3,3.86-5.13,5.6l-5.59,5.11c-6,5.95-13.06,10.55-19.86,15.58l-9.12,5.51c-1.53.91-3,1.89-4.58,2.74l-4.82,2.3-9.57,4.61-9.85,3.63-6,2.38ZM93.17,328.73l.33.57,5.88,12.25c2.29,4.06,4.9,8.17,7.61,12.7-3.45-6-7.36-11.84-10-18.09l-4.25-9c-1.27-3-2.22-6-3.3-8.82l-3-8.2c-.79-2.66-1.39-5.22-2-7.58-1.17-4.76-2.54-8.76-3.06-12,1,5.49,2.5,10.72,3.73,16.14s3.55,10.63,5.45,16.36a64,64,0,0,0,4.13,9.33c2.07,3.94,4.12,9.21,8.09,15.15a94.69,94.69,0,0,1-6.38-12.09ZM372.5,111.85c.51.41,1,.84,1.5,1.25l.6.44ZM263.67,451.43c6.14-.39,13.22-1,12-1-7.37-.47-16.34-.17-25.92-1.75-2.06-.28-5.65-.5-11.09-.92-5.37-1-12.7-1.65-22-3.73-44.6-9.33-85.56-36.43-112.74-73.21-12.46-16.63-21.79-34.94-26.31-47.28-5.1-12.16-6.3-18-4.74-9.92.44,1.55,1.9,5.67,3.21,9.37a194.54,194.54,0,0,0,38.84,65c4.62,5.22,10.25,9.89,18.44,17,1.8,1.75,5.36,4.1,9.08,7a110.84,110.84,0,0,0,11.73,8.18c-.12.11,2.36,1.84-.85,0-5.43-2.93-7.09-4.5-5.2-2.82s8.12,5.48,19.31,11.83C197.05,444.74,232.93,453.37,263.67,451.43ZM126,121c-4.08,4-7.84,8.39-9.61,10.16-4.41,4.3-7.69,9-10.89,12.91l-4.4,5.49-3.24,4.82c-1.84,2.71-4,6.08-6.81,10.56-2.32,4.73-5.35,10.55-8.64,18.17L77,198c-1.62,5.28-2.84,10.74-4.14,15.7-1.47,4.93-1.67,9.66-2.29,13.3s-.77,6.4-.79,7.66c-.21,1.21-.15,6.73-.38,13.22,0,3.25-.37,6.74-.06,10.08l.7,9.14c.28,3.39.54,5.22.57,3.64,0-3.45,0-9.48,0-12.31.3-18,1.91-35.49,6.84-51.66l1.6-6.09c.6-2,1.41-3.93,2.11-5.88l4.32-11.59,5.31-11,2.66-5.43c1-1.75,2.08-3.43,3.11-5.14,11-18.28,22-32.21,41.85-49.43,13.83-11.72,32.53-22.71,48.23-29.33l13.15-6c4.38-2.09,9.93-3.41,15.63-5.39C190.29,77.38,160,90.43,136.2,111.68ZM336.26,436.08l15.86-7.66a201.56,201.56,0,0,0,51.76-41,193.23,193.23,0,0,0,34.92-54.73,182.62,182.62,0,0,0,10.41-36.31c.63-4.46-.67-.19-5,15-1.4,4.86-5,13.47-7.15,19.68a206.38,206.38,0,0,1-31.31,50.84,46.9,46.9,0,0,0,3.5-3.56c-1,1.3-2.08,2.6-3.24,3.79-11.53,14.3-25.61,26.35-40.62,37-15.2,10.47-32.11,18.24-49.6,24.29a32.92,32.92,0,0,0,3.78-1.07C325.15,440.24,330.8,438.35,336.26,436.08Zm-6.86-191.33c-5.48,5.94-10.13,10.68-15.08,15.77-5.36,4.65-7.6,9.71-5.57,18.1l-.3-3.3,1.81,10.24a24.61,24.61,0,0,1,1.38,3.72c.3,1.08,1.22,5.72,1.52,7.66.73,3.82.73,9.11-1.16,13.17a20.75,20.75,0,0,1-8.92,9.88,19.12,19.12,0,0,1-13.28,2,23.75,23.75,0,0,1-6.07-2.41l-4.8-2.61-9.31-5.14-5.24-3a11.42,11.42,0,0,0-4.35-1.51,11.21,11.21,0,0,0-4.61.37,12.47,12.47,0,0,0-2.2.91l-2.79,1.5-11.21,6-5.58,3a22.23,22.23,0,0,1-7,2.57,18.88,18.88,0,0,1-17.21-6.29,20,20,0,0,1-4.57-17.22l2.69-15,1.34-7.33a15.24,15.24,0,0,0,.18-6.24A13.79,13.79,0,0,0,207.4,265a21.81,21.81,0,0,0-3.18-3.89c-2.25-2.44-3.64-4.1-2.74-3.63s-.91-1.42-7.61-8.09c-1.64-1.69-3.38-3.3-5.11-5.32-6.9-7.68-5.3-20.86,3.22-26.73a17.88,17.88,0,0,1,7-2.85l6.83-1.05,13.6-2.06c2.81-.41,5.09-.79,7.15-2-.31.15-.64.24-1,.36,3.71-1.62,6.29-4.59,8-8.71l5.85-12.2,2.94-6.13a22.8,22.8,0,0,1,3.94-6.19,17.05,17.05,0,0,1,13.82-5.28c-1.08.24-.22.32,1.8.83a17.45,17.45,0,0,1,8.12,4.47,19.38,19.38,0,0,1,1.84,5.13c.36,1.42-.14.78-1.78-1.51a14.4,14.4,0,0,0-12.91-5.65,13.87,13.87,0,0,0-10.73,7.26c-2.22,4.29-4.36,9-6.54,13.43l-4.28,8.95a17,17,0,0,1-6.47,7.27,16.42,16.42,0,0,1-6,2.21l-6,.79L204.9,216c-4.13.62-8.42.74-11.81,3.3a15.9,15.9,0,0,0-6.39,10.76,16.15,16.15,0,0,0,2.17,10.86c1.4,2.34,3.48,4.21,5.47,6.36l6.57,6.93c-.31-.84.21-.65,1.9.87l3.47,3.32a21.65,21.65,0,0,1,5,6.32,17.71,17.71,0,0,1,1.66,9.79L211.39,284l-2.5,15.33a15.8,15.8,0,0,0,4.19,13.54,14.58,14.58,0,0,0,13.33,4.21c2.38-.48,4.49-1.8,6.81-3l6.8-3.74c.12-.07.14-.15.22-.24l-2.8,1.46c-2.83,1.48-5.75,3.25-8.5,4.48a13.64,13.64,0,0,1-8.76.7,15.16,15.16,0,0,1-11-12.84c-.4-2.93.46-6,.94-9.29l1.61-9.59,1.61-9.61A18.36,18.36,0,0,0,212,265.06a18,18,0,0,0-4-5.39l-13.21-13.39c.52.26.41-.16,1.68.9l11.24,9.5c-6.51-7.19-6.44-7.11-11.44-11.51-.67-.61-2.62-2.43-3.77-3.7-3.08-2.82-4.62-9.07-2.51-13.89,1.88-5,6.21-7,7.88-7.28.91-.22,2.48-.34,4.65-.63l13.69-2,6.86-1a19.53,19.53,0,0,0,8-3.18,20.42,20.42,0,0,0,5.29-5.29,22.09,22.09,0,0,0,1.72-3l1.19-2.39c1.54-3.08,2.92-5.74,4-7.8,2.24-4.11,3.44-5.81,2.84-3.69-.41,1.46.69.06,2.35-2.67l1.34-2.27a16.42,16.42,0,0,1,1.31-2.12,10.1,10.1,0,0,1,2.51-2.61,7.44,7.44,0,0,1,8.14-.67c1.32.86,1.52,1.48,1.58,1.77s-.84-.13-.3.45c1,1.41.94,1.93.49,1.65a10,10,0,0,0-2.76-1.57,6.22,6.22,0,0,1,1.64,1.74,5,5,0,0,0-3.4-1.32,4.42,4.42,0,0,0-3.73,1.48,10.09,10.09,0,0,0-.77,1.43l-1.91,4.24-4.27,9.27-2.23,4.75-1.13,2.39-.57,1.2c-.28.56-.64,1.3-1,1.92A27.17,27.17,0,0,1,230.31,222a25.6,25.6,0,0,1-5.58,1.6l-3.56.54-6.79,1-7,1-3.59.51-1.82.26-.86.13-.28.08c-.41.36,2.86.27,2.36.67a3.24,3.24,0,0,1-1,.38,4.74,4.74,0,0,0-1.22.42,3.71,3.71,0,0,0-1.76,1.89,3.46,3.46,0,0,1,1-.07,3.72,3.72,0,0,0-.36,2.63,2.83,2.83,0,0,0,.49.83l1.88,1.81c3.09,2.89,6.15,5.88,9.15,8.88l4.44,4.5,2.47,2.59a29.09,29.09,0,0,1,3.44,4.6c3.68,6.67,3.54,9.47,3.89,14.07l-.32-1.36a30.37,30.37,0,0,1,.21,5.33c0,.91-.13,1.83-.27,2.74l-.26,1.76-1,6.19-1.5,10.43-.65,5.08a4.76,4.76,0,0,0-.09,1.37c-.07.22.12.36.05.54a2.79,2.79,0,0,0,1,1.46,1.59,1.59,0,0,0,.89.37c.06-.05.13,0,.25-.06a.32.32,0,0,1,.21,0l1.31-.68,5.49-2.85,8.33-4.47,5.43-3a29.34,29.34,0,0,1,11-3.5,29,29,0,0,1,11.7,1.12,30.33,30.33,0,0,1,5.39,2.28l2.72,1.48,10.86,5.93,5.42,3,1.35.74c.48.26.27.08.42.18s.23.06.3.14,1.38-.11,1.95-1.23a3.1,3.1,0,0,0,.28-.82c-.06-.18.06-.32,0-.53a1.24,1.24,0,0,1,0-.3v-.16l-.1-.64-1.69-10.52-1.47-9-.37-2.28-.45-3a30.58,30.58,0,0,1,7-23.09l1.38-1.52.8-.82,1.52-1.58,3-3.09,9.14-9.49,2.12-2.21c.06-.19.29-.28.3-.45a1.84,1.84,0,0,0,.31-.88,3.32,3.32,0,0,0-.46-2.22c-.14-.33-.36-.41-.48-.54s0-.07-1-.38l-5.09-.75c-5.44-.57-8.93-1.15-11.92-1.72l-4.29-.87-3-.61a31.55,31.55,0,0,1-4.4-1.4c-4.8-2-6-3.78-7-4.69-.75-.77,2.55,1.4,1.09.12a30.43,30.43,0,0,1-6.79-8.25c-1.86-3.64-1.8-4.46-1.35-3.8,1.47,2-.51-2.62-2.09-6.6l2.77,5.49.73,1.44c.39.76.81,1.53,1.3,2.3a26.26,26.26,0,0,0,3.64,4.55,23.51,23.51,0,0,1-5.17-8.4c-.47-1.3-.66-2-.89-2.87-.46-1.65-1.1-3.63-4.52-11.07l2.48,4.9-3.79-12.83,6.44,13.57,2.73,5.76,1.39,2.9a21.62,21.62,0,0,0,2.22,3.52c.2-.18-1.25-2.75,1-.06a23.67,23.67,0,0,0,6.59,5.09c2.67,1.55,6.81,2.25,9.12,2.52l16,2.54,2.91.45a19.19,19.19,0,0,1,2.33.43,9.1,9.1,0,0,1,3,1.15,13.28,13.28,0,0,1,3.64,3.18A11.21,11.21,0,0,1,326.37,236a11.93,11.93,0,0,1-1.48,3.11,21.31,21.31,0,0,1-2.61,3l.09.12,1.28-1.28.88-1a11.11,11.11,0,0,0,1.45-2.23,11.55,11.55,0,0,0,1.26-5.17,12.69,12.69,0,0,0-4.08-9.71,12.64,12.64,0,0,1,4,12.48,11.85,11.85,0,0,1-1.6,3.74,19,19,0,0,1-3,3.46L315,250.21l-7.59,7.71a20.56,20.56,0,0,0-5.78,11.69,19.81,19.81,0,0,0,0,5.32c.27,1.83.54,3,.81,4.47l1.55,7.46c.93,4.12,1.55,6,1.28,2.67l-.86-8.81-.54-5a19.19,19.19,0,0,1,.15-5.52,20.36,20.36,0,0,1,2.06-6.38c-.18.15-.35.3-.69.64a19.42,19.42,0,0,1,4.41-5.67l5.14-5-5.68,6.09c0,.38-.27.93,0,.88.83-.1-1.12,2.61,6.22-4.23,3-2.79,7.64-7.3,8.51-7.89a18.15,18.15,0,0,0,2.21-1.9,27.86,27.86,0,0,0,3.86-4.33c3.27-4.09,3.58-11.52,3.13-13.28-.31-2.3.45-.36.79-.12a19.7,19.7,0,0,0-1.08-4.22,19.61,19.61,0,0,1-2.17,19Zm-12.47-5.19,1.6-1.39a14.06,14.06,0,0,0,1.38-1.51,3.12,3.12,0,0,0,.62-.86,6.05,6.05,0,0,0,.77-1.89,7.12,7.12,0,0,0-.45-4.27,5.56,5.56,0,0,0-2.53-2.86,5.27,5.27,0,0,0-1.72-.58l-5-.74.85.33,3.45.46a5.8,5.8,0,0,1,1,.18c.19.06.43,0,.58.14a5.05,5.05,0,0,1,2.81,2.58,6.42,6.42,0,0,1-.47,6.93C319.62,236.35,318,238.27,316.94,239.56Zm-33.08,74.26c-5.2-3.06-10.49-6.08-15.11-8.63a20.59,20.59,0,0,0-7-2.85,14.92,14.92,0,0,0-5.74.13,16,16,0,0,1,7.53.72c2.45.85,4.46,2.32,6.75,3.55l10.49,5.57-8-4.55.27.09Zm35.83-42.74a2.92,2.92,0,0,1,.15-.32c0-.06.06-.09.08-.15l.68-.76c1.67-1.83,3.54-4,3.11-3.73l-4.2,2.72a2.49,2.49,0,0,1-1.36.66,3.73,3.73,0,0,0-.91.42,2.34,2.34,0,0,0-.81,1.32,4.73,4.73,0,0,0-.19,1.38,5.08,5.08,0,0,0,.07.86l.43,2.59,2.35,13.73,1.17,6.89c.09.43.21,1.41.31,2.38a25.14,25.14,0,0,1,.19,2.84,27.59,27.59,0,0,1-14.07,24.2,26.1,26.1,0,0,1-23.39,1c-.73-.33-1.82-.83-2.22-1.07l-1.39-.75-2.74-1.47L271.68,321c-3.38-1.74-6.43-3.25-8.85-4.39l-1.69-.78-.74-.33h-.18a1,1,0,0,0-.51.08c-.22.14-.2.32,0,.59a1.32,1.32,0,0,0,.22.21l2,1.15L275,325.08l3.33,1.91,1.67,1c.55.32,2,1,2.94,1.44a28.54,28.54,0,0,0,14.57,2.23,29.54,29.54,0,0,0,16.29-8.5,34.21,34.21,0,0,0,5-6.56,29.44,29.44,0,0,0,3.42-9.7c.15.06.71-2.08.36.58-.67,4.44-1.47,6-.66,4.3a22.71,22.71,0,0,0,1.4-5.33,34.28,34.28,0,0,0,.35-4.82c0-.92-.11-1.87-.2-2.9l-.17-1.58-.16-1-3.22-20.2-.41-2.51a6,6,0,0,1-.1-.73,3.61,3.61,0,0,1,.06-.84A3.75,3.75,0,0,1,319.69,271.08Zm-116.06,8c-.25,2-1.53,9.33-2,11.36l-1.57,6.83c-.25,1-.48,2.77-.66,4s-.09,2.54-.1,3.6a21.91,21.91,0,0,0,1.79,7.72,23.6,23.6,0,0,0,8,9.91,26,26,0,0,0,9.33,4.2,23.54,23.54,0,0,0,10.64-.14,21.05,21.05,0,0,0,4.43-1.6c.61-.3,1.37-.66,1.77-.89l1-.63a15.17,15.17,0,0,0,2.61-1.85c.72-.78,7.67-4.91,11.34-7.3,1.19-.77,1.78-1.28,1.15-1.07-1.36.46-3.7,1.46-4.8,1.91l-9.8,5.22c-2.54,1.46-8,4.41-12.93,4.13a22.05,22.05,0,0,1-21.71-24.72c.15-1.54.36-2.45.55-3.5l.57-3.15c.77-4.25,1.54-8.76,2.37-14.21l.45-2.87c.16-1,.33-2,.36-2.52a11.34,11.34,0,0,0-.37-4c-.8-2.86-2.08-4.19-5-7.12l-5-3.52-5.54-4.17,11.83,12.21a9.27,9.27,0,0,1,2,4.62,10.08,10.08,0,0,1,0,2.72Zm137.43-31.37a26.43,26.43,0,0,1-2.87,4.22l-1.59,1.88-.94,1,1.28-1.05a32.17,32.17,0,0,0,7-11.16,31.15,31.15,0,0,0-9.33-34.1,28.89,28.89,0,0,0-11.32-5.81l-3.08-.67-1.67-.25-3.29-.49-13.08-1.9-5.17-.7a1.46,1.46,0,0,1-.63-.15,2.78,2.78,0,0,1-.67-.46c-.14-.18-.12,0-.39-.49l-1-1.82a45.23,45.23,0,0,0-2.76-4.54c-1.12-1.47-.72.31,1.75,6.21a20.41,20.41,0,0,0,.83,1.88,3.25,3.25,0,0,0,.81.93,3.56,3.56,0,0,0,1.31.66,2.45,2.45,0,0,0,.34.07l.89.13,3,.42,12.31,1.73-2.63-.84,2.69.5,5.54.61,1.38.15c.52.06,1.55.26,2.3.41a24.31,24.31,0,0,1,4.82,1.44,28.52,28.52,0,0,1,14.63,13.34,30.51,30.51,0,0,1,3,19.25A29.84,29.84,0,0,1,341.07,247.75Z"/></svg>