<svg id="Layer_1" data-name="Layer 1" xmlns="http://www.w3.org/2000/svg" viewBox="0 0 512 512"><defs><style>.cls-1{fill:#707070;}</style></defs><title>id-card-handdrawn</title><path class="cls-1" d="M510.22,170.09a70.42,70.42,0,0,0-6.94-17.92,71.75,71.75,0,0,0-19.34-22.46,79.34,79.34,0,0,1,7.54,5.47,75.28,75.28,0,0,0-45.22-21.42l-6-.33c-2-.1-3.31,0-5-.07l-9-.05-15.63-.14c-25.69-.33-52-.35-76.78-.19-12.46.08-16.65.45-24.57.69l2.35.19L295,113.76c0-4.21.06-8.36-.09-12.69a38,38,0,0,0-3.63-14.62,41,41,0,0,0-2-4l.41.5A38.32,38.32,0,0,0,266,65.76c.89.76-1.76.21-5.82-.13a30.09,30.09,0,0,1-2.83,1.48c-.77.31-.36.57,1.2.79a50,50,0,0,1,8.14,1.41,33.53,33.53,0,0,1,13.28,7,39.77,39.77,0,0,1,6.46,7.19,32.81,32.81,0,0,1,5.31,11.25c1.15,4.16,1.18,8.67,1.19,13.48,0,1.85.09,3.69.13,5.48h-2.59c0-5.34-.34-12.82-1-14.43a14.19,14.19,0,0,1-.68-2.47,33.45,33.45,0,0,0-4.86-12c-4.44-6.62-10.2-8.93-8.88-7.21.74,1.2-3.3-.69-6.66-1.94-6.59-2.28-8.25-1.33-8.65-1.09-.17.15.61.48-.11.53-3.17.5-1.36.72,1.71,1.57a17,17,0,0,0-2.69.14,28.05,28.05,0,0,1,4.35,1,19.92,19.92,0,0,1,4.82,1.75c3.84,2.29,8.18,5.79,10.7,10.25a26.77,26.77,0,0,1,3.54,9.51c-.39-.15-.93-1.11-1.22-.88s-.24.52-.19,1.44c0,1.14,0,2.88,0,5.57l-.8-1.33c-.09,3.27-.14,6.64-.23,9.48L242,113.49l-7.93-.1c0-2.5.05-5,.11-7.23l.1-3.43.18-2.15a32.39,32.39,0,0,1,.91-4.13,26.2,26.2,0,0,1,3.8-7.61,6.6,6.6,0,0,1,1.12-1.26c2.85-2.15,3.26-3.31,5.21-4.57a2.49,2.49,0,0,0,1-1.27c.1-.25-.67-.12-.41-.43.59-.86,3.17-2.27,2.41-2.36-1-.1.64-1,2.18-1.63a24.58,24.58,0,0,0-4.79,1.3c4.72-2.07,1.37-2.19,7.82-3.62l-2.23.2a32,32,0,0,1,5.36-2.61,30.9,30.9,0,0,0-11.71,2.35c-.11-.25.68-.91-.5-.69-3.21.55-8.33,4.31-11.14,7.76a68.18,68.18,0,0,0-4.75,6.47,18.1,18.1,0,0,0-2.73,6.28,35.41,35.41,0,0,0-.91,4.34H225a32,32,0,0,1,4.09-12.75,26.93,26.93,0,0,0-3.43,7.75,34.61,34.61,0,0,0-1.23,10.24q0,4.51,0,9l-2.45,0c0-.24,0-.49,0-.7l.33.42-.34-7.27-.23,4.4c-.25.14-.44.43-.62.31-.51-.33-1.06,1.41-1.47-3.88-.22-2.13-.26-5.59-.39-6.2-.27-.8-.15-1.95.27-4.62.41-2.49,1.41-5.89,1.65-6.79.21-1.17-.42-.29-.76-.28a11.47,11.47,0,0,1,.71-2,38.49,38.49,0,0,0-2.92,9.21l.25.8a45.22,45.22,0,0,0-.69,6.22l-.1,5.57.06,4.8c-37.6-.32-86.27-.37-125.62,0l-13.68.06H74.65l-4.67.22a70.28,70.28,0,0,0-9.09,1.1,78.17,78.17,0,0,0-21.71,7.69,79,79,0,0,0-18.24,14A74.16,74.16,0,0,0,.88,177,81.94,81.94,0,0,0,0,188.41v28.18q0,18.78,0,37.51c.1,43.37.2,86.22.31,129.59a74.35,74.35,0,0,0,30.4,58.48,72.9,72.9,0,0,0,30.72,13.32,65,65,0,0,0,8.2,1c2.75.16,5.57.3,7.57.26l13,.05c53.83.26,105.43.36,159.62.1l15.63,0c33.18.51,43.06-.2,64.11-.3a120.36,120.36,0,0,0,13.79-.63c1.8-.18-4.86-.39-1.58-.57,8.13-.43,32.71-.88,26.82-1.24-7.53-.46,7.85-.66,20.83-.95l-39.51-.32c40.71-.32,16-1.22,65.78-1.42l-16.7-.14,40.18-2.08H355.69c0-.28,6.69-.62-1.29-.84-21.23-.59-62.3-.31-92.11-.25-24.69,0-42.75,0-53.73-.25-12-.29-26.19-.33-45.38-.33L134,447.56l-.06-.14,88-.22-55.16-.11H84.33c-5.44,0-10.9.11-16.84-.43a63.93,63.93,0,0,1-56.73-57.54,104.27,104.27,0,0,1,0-13.28c.14-1.83.29-.78.42,4.29.13,7.71,1.41,17.66,5.74,27s11.14,18.2,19.55,24.28a65.51,65.51,0,0,0,16.75,9.31l-2.47-.56A61.27,61.27,0,0,0,71,444.57c6.84.32,13.61,0,21.82,0l-17.59-.16c-4.27-.24-6.91-.3-7.85-.54s-2.43-.81-1.73-.89c1-.11-1-.68.58-.69,1.56.16,6.58.28,21.83,0,12.4-.17,32.09-.31,35.23-.51,4.3-.28,10.67-.27,25.59-.29,13.9,0,33.39-.14,38.42-.3,6.36-.2.61-.49-.07-.81l11.45-.12L147,440.16l-4,.37-65.79-.26a60.12,60.12,0,0,1-30.35-7.13,64.5,64.5,0,0,1-13.34-10,61.06,61.06,0,0,1-6.94-8.71c.58.82,1.15,1.58,1.77,2.34a57.28,57.28,0,0,1-11-27.6c0-3.86.06-4.9.31-11.46.12-3.4.28-17.75.25-23.71.05-46.09.1-88.5.15-133,0-10.85,0-23,0-32.32A56.61,56.61,0,0,1,27.71,156a57.41,57.41,0,0,1,27.84-21.63A54.39,54.39,0,0,1,73.26,131c6.26-.16,12.85-.07,19.24-.12l38.27-.11,185.47-.88c22.32-.16,54.39-.23,48.52-.85-3.17-.33,5-.35,33.74-.26h22.07c14,.24,28.05-1.31,40.63,4.32a60.39,60.39,0,0,1,29.84,26.51,59.54,59.54,0,0,1,6.48,19.17c1.11,6.63.72,13.61.78,20.61v41.81c-.06,8.27-.12,16.37-.18,24.56l-.09-3.51c0,27.29.07,54.58.1,82.06-.06,13.7.2,27.63-.12,41.29a58,58,0,0,1-15.49,36.64c2-2,.93,0-3.23,4a58.51,58.51,0,0,1-22.55,13.27c-5.19,1.95-8.59,3.43-15.29,4.16-4.6.43-2.21,1,7.4,0a57.12,57.12,0,0,0,18.93-6.09,62.92,62.92,0,0,0,23-20.42,62.14,62.14,0,0,0,9.1-21.11c1.8-7.58,1.56-15.45,1.55-23,0-15.21-.05-30.48-.08-45.65,0-19.48-.09-41.57-.13-57.94-.16-24.27-.32-48.72-.49-74-.08-6.28.13-12.79-1.22-19.18A64.1,64.1,0,0,0,492.66,158a62.8,62.8,0,0,0-29.91-26.58A66.12,66.12,0,0,0,445.35,127c-6-.41-11.77-.23-17.47-.22l-54.76.35c4.95-.75-6-.94-44.34-.91l-58.06.07L82,126.14a6.13,6.13,0,0,1-1-.11l9.6-.06,236.49-.25,19,.15h57.17a22.82,22.82,0,0,0-5.53-.57L353.23,124c29.46-.41,29.13-.41,49.31.06l16.42.13h12.35c4.37,0,9-.06,14.08.28a64.74,64.74,0,0,1,47.81,29A66.36,66.36,0,0,1,501,169.6a60.83,60.83,0,0,1,2.94,17.13c0,27.94.05,56.23.08,84.27,0,50.52.65,88.7,1.39,75.48.25-4.55.65.74,1,10.4L506.8,374c0,3.24.18,6.28.07,9.88l-.25,5.49-.8,5.4a69.43,69.43,0,0,1-14,30.52,73.39,73.39,0,0,1-15.35,14.12c-8.66,5.71-12.5,6.8-14,7.71-1.18.63,5.45-1.58-.29.67a74,74,0,0,1-12.34,3.49c-1.91.42-1.67.49.33.3,3.92-.31,15.27-2.21,27.76-10.14a68.35,68.35,0,0,1-22.54,10.16,70.26,70.26,0,0,0,36.37-20.91,71.41,71.41,0,0,0,18.88-44.89c.21-2.87.23-5.21.25-7.52s0-4.76.07-7.18l.11-14.81c0-10.06.08-20.45.12-31,0-21.13,0-42.93,0-64.07,0-13.54,0-27.22-.06-41.3l-.07-21.45q0-5.5-.06-11.1l-.36-6.6-1-6.61c.32.91,1,3.94,1.54,6.54.34,2.62.62,4.8.73,3.9S512.4,179.62,510.22,170.09ZM237.49,85.28l-.08.38a15,15,0,0,0-1.71,2,21.3,21.3,0,0,0-2.16,3.78,26.31,26.31,0,0,0-2.2,6.93,21.09,21.09,0,0,1-.66,2.1,4.17,4.17,0,0,1-.07-.82A26.16,26.16,0,0,1,237.49,85.28ZM134.51,453l129.06.31-2.69.2-21.12-.1-35.17.08-59.13,0c-6.69,0-11.63-.24-17.37-.37ZM13.5,183.08c-.45,6.6-.2,17.35-.39,36.15C13,202.66,13,197,13,191.28l0,.86c0,11.78,0,23.56,0,37.47-.08-9.17-.15-18.38-.23-27.3.08-8.87-.6-17.6,1-25.74a60.47,60.47,0,0,1,18.55-33.51A61.79,61.79,0,0,0,13.5,183.08Zm13.59.25-.19,4.49L27,199.26q.08,11.48.16,23.1c.11,15.5.22,31.21.33,47.3l-.6,30.74c0,6.15,0,20.81,0,31.61.16,0,.34,3.64.46-.86.39-15,.58-11,.59,20.43,0,10.19,0,20.54.06,30.93a47.26,47.26,0,0,0,6.21,22.8C42.05,419.22,57,428.08,71.33,429c2.52.26,6.81.32,9.74.38s4.72.15,4,.21l-7.08.54-3.7.25-3.14.1a44.17,44.17,0,0,1-13.56-1.87,20.84,20.84,0,0,1-4.06-1.51,41.43,41.43,0,0,1-6.1-3.27,48.53,48.53,0,0,1-15.54-16.26,50.39,50.39,0,0,1-6.1-16.07l-.64-4.28-.21-4.33,0-10.47q0-21.22.06-42.53c0-28.39,0-56.84,0-85.17.05-12.85.1-25.57.15-37.11.06-5.77.12-11.24.17-16.28l.06-3.66.21-2.85a33.33,33.33,0,0,1,.71-5.18c1.36-6.39,3.32-10.74,4.49-12.46s1-1.19-.55,2.49L29,173.45c-.41,1.67-.95,3.6-1.3,5.45Zm35.33-47.25c-3.68.74-5.65,1.4-4,.68,3.53-1.34,10.21-3,13.45-3l128.47-.66c27.17-.14,49.37-.4,82.82-.26l72.13,0,18.29,1.09,20.84,1c-32.6,0-72.86.37-112.9-.13l-35,.11c-15.45.27-28.8.6-37.36.93-8.2.32-20.09.47-40.89.37-24.5-.12-60.43.1-66.76-.6-1.53-.17-8.44-.33-16.61-.49-3.94,0-8.82-.28-12.38-.11A49.64,49.64,0,0,0,62.42,136.08ZM270.24,431.2l8.3-.44-8.31.1L134.91,429l4.79-.18h43.08c53.37.11,108.69-.12,160.33.35,48.55.45,65.73,1.47,26.89,2.06l-25.83.17ZM100.83,394.7l9.91.06,39-.13,7.62,0c16.18.45,21-.18,31.27-.27a32.64,32.64,0,0,0,6.73-.56c.88-.16-2.37-.35-.77-.5,4-.38,16-.79,13.08-1.1-3.67-.41,3.83-.59,10.16-.84l-19.27-.29c19.85-.28,7.81-1.08,32.08-1.26l-8.15-.12,19.59-1.85H201.34c0-.25,3.26-.55-.63-.74-10.35-.52-30.38-.28-44.92-.23-12,0-20.85,0-26.2-.22-5.83-.25-12.77-.29-22.13-.29-2.45,0-4.55.06-7.31-.09a30.73,30.73,0,0,1-8-1.49v-.13a34.48,34.48,0,0,0,11.78,1.48l10.73-.05,21.45-.1-26.9-.09-8.09,0A30.42,30.42,0,0,1,77.52,374a30.16,30.16,0,0,1-6.33-16.71c-.18-5.78,0-10.76-.06-16.14.06-16.71.66-38.27,1.15-28.37l1,28c0,1.27,0,6,0,9.16L73,348.75c.1,6.68-.37,13.21,4,20.48-3.56-6.9-3.34-11.44-3.41-12.33.2-.43.32-1.26.5-.93s.44-.53.7.21c.42.67,0,3.38,3,10a26.58,26.58,0,0,0,5.93,7.94,21.87,21.87,0,0,0,5.45,3.74c1.9.55,4.47,2.5,11.39,2.94,6.65.1,16.25-.09,18.67-.21,3.1-.18.3-.44,0-.72l5.58-.11c-10.76-.07-18.27.06-25-.15a12.44,12.44,0,0,1-1.8.11,24.84,24.84,0,0,1-20.14-18.82c-1.11-4.45-.54-9.88-.73-15.43,0-5.54-.06-11.35-.1-17.62l.21,4.9c0-6,.08-11.13.1-15.41.25-1.94.48-2.61.68-5.77.1-1.66.25-8.66.22-11.56-.19-22.47.15-43.16.13-64.85,0-5.29,0-11.22,0-15.76L78.26,215a26.72,26.72,0,0,1,.3-3.89,23.63,23.63,0,0,1,2.51-7.48A23.93,23.93,0,0,1,93,193a22.15,22.15,0,0,1,8-1.68l9.34-.07,18.67-.1,90.45-.78c10.86-.13,26.58-.24,23.59-.7-.72-.16-.14-.3,2.27-.08a24.29,24.29,0,0,1,12.14,5,26.35,26.35,0,0,1,6.7,7.58,25.3,25.3,0,0,1,3.15,9,80.11,80.11,0,0,1,.3,10v61.18l-.16,12-.08-1.71c0,13.31.06,26.62.09,40q0,10.05,0,20.19A26.34,26.34,0,0,1,262.1,371c.93-1,.62.11-1.21,2.19a24.36,24.36,0,0,1-10.42,6.94,21,21,0,0,1-7.28,2.8c-2.27.34-1.1.78,3.7.26a26.35,26.35,0,0,0,9.36-3.3,28.47,28.47,0,0,0,10.7-11,28.06,28.06,0,0,0,3.31-11c.25-3.92,0-7.45.09-11.21,0-7.42,0-14.86-.07-22.26,0-9.5-.08-20.27-.11-28.25-.34-23.67-.61-47.67-.66-74.63-.05-2.93.08-5.8-.15-8.73a27.62,27.62,0,0,0-2.05-8.32,27.3,27.3,0,0,0-20.13-16.1c1.25-.07.61-.54-2.81-1-3.47-.35-9.41-.22-18.78-.26l-28.31.06-92-.13a1.76,1.76,0,0,1-.46-.09l4.68-.06,115.33-.22,9.26.14c4.58.14,9.29-.39,14.11.69a28,28,0,0,1,12.74,6.62c-.55-.66.12-.53-1.87-2.19a28.25,28.25,0,0,0-9.73-5.28c-3.82-1.27-8.13-1.34-11.79-1.54l4.77-.11a30.19,30.19,0,0,1,4.07.24,24.14,24.14,0,0,1,5.72,1.35,26,26,0,0,1,9.62,6,32.57,32.57,0,0,1,5.56,6.77,29.89,29.89,0,0,1,4.34,13.16c.26,5.06.15,9.63.26,14.36.13,9.26.32,17.52.51,21,.1,1.89.26,5,.27,8,0,13.62,0,27.4,0,41.06,0,24.64.58,43.25,1.24,36.81.42-4.3,1.47,10,1.37,23.25a33.67,33.67,0,0,1-5.63,17.17,34.77,34.77,0,0,1-7.66,8.23,71.94,71.94,0,0,1-7.26,4.74c-.61.43,3-.82-.08.54-6.92,2.67-8.78,2.46-6.5,2.49a32.4,32.4,0,0,0,15.23-6,35.72,35.72,0,0,1-12.25,6.29,35.75,35.75,0,0,0,26.4-26.1,33.86,33.86,0,0,0,1.07-7.21c.14-2.43.07-3.33.12-4.47.44-18,.36-39.89.39-60.51-.06-13.2-.11-26.68-.18-41.45.64,1.59,1.4,17.17,1.52-21.4l.71,3.73c0-3.41.05-6.88.08-10.3,0-1.71,0-3.41,0-5.08l0-2.49-.13-3.44a40.1,40.1,0,0,0-9-22.24,38.88,38.88,0,0,0-23.4-13.62,42.78,42.78,0,0,0-6.8-.6h-4.67l-9.19.07c-6.08.07-8.12.4-12,.61l1.15.17-33.94-.32c-18.84-.49-49.44-.64-73.11-.26l-6.67.05h-1.84l-2.7.13a42.71,42.71,0,0,0-5.26.69,39.42,39.42,0,0,0-31.38,38.2q0,18.39,0,36.71c.07,21.11.15,42,.22,63.07,0,8.91,0,18.14,0,27.22,0,4.54,0,9,0,13.45a39.43,39.43,0,0,0,24.55,36.8A38.09,38.09,0,0,0,100.83,394.7ZM73.6,213.52a26.77,26.77,0,0,1,7.46-17.42,28.42,28.42,0,0,0-7,20.58L74,234.29c-.08-8.08-.11-10.85-.14-13.63l0,.42c0,5.74,0,11.49,0,18.27C73.68,230.39,73.48,221.45,73.6,213.52ZM91,389.5a37.94,37.94,0,0,0,10.29,1.66l8,.05,15.73.07,31.47.14-1.31.18-10.3-.09-17.15.07-14.49,0h-10.8c-1.1,0-3.05-.1-4.52-.21A33.32,33.32,0,0,1,87,388.13C88.29,388.69,89.65,389.06,91,389.5ZM86.6,210.67a19.25,19.25,0,0,0-.4,3.37c.17,14.62.34,29.38.52,44.85l-.54,15c0,3,0,10.15,0,15.42.14,0,.31,1.78.41-.42.35-7.34.52-5.35.53,10,0,10,.06,20.23.09,30.31,0,9.61-.1,19-.14,27.75.06,2,.85,4.2.61,3.87A13.86,13.86,0,0,1,85.72,357a44.69,44.69,0,0,1-1.05-7.15c-.27-2.5-.34-8.69-.3-20.19.06-27.43.11-55.28.17-82.92,0-12.39.16-25.14.52-32.39C85.69,209.49,87.4,207.93,86.6,210.67Zm144.81-15.79c-9.34,0-19.13,0-28.89-.22-2.93-.07-14,0-17.09.1-7.53.24-14,.53-18.22.83-4,.28-9.8.42-19.94.33-11.95-.11-29.47.09-32.56-.54-.75-.15-4.11-.29-8.1-.43-1.85,0-4.46-.2-5.88-.16a18,18,0,0,0-4.19.42c-1.56.26-2.38.58-1.73.17a17.47,17.47,0,0,1,5.64-1.69l62.49-.52c13.25-.12,24.08-.36,40.39-.23l35.18,0c1.43.18,3.11.29,4.22.53a25.14,25.14,0,0,1,3.48.85A21.63,21.63,0,0,1,253,198a20.2,20.2,0,0,0-8.71-3.09l-2.56-.11-3.38,0ZM159.67,371.76l4-.39-4.05.08-33-.82-16.5-.41-8.25-.2a16.69,16.69,0,0,1-4.47-.84l1.23.16a17.39,17.39,0,0,0,2.77.3H117c26,.1,53-.11,78.19.31,23.67.4,32.06,1.3,13.11,1.83l-12.59.15Zm-45.06-55.11c.15,1.3-.64,4.51.5,10.3a26,26,0,0,0,12.19,17.4,22.93,22.93,0,0,0,11.28,3.11l7.32,0c8.77,0,17.17.73,13.73,1.3-.34.06-1.25.11-2.07.13l-15.9.52-2.31-.24-1.91-.2c-.84-.11-1.74-.17-2.7-.39a27.28,27.28,0,0,1-8.69-3.25c0,.12-1.08-.3,0,.44,1.87,1.22,2.58,1.67,1.72,1.33a22.22,22.22,0,0,1-6.74-4.56c-8.69-8.07-11.12-21.2-7.33-30.76.76-2.12,1.62-3.44,1.58-3.15l-.46,3.56A32.93,32.93,0,0,0,114.61,316.65Zm105.85,21.19A20,20,0,0,1,208,344.43c-.58,0-2.83.24-3.88.22l-3,.1c-2.63.22-4.91.48-6.37.74a35.89,35.89,0,0,1-7,.3c-4.18-.1-10.3.08-11.38-.48-.52-.27-4.71-.51-7-.77-.73-.09-1.13-.22-.79-.31.73-.2,2-.39,2.65-.5l22-.41,6.66-.19c2.42-.15,4.11.15,8.23-.31,5.28-.71,10.5-4.72,12.88-8.65a20.36,20.36,0,0,0,2.69-3A22.9,22.9,0,0,0,226,327,25,25,0,0,1,220.46,337.84Zm-95.37-46.3a58.65,58.65,0,0,0-5.18,7.1l-.4.9a65.4,65.4,0,0,1,19.76-18.82l1.36-1-1.2,1.23c1.35-.89,2.69-1.68,4-2.43a33.15,33.15,0,0,0,2.25,3.29,33.63,33.63,0,0,0,7.61,6.75,39,39,0,0,0-7.24,4.3c-3.07,2.37-5.18,4.28-6.51,5.41a27.52,27.52,0,0,0-4.86,5.33c-.94,1.24-1.84,2.51-2.65,3.85l-.1-.05a53.43,53.43,0,0,1,8.69-11.06,44.47,44.47,0,0,0-6,6.54,58.24,58.24,0,0,0-5.56,9c-1.6,3.36-2.77,6.09-2.7,9.24-.41,5,3.22,10.71,1.17,8.4a16,16,0,0,1-3.11-8.29,14.89,14.89,0,0,1,.22-3l.2.42a21.72,21.72,0,0,1,1.88-6.46,29.73,29.73,0,0,0-1.74,3.78c-.24.07-.47.28-.57.14-.22-.41-1.42,1.06.28-4,.69-2,2.26-5.06,2.37-5.63.16-.77.78-1.69,2.14-3.91,1.35-2,3.37-4.75,3.89-5.47.59-1-.23-.34-.5-.41a18,18,0,0,1,1.26-1.59,62,62,0,0,0-5.69,7.18l-.13.76a58,58,0,0,0-5.57,10.2,20.65,20.65,0,0,0-.76,12.89,11.1,11.1,0,0,1-.56-1.83,20.55,20.55,0,0,0,1.65,5.81,7.16,7.16,0,0,0,.56,2.33,15.21,15.21,0,0,0,2.78,3.87,18.48,18.48,0,0,0,12.51,5.34l11.24.12,5.51,0,26-.39,16.09-.3,7.95-.21a16.17,16.17,0,0,0,8.35-2.8c3.83-2.38,6.78-7.89,5.68-7.16-.64.33.58-.79,1.91-5.87a20.41,20.41,0,0,0,.36-4,20.64,20.64,0,0,0-1.44-7.44,65.48,65.48,0,0,0-3.17-6.57,59.94,59.94,0,0,0-8.55-11.76c-1-1.06-1.9-2.14-3-3.12l.51.36a50.42,50.42,0,0,0-11-7.67c.09-.09.2-.15.29-.24l1.51-1.59c3.28-3.35,3.56-4.92,4.85-7.53a3.68,3.68,0,0,0,.44-1.91c0-.27-.52.5-.44,0,.2-1.14,1-4.36.47-3.68-.56.87-.14-1.13.07-2.82a33.05,33.05,0,0,1-1.69,4.85,8.18,8.18,0,0,0,.68-3.76,41.91,41.91,0,0,1,.38-4.58l-.39,2.06a30.68,30.68,0,0,0-.94-5,27.91,27.91,0,0,1-1.75,9.75c-.17-.07-.12-.88-.58,0-1.13,2.22-3.3,6.47-5.7,9a17.77,17.77,0,0,1-4.77,4c-1.25.6-2.65,1.45-4.65,2.35a29.9,29.9,0,0,1-3.15,1.12l0-.09a27,27,0,0,0,6.1-2.94,28.71,28.71,0,0,1-2.7,1.41,26.56,26.56,0,0,1-14.48,2.21c-3.92-.43-8.29-2.89-6-2.39a30.66,30.66,0,0,0,6.17.77c.27,0,1.3.13,2,.15l-.27.2a24.8,24.8,0,0,0,4.44-.35c-1.6.07-2.48,0-2.68,0-.09-.16-.26-.28-.19-.4.18-.35-.8-.67,2.22-1.09a14.81,14.81,0,0,0,3.36-1,14.46,14.46,0,0,1,2.33-.92,12.91,12.91,0,0,0,3.29-1.73c.46-.44-.11-.31-.27-.47l.88-.63a20,20,0,0,1-4.36,2.08l-.27.36a27,27,0,0,1-12.57.52,8,8,0,0,0,1,.06,24.51,24.51,0,0,1-2.83-.84,3.9,3.9,0,0,0-.85-.85c-.28-.14-1.4-.83-1.89-1a20.37,20.37,0,0,1-8.58-8.2c-.56-.81-.94-1.84-1.37-2.57a21.41,21.41,0,0,1-1.43-13.55A22.87,22.87,0,0,1,160,241.76c1.68-1.3,4.55-2.35,3.89-2.54-.35-.06.34-.52,3.08-1.1l2.12-.35a23.2,23.2,0,0,1,15.51,3.62,22.11,22.11,0,0,1,1.85,1.5l-.31-.15a23.25,23.25,0,0,1,8.4,13.22c.2-.63.75.77,1,3a10,10,0,0,1,1.16,1.56c.36,1,1-1.05-.24-6a25.61,25.61,0,0,0-4.17-8.61,22.64,22.64,0,0,0-4.21-4.41,26.42,26.42,0,0,0-14.74-5.32,20.72,20.72,0,0,0-3.63.14,24.28,24.28,0,0,0-5.42,1.37c.37-.56-.88-.6-4.43,1.27a25.69,25.69,0,0,0-4.85,3.6,24.87,24.87,0,0,0-8,17.42s0,.06-.08.1v-1a25.14,25.14,0,0,1,12.61-20.3,19.94,19.94,0,0,1,1.83-.81,26.09,26.09,0,0,1,5.71-1.86c-.2-.09-.11-.27-.65-.25a24.59,24.59,0,0,0-4.88.62c2.94-1.43,3-1.33,5.21-1.57.33,0,1.16-.1,1.8-.19a38.18,38.18,0,0,1,10.83.34,6.74,6.74,0,0,1,1.81.4,26.25,26.25,0,0,1,8.18,4.75c4.33,3.73,6.6,7.59,6.3,6-.29-1.11,2.34,1.55,3.42,4.56,2,5.7,2,7.1,2.41,7.41.13.13.23-.64.36,0,.46,2.95.85,1.32.63-2A18.65,18.65,0,0,1,203,259a26.36,26.36,0,0,0-.38-4.75,39.6,39.6,0,0,0-1.62-5.33,28.81,28.81,0,0,0-9.59-13.13,29.87,29.87,0,0,0-10-5.15c.27-.16,1.47,0,1.36-.27s-1.52-1.25-6.91-2.08l1.12-.37a36,36,0,0,0-10.59-.23,26.28,26.28,0,0,0-10.28,3.3,15.1,15.1,0,0,0-2.73,2.15l.35-.07a40,40,0,0,0-7.39,6.22,29.6,29.6,0,0,0-5.53,8.31,29.91,29.91,0,0,0-2.44,10.78c0,1.1-.11,2.67,0,4A32.75,32.75,0,0,0,142.53,277,63.94,63.94,0,0,0,125.09,291.54Zm10.73,18.12a47.66,47.66,0,0,1,12.82-13.59l-.22.35L146,298.24a48.4,48.4,0,0,0-3.63,3.55,53.31,53.31,0,0,0-5.33,6.74,19,19,0,0,1-1.6,2Zm20.59,28.4c-1.11,0-3-.05-6.16-.11l4.77-.12-.15,0-6.39,0a144.52,144.52,0,0,1,15.54-.09ZM195.67,288a56.62,56.62,0,0,1,7.84,5.65,53.51,53.51,0,0,1,15.18,20.57,20.86,20.86,0,0,1,1.44,5.71A18.78,18.78,0,0,1,218.8,329c-.09-.5-.38-.34-1,.63a20.26,20.26,0,0,1-4,4.85,13.74,13.74,0,0,1-8.59,3.39l-32.17-.09c-.07,0-.1,0-.16-.09l1.64,0,20.16-.1,10.08,0a13.63,13.63,0,0,0,8.59-3.14,17.42,17.42,0,0,0,2.19-2.08,16.77,16.77,0,0,0,3.64-8.35c-.2.24-.3,0-.59.79a17,17,0,0,1-3.6,5.77,43,43,0,0,0,2.72-6.68,10.4,10.4,0,0,0,.3-2.42c.63-4.52-4.28-12.23-5.72-14a19.35,19.35,0,0,1-1.61-2.12,55.59,55.59,0,0,0-8.9-10.14c-6.12-5.43-12.11-7.19-10.43-5.81.54.51-.42.37-2,0a30.85,30.85,0,0,0,3.6-2.63C193.94,287.09,194.83,287.5,195.67,288Zm-14.85,2.4a31.09,31.09,0,0,0,14.09-8.71l-.14.35a26,26,0,0,1-2,1.89,33.77,33.77,0,0,1-3.58,2.88,29.56,29.56,0,0,1-6.91,3.47,8.59,8.59,0,0,1-2.24.44Zm-5.35,3.68a32.21,32.21,0,0,0,9.93-2.58,49,49,0,0,1,13.66,8.93,51.56,51.56,0,0,1,7.83,9.32c-.89,0-3.37-3.73,1.81,6.18l-1-.71,1.16,2.73a7.67,7.67,0,0,1,.43,1.54,6.09,6.09,0,0,1,0,2.42,10.44,10.44,0,0,1-2.12,4.36c-.4.47-.38.8-.61,1.12l.17.08a2.7,2.7,0,0,1-1.51.34l-.19,0h-.69l-1.45,0-2.45-.11c-6.59-.44-17.29-.57-25.56-.23l-4.9.06-25.63,0-5.52,0c-.48-.09-.82,0-1.2-.19A4.78,4.78,0,0,1,135.1,325a8,8,0,0,1-.93-3.85,8.34,8.34,0,0,1,.29-2l.34-.91.74-1.56a51.33,51.33,0,0,1,13.33-17.16,12.25,12.25,0,0,1,1.68-1.25c3.86-2.18,4.81-3.09,7.31-4.36a3.07,3.07,0,0,0,1.53-1.12c.18-.23-.72-.06-.35-.35a5.59,5.59,0,0,1,.87-.55c.16.06.3.15.46.2A35.42,35.42,0,0,0,175.47,294.06ZM148.91,270a30.81,30.81,0,0,0,1.57,3.4,26.84,26.84,0,0,1-1.43-2.54v.09a24.75,24.75,0,0,0,1.89,3.42,18.77,18.77,0,0,1-3.62-8.75A30.37,30.37,0,0,0,148.91,270Zm36.86,14a31.34,31.34,0,0,0,2.66-1.76A27,27,0,0,1,185.77,283.9Zm-27.45-13.08c-2.29-3-2.31-6.6-1.55-5.35a4.29,4.29,0,0,1,.39.71,15.5,15.5,0,0,0,3.49,4.9,8.76,8.76,0,0,0,1.15,1.68,10.77,10.77,0,0,0,1.67,1.23c.05-.09.33-.07.12-.29-.66-.75-.38-.66,1.31.32a20.09,20.09,0,0,0,7.35,1.81c.48,0,1,.14,1,.23a8.36,8.36,0,0,1-2.13,1.46c-.37.21-1.3.22-2.93-.15A17.3,17.3,0,0,1,158.32,270.83Zm-.84-22.64a8.88,8.88,0,0,0-1.27,2.73,18,18,0,0,1-1.24,2.9c-.88,1.69-1.13,4.45-1.66,4.88a10.51,10.51,0,0,0-.71,3.24c-.05.35-.16.55-.24.4a11.67,11.67,0,0,1-.49-1.27,20.37,20.37,0,0,1,2.42-10.47,15.93,15.93,0,0,1,4.41-5.51,26.65,26.65,0,0,1,5.26-3.24l1.7.15c.54,0,1.18.14,1.82.2a24.8,24.8,0,0,0-8,4A10.46,10.46,0,0,0,157.48,248.19Zm26.82,23.25a3.41,3.41,0,0,0,.13-.62,2.69,2.69,0,0,1-.31.47,15.63,15.63,0,0,1-7.91,3.79,1.88,1.88,0,0,0,.25-.21,22.46,22.46,0,0,0,2.45-1,17.45,17.45,0,0,0,6.8-7.14c1.31-2.71,2.11-3.9,1.88-1.2a10.64,10.64,0,0,1-.48,1.71A17.27,17.27,0,0,1,184.3,271.44ZM439,260.07c.74-.7-.76-1-4.62-.82-2.42.09-4.91.12-7.37.18-1.58,0-3.37,0-4.7.13-3.93.38-7.92.68-12.4.74-1,0-1.94.08-2.86.15-1.38.1-2.71.21-4.44.35.4-.75-.49-.94-3.59-.91-1.57,0-3.14.08-4.71.07-5.1,0-10.2-.09-15.3-.15,0,0,0-.06-.08-.11.25,0,.51-.06.78-.06q9.58-.13,19.17-.25c.49,0,1,.15,1.54.15,1.54,0,3.09,0,4.63,0-.14-.19,0-.4-.45-.57-1.06-.45-2.34-.87-3.61-1.33,2.39-.41,2.36-.41,4,.06a8,8,0,0,0,1.33.13,33,33,0,0,0,8-.75,4.25,4.25,0,0,1,1.33-.3c2.26,0,4.55,0,6.82,0,4.09,0,7.19-.65,6.12-1.39-.74-.51,1.72-1.57,3.81-1.63,4-.12,4.88-.62,5.13-1.09.09-.18-.4-.41,0-.53,1.91-.55.85-1-1.19-1.3l1.72-.45c-1-.12-1.87-.29-2.94-.36s-2.76.07-3.42,0a70.61,70.61,0,0,0-10.06-.43c-2.2,0-4.43.12-6.89.2.26-.72,2.85-1.57-3.56-1.71l.62-.8c-2.27-.14-4.68-.17-6.16-.41a26.57,26.57,0,0,0-6.22-.19,5.49,5.49,0,0,0-2,.69l.19.19c-1.91-.11-4.33-.13-5.64-.35a49.68,49.68,0,0,0-12.15-.29c-.63.07-1.55.07-2.33.07-4.06,0-8.14-.06-12.18,0-3.51,0-7,.22-10.48.25-3,0-6.13,0-8.9-.13a108.11,108.11,0,0,0-12.94-.1,7.84,7.84,0,0,1-1.27,0c-2.69-.51-3.49.2-5.2.3a1.37,1.37,0,0,0-1.12.63c-.15.18.39.39.13.57-.66.43-2.65.88-2.17,1.24s-.64.66-1.69.95l3.2.32c-3.3.32-1.3,1.22-5.33,1.42l1.35.14-3.26,2.08h6.77c0,.28-.54.62.1.84,1.72.59,5,.31,7.46.25a16.46,16.46,0,0,1,4.35.25,13.21,13.21,0,0,0,3.68.33c.79,0,1.58,0,2.37.07,0,0,0,.1,0,.14l-7.13.22c1.55.1,3,.1,4.47.11,3.55,0,7.14,0,10.65.05,2.78.06,6.36.74,4.72,1.29-1.23.41-3,.77-4.66,1.13-.21,0-1,0-1.52,0l.2-.32-3.4.34,2.05.23c.07.25.2.44.15.62-.16.51.66,1.06-1.81,1.47a16.35,16.35,0,0,0-2.86.51c-.35.28-.86.27-2.07.29a15.55,15.55,0,0,0-3.11.3c-.52.2,0,.49,0,.81l-.93.12,4.19.06.32-.37c1.9.1,3.6.24,5.33.26s3.51-.09,5.6-.16l-.81.24,2.56.12a3,3,0,0,0,1,.76,7.31,7.31,0,0,0,1.92.25c3.73-.21,7.17.17,10.78.15.88,0,1.87,0,2.62,0,3.91-.32,8.26-.3,12.34-.49,5.12-.25,10.26-.45,15-.88,1.81-.16,4.41-.23,3.93-.85-.26-.33.41-.35,2.74-.26.57,0,1.19,0,1.79,0,4.52,0,9,0,13.56,0,.67,0,1.33.12,2,.18l-.28.09,13.39-.21c-.47-.51.74-.78,2.6-.83A12.8,12.8,0,0,1,439,260.07Zm-96.65-9.2-10.46-.31.22-.2c.57,0,1.15.1,1.71.1,1,0,1.89-.06,2.85-.08,1.6,0,3.23-.07,4.79,0a5.31,5.31,0,0,1,1.41.37Zm28.72,9.3c-.53,0-1.4-.06-2.93-.14l2.26-.15-.07,0-3,0a26.22,26.22,0,0,1,7.38-.11C373.52,259.89,372.39,260.07,371.1,260.17ZM359,273.75c0,.16-.3.34.07.46,1.22.39.89.58-1.66.59-3.31,0-6.83.32-9.87-.16-.61-.1-1.31-.29-1.19-.41a23.43,23.43,0,0,1,2.58-2.16c.42-.31,1.44-.39,3.36-.34,4.56.12,9.19.2,13.78.19,4.17,0,8.16.91,6.53,1.62a4.4,4.4,0,0,1-1,.17l-7.56.65a24.31,24.31,0,0,0-2.49-.61C361.1,273.69,359.91,273.75,359,273.75Zm45.32-5.19c-2.64,0-5.91.37-9.15-.13a14.52,14.52,0,0,0-2.84.11,14.94,14.94,0,0,0-3,.93,6.73,6.73,0,0,1-3.31.37c-2-.12-4.9.1-5.41-.6-.25-.34-2.24-.64-3.31-1-.35-.11-.54-.27-.38-.39a8.86,8.86,0,0,1,1.26-.63c3.72-.18,7.15-.3,10.44-.51a49.73,49.73,0,0,1,6.71-.26c1.87.1,4.09,0,5.85,0,.5.37.95.73,1.48,1.09S403.75,268.18,404.36,268.55Zm-73,4.12-.67.44.67-.1,11,1.84L342,275c-1.16,0-2.35,0-3.49,0-4.33-.11-8.81.12-13-.35-3.93-.45-5.33-1.47-2.18-2.06a11.91,11.91,0,0,1,2.09-.17C327.34,272.48,329.25,272.58,331.38,272.67Zm71.24,36c.52-.7-.53-1-3.23-.82-1.7.09-3.44.12-5.16.18-1.11,0-2.36,0-3.29.13a72.39,72.39,0,0,1-8.68.74c-.68,0-1.36.08-2,.15-1,.1-1.9.21-3.11.35.28-.75-.34-.94-2.52-.91-1.1,0-2.2.08-3.29.07-3.57,0-7.14-.09-10.71-.15,0,0,0-.06-.05-.11.18,0,.36-.06.54-.06q6.71-.13,13.42-.25c.34,0,.71.15,1.08.15,1.08,0,2.16,0,3.24,0-.09-.19,0-.4-.31-.57-.74-.45-1.64-.87-2.53-1.33,1.67-.41,1.65-.41,2.8.06a4,4,0,0,0,.93.13,16.46,16.46,0,0,0,5.57-.75,2.26,2.26,0,0,1,.93-.3c1.58,0,3.19,0,4.78,0,2.87,0,5-.65,4.28-1.39-.52-.51,1.2-1.57,2.67-1.63,2.81-.12,3.42-.62,3.59-1.09.07-.18-.28-.41,0-.53,1.34-.55.6-1-.83-1.3L402,299a20.83,20.83,0,0,0-2.06-.36c-.75-.06-1.93.07-2.4,0a34.75,34.75,0,0,0-7-.43c-1.54,0-3.1.12-4.82.2.18-.72,2-1.57-2.49-1.71l.43-.8a42.47,42.47,0,0,1-4.31-.41,13.09,13.09,0,0,0-4.36-.19c-.71.08-.94.45-1.39.69l.13.19a33.75,33.75,0,0,1-3.95-.35,24.46,24.46,0,0,0-8.51-.29,12,12,0,0,1-1.63.07c-2.84,0-5.69-.06-8.53,0-2.46,0-4.88.22-7.34.25-2.07,0-4.29,0-6.23-.13a53,53,0,0,0-9.06-.1,3.85,3.85,0,0,1-.89,0c-1.88-.51-2.44.2-3.64.3a1,1,0,0,0-.78.63c-.1.18.28.39.09.57-.46.43-1.86.88-1.52,1.24s-.45.66-1.18.95l2.24.32c-2.31.32-.91,1.22-3.73,1.42l.95.14-2.28,2.08h4.74c0,.28-.38.62.07.84,1.2.59,3.53.31,5.23.25a8.16,8.16,0,0,1,3,.25,6.59,6.59,0,0,0,2.57.33c.55,0,1.11,0,1.66.07q0,.07,0,.14l-5,.22c1.08.1,2.11.1,3.13.11,2.49,0,5,0,7.46.05,1.94.06,4.45.74,3.3,1.29a29.16,29.16,0,0,1-3.26,1.13,7.62,7.62,0,0,1-1.07,0l.14-.32-2.38.34,1.44.23a1.82,1.82,0,0,1,.1.62c-.11.51.46,1.06-1.27,1.47a8.45,8.45,0,0,0-2,.51c-.24.28-.61.27-1.45.29a7.76,7.76,0,0,0-2.18.3c-.36.2,0,.49,0,.81l-.65.12,2.93.06.23-.37c1.33.1,2.52.24,3.73.26s2.46-.09,3.92-.16l-.57.24,1.79.12c.23.28.3.54.67.76a3.7,3.7,0,0,0,1.34.25c2.61-.21,5,.17,7.54.15.62,0,1.31,0,1.83,0,2.74-.32,5.78-.3,8.64-.49,3.58-.25,7.18-.45,10.52-.88,1.27-.16,3.09-.23,2.75-.85-.18-.33.28-.35,1.91-.26.4,0,.83,0,1.25,0,3.16,0,6.33,0,9.49,0a10.68,10.68,0,0,1,1.39.18l-.2.09,9.38-.21c-.33-.51.52-.78,1.82-.83A13.19,13.19,0,0,1,402.62,308.68ZM335,299.47l-7.32-.31.15-.2c.4,0,.8.1,1.2.1.67,0,1.33-.06,2-.08,1.12,0,2.26-.07,3.35,0a2.88,2.88,0,0,1,1,.37Zm20.11,9.3a17.74,17.74,0,0,1-2-.14l1.59-.15,0,0-2.13,0a12.92,12.92,0,0,1,5.17-.11C356.77,308.5,356,308.67,355.08,308.78Zm-8.45,13.58c0,.16-.21.34,0,.46.85.39.62.58-1.16.59-2.32,0-4.78.32-6.91-.16-.43-.1-.92-.29-.83-.41a19.65,19.65,0,0,1,1.81-2.16c.29-.31,1-.39,2.35-.34,3.19.12,6.43.2,9.65.19,2.92,0,5.71.91,4.57,1.62a2.27,2.27,0,0,1-.69.17l-5.29.65a5.72,5.72,0,0,0-3.54-.63Zm15.11-4.52c-.17-.34-1.57-.64-2.32-1-.24-.11-.38-.27-.26-.39a5.76,5.76,0,0,1,.88-.63c2.6-.18,5-.3,7.31-.51a24.45,24.45,0,0,1,4.7-.26c1.31.1,2.86,0,4.09,0,.35.37.66.73,1,1.09s.75.65,1.18,1c-1.85,0-4.13.37-6.41-.13a7.15,7.15,0,0,0-2,.11,8.37,8.37,0,0,0-2.12.93,3.43,3.43,0,0,1-2.32.37C364.14,318.32,362.1,318.54,361.74,317.84Zm-34.47,3.44-.47.44.47-.1,7.68,1.84-.27.18c-.82,0-1.64,0-2.44,0-3-.11-6.17.12-9.1-.35-2.75-.45-3.73-1.47-1.53-2.06a5.91,5.91,0,0,1,1.47-.17C324.44,321.09,325.78,321.19,327.27,321.28ZM206.8,96.72V95.56a44.84,44.84,0,0,1,2.53-10.08c4.4-12.14,13.93-22.79,25.36-27.78,5.33-2.4,9.31-2.87,10.64-2.83s.14.64-4,2.29c-1.33.56-3.76,1.56-5.41,2.43a49.13,49.13,0,0,0-13.78,9.73,16.41,16.41,0,0,1,1-1.67,15,15,0,0,0-1.29,1.43A49.5,49.5,0,0,0,206.8,96.72Z"/></svg>