<svg id="Layer_1" data-name="Layer 1" xmlns="http://www.w3.org/2000/svg" viewBox="0 0 512 512"><defs><style>.cls-1{fill:#cad8dd;}.cls-2{fill:#b8ccd1;}.cls-3{fill:#ffa840;}.cls-4{opacity:0.12;}.cls-5{fill:#17292d;}.cls-6{fill:#c15d25;}</style></defs><title>bulb-flat</title><path class="cls-1" d="M358.4,396.8A38.51,38.51,0,0,0,320,358.4H192a38.35,38.35,0,0,0-28.55,64,38.35,38.35,0,0,0,28.55,64h27.79a38.4,38.4,0,0,0,72.41,0H320a38.35,38.35,0,0,0,28.55-64A38.23,38.23,0,0,0,358.4,396.8Z"/><path class="cls-2" d="M153.6,396.8a38,38,0,0,1,2.25-12.8A38.51,38.51,0,0,0,192,409.6H320A38.51,38.51,0,0,0,356.15,384a38,38,0,0,1,2.25,12.8A38.51,38.51,0,0,1,320,435.2H192A38.51,38.51,0,0,1,153.6,396.8Zm166.4,64H192a38.51,38.51,0,0,1-36.15-25.6A38,38,0,0,0,153.6,448,38.51,38.51,0,0,0,192,486.4H320A38.51,38.51,0,0,0,358.4,448a38,38,0,0,0-2.25-12.8A38.51,38.51,0,0,1,320,460.8Z"/><path class="cls-3" d="M435.2,179.2a179,179,0,0,1-76.8,147v6.59a38.32,38.32,0,0,1-.51,6.08,34,34,0,0,1-1.15,5.06A38.5,38.5,0,0,1,320,371.2H192a38.5,38.5,0,0,1-38.4-38.4v-6.59a179,179,0,0,1-76.8-147C76.8,80.26,157.06,0,256,0A179.27,179.27,0,0,1,435.2,179.2Z"/><g class="cls-4"><path class="cls-5" d="M435.2,179.2a179,179,0,0,1-76.8,147v6.59a38.32,38.32,0,0,1-.51,6.08l-1.15.77v4.29A38.5,38.5,0,0,1,320,371.2H192a38.38,38.38,0,0,1-31.68-16.77q4.61.19,9.22.19c119.62,0,216.51-96.9,216.51-216.51a215.79,215.79,0,0,0-27.71-106A178.81,178.81,0,0,1,435.2,179.2Z"/></g><path class="cls-6" d="M307.2,192a38.4,38.4,0,0,0-38.4,38.4v12.8H243.2V230.4a38.4,38.4,0,1,0-38.4,38.4h12.8V371.2h25.6V268.8h25.6V371.2h25.6V268.8h12.8a38.4,38.4,0,1,0,0-76.8ZM192,230.4a12.8,12.8,0,1,1,12.8,12.8A12.81,12.81,0,0,1,192,230.4Zm115.2,12.8A12.8,12.8,0,1,1,320,230.4,12.81,12.81,0,0,1,307.2,243.2Z"/></svg>