<svg id="Layer_1" data-name="Layer 1" xmlns="http://www.w3.org/2000/svg" viewBox="0 0 512 512"><defs><style>.cls-1{fill:#707070;}</style></defs><title>bulb-handdrawn</title><path class="cls-1" d="M204.3,422c-1.14-.44-8.14-.38-13.72-1.32-1.59-.34-2.43-.64-1.67-.64a55.16,55.16,0,0,0,5.82-.07l40.6-.45c8.53-.13,15.5-.4,26-.26l22.64,0,5.74,1.08,6.54,1c-10.23,0-22.87.37-35.43-.13-1.89-.08-9,0-11,.11-4.85.28-9,.59-11.73.93a97.23,97.23,0,0,1-12.83.37C217.57,422.44,206.29,422.66,204.3,422ZM426.45,196.7c-1.33,17-4.29,27.82-2.71,23.72a170.28,170.28,0,0,1-23.94,56.89,162.21,162.21,0,0,1-19,24c-3.41,3.8-7.24,7.18-11,10.66L364,316.91c-1.93,1.68-4.12,3.14-5.74,4.4l1.76-1.42-3.23,2.33-1.61,1.17,0,2-.07,4a38.48,38.48,0,0,1-.41,4.75,38,38,0,0,1-8.45,18.83,37,37,0,0,1,5.72,8.81,38.3,38.3,0,0,1,1.81,26.45l.2-1.15a40.59,40.59,0,0,1-3.06,7.46,37.8,37.8,0,0,1-4.66,6.83,36.11,36.11,0,0,1,5.71,8.88,38.3,38.3,0,0,1,1.81,26.45l.2-1.15a40.59,40.59,0,0,1-3.06,7.46A38.55,38.55,0,0,1,331,461a36.72,36.72,0,0,1-13.38,2.66l-13.15,0h-5a38.73,38.73,0,0,1,1,5.83l.58-3.08a62.71,62.71,0,0,0-.57,6.86c0,1,.25,1.88-1,5.62a49.42,49.42,0,0,0,2.53-7.25c-.32,2.52-.94,5.51-.11,4.21.74-1-.41,3.8-.71,5.5-.13.68.64-.48.66-.07a5.49,5.49,0,0,1-.66,2.85c-1.93,3.9-2.34,6.25-7.25,11.26l-2.26,2.38a47.34,47.34,0,0,1-29.78,14,53,53,0,0,1-22.6-2.92,49.08,49.08,0,0,1-32.16-38.08,13.31,13.31,0,0,1-2.83-.36c-1.14-.44-8.14-.38-13.72-1.32-1.59-.34-2.43-.64-1.67-.64a55.16,55.16,0,0,0,5.82-.07l12-.13c-.1-.85-.14-1.71-.2-2.57l-5,0-6.12,0a40.68,40.68,0,0,1-29.31-12.88,37.21,37.21,0,0,1-6.4-9.24,40.11,40.11,0,0,1-.73-33.93,49.4,49.4,0,0,1-4.86-6.25c-.05.1-.13.18-.18.27A46.85,46.85,0,0,0,150,437.65a51.53,51.53,0,0,0,13.71,23.54c4.84,4.63,7.43,6.44,3.68,4.37a32,32,0,0,1-4.12-3.08,49.51,49.51,0,0,1-17.22-34.81,52.49,52.49,0,0,1,1.8-13,56.73,56.73,0,0,1,4.78-12.55c-.14,0,.48-1.51-.58.11-1.61,2.8-2.23,3.84-1.76,2.6a40,40,0,0,1,2.05-4.21,49.15,49.15,0,0,1-6.3-21.39,52.49,52.49,0,0,1,1.8-13,56.73,56.73,0,0,1,4.78-12.55c-.14,0,.48-1.51-.58.11-1.61,2.8-2.23,3.84-1.76,2.6a41.29,41.29,0,0,1,5.49-9.39,43.59,43.59,0,0,1-3.61-13.45c-.08-.67-.09-1.57-.15-2.65l-.08-1.74c0,.31,0-.34,0-.48-.1-1,.42-2.52-1-3l-4.45-3.26-4.36-3.55A202,202,0,0,1,121,299.08c-4.33-4.64-10.49-11.66-18.71-25.61A175.75,175.75,0,0,1,89,245.24c-3.46-9.37-5.28-17.41-5.54-19.86,0-1.22-1.31-6.42-2.07-12.7A186.68,186.68,0,0,1,79.71,194c0-3.31.11-5.11.27-3.58.22,3.29,1.11,9.15,1.49,11.87a175,175,0,0,0,37.3,89.85,191.14,191.14,0,0,0,20.58,21.53c1.86,1.67,3.87,3.24,5.85,4.92l3.05,2.51,2.83,2.09,2,1.48c.25.29.85.41.83.84v3.88a40.31,40.31,0,0,0,.41,5.22,38.91,38.91,0,0,0,3,10.45c.65-.79,1.36-1.54,2.06-2.29,0-.08-.08-.14-.11-.22a36.61,36.61,0,0,1-2.28-8.69,37.24,37.24,0,0,1-.38-4.51l-.05-3.29c.78-2.62-2.19-3.3-3.72-4.78l-3.26-2.38-3.34-2.76a172.66,172.66,0,0,1-13-11.71,175,175,0,0,1-38.56-59.1,172.27,172.27,0,0,1-11.51-56.63c-.35-19.41,1.92-38.69,7.12-56.23,1-3.37,2.51-7.15,3.92-11.11l2.22-6,2.73-5.67c6.88-15.38,16.42-29,27.36-41.39,10.83-12.56,23.92-23.25,38.59-32.56l8.31-5c3.23-1.58,6.3-2.93,7.47-3.45,4.5-1.92,5.55-2.14,8.35-3.18l10.21-3.69,5.81-2.08,6.5-1.64c-2,.62-3.68,1-7.21,2.18a184.86,184.86,0,0,1,51-8.11c4,0,8,.36,12,.54l6,.34c2,.2,4,.6,6,.89,4,.66,8.09,1.23,12.21,2L304.24,18l3,.4c5.19,1.79,10.35,3.77,16.22,5.91l9,4.33c2,1,4.12,2,6.27,3.16-1.28-.68-2.32-1.17-3-1.47l-.6-.28c.32.51,4.05,2.63-.32.74l-10.77-5c-5-2-10.93-4-15.78-5.76-10.74-2.85-15.34-4.11-18.53-4.42-2.36-.05-16.79-2.66-26-2.41l-7.13-.2-4.77.41a31.93,31.93,0,0,0-4.28.58c-1.12.31.38.5-.31.79-.48.2.74.33,1.35.55a118.65,118.65,0,0,1,18.51.36c-6-.22-11-.61-15.87-.09s-9.55.29-14.68,1.19l1.72-.59-13.59,2.08c-14.38,3.35-29.68,8.66-39.32,14.13-6.53,3.45-2.46,1.83,6-2l15.79-5.51c6.09-1.38,12.44-3.33,18.53-4.36l11.61-1.75c3.87-.67,7.83-.51,11.76-.82,7.87-.76,15.77.17,23.68.44,15.69,1.93,31.35,5.26,46,11.34,6,2.41,11.81,5.44,17.7,8.38l8.51,5.21L349.13,46l4.08,3.1A164.34,164.34,0,0,0,296,22.93v.15c3.38.91,6.8,1.71,10.15,2.71L316,29.43a137.18,137.18,0,0,1,28.86,15,192.75,192.75,0,0,1,29.64,24.43c7.34,7.73,15.61,17.46,21.71,27.72l4.54,7.49c1.38,2.48,2.44,5,3.59,7.38a80.57,80.57,0,0,1,5.23,12.66c1.75,5.43-.21,1.06-.46,1.16,6.09,16.25,10.58,33.17,10.82,58.08L418.16,169c-.58-4.61-1.95-9.05-2.9-13.72l1.63,11.61c-1.46-8.61-2.11-14-3.13-17.63s-1.68-5.48-2.27-7.18-1.12-3.2-2-6l-5.17-13.27c1.8,5.22,3.42,9.53,4.76,13.66l3.08,12.6L408.68,137c-1-3-1.79-4.13-1.06-1.64.53,2-.78-1-2.5-5.08s-3.74-9.3-5.34-11.63c-1.13-1.95.66,2.24,0,1.2a54.9,54.9,0,0,1-4.64-8.18c-7.1-12.37-10.61-18.21-25.38-35.16-.65-.72-1.85-2.14-3.23-3.59L362.18,69a162.44,162.44,0,0,0-45.28-29.27,159.65,159.65,0,0,0-52.38-12c-23.1-1.41-50.12,2.69-72.54,13.53-26.81,12.13-49.46,32-65.68,56.47a157.64,157.64,0,0,0-25.21,96.91A153.41,153.41,0,0,0,103.77,214a160.09,160.09,0,0,0,19.35,49.35,168.09,168.09,0,0,0,30.49,37.25c2.1,1.77,4.54,4.05,7.46,6.31l8.63,6.47,2.56,1.91a5.68,5.68,0,0,1,.62.49v2.44q0,3.27,0,6.62v3.82l.06,1.29a10.56,10.56,0,0,0,.21,2.2c0,.06,0,.12,0,.18a46.06,46.06,0,0,1,4.6-2.15,49.3,49.3,0,0,1,12.92-3.1c2-.11,4.67-.24,6.07-.18l4.49.15c2.36.1,5.08.29,4.61.41-2.81.72-6.27,1.44-10,2.16-2,.53-7.42.09-16.55,3.37a46,46,0,0,0-5.4,2.44c.11.34.13.71.26,1a23,23,0,0,0,3.36,6.09,41.83,41.83,0,0,1,6.62-2.79l-3.1,1.39a39.24,39.24,0,0,1,11.78-2.9c4-.32,7.1-.15,10.55-.2l20.65.25,1.26-.37,5.25,0q0-4.66,0-9.31c0-.48,0-1,0-1.43l-9-.39,1.5-.18h7.53c.09-2.59.07-3.33-.26-3-.62.53-.69-2.37-.85-4.38-.42-5.31-.63-11-.87-16.74-.2-4.55-.17-9.39-.49-13.74-.06-.84,0-1.94,0-2.92,0-2.94.12-5.81.13-8.76a40.23,40.23,0,0,1-9.66,2.23,44.16,44.16,0,0,1-18.83-2.43,41,41,0,0,1-27.39-37.08c-.14-1.68,0-3.64,0-5a37.29,37.29,0,0,1,3-13.44,36.87,36.87,0,0,1,6.9-10.36,49.91,49.91,0,0,1,9.21-7.75l-.43.09a18.77,18.77,0,0,1,3.41-2.68,32.75,32.75,0,0,1,12.82-4.12,44.86,44.86,0,0,1,13.2.29l-1.4.47c6.72,1,8.46,2.35,8.61,2.6s-1.36.14-1.69.34a37.23,37.23,0,0,1,12.46,6.42,35.91,35.91,0,0,1,12,16.37,49.41,49.41,0,0,1,2,6.65,32.83,32.83,0,0,1,.47,5.92,23.13,23.13,0,0,0-.72-3.39c.28,4.1-.2,6.12-.78,2.45-.15-.83-.29.14-.44,0a6,6,0,0,1-.83-2.1,57.89,57.89,0,0,0-2.17-7.14c-1.34-3.76-4.62-7.08-4.26-5.69.37,2-2.46-2.8-7.86-7.44a32.74,32.74,0,0,0-10.2-5.92,8.41,8.41,0,0,0-2.26-.49c-1-.12-3.32-.51-5.93-.7a50.53,50.53,0,0,0-7.56.27c-.81.11-1.84.23-2.25.24-2.77.29-2.83.17-6.5,2a30.64,30.64,0,0,1,6.08-.78c.67,0,.56.2.81.31a32.54,32.54,0,0,0-7.11,2.32,24.89,24.89,0,0,0-2.28,1,31.34,31.34,0,0,0-15.72,25.3c0,.43,0,.85,0,1.26,0,0,.09-.07.09-.12a31,31,0,0,1,10-21.71,32,32,0,0,1,6-4.48c4.42-2.34,6-2.28,5.52-1.58a30.29,30.29,0,0,1,6.76-1.7,26,26,0,0,1,4.52-.17,32.94,32.94,0,0,1,18.38,6.64,28.22,28.22,0,0,1,5.24,5.49,31.92,31.92,0,0,1,5.2,10.73c1.51,6.15.76,8.68.31,7.46a12.53,12.53,0,0,0-1.44-1.95c-.28-2.83-1-4.58-1.21-3.79a29,29,0,0,0-10.47-16.48l.39.19a27.44,27.44,0,0,0-2.31-1.87,28.93,28.93,0,0,0-19.33-4.51l-2.64.44c-3.41.72-4.28,1.3-3.84,1.37.83.23-2.76,1.55-4.85,3.16a28.51,28.51,0,0,0-11.68,17.38,26.7,26.7,0,0,0,1.78,16.89c.53.91,1,2.2,1.7,3.21a25.39,25.39,0,0,0,10.69,10.22c.62.26,2,1.13,2.36,1.3a4.85,4.85,0,0,1,1.06,1.06,30.57,30.57,0,0,0,3.53,1.05,9.93,9.93,0,0,1-1.19-.07,33.6,33.6,0,0,0,15.67-.65l.34-.45a24.86,24.86,0,0,0,5.43-2.6l-1.09.79c.2.19.91,0,.34.58a16.12,16.12,0,0,1-4.1,2.16,18.16,18.16,0,0,0-2.9,1.15A18.4,18.4,0,0,1,217,267.3c-3.76.53-2.54.93-2.76,1.36-.09.16.13.3.24.5.25,0,1.35.07,3.34,0a30.93,30.93,0,0,1-5.54.43l.34-.25c-.85,0-2.13-.14-2.47-.19a38.2,38.2,0,0,1-7.69-1c-2.79-.62,2.66,2.44,7.54,3A33.1,33.1,0,0,0,228,268.39a35.83,35.83,0,0,0,3.36-1.75,33.63,33.63,0,0,1-7.6,3.66l0,.11a37.22,37.22,0,0,0,3.93-1.39c2.5-1.13,4.24-2.18,5.8-2.93a22.14,22.14,0,0,0,6-4.94,39.5,39.5,0,0,0,5.32-7.85c0-.13.11-.26.16-.39h0c.38-1.32.78-2.63,1.06-4,0,.7,0,1.39,0,2.08l.56-1.08c.57-1,.5,0,.72.06a34.79,34.79,0,0,0,2.18-12.15,38.23,38.23,0,0,1,1.18,6.22l.49-2.56a52.2,52.2,0,0,0-.47,5.71c0,.85.21,1.57-.85,4.69a41.15,41.15,0,0,0,2.11-6c-.27,2.1-.79,4.6-.09,3.51.46-.63,0,1.44-.3,3.12l1.26-.08c2-.12,4.14-.18,6.21-.27-.09-.22-.2-.44-.29-.67-1.75-4.83-2.05-8.31-2-9.48s.73-.15,2,3.56l1.9,4.85c.23.54.49,1.06.73,1.59.4,0,.83,0,1.23-.07.6-.06,1.39,0,2.09,0,2.88,0,5.62.36,8.6.15a4.75,4.75,0,0,1,1.53.25c.42.22.51.48.77.76l2,.12-.65.24.77,0c0-.58,0-1.14,0-1.86l.12,1c.32-.06.61-.58.81,0a4.6,4.6,0,0,1,.13.78c.9,0,1.77-.08,2.61-.07.26,0,.55,0,.81,0-.14-.15-.27-.27-.42-.42-2.76-2.75-5.7-7.46-6-10.3-.15-1,.47-.34.73-.44a29.44,29.44,0,0,1-1.86-10.33,30.47,30.47,0,0,0,2.51,4.71l-.15-2c.48,2.88,1,3.51,1.41,4a10.1,10.1,0,0,1,1.72,2.92,29.82,29.82,0,0,1-1-4.25c.65,1.32,1.23,2.85,1.47,1.93.13-.67,1.43,1.59,2.11,2.16.31.22.2-.45.45-.36a1.78,1.78,0,0,1,1.16.93c1,1.76,2,2.17,3.65,4.86a8.08,8.08,0,0,0,1,1.1,26.93,26.93,0,0,0,13.33,6.44,20.36,20.36,0,0,0,10.3-1.16,23.25,23.25,0,0,0,14.64-20.28,11.46,11.46,0,0,0-.1-2.72,36.67,36.67,0,0,0-1.9-7.07,44.27,44.27,0,0,0-3.1-6,20.29,20.29,0,0,0-4.78-4.68l.09.27a7.85,7.85,0,0,1-2.35-.59,57.87,57.87,0,0,0-6.7-2.41,18.31,18.31,0,0,0-7.2-.43l.62-.91c-3.88.49-5,.9-5.27.62s.47-.93.52-1.34A26.49,26.49,0,0,0,289.5,212a32.38,32.38,0,0,0-8.21,10.13,24.89,24.89,0,0,0-1.37,4.29c-.26,1.39-.72,2.53-.84,3.84a12.25,12.25,0,0,1-.21-2.37c-.71,2.7-1,4.28-1.49,1.51-.1-.64-.36.05-.53-.1s-.45-.63-.46-1.76a15.94,15.94,0,0,1,1.07-5.88c.93-3,2.15-6.74,1.13-6-1.48,1.22.12-4,5.43-8.47a34,34,0,0,1,9.79-5.72c.77-.28,1.52-.79,2-1a21.85,21.85,0,0,1,5.7-1.71,27.85,27.85,0,0,1,7.69-.05c.82.15,1.86.35,2.25.47,2.63,1.15,2.55,1,6.53,2.08a43.29,43.29,0,0,0-5.61-3.17c-.66-.35-.47-.49-.67-.73a34.22,34.22,0,0,1,8,2.61c.86.45,1.67.91,2.42,1.39A35.15,35.15,0,0,1,340,229.42l.13,1.41c0-.05.1-.08.1-.14a35.22,35.22,0,0,0-11.16-24.9,34.53,34.53,0,0,0-7-5c-5-2.62-6.73-2.9-5.74-3.49a37.51,37.51,0,0,0-8.18-1.35,46.36,46.36,0,0,0-5.31.09,33,33,0,0,0-20.53,8.87,41.58,41.58,0,0,0-5.68,6.31,34,34,0,0,0-5.45,12,57.78,57.78,0,0,0-1.12,7.16c-.2,1.37-.46,1.73-.78,1.05a25.52,25.52,0,0,0-1.49-2.48c.26-3.55.59-5.91-.12-5.13a38.43,38.43,0,0,1,13.53-22.09l-.39.41,3.27-2.16a38.19,38.19,0,0,1,25.4-5.91c1.16.19,2.38.3,3.47.57,4.44,1.13,5.57,1.85,5.24,1.28-.69-.94,4.29.75,7.41,2.71a38.75,38.75,0,0,1,18.14,23.83c2.26,8.2,1.31,17.53-1.62,25.18a35.11,35.11,0,0,1-2.48,4.88c-3.87,6.52-9.53,11.33-16.29,15.11a17.26,17.26,0,0,1-3.74,1.42,7,7,0,0,1-2.11,0,42.33,42.33,0,0,1-5,1.24,15.21,15.21,0,0,0,1.55-.61,35.59,35.59,0,0,1-11.2,1.17,30.64,30.64,0,0,1-6.28-1,5.32,5.32,0,0,1-2.28.12c0,.42,0,.84,0,1.25,0,3.91.21,7.77.25,11.67,0,4.51,0,9,0,13.56,0,.87,0,1.89.07,2.59a61.67,61.67,0,0,1-.29,13.53c-.23,1.46-.24,4.15-.35,6.28l.19-.21a6.59,6.59,0,0,1,.68,2.22,33.59,33.59,0,0,1-.15,6.51c8.9.51,10.47,1.25.68,1.73l-.84,0c-.12,1.58-.16,3.59-.27,5.51l-.8-.69c-.13,7.14-1,4.25-1.7,4,.08,2.73.22,5.23.2,7.67,0,.5,0,1,0,1.5h25.15l-12.61,2.08,5.24.14c-15.62.2-7.87,1.1-20.65,1.42l12.4.32c-4.08.28-8.9.49-6.54.94,1.85.36-5.87.81-8.42,1.24-1,.17,1.06.38.5.57a12.43,12.43,0,0,1-4.33.63c-6.61.1-9.71.8-20.12.3l-4.91,0c-17,.26-33.2.16-50.1-.1l-8.29-.09c-1.26,0-3.2-.06-3.95,0a17.17,17.17,0,0,0-2.71.23,21.6,21.6,0,0,0-10,4.11,22.5,22.5,0,0,0-8.84,22.28c1.48,9.59,10.29,17.71,20,18.54l1.45.06.74.05h1.19l4.29-.06c15.24-.43,34.93-.26,47.05.29,5.08.23,14.43.24,21.84.35l-.74-.19a69.56,69.56,0,0,1,7.71-.68c7.78-.16,16-.14,24.1.19l10.78.24,3.18,0,1.63,0,1.09,0a22.08,22.08,0,0,0,4.11-.44,10.25,10.25,0,0,1-1.35,1.06,28.06,28.06,0,0,0,7.88-2.49,8.67,8.67,0,0,1,2.35-1c.47.11-.88,1.46-1,1.93a26.24,26.24,0,0,0,11.13-14.34c2.91-8.89-.21-19.17-5.74-25.2a26.27,26.27,0,0,0-7.57-5.41,27.26,27.26,0,0,0-7.6-2.55A29.43,29.43,0,0,1,325,352c-5.43-1.74-8.68-2.06-3-2,1.3.06-.11-.37.2-.51s1.26-.22,3.55.15a25.35,25.35,0,0,1,10.83,5.74c5.18,4.1,9.07,11.2,8.56,8.79-.54-1.71.82-.53,2.32,3.11a29,29,0,0,1,1.26,16.84,31.83,31.83,0,0,1-6.49,13.19c.82.71,1.61,1.44,2.37,2.21a34.71,34.71,0,0,0,6.73-14.38,36.06,36.06,0,0,0-.52-17.33,35.07,35.07,0,0,0-16.64-20.9,39.63,39.63,0,0,0-14.17-4.45c-2.83-.28-3.56-.56-2.17-.83,2.06-.41,3.23-.9,5.1-1.15,7.32,1.09,11.64,3.68,10.18,2.25a37.86,37.86,0,0,1,3.35,1.92,18.39,18.39,0,0,0,1.81-2.27,25.3,25.3,0,0,0,3.7-9.88,14,14,0,0,0,.25-2.6l0-.65,0-.33v-4.7l0-6.74c-.19-.66.41-.92.85-1.25l1.35-1,2.7-2,6.83-5.07c1.46-1.11,2.83-2.35,4.26-3.51,2.89-2.3,5.57-4.86,8.25-7.41a168.57,168.57,0,0,0,14.84-16.35,171.61,171.61,0,0,0,21.31-35.39c2.62-5.07,7.07-18.79,8.93-27.73a171.73,171.73,0,0,0,3.88-24.8c-.34,4.62-.35,9.3-1.18,14.72,1.5-8.65,2-15.32,2.28-17.73s.74-.56.23,7.69c-.23,3.78.4-.47.5.35a41.65,41.65,0,0,1-.53,10c-.69,6.46-2.44,17.07-8.41,33.58-6.28,17.23-17.7,35.64-13.72,30.48,2.82-3.81,1,.28-4.81,8.73A155.43,155.43,0,0,1,359.47,313l-7.06,5.28-2,1.49c-.32.25-.69.48-1,.76v6.24c0,.72,0,1.85,0,2.53l-.09,1.73a26.47,26.47,0,0,1-.42,3.43,34.08,34.08,0,0,1-1.93,6.63,31.54,31.54,0,0,1-4.71,7.8c.8.71,1.64,1.37,2.38,2.14a34.78,34.78,0,0,0,6.16-11.49,39.77,39.77,0,0,0,1.57-13.34l0-3.65c-.23-.72.58-.92,1-1.33l1.45-1.09,5.61-4.25A173.13,173.13,0,0,0,390,285.61a167.57,167.57,0,0,0,29-59.44,174,174,0,0,0,5.44-35.93c.35-6.9.64-8.64.89-5.3C425.65,189.83,426.32,192.5,426.45,196.7ZM334.68,251a35.19,35.19,0,0,0,2.61-4.9l.1-.1a38.55,38.55,0,0,1-1.77,3.76,25.92,25.92,0,0,0,2.51-4.77,33.63,33.63,0,0,0,1.48-6.47A64,64,0,0,1,334.68,251ZM188,254.7a30.92,30.92,0,0,1-2.35-4.27v-.12a33.47,33.47,0,0,0,1.78,3.16,38.3,38.3,0,0,1-2-4.24,37.87,37.87,0,0,1-2-5.45A23.4,23.4,0,0,0,188,254.7ZM290.75,27.49c3.83,1.13,7.09,2.2,11.57,3.36C315,35,328.06,40.17,339.55,47.62a81.74,81.74,0,0,1,10.17,6.71c3.2,2.49,6.65,4.67,9.66,7.42,3.54,3.32,7.29,6.52,10.68,10l1.4,1.24c-20.61-21.53-47.28-37.49-76.35-44.56ZM336,403.32l-.09.07c.19.15.36.25.56.42a25.64,25.64,0,0,1,1.92,1.7c.54-.42,1.14-.77,1.64-1.21.86-.76,1.58-1.62,2.35-2.44-.73-.76-1.54-1.41-2.33-2.11A32.68,32.68,0,0,1,336,403.32ZM197.9,412.46c.12,0,.17.11.3.11l59.23.14,18.22-.07c12,0,15.47.16,13.92.91l17.19-.35,11.06-.19a34.32,34.32,0,0,0,17.48-5.21,16.44,16.44,0,0,0-2.43-2.16l-.55.39a29.65,29.65,0,0,1-11.42,4.14,72.22,72.22,0,0,1-8.74.41l-8.21,0c-1.86,0-4.24-.06-5.15-.13-6.34-.47-6.23-.48-15.48-.06l14,1.33c1.57.17,1.21.38,1.74.57H281.1l-6-.15-74.22.24Zm-32.82-18.16a36.51,36.51,0,0,0,2.07,3.24l.07-.07A37.84,37.84,0,0,1,165.08,394.31Zm-.77-.84a34.68,34.68,0,0,0,2.58,4.34l.12-.12A46.11,46.11,0,0,1,164.31,393.47ZM180.63,409c.54.24,1.06.5,1.61.71l-1.51-.81ZM262,351l-40.5-.31-2,.16c1.8.13,3.35.36,5.45.37l18.56,0,11-.08,6.63.09Zm-26.57-28.48c-.46,1.41-.89,2.83-1.33,4,0,0,0,0,0,.07h1.41C235.77,325.23,235.76,325,235.38,322.56ZM233,339.12c.11,2,.25,3.85.4,5.72l2.88,0c0-1.95,0-3.9,0-5.84C235.33,339.06,234.21,339.09,233,339.12Zm.42,5.94c0,.11,0,.21,0,.32l2.85,0c0-.12,0-.24,0-.36Zm-2.9,0-9.24.08,0,.14,9.17.07h0C230.48,345.28,230.48,345.18,230.49,345.09Zm48.31.76v-.21l.06.21h0c.06-.7.17-1.4.17-2.11,0-4.86,0-9.73,0-14.59L264,329l2.6-.44-2.61.09-17.89-.77c-.22,1.65-.26,4.26-.39,6.72l-.8-.69c-.13,7.14-1,4.25-1.7,4,.07,2.5.18,4.79.19,7l5.42,0-5.42,0c0,.18,0,.37,0,.56v.09l1.23.07c3.45.26,9.11.3,16.86.25C266.78,345.92,273.08,345.82,278.8,345.84Zm2.09-19,1.06,0c0-1.66,0-3.33,0-5,0-.59.16-1.17.15-1.71q-.11-10.68-.24-21.34c0-.3,0-.59-.06-.87,0,0-.11,0-.11.09q-.08,8.51-.14,17c0,1.74.06,3.49.07,5.24,0,3.46-.16,4.45-.91,4C280.78,325.28,280.84,326.1,280.89,326.88ZM285,255.79l0,1.53h.14c0-.44,0-.89,0-1.33Zm-2,14c.14.61.27,1.24.41,1.73.34,1.12.72,0,1-1.66C283.89,269.79,283.43,269.78,283,269.75Zm-6,1.94a3.31,3.31,0,0,1,.76-1.07l0-1H275.3l-1.43,0c1,.9,2,1.77,3,2.6A3.55,3.55,0,0,1,277,271.69Zm6.89,50.87c-.46,1.41-.89,2.83-1.33,4a.56.56,0,0,1-.25.33l1.54,0C284.26,325.21,284.26,325.17,283.86,322.56Zm.87,23.36c0-2.36,0-4.74,0-7.09a5.18,5.18,0,0,0-.3-1.48,39.65,39.65,0,0,1-.74-8.16l-2.62,0v.14c.07,1,.14,2.11.15,3.18.06,4.83.35,9.14.71,13.39Zm20-78.46c.1-.18-.15-.37-.26-.63-.26-.06-1.44-.12-3.45-.44-.58.19-1,.39-.66.72s-1.21.81-1.73,1.24c-.08.07,0,.14,0,.22.9.09,1.83.17,2.6.19C306,268.59,304.45,268,304.76,267.46Zm-2-3.5-.41.33,1.08.14c-3.22.2-1.62,1.1-4.25,1.42l2.55.32-.61.19a32.66,32.66,0,0,0,5.77-.17l-.34.34a15.28,15.28,0,0,0,2.73-.22,27.55,27.55,0,0,0,7.7-3.09c2.43-1.55-3.48.33-8.1.7A34.8,34.8,0,0,1,302.77,264ZM285.61,249.3a26.39,26.39,0,0,0,11.68,7.79l.73,0c-.59-.25-1-.63-1.69-.92a29.58,29.58,0,0,1-5.75-2.8,26.08,26.08,0,0,1-3-2.32,10.63,10.63,0,0,1-1.57-1.68Zm-6.44,8.22a1.57,1.57,0,0,0,.23.77,6.58,6.58,0,0,1,.32,1.67c1.65,0,3.31,0,5,0,0-1.49,0-3,0-4.46l-.72-.66c-.5.11-1.21.21-1.74.32-2,.41-1.32,1-1.45,1.47,0,.18.06.36.12.62l1.64.23-2.71.34.16-.32ZM278,259.9c0-.7.07-1.45.11-2.18a27.49,27.49,0,0,0-3,.94C273.93,259.14,276,259.73,278,259.9Zm-20.8,9.91a15.56,15.56,0,0,0-1.86.07,31.88,31.88,0,0,1-9.53-.26c0,.52,0,1,0,1.55,0,3.91.21,7.77.25,11.67,0,4.51,0,9,0,13.56,0,.87,0,1.89.07,2.59a61.67,61.67,0,0,1-.29,13.53c-.23,1.46-.24,4.15-.35,6.28l.19-.21a6.59,6.59,0,0,1,.68,2.22,34.34,34.34,0,0,1-.1,5.86c11,0,22.08,0,32.83.18,0-.07,0-.14,0-.2.09-2.59.07-3.33-.26-3-.62.53-.69-2.37-.85-4.38-.42-5.31-.63-11-.87-16.74-.2-4.55-.17-9.39-.49-13.74-.06-.84,0-1.94,0-2.92,0-4,.36-7.84.15-12,0-.05,0-.13,0-.2a51.71,51.71,0,0,1-5-3.93l-1.92.06c-.1,4.62-.18,9.29-.18,13.93s-.91,9.08-1.62,7.27a5.44,5.44,0,0,1-.17-1.1c-.22-2.74-.43-5.51-.65-8.42.18-.77.43-1.57.6-2.77.08-.55,0-1.88,0-2.85-.16,0-.34-.33-.46.08-.39,1.36-.58,1-.59-1.84,0-1.38,0-2.8-.08-4.21C263.53,269.87,260.37,269.82,257.21,269.82ZM251,256.92l-.14.3,4.6-.07c.21,0,.42,0,.62-.06,0,0,0-.11-.06-.11Zm-23.93,17.64a31.56,31.56,0,0,0,6.38-3c.41-.35.85-.66,1.24-1l.06.26c.31-.19.63-.35.93-.55l.15-.12V270l-.4,0a39.86,39.86,0,0,1-10.19,4.72l-1,.39A10.66,10.66,0,0,0,227.06,274.56Zm5.34,52.08h1.08c0-1.58,0-3.16,0-4.72,0-.59.16-1.17.15-1.71q-.11-10.68-.24-21.34c0-.3,0-.59-.06-.87,0,0-.11,0-.11.09q-.08,8.51-.14,17c0,1.74.06,3.49.07,5.24,0,3.46-.16,4.45-.91,4C232.3,325.2,232.35,325.93,232.4,326.64Zm.53,11.31h3.19c-.06-.24-.12-.46-.18-.62a40.87,40.87,0,0,1-.75-8.85c0-.37,0-.76.08-1.09l-2.82-.12c0,.68.1,1.35.14,2,.07,1,.14,2.11.15,3.18C232.76,334.4,232.84,336.18,232.93,338Zm-57.55,12.6c-4.24,4.24,5.74-4.51,15.56-5.35a32.12,32.12,0,0,1,4.53-.38h35c0-.37.09-.73.09-1.1,0-1.52,0-3,0-4.57l-4.65.05c-4.68,0-6.68,0-8,.29-1,.2-7.16.34-11.06.51-9.56.41-6.42,1-7,1.47-.21.18.31.36.57.62l7.94.23-13.11.37.73-.36a29.34,29.34,0,0,0-20.6,8.2Zm-11.53-8.06-.37.36c.32.74.57,1.5,1,2.21a31.29,31.29,0,0,0,2.64,4.09l.39-.37a32.18,32.18,0,0,1-3.25-5.33C164.07,343.13,164,342.8,163.85,342.49ZM88.54,170.15A95.7,95.7,0,0,1,90.1,158.3l1.18-7.52c.39-2.66,1.3-5.36,2-8.22l2.24-8.85c1-3,2.12-6,3.2-9.07,1.94-6.27,5-12.31,7.82-18.42-2.14,4.63-4.4,8.79-6.05,13l-4.51,12.37-.26.58,2.45-6.84c1.14-2.86,2.13-6.88,4.92-12.3l-2.16,4.41-1.55,4.11-2.58,6.89a58.49,58.49,0,0,0-3,9.43A161.29,161.29,0,0,0,88.54,170.15Zm71.83,152v2.31a54.59,54.59,0,0,0,.63,10.78,43.27,43.27,0,0,0,1.27,4.72l.45-.39a29.73,29.73,0,0,1-1.47-6.14,90.14,90.14,0,0,1-.38-11.37c-2.81-2.54-6.43-4.84-9.08-7-2.74-2.35-5.6-4.56-8.25-7a171.18,171.18,0,0,1-15.08-15.52,168.54,168.54,0,0,1-37.4-77.11l-1.19-6.94a3.41,3.41,0,0,0,0,.7A166.53,166.53,0,0,0,114,273.57a161.49,161.49,0,0,0,21.41,27.17,154.82,154.82,0,0,0,12.69,11.8c2.22,1.88,4.38,3.72,6.8,5.43l3.69,2.75C159.16,321.19,159.83,321.62,160.37,322.12ZM158.69,348a43,43,0,0,0,4.12,6.41c.57-.84,1.11-1.7,1.74-2.5a38.27,38.27,0,0,1-3.83-6.25C160,346.4,159.33,347.16,158.69,348Zm-5.13,50.64c.78-1.22,1.7-2.56,2.88-4.07.63-.8,1.33-1.54,2-2.29a40.45,40.45,0,0,1,3.07-36,42.27,42.27,0,0,1-4.19-6.38A46.15,46.15,0,0,0,150,389.17,46,46,0,0,0,153.56,398.61Zm6.13,9.63a41.47,41.47,0,0,1,4-6.64,40.74,40.74,0,0,1-3.91-6.24,46.43,46.43,0,0,0-4.54,6.35A54.64,54.64,0,0,0,159.69,408.24Zm22.56,50a45.72,45.72,0,0,1-9.64-6.39,39.22,39.22,0,0,1-7.52-9,38.82,38.82,0,0,0,4,5.9l.14.22a34.32,34.32,0,0,1-4.95-7,34.33,34.33,0,0,0,6.42,9A35,35,0,0,0,182.24,458.21Zm14.84-10,4.29-.06c15.24-.43,34.93-.26,47.05.29,5.08.23,14.43.24,21.84.35l-.74-.19a69.56,69.56,0,0,1,7.71-.68c7.78-.16,16-.14,24.1.19l10.78.24,3.18,0,1.63,0,1.09,0a22.08,22.08,0,0,0,4.11-.44,10.25,10.25,0,0,1-1.35,1.06,28.06,28.06,0,0,0,7.88-2.49,8.67,8.67,0,0,1,2.35-1c.47.11-.88,1.46-1,1.93a26.24,26.24,0,0,0,11.13-14.34c2.66-8.11.27-17.34-4.37-23.48a37.39,37.39,0,0,1-5.73,2.91,36.72,36.72,0,0,1-13.38,2.66l-13.15,0h-6.93c-9-.09-11.58-.07-10.59.26,1.84.62-8.22.69-15.23.85l-58.21.87-12,.11-6.12,0a41.13,41.13,0,0,1-6.67-.62,40.54,40.54,0,0,1-11.37-3.91,22.16,22.16,0,0,0-3.59,16.78c1.48,9.59,10.29,17.71,20,18.54l1.45.06.74.05Zm22.13,12.67s0,0,0-.06h-.12c0,.07,0,.14,0,.2S219.21,460.94,219.21,460.87Zm-12.86.19c0-.07,0-.13,0-.21l-5.44,0-3,.06c.12,0,.17.11.3.11Zm18.85,21.2a37,37,0,0,1-2.82-5.12l0-.14a40.09,40.09,0,0,0,2.13,3.8,46,46,0,0,1-2.34-5.08,45.24,45.24,0,0,1-1.79-4.72h-.27A28.94,28.94,0,0,0,225.21,482.27Zm65.76,11a46.52,46.52,0,0,1-21.08,13l-1.16.47a12.82,12.82,0,0,0,3.35-.66,44.17,44.17,0,0,0,10.34-5.18,50.39,50.39,0,0,0,5.35-4.31,39,39,0,0,0,3-2.83Zm8-29.59h-1.41c-9-.09-11.58-.07-10.59.26,1.84.62-8.22.69-15.23.85l-47.44.71c.1.88.23,1.74.41,2.59l10.64-.12c8.53-.13,15.5-.4,26-.26l17.57,0c.69-1.07,1.11-1.23,1.16,0H284l5.74,1.08,6.54,1c-5,0-10.57.08-16.42.11-.15.58-.35,1.21-.53,1.74a25.85,25.85,0,0,1-4.21,6.33,5.16,5.16,0,0,0,.2-.93,4,4,0,0,1-.46.71A23.37,23.37,0,0,1,263,483.38a2.83,2.83,0,0,0,.37-.31,33.59,33.59,0,0,0,3.66-1.55c4.44-2.33,7.84-6.45,10.18-10.68l.48-1c-5.49,0-11.18,0-16.87-.24-1.89-.08-9,0-11,.11-4.85.28-9,.59-11.73.93-.86.11-1.93.19-3.12.25a23.06,23.06,0,0,0,4.74,6.49,13.14,13.14,0,0,0,1.72,2.51,16.15,16.15,0,0,0,2.49,1.85c.08-.13.49-.11.18-.43-1-1.12-.57-1,2,.48a30,30,0,0,0,11,2.7c.71,0,1.56.21,1.43.34a12.5,12.5,0,0,1-3.18,2.19c-.56.32-1.94.33-4.39-.22a25.89,25.89,0,0,1-14.69-9.8,15.24,15.24,0,0,1-2.79-6c-2.09.07-4.69.09-8,0a25.92,25.92,0,0,0,1.42,3.63c.64,1.09,1.21,2.64,2,3.85a30.47,30.47,0,0,0,12.83,12.26c.74.31,2.41,1.35,2.83,1.56a5.83,5.83,0,0,1,1.27,1.27,36.39,36.39,0,0,0,4.23,1.26,12,12,0,0,1-1.42-.09,40.35,40.35,0,0,0,18.8-.78l.41-.54a29.84,29.84,0,0,0,6.52-3.12l-1.31.94c.24.23,1.09,0,.41.7a19.34,19.34,0,0,1-4.92,2.59c-2,.83-2.95.93-3.48,1.38-.38.39-3.21,1-5,1.43-4.51.64-3,1.12-3.32,1.64-.1.19.15.36.29.6.3,0,1.62.08,4,0a37.34,37.34,0,0,1-6.65.52l.4-.3c-1,0-2.56-.17-3-.23a45.88,45.88,0,0,1-9.22-1.15c-3.35-.75,3.19,2.93,9,3.57a39.72,39.72,0,0,0,21.66-3.31,42.79,42.79,0,0,0,4-2.11,40.3,40.3,0,0,1-9.12,4.4l.05.14a44.39,44.39,0,0,0,4.72-1.67c3-1.35,5.09-2.61,7-3.52A26.57,26.57,0,0,0,287,490c3.6-3.8,6.83-10.16,8.53-13.47.69-1.24.6,0,.86.08A42.29,42.29,0,0,0,299,463.66Zm45-59.93a38.56,38.56,0,0,1-3.93,3.44c3.3,3.64,5.43,7.25,5,5.43s.82-.53,2.32,3.11a29,29,0,0,1,1.26,16.84A32.69,32.69,0,0,1,336,451.79c-1.32,1.06-2.84,2-3.72,2.71a29.65,29.65,0,0,1-11.42,4.14,72.22,72.22,0,0,1-8.74.41l-8.21,0c-1.86,0-4.24-.06-5.15-.13-6.34-.47-6.23-.48-15.48-.06l14,1.33c1.57.17,1.21.38,1.74.57H281.1l-6-.15-51.07.17c0,.1,0,.2,0,.31l33.38.08,18.22-.07c12,0,15.47.16,13.92.91l17.19-.35,11.06-.19a35.09,35.09,0,0,0,33.44-27.91,36.06,36.06,0,0,0-.52-17.33A34.36,34.36,0,0,0,344,403.73ZM101.66,90.34a180.93,180.93,0,0,1,103.22-80c17.87-5.1,27.91-5.65,31.82-6.79,4.62-.86,9.13-1.27,13.35-1.89L256.17.8l5.63-.3c1.19,0-5.72-.8-11.7-.35L238.67.58c-3.86.36-7.75,1-11.7,1.59-8,.84-15.8,3.34-23.82,5.32-4,1.18-7.81,2.77-11.73,4.16l-5.85,2.17c-1.92.8-3.76,1.78-5.65,2.66L168.74,22l-10.53,6.4c-5.48,3.09-9.16,6.39-12.13,8.5l-5.73,4.44c-1.86,1.59-.07.31,4.86-3.1,2.94-2.06.7-.15.83,0l-5.48,4.12L135.31,47l-8.25,7.52c-7.23,7.69-12.38,12.65-16.37,18.14a181.93,181.93,0,0,0-31.23,66.75c-.91,3.72-2,7.84-2,9.43-.44,4-.33,4.56.16,2.57l1-4.8,2.27-7.87C83.89,126.29,91.26,107.66,101.66,90.34Zm333,53.66c-.35-2.16-1.25-6.44-2.66-12.53-.56-3.09-2-6.41-3.2-10.24-1.44-3.75-2.51-8.13-4.72-12.45-15.88-38.25-48.56-71.86-86.94-90.52a118.31,118.31,0,0,0-15.73-6.82c-5.42-2-10.82-4.11-16.46-5.34l-3.75-.79c8.8,2.06,17.16,5.5,25.53,8.77,8.06,4,16.33,7.6,23.75,12.67,7.78,4.5,14.69,10.25,21.76,15.71,6.52,6.13,13.28,12,18.93,18.93l4.49,4.81-4.74-4.57c13.68,15.48,24,31.32,31.49,48.8,2.64,5.83,5.54,14.43,7.38,19C433.93,144.2,435.35,148.33,434.66,144ZM234.73,264.44a39.07,39.07,0,0,1-3.32,2.2A33.72,33.72,0,0,0,234.73,264.44Zm-25.29-5.94c2,.47,3.19.45,3.66.19a10.4,10.4,0,0,0,2.65-1.83c.11-.1-.6-.24-1.19-.28a25,25,0,0,1-9.16-2.25c-2.11-1.23-2.47-1.33-1.64-.4.26.27-.08.25-.15.36a13.39,13.39,0,0,1-2.08-1.54,10.93,10.93,0,0,1-1.43-2.1,19.32,19.32,0,0,1-4.35-6.1,5.35,5.35,0,0,0-.48-.89c-.95-1.55-.92,3,1.93,6.67A21.56,21.56,0,0,0,209.43,258.5Zm-10.85-38.92a30.9,30.9,0,0,1,10-4.94c-.79-.09-1.6-.24-2.27-.26l-2.12-.19a33.27,33.27,0,0,0-6.56,4,19.87,19.87,0,0,0-5.49,6.87,25.39,25.39,0,0,0-3,13.05,14.55,14.55,0,0,0,.61,1.59c.11.2.23-.05.3-.49.12-1.36.58-3.78.88-4,.66-.54,1-4,2.07-6.08a22.38,22.38,0,0,0,1.55-3.61,11.09,11.09,0,0,1,1.58-3.4A13.07,13.07,0,0,1,198.58,219.58Zm34.5,26.24a13.3,13.3,0,0,0,.6-2.14c.28-3.37-.72-1.89-2.35,1.49a21.76,21.76,0,0,1-8.48,8.9,28,28,0,0,1-3.05,1.29,2.34,2.34,0,0,1-.31.26,19.47,19.47,0,0,0,9.86-4.72,3.34,3.34,0,0,0,.39-.59,4.31,4.31,0,0,1-.17.78A21.52,21.52,0,0,0,233.08,245.83ZM336.7,269.47c2.17-1.69,3.71-2.76,5-4a49.34,49.34,0,0,0,9.47-16.76,21.76,21.76,0,0,0,.68-2.41c.29-4.24-2.52,5.62-8.8,13.72a46.54,46.54,0,0,1-27.77,17.86c-4.59.92-7.09,1.06-8.1,1.4-2.33.91-4.6,1.41-6.52,2-.32.1,1.47.4,3,.56,7.86.84,17.16-1.58,24.74-5.62,5.75-3.31,6.2-4.13,3.39-2.68-.86.39-.31-.17-.4-.29C333.34,272.14,335.67,270.21,336.7,269.47Zm11.94-35.12c.59-2.4.53-7,.79-7.58.6-1.25-.68-8-2.55-12.33a19.67,19.67,0,0,0-3.91-6.68c-1.09-1.22-2.84-3-4.91-5-.79-.87-3.84-3.71-4.66-4.46-5.31-5.24-12.55-8.06-18.37-9.4a32.76,32.76,0,0,1,3.39,2c1,.74,1.8,1.42,2.68,2.14a41.33,41.33,0,0,1,10.82,6.54,49.2,49.2,0,0,1,9.55,11,41.92,41.92,0,0,1,6.24,21.8c.11.64.28,2,.49,2.83C348.31,235.54,348.5,235.13,348.64,234.35ZM226.32,308.76c-.2-3.67-.33-7.49-.51-11.62a10.27,10.27,0,0,0-.63-1.41c-.12-.18-.28,0-.39.42-.33,1.2-.62,3.41-1,3.69-.7.57-.48,3.81-.6,6a8.29,8.29,0,0,0,.37,3.69,14.21,14.21,0,0,1,1,6.53c-.5,3.61-.11,7.25-.13,10.19.37-.68.69-1.33,1-1.88s.71-1.09,1.08-1.65c0-2-.14-4.43,0-6.51A61.93,61.93,0,0,0,226.32,308.76ZM273,312.93a17.93,17.93,0,0,1,.11,3.16c-.5,3.61-.11,7.25-.13,10.19.37-.68.69-1.33,1-1.88s.71-1.09,1.08-1.65c0-2-.14-4.43,0-6.51a61.93,61.93,0,0,0-.26-7.47c-.2-3.67-.33-7.49-.51-11.62a10.27,10.27,0,0,0-.63-1.41c-.12-.18-.28,0-.39.42-.33,1.2-.62,3.41-1,3.69-.7.57-.48,3.81-.6,6a8.29,8.29,0,0,0,.37,3.69A18,18,0,0,1,273,312.93Z"/></svg>