<svg id="Layer_1" data-name="Layer 1" xmlns="http://www.w3.org/2000/svg" viewBox="0 0 512 512"><defs><style>.cls-1{fill:#707070;}</style></defs><title>chart-presentation-3-handdrawn</title><path class="cls-1" d="M488.2,16.51A53.43,53.43,0,0,0,461,7.6c-2.64-.16-4.32-.1-6.28-.12H437.6l-60.74.2C379.18,7,402,6.1,345.5,6L351,5.16l-54.32-.41c-18.36-.33-37.17-.35-54.88-.19-8.91.08-11.9.45-17.56.69l1.68.19-49.74-.36C148.54,4.54,103.7,4.37,69,4.8l-9.78.06h-2.7L52.92,5a55.25,55.25,0,0,0-7,.87C22.24,10.14,3.08,30.73.41,54.64a56.48,56.48,0,0,0,32.51,58.05c1.11.52,2.29.88,3.44,1.32,0,7.43-.05,14.85-.08,22.42,0,19.66.07,39.71.11,59.12,0,30,.2,33.92.6,19.53.12-4.31.31-.78.46-.83,0,10.33,0,24.35,0,30.23l-.61,29.39c.11,15.38.22,30.41.33,45.23q.08,11.11.16,22.09l0,5.48c0,1.79.19,4.31.3,6.43a67.81,67.81,0,0,0,2.25,13,62.82,62.82,0,0,0,5,13.14c2.65,5.2,3.51,5.61,2.09,3a84.4,84.4,0,0,1-6.22-17.89A74.6,74.6,0,0,1,39,348.91c0-4.89.08-10.18.12-15.77,0-11,.1-23.19.15-35.48.07-54.19.13-108.79.19-162.57,0-8,0-14.43,0-19.9a51.32,51.32,0,0,0,8.14,1.95l.13,0c0,6.91,0,14,.06,21.47l-.24-9.6c0,11.85-.09,21.82-.12,30.21-.28,3.8-.54,5.12-.76,11.32-.12,3.25-.28,17-.25,22.67-.05,44.07-.1,84.62-.15,127.16.09,10.49-.22,21.76.23,31.14a64.82,64.82,0,0,0,13,34.89,65,65,0,0,0,31,22.47,63.58,63.58,0,0,0,19.28,3.38c6.34.13,12.38,0,18.58,0l36.6-.12,89.88-.45c-.08.77-.17,1.54-.18,2.27,0,.11,0,.24,0,.35l-9.57.06c-.37-.27-.74-.57-1.11-.8-.12-.07-.31.35-.41.72,0,0,0,.06,0,.09l-12.13.07c-39,.13-79,.49-123.48.35-3.82.28-11.91-1.1-16.38-2.16-2.08-.49.25.4,4.7,1.62a64.93,64.93,0,0,0,12.28,1.83c4.64.34,8.41.23,12.45.37,7.82.16,14.42.32,15.88.49,6,.7,40.41.49,63.83.61,19.89.1,31.26-.05,39.1-.37l3.5-.13c0,1.06.09,2.13.09,3.18,0,1.53.2,1.73.6,1,.12-.22.31,0,.46,0a9.57,9.57,0,0,1,0,1.54,10.13,10.13,0,0,1-.61,1.5c.22,1.57.44,3.06.66,4.55a1.72,1.72,0,0,0,.17.59c.72,1,1.64-1.42,1.63-3.93,0-2.76.08-5.55.19-8.29,0-.09,0-.12,0-.2l8.3-.24c0,.22,0,.39,0,.62l-.24-.49-.12,1.54a2.38,2.38,0,0,0-.76.58,2.78,2.78,0,0,0-.25,1.16c.21,2.25-.17,4.31-.15,6.48a13.72,13.72,0,0,0,0,1.57c.32,2.35.3,5,.49,7.42.22,2.7.44,5.36.77,7.93-.87,0-1.67.09-2.35.15-.17,0-.33.08-.5.1,0-.25,0-.51,0-.75a18.08,18.08,0,0,0-.26-4c-.2-2-.33-4-.51-6.28a5,5,0,0,0-.63-.76c-.12-.1-.28,0-.39.23-.33.65-.62,1.84-1,2-.7.31-.49,2.06-.61,3.25a2.6,2.6,0,0,0,.37,2,6.72,6.72,0,0,1,.93,1.82,5.26,5.26,0,0,1,.11,1.71,7.45,7.45,0,0,0-.1,1.22,22.55,22.55,0,0,0-7.37,2.63,10.28,10.28,0,0,0-2.49,2.28h.37a40.87,40.87,0,0,0-7.13,5.83,25.87,25.87,0,0,0-5.46,7.88,26.66,26.66,0,0,0-2.27,10.38c0,1.06-.07,2.56,0,3.85a31.26,31.26,0,0,0,21.1,28.45A35.09,35.09,0,0,0,261,507.42a29.28,29.28,0,0,0,19.1-8.95l1.45-1.52c3.29-3.1,3.35-4.77,4.55-7.27a2.53,2.53,0,0,0,.2-1.92c-.07-.28-.63.42-.61,0,0-1.14.59-4.2,0-3.6-.69.75-.36-1.12-.29-2.69a29.63,29.63,0,0,1-1.67,4.4c.71-2.31.45-2.86.33-3.51a14.52,14.52,0,0,1,.07-4.16l-.4,1.83a25,25,0,0,0-1.7-4.45,24.07,24.07,0,0,1-1.5,8.4c-.26-.1-.35-.84-.83-.17-1.2,1.78-2.9,5.4-4.92,7.57a11.77,11.77,0,0,1-4.09,3.25c-1.12.41-2.29,1.09-4,1.85a21.74,21.74,0,0,1-2.64.9l0-.14a22.54,22.54,0,0,0,7.23-4,28.24,28.24,0,0,1-4.46,2.58,21.64,21.64,0,0,1-12,1.8c-3.26-.39-6.7-2.69-4.79-2.52a29,29,0,0,0,5,.09l1.55.12-.22.32a19.49,19.49,0,0,0,3.48-.43c-1.25,0-1.94-.1-2.09-.1-.07-.25-.2-.43-.15-.61.13-.52-.58-1,1.63-1.56a7.64,7.64,0,0,0,2.41-1c.22-.36.67-.4,1.63-.81a6.48,6.48,0,0,0,2.28-1.38c.27-.4-.21-.45-.41-.71l.57-.49a13.57,13.57,0,0,1-3,1.4l-.12.44a17.89,17.89,0,0,1-4.25.56,17.69,17.69,0,0,1-4.48-.24,5.63,5.63,0,0,0,.68-.09,16.75,16.75,0,0,1-1.92-.64,2.86,2.86,0,0,0-.43-1,5.88,5.88,0,0,0-1.19-.82,12.54,12.54,0,0,1-5.58-5.45c-.37-.53-.6-1.21-.92-1.67a13.7,13.7,0,0,1-1.21-9,16.06,16.06,0,0,1,6-9.73c1.11-1,3.1-1.74,2.52-2.18-.32-.2.18-.55,2.16-.91l1.52-.25h.08c.07,2.63.14,5.26.21,8,.51-.28.78.45.83,1.57a14,14,0,0,1,1.62.77c.7.44,1-.46.82-2.78-.09-1.46-.12-3-.18-4.43a27.52,27.52,0,0,0-.13-2.82c0-.1,0-.2,0-.3a17,17,0,0,1,2.84.44c0,2.43.66,4.25,1.39,3.61.51-.44,1.57,1,1.63,2.29.12,2.42.62,2.93,1.1,3.08.18.06.41-.24.53,0,.56,1.15,1,.51,1.3-.72l.45,1a15.47,15.47,0,0,0,.36-1.77c.06-.64-.07-1.66,0-2.06a10.84,10.84,0,0,0,.19-1.4,16.47,16.47,0,0,1,5.16,8.54c.4-.51.94.47,1.13,2.14a8.38,8.38,0,0,1,1.68,1.14c.62.76,1.22-.83.2-4.69a20.32,20.32,0,0,0-3.34-6.68,15.87,15.87,0,0,0-3.31-3.38c-.41-.28-.86-.5-1.28-.75,0-.32,0-.64,0-1,0-.85-.07-1.76-.13-2.66a21.11,21.11,0,0,1,3.3,2.32c3.55,3.07,5.71,6.12,5.74,4.61-.07-1.08,2.59,1,3.57,3.63,1.76,5,2,6.17,2.56,6.44.19.12.37-.59.53,0,.64,2.62,1.16,1.19,1.08-1.84a18.58,18.58,0,0,1,.7,2.47,21.89,21.89,0,0,0-.21-4.39,39.14,39.14,0,0,0-1.48-4.94c-1.21-4.39-4.62-9.08-8.75-12.26a25.46,25.46,0,0,0-4.24-2.71c0-.09,0-.22,0-.3a9.69,9.69,0,0,0,.19-3.74c-.08-.61-.45-.81-.69-1.2l-.19.11a24.92,24.92,0,0,1,.36-3.39,18.06,18.06,0,0,0,.29-7.31,8.86,8.86,0,0,1-.07-1.4c0-2.44.06-4.89,0-7.33,0-2.11-.22-4.19-.25-6.3,0-.77,0-1.56,0-2.34l4.44-.09,33.51-.11c19.14.25,38.34.28,56.65.25l26.67-.07c4.37,0,8.33,0,12.79-.1a71.45,71.45,0,0,0,13.44-1.64c-8.06,1.46-16,1-21.52.67l-17.48-1.09-69,0c-15-.07-27.58,0-39.44,0,0-.29,0-.61,0-.89.06-.58.07-1.15.11-1.72l70.94-.35c21.34-.16,52-.23,46.39-.85-1.51-.17-.32-.26,4.69-.29l10.52,0a65.23,65.23,0,0,0,17.28-2.5,63.14,63.14,0,0,0,42.48-42.59c2.1-6.52,2.51-13.55,2.53-20.22v-100c.06-7.91.12-15.65.18-23.48l.09,3.35-.15-112,.39,0c3-.2,11.57-1.63,21-7.68a51.6,51.6,0,0,1-17,7.91A52.23,52.23,0,0,0,498.3,96.9a53.1,53.1,0,0,0,10.47-17.55,56.2,56.2,0,0,0,3.17-16.89C512.84,45.93,504.22,27.06,488.2,16.51ZM265.69,502.57a28.44,28.44,0,0,0,13-7.87l-.07.38c-.58.61-1.25,1.15-1.87,1.71a31.45,31.45,0,0,1-3.27,2.66,26.15,26.15,0,0,1-6.35,3.2,6.47,6.47,0,0,1-2.1.27ZM13.23,54.5A42.43,42.43,0,0,1,26.11,30.13,43.59,43.59,0,0,0,13.37,59.19c0,4.54-.65,13.1,6.33,25a44.62,44.62,0,0,1-4.26-8.76,42.69,42.69,0,0,0,8.67,14.9C14.71,80.6,11.22,66.09,13.23,54.5Zm38.55,302c-1.11-6.06-.57-16.44-.58-34.39.12,15.83.06,21.3.21,26.7V348c0-11.26,0-22.52-.06-35.82.08,8.77.15,17.57.23,26.1s0,16.7,2,24a62.37,62.37,0,0,0,8.27,18.68,66.51,66.51,0,0,0,10,11.54A59,59,0,0,1,51.78,356.48ZM52,117.67c.78.05,1.55.09,2.33.12-.12,31.82-.76,68.85-1.28,50.45C52.82,154.77,52.42,135.73,52,117.67Zm59.29,277-2.81-.16a37,37,0,0,1-5.45-.63c-18.25-3-34-18.22-37.67-36.38a46.06,46.06,0,0,1-.9-6.85l-.17-3.6V324.61q0-18,0-35.87c-.08-41.38-.17-82.28-.25-123.67,0-15.54,0-31.55,0-47.21l20.28-.07,46.22-.12,78.49.13c38.47.26,75.35.36,114.08.1l11.17,0c23.72.51,30.78-.2,45.82-.3A61.62,61.62,0,0,0,390,117c1.29-.18-3.47-.4-1.13-.57,5.81-.43,23.38-.89,19.17-1.24-5.38-.46,5.61-.66,14.89-.95l-28.23-.32c29.1-.32,11.45-1.22,47-1.42l-11.94-.14,23.93-1.74c-.44,34.58-.36,76-.39,115.15.06,25.89.13,52.31.2,81.27-.75-3.23-1.51-33.39-1.77,41.68l-.74-7,0,5c0,1.73-.16,2.73-.2,4.13a22.76,22.76,0,0,1-.45,3.89,24.37,24.37,0,0,1-.75,3.82,43.52,43.52,0,0,1-5.92,13.91,46.44,46.44,0,0,1-32,21.18,44.87,44.87,0,0,1-7.06.63c-2.56.1-6,0-9,0l-36.38.09c-11.92.08-15.92.45-23.49.69l2.25.19-66.54-.36c-36.94-.55-96.93-.72-143.35-.29l-13.08.06ZM236.15,114.13l4.6-.16,92.24.31-1.92.2-15.1-.1-25.14.08-42.26,0C243.78,114.49,240.25,114.26,236.15,114.13Zm25.52,293.56,0-.43h.83a2.75,2.75,0,0,1-.08.36s0,.05,0,.07Zm-17.27,0,.11-.4,17.11,0c0,.15,0,.29,0,.43Zm23.24,0,0-.44h.27c0,.15,0,.3,0,.44Zm-149.28-.12a5.61,5.61,0,0,1-.91-.11l9.18-.06,116.63-.13c0,.13,0,.26,0,.4Zm140,36.05c0-.38,0-.77,0-1.15,0-3.07.09-6.13.15-9.2,0,0,.06,0,.11,0a4.09,4.09,0,0,1,.06.47q.11,5,.21,10Zm.18-13c-.14-.72-.32-1.4-.42-2.17a13.11,13.11,0,0,1,.14-1.76l.15,1.36,0,0c0-.57,0-1.15,0-1.83A9.55,9.55,0,0,1,258.56,430.68Zm-20,48.58a26.74,26.74,0,0,0,1.41,3.3c.22.46.46,1.3,1.14,2.63a20.67,20.67,0,0,1-1.16-1.92v.08A19.15,19.15,0,0,0,241.4,486,11.51,11.51,0,0,1,238.56,479.26Zm13.21-21c.17-.77-.81-.9-3.55.55a20.33,20.33,0,0,0-3.71,2.79A19.19,19.19,0,0,0,238.29,475s-.07,0-.11.07l0-.78a19.52,19.52,0,0,1,9.71-15.83,14.5,14.5,0,0,1,1.46-.57,20.85,20.85,0,0,1,4.43-1.45c-.17-.16-.12-.4-.56-.46a17.55,17.55,0,0,0-4.09-.1c2.32-1.34,2.39-1.27,4.24-1.24a10.4,10.4,0,0,0,1.47-.1c.3,0,.7-.06,1.05-.09,0,.87,0,1.74,0,2.61h0A18,18,0,0,0,251.77,458.23Zm3.86.83h.05v.08Zm3-2.21h-.17c-.11-.83-.18-1.7-.25-2.56,1.06,0,2.07,0,3,0,0,0,0,.13.06.16a1.76,1.76,0,0,1,.3.8c0,.63,0,1.26,0,1.89A22.14,22.14,0,0,0,258.59,456.85Zm1.59-37.95a16.8,16.8,0,0,1-.93-2.24l2.16-.05C261.25,418.16,260.67,419.79,260.18,418.9Zm1.31-4.57h-2.29l-.18-1.08-.21,1.08h-1.69a1.83,1.83,0,0,1-.44-.86,6.45,6.45,0,0,0-.52-1.72s0,0,0,0l5.35,0C261.52,412.59,261.5,413.46,261.49,414.33Zm246-345.1a50.07,50.07,0,0,1-10,23A55.41,55.41,0,0,1,486.31,103,88.65,88.65,0,0,1,476,109c-.88.52,4.14-1.1-.17.63a58.26,58.26,0,0,1-9.27,2.77l-.13,0v-3.92a30.51,30.51,0,0,1-3.25,1c0,17.59.07,35.26.11,52.87,0,18.62.09,39.75.13,55.4.16,23.21.32,46.58.49,70.75.05,12.09.11,24.37.16,36.94q0,9.43.06,19.07c0,6.42-.32,12.91-2.23,19.21a58.33,58.33,0,0,1-6.73,15.48A57.19,57.19,0,0,1,444.71,392c-11.75,10.95-27.54,17.57-48,16.54,4.73-.75-5.75-.94-42.4-.92l-55.51.07-27.34,0c0-.15,0-.3,0-.45l81.29-.09,18.16.15h27.3c9.14.23,18-.62,26.44-3.9a36,36,0,0,0-5.07,1.08c-6,1.62-12.48,1.88-19.68,1.58l-22.19-.67,26.85-.35a61.45,61.45,0,0,0,18.8-3.13c2.6-.63,8.82-3.68,13.27-6.71a57.79,57.79,0,0,0,24.54-41.91c.25-4.21.26-8.59.17-12.82l-.14-11.7-.31-16.25c-.12-3.7-.29-9.87-.3-15.67,0-26.7,0-53.72,0-80.51,0-48.3-.65-84.81-1.39-72.17-.43,7.4-1.27-12.45-1.54-33.77-1,.07-1.94.1-2.91.1l3.79-.28H398.82c0-.28,4.78-.62-.92-.84-15.18-.59-44.52-.31-65.83-.26-17.65,0-30.55,0-38.4-.25-8.54-.29-18.72-.33-32.43-.33l-20.89-.07,0-.14,62.88-.23L263.76,108,169.82,108c-24.49-.06-56.09-.75-41.58-1.3l41.06-1.14h13.43l-1.74.33,29.94-.34-18.09-.23c-.58-.25-1.77-.44-1.29-.62,1.37-.51-5.79-1.06,16-1.48,8.86-.17,22.93-.31,25.18-.52,3.07-.28,7.63-.27,18.29-.29,9.93,0,23.86-.14,27.46-.3,4.54-.2.44-.49-.05-.81l8.18-.12-36.94-.06-2.86.37-47-.26-49.37.16,7.17-.24L135,101c-2.84-.28-3.83-.54-8.46-.76-2.43-.12-12.69-.28-16.94-.25h-48c-4,0-7.65.07-11.07-.57a36.1,36.1,0,0,1-10.08-3.11,39.45,39.45,0,0,1-16-13.74,42.49,42.49,0,0,1-4.66-9.7A40.22,40.22,0,0,1,18.1,63a38,38,0,0,1,6.09-22.78A38.92,38.92,0,0,1,43.28,25,36.83,36.83,0,0,1,55.56,22.6c4.42-.12,9.17-.06,13.73-.1l27.35-.12,132.55-.88c16-.16,38.87-.23,34.68-.85-2.26-.34,3.58-.35,24.12-.26H423.31l17.55.18-2.51.09,14.63,0c5,0,9.6-.08,14.17.92a41.2,41.2,0,0,1,23.35,14.61A40.62,40.62,0,0,1,489,88.57c1.5-1.35.72.06-2.12,3A40.11,40.11,0,0,1,471,101.21c-3.63,1.56-6,2.78-10.83,3.45-3.3.4-1.6.93,5.35.2a40.12,40.12,0,0,0,13.66-4.43,44.4,44.4,0,0,0,16.34-15,43.77,43.77,0,0,0,6.32-32.09,44.29,44.29,0,0,0-38.24-35.61c-7.43-.62-14.1-.14-20-.22-34.69.38-69.87.69-109.37.75L309,18.41l-39.14.35c3.53-.75-4.3-.94-31.69-.92l-41.49.07L61.77,17.77a3.19,3.19,0,0,1-.68-.11l6.86-.06,169-.25,13.57.15H291.4a11.92,11.92,0,0,0-4-.57L255.62,15.6c21.05-.42,20.82-.41,35.24.06l11.74.13c21.67.1,60.08-.33,70.13-.75,2.77-.12,7.37-.29,11.71-.3l60.18,0,13.07,0a49.2,49.2,0,0,1,12.85,1.55,47.61,47.61,0,0,1,18.53,9.44A58.46,58.46,0,0,1,497.25,34c1.31,1.52,1.44,1.37,0-.88-2.15-3,1.28-.23,5.22,6.71S509.5,58.52,507.53,69.23Zm-494-1.58c.08.54.19,1.07.3,1.6C13.68,68.71,13.55,68.15,13.48,67.65ZM15,74.15c.13.44.29.87.44,1.3C15.28,75,15.12,74.56,15,74.15Zm-1.84-9c.11.8.21,1.65.33,2.52-.1-.63-.27-1.25-.35-1.88Zm.63,4.12A45.24,45.24,0,0,0,15,74.15c-.21-.67-.4-1.33-.55-1.92A26.16,26.16,0,0,1,13.78,69.25ZM194.89,90.14c5.36.1,11.57.29,10.51.41-6.4.73-14.27,1.45-22.78,2.17-3.67.31-12.73.39-29.59.34L92.38,92.9l-30.45,0c-5.64,0-8.87,0-12.57-.88a30.7,30.7,0,0,1-10.22-4.43A31.19,31.19,0,0,1,27.26,72.39,29.2,29.2,0,0,1,26,57a23.23,23.23,0,0,1,2.85-8c.8-1.09.66-.72-.09,1.68a33.14,33.14,0,0,0-1.42,5.85A29.35,29.35,0,0,0,51.64,89.94a20.08,20.08,0,0,0,3.13.5l1.68.18L59,90.7l12.27.3,22.59,0c0-.16,2.6-.34-.62-.46-10.75-.4-7.84-.59,14.6-.6C137,90,168.1,89.65,194.89,90.14ZM285,26.53c-23.3,0-52.07.37-80.69-.13-4.3-.08-20.54,0-25,.11-11,.28-20.58.6-26.7.93-5.86.32-14.36.48-29.23.37-17.51-.12-43.19.1-47.71-.61-1.1-.17-6-.33-11.87-.49-2.77,0-6.4-.24-8.75-.15a32.33,32.33,0,0,0-6.72.69c-2.48.46-3.81.9-2.74.35a32.52,32.52,0,0,1,9-2.29l91.72-.61c19.42-.14,35.29-.4,59.19-.26l51.55,0,13.07,1.09ZM389.83,90.11c34.69.45,47,1.47,19.22,2.07l-18.46.17-52.83-.23,5.93-.44-5.94.1L241,89.93l3.42-.18h30.79C313.38,89.86,352.92,89.63,389.83,90.11ZM153.47,274.59c2.54-3.13,4.62-5.61,6.19-7.38l.44.48c3.87,4.28,8.32,8.79,14.42,14.88l7,7.09-.09.12-21.7-21.43-3.27,4.14,3.28-4L173,281.86l22.69,22.72,2.77-4.79,3.34-5.54,3.91-6.22c2.37-3.66,3.65-5.27,2.18-2.14l-8.14,16.53-2.83,5,.27-1.13-1,1.91-7.43-7,5.46,5.79c.19.55.59,1.2.45,1.33-.48.24,2.24,3.74-5.55-3.46-3.23-3-8.39-8-9.18-8.45-1.23-.84-2.76-2.38-6.36-5.95s-7.53-7.33-8.67-8.24c-1.37-1.08-.25.45-.23.92L162.46,281l10.67,10.76,1.23.7,17.34,17.7,5.52,5.5L207.17,298l-1.84,3.71,6-10.18a26,26,0,0,0,2.66-3.12c.68-.94,3.24-5.1,4.22-6.88,3.8-6.86,7.57-13.37,11.32-19.81L239.78,244l3.85-6.82,1.19-2.2c.59,0,1.15,0,1.72,0l21.39,31.4,26,38,15.24-20.94c4.43-6.17,10.92-14.94,9.22-13.71-.46.33-.27-.06.77-1.51l5.56-7.37,4-5.32,2.1-2.79,36.82,36.83.63-1.26,4.27-8.14-.55,1.31,25.64-51.76c-1.34,1.54.7-3.15,4.14-10.14.33-2,.41-3.29,1-5.54.76-3.08-2.29,2.43-9.4,17l-13.67,27.76-8.36,17-4.39,9.31L353.54,272.2l-15.28-15-7.69-7.52-.9,1.24-11.11,15.4c.41-1.8-2,1.08-9.78,11.52L297.48,293l-3.38,4.49-31.52-47.52a.83.83,0,0,1-.09-.33l1.86,2.68,29.77,44.34L308,278l4-5.08,12-16c-.48.31-.32-.24-1.57,1.14L312,269.79c2.84-4.13,4.24-6.18,5.5-7.84s2.86-3.6,5.44-6.65L327,250l3.26-4.32,14.39,14c3.93,3.73,7.36,6.9,9,8.25l1.91,1.64,1.73,1.58,8.75,8.71,3.67-7.3c2.35-4.66,6.13-12.58,8-16.81,1.93-4.44,2.56-6.5,1.22-4.65-1.84,2.54,1.81-7.14,5.69-15,7.44-15.15,8.6-18.6,8.64-19.74,0-.43-1.12,1.33-.41-.37,3.09-7.42.73-3.64-3.4,3.9l2.83-6.67L386.4,224.1l-6.46,12.83c-3,5.5-6.22,11.67-9.48,18.08l-5.64,11.19-.76,1.55-3.82-3.57c1.2.69,1.51.45,1.7.18a.52.52,0,0,0,0-.29c-.1-.15.19.09-.26-.4l-1.19-1.31-3.74-3.94-6.24-6.35a8.6,8.6,0,0,0,1.61,1l1.15.6-24.2-24.52-8.73,11.35L306.88,258l-7.69,10.41c-1.24,1.72-2,2.92-2.63,4l-.89,1.53c-.11.21-.37.6-.38.68l0,.1.17.08c-.33.29-.63.65-.8.66a1.92,1.92,0,0,1-.09-.33,3.26,3.26,0,0,1-.06-.69v-.09c0-.08.24.29-.61-1l-3.65-5.59c-5-7.56-10.27-15.4-15-22.15l-5.48-8.09-5.49-8.25a31,31,0,0,0,4.59-3.85l1.51-1.59c3.29-3.36,3.56-4.93,4.86-7.55a3.68,3.68,0,0,0,.44-1.91c0-.27-.53.5-.44,0,.2-1.14,1-4.37.47-3.69-.56.87-.14-1.14.07-2.82a33.13,33.13,0,0,1-1.7,4.86,8.2,8.2,0,0,0,.68-3.77,42,42,0,0,1,.38-4.6l-.39,2.06a30.75,30.75,0,0,0-.95-5,28,28,0,0,1-1.75,9.77c-.17-.07-.12-.88-.58,0-1.14,2.22-3.31,6.48-5.72,9a17.81,17.81,0,0,1-4.79,4c-1.26.61-2.65,1.45-4.67,2.36a30,30,0,0,1-3.16,1.12l0-.09a27.07,27.07,0,0,0,6.11-2.95,28.78,28.78,0,0,1-2.7,1.41,26.63,26.63,0,0,1-14.52,2.22c-3.93-.43-8.31-2.9-6.06-2.4a30.73,30.73,0,0,0,6.18.77c.27,0,1.3.13,2,.15l-.27.2a24.86,24.86,0,0,0,4.45-.35c-1.6.07-2.48,0-2.68,0-.09-.17-.26-.28-.19-.4.18-.35-.8-.67,2.22-1.1a14.85,14.85,0,0,0,3.37-1,14.5,14.5,0,0,1,2.33-.93,12.94,12.94,0,0,0,3.3-1.74c.46-.44-.12-.31-.27-.47l.88-.63a20,20,0,0,1-4.37,2.09l-.27.36a27,27,0,0,1-12.6.52,8,8,0,0,0,1,.06,24.57,24.57,0,0,1-2.84-.85,3.91,3.91,0,0,0-.85-.85c-.28-.14-1.4-.83-1.9-1a20.42,20.42,0,0,1-8.6-8.22c-.56-.81-.94-1.85-1.37-2.58A21.47,21.47,0,0,1,224,196.36a22.93,22.93,0,0,1,9.39-14c1.68-1.3,4.57-2.36,3.9-2.55-.36-.06.34-.52,3.09-1.1l2.12-.35A23.26,23.26,0,0,1,258.07,182a22.16,22.16,0,0,1,1.86,1.5l-.31-.15A23.31,23.31,0,0,1,268,196.63c.2-.63.75.77,1,3a10,10,0,0,1,1.16,1.57c.37,1,1-1.06-.25-6a25.68,25.68,0,0,0-4.18-8.63,22.7,22.7,0,0,0-4.22-4.42,26.49,26.49,0,0,0-14.78-5.34,20.77,20.77,0,0,0-3.64.14,24.34,24.34,0,0,0-5.43,1.37c.37-.56-.88-.6-4.44,1.27a25.76,25.76,0,0,0-4.86,3.61,24.93,24.93,0,0,0-8,17.46s0,.06-.08.1v-1a25.2,25.2,0,0,1,12.64-20.35,20,20,0,0,1,1.84-.82,26.15,26.15,0,0,1,5.72-1.87c-.2-.09-.11-.28-.65-.25a24.65,24.65,0,0,0-4.89.62c2.95-1.43,3-1.34,5.23-1.57.33,0,1.16-.1,1.81-.19a38.27,38.27,0,0,1,10.85.34,6.76,6.76,0,0,1,1.82.4,26.32,26.32,0,0,1,8.2,4.76c4.34,3.73,6.62,7.61,6.32,6-.29-1.12,2.34,1.55,3.42,4.58,2,5.71,2,7.11,2.41,7.43.13.14.23-.65.36,0,.47,3,.85,1.32.63-2a18.7,18.7,0,0,1,.58,2.73,26.43,26.43,0,0,0-.38-4.76,39.7,39.7,0,0,0-1.62-5.35A28.88,28.88,0,0,0,265,176.38a29.94,29.94,0,0,0-10-5.16c.27-.16,1.48,0,1.36-.27s-1.52-1.26-6.93-2.09l1.13-.38a36.11,36.11,0,0,0-10.62-.23,26.34,26.34,0,0,0-10.31,3.31,15.13,15.13,0,0,0-2.74,2.16l.35-.07a40.1,40.1,0,0,0-7.41,6.23,29.67,29.67,0,0,0-5.55,8.33A30,30,0,0,0,211.78,199c0,1.1-.11,2.68,0,4a33.26,33.26,0,0,0,7.35,19.49,33.7,33.7,0,0,0,8.05,7l-7.74,13.54-21.61,38.32-3.92,6.9a3.46,3.46,0,0,1-.3.45,2.7,2.7,0,0,1-.29-.44c1.39,1.11-13.9-14.32-34.42-34.75L142.17,274.7l-4.78,5.93c-7.45,8.5-9,11.57-13.39,17.22a14.42,14.42,0,0,0-2.43,4.06c-.24.59,1.34-1,.78-.07-1.39,2.43-6.26,9.24-4.73,7.9,2-1.71-1.15,2.5-3.69,6.13l8.65-10.29c-8.4,11-2.45,5-12.87,18.36l3.66-4.35-6.91,12,17.75-22.18c.22.17-.94,2.16.93.18,5-5.27,13.48-16.35,19.77-24.31Zm67.28-68.32a30.45,30.45,0,0,0,1.59,4.38,30.88,30.88,0,0,0,1.57,3.41,26.9,26.9,0,0,1-1.43-2.54v.09a24.81,24.81,0,0,0,1.89,3.43A18.82,18.82,0,0,1,220.74,206.27Zm18.46,28,.18,0L235,242.11C236.36,239.49,237.78,236.87,239.2,234.29Zm-2.27,4.7,2.56-4.65.15,0Zm31.51-16.58-.14.35a26,26,0,0,1-2,1.9A31.26,31.26,0,0,1,263,227.3l-.14-.21A29.78,29.78,0,0,0,268.44,222.4ZM141.06,281.56l7.2-8.84,10.94-13.79,2.21,2.2L183,282.65c1.6,1.62,2.63,3,3.91,4.44l-1.66-1.43-26-26.27-18.58,23Zm105-33.23c.43,1.17.41,1.78.22,2.06,0,0-.09,0-.15,0l-.06.18c-.22.61-.39,1.12-.5,1.54l-.07.29,0,.13-.91,1.68-3.88,7.13L235,270.13c-1.11,1.77-3.53,6.13-5.36,9.32.14.06-.32,1.25.55,0,2.88-4.25,2.36-2.95-2.93,6.33l-9.46,16.76L199.67,334l-5.9-6.09c-3.57-3.71-7.61-8-6.88-7.46l12.26,9.66,1.38-3.07c1.47-3.2,5.19-9.87,12.26-22.14l30-52.11,1-1.75.41-.65c.27-.41.54-.79.79-1.09C245.49,248.69,245.88,248.35,246.11,248.34Zm80.34,19.48c.56-.47,1-.75,1.48-1.1l-9.68,13.1-6.11,8.12-9.57,12.37-8.89,11.92-2-2.8c-4.53-6.3-8.65-11.9-11.47-15.52-1.32-1.69-3-4-5-6.89-1.3-1.83-2.85-4.14-4.77-7.11-4.52-7-11.48-17.05-12.09-19.23a47.1,47.1,0,0,0-2.73-5l-2.2-3.73-1.05-1.8a13.09,13.09,0,0,1-.7-1.27c-.3-.64-.4-1.09-.13-.89a6.84,6.84,0,0,1,1.17,1.11l1.65,2,25.24,36.95,14.14,20.7,8.57-11.38,17.08-22.84,4.6-4.32Zm-165.2,28.12Zm2.56,1.93,4.33,4.69-1.28-1-5.21-5.2-.4-.4h0v-.05l0,0-4.35,5.41c-4.77,5.92-9.53,11.74-14.25,17.32-10.67,12.61-15.12,16.54-7.33,5.85,1.25-1.72,3.62-4.82,5.35-7L156.54,298l-1.42,2.48,1.69-2.27,3.06-3.49.52-.32a2.2,2.2,0,0,1,.76-.29,4.6,4.6,0,0,1,.48,1.2l0,.2Zm95.47-73.24a31.42,31.42,0,0,0,2.67-1.77A27,27,0,0,1,259.28,224.64Zm-27.52-13.11c-2.29-3-2.32-6.61-1.56-5.37a4.3,4.3,0,0,1,.39.71,15.54,15.54,0,0,0,3.49,4.91,8.78,8.78,0,0,0,1.15,1.69,10.8,10.8,0,0,0,1.67,1.24c.05-.09.33-.07.12-.29-.67-.75-.38-.67,1.32.32a20.14,20.14,0,0,0,7.37,1.81c.48,0,1,.14,1,.23a8.38,8.38,0,0,1-2.13,1.47c-.37.21-1.3.22-2.94-.15A17.35,17.35,0,0,1,231.76,211.53Zm-.84-22.69a8.9,8.9,0,0,0-1.27,2.74,18,18,0,0,1-1.24,2.9c-.88,1.7-1.14,4.46-1.67,4.89a10.53,10.53,0,0,0-.71,3.25c-.05.35-.16.55-.24.4a11.69,11.69,0,0,1-.49-1.28,20.42,20.42,0,0,1,2.42-10.5,16,16,0,0,1,4.42-5.52,26.71,26.71,0,0,1,5.27-3.25l1.71.15c.54,0,1.19.14,1.82.2a24.86,24.86,0,0,0-8.07,4A10.49,10.49,0,0,0,230.92,188.84Zm26.88,23.3a3.42,3.42,0,0,0,.13-.62,2.69,2.69,0,0,1-.31.47,15.66,15.66,0,0,1-7.93,3.8,1.89,1.89,0,0,0,.25-.21,22.51,22.51,0,0,0,2.46-1,17.5,17.5,0,0,0,6.82-7.16c1.31-2.72,2.11-3.91,1.89-1.2a10.66,10.66,0,0,1-.48,1.72A17.31,17.31,0,0,1,257.8,212.14Zm-6,267.63c-1-1.32-.32-2.92.46-2.59a.58.58,0,0,1,.27.19,5,5,0,0,0,1.55,1.31,2.13,2.13,0,0,0,0,.89,1.59,1.59,0,0,0,.56.43c.08-.13.25-.26.23-.4,0-.48.17-.59.63-.31a13,13,0,0,1,2.07.63c.14.08.33.28.31.4a6.71,6.71,0,0,1-.76,2.17c-.17.32-.58.37-1.27.18A7.88,7.88,0,0,1,251.82,479.77Zm3.29-14.41c-1.43.32-2.81,1.35-4.46,2.11a3.18,3.18,0,0,0-1,1.17,3.35,3.35,0,0,0-.2,1.82A2.15,2.15,0,0,1,249,472c-.52.83-.49,2.23-1.24,2.41-.34.08-.74,1.12-1,1.75-.1.2-.26.32-.38.24a4.34,4.34,0,0,1-.67-.72,12.43,12.43,0,0,1,1.16-6.33,7.62,7.62,0,0,1,2.57-3.46,22.55,22.55,0,0,1,3.21-2l1.25.71C254.28,464.82,254.71,465.1,255.11,465.36Zm8.56,12a1.54,1.54,0,0,1-.07.71,6.54,6.54,0,0,1-1.26,1.57,3.61,3.61,0,0,0-.2-.45.68.68,0,0,1-.06.22,4.67,4.67,0,0,1-3.34.09l0-.2c.22-.07.42-.2.65-.27.86-.38,1.32-1.22,2.12-1.83S263.34,476.24,263.67,477.4Z"/></svg>