<svg id="Layer_1" data-name="Layer 1" xmlns="http://www.w3.org/2000/svg" viewBox="0 0 512 512"><defs><style>.cls-1{fill:#d1d8db;}.cls-2{fill:#eff2f4;}.cls-3{fill:#40c168;}.cls-4{fill:#141f38;}</style></defs><title>chart-presentation-3-filled</title><path class="cls-1" d="M44.8,76.8a32,32,0,0,1,0-64H467.2a32,32,0,1,1,0,64Z"/><path class="cls-2" d="M102.4,396.8a51.26,51.26,0,0,1-51.2-51.2V76.8H460.8V345.6a51.26,51.26,0,0,1-51.2,51.2Z"/><path class="cls-3" d="M243.2,217.6A25.6,25.6,0,1,1,268.8,192,25.62,25.62,0,0,1,243.2,217.6Z"/><path class="cls-4" d="M512,44.8A44.93,44.93,0,0,0,467.2,0H44.8a44.8,44.8,0,0,0-6.4,89.13V345.6a64.19,64.19,0,0,0,64,64H243.2v54.63a25.6,25.6,0,1,0,25.6,0V409.6H409.6a64.19,64.19,0,0,0,64-64V89.13A45,45,0,0,0,512,44.8ZM448,128V345.6A38.44,38.44,0,0,1,409.6,384H102.4A38.44,38.44,0,0,1,64,345.6V89.6H448Zm19.2-64H44.8a19.2,19.2,0,1,1,0-38.4H467.2a19.2,19.2,0,1,1,0,38.4Zm-69,135.08L367.69,260l-25.84-25.84a12.79,12.79,0,0,0-19.29,1.37L295,272.24l-31.69-47.54a38.4,38.4,0,1,0-39.26.58l-34.87,61-26.55-26.55a12.79,12.79,0,0,0-19,1.06l-51.2,64a12.8,12.8,0,1,0,20,16L154.66,288l28.29,28.29a12.8,12.8,0,0,0,20.16-2.7L244,241.93l39.71,59.57a12.8,12.8,0,0,0,20.89.58l29.55-39.39,28,28a12.8,12.8,0,0,0,20.5-3.32l38.4-76.8a12.8,12.8,0,0,0-22.9-11.45Zm-155-19.87A12.8,12.8,0,1,1,230.4,192,12.81,12.81,0,0,1,243.2,179.2Z"/></svg>