<svg id="Layer_1" data-name="Layer 1" xmlns="http://www.w3.org/2000/svg" viewBox="0 0 512 512"><defs><style>.cls-1{fill:#cad8dd;}.cls-2{fill:#40c168;}</style></defs><title>chart-flat</title><polygon class="cls-1" points="243.82 246.71 348.31 325.13 458.35 173.74 437.65 158.67 342.89 289.04 242.58 213.77 132.37 310.25 149.23 329.53 243.82 246.71"/><path class="cls-1" d="M506.88,450.53l-51.2-38.42a12.8,12.8,0,0,0-15.36,20.49L460.8,448H64v-397L79.36,71.43A12.8,12.8,0,1,0,99.84,56.06L61.44,4.83C56.61-1.61,45.79-1.61,41,4.83L2.56,56.06A12.8,12.8,0,1,0,23,71.43L38.4,50.94V460.77a12.8,12.8,0,0,0,12.8,12.81H460.8l-20.48,15.37a12.8,12.8,0,1,0,15.36,20.49L506.88,471a12.81,12.81,0,0,0,0-20.49Z"/><ellipse class="cls-2" cx="140.8" cy="319.89" rx="38.4" ry="38.42"/><ellipse class="cls-2" cx="243.2" cy="230.24" rx="38.4" ry="38.42"/><ellipse class="cls-2" cx="345.6" cy="307.08" rx="38.4" ry="38.42"/><ellipse class="cls-2" cx="448" cy="166.2" rx="38.4" ry="38.42"/></svg>