<svg id="Layer_1" data-name="Layer 1" xmlns="http://www.w3.org/2000/svg" viewBox="0 0 512 512"><defs><style>.cls-1{fill:#707070;}</style></defs><title>chart-handdrawn</title><path class="cls-1" d="M386.46,267.33c-.38.37-1.06,1.42-1.61,2.16.13.09.11.46.43.22,1.09-.8,1-.4-.52,1.77-2,2.82-4,6-6.24,8.3-.46.46-1.05.94-1.08.76a24.62,24.62,0,0,1-.22-3.52c0-.54.57-1.46,1.79-3.06,2.92-3.81,5.85-7.69,8.68-11.6,2.57-3.55,5.81-6.38,5.4-4.56a4.68,4.68,0,0,1-.47.94c-1.34,2.23-2.7,4.47-4.13,6.83A25.58,25.58,0,0,0,386.46,267.33Zm7.94-18.95c.91,0,2.53-2.62,3.85-4.23a7.14,7.14,0,0,0,1.74-3,15.83,15.83,0,0,1,1.09-3.14,15.38,15.38,0,0,1,1.67-2.48c2.43-2.45,4.11-5.47,5.77-7.7-.69.3-1.32.59-1.9.81s-1.21.4-1.83.6c-1.07,1.51-2.34,3.47-3.58,5a52.91,52.91,0,0,0-3.94,5.86c-1.87,2.93-3.88,5.92-6,9.19a9.31,9.31,0,0,0-.25,1.46c0,.21.25.15.56-.08C392.48,249.9,394,248.39,394.4,248.39ZM267.28,281.09l4.68,2.66a2.23,2.23,0,0,0,.66.28c1.37.1-.32-2.36-2.68-4.12-2.6-1.94-5.17-4-7.67-6-1.05-.85-1.68-1.22-2.11-1.14a20.29,20.29,0,0,0-2.81.7c-.14,0,.14.51.42.85,1.42,1.69,3.61,2.93,5.49,4.32,1.44,1.07,1.75,1.05,1.31.21-.13-.25.15-.28.25-.41a5.64,5.64,0,0,1,2.46,2.67Zm15.24,5.53a3.38,3.38,0,0,0,2.11,1.1,8.32,8.32,0,0,1,2.29.51,7,7,0,0,1,1.67,1.12c1.52,1.79,3.61,2.85,5.1,4-.12-.57-.24-1.08-.32-1.57s-.11-1-.16-1.53c-1-.73-2.34-1.57-3.33-2.44a24.09,24.09,0,0,0-4-2.63c-2-1.23-4-2.58-6.22-4a5.7,5.7,0,0,0-1.11,0c-.16,0-.16.25,0,.48.4.73,1.34,1.82,1.27,2.21C279.69,284.63,281.48,285.68,282.53,286.62Zm-105.69,17.6c-1.12.91-1.65,1.48-1.67,1.93a20.68,20.68,0,0,0,0,3c0,.15.54,0,1-.27,2.05-1.13,3.84-3.12,5.7-4.77,1.44-1.27,1.49-1.58.53-1.29-.29.09-.25-.21-.36-.33a14.54,14.54,0,0,1,1.47-1.25,14.31,14.31,0,0,1,1.83-.76l3.84-4.26a2.51,2.51,0,0,0,.44-.62c.44-1.37-2.45-.11-4.81,2C182.18,299.82,179.5,302.05,176.83,304.22Zm17.8-18.2a3.8,3.8,0,0,0,1.62-1.94,9.15,9.15,0,0,1,1.08-2.23,7.91,7.91,0,0,1,1.54-1.49c2.18-1.22,3.76-3.14,5.27-4.44-.6,0-1.15.05-1.66,0s-1-.07-1.58-.12c-1,.89-2.16,2.09-3.28,2.93a27.26,27.26,0,0,0-3.63,3.53c-1.73,1.79-3.58,3.59-5.57,5.57a6.14,6.14,0,0,0-.28,1.12c0,.17.21.21.48.12.84-.28,2.16-1,2.54-.89C191.92,288.52,193.42,286.91,194.63,286ZM43.95,47.73a1.34,1.34,0,0,1,.52.36,3.28,3.28,0,0,1,0-1.17,1.55,1.55,0,0,0,0-.31c0-1.24-.65-2-1.3-1.08l-5.51,7c-1.23,1.56-1.81,2.46-1.81,3a24.36,24.36,0,0,0,.19,3.5c0,.18.62-.29,1.08-.74,2.3-2.22,4.24-5.35,6.29-8.11,1.7-2.28,1.17-1.91.54-1.75-.33.23-.3-.14-.43-.23.4-.53.23-.33.3-.43S43.9,47.72,43.95,47.73ZM45.63,465.5A44.64,44.64,0,0,0,44,461c0-6.56-.33-10.86-.86-9.2-.07-16.07-.15-31.71-.22-47.34l.1,1c.07-2.34.19-4.67.19-7q0-23.95,0-47.92c0-2.11,0-4.31,0-6.32.1-8.23.08-10.57-.27-9.67-.65,1.68-.71-7.51-.88-13.9-.44-16.87-.65-35-.91-53.13-.2-14.44-.18-29.8-.51-43.63-.06-2.67,0-6.15,0-9.26,0-12.74.37-24.89.15-38.1,0-1.71.14-5.82.26-6.79a18.39,18.39,0,0,1,.79-3.39c0-2.52.07-5.5.12-9.05l.25,2.88c-.07-7.37-.18-13.64-.17-19.79s.16-12.12.26-18.85l-.38-1.15c0-4.19,0-8.43.06-14.81l.13,3.28c.33-.2.63-1.84.84,0,.17,1.44.29,7,.31,11,0,4.27,0,6.1.3,7.33.21.9.36,6.54.53,10.09.43,8.72,1,5.86,1.53,6.4.19.19.38-.28.64-.52l.24-7.25.35,12-.34-.7c0,1.85,0,4.64,0,5.38.38,5.78.75,12.11,1.18,16.46.57,5.81,1.28-6.85,1.34-16.67.08-12.41,0-25.09.05-37.65,0-5.16,0-10.34.11-15.8q.12,12.6.23,25.2l.15,0c0-2.79.07-5.59.07-8.37,0-5.5,0-9.58.34-13,.27-3.15.31-8.32.26-15.39-.06-8.54-.35-20.3.26-26.38.23-2.29.58-.37.87-.37V46.26l-1-1.4a4.74,4.74,0,0,1-.58-1.17,3,3,0,0,0-.89-1,1.7,1.7,0,0,0-1.31-.13c-.32.13-.59,0-.93-.6s-1.11-1.31-1.18-2.61a8.05,8.05,0,0,0-.55-1.91,1.22,1.22,0,0,1-.34,0c-.11,0-.18-.23-.14-.49.09-.56.29-1.24.39-1.61l.09-.14,3.7,4.08a16.57,16.57,0,0,1,2.63,3.06l.14.2V38.13c-1.49-1.71-2.93-3.38-4.35-5l-2.11-2.55c-1.21,1.73-2.42,3.46-3.45,5.19-.31.52-.76,1.07-1.14,1.59-.79,1.07-1.62,2-2.46,3A40.55,40.55,0,0,0,35,44.12a7.57,7.57,0,0,1-1.41,1.44,3.12,3.12,0,0,1-1.23.32l-1.7,2.06.31-.83c-1.25,1.77-2.26,3.32-3.36,4.76s-2.27,2.75-3.54,4.28l.1.5L21.52,60.1l.48-.85c-.3-.15-.83.05-.68-.5A16.11,16.11,0,0,1,23,56c.73-1,1.06-1.44,1.05-1.91a17,17,0,0,1,1.35-2.7c1.2-2.31.23-2-.1-2.43-.12-.16-.35-.16-.6-.26l-1.47,1.56,1.84-3,.15.37c.33-.43.85-1.06.94-1.27.72-1.59,1.54-3.3,2-4.58.57-1.71-2.23.84-4,3.11l-6.69,8.83c-.91,1.21-1.82,2.43-2.88,3.65l4.26-6.07-.12-.09-1.53,1.93a13.72,13.72,0,0,1-2.56,2.86,17.09,17.09,0,0,0-2.92,3.47c-1.46,2-3.31,5-4.87,6-.59.4-.53-.26-.76-.44L1.81,70.65l.3-4-1,1c2.35-3.48.35-2.38,2.14-5.32L1,64.82c.42-1.05,1-2.22.27-2-.59.17.27-1.77.32-2.58,0-.33-.49,0-.55-.25a1.43,1.43,0,0,1,.17-1.32c1-1.48.89-2.59,3-4.51a8.1,8.1,0,0,0,.81-1,112.3,112.3,0,0,1,8.15-10.7c1.86-2.2,3.83-4.84,5.66-7.32l9.91-13.65,15-20L44.88,0l1.75,2.21A204.72,204.72,0,0,1,61.44,22.46c1.41,2.27,4.49,6.41,6.46,9.23l0-.28a5.71,5.71,0,0,1,1.81,1.23,27.65,27.65,0,0,1,3.73,5.29c.73,1.37,2.2,3.4,3.5,5.38H75.92c3.89,5.42,1.56,3.79.8,4,1.59,2,3.11,3.77,4.46,5.6a73.34,73.34,0,0,1,5.91,8.63c.32.62,1.49,1.94,2.1,2.87s1,1.78,1.54,2.67l-1.45-1.15c1,1.9,1.32,3-.33,1.8-.38-.28-.26.27-.47.3-.55.09-1.5-.31-4.11-3.58-1.36-1.71-3.77-3.08-3.73-2.15.05,1.35-2.45-.79-5-4.22L71.4,52.43a4.42,4.42,0,0,0-1.08-.92,34.28,34.28,0,0,1-5.58-6.15A8.28,8.28,0,0,1,64,44.18c-.63-1.66-.61-1.64-2.44-3.36.41,1.34.85,2.67,1.14,3.83.11.44-.12.5-.19.73l-2.89-3.85c-.33-.45-.52-1-.83-1.37l-13-17-.53-.59a1.23,1.23,0,0,0,0,.25L55.37,36.54l3.1,4c2,2.57,2.35,3.42,1.48,3.56L63,47.6l1.91,2.29c2.84,3.69,5.59,6.81,8.35,9.85.93,1,2,2.54,3,3.83l4.75,6c2.53,3.12,3.25,4.53,2.2,4.35a13.27,13.27,0,0,0-2.15-.06c-1.2-1.52-2.18-2.36-2.31-1.65l-8.53-11,.26.18c-.36-.59-.67-1.21-1.09-1.77L61,48.34l-1.12-1.49c-1.38-2-1.8-2.53-1.92-2.11-.22.78-1.9-1.34-3.16-2.74-1.1-1.19-2.1-2.33-3.1-3.47l1.12,5.94.77,1,.06-2.09c0,.82,0,1.55,0,2.23l.67.85c0,.65,0,1.28,0,1.91l.2,2-.74-.94c.35,6.14,1,3.31,1.29,12.75l.33-11.32c.29,3.72.51,8.12,1,6,.37-1.69.85,5.36,1.29,7.68.18.94.4-1,.59-.45A10.07,10.07,0,0,1,59,68c.1,6,.84,8.86.31,18.37,0,.82,0,3.13,0,4.48.27,15.52.16,30.3-.11,45.72-.17,9.78-.16,21-.13,31.46,0,12.4.22,24.65.26,37,0,14.31,0,28.7,0,43.06,0,2.76,0,6,.07,8.23.44,13.91.27,31.88-.3,42.95-.24,4.63-.25,13.17-.37,19.94l.19-.67a55.74,55.74,0,0,1,.71,7c.17,7.1.15,14.64-.19,22-.24,5.22-.28,13.75-.42,21.77l-.84-2.19c-.14,22.66-1,13.5-1.77,12.57.08,8.68.23,16.59.21,24.35,0,12.11.06,25-.45,35.54-.11,2.36,0,8.31,0,12.09s-.24,7-.37,10.4l-.47-6.09c-.34,7.24-.77,11-1.35,4.22-.13-1.55-.37.21-.55-.13-.49-.88-1-3.91-1.14-18.12-.06-7.41-1.17-16.08-1.69-13.47-.77,3.79-1.49-7.15-1.45-21.62,0-8,0-16.12,0-24.12,0-1.74-.19-3.58-.31-4.69-.44-4-.88-19.42-.78-28.11,0-1.7.06-3.87.13-4.7.49-5.78.5-5.69.07-14.13-.48,4.48-.92,9-1.39,12.75-.18,1.43-.39,1.11-.59,1.58,0-5.46,0-10.94,0-16.38,0-1.88.16-3.7.16-5.44q-.11-33.89-.25-67.74c0-.95,0-1.86-.06-2.75,0,.1-.11.15-.11.27q-.08,27-.15,54.06c0,5.52.06,11.08.07,16.63,0,11-.17,14.12-.95,12.7.14,6.1.26,10.82.37,15.69.07,3.27.14,6.68.15,10.11.06,15.83.38,29.93.77,43.84.13,4.69.09,11,.13,16.6.06,8.69.09,17.49.19,26.06C46.63,462.81,46.36,468.11,45.63,465.5ZM55.2,123.91l.17,1.84c.14-1.64.37-3.06.39-5,0-5.54,0-11.29,0-16.94,0-3.38-.08-6.71-.08-10.07,0-2,.06-4,.1-6.05l-.21-.77Q55.36,105.43,55.2,123.91ZM14.32,47.27a5.48,5.48,0,0,0-1.19.94l-3,4L8.46,54.63c-.35.47-.76.91-1.15,1.36l0,.31,6.78-8.51ZM42.38,25.52c-1,.75-3.1,3.65-4.89,6.71l2-2.74h.06l-1.43,2.18c1-1.24,1.64-1.86,2-2.38Zm3.14,199.92c.11,4.56.29,8.56.43,12.78.33-4.91.28-15.59-.12-26.1,0,4,0,7.36,0,10.73l0,.25c0-1.63-.07-3.26-.16-8C45.59,220.47,45.48,223.57,45.53,225.44ZM30.9,138.08c-.12-.43-.32,2.06-.42,4.21-.5,10.74-.18,23.2-.17,34.89,0,9,.21,10.16.62,5.85.12-1.29.32-.23.48-.25,0,3.1.06,7.3,0,9.06-.19,3.81-.45,6.37-.63,8.8.23,9.22.45,18,.68,26.72,0,1.38.1,2.91.17,3.48.74,5.77,1.7-8.34,1.69-23.07,0-16.23.08-32.59.2-48.7.05-6.76,0-10.39-.35-11.86C32.41,143.8,31.66,140.64,30.9,138.08Zm8.06,173c.15-9.58-.13-15.94-.27-23.73-.21-11.65-.34-23.77-.53-36.9-.14-1-.39-3.23-.65-4.46-.12-.57-.29.1-.4,1.33-.34,3.8-.65,10.83-1,11.71-.73,1.81-.5,12.11-.63,19.12a77.8,77.8,0,0,0,.39,11.71c.35,2.45.68,6.28,1,10.7.12,1.81.19,8.31.11,10-.52,11.47-.11,23-.13,32.34.38-2.17.72-4.23,1.06-6s.74-3.47,1.13-5.24C39,325.57,38.86,317.71,39,311.11ZM32.77,63.86c0-2.33-.08-5.61-.18-7.4-.62-11.13-1.68-6.2-2.14,7.7,0,.69,0,1.41,0,2.11l-4.72,4.5-.34.62.05-.84-3.93,4.84a12.36,12.36,0,0,0-1.16,1.85c-1.47,3,.25,2.47,3.07-.53a105.12,105.12,0,0,0,7-8.73c-.35,13.69-.18,28.11-.28,42.1,0,4,0,8.22,0,12.34l.18,1.37L32.17,85l-.1-2.38L32.53,85c.09-7.16.18-13.65.23-20.22L34,63.22l.1-.43L32.77,64C32.77,64,32.77,63.91,32.77,63.86ZM511,466.15l-2.21,1.75a204.65,204.65,0,0,1-20.25,14.81c-2.27,1.41-6.41,4.49-9.23,6.46l.27,0a5.71,5.71,0,0,1-1.23,1.81,27.62,27.62,0,0,1-5.29,3.73c-1.38.73-3.4,2.2-5.38,3.5,0-.33,0-.66,0-1.06-5.42,3.89-3.79,1.56-4,.8-2,1.59-3.77,3.11-5.6,4.46a73.45,73.45,0,0,1-8.63,5.91c-.62.32-1.94,1.49-2.87,2.1s-1.78,1-2.67,1.54l1.15-1.45c-1.9,1-3,1.32-1.8-.33.28-.38-.27-.26-.3-.46-.09-.55.31-1.5,3.58-4.11,1.71-1.36,3.08-3.77,2.15-3.73-1.35.05.79-2.45,4.22-5l5.66-4.27a4.42,4.42,0,0,0,.92-1.08,34.29,34.29,0,0,1,6.15-5.58,8.43,8.43,0,0,1,1.19-.72c1.66-.63,1.64-.61,3.36-2.44-1.34.41-2.67.85-3.83,1.14-.44.11-.5-.12-.73-.19l3.85-2.89c.45-.33,1-.52,1.38-.83l17-13,.59-.53a1.24,1.24,0,0,0-.25,0l-13.71,10.09-4,3.1c-2.57,2-3.42,2.36-3.56,1.48l-3.47,3.06-2.29,1.91c-3.69,2.84-6.81,5.59-9.85,8.35-1,.93-2.54,2-3.83,3l-6,4.75c-3.12,2.53-4.53,3.25-4.35,2.2a13.28,13.28,0,0,0,.06-2.15c1.52-1.19,2.36-2.18,1.65-2.31l11-8.53-.18.26c.59-.36,1.21-.67,1.77-1.09l11.28-8.45,1.49-1.12c2-1.38,2.53-1.8,2.11-1.92-.78-.22,1.34-1.9,2.74-3.16,1.19-1.1,2.33-2.1,3.47-3.1l-5.94,1.12-1,.77,2.09.06-2.23,0-.85.67-1.91,0-2,.2.94-.74c-6.14.35-3.31,1-12.75,1.29l11.32.33c-3.72.29-8.12.51-6,1,1.69.37-5.36.85-7.68,1.29-.94.18,1,.4.45.59a10.07,10.07,0,0,1-4,.66c-6,.1-8.86.84-18.37.31-.82,0-3.13,0-4.48,0-15.52.27-30.3.16-45.72-.11-9.78-.17-21-.16-31.46-.13-12.4,0-24.65.22-37,.26-14.31,0-28.7,0-43.06,0-2.76,0-6,0-8.23.07-13.91.44-31.88.27-42.95-.3-4.63-.24-13.17-.25-19.94-.37l.67.2a55.81,55.81,0,0,1-7,.71c-7.1.17-14.64.15-22-.19-5.22-.24-13.75-.28-21.77-.42l2.19-.84c-22.66-.14-13.5-1-12.57-1.77-8.68.08-16.59.23-24.35.21-12.11,0-25,.06-35.54-.45-2.36-.11-8.31,0-12.09,0s-7-.24-10.4-.37L55,476.5c-7.24-.34-11-.77-4.22-1.35,1.55-.13-.21-.37.13-.55.88-.49,3.91-1,18.12-1.14,7.41-.06,16.08-1.17,13.47-1.69-3.79-.77,7.15-1.49,21.62-1.45,8,0,16.12,0,24.12,0,1.74,0,3.58-.19,4.69-.31,4-.44,19.42-.88,28.11-.78,1.7,0,3.87.06,4.7.13,5.78.49,5.69.5,14.13.06-4.48-.48-9-.92-12.75-1.39-1.43-.18-1.11-.39-1.58-.59,5.46,0,10.94,0,16.38,0,1.88,0,3.7.16,5.44.16q33.89-.11,67.74-.26c.95,0,1.86,0,2.75-.06-.1,0-.15-.11-.27-.11q-27-.08-54.06-.15c-5.52,0-11.08.06-16.63.07-11,0-14.12-.17-12.7-.95-6.1.14-10.82.26-15.69.37-3.27.07-6.68.14-10.11.15-15.83.06-29.93.38-43.84.77-4.69.13-11,.09-16.6.13-8.69.06-17.49.09-26.06.19-13.64.15-18.93-.12-16.33-.85a44.64,44.64,0,0,0,4.54-1.68c6.56,0,10.86-.33,9.2-.86l47.34-.22-1,.1c2.34.07,4.67.19,7,.19q23.95,0,47.92,0c2.11,0,4.31,0,6.32,0,8.23.1,10.57.08,9.67-.27-1.68-.65,7.51-.72,13.9-.88,16.87-.44,35-.65,53.13-.91,14.44-.21,29.8-.18,43.63-.51,2.67-.06,6.15,0,9.26,0,12.74,0,24.89.37,38.1.15,1.71,0,5.82.14,6.79.26a18.23,18.23,0,0,1,3.39.79l9.05.12-2.88.25c7.37-.07,13.64-.18,19.79-.17s12.12.17,18.85.27l1.15-.38,14.81.06-3.28.13c.2.33,1.84.63,0,.84-1.44.17-7,.29-11,.31-4.27,0-6.1,0-7.33.3-.9.21-6.54.36-10.09.53-8.72.43-5.86,1-6.4,1.53-.19.19.28.38.52.64l7.25.24-12,.35.7-.34c-1.85,0-4.64,0-5.38,0-5.78.38-12.11.75-16.46,1.18-5.81.57,6.85,1.28,16.67,1.34,12.41.08,25.09,0,37.65.05,5.16,0,10.34,0,15.8.11l-25.2.23c0,.05,0,.1,0,.15,2.79,0,5.59.07,8.37.07,5.5,0,9.58,0,13,.34,3.15.27,8.32.31,15.39.26,8.54-.06,20.3-.35,26.38.26,2.29.23.37.58.37.87h14.3l1.4-1a4.77,4.77,0,0,1,1.17-.58,3,3,0,0,0,1-.89,1.7,1.7,0,0,0,.13-1.31c-.13-.32,0-.59.6-.93s1.31-1.11,2.61-1.18a8,8,0,0,0,1.91-.55,1.23,1.23,0,0,1,0-.34c0-.11.23-.18.49-.14.56.09,1.24.29,1.61.39l.14.09-4.08,3.7a16.53,16.53,0,0,1-3.06,2.63l-.2.14h4.37c1.71-1.49,3.38-2.93,5-4.35l2.55-2.11c-1.73-1.21-3.46-2.42-5.19-3.45-.52-.31-1.07-.76-1.59-1.14-1.07-.79-2-1.62-3-2.46a40.49,40.49,0,0,0-3.76-2.82,7.59,7.59,0,0,1-1.44-1.41,3.13,3.13,0,0,1-.32-1.23l-2.06-1.7.83.31c-1.77-1.25-3.32-2.26-4.76-3.36s-2.75-2.27-4.28-3.54l-.5.1-3.45-2.66.85.48c.15-.3-.05-.83.5-.68a16.08,16.08,0,0,1,2.78,1.69c1,.73,1.44,1.06,1.91,1.05a17,17,0,0,1,2.7,1.35c2.31,1.2,2,.23,2.43-.1.16-.12.16-.35.26-.6l-1.56-1.47,3,1.84-.37.15c.43.33,1.07.85,1.27.95,1.59.72,3.3,1.53,4.58,2,1.71.57-.84-2.23-3.11-4l-8.83-6.69c-1.21-.92-2.43-1.82-3.65-2.88l6.07,4.26.09-.12-1.93-1.53a13.7,13.7,0,0,1-2.86-2.56,17.11,17.11,0,0,0-3.47-2.93c-2-1.46-5-3.31-6-4.87-.4-.59.26-.53.44-.76l-5.63-4.22,4,.3-1-1c3.48,2.35,2.38.35,5.32,2.15l-2.46-2.26c1.05.42,2.22,1,2,.27-.17-.59,1.77.27,2.58.32.33,0,0-.49.25-.55a1.43,1.43,0,0,1,1.32.17c1.48,1,2.59.89,4.51,3a8,8,0,0,0,1,.81,112.35,112.35,0,0,1,10.69,8.15c2.2,1.86,4.84,3.83,7.32,5.66L489.56,450l20,15Zm-47.27-30.56a5.51,5.51,0,0,0-.94-1.19l-4-3-2.42-1.71c-.47-.35-.91-.76-1.36-1.15l-.31,0,8.51,6.78ZM298.91,467.11l-10.73,0-.25,0,8-.16c-5.38-.08-8.48-.19-10.34-.15-4.56.11-8.56.29-12.78.43C277.72,467.56,288.4,467.51,298.91,467.11Zm125.17,9.68-37-.32-1.84.17c1.64.13,3.06.37,5,.39,5.54,0,11.29,0,16.94,0,3.38,0,6.71-.08,10.07-.08,2,0,4,.06,6.05.1Zm61.43-13.14c-.75-1-3.65-3.1-6.71-4.89l2.74,2v.06l-2.18-1.43c1.24,1,1.86,1.64,2.38,2Zm-21.41,2.1a1.58,1.58,0,0,0,.31,0c1.24,0,2-.65,1.08-1.3l-7-5.51c-1.56-1.23-2.46-1.81-3-1.81a24.41,24.41,0,0,0-3.5.19c-.18,0,.29.62.74,1.08,2.22,2.3,5.35,4.24,8.11,6.29,2.28,1.7,1.91,1.17,1.75.54-.23-.33.14-.3.23-.43.54.4.33.23.43.3s.07.05.06.1a1.34,1.34,0,0,1-.36.52A3.28,3.28,0,0,1,464.1,465.76Zm-28.46-23a12.43,12.43,0,0,0-1.85-1.16c-3-1.47-2.47.25.53,3.07a104.69,104.69,0,0,0,8.73,7c-13.69-.35-28.11-.18-42.1-.28-4,0-8.22,0-12.34,0l-1.37.18L426,453.44l2.38-.1-2.38.46c7.16.08,13.65.18,20.22.23l1.59,1.2.43.1L447,454h.16c2.33,0,5.61-.08,7.4-.18,11.13-.62,6.2-1.68-7.7-2.14l-2.11,0-4.5-4.72-.62-.34.84.05Zm-83.69,12c6.76.05,10.39,0,11.86-.35,3.41-.74,6.57-1.49,9.13-2.25.43-.13-2.06-.32-4.21-.42-10.74-.5-23.2-.18-34.89-.17-9,0-10.16.21-5.85.62,1.29.12.23.32.25.48-3.09,0-7.3.06-9.06,0-3.81-.19-6.37-.45-8.8-.63l-26.72.68c-1.38,0-2.91.1-3.48.17-5.77.74,8.34,1.7,23.07,1.69C319.48,454.56,335.84,454.65,352,454.77ZM174,459.14c1.88.37,3.47.74,5.24,1.13,6.21,0,14.07-.15,20.66,0,9.58.15,15.94-.13,23.73-.27,11.64-.21,23.77-.34,36.9-.53,1-.14,3.23-.39,4.46-.65.57-.12-.1-.29-1.33-.4-3.8-.34-10.83-.65-11.71-1-1.81-.73-12.11-.5-19.12-.63a77.84,77.84,0,0,0-11.71.39c-2.45.35-6.28.68-10.7,1-1.81.12-8.32.19-10,.11-11.47-.52-23-.11-32.34-.13C170.21,458.46,172.27,458.8,174,459.14Zm-71.09-115a36.83,36.83,0,0,1-4.26-15.25,34.19,34.19,0,0,1,19.56-33.1c1.25-.66,2.79-1.2,3.85-1.63a31.09,31.09,0,0,1,11.31-2,30.75,30.75,0,0,1,10.2,1.92c1,.35,2.28.91,3.67,1.56a5.16,5.16,0,0,1,.93-.6,4.23,4.23,0,0,0,.73-.61,59,59,0,0,1,7.4-6.33c1.68-1.24,3.47-2.82,5.13-4.31,2-1.76,3.81-3.63,5.77-5.39,2.27-2,4.61-4,6.92-6a13.33,13.33,0,0,0,1.27-1.21,27.2,27.2,0,0,1,7.08-5.8,37.51,37.51,0,0,0,3.44-2.52l-.24-.05c.2-.5.14-1,.66-1.52a14.57,14.57,0,0,1,3.65-2.94c1-.55,2.39-1.72,3.77-2.74l.2.94c3.73-3.07,2.84-1.12,3.18-.43,1.34-1.28,2.51-2.5,3.77-3.57l1.18-1a34.93,34.93,0,0,1-2.58-11.27,34.5,34.5,0,0,1,5.87-20.79c.74-1.2,1.79-2.46,2.48-3.36a31.1,31.1,0,0,1,8.69-7.52,30.78,30.78,0,0,1,9.76-3.54,41.65,41.65,0,0,1,10-.64l-.33-.16a15.71,15.71,0,0,1,3.61-.11,27.31,27.31,0,0,1,10.64,3.58A37.41,37.41,0,0,1,259,214.4l-1.17-.38c4,4,4.51,5.77,4.49,6s-1-.58-1.3-.61a31,31,0,0,1,5.18,10.48,30.5,30.5,0,0,1,.37,15l.26.18a52,52,0,0,1,7.25,5.57c1.46,1.31,3.26,2.65,5,3.88,2,1.46,4.08,2.78,6.08,4.24,2.31,1.69,4.58,3.46,6.88,5.19a11.66,11.66,0,0,0,1.36.93,24,24,0,0,1,6.69,5.39,33,33,0,0,0,3,2.69v-.24a3.17,3.17,0,0,1,1.55.27,12.85,12.85,0,0,1,3.4,2.8,41.75,41.75,0,0,0,3.23,3l-.85.4c3.54,2.83,1.54,2.44.95,2.93,1.44,1,2.79,1.81,4,2.76l1,.75a31.71,31.71,0,0,1,3.21-1.82l-.71,1c5-2.62,6.85-2.59,7.07-2.5s-.84.76-1,1.06a31.06,31.06,0,0,1,11.55-1.83,30.63,30.63,0,0,1,6.41.92c0-.31-.49,0-.55-.23a1.45,1.45,0,0,1,.16-1.34c1-1.51.87-2.63,3-4.6a8.24,8.24,0,0,0,.8-1.06,114.92,114.92,0,0,1,8.09-10.94c1.85-2.25,3.8-5,5.61-7.49,2.14-3,4.13-6.06,6.27-9.06,2.47-3.47,5-6.89,7.55-10.35.48-.66,1-1.44,1.38-2a52.81,52.81,0,0,1,7.76-10.16c1-1,2.51-3,3.79-4.58l-.27,0a5.82,5.82,0,0,1,.65-2.11,28.27,28.27,0,0,1,4-5.18c1.11-1.11,2.63-3.14,4.15-5l.29,1c4.08-5.37,3.19-2.64,3.63-2,1.45-2.13,2.72-4.12,4.09-6,1.54-2.07,3.1-4.16,4.69-6.07a34.26,34.26,0,0,1-6.22-18.16c-.12-1.4,0-3,0-4.18a31.11,31.11,0,0,1,2.53-11.21A30.77,30.77,0,0,1,410,153.2a41.58,41.58,0,0,1,7.68-6.46l-.36.07a15.71,15.71,0,0,1,2.84-2.24,27.31,27.31,0,0,1,10.69-3.43,37.45,37.45,0,0,1,11,.24l-1.17.39c5.6.86,7.05,2,7.18,2.17s-1.13.12-1.41.28a31.05,31.05,0,0,1,10.39,5.35,29.94,29.94,0,0,1,10,13.65,41.1,41.1,0,0,1,1.68,5.55,27.41,27.41,0,0,1,.39,4.94,19.39,19.39,0,0,0-.6-2.83c.23,3.42-.17,5.1-.65,2-.13-.69-.24.12-.37,0-.47-.33-.47-1.78-2.5-7.71-1.12-3.14-3.85-5.9-3.55-4.75.31,1.68-2.05-2.33-6.55-6.21a27.29,27.29,0,0,0-8.51-4.94,7,7,0,0,0-1.88-.41,39.69,39.69,0,0,0-11.25-.36c-.67.09-1.53.19-1.88.2-2.31.24-2.36.14-5.42,1.63a25.56,25.56,0,0,1,5.07-.65c.56,0,.47.16.68.26a27.12,27.12,0,0,0-5.93,1.94,20.79,20.79,0,0,0-1.91.85,26.14,26.14,0,0,0-13.11,21.1v1s.08-.06.08-.1a25.85,25.85,0,0,1,8.32-18.11,26.71,26.71,0,0,1,5-3.74c3.69-1.95,5-1.9,4.6-1.32a25.24,25.24,0,0,1,5.64-1.42,21.54,21.54,0,0,1,3.77-.15,27.47,27.47,0,0,1,15.33,5.54,23.54,23.54,0,0,1,4.37,4.58,26.62,26.62,0,0,1,4.34,8.95c1.26,5.13.63,7.24.25,6.22a10.38,10.38,0,0,0-1.2-1.62c-.23-2.36-.8-3.82-1-3.16a24.18,24.18,0,0,0-8.73-13.75l.32.16a23,23,0,0,0-1.93-1.56,24.12,24.12,0,0,0-16.12-3.76l-2.2.36c-2.85.6-3.57,1.08-3.2,1.14.69.19-2.3,1.29-4,2.64a23.78,23.78,0,0,0-9.74,14.49,22.26,22.26,0,0,0,1.49,14.09c.44.76.84,1.83,1.42,2.67a23.15,23.15,0,0,0,4.95,5.86c.3-.17.52-.17.57.2,0,.13.07.24.1.36a18.79,18.79,0,0,0,3.31,2.1c.52.22,1.67.94,2,1.08a4,4,0,0,1,.89.89,25.49,25.49,0,0,0,2.94.88,8.31,8.31,0,0,1-1-.06,28,28,0,0,0,13.07-.54l.28-.38a20.77,20.77,0,0,0,4.53-2.17l-.91.65c.16.16.76,0,.28.49a13.41,13.41,0,0,1-3.42,1.8,15,15,0,0,0-2.42,1,15.41,15.41,0,0,1-3.5,1c-3.13.44-2.12.78-2.31,1.14-.07.13.11.25.2.42.21,0,1.12.05,2.78,0a25.78,25.78,0,0,1-4.62.36l.28-.21c-.71,0-1.78-.12-2.06-.16a31.86,31.86,0,0,1-6.41-.8c-2.33-.52,2.21,2,6.29,2.48a27.61,27.61,0,0,0,15.05-2.3,29.84,29.84,0,0,0,2.8-1.46,28.08,28.08,0,0,1-6.34,3.05l0,.09a31.12,31.12,0,0,0,3.28-1.16c2.09-.94,3.53-1.82,4.84-2.44a18.47,18.47,0,0,0,5-4.12c2.5-2.64,4.75-7.06,5.93-9.36.48-.86.42,0,.6.05a29,29,0,0,0,1.82-10.13,31.85,31.85,0,0,1,1,5.19l.41-2.14a43.57,43.57,0,0,0-.39,4.77,8.5,8.5,0,0,1-.71,3.91,34.31,34.31,0,0,0,1.76-5c-.22,1.75-.66,3.83-.08,2.93.52-.71-.29,2.64-.49,3.82-.09.47.45-.33.46,0a3.82,3.82,0,0,1-.46,2c-1.34,2.71-1.63,4.34-5,7.83l-1.57,1.65a32.9,32.9,0,0,1-20.69,9.74,36.82,36.82,0,0,1-15.7-2,34.28,34.28,0,0,1-6.87-3.42l-3.31,4.71.1-.3c-.46.53-1,1-1.38,1.58q-4.21,5.75-8.39,11.52c-.37.51-.73,1.05-1.1,1.52-1.52,1.92-1.91,2.5-1.47,2.49.82,0-.74,2.23-1.72,3.86-2.59,4.32-5.6,8.81-8.56,13.32-2.36,3.59-5.07,7.27-7.22,10.8-.41.68-1,1.5-1.59,2.25-2.21,3.08-4.66,5.77-6.79,9.07a7.76,7.76,0,0,1-1.4,1.48,3.14,3.14,0,0,1-1.23.35l-1.68,2.11.3-.84c-1.23,1.81-2.24,3.39-3.33,4.86s-2.25,2.82-3.51,4.38l.11.5-2.64,3.53.47-.86c-.3-.15-.84.07-.69-.49a16.5,16.5,0,0,1,1.67-2.83c.73-1,1.05-1.48,1-1.94a17.41,17.41,0,0,1,1.33-2.74c1.18-2.35.21-2-.12-2.44-.12-.16-.36-.15-.61-.25l-1.47,1.6,1.82-3.09.15.37c.32-.44.85-1.09.94-1.3.7-1.62,1.51-3.35,1.93-4.65.55-1.73-2.23.9-4,3.22-2.24,2.94-4.42,6-6.63,9-.91,1.24-1.81,2.49-2.85,3.74L360,273l-.12-.08c-.51.66-1,1.3-1.52,2a14,14,0,0,1-2.55,2.93,17.48,17.48,0,0,0-2.9,3.55c-.81,1.18-1.75,2.61-2.69,3.86a22.88,22.88,0,0,1,2.31,1.37,41.27,41.27,0,0,1,4.64,3.48,27.45,27.45,0,0,1,3.24,3.75,19.39,19.39,0,0,0-2.16-1.93c2.21,2.62,2.88,4.22.68,2-.51-.48-.12.23-.31.2-.58,0-1.43-1.16-6.58-4.73a13.82,13.82,0,0,0-4.06-1.8c-.24.13-.37.05-.45-.1l-.42-.08-2.07,2.85a26.76,26.76,0,0,1,7.1,4c4,3.39,4.79,5.47,3.89,4.87a10.45,10.45,0,0,0-1.93-.6c-1.58-1.77-2.9-2.6-2.68-2a23.72,23.72,0,0,0-7.69-4.46l-.59.82.06-1a24.45,24.45,0,0,0-6.95-1.3l.36-.06a22.92,22.92,0,0,0-2.47-.12,23.36,23.36,0,0,0-10.58,3.19.31.31,0,0,1-.24.13,25,25,0,0,0-4.4,3.18l-1.56,1.59-.21.25c1.68,1.2,2.19,1.92,1.44,2.16a13.73,13.73,0,0,0-1.74.8,4.39,4.39,0,0,0-1.4-.71c-.12.25-.13.38,0,.31.67-.25-1.09,2.4-1.7,4.52a23.78,23.78,0,0,0,.71,17.45A22.26,22.26,0,0,0,324,333.83c.8.35,1.76,1,2.73,1.32a21.18,21.18,0,0,0,12.23,1.6c.54-.13,1.9-.23,2.23-.29a4,4,0,0,1,1.24.19,25.47,25.47,0,0,0,2.89-1,8.36,8.36,0,0,1-.83.54A28,28,0,0,0,354.7,328v-.47a20.68,20.68,0,0,0,2.37-4.43l-.35,1.07c.23,0,.63-.42.52.22a13.42,13.42,0,0,1-1.69,3.48,15.05,15.05,0,0,0-1.38,2.2,15.4,15.4,0,0,1-2.23,2.87c-2.26,2.21-1.25,1.88-1.19,2.28,0,.15.23.14.41.22.16-.14.94-.62,2.23-1.66a25.83,25.83,0,0,1-3.51,3l.1-.34c-.59.4-1.5,1-1.76,1.09a31.85,31.85,0,0,1-5.64,3.15c-2.19,1,3,.33,6.54-1.72a27.61,27.61,0,0,0,10.78-10.75,31,31,0,0,0,2.54-6,28.23,28.23,0,0,1-4.45,9.32l.08.05a31,31,0,0,0,2-2.87c1.13-2,1.78-3.55,2.46-4.83a18.47,18.47,0,0,0,1.56-6.26c.45-3.61-.35-8.5-.76-11.05-.12-1,.33-.26.51-.31a31.64,31.64,0,0,0-2-5.14c-.39.1-.48-.19-.38-.73a30.11,30.11,0,0,0-2.11-3.38c.88.73,1.69,1.45,2.48,2.21,0,0,0,0,0-.08a12.65,12.65,0,0,1,1.15-1.88c1.25-1.63,2.51-3.2,3.9-5l0,.84.34-.63,8.32-8.2-.09.44c-.72,1-1.43,2-2.16,3-2.77,3.61-5.34,7.57-8.33,10.83a18.66,18.66,0,0,1-1.74,1.69,24.39,24.39,0,0,0,1.57,2.49,8.5,8.5,0,0,1,1.74,3.57,34.36,34.36,0,0,0-1.56-5.11c.86,1.54,1.74,3.48,1.67,2.41,0-.88,1.33,2.3,1.86,3.37.21.43.17-.53.34-.31a3.82,3.82,0,0,1,.8,1.87c.52,3,1.25,4.47.57,9.29l-.29,2.26a32.9,32.9,0,0,1-10.93,20.09,36.84,36.84,0,0,1-13.86,7.65,34.19,34.19,0,0,1-36.71-11.43c-.93-1.06-1.81-2.44-2.47-3.37a31.11,31.11,0,0,1-4.58-10.54,30.76,30.76,0,0,1-.47-10.37,41.59,41.59,0,0,1,2.37-9.75l-.25.27a15.67,15.67,0,0,1,1-3.48,26.2,26.2,0,0,1,2.47-4.29h0c-2.54-1.93-5.11-3.84-7.66-5.76-.34-.25-.71-.5-1-.76-1.26-1.06-1.65-1.33-1.71-.94-.12.72-1.63-.33-2.75-1-3-1.67-6-3.68-9-5.65-2.43-1.57-4.87-3.44-7.29-4.83a18.47,18.47,0,0,1-1.51-1.08c-2.05-1.51-3.76-3.29-6-4.7a3.64,3.64,0,0,1-.93-1,2.53,2.53,0,0,1-.07-1L267,267l.61.14c-1.22-.83-2.29-1.49-3.27-2.24s-1.84-1.59-2.86-2.47l-.41.17-2.33-1.83.6.29c.17-.29.09-.73.5-.68a7.62,7.62,0,0,1,1.95,1.07c.7.49,1,.72,1.36.64a8.36,8.36,0,0,1,1.94.78c1.65.7,1.54-.1,1.94-.46.14-.13.18-.34.3-.58l-1-1.06,2.13,1.16-.31.19a7.47,7.47,0,0,0,.86.64,28.82,28.82,0,0,0,3.34,1c1.27.24-.33-1.85-1.86-3.08-1.94-1.55-4-3-6-4.56-.58-.44-1.17-.92-1.75-1.41a19.9,19.9,0,0,1-1.19,1.73,20.71,20.71,0,0,0,.9-2l-.09-.07c-1.62,2.42-2.67,3.22-1.35.67.31-.64-.26,0-.28-.24s.15-.87.74-2.42c-.23-.17-.4-.32-.66-.5-.83-.58-1.86-1.23-2.71-1.92-1.74,3.67-3.13,4.78-2.86,3.85a10.41,10.41,0,0,0,0-2c1.22-2,1.62-3.55,1.06-3.14.18-.41.27-.84.42-1.25l-3.34-2.5,3.14-.35-.68-.69a2.93,2.93,0,0,0,1.82.68,24.37,24.37,0,0,0-.24-12.13l.17.32a22.92,22.92,0,0,0-.62-2.4,24.12,24.12,0,0,0-10.74-12.6l-2-1c-2.65-1.21-3.52-1.25-3.25-1,.44.56-2.62-.33-4.82-.28a23.78,23.78,0,0,0-16.44,5.88,22.27,22.27,0,0,0-7.17,12.22c-.09.87-.41,2-.44,3a21.18,21.18,0,0,0,2.12,12.15c.29.48.79,1.75.94,2a4,4,0,0,1,.19,1.24c.13.22.38.5.55.73,1.32-1.13,2-1.37,2.06-.64a13.6,13.6,0,0,0,.38,1.9,6.7,6.7,0,0,0-.81.9,27,27,0,0,0,9.75,6.25l.45-.13a20.76,20.76,0,0,0,4.93.95h-1.12c0,.23.59.48-.06.56a13.45,13.45,0,0,1-3.82-.58,15,15,0,0,0-2.52-.66,15.38,15.38,0,0,1-3.4-1.27c-2.78-1.5-2.16-.63-2.53-.45-.13.06-.06.26-.09.45.18.11.87.71,2.25,1.63a25.84,25.84,0,0,1-3.93-2.45h.35c-.55-.44-1.36-1.15-1.56-1.35s-.29-.26-.44-.38l-1.2,1.1c.18.19.35.38.54.56a27.6,27.6,0,0,0,13.48,7.09,31,31,0,0,0,6.44.66,28.23,28.23,0,0,1-10.23-1.48l0,.1a31.08,31.08,0,0,0,3.33,1c2.24.48,3.92.64,5.35.9a18.47,18.47,0,0,0,6.44-.37,27.84,27.84,0,0,0,5.62-1.81c-.09-.09-.2-.16-.28-.25-1.95-2-2.1-3.48.05-2.64a5.82,5.82,0,0,1,1.29.75c.43.34.86.73,1.28,1.08.9-.43,1.72-.83,2.36-1.15.9-.41.35.24.45.4a29,29,0,0,0,7.48-7.08,31.85,31.85,0,0,1-2.29,4.76l1.6-1.48a43.52,43.52,0,0,0-3.15,3.6,8.51,8.51,0,0,1-2.89,2.73,34.29,34.29,0,0,0,4.41-3c-1.22,1.28-2.8,2.69-1.8,2.31.84-.26-1.8,2-2.67,2.79-.35.33.56,0,.4.23l-.2.24,3.1,3.79-.33,0c-.66-.49-1.34-1-2-1.48s-1.23-.95-1.85-1.41c-.12.07-.15.13-.3.21-2.69,1.39-3.89,2.53-8.7,3.31l-2.24.4a32.89,32.89,0,0,1-22.44-4.45,36.59,36.59,0,0,1-7.31-5.92,5.45,5.45,0,0,0-.7.47c-2.57,2.23-5.13,4.47-7.69,6.72-.34.3-.67.63-1,.89-1.38,1.08-1.75,1.43-1.37,1.56.7.25-.73,1.59-1.65,2.61-2.41,2.7-5.19,5.41-7.92,8.14-2.18,2.18-4.66,4.31-6.66,6.51-.38.42-1,.89-1.46,1.33-2,1.8-4.24,3.21-6.21,5.23a4.09,4.09,0,0,1-1.26.76,2.58,2.58,0,0,1-1.06-.12L171,298.17l.3-.59c-1.14,1.09-2.07,2.05-3.06,2.9s-2.05,1.58-3.2,2.44l.07.45-2.42,2,.44-.56c-.25-.22-.71-.22-.56-.63a8.62,8.62,0,0,1,1.56-1.78c.67-.62,1-.87,1-1.26a9.35,9.35,0,0,1,1.27-1.82c1.12-1.55.28-1.58,0-2.05-.09-.17-.29-.25-.51-.41l-1.32.83,1.69-1.95.11.35a8.48,8.48,0,0,0,.86-.76,32.19,32.19,0,0,0,1.86-3.2c.56-1.25-1.94,0-3.56,1.33-2,1.68-4.05,3.49-6.07,5.24-.83.72-1.66,1.45-2.61,2.13l3.89-3.71-.1-.11c-.46.37-.95.73-1.39,1.12a7.31,7.31,0,0,1-2.31,1.57,4.37,4.37,0,0,0-1.09.64,27.31,27.31,0,0,1,7,8.15,38.25,38.25,0,0,1,3.15,7l7.33-3.93-.1.33c-.66.58-1.31,1.18-2,1.73-1.56,1.27-3.09,2.63-4.66,3.92.11.4.24.79.33,1.19l-.76-.86,0,0c1.36,5.41.92,7.17.79,7.37s-.55-1-.81-1.19a31,31,0,0,1-.88,11.66,29.94,29.94,0,0,1-8.68,14.51,41.12,41.12,0,0,1-4.45,3.71,27.46,27.46,0,0,1-4.4,2.29,19.43,19.43,0,0,0,2.37-1.66c-3.05,1.55-4.77,1.84-2.13.2.59-.39-.2-.18-.12-.35.12-.56,1.46-1.13,6.12-5.31,2.45-2.26,3.93-5.85,3-5.12-1.42.94,1.35-2.8,3.16-8.46a27.3,27.3,0,0,0,1.23-9.76,7,7,0,0,0-.36-1.89,39.7,39.7,0,0,0-4.06-10.5c-.34-.58-.77-1.34-.91-1.65-1.12-2-1.05-2.12-3.61-4.36a25.58,25.58,0,0,1,2.57,4.42c.24.51,0,.5,0,.72a27.18,27.18,0,0,0-4.1-4.71c-.55-.46-1-1-1.52-1.42-.38-.29-.8-.53-1.2-.8l-.27.24c.47.31.95.61,1.4.94,3.23,2.64,3.69,3.85,3,3.72a25.24,25.24,0,0,1,3.51,4.63,21.62,21.62,0,0,1,1.61,3.41,27.47,27.47,0,0,1,.88,16.27,23.48,23.48,0,0,1-2.51,5.81,26.6,26.6,0,0,1-6.55,7.49c-4.23,3.16-6.42,3.41-5.63,2.66a10.48,10.48,0,0,0,1-1.74c2.08-1.14,3.2-2.23,2.52-2.16a24.18,24.18,0,0,0,9.25-13.4l0,.36a22.94,22.94,0,0,0,.68-2.38,24.12,24.12,0,0,0-2.83-16.31L153,313.28c-1.67-2.39-2.39-2.86-2.3-2.5.09.71-2.08-1.61-4-2.69-.27-.17-.59-.28-.88-.45l-.38.34.06-.5a23.6,23.6,0,0,0-15.95-2.7,22.26,22.26,0,0,0-12.39,6.86c-.52.7-1.36,1.49-1.91,2.35a21.18,21.18,0,0,0-4.37,11.54c0,.56-.21,1.91-.23,2.23a4.05,4.05,0,0,1-.47,1.16,25.4,25.4,0,0,0,.34,3.05,8.22,8.22,0,0,1-.33-.94,28,28,0,0,0,5.6,11.82l.46.11a20.73,20.73,0,0,0,3.76,3.33l-1-.58c-.08.21.26.71-.34.45a13.44,13.44,0,0,1-3-2.44c-1.07-1.07-1.39-1.63-1.83-1.85a15.39,15.39,0,0,1-2.28-2.83c-1.63-2.71-1.54-1.65-1.95-1.68-.15,0-.19.2-.31.35.1.18.39,1.06,1.11,2.55a25.8,25.8,0,0,1-2.13-4.11l.3.18c-.25-.67-.59-1.68-.66-2a31.88,31.88,0,0,1-1.76-6.21c-.43-2.35-1,2.83.17,6.76a27.61,27.61,0,0,0,8,13,31,31,0,0,0,5.21,3.84,28.23,28.23,0,0,1-8.05-6.48l-.07.07a31.13,31.13,0,0,0,2.35,2.56c1.68,1.55,3.05,2.54,4.14,3.5a18.48,18.48,0,0,0,5.73,3c3.4,1.27,8.35,1.62,10.93,1.81,1,.1.18.38.19.57a29,29,0,0,0,10-2.28,31.85,31.85,0,0,1-4.39,2.93l2.13-.46a43.37,43.37,0,0,0-4.54,1.5,8.5,8.5,0,0,1-3.87.88,34.38,34.38,0,0,0,5.33-.35c-1.7.48-3.78.89-2.73,1.07.85.2-2.54.76-3.71,1-.47.1.48.28.22.4a3.82,3.82,0,0,1-2,.35c-3-.18-4.63.19-9.17-1.59l-2.13-.8A32.9,32.9,0,0,1,102.93,344.14Zm5.07,3a8.9,8.9,0,0,0,1.33,2,30.71,30.71,0,0,0,6.12,5.21,35.07,35.07,0,0,0,4.21,2.26,27.13,27.13,0,0,0,2.63,1.15h.39a32.32,32.32,0,0,1-14.06-10Zm114.76-78.32a8.89,8.89,0,0,0,2.15,1,30.68,30.68,0,0,0,7.92,1.36,35,35,0,0,0,4.77-.2,27,27,0,0,0,2.85-.34l.33-.21A32.32,32.32,0,0,1,223.6,269Zm140.39,31.84-.13-.26-.08.05Zm-2.47,33.93a8.91,8.91,0,0,0,1.61-1.75,30.68,30.68,0,0,0,3.66-7.15,35,35,0,0,0,1.23-4.61,27,27,0,0,0,.52-2.82l-.1-.38a32.32,32.32,0,0,1-6.46,16Zm-42.87-1a19.52,19.52,0,0,0,8.41,5.11,25.77,25.77,0,0,1-3.69-1.71l-.07-.07a27.88,27.88,0,0,0,2.76,1.25,51.44,51.44,0,0,1-7.42-4.58ZM445,206.68a8.93,8.93,0,0,0,2.33-.46,30.73,30.73,0,0,0,7.18-3.6,35.08,35.08,0,0,0,3.72-3,27,27,0,0,0,2.09-2l.14-.36a32.33,32.33,0,0,1-14.65,9.06Zm-30.67-17.81c-.13-.21-.22-.41-.34-.62l0,.12c.11.18.22.36.35.54Zm-.06-.24c-.11-.2-.15-.31-.24-.49l0,0C414.11,188.37,414.14,188.44,414.27,188.64ZM411,180.57a19.41,19.41,0,0,0,2.86,7.68l.08-.08c-.39-.68-.83-1.39-1.14-2.06V186c.27.45.54,1.07,1.18,2.12l0,0c-.72-1.42-1.12-2.42-1.36-3A31.57,31.57,0,0,1,411,180.57ZM385.37,244c.06,0,.12,0,.14,0q4.8-6.45,9.58-12.92c1-1.32,1.89-2.7,2.85-4,1.9-2.65,2.61-3.3,3-2.5,1-1.55,1.68-2.76,2.45-4,.52-.83,1.06-1.69,1.64-2.52,2.72-3.85,4.93-7.42,7-11,.71-1.21,1.85-2.7,2.8-4.07l.08-.12c-.84-.65-1.68-1.29-2.46-2a25.23,25.23,0,0,1-2.69,4.39c-1.42,1.92-2.83,3.87-4.2,5.81a4.51,4.51,0,0,0-.57,1.31,35,35,0,0,1-4.29,7.22,8.49,8.49,0,0,1-.93,1.05c-1.41,1.1-1.4,1.08-2.52,3.36,1.17-.79,2.32-1.62,3.35-2.25.39-.24.51,0,.76,0-1,1.32-1.9,2.64-2.87,3.94-.33.45-.78.79-1.08,1.22q-5.84,8.22-11.65,16.45C385.64,243.5,385.51,243.74,385.37,244Zm-7.06,10,1.84-2.61.08,0-1.27,2c1-1.25,1.64-1.93,1.93-2.4.71-1.16,1.27-2.23,1.88-3.33A27.87,27.87,0,0,0,378.31,254Zm-29.76,24.11,0,.31,6.73-8.71.19-.54a5.6,5.6,0,0,0-1.18,1c-1,1.31-2,2.72-2.93,4.1-.58.82-1.11,1.66-1.7,2.47C349.34,277.15,348.93,277.6,348.55,278.06Zm-36.19,21.51c-.17.32-.32.57-.55,1,.26-.29.53-.55.79-.82Zm1.4,1-.22-.16c-.32.5-.67,1-1,1.51a20.61,20.61,0,0,0-1,1.81,26.13,26.13,0,0,0,1.91,24.77l.61.85c0-.05,0-.09,0-.13a25.86,25.86,0,0,1-4-19.52,26.7,26.7,0,0,1,1.85-6A18.41,18.41,0,0,1,313.77,300.57Zm6.72-6.65a12.8,12.8,0,0,1-1.7-1h0a20.32,20.32,0,0,0-2.15,1.88c-.49.47-1.12,1.06-1.4,1.27l-.88.8.78.54c.13-.11.27-.25.4-.34.44-.35.48-.15.7-.19-.24.27-.44.56-.67.83l.63.44a26.69,26.69,0,0,1,2.38-2.68C319.16,294.92,319.83,294.43,320.48,293.92Zm2.47-1.62.12-.07-.22-.06Zm20.43-2.69,0-.71-.53.59C343,289.54,343.22,289.55,343.38,289.61Zm-21.26,1c.19.14.4.28.54.41a10.58,10.58,0,0,1,.91,1,27.63,27.63,0,0,1,13.58-3.45,24.34,24.34,0,0,1,5.62,1,6.49,6.49,0,0,0,.89-1.9,45.38,45.38,0,0,0-6.22-1,27.3,27.3,0,0,0-9.78,1,7,7,0,0,0-1.76.78A33,33,0,0,0,322.12,290.57Zm-37.29-15.25q4.28,3.31,8.56,6.61c.88.67,1.81,1.28,2.7,1.94,1.77,1.3,2.16,1.83,1.46,2.28,1.06.62,1.89,1.09,2.73,1.59.56.34,1.15.69,1.71,1.09a66.17,66.17,0,0,0,6.17,3.89,27,27,0,0,1,2.06-2.3c-.93-.71-1.87-1.41-2.81-2.09a2.23,2.23,0,0,0-.94-.31,16.19,16.19,0,0,1-5-2.75,3.94,3.94,0,0,1-.67-.67c-.63-1.09-.61-1.08-2.22-1.75.43.92.89,1.82,1.21,2.64.12.31-.06.45-.1.66-.88-.65-1.76-1.3-2.62-2-.3-.23-.49-.58-.78-.78q-5.49-4-11-7.93a5.26,5.26,0,0,0-.48-.28S284.81,275.31,284.82,275.32Zm-6.65-4.92,1.74,1.25v.07l-1.38-.83a17.35,17.35,0,0,0,1.57,1.36c.79.46,1.54.8,2.31,1.19A12.68,12.68,0,0,0,278.17,270.4Zm-15.7-15.94c.09-.22.19-.38.28-.62l-.37.56Zm3.82,2.42c-.43-.36-.85-.73-1.3-1.06a6.66,6.66,0,0,1-1.83-1.77l-.38.63,3.41,2.32Zm.47-7.37-1.22-.84-.07.22,4.2,3.44.39.09a2.85,2.85,0,0,0-.56-.91C268.63,250.82,267.68,250.16,266.76,249.51Zm-52.89-26.74s.09,0,.12,0a25.86,25.86,0,0,1,17.45-9.63,26.72,26.72,0,0,1,6.27,0c4.12.62,5.14,1.43,4.49,1.67a25.3,25.3,0,0,1,5.38,2.2,21.64,21.64,0,0,1,3.12,2.12,27.47,27.47,0,0,1,9,13.55,23.53,23.53,0,0,1,.8,6.28,25.66,25.66,0,0,1-.38,4.15,14.41,14.41,0,0,0,1.51.11c.26,0,.08-.43.28-.53a1,1,0,0,1,1-.05,4.16,4.16,0,0,0,.81.38c0-1.44-.31-2.34-.55-1.73-.75,1.54-.26-3.1-1.59-8.89a27.3,27.3,0,0,0-3.91-9,7,7,0,0,0-1.27-1.45,39.69,39.69,0,0,0-8.84-7c-.59-.33-1.35-.76-1.63-1-2-1.18-2-1.29-5.33-1.91a25.54,25.54,0,0,1,4.47,2.49c.47.31.28.41.39.61a27.14,27.14,0,0,0-5.92-2c-.71-.12-1.37-.41-2-.45a26.14,26.14,0,0,0-23.08,9.2Zm-1.38,33.14.78-.73c-.63-.64-1.25-1.28-1.72-1.82C210.53,252.18,211.12,253.84,212.5,255.91Zm-4-18.74a25.74,25.74,0,0,1,.53-4l0-.09a27.88,27.88,0,0,0-.37,3,31.92,31.92,0,0,1,.79-3.81,31.51,31.51,0,0,1,1.37-4.63A19.51,19.51,0,0,0,208.53,237.17ZM183.69,281.6s.1.06.12,0q4.39-3.73,8.77-7.47c.89-.77,1.74-1.6,2.62-2.39,1.75-1.56,2.38-1.85,2.66-1.07.88-1,1.56-1.72,2.27-2.48.48-.51,1-1,1.52-1.53a76.87,76.87,0,0,0,5.88-6q-1-1.17-1.81-2.41c-1.09.94-2.19,1.9-3.25,2.87a2.49,2.49,0,0,0-.55.89,18.29,18.29,0,0,1-4,4.53,4.46,4.46,0,0,1-.84.56c-1.25.44-1.24.42-2.31,1.93,1-.27,2.05-.57,3-.75.35-.07.44.14.64.22-.87.77-1.74,1.55-2.63,2.3-.31.26-.7.4-1,.64q-5.36,4.84-10.69,9.7C183.94,281.3,183.82,281.46,183.69,281.6Zm-6.48,5.89L178.9,286H179l-1.18,1.24a19.7,19.7,0,0,0,1.76-1.34c.66-.72,1.18-1.41,1.76-2.12A14.36,14.36,0,0,0,177.21,287.49Zm-26.43,10,.19.12,5.93-4.78.19-.38a3.14,3.14,0,0,0-1.05.41c-.91.75-1.8,1.59-2.69,2.41-.53.49-1,1-1.56,1.47C151.48,297,151.12,297.23,150.78,297.48Zm-27,5.51s.08,0,.12,0a25.86,25.86,0,0,1,19.92.6,19.94,19.94,0,0,1,1.81.93,3.29,3.29,0,0,0,.2-.3,26.06,26.06,0,0,0-21.09-1.66Zm-11.94,9.67a25.73,25.73,0,0,1,2.51-3.2l.09,0a28.08,28.08,0,0,0-1.85,2.39,32.12,32.12,0,0,1,2.62-2.88,31.64,31.64,0,0,1,3.54-3.29A19.51,19.51,0,0,0,111.87,312.66Zm7,8a16.12,16.12,0,0,1,3.27-5.32,4.42,4.42,0,0,0,.52-.66c.88-1.23-2.57.26-4.49,3.66a18,18,0,0,0-2.29,12.06c.31,1.72.69,2.6,1,2.87a8.67,8.67,0,0,0,2.26,1.44c.11.05,0-.54-.17-1a20.88,20.88,0,0,1-1.25-7.77c.26-2,.22-2.33-.23-1.39-.12.29-.22,0-.32,0a11.18,11.18,0,0,1,.51-2.1A9.11,9.11,0,0,1,118.91,320.62Zm20.63-12.31a10.88,10.88,0,0,1,2.74,1,25.77,25.77,0,0,1,7.06,6.1c-.19-.64-.34-1.3-.54-1.82l-.55-1.69a27.77,27.77,0,0,0-5.23-3.72,16.58,16.58,0,0,0-7.06-2,21.17,21.17,0,0,0-11,1.93,12.17,12.17,0,0,0-1,1c-.12.14.12.16.48.07a10.91,10.91,0,0,1,3.39-.64c.63.33,3.37-.54,5.35-.39a18.68,18.68,0,0,0,3.28,0A9.24,9.24,0,0,1,139.54,308.31Zm-6.19,36.08a11.13,11.13,0,0,0,1.84-.23c2.68-.88,1.22-1.16-1.91-1.32a18.15,18.15,0,0,1-9.59-3.62,23.23,23.23,0,0,1-2-1.92,1.92,1.92,0,0,1-.3-.15,16.24,16.24,0,0,0,6.83,6,2.79,2.79,0,0,0,.58.11,3.49,3.49,0,0,1-.65.12A18,18,0,0,0,133.36,344.39Zm85.5-111c.13-1.51-2.08,1.53-2,5.43A18,18,0,0,0,221,250.33c1.14,1.32,1.92,1.88,2.36,1.94a8.67,8.67,0,0,0,2.68.09c.12,0-.28-.46-.66-.78a20.89,20.89,0,0,1-5-6c-.81-1.87-1-2.11-.9-1.08,0,.31-.18.13-.28.17a11.19,11.19,0,0,1-.63-2.06,9.13,9.13,0,0,1,.08-2.12,16.12,16.12,0,0,1,.11-6.25A4.43,4.43,0,0,0,218.86,233.36Zm11.26-14a10.91,10.91,0,0,1,2.89-.5,25.76,25.76,0,0,1,9.18,1.65c-.49-.45-1-1-1.4-1.29L239.46,218a27.76,27.76,0,0,0-6.4-.54,16.57,16.57,0,0,0-7.09,1.89,21.17,21.17,0,0,0-8.48,7.27,12.12,12.12,0,0,0-.38,1.36c0,.18.18.08.44-.18a10.92,10.92,0,0,1,2.59-2.27c.71,0,2.62-2.18,4.4-3.06a18.64,18.64,0,0,0,2.83-1.66A9.23,9.23,0,0,1,230.12,219.34Zm13,34.2a11.1,11.1,0,0,0,1.46-1.14c1.85-2.12.46-1.62-2.31-.16a18.14,18.14,0,0,1-10.1,1.77,23.13,23.13,0,0,1-2.69-.64,2,2,0,0,1-.33,0,16.24,16.24,0,0,0,9,1.71,2.81,2.81,0,0,0,.55-.2,3.63,3.63,0,0,1-.5.44A17.93,17.93,0,0,0,243.17,253.53Zm91.18,77.24a9.14,9.14,0,0,1-2-.7,16.12,16.12,0,0,1-5.93-2,4.5,4.5,0,0,0-.76-.36c-1.4-.57.84,2.44,4.59,3.53a18,18,0,0,0,12.26-.54c1.6-.69,2.37-1.27,2.55-1.68a8.68,8.68,0,0,0,.88-2.53c0-.12-.52.13-.94.4a20.87,20.87,0,0,1-7.27,3c-2,.22-2.31.32-1.3.54.31.05.07.21.08.31A11.26,11.26,0,0,1,334.35,330.78Zm-14-29.13c-.58.33-1.19.63-1.65.95l-1.52.92a27.74,27.74,0,0,0-2.42,5.95,16.57,16.57,0,0,0-.31,7.33,21.17,21.17,0,0,0,4.41,10.26,12.22,12.22,0,0,0,1.19.77c.17.08.13-.15,0-.48a10.94,10.94,0,0,1-1.4-3.15c.18-.69-1.3-3.15-1.61-5.11a18.66,18.66,0,0,0-.74-3.19,9.24,9.24,0,0,1-.61-3.07,10.88,10.88,0,0,1,.39-2.9A25.76,25.76,0,0,1,320.33,301.65Zm31.84,8.9a11.05,11.05,0,0,0-.65-1.73c-1.47-2.4-1.41-.92-.84,2.16a18.15,18.15,0,0,1-1.31,10.17,23.33,23.33,0,0,1-1.42,2.37,2,2,0,0,1-.08.33,16.24,16.24,0,0,0,4.3-8,2.8,2.8,0,0,0,0-.59,3.59,3.59,0,0,1,.27.6A17.94,17.94,0,0,0,352.16,310.55ZM453.72,197.78a32.65,32.65,0,0,1-2.77,1.83A28,28,0,0,0,453.72,197.78Zm-21.1-5c1.7.39,2.66.38,3,.16a8.7,8.7,0,0,0,2.21-1.52c.09-.09-.5-.2-1-.24a20.89,20.89,0,0,1-7.64-1.88c-1.76-1-2.06-1.11-1.37-.33.22.22-.07.21-.12.3A11.2,11.2,0,0,1,426,188a9.1,9.1,0,0,1-1.19-1.75,16.11,16.11,0,0,1-3.62-5.09,4.52,4.52,0,0,0-.4-.74c-.79-1.29-.77,2.47,1.61,5.56A18,18,0,0,0,432.63,192.83Zm-9.05-32.46a25.78,25.78,0,0,1,8.37-4.12c-.66-.07-1.33-.2-1.89-.21l-1.77-.16a27.7,27.7,0,0,0-5.47,3.37,16.56,16.56,0,0,0-4.58,5.73,21.17,21.17,0,0,0-2.51,10.89,12.12,12.12,0,0,0,.5,1.32c.09.16.19,0,.25-.41a10.92,10.92,0,0,1,.73-3.37c.55-.45.81-3.31,1.73-5.07a18.71,18.71,0,0,0,1.29-3,9.23,9.23,0,0,1,1.32-2.84A10.87,10.87,0,0,1,423.58,160.37Zm28.77,21.89a11.14,11.14,0,0,0,.5-1.78c.23-2.81-.6-1.58-2,1.24a18.15,18.15,0,0,1-7.07,7.42,23.35,23.35,0,0,1-2.55,1.08,2,2,0,0,1-.25.22,16.25,16.25,0,0,0,8.22-3.94,2.79,2.79,0,0,0,.32-.49,3.61,3.61,0,0,1-.14.65A18,18,0,0,0,452.35,182.26Z"/></svg>