<svg id="Layer_1" data-name="Layer 1" xmlns="http://www.w3.org/2000/svg" viewBox="0 0 512 512"><defs><style>.cls-1{fill:#707070;}</style></defs><title>currency-exchange-handdrawn</title><path class="cls-1" d="M264,54.2a11,11,0,0,1,1.59-.09c4,0,8,.16,12.2.47l3.9,1.16c.78.21,2.68.44,4.07.67,0-.16.53-.27,0-.48-1.89-.67-1.31-.89,2.74-.1a88.58,88.58,0,0,1,15.54,3.78c.92.37,2,.89,1.73.95-1.33.35-2.91.67-4.59,1-.73.16-2.31-.26-5.27-1a152.49,152.49,0,0,0-21.6-3.92C267.74,56,261.4,54.81,264,54.2Zm89.46,95.25c2.29-1,6.5-2.07,13.08-3.77,3.22-.76,6.85-1.11,10.28-1.69,26.1-3,53.41,2.87,75.37,17.56,3.21,2,6.16,4.34,9.25,6.51a113.62,113.62,0,0,1,39.34,64.24c-1.14-2.57.37,4.37,1.23,15.08-.46,2.68-.91,4.36-1.27,7.43-.25,2.1-.55,1-.91-3.32A118,118,0,0,0,496.54,229a108.33,108.33,0,0,0-17.46-37.63c-5-7.48-12.46-14.48-18-19.56a114.74,114.74,0,0,0-28.82-18,106.42,106.42,0,0,0-35.46-8.18,121.26,121.26,0,0,0-16.34,0c-3.92.28-7.75,1-11.86,1.51-4,1-8.35,1.79-13.06,3.31,1.2,0,.61.43-2.34,1.66l-6.26,2.51c-2.61,1.33-5.94,2.79-9.83,4.88-3.77,2.41-7.82,4.4-11.29,7.24l-5.38,4-5,4.49a109.65,109.65,0,0,0-34.93,77.25,1.4,1.4,0,0,0,.09.44l.29-4.41C283,212.1,305,178,336.71,160.33c2.35-1.51,5-2.69,7.71-4.08,3.85-2.09,8.11-3.25,12.19-4.85,4.18-1.29,8.47-2.35,12.74-3.29a7.77,7.77,0,0,1-2.36,1.1l-9.23,3.11-9.63,4.29c12.58-4.38,12.51-3.92,21.25-6.62l7.32-1.25c3.37-.74,7.5-.55,11.8-.86,4.31-.15,8.83.42,13.11.63,4.22.77,8.25,1.33,11.53,2.13l7.33,2.21c1.69.43,4.31,1.71,6.87,2.63a109.1,109.1,0,0,1,32.42,18.9c17.42,14.89,24.13,31.31,20.66,26.36-1.26-1.59-.39.64,1.52,4.41,1.57,3.95,4.31,9.44,6,14.83a78.74,78.74,0,0,1,4.83,20.71c.46,4,.35,5.46.09,6.15-.16.51-.51-2.09-.53.23,0,5.07-.22,6.19-.51,4.72s-.38-5.55-1.57-10.78l.47,4.66c0,1.48,0,2.9,0,4.31-.16-5.07-1.36-9.59-2.28-15.06L486,225.62l-2.81-7.56C477,204,465.91,188.15,451.81,177.41a99.16,99.16,0,0,0-31.1-16.74c.53.59,3.83,2.23,3.14,2.32-.72.28-5.15-2.17-21.26-4.44l3,1.29c-11.28-1.64-23.6-1.27-30.79.51a111.72,111.72,0,0,0-29.32,10c-4.46,2.35-6,3.07-9,4.49l.72-.65c-8.08,5.33-17,13.76-21,19a116,116,0,0,0-14.74,24.79,109.53,109.53,0,0,0-7.58,30.83,70.93,70.93,0,0,0-.19,11.67c0,5.12,1,10.13,1.78,15.17,1.29,4.93,2.42,9.9,4.39,14.61a97,97,0,0,0,15,26.38c11.1,13.58,25.47,24.55,42.1,30.47,13.91,5.22,30.17,7.17,44,5.33A101.55,101.55,0,0,0,458.5,325c1.41-1.3,3.52-3.81,4.3-4.67,8.29-10.59,10.78-13.81,14.81-21.37a20.07,20.07,0,0,1,3-4.8c.5-.59-.51,2,.24.81,1.69-2.89,5.53-12.4,5-10-.35,3.19,1.45-3,3.11-8.23a111.24,111.24,0,0,1-4.54,16c3.26-8,3.65-9.65,4.54-11.68.42-1,.86-2.17,1.55-4.35.49-2.22,1.1-5.51,1.9-10.79l-.91,7.12c1.82-5.64,2.63-11,3.68-17.19a102.48,102.48,0,0,1-6.45,35.89c.26.1,1.61-2.56.6.83a43.5,43.5,0,0,1-3,7.94,67,67,0,0,1-4.84,9.32l-2.92,4.78c-1,1.56-2.25,3-3.35,4.51L472,323.46l-3.5,3.8c-3.54,4.2-7.35,7.08-10.18,9.88l-7.54,6a90.32,90.32,0,0,1-17.45,10.12c-4,1.71-8.08,3.2-12.19,4.58l0,.15A107,107,0,0,0,456,340.22l-5,3.84c-1.69,1.23-3.51,2.21-5.24,3.31a82.89,82.89,0,0,1-10.74,5.72,101.28,101.28,0,0,1-28.2,8.4,107.61,107.61,0,0,1-29.27.55c-15.38-1.41-34.07-9-25.71-5.07a73.7,73.7,0,0,0,11.45,4.26,95.21,95.21,0,0,0,13.63,3.2c1.16.38,5.63.57,8.58.69l-1.1-.39c6.5.62,11.71.34,19.17-.19-6.85.86-10.72.86-11.58,1-.37.28-1.13.5-.82.67.91.47-3.81,1.27,10.47,1l9.82-1.21c3.21-.39,5.78-1.21,6.54-1.22a47.51,47.51,0,0,0,11.61-3.28l5-1.79,4.87-2.27c3.12-1.42,5.76-2.63,6.77-3.26,2.68-1.38.5.28.38.74l4.74-2.73L445,356l-5.71,2.79A73.42,73.42,0,0,1,429.14,363l-1.92.3a106.48,106.48,0,0,1-30.64,6.14c-10.22.73-20.75-.31-32.66-3.1,1.56.46,2.52.81,3.41,1.05a109.29,109.29,0,0,1-13.4-3.53,48.4,48.4,0,0,1-5.6-1.23c-1.66-.24-7.92-3.23-10.5-4.48-19.52-10.49-35.26-24.78-46.25-43.27-2.93-4.37-5.17-9.83-7.15-13.86a126.1,126.1,0,0,1-8.42-35.2,114.66,114.66,0,0,1,3-36.73c7.1-29.65,27.09-55.44,51.24-69.77,2.33-1.29,4.77-3,7.39-4.19l7.36-3.39c4.44-1.8,7.5-2.52,6.28-1.8C350.58,150.39,351.17,150.27,353.51,149.46ZM417.07,353l2.68-.51C437,347,453,337.05,465,323.36l-.91.7a54.11,54.11,0,0,1-6.26,6.31c-3.53,3.49-7.68,6.16-11.66,9.11-3.62,2-7,4.56-10.87,6.16l-5.61,2.7-5.77,2.13c-1.32.49-2.45,1-3.52,1.46Zm-134.55-76.1a113.28,113.28,0,0,0,5.43,19.84,36.8,36.8,0,0,0,2.53,5.68,81.19,81.19,0,0,0,5,9.21c-3.88-6.59-4.53-9.22-5.78-11.52l.22.34,3.57,7.46c1.39,2.47,3,5,4.62,7.73-2.07-3.7-4.42-7.24-6-11.05l-2.56-5.47c-.77-1.81-1.34-3.65-2-5.37l-1.83-5-1.25-4.61C283.73,281.29,282.87,278.87,282.52,276.92Zm115.94-41.49c2.89-.73,7.41.27,10,1.33,3.42,1.37,5.69,4.24,9.49,4.72,4.34.55,8.11-1.83,11.44-4.29a3.76,3.76,0,0,0-.38-6.22c-8-15.4-34.65-22.94-49.14-12-6.82,5.16-7.83,14.08-8.13,22-.11,2.93,0,5.85.19,8.77-1.49,0-3,0-4.46,0-4,0-6.06,1.57-6.27,5.75-.17,3.36.31,7.34,3.12,9.55,2.33,1.84,4.74,1.49,7.27,1.35l.65.09c-.79,8.65-4.3,15.54-9.74,22.58a2.62,2.62,0,0,0-.23,3.17c-.42,2,.62,4.25,3.2,4.17,19.81-.62,39.39,1.77,59.3,1.79a3.38,3.38,0,0,0,1.05-.21c1.7.53,3.6-.06,3.94-2.31.72-4.88,2.85-13.77-4-14.93-4.46-.75-10,1-14.6,1.11a103.07,103.07,0,0,1-19.35-1.68,26,26,0,0,0,2.9-4.53,39.6,39.6,0,0,0,.64-4.48,2.28,2.28,0,0,1,1.06-3,11.53,11.53,0,0,1,6.81-.23c4.68.78,14.09,2.56,17.12-2.74,1.31-2.29.15-4-.31-6.25-.56-2.71.11-4.56-2.23-6.59-2.62-2.27-6.26-1.74-9.43-1.46-4.67.4-9.33.86-14,1.3-.05-3.61-.08-7.22.11-10.8C394.73,238.19,394.32,236.48,398.46,235.43Zm62-68.26c.35.28.68.61,1,.89l.24.18Zm-153.25,4c-2.57,2.51-4.94,5.24-6.07,6.34a95.41,95.41,0,0,0-7,8,65.25,65.25,0,0,0-5,6.38c-1.21,1.67-2.63,3.77-4.4,6.58-1.49,3-3.4,6.63-5.46,11.45l-3.4,9.42c-1,3.33-1.79,6.77-2.6,9.9a68.12,68.12,0,0,0-1.73,13.23c.17,1.56-.54,13.83.53,20.38.22,2.12.44,3.26.51,2.27.14-2.14.2-5.95.25-7.71.21-11.25,1.26-22.16,4.36-32.25,1.13-5.15,3.37-9.87,5.06-14.69,2.33-4.54,4.19-9.27,7-13.43,6.89-11.38,13.85-20,26.17-30.75A122.91,122.91,0,0,1,345.54,148l8.06-4.13c2.7-1.42,6.14-2.39,9.68-3.76-15.75,3.63-34.84,11.71-49.68,25.19ZM219.81,64.69c2.66-.55,6-1.31,8.89-1.61,4.16-.45,6.89-1.08,10.27-1.49,5.06-.71,10.37-1,16.13-1.24a17.89,17.89,0,0,0,2-.61c.25-.11,0-.29-.58-.4-1.67-.4-4.79-.6-5.19-1-.82-.74-5.4-.34-8.52-.27a15.38,15.38,0,0,0-5.17.81A47.56,47.56,0,0,1,233,60.4c-.78.2-3.62.63-4.39.7-5.1.22-10.05,1.64-14.07,2.56l2.8.43C218.22,64.26,219,64.46,219.81,64.69Zm109.25,5.74-1.17,0c3.08,1.45,5.78,2.91,8.55,4.34.93.49,2.28,1.12,3,1.42,4.72,1.86,3.31-.11-2.13-3.5-5.81-3.54-12.6-6.25-19.14-8.8-1.72-.7-3.54-1.3-5.34-1.9l-.65,0A172.71,172.71,0,0,1,328,70.07ZM174.47,61.36c.78-2,1.61-4,2.45-6,.35-.83.48-1.3.38-1.55a12.28,12.28,0,0,0-.78-1.6c0-.08-.27.19-.43.43a23.89,23.89,0,0,0-1.77,4.29c-.43,1.12-.38,1.3.05.86.13-.13.18,0,.27.07A9.64,9.64,0,0,1,174.2,59a9.33,9.33,0,0,1-.76,1c-.32,1.19-.62,2.33-.92,3.46a1.67,1.67,0,0,0-.07.47C172.57,64.74,173.77,63.18,174.47,61.36Zm5.3-15.47.06-.32L180,46c.41-.91.79-1.73,1.15-2.58a4.41,4.41,0,0,0,.26-1c.2-1.51-.61-1.12-1.53.5a55.45,55.45,0,0,0-2.41,5.62c-.21.49-.4,1-.6,1.53l0,.21Zm-8.18,32.05c.29-.77.6-1.78,1-2.57a18.29,18.29,0,0,0,1-3c.45-1.49,1-3,1.49-4.69a3.87,3.87,0,0,0-.14-.69c0-.1-.16,0-.28.08-.37.4-.87,1.21-1.11,1.24-.48.07-.86,1.4-1.26,2.24a2.53,2.53,0,0,0-.35,1.53,6,6,0,0,1,0,1.53,5.31,5.31,0,0,1-.42,1.27,21.67,21.67,0,0,0-1.63,4c.31-.19.59-.37.86-.52S171.3,78.08,171.59,77.94ZM340.42,402.71a61.68,61.68,0,0,0-6.19-2.5c-.55-.22-1.12-.41-1.68-.62l-.23,0,4.89,3,.35.06-.42.15c1,.43,1.91.82,2.84,1.2a4.91,4.91,0,0,0,1,.27C342.67,404.54,342.22,403.68,340.42,402.71ZM337.6,431.6c-.31.83-.64,1.9-1,2.75a19.51,19.51,0,0,0-1.07,3.2c-.48,1.59-1,3.23-1.59,5a4.13,4.13,0,0,0,.15.74c0,.1.17.05.3-.09.39-.43.93-1.29,1.18-1.33.52-.08.91-1.49,1.35-2.39a2.7,2.7,0,0,0,.38-1.64,6.37,6.37,0,0,1,0-1.63,5.68,5.68,0,0,1,.45-1.36,23.12,23.12,0,0,0,1.74-4.25c-.33.2-.63.4-.92.55S337.91,431.45,337.6,431.6Zm3.81-16.81-2,5.34c.94-.39,1.3-.35,1,.22a16.15,16.15,0,0,0-.82,2.38c-.74.45-1.34.85-1.86,1.22l-1.65,4.24c-.11.28-.21.58-.32.84-.48,1.07-.59,1.38-.34,1.34.46-.08,0,1.15-.2,2-.61,2.33-1.42,4.79-2.2,7.24-.62,2-1.43,4-1.95,5.89-.1.37-.29.82-.45,1.24-.64,1.69-1.5,3.21-2,5a2.92,2.92,0,0,1-.5.84,1.64,1.64,0,0,1-.63.27l-.54,1.17c0-.12,0-.22,0-.44-.34,1-.6,1.85-.92,2.66s-.72,1.57-1.12,2.44l.16.24-.8,1.95.09-.46c-.2,0-.46.1-.49-.19a6.14,6.14,0,0,1,.39-1.53c.2-.57.3-.81.2-1a6.62,6.62,0,0,1,.21-1.46c.2-1.25-.28-1-.56-1.19-.1-.07-.23,0-.4-.08l-.51.91.41-1.67.16.17a6.21,6.21,0,0,0,.27-.71,22.58,22.58,0,0,0,.16-2.44c0-.9-1.09.62-1.63,1.91-.68,1.62-1.31,3.31-2,5-.27.68-.53,1.37-.88,2.07l1.16-3.39-.09,0c-.16.36-.33.72-.47,1.09a5.22,5.22,0,0,1-.86,1.65,6.47,6.47,0,0,0-.94,2c-.4,1.14-.84,2.77-1.51,3.44-.25.25-.36-.08-.52-.15l-1.23,3.17-.66-2-.33.6c.61-1.93-.29-1.21.12-2.83l-.77,1.42c0-.56.12-1.19-.26-1s-.21-.9-.35-1.31c-.05-.16-.28,0-.36-.07a.69.69,0,0,1-.18-.67c.25-.82,0-1.36.76-2.5a3.07,3.07,0,0,0,.24-.59,42.38,42.38,0,0,1,2.41-6c.6-1.26,1.17-2.74,1.69-4.14.62-1.65,1.14-3.31,1.76-5,.71-1.9,1.49-3.8,2.23-5.7A9.52,9.52,0,0,0,322,437a19.79,19.79,0,0,1,2.16-5.25c-1.86.86-3.71,1.74-5.6,2.53l.36-.25L316,435a165.86,165.86,0,0,1-19.47,6.22c-.87.24-1.78.49-2.62.65-3.45.69-4.42.93-4,1.18.84.5-3,1.3-5.69,2a144.11,144.11,0,0,1-22.65,3.3c-6.23.43-12.87.31-18.86.24-1.16,0-2.66-.19-4-.3-5.51-.48-10.67-1.57-16.31-2.45a16.38,16.38,0,0,1-2.84-.8,4.46,4.46,0,0,1-1.27-1.07l-3.77-1,1.26,0c-3.1-.62-5.73-1.26-8.27-2s-4.95-1.62-7.64-2.68l-.59.2c-1.71-.57-3.41-1.24-6-2.23l1.36.38c0-.34-.52-.86.28-.78.64.06,2.9.82,4.53,1.31s2.47.82,3.06.72c.42,0,2.77.48,4.26.76,3.66.67,2.65-.27,3-.68.13-.16,0-.39,0-.66L207,436.29c1.91.45,3.24.73,4.92,1l-.37.24c.75.2,1.87.54,2.18.57,2.43.26,5.1.43,6.95.44,2.47-.07-2.53-1.79-6.42-2.86-4.95-1.3-9.94-2.87-14.83-4.58-2-.77-4-1.46-6-2.43,3.24,1.22,6.51,2.36,9.82,3.37l0-.14L200,430.77a26.94,26.94,0,0,1-4.88-2.18,37.94,37.94,0,0,0-5.72-2.67c-3.22-1.35-7.69-3.21-9.62-4.9-.72-.64.13-.58.26-.83-2.53-1.32-5-2.68-8.49-4.76l5.09.51-1.59-1.09c5.05,2.68,3.06.42,7.28,2.37l-3.8-2.41c1.44.45,3.07,1.08,2.54.27-.41-.64,2.23.29,3.25.29.41,0-.16-.51.1-.59a2.08,2.08,0,0,1,1.67.11c2.14,1,3.42.79,6.56,2.76a10.29,10.29,0,0,0,1.58.72c5.61,2.15,11,4.14,16.6,6.1a96.67,96.67,0,0,0,11.77,3.15c4.72.91,9.42,1.59,14.2,2.05a162.46,162.46,0,0,0,16.64,1.05,26.17,26.17,0,0,0,3.19-.08c5.39-.44,12.3-.8,16.62-.81a70.27,70.27,0,0,0,7.71-.74l-.29-.15a10.92,10.92,0,0,1,2.56-1.18,68.74,68.74,0,0,1,8.35-1.6,83.75,83.75,0,0,0,8.23-1.86l-.58,1c8.46-2.52,5.33-.69,5.22.16,3.23-1.14,6.08-2.39,8.92-3.51,4.46-1.72,9-4,12.92-5.43h0c-.62-.25-1.26-.43-1.88-.71-1.3-.59-2.83-1.14-4.27-1.65-1.7-.6-3.41-1.1-5.11-1.7-2-.69-3.91-1.44-5.87-2.16A9.92,9.92,0,0,0,308,410a20.38,20.38,0,0,1-5.8-2.32,28.16,28.16,0,0,0-2.64-1.21l.05.15a2.47,2.47,0,0,1-1.11.06,10.91,10.91,0,0,1-3-1.21c-.66-.4-1.82-.85-2.88-1.33l.48-.38c-3.06-1.21-1.62-1.27-1.34-1.66-1.2-.39-2.31-.7-3.37-1.09a29,29,0,0,1-4.76-2c-.3-.18-1.14-.4-1.64-.63s-.9-.49-1.34-.73l.93,0c-.92-.56-1.33-1-.29-1,.24,0,.05-.23.13-.32.22-.24.75-.4,2.72.24,1,.33,2.44.12,2.2-.31-.35-.64,1.29-.51,3.26.24,1.09.41,2.2.81,3.3,1.19a1.82,1.82,0,0,0,.71.05,13.63,13.63,0,0,1,4,.95,3.27,3.27,0,0,1,.61.31c.68.57.67.57,1.91.74-.51-.5-1-1-1.45-1.44-.16-.17-.07-.28-.09-.42.75.27,1.5.53,2.24.82.25.1.47.28.71.36l9.3,3.23c.13,0,.26.07.39.1s0-.07,0-.08l-7.35-2.78c-.75-.28-1.52-.52-2.28-.79-1.5-.53-1.89-.8-1.53-1.19l-2.22-.57c-.46-.12-.94-.25-1.41-.41a60.37,60.37,0,0,0-6.15-1.74c-.67-.16-1.52-.49-2.29-.75-1.2-.4-2.41-.82-3.6-1.19-1.89-.59-2.56-1-2-1.31a8.22,8.22,0,0,0,1-.75c.91.3,1.55.35,1.44,0l6.51,2.23h-.16a8.84,8.84,0,0,0,.92.46l6.54,2.4c.29.11.59.2.86.31,1.1.47,1.43.57,1.38.32-.09-.46,1.18,0,2.08.18,2.4.58,4.92,1.37,7.45,2.12,2,.6,4.1,1.38,6.06,1.88.38.09.85.29,1.27.44,1.74.62,3.32,1.46,5.17,2a3.06,3.06,0,0,1,.87.49,1.67,1.67,0,0,1,.29.63l1.21.52h-.45c1,.33,1.9.57,2.74.89s1.62.7,2.52,1.09l.24-.17,2,.78-.47-.09c0,.2.12.46-.18.49a6.41,6.41,0,0,1-1.57-.37c-.59-.2-.84-.3-1.07-.19a6.86,6.86,0,0,1-1.49-.19c-1.28-.18-1,.29-1.2.57-.07.1,0,.23-.07.4l.94.5-1.71-.39.17-.16a6.23,6.23,0,0,0-.74-.27,23.27,23.27,0,0,0-2.5-.13c-.91,0,.66,1.09,2,1.61,1.68.67,3.41,1.28,5.13,1.91.7.26,1.41.52,2.13.85l-3.49-1.12,0,.09c.38.15.75.32,1.13.46a5.45,5.45,0,0,1,1.7.85,6.79,6.79,0,0,0,2,.92l.11,0,.31-.15c.14-.36.28-.76.43-1.07.23-.49.5-.87.75-1.29l0,.91c.57-.88,1-1.28,1-.26,0,.23.22.05.31.14s.38.74-.25,2.59a3.54,3.54,0,0,1,.94.56c.26.25-.07.36-.13.53l2.31.84c.18-.51.37-1,.54-1.53.61-1.84,1-2.48,1.33-2a8.23,8.23,0,0,0,.74,1C341.07,414.26,341,414.89,341.4,414.79ZM317,404.3l-1.47-.51,0,0,1.13.31a14.93,14.93,0,0,0-1.38-.6c-.65-.16-1.23-.26-1.84-.38A10.76,10.76,0,0,0,317,404.3ZM205.67,426.75a9.77,9.77,0,0,0-1.75-1l-6.31-2.25-3.72-1.44c-.73-.31-1.46-.65-2.17-1l-.36.06c4.44,2,8.94,4,13.57,5.56Zm43.5,16.89a79.28,79.28,0,0,0-10.95-.61l4.5.35.1.06-3.37-.13c2.25.27,3.54.52,4.33.49Zm68.39,11.86c0-.09,0-.19,0-.28a2.2,2.2,0,0,0-.48.57c-.31.73-.57,1.5-.85,2.25-.16.45-.3.9-.47,1.35-.1.27-.24.52-.37.78l.08.15Zm9.16-41.35a2.29,2.29,0,0,0,.6.47c.51.2,1,.38,1.58.56l.28-.15-2.17-.89Zm2.06,28.28a10.3,10.3,0,0,0-1.27,3.48l.53-1.43,0,0-.32,1.1a14.22,14.22,0,0,0,.62-1.34C328.54,443.59,328.64,443,328.77,442.43ZM330,421.35c.37-1.08.68-2.06,1-3l-.12,0c-.6.37-1.26.75-2.06,1.2-2.62,1.43-5.33,3.93-4.16,3.93,1.72,0-2,2.65-7.53,4.9-3.05,1.27-6.19,2.43-9.29,3.54a8.55,8.55,0,0,0-1.74.91c-1.42,1-7.43,3.22-11,4a11.53,11.53,0,0,1-1.92.34c-2.45,0-2.39.09-5.73,1.2l5.48.18c.62,0,.54.27.78.42-2.24.49-4.46,1.09-6.71,1.46-.78.14-1.55.13-2.27.28a167,167,0,0,1-28.22,3l-1.15.08s.06.11.11.11a164.5,164.5,0,0,0,22.66-1.49c2.29-.37,4.6-.72,6.89-1.2,4.53-.86,5.85-1,5.43-.14,2.49-.71,4.41-1.24,6.36-1.89L301,437.8A106.8,106.8,0,0,0,318.13,431l6.32-2.9c.35-.17.68-.37,1-.54a10.17,10.17,0,0,1,1.14-2.63c.41-.64.87-1.76,1.36-2.79l.37.48C329.61,419.65,329.65,421.06,330,421.35Zm5.48,4.67c-.71.4-1.43.75-2.14,1.13v0a3.19,3.19,0,0,1-.32.59c-.58.66-.58.64-.76,1.86.51-.49,1-1,1.46-1.38.18-.15.28-.06.42-.08-.28.72-.55,1.45-.84,2.17-.1.25-.29.45-.37.68q-1.68,4.51-3.33,9c0,.13-.07.26-.1.38s.07,0,.08,0q1.44-3.56,2.87-7.13c.29-.73.54-1.48.81-2.22.55-1.46.82-1.83,1.2-1.47.23-.84.4-1.49.6-2.16.13-.45.26-.92.43-1.37Zm2.78-8.77c-1.48-.43-1.43,0-2,0,0,.09,0,.2-.06.3l.72.37a7.41,7.41,0,0,0-.78,0,11.57,11.57,0,0,1-.48,1.46c-.43,1.06-.84,2.13-1.23,3.2a1,1,0,0,0,0,.28c1-.57,1.82-1.06,2.55-1.47.12-.43.25-.87.35-1.3.16-.65.51-1.48.78-2.23Zm.21-.59-.8.27.6.31Zm-4,32.64c-.83,2.15-1.72,4.3-2.62,6.41-.38.88-.52,1.38-.41,1.65a13.13,13.13,0,0,0,.83,1.71c.05.08.29-.2.46-.46a25.47,25.47,0,0,0,1.89-4.58c.46-1.19.4-1.39-.06-.91-.14.14-.2,0-.29-.07a10.36,10.36,0,0,1,.48-1.19,10,10,0,0,1,.82-1c.34-1.27.66-2.49,1-3.69a1.8,1.8,0,0,0,.08-.5C336.55,445.7,335.28,447.35,334.52,449.3Zm-5.66,16.51-.06.34-.14-.42c-.44,1-.85,1.85-1.23,2.75a4.7,4.7,0,0,0-.28,1c-.21,1.61.65,1.2,1.64-.54a59.26,59.26,0,0,0,2.57-6c.22-.53.42-1.09.64-1.63l0-.22ZM289.6,447c-2.66.55-6,1.31-8.89,1.61-4.16.45-6.89,1.08-10.27,1.49-5.06.71-10.37,1-16.13,1.24a17.87,17.87,0,0,0-2,.61c-.25.11,0,.29.58.4,1.67.4,4.79.6,5.19,1,.82.74,5.4.34,8.52.27a15.38,15.38,0,0,0,5.17-.81,47.51,47.51,0,0,1,4.61-1.47c.78-.2,3.62-.63,4.39-.7,5.1-.22,10.05-1.64,14.07-2.56l-2.8-.43C291.19,447.44,290.44,447.24,289.6,447Zm95.16-68.89c-1.31-.23-3.58-.41-7-.7-3.4-.65-8-1.07-13.94-2.37-28.29-5.88-54.3-23-71.54-46.36a133.69,133.69,0,0,1-16.89-29.92c-3.34-7.68-4.28-11.39-3.4-6.18.25,1,1.16,3.63,2,6a124.16,124.16,0,0,0,24.59,41.61c3,3.28,6.66,6.21,11.93,10.7,1.16,1.1,3.42,2.61,5.8,4.45a71.59,71.59,0,0,0,7.48,5.23c-.11.12,1.44,1.29-.64.16-6.73-4.08-5.37-2.29,8.91,5.95,18.93,10,41.94,15.61,61.59,14.2,3.93-.28,8.44-.72,7.65-.8C396.54,379.5,390.82,379.39,384.76,378.12ZM235.08,455a152.49,152.49,0,0,1-21.6-3.92c-3-.72-4.54-1.14-5.27-1-1.68.32-3.26.64-4.59,1-.22.06.81.58,1.73.95a88.57,88.57,0,0,0,15.54,3.78c4.05.79,4.63.57,2.74-.1-.56-.21-.05-.32,0-.48,1.39.22,3.29.46,4.07.67l3.9,1.16c4.21.32,8.23.46,12.2.47a11,11,0,0,0,1.59-.09C248,456.89,241.67,455.75,235.08,455Zm67-60.69c.85.3,2,.61,2.83,1a20.42,20.42,0,0,0,3.3,1c1.63.46,3.32,1,5.15,1.53a4.24,4.24,0,0,0,.75-.16c.1,0,0-.17-.1-.3-.45-.39-1.34-.92-1.38-1.17-.09-.52-1.55-.9-2.48-1.32a2.82,2.82,0,0,0-1.68-.36,6.58,6.58,0,0,1-1.67,0,5.94,5.94,0,0,1-1.39-.44,24.28,24.28,0,0,0-4.39-1.69c.21.33.42.63.59.92S301.91,394,302.07,394.35ZM508.4,291c-.93,3.08-3.22,8.54-4.61,12.49A131.28,131.28,0,0,1,484,335.89a30.12,30.12,0,0,0,3.08-3,30.48,30.48,0,0,1-2.82,3.24c-7.25,9.17-16.14,16.95-25.66,23.81A131,131,0,0,1,427,375.78a22,22,0,0,0,2.44-.62c3.55-1.32,7.17-2.53,10.67-4l10.16-4.91c24.67-13.47,45.2-36.12,55.38-61.34a101.78,101.78,0,0,0,6.3-23.31C512.21,278.74,511.25,281.44,508.4,291ZM322.79,396.89a10.5,10.5,0,0,1-1.07-.81l-3.79-.94a1.86,1.86,0,0,0-.51-.07c-.95.14.78,1.4,2.79,2.13,2.22.8,4.43,1.67,6.6,2.55.91.37,1.42.5,1.69.39a13.29,13.29,0,0,0,1.72-.85c.08-.05-.21-.29-.48-.46A26.72,26.72,0,0,0,325,397c-1.23-.44-1.43-.39-.93.07.15.14,0,.2-.07.29A10.86,10.86,0,0,1,322.79,396.89ZM168,93.69,169.74,89v0h0l.44-1.21v.14a8.07,8.07,0,0,0,.44-.83c.78-2,1.54-4,2.31-5.94.1-.26.19-.54.3-.78.45-1,.55-1.3.32-1.26-.43.07,0-1.08.19-1.91.57-2.19,1.33-4.49,2.06-6.78.58-1.84,1.34-3.74,1.82-5.52.09-.34.28-.77.42-1.16.6-1.59,1.4-3,1.92-4.69a2.72,2.72,0,0,1,.47-.79A1.55,1.55,0,0,1,181,58l.5-1.1c0,.11,0,.21,0,.41.32-.93.56-1.73.86-2.49s.67-1.47,1.05-2.28l-.15-.22.75-1.82-.09.43c.19,0,.43-.1.46.17a5.76,5.76,0,0,1-.36,1.43c-.19.54-.29.76-.19,1a6.2,6.2,0,0,1-.2,1.36c-.19,1.17.26.94.52,1.12.09.06.22,0,.37.07l.48-.85-.39,1.56-.15-.16a5.69,5.69,0,0,0-.26.67,21.08,21.08,0,0,0-.15,2.29c0,.84,1-.58,1.53-1.79.64-1.52,1.23-3.1,1.84-4.66.25-.64.5-1.28.82-1.94l-1.09,3.18.08,0c.15-.34.31-.68.44-1a4.89,4.89,0,0,1,.81-1.54,6.08,6.08,0,0,0,.88-1.86,10.25,10.25,0,0,1,1.41-3.22c.23-.24.33.08.49.14l1.15-3,.62,1.88.31-.56c-.57,1.81.28,1.13-.11,2.65l.73-1.33c0,.52-.12,1.11.24.95s.2.84.33,1.22c.05.15.26,0,.34.07a.65.65,0,0,1,.17.63c-.23.77,0,1.28-.71,2.35a2.83,2.83,0,0,0-.23.55A39.64,39.64,0,0,1,191.91,58c-.56,1.18-1.1,2.57-1.59,3.88-.58,1.55-1.07,3.11-1.64,4.65-.67,1.78-1.39,3.56-2.09,5.34a8.94,8.94,0,0,0-.36,1A18.26,18.26,0,0,1,184,78.12a25.06,25.06,0,0,0-1.16,2.4l.14,0c0,.16.05.3.08.45,2.59-1.24,5.19-2.44,7.82-3.54l-.36.25,2.86-1a166,166,0,0,1,19.47-6.22c.87-.24,1.78-.49,2.62-.65,3.45-.69,4.42-.93,4-1.18-.84-.5,3-1.3,5.69-2a144.1,144.1,0,0,1,22.65-3.3c6.23-.43,12.87-.31,18.86-.24,1.16,0,2.66.19,4,.3,5.51.48,10.67,1.57,16.31,2.45a16.44,16.44,0,0,1,2.84.8A4.46,4.46,0,0,1,291,67.75l3.77,1-1.26,0c3.1.62,5.73,1.26,8.27,2s4.95,1.62,7.64,2.68l.59-.2c1.71.57,3.41,1.24,6,2.23L314.66,75c0,.34.52.86-.28.77-.64-.06-2.9-.82-4.52-1.31s-2.47-.82-3.06-.72c-.42,0-2.77-.48-4.26-.76-3.66-.67-2.65.27-3,.68-.13.16,0,.39,0,.66l2.85,1.09c-1.91-.45-3.24-.73-4.92-1l.37-.24c-.75-.2-1.87-.54-2.18-.57-2.43-.26-5.1-.43-6.95-.44-2.47.07,2.53,1.79,6.42,2.86,4.95,1.3,9.94,2.87,14.83,4.58,2,.77,4,1.46,6,2.43-3.24-1.22-6.51-2.36-9.82-3.37l0,.14,3.24,1.17a26.89,26.89,0,0,1,4.88,2.18A37.8,37.8,0,0,0,320,85.78c3.22,1.35,7.69,3.21,9.62,4.9.72.64-.13.58-.26.83,2.53,1.32,5,2.68,8.49,4.76l-5.09-.51,1.59,1.09c-5.05-2.68-3.06-.42-7.28-2.37l3.8,2.41c-1.44-.45-3.07-1.08-2.54-.27.41.64-2.23-.29-3.25-.29-.41,0,.16.51-.1.59a2.08,2.08,0,0,1-1.67-.11c-2.14-1-3.42-.79-6.56-2.76a10.19,10.19,0,0,0-1.58-.72c-5.61-2.15-11-4.14-16.6-6.1a96.82,96.82,0,0,0-11.77-3.15c-4.72-.91-9.42-1.59-14.2-2.05A162.45,162.45,0,0,0,256,81a26.17,26.17,0,0,0-3.19.08c-5.39.44-12.3.8-16.62.81a70.27,70.27,0,0,0-7.71.74l.29.15a10.92,10.92,0,0,1-2.56,1.18,68.72,68.72,0,0,1-8.35,1.6,83.75,83.75,0,0,0-8.23,1.86l.58-1c-8.46,2.52-5.33.69-5.22-.16-3.23,1.14-6.08,2.39-8.92,3.51-3.23,1.24-6.41,2.7-9.46,4,.47.17.91.36,1.37.53,1.59.56,3.2,1,4.79,1.59,1.84.65,3.67,1.35,5.5,2a9.3,9.3,0,0,0,1.07.34,19.1,19.1,0,0,1,5.43,2.17,26.15,26.15,0,0,0,2.48,1.13l0-.14a2.31,2.31,0,0,1,1-.06,10.22,10.22,0,0,1,2.77,1.13c.62.38,1.7.79,2.7,1.25l-.45.35c2.87,1.13,1.52,1.19,1.25,1.55,1.13.36,2.17.65,3.15,1a27.14,27.14,0,0,1,4.45,1.91c.28.17,1.07.38,1.54.59s.84.46,1.26.69l-.87,0c.86.52,1.25.93.27.93-.22,0,0,.21-.13.3s-.7.37-2.54-.23c-1-.31-2.29-.12-2.06.29.33.6-1.21.48-3.05-.22-1-.39-2.06-.76-3.09-1.11a1.7,1.7,0,0,0-.66,0,12.78,12.78,0,0,1-3.75-.89,3.07,3.07,0,0,1-.57-.29c-.64-.54-.63-.54-1.79-.7.48.47,1,.92,1.35,1.35.15.16.06.27.08.4-.7-.25-1.4-.5-2.09-.77-.24-.09-.44-.26-.66-.34l-8.71-3c-.12,0-.25-.06-.36-.09s0,.07,0,.07l6.88,2.61c.7.26,1.43.49,2.14.74,1.41.5,1.77.75,1.44,1.11l2.08.53c.43.12.88.24,1.32.39a56.5,56.5,0,0,0,5.76,1.63c.63.15,1.43.46,2.15.7,1.12.37,2.26.77,3.37,1.11,1.77.55,2.4.95,1.92,1.22a7.71,7.71,0,0,0-.92.71c-.85-.28-1.45-.33-1.35,0l-6.1-2.09h.15a8.15,8.15,0,0,0-.86-.43l-6.12-2.24c-.27-.1-.56-.19-.81-.29-1-.44-1.34-.54-1.29-.3.09.43-1.1,0-2-.17-2.24-.55-4.61-1.28-7-2-1.89-.56-3.85-1.3-5.68-1.76-.35-.09-.79-.27-1.19-.41-1.63-.59-3.11-1.37-4.84-1.86a2.83,2.83,0,0,1-.82-.46,1.56,1.56,0,0,1-.28-.59l-1.13-.49h.42c-1-.31-1.78-.54-2.56-.83s-1.52-.66-2.36-1l-.22.16-1.88-.73.45.08c0-.19-.11-.43.17-.46a6,6,0,0,1,1.47.34c.55.19.78.28,1,.18a6.44,6.44,0,0,1,1.4.18c1.2.17.95-.27,1.12-.54.06-.09,0-.22.06-.37l-.88-.47,1.6.37-.16.15a6.13,6.13,0,0,0,.69.25,21.72,21.72,0,0,0,2.34.13c.86,0-.62-1-1.86-1.51-1.55-.62-3.16-1.18-4.75-1.77l-.29.15-3.74,1.74L177,97.52c-2.65,1.16-4.16,1.55-2.11-.3.32-.29.09-.31-.09-.37l-.44.77,0-.85c-.53.83-.94,1.2-.93.24,0-.22-.21-.05-.29-.13s-.36-.7.25-2.48a3.81,3.81,0,0,1-.9-.47c-.25-.23.07-.34.13-.49l-2.16-.79c-.17.48-.35,1-.5,1.43-.57,1.72-1,2.32-1.24,1.85a7.74,7.74,0,0,0-.69-.92C168.34,94.18,168.4,93.59,168,93.69Zm22.91,9.83,1.38.48,0,0-1.06-.29a14,14,0,0,0,1.29.57c.6.15,1.15.24,1.72.36A10.09,10.09,0,0,0,190.93,103.52ZM303.74,85a9.67,9.67,0,0,0,1.75,1l6.31,2.25,3.72,1.44c.73.31,1.46.65,2.17,1l.36-.06c-4.44-2-8.94-4-13.57-5.56Zm-43.5-16.89a79.29,79.29,0,0,0,10.95.61l-4.5-.35-.1-.06,3.37.13c-2.25-.27-3.54-.52-4.33-.49ZM190.37,55.55c0,.09,0,.18,0,.26a2.07,2.07,0,0,0,.45-.54c.29-.68.54-1.4.79-2.11.15-.42.28-.85.44-1.27.09-.25.23-.49.35-.73l-.08-.14ZM175.76,95.28l-.22-.07c-.06.15-.12.27-.19.46C175.47,95.54,175.6,95.42,175.76,95.28ZM179,93.07c-.43-.14-.85-.27-1.28-.42-.26-.09-.5-.22-.75-.34l-.08,0,0,0,1.92.78Zm1.38,4.32-.86-.35-.2.1,1,.33Zm-.55-29.6a9.64,9.64,0,0,0,1.19-3.26l-.49,1.34,0,0,.3-1a13.22,13.22,0,0,0-.58,1.25C180.08,66.7,180,67.24,179.86,67.79Zm-1.19,19.75c-.35,1-.63,1.93-1,2.82a3.39,3.39,0,0,0,.41.16c1.12.32,2.16.8,3.21,1.21,2.33-1.44,4.4-3.45,3.34-3.45-1.72,0,2-2.65,7.53-4.9,3.05-1.27,6.19-2.43,9.29-3.54a8.55,8.55,0,0,0,1.74-.91c1.42-1,7.43-3.22,11-4a11.53,11.53,0,0,1,1.93-.34c2.45,0,2.39-.09,5.73-1.2l-5.48-.18c-.62,0-.54-.27-.78-.42,2.24-.49,4.46-1.09,6.71-1.46.77-.14,1.55-.13,2.27-.28a167,167,0,0,1,28.22-3l1.15-.08s-.07-.11-.11-.11a164.5,164.5,0,0,0-22.66,1.49c-2.29.37-4.6.72-6.89,1.2-4.53.86-5.85,1-5.43.14-2.49.71-4.41,1.24-6.36,1.89l-4.07,1.26a106.74,106.74,0,0,0-17.14,6.79L185,83.6c-1.29.62-2.53,1.34-3.81,2-.18.39-.36.8-.55,1.2l-.35-.45C179.07,89.14,179,87.81,178.68,87.54Zm-6.36-.31c.65-.53.88-.88.41-.94.64-.37,1.29-.67,1.94-1a13.89,13.89,0,0,1,.89-3.19,3,3,0,0,1,.3-.56c.55-.61.54-.6.71-1.74-.47.46-.93.92-1.36,1.29-.16.14-.27.05-.4.07.26-.68.52-1.36.79-2,.09-.23.27-.42.35-.64q1.57-4.23,3.12-8.46c0-.12.07-.24.1-.35s-.07,0-.07,0q-1.35,3.34-2.68,6.68c-.27.68-.5,1.39-.76,2.08-.52,1.37-.77,1.72-1.13,1.38-.22.79-.38,1.4-.56,2-.12.42-.25.86-.4,1.29C173,84.57,172.68,85.9,172.31,87.24Zm-1.38,4.14c1.39.41,1.34,0,1.91,0,0-.09,0-.19.05-.28l-.67-.34a7.25,7.25,0,0,0,.73,0c.07-.28.18-.59.29-.9-.87.49-1.6.89-2.2,1.19Zm-.19.55.75-.25-.56-.29Zm18.17,75.24c.35.28.68.61,1,.89l.24.18Zm-20-62.17a58,58,0,0,0,5.8,2.35c.51.2,1.05.39,1.58.58l.21,0L172,105l-.32-.06.4-.14c-.94-.4-1.79-.77-2.66-1.12a4.57,4.57,0,0,0-1-.25C166.84,103.29,167.26,104.1,168.95,105ZM82,149.46c2.29-1,6.5-2.07,13.08-3.77,3.22-.76,6.85-1.11,10.28-1.69,26.1-3,53.41,2.87,75.37,17.56,3.21,2,6.16,4.34,9.25,6.51a113.62,113.62,0,0,1,39.34,64.24c-1.14-2.57.37,4.37,1.23,15.08-.46,2.68-.91,4.36-1.27,7.43-.25,2.1-.55,1-.91-3.32A118,118,0,0,0,225,229a108.33,108.33,0,0,0-17.46-37.63c-5-7.48-12.46-14.48-18-19.56a114.74,114.74,0,0,0-28.82-18,106.42,106.42,0,0,0-35.46-8.18,121.26,121.26,0,0,0-16.34,0c-3.92.28-7.75,1-11.86,1.51-4,1-8.35,1.79-13.06,3.31,1.2,0,.61.43-2.34,1.66l-6.26,2.51c-2.61,1.33-5.94,2.79-9.83,4.88-3.77,2.41-7.82,4.4-11.29,7.24l-5.38,4-5,4.49A109.65,109.65,0,0,0,9,252.47a1.4,1.4,0,0,0,.09.44l.29-4.41c2-36.39,24.06-70.54,55.77-88.16,2.35-1.51,5-2.69,7.71-4.08,3.85-2.09,8.11-3.25,12.19-4.85,4.18-1.29,8.47-2.35,12.74-3.29a7.77,7.77,0,0,1-2.36,1.1l-9.23,3.11-9.63,4.29c12.58-4.38,12.51-3.92,21.25-6.62l7.32-1.25c3.37-.74,7.5-.55,11.8-.86,4.31-.15,8.83.42,13.11.63,4.22.77,8.25,1.33,11.53,2.13l7.33,2.21c1.69.43,4.31,1.71,6.87,2.63a109.1,109.1,0,0,1,32.42,18.9c17.42,14.89,24.13,31.31,20.66,26.36-1.26-1.59-.39.64,1.52,4.41,1.57,3.95,4.31,9.44,6,14.83a78.74,78.74,0,0,1,4.83,20.71c.46,4,.35,5.46.09,6.15-.16.51-.51-2.09-.53.23,0,5.07-.22,6.19-.51,4.72s-.38-5.55-1.57-10.78l.47,4.66c0,1.48,0,2.9,0,4.31-.16-5.07-1.36-9.59-2.28-15.06l-2.45-9.32-2.81-7.56c-6.16-14.11-17.24-29.91-31.34-40.65a99.16,99.16,0,0,0-31.1-16.74c.53.59,3.83,2.23,3.14,2.32-.72.28-5.15-2.17-21.26-4.44l3,1.29c-11.28-1.64-23.6-1.27-30.79.51a111.72,111.72,0,0,0-29.32,10c-4.46,2.35-6,3.07-9,4.49l.72-.65c-8.08,5.33-17,13.76-21,19a116,116,0,0,0-14.74,24.79,109.53,109.53,0,0,0-7.58,30.83,70.93,70.93,0,0,0-.19,11.67c0,5.12,1,10.13,1.78,15.17,1.29,4.93,2.42,9.9,4.39,14.61a97,97,0,0,0,15,26.38c11.1,13.58,25.47,24.55,42.1,30.47,13.91,5.22,30.17,7.17,44,5.33A101.55,101.55,0,0,0,187,325c1.41-1.3,3.52-3.81,4.3-4.67,8.29-10.59,10.78-13.81,14.81-21.37a20.07,20.07,0,0,1,3-4.8c.5-.59-.51,2,.24.81,1.69-2.89,5.53-12.4,5-10-.35,3.19,1.45-3,3.11-8.23a111.24,111.24,0,0,1-4.54,16c3.26-8,3.65-9.65,4.54-11.68.42-1,.86-2.17,1.55-4.35.49-2.22,1.1-5.51,1.9-10.79L220,273c1.82-5.64,2.63-11,3.68-17.19a102.48,102.48,0,0,1-6.45,35.89c.26.1,1.61-2.56.6.83a43.5,43.5,0,0,1-3,7.94,67,67,0,0,1-4.84,9.32l-2.92,4.78c-1,1.56-2.25,3-3.35,4.51l-3.33,4.34-3.5,3.8c-3.54,4.2-7.35,7.08-10.18,9.88l-7.54,6a90.32,90.32,0,0,1-17.45,10.12c-4,1.71-8.08,3.2-12.19,4.58l0,.15a107,107,0,0,0,34.84-17.79l-5,3.84c-1.69,1.23-3.51,2.21-5.24,3.31a82.89,82.89,0,0,1-10.74,5.72,101.28,101.28,0,0,1-28.2,8.4,107.61,107.61,0,0,1-29.27.55c-15.38-1.41-34.07-9-25.71-5.07a73.7,73.7,0,0,0,11.45,4.26,95.21,95.21,0,0,0,13.63,3.2c1.16.38,5.63.57,8.58.69l-1.1-.39c6.5.62,11.71.34,19.17-.19-6.85.86-10.72.86-11.58,1-.37.28-1.13.5-.82.67.91.47-3.81,1.27,10.47,1l9.82-1.21c3.21-.39,5.78-1.21,6.54-1.22A47.51,47.51,0,0,0,158,361.49l5-1.79,4.87-2.27c3.12-1.42,5.76-2.63,6.77-3.26,2.68-1.38.5.28.38.74l4.74-2.73L173.42,356l-5.71,2.79A73.42,73.42,0,0,1,157.6,363l-1.92.3A106.48,106.48,0,0,1,125,369.48c-10.22.73-20.75-.31-32.66-3.1,1.56.46,2.52.81,3.41,1.05a109.29,109.29,0,0,1-13.4-3.53,48.4,48.4,0,0,1-5.6-1.23c-1.66-.24-7.92-3.23-10.5-4.48C46.77,347.71,31,333.41,20,314.92c-2.93-4.37-5.17-9.83-7.15-13.86a126.1,126.1,0,0,1-8.42-35.2,114.66,114.66,0,0,1,3-36.73c7.1-29.65,27.09-55.44,51.24-69.77,2.33-1.29,4.77-3,7.39-4.19l7.36-3.39c4.44-1.8,7.5-2.52,6.28-1.8C79,150.39,79.63,150.27,82,149.46ZM145.53,353l2.68-.51c17.28-5.54,33.3-15.46,45.26-29.15l-.91.7a54.11,54.11,0,0,1-6.26,6.31c-3.53,3.49-7.68,6.16-11.66,9.11-3.62,2-7,4.56-10.87,6.16l-5.61,2.7-5.77,2.13c-1.32.49-2.45,1-3.52,1.46ZM11,276.92a113.28,113.28,0,0,0,5.43,19.84,36.8,36.8,0,0,0,2.53,5.68,81.19,81.19,0,0,0,5,9.21c-3.88-6.59-4.53-9.22-5.78-11.52l.22.34,3.57,7.46c1.39,2.47,3,5,4.62,7.73-2.07-3.7-4.42-7.24-6-11.05L18,299.14c-.77-1.81-1.34-3.65-2-5.37l-1.83-5-1.25-4.61C12.18,281.29,11.33,278.87,11,276.92ZM185.46,110.46a9.82,9.82,0,0,1,1,.75l3.55.88a1.77,1.77,0,0,0,.48.07c.89-.14-.73-1.32-2.61-2-2.08-.75-4.15-1.57-6.19-2.39-.85-.34-1.33-.47-1.59-.36a12.45,12.45,0,0,0-1.62.8c-.08,0,.2.27.45.43a25,25,0,0,0,4.43,1.72c1.15.42,1.34.36.87-.06-.14-.13,0-.18.06-.27A10.1,10.1,0,0,1,185.46,110.46Zm-5.11,330.81,1.17,0c-3.08-1.45-5.78-2.91-8.55-4.34-.93-.48-2.28-1.12-3-1.42-4.72-1.86-3.31.11,2.13,3.5,5.81,3.54,12.6,6.25,19.14,8.8,1.72.7,3.54,1.3,5.34,1.9l.65,0a172.91,172.91,0,0,1-15.81-8.14Zm24.52-328.43c-.8-.28-1.83-.58-2.65-.94a19.13,19.13,0,0,0-3.09-1c-1.53-.43-3.11-.92-4.82-1.44a4,4,0,0,0-.7.15c-.1,0,0,.16.09.28.42.36,1.26.86,1.3,1.09.09.48,1.45.84,2.32,1.24a2.64,2.64,0,0,0,1.57.34,6.16,6.16,0,0,1,1.56,0,5.57,5.57,0,0,1,1.31.41,22.61,22.61,0,0,0,4.11,1.58c-.2-.31-.4-.59-.55-.86S205,113.13,204.87,112.84ZM113.21,378.12c-1.31-.23-3.58-.41-7-.7-3.4-.65-8-1.07-13.94-2.37C64,369.17,38,352,20.72,328.68A133.69,133.69,0,0,1,3.83,298.76c-3.34-7.68-4.28-11.39-3.4-6.18.25,1,1.16,3.63,2,6A124.16,124.16,0,0,0,27,340.19c3,3.28,6.66,6.21,11.93,10.7,1.16,1.1,3.42,2.61,5.8,4.45a71.59,71.59,0,0,0,7.48,5.23c-.11.12,1.44,1.29-.64.16-6.73-4.08-5.37-2.29,8.91,5.95,18.93,10,41.94,15.61,61.59,14.2,3.93-.28,8.44-.72,7.65-.8C125,379.5,119.28,379.39,113.21,378.12Zm65.52-11.86c24.67-13.47,45.2-36.12,55.38-61.34a101.78,101.78,0,0,0,6.3-23.31c.25-2.88-.72-.17-3.56,9.43-.93,3.08-3.22,8.54-4.61,12.49a131.28,131.28,0,0,1-19.82,32.36,30.12,30.12,0,0,0,3.08-3,30.48,30.48,0,0,1-2.82,3.24c-7.25,9.17-16.14,16.95-25.66,23.81a131,131,0,0,1-31.57,15.84,22,22,0,0,0,2.44-.62c3.55-1.32,7.17-2.53,10.67-4Zm-27.43-95.79-4.14.39,4.06.57a15.76,15.76,0,0,1-.66,3.73A22.06,22.06,0,0,1,142,286.68a29.2,29.2,0,0,1-11.4,4.53l-.09,0a24.94,24.94,0,0,1-.59,6.37,5.9,5.9,0,0,1-1.85,4.31l-.61.69-.9,2.22a4.1,4.1,0,0,1-3.29,2.46l-.4.44a4.1,4.1,0,0,1-7-3.93,4.1,4.1,0,0,1-2.22-4.17l.12-1c0-.16,0-.3-.06-.38a18.63,18.63,0,0,1-.1-2.34c0-.07,0-.88,0-1s0-1,0-1.15a3,3,0,0,1,.06-.37,11.8,11.8,0,0,1-.06-2.2c0-.33,0-.7,0-1.1a32,32,0,0,1-15.84-9.36,35.94,35.94,0,0,1-3.71-4.58,32.38,32.38,0,0,1-2.54-4.61,4.6,4.6,0,0,1-.4-2.12,4.86,4.86,0,0,1,2.53-5.16,5,5,0,0,1,3.64-2.46h.32a3.76,3.76,0,0,1,4.14,1.39l3.65,5.22a19.49,19.49,0,0,0,11.39,8.08,4.94,4.94,0,0,1,.73.24c.37.1.76.15,1.18.22a25.89,25.89,0,0,0,7.61.08,17.64,17.64,0,0,0,5.2-1.35,4.1,4.1,0,0,1,1.3-2.89,6.48,6.48,0,0,0,1.71-2.33l4.19.29h0l-3.86-1.47.09-.53a10.73,10.73,0,0,0,.16-2,8,8,0,0,0-.25-1.38,3.16,3.16,0,0,0-.57-.93,10.27,10.27,0,0,0-2-1.66,15.53,15.53,0,0,0-3.55-1.37c-.6-.18-1-.31-1.33-.42-.63-.13-2.15-.42-3.36-.59a7.05,7.05,0,0,1-2.08-.64,5.27,5.27,0,0,1-3.75,1.4c-.19,0-.66,0-.84,0l-1.54-.22a39.58,39.58,0,0,1-12.83-4.29,23.53,23.53,0,0,1-4.53-3.75,22.76,22.76,0,0,1-1.92-2.46,5.78,5.78,0,0,1-1.22-1.52l-.07-.13-.12-.23a15.71,15.71,0,0,1-1.71-6.09,21.29,21.29,0,0,1,2.68-11.66,26,26,0,0,1,6.38-7.79c.75-.69,3.07-2.65,5.84-2.1A4,4,0,0,1,110.7,218l.89-.41q1-.4,2-.7c0-.26,0-.58,0-.62a29.79,29.79,0,0,1,.1-3.11s0-.07,0-.13l-.17-1.15a4.1,4.1,0,0,1,2.33-4.3,4.09,4.09,0,0,1,7-3.65l.23.25a4.09,4.09,0,0,1,3.38,2.46l1,2.39.29.32a6.52,6.52,0,0,1,2,4.29,19.37,19.37,0,0,1,.49,2.72l.62.15a26.89,26.89,0,0,1,11.5,6.4,22.77,22.77,0,0,1,4.84,6.25c1.29,3.16,0,5.59-1.86,6.69a6.33,6.33,0,0,1-.78.39c.13.3.25.6.37.9a4.42,4.42,0,0,1-2,5.47l-1.6.75a4.09,4.09,0,0,1-5.34-1.76l-.27-.46a3.62,3.62,0,0,1-1.22-1.29l-.25-.44a3.33,3.33,0,0,1-1.1-1l-.34-.42a10.54,10.54,0,0,1-1.09-.84l0,0a10.28,10.28,0,0,1-2-1.11,13.51,13.51,0,0,0-4-1.89,17.48,17.48,0,0,0-5.89.07,12.58,12.58,0,0,0-4.64,1.85,9.39,9.39,0,0,0-3.57,4.52,13.29,13.29,0,0,0,1.41.78c2.81,1.32,7,2.21,13,2.77l3.48.39a27.85,27.85,0,0,1,12.07,4.13,20.4,20.4,0,0,1,8.47,10.8,4.11,4.11,0,0,1,1.63,3.58l-.38,5.13A19.87,19.87,0,0,1,151.31,270.47Zm-8.06-40.22c.12.2.19.33.25.45l1.49-1.47a2.46,2.46,0,0,0-.78-.5ZM.61,262.84c.22,2.12.44,3.26.51,2.27.14-2.14.2-5.95.25-7.71.21-11.25,1.26-22.16,4.36-32.25,1.13-5.15,3.37-9.87,5.06-14.69,2.33-4.54,4.19-9.27,7-13.43,6.89-11.38,13.85-20,26.17-30.75A122.91,122.91,0,0,1,74,148l8.06-4.13c2.7-1.42,6.14-2.39,9.68-3.76C76,143.75,56.89,151.83,42.06,165.32l-6.4,5.84c-2.57,2.51-4.94,5.24-6.07,6.34a95.41,95.41,0,0,0-7,8,65.25,65.25,0,0,0-5,6.38c-1.21,1.67-2.63,3.77-4.4,6.58-1.49,3-3.4,6.63-5.46,11.45l-3.4,9.42c-1,3.33-1.79,6.77-2.6,9.9A68.12,68.12,0,0,0,.08,242.46C.24,244-.46,256.29.61,262.84Z"/></svg>