<svg id="Layer_1" data-name="Layer 1" xmlns="http://www.w3.org/2000/svg" viewBox="0 0 512 512"><defs><style>.cls-1{fill:#ffa840;}.cls-2{fill:#cad8dd;}.cls-3{fill:#a1b9bf;}.cls-4{fill:#c15d25;}</style></defs><title>currency-exchange-flat</title><circle class="cls-1" cx="115.2" cy="256" r="115.2"/><circle class="cls-2" cx="396.8" cy="256" r="115.2"/><path class="cls-2" d="M352.21,73.93A186.81,186.81,0,0,0,190.06,59.28L196.36,43a12.8,12.8,0,0,0-23.86-9.26l-18,46.49,0,.08-.07.16c-.08.23-.14.46-.21.69s-.09.26-.12.39c-.08.29-.13.57-.19.86,0,.13-.06.26-.08.4,0,.29-.08.58-.1.87,0,.13,0,.26,0,.39,0,.29,0,.58,0,.87,0,.13,0,.26,0,.39,0,.29,0,.57.07.85,0,.13,0,.26,0,.39s.09.55.15.82,0,.27.08.4.14.52.22.78.08.28.12.41.18.48.28.72.11.29.18.43.22.44.33.66.15.3.23.44.25.4.38.6.18.29.29.44l.2.27.11.14.11.14c.11.14.22.28.34.42l.24.26.2.21,0,0,.38.39.27.25.26.22h0l.4.34.3.22.28.19,0,0,.41.28.31.19.27.15.12.07.4.22.32.15.2.08.29.12.31.14.08,0,.16.07,47.91,17.51a12.8,12.8,0,1,0,8.79-24l-19.58-7.15A161.23,161.23,0,0,1,339,95.85a12.8,12.8,0,0,0,13.21-21.92Z"/><path class="cls-1" d="M358.15,429.57c0-.14.06-.28.08-.42s.07-.56.1-.85,0-.27,0-.41c0-.29,0-.57,0-.86,0-.13,0-.26,0-.39,0-.29,0-.58-.07-.87,0-.12,0-.24,0-.37,0-.29-.09-.58-.15-.86,0-.12,0-.23-.07-.35-.07-.29-.15-.57-.24-.85,0-.11-.06-.23-.1-.34-.09-.28-.2-.55-.31-.82,0-.11-.09-.22-.13-.33-.12-.26-.25-.52-.39-.78l-.17-.32c-.14-.25-.3-.49-.46-.73l-.2-.31-.23-.32,0,0-.26-.32-.24-.3-.28-.31-.11-.11-.19-.2-.27-.28-.32-.29-.16-.13-.18-.15-.29-.25-.34-.26-.19-.13-.19-.13-.31-.21-.35-.21-.22-.12-.22-.12-.33-.18-.34-.16-.22-.09-.28-.12-.29-.13-.07,0-.16-.07-47.92-17.51a12.8,12.8,0,1,0-8.79,24l19.58,7.15A161.23,161.23,0,0,1,173,416.14a12.8,12.8,0,1,0-13.21,21.93,186.81,186.81,0,0,0,162.14,14.65L315.63,469a12.8,12.8,0,1,0,23.86,9.26l18-46.49,0,0,.08-.19c.08-.23.14-.45.21-.68s.09-.27.13-.41S358.09,429.85,358.15,429.57Z"/><path class="cls-3" d="M373.72,240.9a22.25,22.25,0,0,1,7-16.53c4.66-4.56,11-6.78,19-6.78q20.82,0,27.65,16.53c1.17,3.07.32,4.34-2.75,5.51l-8.05,3c-3.07,1-3.81.43-5.51-2.65-2.54-4.66-5.51-6.57-10.7-6.57-5.4,0-8.79,3.6-8.79,8.37V252h20.34c3.29,0,4.34,1,4.34,4.23v5.51c0,3.28-1.06,4.23-4.34,4.23H391.41v3.71c-.11,4.56-1.8,7.94-5.09,10.28v.63a82.84,82.84,0,0,1,17.16-1.8h18.86c3.07,0,4.24,1.05,4.24,4.34v6.88c0,3.28-1,4.34-4.24,4.34H370c-3.29,0-4.24-1.06-4.24-4.34v-7c0-2.33.74-3.5,2.33-3.6h.42c3.71-1.27,5-4.24,5.08-9.43v-4h-3.39c-3.28,0-4.34-.95-4.34-4.23v-5.51c0-3.28,1.06-4.23,4.34-4.23h3.5Z"/><path class="cls-4" d="M118.84,217.6c2.61,0,3.45.84,3.45,3.35v3.82c7.55,1.31,12.86,5.32,16,12.12,1.4,2.61.75,4-2.14,5.22L129.75,245c-2.52,1.12-3.73.74-5.13-1.87-1.86-3.63-4.29-5.4-9.41-5.4-6.62,0-9.41,1.4-9.41,5.4,0,3.45,3.91,4.75,11.09,5.5a65,65,0,0,1,10.63,1.77,18,18,0,0,1,5,2.14c4.2,2.51,8.2,7.36,7.83,15.38,0,10-6.52,16.87-18.08,19v4c0,2.61-.84,3.45-3.45,3.45h-7.09c-2.52,0-3.45-.84-3.45-3.45v-3.82c-9.13-1.4-15.1-6-18-13.61q-1.26-3.63,2.52-5l6.34-2.24c2.7-1,4-.47,5.22,2.24,1.49,3.82,4.94,5.68,10.25,5.68,7.09,0,10.63-2,10.63-6,0-3.73-3.63-4.94-11-5.69-5.22-.65-7.92-.93-12.67-2.8a16.21,16.21,0,0,1-5.78-3.26c-2.89-2.51-5.31-7.27-5.31-13.33,0-9.79,6.24-16.5,17.8-18.36V221c0-2.51.93-3.35,3.45-3.35Z"/></svg>