<svg id="Layer_1" data-name="Layer 1" xmlns="http://www.w3.org/2000/svg" viewBox="0 0 512 512"><defs><style>.cls-1{fill:#141f38;}</style></defs><title>dollar-bills-outline</title><path class="cls-1" d="M268.79,233.11c0-4.73-4.62-6.27-14-7.22-6.63-.83-10.06-1.18-16.1-3.55a20.61,20.61,0,0,1-7.34-4.14c-3.67-3.2-6.75-9.23-6.75-16.93,0-12.43,7.93-21,22.61-23.32v-4.85c0-3.2,1.19-4.26,4.38-4.26h9c3.31,0,4.38,1.07,4.38,4.26v4.85c9.59,1.66,16.34,6.75,20.36,15.39,1.78,3.32.95,5.09-2.72,6.63l-8.17,3.67c-3.19,1.42-4.73.95-6.51-2.37-2.37-4.62-5.44-6.87-12-6.87-8.41,0-12,1.77-12,6.87,0,4.38,5,6,14.09,7a82.32,82.32,0,0,1,13.49,2.25,23,23,0,0,1,6.4,2.72c5.33,3.2,10.42,9.35,9.94,19.53,0,12.66-8.28,21.43-23,24.15V262c0,3.32-1.06,4.38-4.38,4.38h-9c-3.2,0-4.38-1.06-4.38-4.38v-4.85c-11.6-1.78-19.17-7.58-22.84-17.28q-1.6-4.62,3.19-6.39l8.05-2.84c3.43-1.3,5.09-.59,6.63,2.84,1.89,4.85,6.28,7.22,13,7.22C264.29,240.68,268.79,238.2,268.79,233.11ZM512,128V384a64.19,64.19,0,0,1-64,64H64A64.19,64.19,0,0,1,0,384V128A64.19,64.19,0,0,1,64,64H448A64.19,64.19,0,0,1,512,128ZM422.4,89.6a64.07,64.07,0,0,0,64,64V128A38.44,38.44,0,0,0,448,89.6Zm-64,256h38.4A89.6,89.6,0,0,1,486.4,256V179.2a89.6,89.6,0,0,1-89.6-89.6H358.4Zm0,25.6V384H448a38.46,38.46,0,0,0,35.42-23.58A63.51,63.51,0,0,1,448,371.2ZM179.2,89.6V422.4H332.8V89.6ZM153.6,371.2H64a63.51,63.51,0,0,1-35.42-10.78A38.46,38.46,0,0,0,64,384h89.6ZM25.6,153.6a64.07,64.07,0,0,0,64-64H64A38.44,38.44,0,0,0,25.6,128Zm0,102.4a89.6,89.6,0,0,1,89.6,89.6h38.4V89.6H115.2a89.6,89.6,0,0,1-89.6,89.6Zm0,40.73V307.2A38.44,38.44,0,0,0,64,345.6H89.6a64.07,64.07,0,0,0-64-64Zm128,125.67V409.6H64a63.51,63.51,0,0,1-35.42-10.78A38.46,38.46,0,0,0,64,422.4Zm329.82-23.58A63.51,63.51,0,0,1,448,409.6H358.4v12.8H448A38.46,38.46,0,0,0,483.42,398.82Zm3-108.49V281.6a64.07,64.07,0,0,0-64,64H448a38.44,38.44,0,0,0,38.4-38.4V290.33Z"/></svg>