<svg id="Layer_1" data-name="Layer 1" xmlns="http://www.w3.org/2000/svg" viewBox="0 0 512 512"><defs><style>.cls-1{fill:#707070;}</style></defs><title>money-bag-handdrawn</title><path class="cls-1" d="M201.12,5.76c1.14.67,3.19,1.63,6.12,3.39a59.08,59.08,0,0,1,4.93,3.44c.93.69,1.83,1.53,2.83,2.38.51.42,1,.92,1.47,1.41s1.31,1.29.91.92c.16.19.34.36.49.56a8.13,8.13,0,0,1,1,1.46c.14.52.67,1.17,1.25.72a15.88,15.88,0,0,1,1.76-2.83,47.23,47.23,0,0,1,37-14.72,49.65,49.65,0,0,1,23.69,7.61A52.22,52.22,0,0,1,290.15,16c.47.43,1.18,1.09.8.69l.2.09a1.25,1.25,0,0,0,.31.09c.33.07.41-.23.39-.64a.74.74,0,0,0-.07-.23l-.06-.13c.48.44-.25-.29-.65-.71A49.55,49.55,0,0,0,245.74,1a51.9,51.9,0,0,0-14.91,6.55,59.51,59.51,0,0,0-6,4.31c-1.16,1-2.37,2-3.46,3.14l-.83.83-.06.06c-.1-.12-.26-.22-.26-.39-.07,0,.15-.28-.19,0,0,0,.64-.76.74-.92.41-.52.34-.54-.27,0l-.65.59h0l.08-.08h-.06s0,0-.06,0l-.35-.35-.82-.82c-.55-.54-1.09-1.09-1.68-1.59a48.88,48.88,0,0,0-7.33-5.45A46.93,46.93,0,0,0,193.26.66c-4-.8-8.67-.71-7.88-.55A54.28,54.28,0,0,1,201.12,5.76Zm19.43,10.06c.1-.09,0,0,0,0l-.1.11h0Zm-.71-.66c-.09.08-.09.08,0,0Zm-.05-.05,0,0c-.06.18-.16-.12-.15-.17v0Zm75,9.21c-.22.18,0-.44.29-1.26a17.25,17.25,0,0,1,2.49-4c2.55-2.9,5.16-4.92,5.64-5.5,1-1.15,5.15-4.26,11.05-6.35a43.41,43.41,0,0,1,19.54-2.32c10.88,1.71,16,6.35,18.81,9.28a39.2,39.2,0,0,1,9.18,16.23A45,45,0,0,1,363.15,39a46.12,46.12,0,0,1-.63,8.62,35.7,35.7,0,0,1-2.14,7.12c-1,2.46-1.68,3.69-2.54,5.57l-5,10.16L343.64,89l2.6-7.69,2.11-6.83,6.1-12.3,3.18-6.45A36.88,36.88,0,0,0,360.38,48a34.09,34.09,0,0,0-1.75-20.11,32.33,32.33,0,0,0-11.17-14.31A31.42,31.42,0,0,0,334,7.94a39.77,39.77,0,0,0-14.52.6,43,43,0,0,0-13.59,5.75,43.43,43.43,0,0,0-6,4.65l-1.37,1.34-.36.36-.3.33a15.32,15.32,0,0,0-1.16,1.38C296.13,22.82,295.21,23.92,294.76,24.31Zm160.07,358A177.08,177.08,0,0,0,453.69,347a73.08,73.08,0,0,0-1.8-10.25c-.5-1.21.17,6.29,0,7.7-3.26-25.63-9.71-48-17.41-69.22-12.07-33.13-28.87-66.35-44.52-92.36-3.44-5.84-12.14-20.57-18.09-29.67s-11.13-16.6-16.9-24.67c3,4.61,6,9.25,9.48,14.75-5.07-7.33-9.2-13-11.43-15.92a26.27,26.27,0,0,0,4.21-15.81,26.71,26.71,0,0,0-13.44-21.82l.93.68a26.92,26.92,0,0,0-7.25-2.93c4.69-9.77,6.07-12.55,5.84-11.31-.43,2.32,5.08-8.78,9-16.44,2.47-4.78,5.83-10.68,6.13-17.35a30.5,30.5,0,0,0-5.1-18.9,29.76,29.76,0,0,0-16.1-12,35.92,35.92,0,0,0-20.12.5,40.12,40.12,0,0,0-12.08,6.2,42.19,42.19,0,0,0-5,4.43,29,29,0,0,0-2.84,3.57A25.36,25.36,0,0,0,295,30c-.33,1.46-2,2.64-3.44,1.74s-1.4-2.62-2.25-3.82a26.15,26.15,0,0,0-2.34-3.7c-.34-.5-.74-.93-1.11-1.38l-.5-.6-.87-.89A38.38,38.38,0,0,0,280.74,18a39.42,39.42,0,0,0-40-5.19,42.2,42.2,0,0,0-11.85,7.73,32.58,32.58,0,0,0-3.7,4,28.24,28.24,0,0,0-2.55,4c-.47.64-.67,2.25-1.79,3.12a2.28,2.28,0,0,1-2.79-.13,19.19,19.19,0,0,0-1.76-2,28.29,28.29,0,0,0-2.82-4.28,32.66,32.66,0,0,0-3.38-3.63l1.17,1.31c.39.41.61.8,1.13,1.46l-.95-1.1-1.33-1.35c-.91-.91-1.89-1.72-2.83-2.52a39,39,0,0,0-6.07-4,36.68,36.68,0,0,0-13-4.17,29.07,29.07,0,0,0-25.45,8.67l-1.41,1a30.23,30.23,0,0,0-7.29,20.34c.06-4.31.73-6,.42-4.86.29.35.3,2.75.82.15.24-2.05,2.59-9.91,6.54-14.18,4-4.63,6.54-5.8,8.12-6.47a45,45,0,0,1,5.35-2,41.44,41.44,0,0,1,4.24-.84c1.46,0,2.88-.18,4.11-.12,6,.46,7.86,1.47,8.38,1.81s-.31.46,0,.81-.45.26-.8.43a32,32,0,0,0-9.31-.6,32.34,32.34,0,0,1,14.91,3.11l-.69-.67a34.05,34.05,0,0,1,6.11,3.26,31.78,31.78,0,0,1,8.35,9c2.81,4.36,4.72,7.24,6,9.6.75,1.17,1.55,1.43,1.5,1.56s-.68,0-1.39-.65c-1-1.47-3.5-3.91-7.05-8.89a29.13,29.13,0,0,0-9-8.65,30.71,30.71,0,0,0-21.19-4.79A22.12,22.12,0,0,0,163.18,31a22.87,22.87,0,0,0-1.62,13.92A23.27,23.27,0,0,1,170,22.84L170,23a23.1,23.1,0,0,0-5.82,7.24,20,20,0,0,0-2,14,31.66,31.66,0,0,0,2.33,6.46L170,61.78c2.75,5.69,6,12.55,9.08,18.78a26.57,26.57,0,0,0-2.88.52c-1.66.35-2.49.85-1.71.74a46.56,46.56,0,0,1,5.11-.19c.48,1,.93,1.83,1.39,2.75a28.48,28.48,0,0,0-16.36,5.53l-8.87-17.73,1,3.08-1.32-2.92-6.17-11.52c-.55-1.08-.94-1.64-1.63-3.16s-1.33-2.9-1.88-4.41l-1.36-4.66-.77-4.83a41.3,41.3,0,0,1,14.2-35.23l-2.26,1.76a41.6,41.6,0,0,0-10.32,45.34c1.69,4.24,2.62,5.74,3.81,8.28l3.44,7q5.12,10.41,10.25,20.43A29.77,29.77,0,0,0,155,101.77a28.2,28.2,0,0,0,.43,23.27l-.95,1.33-3.7,5.33a35,35,0,0,1-3.74-8.47,38.67,38.67,0,0,1,3.08-28.85c3.58-6.32,6.13-8.71,2.6-5.62a30.27,30.27,0,0,0-3.39,4.47,38.36,38.36,0,0,0-.07,40.7q-9,13.28-17.4,26.8c-11.46,18.57-22.14,37.6-32,57.62-12.53,25.38-25.42,55.45-33.65,85.28-4.91,17.62-8.55,35.73-9.73,54.44s.16,38.09,6,57A115.89,115.89,0,0,0,101.1,471.3c17.91,14.38,38.77,23.27,59.53,29.1,4,1.2,8.36,2.31,12.55,3.18s8.17,1.85,11.45,2.4c40.82,8,93.11,7.16,125.51,2.39,13.52-1.71,38.6-6.41,57.89-13.82l-1.87.84c3.31-.93,5.8-2,8.78-3a90.21,90.21,0,0,0,11.38-4.89A138.49,138.49,0,0,0,415,468.73a112.72,112.72,0,0,0,23-27.35,125.38,125.38,0,0,0,12.49-28.94A147.15,147.15,0,0,0,456,375.6C455.61,377.71,455.4,379.76,454.83,382.3ZM353.23,107A23.22,23.22,0,0,1,346,130.43c-.19.16-.36.24-.55.39-1.52-2.07-2.67-3.54-3.5-4.54a16.82,16.82,0,0,0,3.76-4.15c3.33-4.55,3.57-11.76,4.19-9.67.37,1.57.95.1.64-3.43a19.05,19.05,0,0,0-7.86-12.83,20.15,20.15,0,0,0-7.87-3.27l1.4-2.86A22.85,22.85,0,0,1,344,93.62,24.43,24.43,0,0,1,353.23,107Zm-89.36-17.5-5.75.16-71.55-.25-2.9-.06c.11,0,.16-.11.29-.11l57.1-.15,17.57.07c11.59,0,14.91-.17,13.42-.93l16.57.36,10.68.15,19.85.21-1.52,3.24c-.77-.06-1.49-.12-2-.18-4.25-.43-20.51-.86-29.69-.77-1.79,0-4.08.06-5,.13-6.11.48-6,.49-14.92.06l13.47-1.36c1.51-.17,1.17-.39,1.67-.58ZM334,86.76c-.51-.06-1-.07-1.55-.11,2.84-6.83,2.89-6.94,8.18-16.78l-6.34,16C334.15,86.29,334.07,86.54,334,86.76Zm-2.74,2.49a29.82,29.82,0,0,1,3.06.25h0l-1.5,2.94h0c-.88-.07-1.9-.11-3-.12Zm-28-63c8-8.79,20.62-13.42,32.13-10.7s19.86,14.54,19.13,26.4c-.16,7.3-4.52,13.69-7.67,20.48-6.53,13.28-8.23,17.16-6.7,15.79l-4.54,8.89c-.38-.07-.75-.17-1.13-.22l9.11-18.59,3.09-6.65c3.23-6.94,7.57-13.38,7.33-20.72a25.81,25.81,0,0,0-8.36-19.33,25,25,0,0,0-20.08-6.35A34.93,34.93,0,0,0,305.75,24a36.1,36.1,0,0,0-2.66,2.6A1.29,1.29,0,0,1,303.27,26.22Zm-26.75-4.91.29.16a31.78,31.78,0,0,0-7.12-4.14,33.82,33.82,0,0,1,9.72,5.83,30.86,30.86,0,0,1,4.94,5.58,59.63,59.63,0,0,1,5.3,8.95,70.46,70.46,0,0,0-5.57-8.49,35,35,0,0,0-8.52-8.27,36.77,36.77,0,0,0-11.78-5.36A34.93,34.93,0,0,1,276.52,21.31ZM169.35,48.77a18.54,18.54,0,0,1-2.08-7.66,17,17,0,0,1,6.13-13.71c.41-.31.9-.48,1.33-.74a22.06,22.06,0,0,0-2.8,2.92,16.73,16.73,0,0,0-3.33,16.83c.33.72.4,1.14.88,2.14L171,51.62l3.68,7.28.27,1Zm6.54,4.77-3.36-7a17.29,17.29,0,0,1-1.11-3.58,13.56,13.56,0,0,1,.8-7.12,12.36,12.36,0,0,1,10.84-8,21.2,21.2,0,0,1,9.62,2,24.39,24.39,0,0,1,4.46,2.79,25.1,25.1,0,0,1,2,1.81l.24.23a8.24,8.24,0,0,1,.91,1.12l1.23,1.8a19.84,19.84,0,0,1,2.3,3.87,29.41,29.41,0,0,0,2.5,4.11l2.79,2.93a22.11,22.11,0,0,0,4.77,2.76,12.25,12.25,0,0,0,3.35,1,16.2,16.2,0,0,0,4.79,0,12.29,12.29,0,0,0,3.42-.94l1.47-.6c.51-.23,1.19-.73,1.78-1.08a11.91,11.91,0,0,0,1.85-1.28l2-2c1.41-1,2.32-3.63,3.46-5.5s2.37-3.57,3.56-5.38a9.07,9.07,0,0,1,.85-.92l.35-.34a8.18,8.18,0,0,1,.7-.66A22,22,0,0,1,255.21,28a21.5,21.5,0,0,1,10.17,2,24.21,24.21,0,0,1,4.49,2.78c.67.59,1.36,1.15,2,1.81l.24.23a9.52,9.52,0,0,1,.89,1.07l1.26,1.85a20.46,20.46,0,0,1,2.36,4c1.07,1.84,2.06,4,3.36,5l1.85,1.92a11.61,11.61,0,0,0,1.74,1.19l1.71,1.07,1.39.56a12.5,12.5,0,0,0,3,.92,16.7,16.7,0,0,0,8-.53,23.17,23.17,0,0,0,2.86-1.26c1.17-.88,2.24-1.1,3.49-2.53s2.54-2.1,3.47-4.33a42.94,42.94,0,0,1,3.2-5.47l1.66-2.42a8.35,8.35,0,0,1,1.24-1.39,9.69,9.69,0,0,1,1.14-1,23.6,23.6,0,0,1,7.85-4.24,20.36,20.36,0,0,1,8.45-.79,13.05,13.05,0,0,1,9.54,7.6,11.79,11.79,0,0,1,1,5.93c-.26,2.6-.75,3.89-3.23,8.95l.23-.9c-1.56,2.64-2.61,3.93-4.8,8.21C329.49,66.72,325,75.85,321,84.91l-.74,1.62H279.72c-8.69.09-11.17.07-10.21-.27,1.78-.64-7.93-.7-14.68-.87l-56.11-.89-8.27-.08a25.22,25.22,0,0,0-1.07-2.65l30.38.36c8.22.14,14.94.41,25.06.26,7-.1,15.27,0,21.82,0l5.53-1.11,6.31-1c-9.86,0-22-.38-34.16.13-1.82.08-8.69,0-10.6-.11-4.67-.28-8.71-.61-11.3-1A88.37,88.37,0,0,0,210,79c-7.41.12-18.28-.1-20.2.62a8.07,8.07,0,0,1-1.36.21c-2.94-6.38-4.26-10.39-9.91-20.85Zm-15.73,48.62a23.23,23.23,0,0,1,9-9.24,26.92,26.92,0,0,0-7.5,7.93,24.27,24.27,0,0,0-3.51,10.49,24.43,24.43,0,0,1,1.33-6.62l0-.25a22.93,22.93,0,0,0-1.73,7.93A21.78,21.78,0,0,1,160.15,102.17ZM172.94,148a35.07,35.07,0,0,1-15.37-8.21c1.36-2,2.67-4,4.07-6.05a29.65,29.65,0,0,0,15.71,7.72l-.46.68L173,148.06Zm-17.21-7c.19.16.35.32.55.48q-16.48,24.25-31.06,49.7l-.1-.12c3.9-6.94,7.9-13.84,12-20.6C144.74,158.08,150.72,148.87,155.73,141Zm1.13-1.77.07-.1,4-6.12c.23.23.4.51.63.73h0c-1.39,2-2.76,4-4.13,6C157.28,139.57,157.06,139.42,156.87,139.23Zm.53-10.64c0,.08.08.16.13.24l-1.94,2.79-2.39,3.55-.18-.26Zm-32.85,51.27c8-13.76,16.79-27.75,25.88-41.2l1.17-1.69.23.25-3.65,5.42q-14.61,22.16-27.66,45.29l-2.75,4.53C120,188.28,121.77,184.62,124.54,179.86ZM110.63,462.41a103,103,0,0,1-24.23-27,102.78,102.78,0,0,0,7.75,10.64c-.57-.71-1.16-1.45-1.78-2.31a71.21,71.21,0,0,1-5-7C96,449.54,103.15,455,106.95,458.67a133.35,133.35,0,0,0,30.59,19.59A128.47,128.47,0,0,1,110.63,462.41Zm47.61,18.46c-19.43-6.33-37.71-15.76-51.36-28.82a94.14,94.14,0,0,1-16.05-19.24c-9.3-14.59-14.31-31.26-15.95-48.45-1.78-17.21-.25-35,3.23-53,.83-4.68,3.33-15.89,3.94-18.55,1.16-5.07,1.2-6.22,1.79-9.37,2-6.77,4.46-14.8,7.89-24.18l-3,7.54a514.1,514.1,0,0,1,21.5-51.4c7.46-15.55,15.24-30.59,24.7-47.08l2-2.61c6-10.19,12.17-20.45,22.06-35.48-2.73,4-4.46,6.6-5.17,7.68,0-.65,2.29-4.7-.66-.5-2.38,3.31-10.89,16.61-16.59,26.31-6.13,10.41-8.58,15-10.52,17.86-1.46,2.1-9.15,16.08-13.73,25-11.12,22-8,14.56-9.18,15.71-.4.42,0-.88,0-1.59.65-1.4,3.36-7.64,8.75-18.64-6.08,11.81-10.05,20.12-14.8,30.72l1.08-1.69c-2.1,4.81-5.1,12.15-5.9,14.1a433,433,0,0,0-16.09,44c-2.33,8-1.54,3.13,1.08-7a342.14,342.14,0,0,1,12.93-38.46c13.19-32.91,30.2-64.93,48.89-95.42,5.48-8.9,11.26-17.77,17.25-26.72,1.08.88,2.27,1.78,3.64,2.7a43.36,43.36,0,0,0,11.86,5.48l-.31.46c-2.38-.48-3.21-.76-2.08-.22.34.13,1,.36,1.82.62l-1.84,2.8Q154.91,176.08,142,199.75l2-3.22c5.71-9.91,11.77-19.83,17.79-29.32,3.47-5.46,7.06-10.89,10.71-16.29a36.23,36.23,0,0,0,9.67,1.2c12.35,0,25.51.33,36.85-.16,2.27-.1,4.9-.29,4.45-.42-2.71-.74-6-1.48-9.65-2.21-1.55-.32-5.39-.39-12.53-.34l-12.81.08-6.43,0a40,40,0,0,1-7.75-.83c1.52-2.23,3-4.47,4.58-6.67a29.64,29.64,0,0,0,4,.31c1.8,0,6.14-.14,7.17-.26a20.48,20.48,0,0,0,3.58-.78l9.56-.12-3-.25,20.9.16,19.91-.26,1.21.38,15.64-.06-3.46-.13c.21-.33,1.94-.62,0-.83-1.52-.16-7.42-.28-11.62-.3-4.51,0-6.44,0-7.74-.3-1-.21-6.91-.35-10.66-.52-9.21-.42-6.18-1-6.76-1.5-.2-.19.3-.37.55-.63l7.66-.24-12.67-.34.74.33h-5.68c-6.11-.37-12.79-.74-17.38-1.16-6.14-.56,7.23-1.26,17.6-1.32l39.76-.05,16.69-.11-26.62-.23,0-.15,8.84-.07c5.8,0,10.11,0,13.73-.33,3.32-.27,8.79-.3,16.26-.26,9,.06,21.44.34,27.87-.26,2.41-.23.39-.57.39-.86h25.27l-12.15-2.13,5.05-.14c-15.06-.2-7.58-1.13-19.9-1.45l12-.33c-3.93-.29-8.58-.5-6.3-1,1.78-.37-5.66-.83-8.12-1.27-1-.18,1-.39.48-.58a11.34,11.34,0,0,0-4.17-.65c-6.37-.1-9.36-.83-19.4-.31l-4.73,0c-16.39-.26-32-.16-48.29.1-10.33.17-22.17.16-33.23.13l-9.8,0a10.82,10.82,0,0,1-9.54-16.09,10.59,10.59,0,0,1,7.78-5.31,4.42,4.42,0,0,1,1-.08l.5,0h1.14l4.14.06c14.69.44,33.67.26,45.36-.29,4.89-.23,13.91-.25,21.06-.36l-.71.19a63.25,63.25,0,0,0,7.43.7c7.5.16,15.46.15,23.23-.19,5.52-.24,14.52-.27,23-.42l-2.31-.82c23.93-.14,14.26-1,13.28-1.74l13.22.14a14.79,14.79,0,0,1,6.46,1.7,13.6,13.6,0,0,1,6.42,7.89,14.86,14.86,0,0,1-.39,9.7c-.38,1.36-2.63,4.16-4.5,5.41A14.41,14.41,0,0,1,333,127a13.18,13.18,0,0,0,3.68-.65,35.26,35.26,0,0,1-4.31,1.8c-.61.28-.12.56,2.17.34,1.05-.13,0,.38.22.51s1.11.28,3-.31a14.87,14.87,0,0,0,3.73-2c1.12,1.92,2,3.49,2.77,5a26.32,26.32,0,0,1-10.93,4.53c-2.66.33-3.37.57-2,.87a45.9,45.9,0,0,0,5,1.05,37.7,37.7,0,0,0,9.42-3.7c.55,1.09,1.12,2.22,1.77,3.48,10.49,15.33,16.63,25.85,13.68,22.12,24.28,38.36,45.17,77.6,60.44,119l-.89-2.69c2.38,6.17,4.63,12.32,6.69,18.68,6.82,21.43,11.81,43.56,13,66s-1.75,45.25-12,65.13A100.17,100.17,0,0,1,419,441a96.44,96.44,0,0,1-15.87,16.61c-3.3,2.58-4.14,3.13-3.25,2.21,1.62-1.72-2.44,1.55-9.24,5.81s-16.44,9.23-24.86,12.24c-22,8.44-46.36,12.87-71.28,14.84a454.56,454.56,0,0,1-75.86-.32C198.45,490.52,177.73,487.22,158.24,480.87Zm15.17-330.74c-.06.15,1.59.75-.5.36l-.09,0,.29-.42Zm63.08-22.59c1.74-.13,3.23-.37,5.26-.38l17.89,0,10.64.08,6.39-.1.81.21-39,.32ZM444.68,385.6c-1.51,15.68-6.68,32.71-12.81,43.82-2.18,4.45-5.74,9.7-7,11.8A101.24,101.24,0,0,1,413.65,455a106.88,106.88,0,0,1-18.46,14.48,110,110,0,0,0,26.19-25.85c2.37-3.38,1.69-2.72,2.28-4a111.32,111.32,0,0,1-34.47,31.31,145.2,145.2,0,0,1-13.68,7.38c-29.52,13.39-61.92,18.18-93.84,19.9a467.88,467.88,0,0,1-48.08.08,334.24,334.24,0,0,1-47.79-5.35c-2.67-.43-5.18-1-7.65-1.61a4,4,0,0,1,.78.06c25.08,5.33,50.75,7,76.29,7.14,25.55,0,51.21-1.8,76.34-6.87,15.36-3.15,30.63-7.65,45-14.41,14.1-6.78,22.32-12.82,26.52-16.57,4.39-3.56,4.9-4.82,3.24-3.66,13-11.44,20.74-22.81,26.38-35.39a113.57,113.57,0,0,0,8.19-27.46c3.6-22.27,1.84-43.81-1.89-64a353.43,353.43,0,0,0-16.46-57.85c-4.58-12.51-11.78-29-18.76-43.23a723.93,723.93,0,0,0-35.87-64.66C359,150.24,352.05,140,347.4,133.54a26.2,26.2,0,0,0,5.24-5.67c.88,1.41,2.14,3.37,3.94,6.08,2.4,3.73-.63-.28-.24.61.85,2.46,6.05,9.47,26.89,44.36,10.83,18.24,21.11,40.87,17.22,34.48-5.95-9.1,9.21,18.26,24.28,56.8,8.24,21.39,15.08,43.69,18.78,66.45.73,5,1.32,10.25,1.46,13.45A193.79,193.79,0,0,1,444.68,385.6ZM126.77,456.35c6.09,4.15,1.05,2.1-8.57-4.79s-22.46-20.25-29.13-37.8c-7.53-19.17-8.88-41-6.59-62.68s8-43.34,15.3-64.28c6.23-17.57,10.55-26.72,12.38-30.35,4.48-8.37,8.87-16,12.67-22,.65-1-2.27,5.25-4.66,10.69-12.14,27-24.72,59.12-30.35,90-2.17,11.83-2.61,18.5-3,20.8s-.32.23.11-5.47c.23-3.42-.25-.65-.4-.71a158.17,158.17,0,0,0-1.13,23.79,111.8,111.8,0,0,0,3,22.32,89.4,89.4,0,0,0,33.27,55.31C122.31,453.4,125.69,455.42,126.77,456.35Zm45.65,25.8c-2.69-.86-8.45-2.74-11.61-3.92-1.44-.62.32-.14,3.6.62L173.2,481l9.79,2c6.35,1.06,11.75,1.76,13,1.83,2.54-.08,10.76,1.21,20.91,2,5.05.5,10.58.88,16.07,1.08s10.92.43,15.8.46c16.57.13,26-.19,32.55-.22,3.41,0,7.77,0,12.79-.39s10.73-.67,16.8-1.4c5-.26,22.63-3.65,27.18-4.93,15.19-4,30-9.19,42.79-16.35s23.68-15.8,31.25-25.36a103.64,103.64,0,0,1-10.13,12,110.34,110.34,0,0,1-10.43,9.42c-13.71,9.73-34.12,17.45-51.75,21.9-25.81,6.13-43.68,7.36-65.36,8.22C241.94,491.93,207.6,490.9,172.42,482.15ZM240,152.37l-1.45-.18,40.94-1.87,2.51.1L279.5,150l22.36-.24c2.46,0,5.93.08,7.81.17,11.75.61,6.55,1.65-8.13,2.11-15.62.49-32.36.25-48.51.36ZM208.26,334.62a3,3,0,0,1,1.68-3.55,3.8,3.8,0,0,1,1.7-.42,2.88,2.88,0,0,1,.34-1.41l.45-.86a1.68,1.68,0,0,1,1.44-.88h.56a1.69,1.69,0,0,1,2.63.1l6.62,9.05a41,41,0,0,0,24,16.24l.64.14a2,2,0,0,1,.59.26c.82.2,1.67.34,2.58.5A56.12,56.12,0,0,0,267,354a35.74,35.74,0,0,0,14.14-4.37c.61-.36,1.19-.73,1.73-1.12l-1-1.14a1.54,1.54,0,0,1,.12-2.18l.45-.41a15.76,15.76,0,0,0,4.11-5.77,12.09,12.09,0,0,0,.58-1.75l.24-1c.07-.52.14-.87.2-1.17a23.63,23.63,0,0,0,.39-4.54,18,18,0,0,0-.76-4.18,10.91,10.91,0,0,0-2.49-3.81l-.74-.68a19.57,19.57,0,0,0-3.77-2.89c-2-1.38-5.66-2.39-7.83-3a19.23,19.23,0,0,1-2.61-.83h0c-.12,0-3.8-.72-6.73-1.1-.88-.14-3.12-.5-3.75-2.28-1.34-.13-2.64-.3-3.95-.45a3,3,0,0,1,.13,1.23c-.09.64-.64,2.77-3.81,2.77h-.52l-3-.39c-7-1.3-13.86-2.79-21.18-6.77a37.85,37.85,0,0,1-6.9-5.55,33.37,33.37,0,0,1-3.37-4.26,4,4,0,0,1-1.48-1.54l0,0-.21-.39a21.13,21.13,0,0,1-2.48-8.49c-.59-7.15,1.81-12.72,4.25-17.24a40.07,40.07,0,0,1,10.06-11.78c2.61-2.24,4.48-3,6.1-2.55l.86.27a1.6,1.6,0,0,1,1.12,1.2l.38,1.79c0,.2-.15.34-.18.53a38.66,38.66,0,0,1,6.52-3.37,1.64,1.64,0,0,1-1-.91l-1.22-2.87a1.56,1.56,0,0,1,.83-2l1.62-.72a46.94,46.94,0,0,1,7.11-1.91,11.77,11.77,0,0,1,.16-2.1c0-.13.07-.29.12-.46l-.22-.51a1.58,1.58,0,0,1-.11-.59v-.42c0-.27,0-.63,0-1,0-.49,0-1,0-1.49a29.73,29.73,0,0,1,.15-3.65c0-.24.08-.5.13-.77l-.44-2.85a1.56,1.56,0,0,1,1-1.69,1.67,1.67,0,0,1,2,.55l.44.59a1.89,1.89,0,0,1,.8-.05,3.17,3.17,0,0,1,.81.1l0-2.92a1.57,1.57,0,0,1,.79-1.34L253,227a1.55,1.55,0,0,1,.49-2.05,1.7,1.7,0,0,1,2.18.23L258.4,228a1.64,1.64,0,0,1,1-.58,1.69,1.69,0,0,1,1.79.93l2.18,4.84,1.08,1.08a1.59,1.59,0,0,1,.52.67c.94,1,2.16,2.32,1.73,3.9A30.44,30.44,0,0,1,268,247.7a39.61,39.61,0,0,1,5.11,1,43.09,43.09,0,0,1,18.35,9.78c5.2,4.78,7.18,8.52,7.52,9.22,1.18,2.79-.41,4.08-1.15,4.5-2.47,1.47-4.05-.35-5.44-1.92l-2.07-2.31a54.18,54.18,0,0,0-3.89-3.78,37.38,37.38,0,0,0-14-7.83l-.61-.19a1.7,1.7,0,0,1-.67-.4c-1.12-.32-2.28-.6-3.46-.83-.05,1-.1,1.94-.13,2.86.83.13,1.65.29,2.47.46,5.91,1.24,13.39,5.55,16.32,9.43a4.32,4.32,0,0,1,.88,1.54,38.67,38.67,0,0,1,7.41,11.9l.22.55a1.56,1.56,0,0,1-.84,2l-2.88,1.31a1.71,1.71,0,0,1-2.15-.66l-.3-.52c-.36-.61-.74-1.21-1.13-1.79a1.66,1.66,0,0,1-1.3-.81l-.31-.54c-.42-.7-.8-1.33-1.15-1.88a1.39,1.39,0,0,1-1.39-.62l-.38-.47c-.41-.52-.81-.95-1.1-1.28a8.13,8.13,0,0,1-2.12-1.43l-.77-.64-.07,0-.72-.27a11.9,11.9,0,0,1-2.46-1.37c-2.61-1.74-3.77-2.2-8.33-3.83a8.21,8.21,0,0,0-1.77-.36,37.64,37.64,0,0,0-12,.22,28.71,28.71,0,0,0-10.57,4.08c-4.11,2.59-7.63,7-8.79,11-.9,3.09-.31,5,5.54,7.73,5.85,2.62,14,4.33,25.51,5.36l6.2.67a45.62,45.62,0,0,1,19.33,6.29,30.46,30.46,0,0,1,13,15.77,21.66,21.66,0,0,1,.81,2.49,1.7,1.7,0,0,1,.56,0,1.6,1.6,0,0,1,1.33,1.67l-.69,8.89a32.88,32.88,0,0,1-.27,3.57l-.22,2.75a19.51,19.51,0,0,1-.92,4.51,32.63,32.63,0,0,1-13.23,17,48.51,48.51,0,0,1-18.33,7l-5.21.78v.14c.3,5.43.44,10.68-1,15.37.54,1.63-.79,3-1.71,4l-1.84,2.13-1.93,4.46a1.76,1.76,0,0,1-1.79.95,1.69,1.69,0,0,1-1-.54l-2.9,3.1a1.69,1.69,0,0,1-2.19.23,1.54,1.54,0,0,1-.5-2.05l1.7-3a1.57,1.57,0,0,1-.8-1.35v-3a2.86,2.86,0,0,1-1.49.06l-.33.46a1.66,1.66,0,0,1-2,.58,1.57,1.57,0,0,1-1-1.67l.32-2.42a7.15,7.15,0,0,1-.2-1.13,27.25,27.25,0,0,1-.16-3.5c0-.63,0-1.14,0-1.61s0-.7,0-1l.19-1.3a1.39,1.39,0,0,1,.09-.31c0-.09,0-.18-.06-.24a15.56,15.56,0,0,1-.14-3.3l0-1a5.51,5.51,0,0,1,.24-1.83v0a1.43,1.43,0,0,1-.06-.6l.31-3.11c0-.07,0-.12,0-.18-1.76-.24-3.34-.51-4.8-.84-9.76-2.26-19.62-7.81-25.74-14.52a59.11,59.11,0,0,1-6.25-7.36,51.74,51.74,0,0,1-4.17-7.25l-.27-.55A1.54,1.54,0,0,1,208.26,334.62Z"/></svg>