<svg id="Layer_1" data-name="Layer 1" xmlns="http://www.w3.org/2000/svg" viewBox="0 0 512 512"><defs><style>.cls-1{fill:#40c168;}.cls-2{fill:#1f8c3e;}.cls-3{fill:#17292d;opacity:0.12;}</style></defs><title>money-bag-flat</title><path class="cls-1" d="M344.35,118.15h-24L358,41.24C367.3,22.36,353.91.12,333.21,0a38.62,38.62,0,0,0-35.59,24.1,3.21,3.21,0,0,1-6,0,38.33,38.33,0,0,0-71.18,0,3.21,3.21,0,0,1-6,0A38.62,38.62,0,0,0,178.79,0C158.09.12,144.7,22.36,154,41.24l37.7,76.91h-24S-127.78,512,256,512,344.35,118.15,344.35,118.15Z"/><path class="cls-2" d="M263.47,236.31c5.35,0,7.07,1.72,7.07,6.88V251c15.49,2.67,26.39,10.89,32.89,24.85,2.87,5.36,1.53,8.22-4.4,10.71l-13.19,5.93c-5.16,2.29-7.65,1.53-10.52-3.82-3.82-7.46-8.79-11.09-19.31-11.09-13.57,0-19.31,2.87-19.31,11.09,0,7.07,8,9.75,22.75,11.28a133.28,133.28,0,0,1,21.79,3.63,37.34,37.34,0,0,1,10.33,4.4c8.6,5.16,16.82,15.1,16.06,31.54,0,20.46-13.39,34.61-37.09,39v8.22c0,5.36-1.72,7.08-7.07,7.08H248.94c-5.16,0-7.07-1.72-7.07-7.08v-7.84c-18.74-2.87-31-12.24-36.9-27.91q-2.58-7.46,5.16-10.32l13-4.59c5.55-2.1,8.22-1,10.71,4.59,3.06,7.84,10.13,11.66,21,11.66,14.53,0,21.79-4,21.79-12.24,0-7.64-7.46-10.13-22.56-11.66-10.71-1.34-16.26-1.91-26-5.74A33.19,33.19,0,0,1,216.24,316c-5.93-5.16-10.9-14.91-10.9-27.34,0-20.08,12.81-33.84,36.52-37.66v-7.84c0-5.16,1.91-6.88,7.07-6.88Z"/><path class="cls-2" d="M334.77,131.28H177.23A26.26,26.26,0,0,1,151,105h0a26.26,26.26,0,0,1,26.26-26.26H334.77A26.26,26.26,0,0,1,361,105h0A26.26,26.26,0,0,1,334.77,131.28Z"/><path class="cls-3" d="M350.19,126.27a26.13,26.13,0,0,1-15.42,5h-44.1C350.22,231.07,476.48,487.71,216,510.34c12.45,1,25.68,1.66,40,1.66C607,512,389.82,182.5,350.19,126.27Z"/></svg>