<svg id="Layer_1" data-name="Layer 1" xmlns="http://www.w3.org/2000/svg" viewBox="0 0 512 512"><defs><style>.cls-1{fill:#707070;}</style></defs><title>chart-presentation-1-handdrawn</title><path class="cls-1" d="M13.15,65.13c.11.8.21,1.65.33,2.52-.1-.63-.27-1.25-.35-1.88Zm498.79-2.67a56.2,56.2,0,0,1-3.17,16.89A53.1,53.1,0,0,1,498.3,96.9,52.22,52.22,0,0,1,470.78,113a51.6,51.6,0,0,0,17-7.91c-9.45,6-18.05,7.47-21,7.68l-.39,0,.15,112-.09-3.35c-.06,7.83-.12,15.58-.18,23.48v100c0,6.67-.43,13.7-2.53,20.22a63.14,63.14,0,0,1-42.48,42.59,65.23,65.23,0,0,1-17.28,2.5l-10.52,0c-5,0-6.21.12-4.69.29,5.61.62-25.05.69-46.39.85l-70.94.35c0,.57-.05,1.14-.11,1.72,0,.28,0,.6,0,.89,11.86-.06,24.45-.08,39.44,0l69,0,17.48,1.09c5.48.35,13.47.79,21.52-.67a71.45,71.45,0,0,1-13.44,1.64c-4.45.15-8.42.06-12.79.1l-26.67.07c-18.31,0-37.5,0-56.65-.25l-33.51.11-4.44.09c0,.78,0,1.57,0,2.34,0,2.11.21,4.19.25,6.3,0,2.43,0,4.88,0,7.33a8.77,8.77,0,0,0,.07,1.4,18.06,18.06,0,0,1-.29,7.31,24.92,24.92,0,0,0-.36,3.39l.19-.11c.24.39.61.59.69,1.2a9.69,9.69,0,0,1-.19,3.74c0,.08,0,.21,0,.3a25.46,25.46,0,0,1,4.24,2.71c4.13,3.18,7.54,7.87,8.75,12.26a39.14,39.14,0,0,1,1.48,4.94,21.89,21.89,0,0,1,.21,4.39,18.58,18.58,0,0,0-.7-2.47c.08,3-.44,4.46-1.08,1.84-.16-.59-.35.11-.53,0-.6-.27-.8-1.48-2.56-6.44-1-2.65-3.64-4.71-3.57-3.63,0,1.52-2.2-1.54-5.74-4.61a21.11,21.11,0,0,0-3.3-2.32c.06.9.14,1.81.13,2.66,0,.32,0,.64,0,1,.43.25.87.47,1.28.75a15.87,15.87,0,0,1,3.31,3.38,20.33,20.33,0,0,1,3.34,6.68c1,3.86.42,5.45-.2,4.69a8.39,8.39,0,0,0-1.68-1.14c-.19-1.67-.72-2.65-1.13-2.14a16.47,16.47,0,0,0-5.16-8.54,10.84,10.84,0,0,1-.19,1.4c-.11.4,0,1.41,0,2.06a15.55,15.55,0,0,1-.36,1.77l-.45-1c-.32,1.23-.74,1.87-1.3.72-.13-.26-.36,0-.53,0-.47-.15-1-.66-1.1-3.08-.06-1.26-1.12-2.74-1.63-2.29-.73.64-1.41-1.18-1.39-3.61a17.06,17.06,0,0,0-2.84-.44c0,.1,0,.2,0,.3a27.53,27.53,0,0,1,.13,2.82c.06,1.48.09,3,.18,4.43.15,2.32-.12,3.22-.82,2.78a14,14,0,0,0-1.62-.77c0-1.12-.32-1.85-.83-1.57-.07-2.7-.14-5.33-.21-8h-.08l-1.52.25c-2,.37-2.47.71-2.16.91.58.44-1.42,1.21-2.52,2.18a16.06,16.06,0,0,0-6,9.73,13.7,13.7,0,0,0,1.21,9c.32.46.54,1.15.92,1.67a12.54,12.54,0,0,0,5.58,5.45,5.88,5.88,0,0,1,1.19.82,2.86,2.86,0,0,1,.43,1,16.75,16.75,0,0,0,1.92.64,5.63,5.63,0,0,1-.68.09,17.69,17.69,0,0,0,4.48.24,17.89,17.89,0,0,0,4.25-.56l.12-.44a13.58,13.58,0,0,0,3-1.4l-.57.49c.19.26.67.3.41.71a6.48,6.48,0,0,1-2.28,1.38c-1,.41-1.41.45-1.63.81a7.64,7.64,0,0,1-2.41,1c-2.2.52-1.5,1-1.62,1.56-.05.18.08.36.15.61.16,0,.84.09,2.09.1a19.49,19.49,0,0,1-3.48.43l.22-.32-1.55-.12a29,29,0,0,1-5-.09c-1.92-.18,1.53,2.13,4.79,2.52a21.64,21.64,0,0,0,12-1.8,28.24,28.24,0,0,0,4.46-2.58,22.54,22.54,0,0,1-7.23,4l0,.14a21.74,21.74,0,0,0,2.64-.9c1.68-.76,2.85-1.44,4-1.85a11.77,11.77,0,0,0,4.09-3.25c2-2.17,3.72-5.78,4.92-7.57.48-.67.57.07.83.17a24.07,24.07,0,0,0,1.5-8.4,25,25,0,0,1,1.7,4.45l.4-1.83a14.53,14.53,0,0,0-.07,4.16c.12.64.38,1.2-.33,3.51a29.67,29.67,0,0,0,1.67-4.4c-.08,1.57-.4,3.44.29,2.69.59-.6,0,2.46,0,3.6,0,.45.54-.25.61,0a2.54,2.54,0,0,1-.2,1.92c-1.2,2.5-1.26,4.17-4.55,7.27l-1.45,1.52a29.28,29.28,0,0,1-19.1,8.95,35.09,35.09,0,0,1-14.45-1.91,31.26,31.26,0,0,1-21.1-28.45c-.1-1.29,0-2.8,0-3.85a26.66,26.66,0,0,1,2.27-10.38,25.87,25.87,0,0,1,5.46-7.88,40.87,40.87,0,0,1,7.13-5.83h-.37a10.27,10.27,0,0,1,2.49-2.28,22.55,22.55,0,0,1,7.37-2.63,7.45,7.45,0,0,1,.1-1.22,5.26,5.26,0,0,0-.11-1.71,6.71,6.71,0,0,0-.93-1.82,2.6,2.6,0,0,1-.37-2c.12-1.19-.1-2.95.61-3.25.34-.15.64-1.35,1-2,.11-.21.27-.32.39-.23a5,5,0,0,1,.63.76c.18,2.23.31,4.3.51,6.28a18.08,18.08,0,0,1,.26,4c0,.23,0,.5,0,.75.17,0,.33-.08.5-.1.68-.07,1.48-.12,2.35-.15-.33-2.56-.55-5.23-.77-7.93-.2-2.46-.17-5.07-.49-7.42a13.81,13.81,0,0,1,0-1.57c0-2.17.36-4.24.15-6.48a2.78,2.78,0,0,1,.25-1.16,2.38,2.38,0,0,1,.76-.58l.12-1.54.24.49c0-.23,0-.4,0-.62l-8.3.24c0,.08,0,.12,0,.2-.12,2.74-.2,5.53-.19,8.29,0,2.51-.91,4.91-1.63,3.93a1.73,1.73,0,0,1-.17-.59c-.22-1.48-.43-3-.66-4.55a10.09,10.09,0,0,0,.61-1.5,9.56,9.56,0,0,0,0-1.54c-.16,0-.34-.18-.46,0-.4.73-.59.53-.6-1,0-1-.08-2.12-.09-3.18l-3.49.13c-7.84.32-19.21.48-39.1.37-23.42-.12-57.79.1-63.83-.61-1.47-.17-8.07-.33-15.88-.49-4-.14-7.82,0-12.45-.37a64.93,64.93,0,0,1-12.28-1.83c-4.46-1.22-6.79-2.11-4.7-1.62,4.47,1.06,12.57,2.44,16.38,2.16,44.46.14,84.47-.22,123.48-.35l12.13-.07s0-.06,0-.09c.1-.37.29-.79.41-.72.37.22.74.53,1.11.8l9.57-.06c0-.11,0-.24,0-.35,0-.74.1-1.5.18-2.27L165,412.2l-36.6.12c-6.19,0-12.24.1-18.58,0a63.58,63.58,0,0,1-19.28-3.38,65,65,0,0,1-31-22.47,64.82,64.82,0,0,1-13-34.89c-.45-9.38-.14-20.66-.23-31.14,0-42.54.1-83.09.15-127.16,0-5.7.13-19.42.25-22.67.23-6.2.48-7.53.76-11.32,0-8.4.07-18.37.12-30.21l.24,9.6c0-7.49,0-14.55-.06-21.47l-.13,0a51.27,51.27,0,0,1-8.14-1.95c0,5.47,0,12,0,19.9-.06,53.78-.13,108.38-.19,162.57-.05,12.29-.1,24.45-.15,35.48,0,5.58-.08,10.88-.12,15.77a74.58,74.58,0,0,0,1.75,15.49A84.4,84.4,0,0,0,47,382.3c1.42,2.6.56,2.19-2.09-3a62.82,62.82,0,0,1-5-13.14,67.81,67.81,0,0,1-2.25-13c-.11-2.12-.3-4.63-.3-6.43l0-5.48q-.08-11-.16-22.09c-.11-14.82-.22-29.85-.33-45.23l.61-29.39c0-5.88,0-19.89,0-30.23-.16,0-.34-3.48-.46.83-.4,14.39-.59,10.48-.6-19.53,0-19.41-.07-39.46-.11-59.12,0-7.58.06-15,.08-22.42-1.15-.44-2.33-.8-3.44-1.32A56.48,56.48,0,0,1,.41,54.64c2.67-23.9,21.83-44.5,45.5-48.74a55.25,55.25,0,0,1,7-.87l3.6-.17h2.7L69,4.8c34.69-.43,79.54-.26,107.15.29l49.74.36-1.68-.19c5.66-.24,8.65-.61,17.56-.69,17.71-.16,36.51-.14,54.88.19L351,5.16,345.5,6c56.53.14,33.69,1,31.36,1.71l60.74-.2h17.15c2,0,3.63,0,6.28.12a53.43,53.43,0,0,1,27.17,8.91C504.22,27.06,512.84,45.93,511.94,62.46ZM265,502.92a6.48,6.48,0,0,0,2.1-.27,26.15,26.15,0,0,0,6.35-3.2,31.45,31.45,0,0,0,3.27-2.66c.62-.56,1.29-1.1,1.87-1.71l.07-.38a28.43,28.43,0,0,1-13,7.87ZM24.11,90.35a42.68,42.68,0,0,1-8.67-14.9,44.57,44.57,0,0,0,4.26,8.76c-7-11.92-6.33-20.48-6.33-25A43.59,43.59,0,0,1,26.11,30.13,42.43,42.43,0,0,0,13.23,54.5C11.22,66.09,14.71,80.6,24.11,90.35ZM71.84,392.46a66.53,66.53,0,0,1-10-11.54,62.38,62.38,0,0,1-8.27-18.68c-2-7.28-2-15.4-2-24s-.15-17.33-.23-26.1c0,13.3,0,24.56.06,35.82v.81c-.15-5.4-.1-10.87-.21-26.7,0,18-.52,28.34.58,34.39A59,59,0,0,0,71.84,392.46ZM53.09,168.24c.52,18.4,1.16-18.64,1.28-50.45-.78,0-1.55-.07-2.33-.12C52.42,135.73,52.82,154.77,53.09,168.24ZM243.26,407.68c0-.13,0-.26,0-.4l-116.63.13-9.18.06a5.61,5.61,0,0,0,.91.11Zm24.69,0c0-.15,0-.3,0-.44h-.27l0,.44Zm-5.47-.44h-.83l0,.43h.71s0-.05,0-.07A2.75,2.75,0,0,0,262.48,407.26Zm-.86,0-17.11,0-.11.4h17.2C261.62,407.55,261.61,407.41,261.62,407.26Zm-2.75,36.4q-.1-5-.21-10a4.09,4.09,0,0,0-.06-.47s-.11,0-.11,0c-.05,3.07-.11,6.13-.15,9.2,0,.38,0,.77,0,1.15Zm-.43-17.42,0,1.83,0,0-.15-1.36a13.11,13.11,0,0,0-.14,1.76c.1.78.28,1.46.42,2.17A9.55,9.55,0,0,0,258.44,426.24ZM241.4,486a19.19,19.19,0,0,1-1.47-2.63v-.08a20.67,20.67,0,0,0,1.16,1.92c-.68-1.34-.92-2.17-1.14-2.63a26.74,26.74,0,0,1-1.41-3.3A11.5,11.5,0,0,0,241.4,486Zm14.43-29h0c0-.87,0-1.74,0-2.61-.35,0-.75,0-1.05.09a10.4,10.4,0,0,1-1.47.1c-1.85,0-1.92-.1-4.24,1.24a17.55,17.55,0,0,1,4.09.1c.44.06.39.3.56.46a20.85,20.85,0,0,0-4.43,1.45,14.5,14.5,0,0,0-1.46.57,19.52,19.52,0,0,0-9.71,15.83l0,.78s.11,0,.11-.07a19.19,19.19,0,0,1,6.22-13.39,20.32,20.32,0,0,1,3.71-2.79c2.73-1.46,3.71-1.33,3.55-.55A18,18,0,0,1,255.83,457Zm-.16,2.1v-.08h-.05Zm5.86-2c0-.63,0-1.26,0-1.89a1.76,1.76,0,0,0-.3-.8s0-.12-.06-.16c-.94,0-1.94,0-3,0,.07.87.14,1.73.25,2.56h.17A22.14,22.14,0,0,1,261.53,457.18Zm-.12-40.56-2.16.05a16.75,16.75,0,0,0,.93,2.24C260.67,419.79,261.25,418.16,261.41,416.61Zm.1-4.89-5.35,0s0,0,0,0a6.47,6.47,0,0,1,.52,1.72,1.83,1.83,0,0,0,.44.86h1.69l.21-1.08.18,1.08h2.29C261.5,413.46,261.52,412.59,261.51,411.72Zm241-371.91c-3.94-6.94-7.37-9.7-5.22-6.71,1.43,2.25,1.3,2.4,0,.88a58.48,58.48,0,0,0-8.17-8.29,47.61,47.61,0,0,0-18.53-9.44,49.2,49.2,0,0,0-12.85-1.55l-13.07,0-60.18,0c-4.34,0-8.94.18-11.71.3-10,.42-48.46.85-70.13.75l-11.74-.13c-14.43-.48-14.19-.48-35.24-.06l31.82,1.34a11.92,11.92,0,0,1,4,.57H250.54L237,17.35l-169,.25-6.86.06a3.19,3.19,0,0,0,.68.11l134.89.15,41.49-.07c27.39,0,35.23.16,31.69.92L309,18.41l25.22-.15c39.5-.06,74.67-.37,109.37-.75,5.91.08,12.58-.4,20,.22a44,44,0,0,1,31.91,67.7,44.41,44.41,0,0,1-16.34,15,40.12,40.12,0,0,1-13.66,4.43c-6.95.73-8.66.2-5.35-.2,4.8-.68,7.2-1.89,10.83-3.45a40.11,40.11,0,0,0,15.87-9.62c2.84-3,3.62-4.37,2.12-3a40.62,40.62,0,0,0,1.55-52.38,41.2,41.2,0,0,0-23.35-14.61c-4.57-1-9.21-.95-14.17-.92l-14.63,0,2.51-.09-17.55-.18H288c-20.54-.09-26.38-.07-24.12.26,4.2.62-18.73.69-34.68.85l-132.55.88-27.35.12c-4.56,0-9.3,0-13.73.1A36.83,36.83,0,0,0,43.28,25,38.92,38.92,0,0,0,24.19,40.25,38,38,0,0,0,18.1,63a40.22,40.22,0,0,0,1.73,9.86,42.49,42.49,0,0,0,4.66,9.7,39.45,39.45,0,0,0,16,13.74,36.1,36.1,0,0,0,10.08,3.11c3.42.65,7,.53,11.07.57h48c4.26,0,14.51.13,16.94.25,4.63.23,5.62.48,8.46.76l22.58.12-7.17.24,49.37-.16,47,.26,2.86-.37,36.94.06-8.18.12c.49.32,4.59.61.05.81-3.6.16-17.53.28-27.46.3-10.67,0-15.22,0-18.29.29-2.25.2-16.32.35-25.18.52-21.77.41-14.61,1-16,1.48-.48.18.71.37,1.29.62l18.09.23-29.94.34,1.74-.33H169.3l-41.06,1.14c-14.5.55,17.09,1.23,41.58,1.3l93.93.05,39.42.11-62.88.23,0,.14,20.89.07c13.71,0,23.89,0,32.43.33,7.85.26,20.76.3,38.4.25,21.3-.06,50.65-.33,65.83.26,5.7.22.92.56.92.84h59.69l-28.71,2.09,11.94.14c-35.57.2-17.92,1.11-47,1.42l28.23.32c-9.28.28-20.27.49-14.89.95,4.21.36-13.36.82-19.17,1.24-2.34.17,2.42.38,1.13.57a61.63,61.63,0,0,1-9.86.63c-15,.1-22.11.81-45.82.3l-11.17,0c-38.73.26-75.61.16-114.08-.1l-78.49-.13-46.22.12-20.28.07c0,15.65,0,31.69,0,47.21.08,41.38.17,82.28.25,123.67q0,17.91,0,35.87v22.45l.17,3.6a46,46,0,0,0,.9,6.85c3.67,18.16,19.42,33.35,37.67,36.38a37,37,0,0,0,5.45.63l2.81.16H115l13.08-.06c46.42-.43,106.42-.26,143.35.29l66.54.36-2.25-.19c7.57-.24,11.58-.61,23.49-.69l36.38-.09c3,0,6.43.07,9,0a44.87,44.87,0,0,0,7.06-.63,46.44,46.44,0,0,0,32-21.18,43.51,43.51,0,0,0,5.92-13.91,24.28,24.28,0,0,0,.75-3.82,22.72,22.72,0,0,0,.45-3.89c0-1.4.2-2.4.2-4.13l0-5,.74,7c.26-75.07,1-44.91,1.77-41.68-.07-29-.14-55.37-.2-81.27,0-37.69,0-77.48.35-111.27a28.84,28.84,0,0,0,4-.38c.32,19.85,1.08,37.07,1.49,30.09.74-12.64,1.43,23.87,1.39,72.17,0,26.79,0,53.81,0,80.51,0,5.8.18,12,.3,15.67l.31,16.25.14,11.7c.09,4.22.09,8.6-.17,12.82a57.79,57.79,0,0,1-24.54,41.91c-4.45,3-10.67,6.08-13.27,6.71a61.46,61.46,0,0,1-18.8,3.13l-26.85.35,22.19.67c7.2.29,13.72,0,19.68-1.58a36,36,0,0,1,5.07-1.08c-8.4,3.28-17.3,4.13-26.44,3.9h-27.3l-18.16-.15-81.29.09q0,.23,0,.45l27.34,0,55.51-.07c36.64,0,47.13.16,42.4.92,20.44,1,36.23-5.59,48-16.54a57.18,57.18,0,0,0,10.42-12.8,58.32,58.32,0,0,0,6.73-15.48c1.91-6.31,2.28-12.8,2.23-19.21s0-12.79-.06-19.07c-.06-12.57-.11-24.85-.16-36.94-.17-24.17-.33-47.54-.49-70.75,0-15.65-.08-36.77-.13-55.4,0-16.52-.07-33.12-.1-49.65a33,33,0,0,0,3.25-1.31v1l.13,0a58.26,58.26,0,0,0,9.27-2.77c4.31-1.73-.71-.12.17-.63a88.63,88.63,0,0,0,10.36-6,55.42,55.42,0,0,0,11.25-10.78,50.07,50.07,0,0,0,10-23C509.5,58.52,506.46,46.65,502.48,39.81ZM248.56,114.51l42.26,0,25.14-.08,15.1.1,1.92-.2L240.75,114l-4.6.16C240.25,114.26,243.78,114.49,248.56,114.51ZM13.78,69.25c-.1-.53-.21-1.07-.3-1.6C13.55,68.15,13.68,68.71,13.78,69.25Zm1.66,6.2c-.15-.43-.31-.87-.44-1.3C15.12,74.56,15.28,75,15.43,75.45Zm-1-3.23c.15.59.34,1.25.55,1.92a45.24,45.24,0,0,1-1.22-4.9A26.16,26.16,0,0,0,14.44,72.22ZM107.84,90c-22.44,0-25.35.2-14.6.6,3.22.12.58.31.62.46L71.26,91,59,90.7l-2.55-.09-1.68-.18a20.08,20.08,0,0,1-3.13-.5A29.35,29.35,0,0,1,27.29,56.56a33.17,33.17,0,0,1,1.42-5.85c.75-2.4.88-2.77.09-1.68A23.22,23.22,0,0,0,26,57a29.19,29.19,0,0,0,1.31,15.38A31.19,31.19,0,0,0,39.14,87.56,30.7,30.7,0,0,0,49.36,92c3.7.87,6.93.91,12.57.88l30.45,0L153,93c16.86,0,25.93,0,29.59-.34,8.51-.72,16.39-1.44,22.78-2.17,1.06-.12-5.15-.31-10.51-.41C168.1,89.65,137,90,107.84,90ZM270.15,25.5l-13.07-1.09-51.55,0c-23.91-.15-39.78.12-59.19.26l-91.72.61a32.51,32.51,0,0,0-9,2.29c-1.07.54.26.1,2.74-.35A32.33,32.33,0,0,1,55,26.57c2.35-.09,6,.11,8.75.15,5.84.16,10.78.32,11.87.49,4.52.7,30.2.49,47.71.61,14.87.1,23.37-.05,29.23-.37,6.12-.34,15.66-.66,26.7-.93,4.51-.11,20.75-.18,25-.11,28.62.5,57.39.11,80.69.13Zm5.09,64.25H244.46l-3.42.18,96.71,1.84,5.94-.1-5.93.44,52.83.23L409,92.18c27.76-.6,15.48-1.62-19.22-2.07C352.92,89.63,313.38,89.86,275.24,89.75Zm10,252c-17.78,9.63-40.18,11.74-59.06,7.95A87.22,87.22,0,0,1,191,333.11a93,93,0,0,1-18.51-19.24c-1.56-1.82-4.19-6.95-4.85-8.12a21.13,21.13,0,0,1-1.46-4.54c-.71-1.58-1.61-3.26-2.36-5.19l-2.27-6.38,1.59,3.64a80.61,80.61,0,0,1-5.63-26.49,81.53,81.53,0,0,1,2.73-25.64l0-1.62c1.41-5.59,3.54-11.09,7.49-18.92l-1.85,4.12c.41-.11,1.64-2,.75.32a105.46,105.46,0,0,0-5,14.1c-1.54,5.6-1.84,8.07-1.79,9.77,0,.62-.32,2.81-.48,5.45l-.15,8.14c1,11.7,1.36,7.76,1.9,8.45.19.23.34-.41.58-.74.06-.71-.27-3.86-.08-9.5a82.42,82.42,0,0,0,1.51,15.57l-.46-.85.62,4,.76,2.88c1.9,7.36,5.81,14.7,8.67,19.51,4.33,6.16-3.89-8-6.37-20.34a79.08,79.08,0,0,1-2.07-23.64c0-4,.89-7.93,1.43-11.89,1-3.86,1.82-7.79,3.37-11.48a77.77,77.77,0,0,1,9.16-17.76A80.28,80.28,0,0,0,166.07,246h.15c1-3.37,1.57-6.89,3-10.13a52.22,52.22,0,0,1,3.56-8.44,33.8,33.8,0,0,1,3.65-6.2c1.14-1.62,2.47-3.86,4.52-6.35a92.09,92.09,0,0,1,7.41-8.76c7.23-8,20.08-15.82,27.43-17.88,2.76-.77.63.37.74.62a74.9,74.9,0,0,1,18.37-4.78l0-1.66.09,1.64.64-.08c.26-4.39.56-5.34.93-.12,2.25-.24,4.68-.39,7.25-.46q.17-8.57.79-5.43c.51,2.53,1,3.9,1.62,6,0,8.75.32,14.47.83,12.25.07,20.9.14,41.23.21,61.56l-.09-1.09-.11,3.92,4.34.08h72.08l7.48.11c.46,0,1.05-.07,1.32.1l-.06,1.24-.08,2c-.08,2.18,0,2.67.2,1.89.32-1.48.56,1.27.17,5.7l-.92,7.53c-.42,2.55-1.09,4.75-1.57,6.94a87.17,87.17,0,0,1-44.75,55.53ZM237.08,185.09l-.41.11C236.77,186.39,236.93,185.32,237.08,185.09Zm-2,.56,0,.63.41-.05c0-.25,0-.48,0-.71Zm0,.7.23,4.19c.05-1.58.11-3,.17-4.26Zm-3.55.39,3.23-.42,0-.6C233.74,186.06,232.66,186.42,231.57,186.74ZM188,214.33c1.23-1.4,2.55-2.73,3.8-4.12l.46-.81C190.72,210.95,189.39,212.67,188,214.33Zm-14.93,29.15a73.88,73.88,0,0,1,7.4-18.27c1-1.68,2-3.4,3.05-5l3.36-4.54a86.33,86.33,0,0,0-7.67,11,84.1,84.1,0,0,0-7.58,20.27c-.11.71-.12,1.45-.19,2.17C171.75,247.17,172.52,245.65,173.06,243.48Zm73,103.09c-6.44-.23-20.56-1.31-33.52-6.45l6.93,2.51c2.2.73,4.39,1.16,6.54,1.74l.31.13c-2-.65-4.28-.66-10.14-2.89a55.91,55.91,0,0,0,8.14,2.65,37.52,37.52,0,0,0,5,1.19c3,.35,5.78.88,8.55,1S243.31,346.65,246.09,346.57ZM257,332.72c3.09-.27,6.49-1.49,8.92-2.07A80.38,80.38,0,0,0,288,319.11a82,82,0,0,0,16.11-15.95,72.63,72.63,0,0,0,10-19.86,4.91,4.91,0,0,1-.39.67c.25-1.25.3-2.25.47-3.39l.31-1.9.41-2c-.21-.12,0,0,0-.34l-.05-.08-2.9-.06-7.14-.1L289,276l2.92-.81c-30.19-.14-18-1-16.75-1.71l-41.07.2c0-1.63,0-3.18,0-4.73,0-11.1,0-22.54,0-33.64,0-8.06.14-15.87.39-22.9l0-16.11.25-9.87c-6.38,1.08-8.13,2-9.58,2.63-1.64.64-2.84,1.36-9.22,3.89l6.64-2.25,6.11-1.44c-2.08.7-4.35,1.38-5.76,1.91s-1.93,1-.68.83c2-.2-5.64,2.64-7.72,4.43-.88.62,1.15-.13.7.29a12.64,12.64,0,0,1-3.72,2.49c-5.7,3.63-8.27,5.46-16.29,12.38-.73.57-2.39,2.55-3.41,3.65a74.41,74.41,0,0,0-18,46.57c-.41,11,2.63,23.48,8.06,33.86a73.91,73.91,0,0,0,12.24,16.63,77.28,77.28,0,0,0,16.43,12.44C224.55,332.29,241.17,335.56,257,332.72Zm9,11.3c23-5.69,43.48-21.53,54.28-42.81a85.24,85.24,0,0,0,7.4-20.57,99.84,99.84,0,0,0,1.94-13.78c.28-2.59.56-3.41.93-2.81l0-1.48c-.15-.33-.9-.08-1.31-.14l-2.85,0-5.29.09-9.75.16-13.47.15-27.16.21-26.54.42-.11-6.22c0-6.46-.08-15.16-.13-22.84-.06-11.58-.12-23.3-.18-34.72-.06-7-.05-12.34,0-16.07l-5.56,1.11c-.37.08-.73.21-1.09.31,0,0,0,0,0,0,.47,1.17,1,5.21,1.1,24.14.06,9.88,1.12,21.42,1.63,18,.37-2.52.73-.14,1,5.28l.31,10.18.1,15.57v8.2l29.79,0c2.32,0,4.77-.18,6.25-.3,5.37-.42,25.88-.85,37.45-.75,1.84,0,4.08.06,4.93.13,2.91.24,4.2.36,6,.37h.69c.26,0,.54-.06.43.29s0,1,0,1.67c0,1.25,0,2.8,0,4.94.45-2.4.75-5,1.13-7.55.17-.45-.17-.4-.44-.42l-.8-.08-1.6-.17-3.15-.33c-1.58-.17-1.11-.38-1.61-.57H329c.52-.1.11.69.21,1-.23,3.31-.14,6.66-.81,9.91a56.39,56.39,0,0,1-1.36,6.61c-6.19,29.13-29.42,53.54-57.93,61.91l-3.49,1A1,1,0,0,0,266,344Zm-49.25,10.64A124,124,0,0,1,202,348.44a96,96,0,0,1-47.2-53.73A156.22,156.22,0,0,1,150,277.5a139.92,139.92,0,0,1-3.39-13.67c-.15-.66-.17,3.18-.08,6.51.62,16.64,7.52,35.65,18.35,50.18a65.43,65.43,0,0,0,7.9,9.36c1,.94.27-.06-1.81-2.66-1.24-1.55,0-.47.09-.59,1.61,1.75,3.45,3.86,5.25,5.65l4.54,4.19a120,120,0,0,0,10.42,8.67,98.42,98.42,0,0,0,38.35,14.11c2.1.29,4.44.57,5.3.63,4.44-.1,1.24-.44-5.65-1.95C225.81,357.41,221.54,356,216.73,354.65Zm112.41-100,5.77.71,2.59.32c.62-.14.27.61.27,1l-.19,1.4-1.62,10.53c-1.08,12.7-3.66,22.21-7.69,31-5.92,12.25-11.3,19.71-19,27.71A98.78,98.78,0,0,1,289,342.78a100.58,100.58,0,0,1-25.41,9.51c-1.42.36-4.51,1.08-6.24,1.59-.8.24.17.26,2,.1l4.79-.5,5.19-1.08c3.38-.6,6.13-1.48,6.79-1.56,2.84.09,16.81-6.18,25-12.51a58.64,58.64,0,0,0,8.16-6.78,30.32,30.32,0,0,0,4.46-4.9l4.12-5.36c1.45-2.23,3.2-4.68,4.91-7.4l3.7-6.33c1.46-2.62,2.64-5.38,3.25-6.47,2-3.66,3.26-7.68,4.7-11.55l1.57-6a24.4,24.4,0,0,0,.71-3.18l.51-4.18,1-8.18.36-7.95C341.09,252.72,333.17,255.38,329.14,254.67ZM178.45,191.52l2.62-2.51-2.38,2.76a94.28,94.28,0,0,1,26.65-17.63c3.14-1.63,7.9-3.14,10.39-4.24,8-2.56,10.33-3.41,7.88-3.24-1.22.11-3.61.52-7,1.24A90.13,90.13,0,0,0,204,172.3a94.51,94.51,0,0,0-29.07,19.79,100.47,100.47,0,0,0-20.31,29.47,96.51,96.51,0,0,0-6.14,18.16l-.35,2.11A98.78,98.78,0,0,1,178.45,191.52Zm88.7,21.38-.37-.81c0-3,0-6,.06-10.5l.12,2.32c.32-.14.61-1.31.81,0,.16,1,.28,5,.3,7.8,0,3,0,4.32.29,5.2.2.65.35,4.62.52,7.17.41,6.47,1,4,1.48,4.3.18.07.37-.32.62-.54l.23-4.74.34,7.49-.33-.26c0,1.17,0,3,0,3.4l.29,2.48c3.13-.27,5.84-.54,7.8-.84,2.93-.47-1.59-1-5.73-1.23l.07-2.42c0-7.79,0-15.74.05-23.63,0-3.66.07-7.31.11-11.2l.23,17.86h.15l.07-5.93a81.29,81.29,0,0,1,.33-9.21,102.12,102.12,0,0,0,.25-10.91c-.06-6.05-.33-14.39.25-18.7.22-1.62.56-.26.84-.26v-6c-1.26-.14-2.49-.25-3.76-.43l3.76-.26h0c-4.44-.54-6.79-1.09-2.5-1.41,1-.08-.11-.36.11-.53a5,5,0,0,1,2.4-.53v-5.9c-5.26-.48-7.19-.6-5.78-1.18A29.17,29.17,0,0,0,273.4,152c4.7.07,7.79.32,6.66-.34a86.35,86.35,0,0,1,32.43,10.38l-.67-.3c1.42.94,2.8,1.91,4.26,2.8a87.74,87.74,0,0,1,24.87,23.73,33.9,33.9,0,0,1,2.48,3.83c3.1,5.08,3.67,6.69,3.71,5.93-.11-1.34,3.29,4.48,4.86,8.91a58.25,58.25,0,0,1,3.11,8.9c.42,1.57.91,3,1.28,4.72l.89,5.67A96.49,96.49,0,0,1,358.42,238l.2,3a3.31,3.31,0,0,1,0,.37h-.36l-.72,0-1.45,0-5.83.19-17.84.22-15.3.29-6.56,0c-9.09,0-17.53-.36-27.12-.15-1.56,0-5.26-.13-6.08-.25a9.39,9.39,0,0,1-2.63-.76l-7.65-.12,2.65-.24-2.72,0c0-5.13-.09-9.57-.13-13.94ZM327.31,237a163.48,163.48,0,0,0-18.5.11l7.61,0,.18,0-5.67.15c3.81.08,6,.19,7.33.14Zm-50.87-82.24,1.49,5.84h.1l.13-3.06c0,1.24.06,2.24.1,3.07a64.91,64.91,0,0,1,7,.78c4.67,1,10.44,1.62,9,.69-1.07-.79.15-.72,2.8,0a43.25,43.25,0,0,1,4.91,1.55l6.13,2.84,7,4.21,6.52,4.87a22.24,22.24,0,0,0,2.55,1.91c2.49,1.3,10,8.77,13.23,13.8A17,17,0,0,1,339,194c1.56,3.68,1.83,3.41,4.62,8.46a67.23,67.23,0,0,0-3-8.33c-.37-.94-.08-.86-.09-1.25l3,4.89,2.49,5.14a32.4,32.4,0,0,1,1.41,3.52,89.23,89.23,0,0,1,5.77,22.2l.33,5.48a25.34,25.34,0,0,1,.09,2.69l-2.73,0-11,.07-1.9.06c.07,0,.11.11.19.11l9,0,4.49,0h2.25a16.44,16.44,0,0,0,0-2.17,66.26,66.26,0,0,0-.72-8.93,58.56,58.56,0,0,0-1.77-9,81.5,81.5,0,0,0-3.68-11.06c-3.21-7-4.12-9-3-8.49-2.43-3.59-4-6.54-6.28-9.15-1.49-1.76-2.8-3.8-4.52-5.51a78.59,78.59,0,0,0-24.24-18.68c-3-1.23-6.88-3.47-10.62-4.59L294.76,158l-4.42-1.11a56.45,56.45,0,0,0-8.88-1.64C279.53,155,277.89,154.86,276.44,154.73Zm3.14,16.14.26-6.53c-.41-.07-.84-.13-1.2-.2A21.64,21.64,0,0,1,279.58,170.87Zm.6,41.52c0-3.93,0-8,0-12,0-2.39-.05-4.76-.08-7.14l.1-4.29-.2-.55-.31,26.2.16,1.31A30.25,30.25,0,0,0,280.18,212.39Zm.67-45.31c.36-1.19.82,3.8,1.24,5.45.17.67.38-.69.57-.32a5.52,5.52,0,0,1,.63,2.8c.1,4.27.81,6.28.3,13,0,.58,0,2.22,0,3.17.26,11,.16,21.48-.1,32.41a2.62,2.62,0,0,0-.14.77h.36c.18,0,0,0,.46,0l6.56-.08,13.13-.12,30.52,0h3.05a11,11,0,0,0,1.85-.06c.07-.51,0,0,.59-.42l.07-.08-.22-1.08-.67-2.93a39.1,39.1,0,0,0-1.8-6.16l0,.44a22.19,22.19,0,0,1-2.08-3.67c-1-1.85-2-3.77-2.87-5.75-1.08-1.89-2.18-3.79-3.15-5.76a68.12,68.12,0,0,0-7.8-10.31l1.47.42c-9.65-9.65-5.3-6.37-4.3-6.57a81.74,81.74,0,0,0-12.31-8.52,98.84,98.84,0,0,0-20.2-8.25c-1.1-.48-3.71-.71-5.89-1C280.28,166.51,280.48,168.31,280.85,167.08Zm-25,64.36c-.21,6.52-.27,13.56-.27,20.74l28.51-.11c6.37,0,7.2-.2,4.15-.6-.91-.12-.17-.31-.18-.46,2.19,0,5.17-.06,6.42,0,2.7.18,4.51.43,6.24.61l18.94-.66c1,0,2.07-.1,2.47-.17,4.09-.72-5.91-1.63-16.35-1.63L261.41,249h-2.67c0-6.84-.08-10.49-.35-12l-2.17-11.46C256.1,224.94,255.91,228.4,255.81,231.44Zm107.52.69c-.67-2.85-1.51-7.08-2.36-11.76-.33-2-1.73-6.37-2-7.82a75.07,75.07,0,0,0-9.9-22.87l1.49,4.44.77,4.08A77.44,77.44,0,0,1,357,212.74l1.21,4.89.57,2.24.4,2.78c.46,3.65,1.25,7.11,1.48,11l.59,8.86.07,1.13c.07.42-.61.14-.87.25l-2.19.09-4.45.18c-3,.16-6.15.17-9.38.21l-8.46.13c-.73.14-2.29.38-3.16.63-.41.12.07.28.94.39l4.93.48a49.05,49.05,0,0,1,5.05.49c1.07.34,4.63.49,8.87.5l6.5-.19,3.28-.1c1-.08,2.49.29,2-1.12A99,99,0,0,0,363.33,232.13ZM257.44,187.06l-.1-1.69.44,1.68.23-15c0-1.65-.08-4-.17-5.24-.6-7.89-1.62-4.4-2.07,5.46-.48,10.48-.25,21.72-.35,32.55,0,2.87,0,5.83,0,8.75l.18,1Zm-1.53,295.61c.69.19,1.11.14,1.27-.18a6.72,6.72,0,0,0,.76-2.17c0-.12-.17-.32-.31-.4a13,13,0,0,0-2.07-.63c-.46-.28-.67-.16-.63.31,0,.14-.15.27-.23.4a1.58,1.58,0,0,1-.56-.43,2.13,2.13,0,0,1,0-.89,5,5,0,0,1-1.55-1.31.58.58,0,0,0-.27-.19c-.79-.34-1.46,1.27-.46,2.59A7.88,7.88,0,0,0,255.91,482.67Zm-2-18-1.25-.71a22.55,22.55,0,0,0-3.21,2,7.62,7.62,0,0,0-2.57,3.46,12.43,12.43,0,0,0-1.16,6.33,4.34,4.34,0,0,0,.67.72c.12.08.28,0,.38-.24.25-.63.65-1.67,1-1.75.75-.18.71-1.58,1.24-2.41a2.15,2.15,0,0,0,.42-1.59,3.34,3.34,0,0,1,.2-1.82,3.18,3.18,0,0,1,1-1.17c1.65-.76,3-1.78,4.46-2.11C254.71,465.1,254.28,464.82,253.91,464.63Zm7.62,12.64c-.8.61-1.26,1.44-2.12,1.83-.23.06-.43.19-.65.27l0,.2a4.66,4.66,0,0,0,3.34-.09.67.67,0,0,0,.06-.22,3.66,3.66,0,0,1,.2.45,6.54,6.54,0,0,0,1.26-1.57,1.54,1.54,0,0,0,.07-.71C263.34,476.24,262.21,476.67,261.53,477.26Z"/></svg>