<svg id="Layer_1" data-name="Layer 1" xmlns="http://www.w3.org/2000/svg" viewBox="0 0 512 512"><defs><style>.cls-1{fill:#dde5e8;}.cls-2{fill:#cad8dd;}.cls-3{fill:#40c168;}.cls-4{fill:#e85454;}</style></defs><title>chart-presentation-1-flat</title><path class="cls-1" d="M467.2,89.6H44.8a44.65,44.65,0,0,1-6.4-.47V345.6a64.19,64.19,0,0,0,64,64H409.6a64.19,64.19,0,0,0,64-64V89.13A44.65,44.65,0,0,1,467.2,89.6Z"/><path class="cls-2" d="M268.8,464.23V409.6H243.2v54.63a25.6,25.6,0,1,0,25.6,0Z"/><path class="cls-3" d="M243.2,166.4A89.6,89.6,0,1,0,332.8,256H243.2Z"/><path class="cls-4" d="M268.8,140.8v89.6h89.6A89.6,89.6,0,0,0,268.8,140.8Z"/><path class="cls-2" d="M467.2,89.6H44.8A44.93,44.93,0,0,1,0,44.8H0A44.93,44.93,0,0,1,44.8,0H467.2A44.93,44.93,0,0,1,512,44.8h0A44.93,44.93,0,0,1,467.2,89.6Z"/><path class="cls-2" d="M467.2,89.6H44.8A44.93,44.93,0,0,1,0,44.8H0A44.93,44.93,0,0,1,44.8,0H467.2A44.93,44.93,0,0,1,512,44.8h0A44.93,44.93,0,0,1,467.2,89.6Z"/><path class="cls-2" d="M467.2,89.6H44.8A44.93,44.93,0,0,1,0,44.8H0A44.93,44.93,0,0,1,44.8,0H467.2A44.93,44.93,0,0,1,512,44.8h0A44.93,44.93,0,0,1,467.2,89.6Z"/><path class="cls-2" d="M467.2,89.6H44.8A44.93,44.93,0,0,1,0,44.8H0A44.93,44.93,0,0,1,44.8,0H467.2A44.93,44.93,0,0,1,512,44.8h0A44.93,44.93,0,0,1,467.2,89.6Z"/></svg>