<svg id="Layer_1" data-name="Layer 1" xmlns="http://www.w3.org/2000/svg" viewBox="0 0 512 512"><defs><style>.cls-1{fill:#141f38;}</style></defs><title>chart-presentation-1-glyph</title><path class="cls-1" d="M512,38.4a38.4,38.4,0,0,1-38.4,38.4H38.4A38.4,38.4,0,0,1,38.4,0H473.6A38.4,38.4,0,0,1,512,38.4Zm-38.4,64V345.6a64.19,64.19,0,0,1-64,64H268.8v54.75a25.6,25.6,0,1,1-25.6,0V409.6H102.4a64.19,64.19,0,0,1-64-64V102.4H473.6ZM320,268.8H243.2V192A76.8,76.8,0,1,0,320,268.8Zm25.6-25.6a76.8,76.8,0,0,0-76.8-76.8v76.8Z"/></svg>