<svg id="Layer_1" data-name="Layer 1" xmlns="http://www.w3.org/2000/svg" viewBox="0 0 512 512"><defs><style>.cls-1{fill:#141f38;}</style></defs><title>chart-presentation-1-outline</title><path class="cls-1" d="M512,44.8A44.93,44.93,0,0,0,467.2,0H44.8a44.8,44.8,0,0,0-6.4,89.13V345.6a64.19,64.19,0,0,0,64,64H243.2v54.63a25.6,25.6,0,1,0,25.6,0V409.6H409.6a64.19,64.19,0,0,0,64-64V89.13A45,45,0,0,0,512,44.8ZM448,128V345.6A38.44,38.44,0,0,1,409.6,384H102.4A38.44,38.44,0,0,1,64,345.6V89.6H448Zm19.2-64H44.8a19.2,19.2,0,0,1,0-38.4H467.2a19.2,19.2,0,0,1,0,38.4Zm-224,102.4A89.6,89.6,0,1,0,332.8,256H243.2Zm58.66,115.2a64,64,0,1,1-84.26-84.26V281.6h84.26ZM268.8,140.8v89.6h89.6A89.6,89.6,0,0,0,268.8,140.8Zm25.6,64V171.74a64.37,64.37,0,0,1,33.06,33.06Z"/></svg>