<svg id="Layer_1" data-name="Layer 1" xmlns="http://www.w3.org/2000/svg" viewBox="0 0 512 512"><defs><style>.cls-1{fill:#d678b4;}.cls-2{fill:#8c3c7b;}.cls-3{opacity:0.12;}.cls-4{fill:#17292d;}.cls-5{fill:#c667a9;}</style></defs><title>piggy-bank-flat</title><circle class="cls-1" cx="256" cy="243.2" r="243.2"/><ellipse class="cls-2" cx="256" cy="294.4" rx="102.4" ry="76.8"/><path class="cls-2" d="M172.8,153.6A19.2,19.2,0,1,0,192,172.8a19.2,19.2,0,0,0-19.2-19.2Z"/><path class="cls-2" d="M339.2,153.6a19.2,19.2,0,1,0,19.2,19.2,19.2,19.2,0,0,0-19.2-19.2Z"/><circle class="cls-1" cx="230.4" cy="294.4" r="12.8"/><circle class="cls-1" cx="281.6" cy="294.4" r="12.8"/><g class="cls-3"><path class="cls-4" d="M256,0A242.19,242.19,0,0,0,155,22a217.49,217.49,0,0,1,62.65-9.2c120.18,0,217.6,97.42,217.6,217.6S337.78,448,217.6,448A217.26,217.26,0,0,1,42.07,359,243.15,243.15,0,0,0,256,486.4c134.32,0,243.2-108.88,243.2-243.2S390.32,0,256,0Z"/></g><path class="cls-5" d="M42.66,126.37A244.29,244.29,0,0,1,143,27.8C128.62,6.55,95.52-15.78,21.26,15.47,21.26,15.47-8.12,89.68,42.66,126.37Z"/><path class="cls-5" d="M469.34,126.37c50.78-36.69,21.4-110.9,21.4-110.9C416.48-15.78,383.38,6.55,369,27.8A244.29,244.29,0,0,1,469.34,126.37Z"/><path class="cls-5" d="M336.55,472.72C345.61,495.6,370.12,512,399,512c19.62,0,36-13.3,37.79-30.67l8.77-85.71A243.66,243.66,0,0,1,336.55,472.72Z"/><path class="cls-5" d="M66.5,395.62l8.77,85.71C77,498.7,93.43,512,113,512h0c28.83,0,53.34-16.4,62.4-39.28A243.66,243.66,0,0,1,66.5,395.62Z"/></svg>