<svg id="Layer_1" data-name="Layer 1" xmlns="http://www.w3.org/2000/svg" viewBox="0 0 512 512"><defs><style>.cls-1{fill:#707070;}</style></defs><title>piggy-bank-handdrawn</title><path class="cls-1" d="M100,511.22c-2.07-.47-8.6-2.22-16.25-8.75a45,45,0,0,1-10.33-12.82,44.17,44.17,0,0,1-5-16.39L66,449.65,64.7,437.08l0-1.42,6,39.92a28.78,28.78,0,0,0,.56,3.43,27,27,0,0,1-.21-3.47,42.72,42.72,0,0,0,14.43,25.54,60.76,60.76,0,0,0,8.08,6C100.11,510.84,102.19,511.48,100,511.22ZM501.24,49.67c-1.38-7.31-3-12.07-3.74-13.59s-.69.16.24,5.94L499,49.7a139.94,139.94,0,0,1,1.95,22.43l.42-2.56-.07,2.57c.46,13.92-1.57,28.73-7.85,42.66.3-.45.64-.89.89-1.36A87,87,0,0,0,499.36,100,112.27,112.27,0,0,0,501.24,49.67ZM37.43,46.9a62.08,62.08,0,0,0-1.35,6.44,108.81,108.81,0,0,0-1.2,18.52l.47-2.06-.12,2.06C36,83,38.77,93.45,43.75,102a9.12,9.12,0,0,1-.32-1,65.39,65.39,0,0,1-3.37-9C36.6,80.44,36.72,66.74,38.27,54,39.91,41.92,40.38,37.39,37.43,46.9ZM418.86,432.77l-.32,1.38-1.28,12.58-2.38,23.6a18,18,0,0,1-5.53,11.31c-3,3.06-6,4.49-6.8,5.24s.33,1,3.92-.61A19.18,19.18,0,0,0,417,471.92a7.78,7.78,0,0,1-.7,1.31,8,8,0,0,0,.35-1.36Zm-17.52-373c.53.43,1,.88,1.57,1.31L404,62ZM206.45,474.69a27,27,0,0,0,4,.91C209.08,475.35,207.8,475,206.45,474.69Zm290.13-179.5c-.51,2.79-1.72,8.32-3.59,16.2l-1.54,6.34-2.42,7c-1.75,4.91-3.58,10.39-5.83,16.25a243.36,243.36,0,0,1-32.51,55.12c-.93,9-1.86,18.22-2.57,26.49-1.35,15.75-2.79,30.82-4.66,46.62l-.45,4.59a35.71,35.71,0,0,1-4.41,15.13,49.38,49.38,0,0,1-6.79,9.38,13.46,13.46,0,0,1-4.43,3.54c-.66.34,1.19-1.6.09-.85a64.86,64.86,0,0,1-6.17,4c-2.23,1.15-3.87,1.88-3,1.14,2.22-1.9-2.83,1.16-7.49,2.5a45.84,45.84,0,0,0,12.61-7.53c-6.2,4.48-7.89,4.44-9.65,5.1a102.45,102.45,0,0,1-12.62,3.27,46.4,46.4,0,0,0,5.74-1.52,47.86,47.86,0,0,1-14,0c11.85-.19,19.83-3.71,26.67-8.51-.17-.22-2.19.84-.15-.94A48.16,48.16,0,0,0,429,487.67a35.62,35.62,0,0,0,5.36-15.74c.79-7.21,1.29-12.48,1.35-15.72.07-3.52.45-7.68,1-13.28l.8-8.54-.14,0L434.51,460l1.54-16.12,3.48-34.47L439,410c-.65.72-1.34,1.41-2,2.12l-1.3,9.95.52-7.42c-.23-.26-.36-.77-.57-.59s-.3,0-.44-.05l-.58.61a38.74,38.74,0,0,0-1.13,5.82c-.54,3.6-1.27,9.34-1.57,10.23-.41,1.23-.59,3.09-1.06,7.44-.44,4.06-1.14,9.74-1.45,11.19-.39,1.84-.51.13-.81-.1l-.47,3.33,1.48-15.1.49-1.13,1.66-18.66a255,255,0,0,1-58.11,44.07l-20,9.66c-3.81,1.59-7.69,3-11.58,4.43,8.72,11.48,21.89,19.52,36.48,22.63-1.75.14,2.39,1.54,9,2.13a41.7,41.7,0,0,0,4.57,1.84c1.34.41.66.62-2.17.63a54.84,54.84,0,0,1-14.75-2,66.91,66.91,0,0,1-24.39-11.8,58.45,58.45,0,0,1-12-12.27l-2.73,1c.22.3.4.63.62.92,9.71,12.7,20.76,18.42,16.6,17.05-2.76-1.19,4.8,5.29,12.81,8.14a87.81,87.81,0,0,0,9.41,2.89,60.61,60.61,0,0,0,5.92,1.36A18.78,18.78,0,0,1,386,509.6c.36.21-1.66.29.1.54,3.85.47,4.73.74,3.57.91a37.68,37.68,0,0,1-8.58-.21A56.22,56.22,0,0,0,388.2,512a44.92,44.92,0,0,1-5.95-.35,46.65,46.65,0,0,1-6.24-.89,82.49,82.49,0,0,1-13.72-4.16A68.86,68.86,0,0,1,329,480.39l0,0c-.34.09-.68.2-1,.27l1-.36a61.94,61.94,0,0,1-5.64-10.67c-18.66,5.64-36.5,9.09-54.72,9.77-21.16,1.5-43-.54-67.65-6.25,2.37.63,4.08,1.16,5.55,1.59-4.4-1-8.57-2.13-12.44-3l-7.23-1.83c-2.3-.61-4.39-1.52-6.45-2.22l-1.3-.37c-.39.85-.72,1.74-1.15,2.57-.81,1.63-1.69,3.19-2.64,4.72a222.79,222.79,0,0,0,27.37,7.67,54,54,0,0,0,8.35,1.69l7.44,1.14,12.05,1.87c6.88.52,11.43.77,14,1.08,12.14,1.83,23.48,1.26,32.77,1.67,1.54,0-7.4.7-15.15,1.18-2.42.1-4.86.4-7.33.33l-7.47-.3-15.28-.7c-5.14-.48-10.3-1.44-15.53-2.18S206,486.59,200.83,485l-15.61-4a109.84,109.84,0,0,1-11.63-4c-9.44,12.81-23.85,21.55-39.67,24.78,1.59-.88-2.82,0-9.61.53-1.71-.51-2.78-1-4.72-1.42q-2-.44,2.07-.83A83.42,83.42,0,0,0,135.78,498a62.8,62.8,0,0,0,23.49-11,61.73,61.73,0,0,0,11.28-11.14l-.6-.22c-.73-.24-1.44-.54-2.16-.8-8.32,10.43-18,14.13-15.19,11.8,1.74-1.75-5.47,1.89-11.9,4a50.82,50.82,0,0,1-7.71,2.06,24.54,24.54,0,0,1-4.87.63c-2.43.11-3.32,0-3.74-.21s1.24-.49-.16-.53c-6.12-.44-2.67-.56,3.57-1.77a38,38,0,0,1-5.35.08,27.64,27.64,0,0,0,4.37-.61,44.83,44.83,0,0,0,4.53-.92c3.19-.68,8.15-2.11,9.93-3.08a58.81,58.81,0,0,0,19.4-14.27c-6.83-2.92-13.41-6.31-20-9.44-7.21-3.74-12.45-7.39-16.53-9.76s-6.68-4.05-7.86-5.13c-2.4-2.1-.34-.09,6.5,3.65,4,2.32.88.18,1,.07-4.89-2.7-10.05-6.77-14.83-10.34s-9.21-6.61-11.47-8.84l-5.25-4.61c1.48,12.85,2.84,25.49,4,38.61.12,1.37.36,3.75.49,4.54a29.93,29.93,0,0,0,1.7,5.35,13.81,13.81,0,0,0,2.22,4,6.15,6.15,0,0,1,1.29,2.18c.13.36-.95-.3-.61.23.64,1.48,4.67,4.44,3.5,4.12-1.56-.43,1,1.53,3.55,2.73a25.93,25.93,0,0,1-7.48-3.85c3.35,2.73,4.18,3.19,5,4s2,1.82,7.64,3.1a29.22,29.22,0,0,1-3.78-.77,32.92,32.92,0,0,0,9.21,3.47,32.44,32.44,0,0,1-19.29-6.11c-.17.22,1,1.5-.76.49a22.46,22.46,0,0,1-7.45-7.47,24.4,24.4,0,0,1-3.66-11.44c-.69-7.22-1.26-12.48-1.86-15.67-.64-3.46-1.11-7.61-1.68-13.22l-.94-8.53h-.15l2.4,25.71-1.75-16.1L81.22,418c-.91-.89-1.76-1.78-2.59-2.67l.48,6.42-.93-6.9-.82-.88c-.47.25-1.2-1.8-.73,6.64.2,3.64.64,9.4.54,10.34-.15,1.28.05,3.14.47,7.5.39,4.06.86,9.77.85,11.25,0,1.88-.47.23-.82.06l.22,3.36L76.28,438l.25-1.21-2.22-19.19-.73-7.71c-3.3-3.69-6.44-7.46-9.48-11.28l.08.73c.75,6.89,1.05,10.6.9,12.13-.36,3.55-.76,6.84-1.22,9.53-.08.45-.53-2.07-.85-4.25-.8-5.45-1.45-11.36-2-17.39l-.53-5.46a245.13,245.13,0,0,1-35.35-65.16c-1.66-4.68-3.53-9.88-4.1-11.83-2.05-10.22-.64-2.78,5.74,12.63,1.64,3.82,2.9,8.42,5.37,13l7.4,15c2.53,5.34,6.19,10.41,9.39,15.91,1.7,2.69,3.27,5.52,5.14,8.18l5.88,7.87.11.14-1.08-11.17c-.11-1.12-.21-2.07-.31-3.07-2.11-3.2-4.25-6.37-6.17-9.72-6-9-10.6-20.24-14.74-28.5a255.76,255.76,0,0,1-17.64-72.39c-2.43-25.47.22-51.46,5.87-75.74a233.46,233.46,0,0,1,16.71-46.52c-.72-.54-1.44-1.07-2.15-1.63l-5.15,10.68-5.47,14.76c-.88,2.49-1.91,4.94-2.68,7.49l-2,7.75c-6.25,20.57-8.28,42.81-8.64,65.74l.15,15.65c0,2-.3-.32-.63-4.63l-.83-11.62c-.37-4.24.13-8.68.14-12.81.32-8.24.29-15.25.6-16.78.06-1.6.46-5.05,1.09-9.71l1.1-7.82.68-4.43L20,190.52c1.66-6.29,3.2-13.23,5.26-19.92l6.89-19c2.07-4.76,4-9,5.87-12.72a80.65,80.65,0,0,1-11.28-11.55C15.29,113,10,95.63,9.18,78.58l-.23-4.93c-.63-10.44.59-13.43,1.37-19.83a10.28,10.28,0,0,1,1.22-4.08c.27-.51.16,1.52.49.56.75-2.39,2.63-9.55,2.65-7.74,0,2.3,1.09-2.18,2.32-5.86-.84,3.79-1.4,6.9-2.08,11.58,1.2-5.94,1.85-7,2.44-8.44s1.23-3.16,3.4-10.2l-1.22,4.78c1.75-3.73,3.35-6.86,5.62-10.79a138.8,138.8,0,0,0-6.34,23.61c.28,0,1-1.79.76.52-.56,6.11-2.16,17.88-1.78,26.61a65.53,65.53,0,0,0,2,15.61c1,3.39,1.9,7.48,3.89,12.8a66.44,66.44,0,0,0,3.53,7.9l.14-.05A77.78,77.78,0,0,1,19.87,86a88.37,88.37,0,0,0,4,15.6,69.23,69.23,0,0,0,18.61,28.33l.68-1.37.39-.63a65.47,65.47,0,0,1-7.44-8.72,50.48,50.48,0,0,0,4.83,5.32c.35,0,.8.2.8-.06.11-.81,2.09,1-3-5.65a43,43,0,0,1-5-8.26c-.24-1.21-1.32-2.59-2.83-6.36a47.71,47.71,0,0,1-3.15-9.93c-.26-1.71.43-.28.79-.19-.09-.37-.32-1.33-.65-3a69,69,0,0,0,4.4,13.06l.09,1.13a69.7,69.7,0,0,0,9.67,14.57c1.24,1.37,2.55,2.7,3.92,4,2.17-3.45,4-6.33,5.64-8.76L55.73,109l5.53-7c4-5,8.17-11,13.75-16.47,2.24-2.26,7-7.84,12.19-12.93l13-11.82a215.66,215.66,0,0,1,41.14-28.27l-.58-.68-4.23-4.21c-11.42-10-26.77-14.4-41.9-14.58l-6.7.24,1,.09a150,150,0,0,0-44.21,9.38C46,21.68,42,22.87,36,25a42.86,42.86,0,0,0-4.74,0c-2.66.24,2.09-1.81,14.64-6.31a90.63,90.63,0,0,1,12.16-3.61c4.15-1,8.24-2.31,12.44-3,5.43-.64,11.55-1.88,16.15-2,13.59-.39,27.82,1.54,41.46,9a18.51,18.51,0,0,1,4.21,2.68l3.88,3a68.84,68.84,0,0,1,6.7,6.81c1-.53,2-1.07,3-1.58a23.87,23.87,0,0,0-2.56-2.31c-.66-.56-2.26-2.09-3.5-3.29-3.45-2.75-8.24-6.7-13.3-9.05-4.76-3-9.69-4-11.54-5C114,10,112.27,9,110.49,8.88c-4-.55-8.11-1.32-12.19-1.62L86.1,7.38c-7.22.69-13.5,1.68-17.61,1.93-4,.73-5.79.86-4,0,2.43-1.16-6.25,0-13.53,1.86-13.51,4.48-16.43,5.32-17.47,5.1-.38-.05,1.19-.88-.32-.46-6.58,1.85-3.23.16,3.52-2.7l-5.95,1.73,9.76-4A105.43,105.43,0,0,1,52.16,6.92C57.4,5.4,63.09,3.41,69.34,2.28L78.93.87,83.75.2C85.37.06,87,.11,88.68.07c4.22.05,8.42-.3,12.85.24,4.43.76,9,1.09,13.73,2.4-.41-.6-3.1-1.6-2.57-1.75.27-.16,1.36-.12,4,.61L121.75,3a34.84,34.84,0,0,1,7.72,3l-2-1.9c8.8,3.79,17.44,9.65,21.9,14.1a49.43,49.43,0,0,1,6.72,7A241.86,241.86,0,0,1,200.84,9.86l-10.58,3.27a66.2,66.2,0,0,0-9.35,3.33l-16.83,7.33c-2.18.94-4.41,2-6.67,3.08.64.86,1.23,1.75,1.82,2.63l2.31-1.09c9.16-3.85,15.44-5.52,12.78-4.35-1.4.69-.22.35,4.63-1.38,2.47-.74,5.67-2.38,10.25-3.4l17-4.41c6.71-1.56,14.26-2.32,21.4-3.52C274,6,322.14,14.18,363.68,35.71c.95-1.21,2.49-3.2,5-6.14l4.48-4.45c12.11-10.61,28.36-15.21,44-15.43l7-.12-1-.1a153.55,153.55,0,0,1,45.22,10c-1.7-.08,2.15,1.64,8.12,3.91a43.82,43.82,0,0,0,3.52,3c2.08,1.52-2.81,0-15.09-4.72A82.82,82.82,0,0,0,453,17.93c-4.06-1-8.09-2.37-12.19-3.1-5.31-.69-11.31-1.84-15.79-2.16-13.21-1.14-27.33.14-40.83,7.38a19.9,19.9,0,0,0-4.2,2.55L376,25.36A60.23,60.23,0,0,0,365.4,36.14c.53-.2.59-.05.28.58l.64.33c.13-.16.22-.34.35-.5a41.37,41.37,0,0,1,5-5.93c-.18.45.19.38-.64,1.45a43,43,0,0,0-3.1,4.85c-.16.24-.26.55-.42.8l.69.39c.51-.6,1-1.13,1.31-1.63A45.33,45.33,0,0,1,372.91,32c.5-.59,1.88-2,3-3.15,3.06-2.53,7.47-6,12.16-7.84,4.37-2.47,9-2.95,10.72-3.48,1-.11,2.59-.72,4.22-.8,3.66-.43,7.29-1.13,11-1.4l11.23.09a159.55,159.55,0,0,1,16.36,2.58c3.68,1.21,5.21,2,3.41,1.91-2.46-.12,5.13,3,11.77,4.8,12.58,4.44,15,6.15,15.63,6.8.22.28-1.4-.08-.09.54,5.71,2.71,2.27,1.89-4.15-.15l5.14,2.39-9.17-3c-3.3-1.22-8.44-3.22-10.57-3.48-4.72-.86-9.88-2.49-15.2-3.36l-8-1.11-4-.59c-1.33-.11-2.63,0-3.93-.06-3.3.1-6.75-.32-10.09,0-3.27.57-6.83.63-10.22,1.53.42.15,2.49.1,2.24.54A27,27,0,0,1,401.7,26l-3.36,1.21a20.35,20.35,0,0,0-5,2.07l1.79,0c-5.36,2.69-10.64,6.13-13.06,9.21a40.54,40.54,0,0,0-4.33,5.19c2.25,1.39,4.51,2.78,6.71,4.26,6.45,4.11,12.34,8.8,18.49,13.23a239.35,239.35,0,0,1,51.59,58.06,48.16,48.16,0,0,0,8.62-8.8c7-9.43,10.46-20.73,11.62-33.64.12-1.12.14-3.07.14-3.75-.41-8-.1-10.52-.55-15.74a9.21,9.21,0,0,1,.15-3.51c.11-.48.59,1.15.63.31.16-2.09-.6-8.35,0-6.95.83,1.81.29-2.12-.27-5.44.92,3.24,1.57,5.91,2.4,9.93-1.74-10.38.68-4.39-2.51-17l1.33,4.15c-.23-3.57-.6-7-1.11-10.51a128,128,0,0,1,5.66,21.21c.28,0,.28-1.87.9.19,1.65,5.48,2.6,16.52,2.13,24.38-.28,6.52-1,11.21-1.28,14.07a45.45,45.45,0,0,1-2.84,11.49,68.8,68.8,0,0,1-3,7l.12.08a69.26,69.26,0,0,0,7-21.87,65.51,65.51,0,0,1-3.37,14.13,62.42,62.42,0,0,1-19.44,27.77c-.4.36-.87.68-1.3,1,.38.66.75,1.33,1.12,2,.52-.34,1.06-.65,1.58-1l3.85-3.36-.72.19a62.94,62.94,0,0,0,7.87-8.16,48,48,0,0,1-4.28,5.39c0,.34-.15.79.11.79.66-.12-.61,2.59,5.21-3.71a86.16,86.16,0,0,0,6-8,25.26,25.26,0,0,0,3.5-6.38c1.71-3.58,3.4-8.87,3.89-10.22.67-1.7.52,0,.79.24.13-.38.45-1.4.94-3.16a74.8,74.8,0,0,1-4.65,14.17l-.8.91A68.83,68.83,0,0,1,474,123.58a71.58,71.58,0,0,1-11.11,10q2,3.71,3.85,7.49c4.52-3.32,7-5.59,8.28-6.31,3.23-2.21,6.38-4.3,8.75-6.26.38-.34-1.19,2.17-2.93,4A66.84,66.84,0,0,1,468.14,144a230,230,0,0,1,17.32,51.12c-1.82-5.48,1.62,8.93,3.48,31.3-.31,5.55-.66,9.05-.85,15.51-.13,4.42-.49,2.12-1.09-7a228.85,228.85,0,0,0-6.95-47.64A226.28,226.28,0,0,0,465.4,146c-1.54,1-3.13,1.83-4.72,2.71l.16.36c1.19,2.75,2.67,5.48,3.75,8.4l3.13,8.76c4.43,10.9,6.18,20.21,8.1,27.54l1.25,5.19.64,4.66,1,7.57,1.1,9.35a24.54,24.54,0,0,1-.1,4c-.13,1.1-.64-4.62-.52.46.27,11.09.16,13.55-.23,10.31-.6-3.21-.38-12.24-2.78-23.83l1.31,10.26c.09,3.26.17,6.39.25,9.51l-.51-8.26c-.13-2.73-.81-5.38-1.19-8.11-1-5.42-1.64-11-2.92-17.07-1.62-5.92-3.42-13.63-5.43-20.67l-6.19-16.79c-1.41-4.05-3.75-7.83-5.63-11.92-2.1-4-3.78-8.29-6.29-12.23-5-7.9-9.62-16.41-15.87-24-3.07-3.82-5.63-8.11-9.15-11.64l-10.05-11c-3.31-3.73-7.29-6.8-10.88-10.23a104.33,104.33,0,0,0-11.32-9.54c-19.76-15.46-42.39-28.5-69.26-37,1.31.87,8.84,4.06,7.43,3.88C329,36.82,319.19,31,283,25.84l6.85,1.87c-25.41-3.89-53.12-3.05-69.45.64C197.31,32.57,174.12,40,154.05,50.65L134.3,61.54,136,60.26c-4.71,2.72-9,6.62-13.81,10-2.3,1.81-4.79,3.42-7,5.39l-6.41,5.88c-8.76,7.38-15.36,15.72-20.38,21.18-11,13.88-24.34,33.13-33.84,55.64a235.06,235.06,0,0,0-16.89,69.75l-.7,12.54c-.5,4.58.29,9.37.35,13.8.07,11.55,2.32,22.87,4,34.24l4.31,16.7a52,52,0,0,0,2.59,8.21l3,8.09c8.3,21.38,19.42,41.82,34,59.57,2.93,4,6.57,7.43,9.8,11.18a102.41,102.41,0,0,0,10.37,10.61l10.94,10L128.23,422c2,1.45,3.89,3.06,6,4.39l6.33,3.85c4.26,2.49,8.33,5.34,12.74,7.56,8.93,4.23,17.67,9,27.17,12,31.42,11.76,68,16.1,99.2,12.16a222.84,222.84,0,0,0,69.86-20.17,220.06,220.06,0,0,0,60-41.56c3.17-2.95,8-8.61,9.74-10.52a148.54,148.54,0,0,0,12-15.07c3.19-4.39,6.23-7.86,8.31-11.58,4.33-7.28,8.84-12.9,12.74-21.77a99.17,99.17,0,0,1,6.1-11.16c.9-1.43-1.59,4.19-.11,1.54,3.33-6.71,11.3-28.09,9.76-22.87-1.35,6.9,2.46-6.86,5.75-18.54l-4.2,16.92c-1.31,5.71-3.87,11.38-6.21,18.41,7-17.7,7.52-21.47,9.12-26,.74-2.3,1.55-4.85,2.92-9.66.94-4.9,2.17-12.12,3.85-23.7-.92,7.6-2.24,15.89-2.15,15.56l1.94-9.25a59.78,59.78,0,0,0,1.53-9.18l2-19.19-1.17,23.1-3,20c-1.07,6.29-3,12.1-4.33,17.87s-3.4,11.21-5.4,16.68c.26.1,2.78-5.77.37,1.44l-2.72,8c-1,2.91-2.61,5.81-4,9-2.21,4.65-4.47,9.72-7.28,14.72l-3.78,35.55-.12,1.13a263.16,263.16,0,0,0,30.41-52.53c2.76-7.86,7.25-18.76,9-24.91C495.92,295,497.47,289.58,496.58,295.19Zm-25.69-190,.86-1.26a71.14,71.14,0,0,0,6.78-30.41l-.23.67c0,1.77-.08,3.52-.24,5.25A69,69,0,0,1,476.71,88a64.37,64.37,0,0,1-4.34,13.41ZM23,114.92,22.2,113a91.36,91.36,0,0,1-9.56-38.88l-.18.83c.07,2.15.32,4.32.51,6.47a94.88,94.88,0,0,0,1.54,10.82,78.44,78.44,0,0,0,5.7,17.83A29.75,29.75,0,0,0,23,114.92ZM443.31,433.26l-.35,1.86-3.54,37.72.28-.77.53-6.18,1.13-10.26,1.81-17.26C443.35,436.41,443.27,434.94,443.31,433.26Zm-24.38-38.08c-1.09,1.17-2.13,2.38-3.2,3.58,1.68-1.77,3.42-3.47,5-5.3Zm-104.25,63.7,5.86-1.33c34.28-10.85,66.26-29.58,91.67-55.07L405,409.07c-7.83,7.71-16.94,13.7-25.75,20.23l-11.83,7.15c-2,1.18-3.92,2.45-6,3.55l-6.25,3-12.42,6L330,453.69l-7.86,3ZM331,460.06l-.08-.29c-1,.38-2,.72-3,1.1l.05.17C329,460.7,330,460.4,331,460.06ZM328,461.33q.82,2.73,1.91,5.37c.93-.32,1.87-.64,2.9-1a54.82,54.82,0,0,1-1.83-5.41C330,460.64,329,461,328,461.33ZM61.21,370.18l-.15-.26h0Zm-2.46-4.06V366L58,364.83l0,.17Zm-6.8-231.46-.31-.25c-.34.64-.71,1.26-1,1.91l.39.24C51.31,135.93,51.61,135.29,51.95,134.66Zm90.39-92.25c1.27-.82,2.7-1.49,4.06-2.22-.07-.16-.16-.33-.21-.45-.91.47-1.78.9-2.72,1.41l-12.09,7.33c-2,1.25-4.08,2.37-6,3.73l-5.66,4.22L108.4,64.86,98,74.31a232.73,232.73,0,0,0-44.15,56.12l.35.26c1.9-3.37,3.83-6.73,5.89-10l3.73-6.13,4.3-5.74,8.6-11.48c3.12-3.62,6.41-7.1,9.61-10.65a102.06,102.06,0,0,1,10-10.22L107,66.83c3.57-3.18,7.59-5.81,11.37-8.74C125.78,52,134.2,47.42,142.34,42.41Zm8.82-5.19-2.24,1.11.24.36c.73-.37,1.44-.77,2.19-1.13ZM464,143.08c-1.19-2.47-2.39-4.93-3.67-7.36-1.48,1.08-2.9,2-4.22,2.77,1.06,2.3,2.15,4.81,3.32,7.41C460.94,145,462.46,144,464,143.08Zm-3.79-7.57c-.47.32-.9.65-1.38,1,.63-.33,1.08-.59,1.46-.82Zm-3.17-5.7c-1.32,1-2.66,1.88-3.9,2.7-1.18-2.34-2.42-4.65-3.69-6.94-.11-.21-.25-.4-.38-.59.63,1.4,2.33,4.59,4.73,8.89l0-.07c1.37-.7,2.79-1.49,4.2-2.32ZM376.12,45.94c-.57.87-1.14,1.74-1.68,2.63a231,231,0,0,1,29.7,21.27l13,11.81c3.89,4,7.38,8.12,10.76,11.83,1.66,1.88,3.32,3.66,4.82,5.44l4,5.43,6.78,9.36c2.51,3.88,4.39,7,5.71,9.34.93-.59,1.84-1.19,2.73-1.83-2.83-4.53-5.77-9-8.91-13.3-2.84-3.77-5.7-7.75-8.73-11.61l-9.89-10.9L419.5,80.1l-5.14-4.69-9.45-8.68A247.14,247.14,0,0,0,376.12,45.94Zm-9.94-5.64c-.35.71-.8,1.35-1.1,2.09.47-.76.91-1.39,1.33-2Zm-1.93-1.09c-.43.74-.93,1.61-1.53,2.67l.31.17q.78-1.32,1.6-2.63ZM161.1,32.42l.18.3L164.93,31c2.1-.95,4.32-1.63,6.47-2.46l13-4.77c4.32-1.67,8.93-2.45,13.38-3.71,4.51-1.06,8.93-2.52,13.5-3.25-1.55.5-.48.28-5.12,1.69-6.09,1.85-12.84,3.66-19.77,5.87-6.75,2.75-13.83,5.45-20.74,8.4,26.63-9.77,26.55-8.82,45.28-14l15.62-2.51,5.66-.88L238.4,15l13.29-.64c4.58-.44,9.28.17,14,.35l13.94.82c9,1.55,17.6,2.64,24.62,4.24L320,24.11c3.65.8,9.32,3.33,14.8,5.29a228.58,228.58,0,0,1,24.9,10.93c.7-1.12,1.33-2.05,1.82-2.7-5.71-3-11.56-5.83-17.6-8.41C321.21,19.61,296,14,269.22,12.29l-8.71-.46a53.7,53.7,0,0,0-8.66-.06l-17,.76c-8.24.65-16.26,2.22-24.87,3.35-4.25.85-8.57,2.08-13.12,3.17-4.51,1.27-9.41,2-14.23,4,2.38-.47,1.07.26-5.2,2.7-3.11,1.28-7.57,2.74-13.23,5.15C163.24,31.39,162.16,31.9,161.1,32.42Zm-16.82.86c.6.77,1.2,1.57,1.79,2.43l.27-.14,2.9-1.37c-.56-.77-1.07-1.43-1.49-2l-.38-.48C146.33,32.18,145.31,32.74,144.28,33.28ZM48.29,126c.68.6,1.41,1.19,2.13,1.79A232.55,232.55,0,0,1,65.23,105,235.67,235.67,0,0,1,131.1,44.35c4.28-2.42,8.77-5.45,13.53-7.89-.52-.66-1.15-1.44-1.94-2.37-3.43,1.86-6.83,3.85-10.22,5.93-10.9,6.06-20.74,14.07-29.8,21.13-25.28,21.9-39.3,39.68-53.23,63C49.06,124.74,48.68,125.38,48.29,126Zm-4.67,1.77,0-.07-.12-.1Zm3.43,6c.38-.71.8-1.4,1.19-2.11-.22-.19-.47-.36-.68-.55L46,129.77c-.17.3-.37.59-.54.89L44.83,132c.35.29.68.6,1,.89S46.66,133.48,47.05,133.79ZM24.84,228.63a222.57,222.57,0,0,1,21.69-83.35l-.29-.18c-.5,1.06-1.05,2.1-1.54,3.17A230.09,230.09,0,0,0,24.24,237a5.81,5.81,0,0,0,.06.93ZM43.49,337.44l.41.74,7.55,15.72c1.89,3.34,4,6.78,6.13,10.3V364a135,135,0,0,1-9.2-17l-5.47-11.51c-1.64-3.81-2.85-7.68-4.24-11.32l-3.85-10.52c-1-3.41-1.78-6.7-2.6-9.73-1-4-2.06-7.62-2.88-10.8,1.19,5.4,2.59,10.71,3.84,16.13a75.63,75.63,0,0,0,3.24,10.32l3.8,10.65a83.66,83.66,0,0,0,5.29,12c2.64,5.06,5.27,11.81,10.35,19.44a121.49,121.49,0,0,1-8.21-15.5ZM73.2,405.87l-.79-8.42c0,1.46,0,2.13.06,3l-.83-7.23q-4.93-6-9.42-12.37l1.43,13.5C66.72,398.24,69.88,402.12,73.2,405.87Zm7.61,8.22-1-9.37c-.09-.82-.19-1.66-.29-2.51-.81-.89-1.59-1.82-2.39-2.72.07,1.76.15,3.53.21,5.27l.56,5.49.25-.74.14,1.93C79.17,412.31,80,413.22,80.81,414.09Zm11.55,49.68-1-10.28-1.73-17.27c-.21-2-.59-3.37-.89-5l0,1.89L93,470.73l.12-.81Zm70.2,6c.48-.65,1-1.3,1.4-2a45.7,45.7,0,0,0,2.35-4.36c-5.11-1.94-14.41-6.51-18.79-8.59-5.26-2.29-9.89-5.61-14.74-8.44s-9.67-5.65-14-9.15l-13.24-9.87L93.38,416.42c-.95-.9-1.83-1.87-2.77-2.78.23,2.08.47,4.13.7,6.12.2,1.68.37,3.31.56,5A244.72,244.72,0,0,0,162.56,469.75Zm13.85-3.22c-.89-.24-1.85-.51-3-.87a50.29,50.29,0,0,1-3.88,6.82c.92.35,1.83.7,2.75,1A51.19,51.19,0,0,0,176.41,466.53ZM323,468.87q-1-2.58-1.85-5.31c-10.08,2.56-20.08,5.51-30.43,6.63-10.37,2-20.91,2.19-31.38,2.76-5.23.44-10.46-.33-15.67-.43-5.2-.38-10.45-.18-15.56-1.21-16.32-2-34.74-6.18-46.38-10.17s-17.18-5.69-8.09-2.07l11.27,4.45c4,1.67,8.64,2.56,13.24,4,4.66,1.15,9.35,2.93,14.29,3.64l14.67,2.52c2.45.74,11.89,1.19,18.14,1.45l-2.34-.45c6.89.34,13.07,1,19.51.49l10-.42a80.39,80.39,0,0,0,11-.85,67,67,0,0,1-9.68,1l-7.31.44-7.49.45c-.79.29-2.4.56-1.74.71,1.88.42-7.94,1.47,21.88.38,6-.68,13.8-1.9,20.47-2.8s12-2.71,13.57-2.84C315.41,470.65,318.44,470.13,323,468.87Zm13,8.77,2.72-1a55,55,0,0,1-5.45-10l-1.17.31c-.6.2-1.18.34-1.78.54A56,56,0,0,0,336,477.64Zm94.68-61,1.49-1.68,2-18-.54,2.91.83-9.24A19.7,19.7,0,0,1,434,387c0-.18,0-.54,0-1-.91,1.2-1.81,2.4-2.74,3.55l-5.46,6-.14,1.54c-.66,6.9-1.11,10.59-1.58,12.06-1.07,3.4-2.13,6.55-3.12,9.09-.17.42-.1-2.13,0-4.34.26-4.57.71-9.46,1.22-14.43a103.41,103.41,0,0,1-10,10.06l-10.39,9.49-16.39,12.72a221.15,221.15,0,0,1-37.66,21.41c-4.11,2.19-8.67,3.37-13,5.12-.54.19-1.06.4-1.6.6l.1.31a229.25,229.25,0,0,0,62.81-34.44l-10.82,8.17c-3.62,2.61-7.53,4.71-11.24,7.05-3.8,2.19-7.35,4.77-11.3,6.59l-11.7,5.64c-2.39,1.09-4.69,2.4-7.15,3.32l-7.42,2.71c-1,.36-2.08.77-3.13,1.15a50,50,0,0,0,2,5.35l1.89-.71,10.31-3.77,10.11-4.8c6.46-3,11.91-5.58,14-7,5.45-3.07.76.12.34.75l9.73-5.77-13,7.92-11.82,5.75c-3.73,1.72-7.12,3.62-10.62,5L335.9,465.9h-.06c.36.78.66,1.59,1.06,2.35a34.9,34.9,0,0,0,3.79,5.85l-.48-.88c.51.76,1.1,1.47,1.65,2.2a244.72,244.72,0,0,0,48.8-25.29c5-3,9.34-6.93,14-10.35l6.9-5.32c2.24-1.84,4.29-3.92,6.43-5.87C422.23,424.61,426.61,420.8,430.64,416.63ZM371.9,449.27Zm68-43.05.07-.69c1-10,1.6-23,.44-17.12-.87,4.39-1.88,10.8-2.85,16.66l-.45,4.31Zm-155.19-40c-8.46,1.82-16.14,3.13-24,3.26-7.92.43-16-.28-25.4-1.61,1.79.4,2.63.5,3.64.7-4.58-.34-8.32-1.38-11.54-1.86a17.68,17.68,0,0,1-4.45-.32c-1.23-.28-6.51-1.34-8.56-2.27a129.43,129.43,0,0,1-22.79-10.56,94.92,94.92,0,0,1-19.36-15.61c-2.68-3.14-5.82-6.61-7.56-9.75a66.15,66.15,0,0,1-10.15-26.94,60.11,60.11,0,0,1,3.6-29.14,71.78,71.78,0,0,1,20.69-28.76A99.86,99.86,0,0,1,207.83,226c7.72-3,19.23-5.83,17.28-4.67-1,.62,1.82-.29,12.19-2.07l8-.92a147.39,147.39,0,0,1,30.54,1.08,128.35,128.35,0,0,1,29.4,8.38c2.73,1.33,5.6,2.22,8.21,3.74l-1.08-.71c17.64,9.22,33.59,24,40.26,44-1.24-1.86.76,3.37,1.82,11.72-.45,2.13-.89,3.45-1.24,5.83-.24,1.62-.54.77-.9-2.53a42.83,42.83,0,0,0-1-6.77c-.32-1.42-.56-3-1-4.73l-1.85-5.5c-3.69-9.89-10.44-18.83-18.47-26A99.24,99.24,0,0,0,313.21,235a102,102,0,0,0-24.37-10.25,112.61,112.61,0,0,0-28-4.43c-4.3-.31-8.6-.14-12.71,0a131.82,131.82,0,0,0-19.61,2.32c1.94.49-2.07.86-15.06,5.34a105.26,105.26,0,0,0-18.81,8.83c-9.6,5.88-18.33,13.38-24.73,22.63a59.46,59.46,0,0,0-11,31.23.87.87,0,0,0,.08.34l.29-3.39a55.58,55.58,0,0,1,6-19.9c1.37-3.23,3.6-6,5.43-9,2.28-2.66,4.26-5.57,6.87-7.93a93.6,93.6,0,0,1,35.41-22.19c2.06-.68,4.1-1.75,6.37-2.35a121.26,121.26,0,0,1,20-4.23,3.36,3.36,0,0,1-1.88.79,134.51,134.51,0,0,0-15.12,4.61c5-1.27,7.58-1.56,9.69-2s3.78-1,7.29-1.56l5.74-.79a121.31,121.31,0,0,1,19.46,0,88.41,88.41,0,0,1,14.89,2.54L285,227.1a111.17,111.17,0,0,1,27.25,10.6c15.66,8.41,23.08,19.76,19.6,16.71-2.56-1.78,4.14,5.95,8,13.31,1.74,3.57,3.25,6.41,3.84,8.89a25,25,0,0,1,1.41,5.72c.37,2.88.36,3.95.22,4.44s-.71-1.43-.52.21c-.07,3.63-.24,4.4-.53,3.38a70,70,0,0,0-1.64-7.49,33.21,33.21,0,0,1,.53,6.27,24,24,0,0,0-1-5.09,26.85,26.85,0,0,0-1.56-5.23l-1.05-3.07c-.45-1.07-1-2.15-1.54-3.22a24.62,24.62,0,0,0-2.86-5c-6.15-9.3-17.09-18.77-29.24-25a112.19,112.19,0,0,0-26-9.22c.46.45,3.2,1.38,2.64,1.63a17.16,17.16,0,0,1-4-.36l-5.11-.83-8-.83,2.39,1.1c-9-.8-18.72-.56-24.51.47a138.66,138.66,0,0,0-23.86,5.46c-3.73,1.27-5.16,1.29-7.5,2.18l.6-.48a81.38,81.38,0,0,0-18.59,11.16A74.8,74.8,0,0,0,180,268.41a50.47,50.47,0,0,0-7.82,20.07,35.39,35.39,0,0,0-.17,7.77c.9,13.53,8.86,26.64,20.84,36.05,10.09,8.46,22.86,14.1,36.22,17.57a108.87,108.87,0,0,0,35.21,2.72,128,128,0,0,0,25-4.91,107.61,107.61,0,0,0,22.79-10.37l4-2.73c3.84-3.3,6.38-5.33,8.32-7.26a40.7,40.7,0,0,0,5.67-5.83,19.42,19.42,0,0,1,2.84-2.92c.44-.34-.43,1.42.23.71,1.89-1.65,5.48-7.94,5-6.26-.65,2.19,1.89-1.72,3.18-5.38a47.32,47.32,0,0,1-4.72,10.94c3.22-5.32,3.89-6.38,4.77-7.71.58-1.42,2.15-3,3.56-10.51l-.88,5.06,2.23-5.86,1.49-6.37a53.55,53.55,0,0,1-7,25.72c.25.15,1.58-1.64.5.78-.83,1.56-1.93,3.44-3.2,5.53-1.53,1.92-3.14,4.1-5,6.19a82.35,82.35,0,0,1-12.66,10.89l-4.89,3.3-4.4,2.49c-2.62,1.63-4.92,2.62-6.58,3.55a69.06,69.06,0,0,1-14.61,5.73,95,95,0,0,1-9.86,2.45V360a113.27,113.27,0,0,0,29-9.55c-3,1.41-5.89,2.87-8.84,4.05-3,1-5.91,2.3-9,3.11a128.8,128.8,0,0,1-45.5,4.78c-12-.54-27.13-4.54-20.38-2.06a117.42,117.42,0,0,0,19.93,4.47c.91.19,4.4.2,6.7.31l-.86-.36c5.07.45,9.11.2,14.94.12l-9,.6c-.29.27-.88.47-.64.65.7.49-3,1.18,8.13,1.18,4.5-.17,11.66-.84,12.81-.94a55.37,55.37,0,0,0,9.23-1.57l8-2.09c2.52-.84,4.66-1.55,5.56-1.78,2.27-.6.39.39.26.78-1,.3.5-.11,4-1.38-3.84,1.5-7.07,2.67-10,3.65l-8.2,2.28C285.64,366.25,285.23,366.2,284.66,366.18ZM277,354.67l2.13-.25a98.63,98.63,0,0,0,38.57-16.53l-.84.32a55,55,0,0,1-5.65,3.78l-5,2.76L301,347.11a119.13,119.13,0,0,1-18.42,6.11C280.43,353.64,278.87,354.17,277,354.67ZM169.37,326.14l.21.23a50,50,0,0,0,3.87,5.08,44.19,44.19,0,0,0,4.69,5.15,80.9,80.9,0,0,1-11.28-15l-3.49-6.94-2-5.41a57.52,57.52,0,0,0,6.22,14.58l2.62,4,5.22,6.2C171.72,329.44,170.36,327.92,169.37,326.14Zm33.27,43.68c-2.87-1.08-3.95-1.41-2.85-.8a64.82,64.82,0,0,0,10.38,4.3,127.06,127.06,0,0,0,48.14,7.37c3-.2,6.45-.53,5.85-.63-3.61-.64-8-1-12.63-2-2-.36-7-.52-16.16-1.7-21.76-3.28-43.83-11.4-61.33-26.82a104.47,104.47,0,0,1-18.29-21.06c-3.54-6-5.16-8.78-3.62-4.64.33.79,1.25,3,2.23,4.81a91.69,91.69,0,0,0,26.21,29.16,115.5,115.5,0,0,0,11,6.18c2.17,1.3,7.54,3.82,11.54,5.59C203.06,369.66,204.36,370.46,202.64,369.81Zm-50-98.51a34,34,0,0,0-2.31,10.81,19,19,0,0,1-.22,2.41c0,1.23-.05,2.79-.08,4.48a49.32,49.32,0,0,0,.59,10c.23,1.75.47,2.67.52,1.85l.21-6.34a67,67,0,0,1,5.25-25.94A80.06,80.06,0,0,1,170.1,248c7.34-7.63,14.24-12.85,25.27-19.25a106.64,106.64,0,0,1,25.39-10.14,63.15,63.15,0,0,1,6.48-2.75l7.65-2.52c-12.33,1.84-27.63,5.89-41,14-2.11,1-9.52,5.87-11.59,7.25a136.6,136.6,0,0,0-11.74,9.07,29.18,29.18,0,0,0-4.52,4.45,53.48,53.48,0,0,0-6.11,8.24,49.39,49.39,0,0,0-4,7.14A44.87,44.87,0,0,0,152.66,271.31ZM294.45,375.82a68.86,68.86,0,0,0,8.28-2.66c20.34-7.1,40.54-20.43,52.7-39.58,5.74-8.93,7.59-16.23,8-18.6s-.42-.08-4.11,7.43l-2.43,4.65c-1,1.74-2.19,3.42-3.09,4.89A91.29,91.29,0,0,1,333,354.42l2.92-1.82-2.71,2.1A122.73,122.73,0,0,1,284,378.13l1.93-.19C288.82,377.48,291.62,376.54,294.45,375.82ZM193.88,183c2.76-9.66-2.74-19.43-11.79-23.2-7.73-3.22-17.28-1.12-20.78,6.52a13.57,13.57,0,0,0-2.39,4.69,14.9,14.9,0,0,0,2.63,18.57C169.76,198.9,190.09,196.22,193.88,183Zm124.5-2.22a14.9,14.9,0,0,0,12.08,14.35c11.92,3.58,27.73-9.47,23.91-22.72-2.78-9.65-12.63-15-22.3-13.42-8.27,1.37-15.24,8.21-14.15,16.55A13.57,13.57,0,0,0,318.38,180.73ZM219.71,294.67a9.58,9.58,0,0,0,7.77,9.23c7.67,2.3,17.84-6.09,15.38-14.62a12.6,12.6,0,0,0-14.34-8.63c-5.32.88-9.8,5.28-9.1,10.64A8.72,8.72,0,0,0,219.71,294.67Zm58.52-13.9a8.75,8.75,0,0,0-3.24,1,9.58,9.58,0,0,0-7.4,9.53c-.65,8,9.69,16.17,17.51,12a12.6,12.6,0,0,0,5.44-15.83C288.57,282.43,283.33,279,278.23,280.77Z"/></svg>