<svg id="Layer_1" data-name="Layer 1" xmlns="http://www.w3.org/2000/svg" viewBox="0 0 512 512"><defs><style>.cls-1{fill:#eff2f4;}.cls-2{fill:#e85454;}.cls-3{opacity:0.14;}.cls-4{fill:#17292d;}.cls-5{fill:#141f38;}</style></defs><title>piggy-bank-filled</title><path class="cls-1" d="M113.05,499.2c-13,0-24-8.42-25.06-19.18l-9.82-96H166.4v69.2C166.4,478.56,142.47,499.2,113.05,499.2Z"/><path class="cls-1" d="M372.4,49.46C376,37.77,388.14,12.8,426,12.8c15.54,0,33.85,4.14,54.5,12.32,3.78,12.24,11.73,44.89-1.24,70.63-7,14-19.61,24.17-37.44,30.42Z"/><path class="cls-1" d="M70.17,126.17C52.3,119.9,39.71,109.66,32.68,95.64c-13-25.88-5-58.31-1.21-70.51C52.13,16.94,70.45,12.8,86,12.8c37.89,0,50,25.19,53.6,36.67Z"/><path class="cls-1" d="M398.95,499.2c-29.42,0-53.35-20.64-53.35-46V384h88.23L424,480C422.91,490.78,411.9,499.2,398.95,499.2Z"/><path class="cls-1" d="M256,473.6c-127,0-230.4-103.36-230.4-230.4S129,12.8,256,12.8,486.4,116.16,486.4,243.2,383,473.6,256,473.6Z"/><path class="cls-2" d="M256,358.4c-49.41,0-89.6-28.71-89.6-64s40.19-64,89.6-64,89.6,28.71,89.6,64S305.41,358.4,256,358.4Z"/><g class="cls-3"><path class="cls-4" d="M256,0A242.19,242.19,0,0,0,155,22a217.49,217.49,0,0,1,62.65-9.2c120.18,0,217.6,97.42,217.6,217.6S337.78,448,217.6,448A217.26,217.26,0,0,1,42.07,359,243.15,243.15,0,0,0,256,486.4c134.32,0,243.2-108.88,243.2-243.2S390.32,0,256,0Z"/></g><path class="cls-5" d="M499.2,243.2a242.09,242.09,0,0,0-29.87-116.84C520.1,89.66,490.74,15.47,490.74,15.47,464.27,4.33,443,0,426,0c-30.75,0-47.76,14.12-57,27.8a243.48,243.48,0,0,0-226,0C133.75,14.12,116.74,0,86,0,69,0,47.73,4.33,21.26,15.47c0,0-29.36,74.19,21.41,110.88A243.3,243.3,0,0,0,66.5,395.62l8.77,85.71C77,498.7,93.43,512,113,512h0c28.83,0,53.33-16.41,62.38-39.28a244.05,244.05,0,0,0,161.13,0C345.62,495.6,370.12,512,399,512c19.62,0,36-13.3,37.79-30.67l8.77-85.71A242.16,242.16,0,0,0,499.2,243.2ZM426,25.6c12.51,0,27.27,3.09,44,9.21,3.59,14.27,6.58,37.7-2.13,55.09a42.68,42.68,0,0,1-12.08,14.64,244.53,244.53,0,0,0-65-63.75C396.75,32.95,407.28,25.6,426,25.6ZM44.2,90.06C35.41,72.7,38.36,49.3,42,34.81c16.73-6.11,31.49-9.21,44-9.21,18.72,0,29.26,7.35,35.17,15.18a244.52,244.52,0,0,0-65,63.75A42.68,42.68,0,0,1,44.2,90.06ZM113,486.4c-6.9,0-11.94-4-12.32-7.68l-5.42-53A243.5,243.5,0,0,0,151.8,463C146.68,476.53,131.25,486.4,113,486.4ZM38.4,243.2C38.4,123.21,136,25.6,256,25.6s217.6,97.61,217.6,217.6S376,460.8,256,460.8,38.4,363.18,38.4,243.2ZM399,486.4c-18.2,0-33.63-9.87-38.75-23.41a243.52,243.52,0,0,0,56.49-37.26l-5.42,53C410.89,482.43,405.85,486.4,399,486.4ZM256,217.6c-56.55,0-102.4,34.38-102.4,76.8s45.85,76.8,102.4,76.8,102.4-34.38,102.4-76.8S312.55,217.6,256,217.6Zm0,128c-41.63,0-76.8-23.45-76.8-51.2s35.17-51.2,76.8-51.2,76.8,23.45,76.8,51.2S297.63,345.6,256,345.6ZM153.6,172.8A19.2,19.2,0,1,1,172.8,192,19.2,19.2,0,0,1,153.6,172.8Zm204.8,0a19.2,19.2,0,1,1-19.2-19.2A19.2,19.2,0,0,1,358.4,172.8ZM243.2,294.4a12.8,12.8,0,1,1-12.8-12.8A12.8,12.8,0,0,1,243.2,294.4Zm51.2,0a12.8,12.8,0,1,1-12.8-12.8A12.8,12.8,0,0,1,294.4,294.4Z"/></svg>