<svg id="Layer_1" data-name="Layer 1" xmlns="http://www.w3.org/2000/svg" viewBox="0 0 512 512"><defs><style>.cls-1{fill:#141f38;}</style></defs><title>aim-outline</title><path class="cls-1" d="M256,192a64,64,0,1,0,64,64A64,64,0,0,0,256,192Zm0,102.4A38.4,38.4,0,1,1,294.4,256,38.44,38.44,0,0,1,256,294.4Zm243.2-51.2H460.39C454,140.29,371.71,58,268.8,51.61V12.8a12.8,12.8,0,1,0-25.6,0V51.61C140.29,58,58,140.29,51.61,243.2H12.8a12.8,12.8,0,0,0,0,25.6H51.61C58,371.71,140.29,454,243.2,460.39V499.2a12.8,12.8,0,1,0,25.6,0V460.39C371.71,454,454,371.71,460.39,268.8H499.2a12.8,12.8,0,0,0,0-25.6Zm-64.46,0H383.36A128,128,0,0,0,268.8,128.64V77.26C357.43,83.55,428.45,154.57,434.74,243.2ZM256,358.4A102.4,102.4,0,1,1,358.4,256,102.52,102.52,0,0,1,256,358.4ZM243.2,77.26v51.37A128,128,0,0,0,128.64,243.2H77.26C83.55,154.57,154.57,83.55,243.2,77.26ZM77.26,268.8h51.37A128,128,0,0,0,243.2,383.36v51.37C154.57,428.45,83.55,357.43,77.26,268.8ZM268.8,434.74V383.36A128,128,0,0,0,383.36,268.8h51.37C428.45,357.43,357.43,428.45,268.8,434.74Z"/></svg>