<svg id="Layer_1" data-name="Layer 1" xmlns="http://www.w3.org/2000/svg" viewBox="0 0 512 512"><defs><style>.cls-1{fill:#707070;}</style></defs><title>aim-handdrawn</title><path class="cls-1" d="M216,459.9a22.34,22.34,0,0,1-3.13-.7C213.91,459.43,214.89,459.71,216,459.9ZM384,93.74c.54.43,1.06.89,1.6,1.33l.77.57Zm80.1,224.37c-1.57,5.45-5.57,15.12-8,22.09a231.51,231.51,0,0,1-35.14,57c1.66-1.55,2.76-2.71,3.69-3.76-1.11,1.37-2.2,2.75-3.42,4-12.95,16-28.76,29.52-45.6,41.41-17.06,11.72-36,20.42-55.65,27.18a36.79,36.79,0,0,0,4.24-1.21c6.2-2.32,12.54-4.43,18.67-7l17.78-8.59a225.93,225.93,0,0,0,58-45.95A217.06,217.06,0,0,0,457.89,342c2-5.21,3.61-10.08,5.15-14.45l2.13-6.21,1.35-5.63c1.63-7,2.68-11.92,3.1-14.41C470.35,296.31,468.92,301.1,464.12,318.12ZM336.48,154c.38.3.72.64,1.09.95l.38.27ZM229.43,384.26a12.31,12.31,0,0,0,1.35.3C230.3,384.47,229.89,384.35,229.43,384.26Zm161.12-88.1c-1.05,3.52-3.66,9.75-5.24,14.26a149.78,149.78,0,0,1-22.64,36.91,34,34,0,0,0,3.48-3.46,34.53,34.53,0,0,1-3.21,3.7c-8.3,10.44-18.45,19.28-29.32,27.08a149.36,149.36,0,0,1-36,18,24.87,24.87,0,0,0,2.78-.72c4-1.5,8.16-2.88,12.15-4.54l11.57-5.59c28.1-15.34,51.47-41.14,63.12-69.85a119.66,119.66,0,0,0,7.28-26.53C394.83,282.1,393.76,285.19,390.55,296.16ZM284.68,316.53a43.49,43.49,0,0,1-5.94,2.5l-1.18,0a61.46,61.46,0,0,1-18,3.72,62.29,62.29,0,0,1-19.17-1.89,25.55,25.55,0,0,0,2.68.89,72.9,72.9,0,0,1-8.6-2.19,17,17,0,0,1-3.42-.4,36.89,36.89,0,0,1-6.27-2.55C213.3,310.35,203.87,302,197.35,291a64.64,64.64,0,0,1-4.22-8.23,76.36,76.36,0,0,1-4.86-20.88,66.71,66.71,0,0,1,32.32-62.61c5.28-3.44,13.8-6.37,12.49-5.15-.65.76,1.31-.48,9-2.39,1.88-.45,4-.65,6-1A66,66,0,0,1,292,201c1.92,1.22,3.71,2.56,5.59,3.83l-.71-.66a66.37,66.37,0,0,1,23.48,38.07c-.89-1.44-.14,2.62.34,8.82-.54,1.57-1,2.55-1.49,4.32q-.46,1.81-.86-1.89a77.92,77.92,0,0,0-1.94-12.84,61.42,61.42,0,0,0-9.88-21.48c-2.84-4.28-7.1-8.26-10.22-11.2a60.23,60.23,0,0,0-36.68-15.3,74.24,74.24,0,0,0-9.39-.05c-2.26.14-4.46.53-6.83.79-2.31.53-4.82,1-7.54,1.82.75.15.44.52-1.23,1.29a96.48,96.48,0,0,0-9.18,4.3,62,62,0,0,0-12.4,9,62.71,62.71,0,0,0-19.93,44.24c0,.11.06.16.1.25l.19-2.52c1.2-20.79,13.82-40.24,31.92-50.26,1.34-.86,2.84-1.6,4.37-2.39a61.92,61.92,0,0,1,14.23-4.65c-.39.28-.07.38-1.29.89l-5.15,2.07-5.32,2.72c7.15-2.27,7.07-2,11.94-3.75.72-.18,2.62-.51,4.11-.76a56.67,56.67,0,0,1,14,0c2.37.47,4.63.83,6.46,1.32s3.25,1.06,4.07,1.38,2.37,1.09,3.79,1.61a61.66,61.66,0,0,1,18.1,10.56c9.77,8.33,13.2,17.65,11,15.08-1.59-1.58,1.51,5.1,3.39,10.9a37.46,37.46,0,0,1,2.43,11.3c.15,2.17,0,3-.29,3.37s-.48-1.11-.55.15c-.43,5.47-.66,2.39-1.77-3.15a26.28,26.28,0,0,1,0,4.77c-.14-2.68-.88-5-1.38-7.91l-1.29-4.89-1.5-4c-3.47-7.3-9.21-15.57-16.62-21.19a52.89,52.89,0,0,0-16.24-8.86c.22.49,1.87,1.54,1.45,1.74s-2.76-.84-11.06-2l1.47,1.09c-5.77-.76-12.08-.57-15.71.48a68.9,68.9,0,0,0-14.85,5.14,36.49,36.49,0,0,1-4.75,2l.31-.42A48.58,48.58,0,0,0,218.09,224a67.68,67.68,0,0,0-7.28,12.76,61.77,61.77,0,0,0-4,15.63,31.64,31.64,0,0,0-.14,6,50,50,0,0,0,32.19,44.22,47,47,0,0,0,22.46,2.65,53.85,53.85,0,0,0,29.26-14,28.14,28.14,0,0,0,2.18-2.39c4-5.56,5.58-7,7.69-10.81a5.65,5.65,0,0,1,1.87-2.32c.35-.27-.08,1.09.4.54,1.07-1.4,3.31-6.28,3.23-5,.05,1.74,1.07-1.46,2.11-4.21a59.45,59.45,0,0,1-2.25,8.53,57.9,57.9,0,0,1,2.78-6.1c.63-1,1.33-2.36,2.19-8.05l-.42,3.84a62.32,62.32,0,0,0,3-9.26,56.13,56.13,0,0,1-3.54,19.68c.27.11,1.17-1.31.72.6-1,5.17-6.3,14-11.46,19.25a98.52,98.52,0,0,1-9.74,8.9,41.85,41.85,0,0,1-9.61,5.76c-2.2,1-4.48,1.8-6.77,2.58l0,.15a59.63,59.63,0,0,0,19.47-9.82,52.12,52.12,0,0,1-11.71,7.23,60.58,60.58,0,0,1-32.11,5c-8.57-.75-19.19-4.69-14.59-2.24a53.61,53.61,0,0,0,14.09,4.75,31.38,31.38,0,0,0,4.89.39l-.62-.37a60.91,60.91,0,0,0,10.91.05c-3.89.55-6.11.59-6.6.69-.21.28-.65.49-.47.67.53.51-2.21,1.23,6.07,1.25,3.36-.22,8.68-1,9.54-1.18,1.2-.06,3-.3,6.8-1.78a44.71,44.71,0,0,0,5.75-2.33c1.83-.8,3.38-1.48,4-1.82,1.61-.73.41.36.4.75l2.81-1.55A51.1,51.1,0,0,1,284.68,316.53Zm-14.61-9.11,1.44-.19a53.55,53.55,0,0,0,23.87-15.56l-.56.3a25.79,25.79,0,0,1-3.27,3.37,54.47,54.47,0,0,1-6.18,4.78,56.74,56.74,0,0,1-11.74,5.77C272.27,306.47,271.3,307,270.08,307.43Zm-71.77-26.09.14.19,2,4.27,2.64,4.43c-5-8.34-7.67-17.82-8.85-22.18a62.73,62.73,0,0,0,2.92,11.42,50.24,50.24,0,0,0,4.36,8.5A68.45,68.45,0,0,1,198.31,281.34Zm41.2,48.34a74.64,74.64,0,0,1-44.29-28.6c-10-13-14-28.78-13.21-22.15.13.63.66,2.29,1.17,3.77a77.68,77.68,0,0,0,15.17,26.19A95.69,95.69,0,0,0,206,315.4c1.6,1.19,5.3,4.22,8.31,6-.1.13.82.93-.5.26-4.3-2.43-3.52-1.23,5.47,3.95,11.88,6.29,26.38,9.94,38.71,8.86,2.46-.21,5.29-.58,4.79-.68-3-.64-6.56-1-10.3-2.11C250.85,331.36,246.84,331.17,239.51,329.67Zm-55.18-69.44c.18,1.28.39,2,.48,1.36.19-1.3.33-3.6.43-4.66a69.77,69.77,0,0,1,10.06-36.22c4.19-6.8,8.44-11.86,15.77-18.36a71.48,71.48,0,0,1,18-10.92l4.68-2.93a58,58,0,0,1,5.74-2.71c-9.54,2.2-21.24,7-30.11,15.33l-3.87,3.55-3.72,3.8a104.71,104.71,0,0,0-7.58,8.5,45.27,45.27,0,0,0-2.81,3.95c-.94,1.8-2.12,4-3.35,7-3.09,6.95-5,17.95-4.47,19.94C183.84,248.82,183.55,256.28,184.33,260.23Zm144.9,17.63c-.62,1.9-2.06,5.28-2.93,7.73a81.67,81.67,0,0,1-12.22,20.14,20.13,20.13,0,0,0,2.06-1.75,20.19,20.19,0,0,1-1.78,2A78.45,78.45,0,0,1,279,331.39a15.18,15.18,0,0,0,1.56-.32c2.23-.82,4.51-1.59,6.72-2.51l6.39-3.1c15.49-8.49,28.49-22.7,34.71-38.65a52.15,52.15,0,0,0,3.57-14.73C331.89,270.26,331.14,271.92,329.24,277.86Zm131.18-31.09c-.18,2.13-.35,4.36-.48,7.25l1.64,0v-.19l6.77,0,15.27-.08c2.47,0,5.85,0,7.72.09,7.06.19,7.06.24,7.05,1.39s0,1.37-15.07,1.62c-9.41.15-19.34.23-29.09.17-.29,28.57-5.55,48.08-12.17,67,.27.11,2.53-5,.46,1.31a91.88,91.88,0,0,1-5.86,14.86c-2.61,5.51-5.3,11.7-9.17,17.51l-5.49,9c-2,2.95-4.22,5.69-6.28,8.51s-4.14,5.59-6.25,8.2l-6.57,7.18c-6.65,7.92-13.82,13.36-19.19,18.59l-14.32,11.17A189.18,189.18,0,0,1,336.44,439c-3.6,1.92-7.59,2.95-11.37,4.48-3.86,1.33-7.6,3-11.55,4.07v.16a200.64,200.64,0,0,0,65.28-33.54l-9.47,7.16c-3.17,2.29-6.6,4.12-9.84,6.18s-6.44,4.18-9.89,5.78l-10.25,4.94a91.82,91.82,0,0,1-12.76,5.28c-4.36,1.49-8.6,3.39-13.07,4.55-9,2.26-17.83,4.91-27,5.91-7.68,1.52-15.46,1.84-23.23,2.21v2.44c5.18-.26,10.64-.14,16.9-1-7.66.89-13.27,1.22-16.9,1.4V461c2.89,0,7-.13,13.13-.34,5.3-.59,12.14-1.64,18-2.42s10.58-2.36,11.95-2.45a105.53,105.53,0,0,0,21.2-6.24l9.07-3.31,8.9-4.21a133.71,133.71,0,0,0,12.32-6.11c4.82-2.68.71.17.37.78l8.58-5.06-11.46,7-10.41,5.07c-3.28,1.52-6.28,3.19-9.36,4.36l-9.09,3.34-3.4.83c-19.32,6.5-37.36,10.3-55.93,11-1.29.09-2.6.05-3.9.11l0,10.32c4.18.13,8.15.18,11.74.39,1.26.05-5.33.58-11.74,1l0,21.36H263c-.07.51-.21,2.42-.23,9.54-.11.63-.2,1.11-.3,1.56-.19,1-.38,1.88-.56,3.21-.08.61-.18,1.3-1.1,1.3h-.07c-1.27,0-1.27,0-1.18-18.32,0-6.09.05-12.31.07-18.51h-.68c-.18,2.77-.35,6.94-.36,11.1-.06,15-.33,18-.59,18.95l-.16.58h-.13c-.16,3.72-.31,3.84-1.24,3.79-.74,0-1,0-1.15-2.42h-.43l-.07-3.36c0-2.37-.1-4.75-.12-7.43,0-1.8,0-4.07,0-6.24,0-2.56,0-5,0-6.31-.06-2.71-.11-5.6-.14-8.56-32.84.56-69.9-8.81-100.9-25.11C141.06,443,134.17,438.61,132,436.9c-2.13-1.87-.27-.11,5.81,3.19,3.6,2,.81.12.94,0-4.34-2.4-8.92-6-13.16-9.18s-8.17-5.87-10.18-7.84c-9.17-8-15.48-13.25-20.65-19.11a218.18,218.18,0,0,1-43.6-72.84C49.64,327,48,322.35,47.5,320.61c-1.77-9.08-.45-2.5,5.25,11.15,5,13.85,15.52,34.41,29.49,53.07,30.5,41.27,76.47,71.69,126.51,82.17,10.43,2.33,18.65,3.06,24.68,4.18,6.1.47,10.13.71,12.44,1,2.94.47,5.81.77,8.62,1q0-4.72-.05-9.62a210.65,210.65,0,0,1-46.89-5.89c2.33.63,3.92,1.14,5.31,1.53-4-.89-7.85-1.94-11.39-2.76a85,85,0,0,1-12.06-3.56c-3.34-.91-4.57-1.07-10-2.8-3-.52-14.28-6.07-19-8.31-4.64-2-8.72-4.95-13-7.45s-8.53-5-12.32-8.07l-11.67-8.7L112.7,407.9c-13.89-13.18-26.39-27.83-36.11-44.75-5.33-7.92-9.36-17.85-13-25.13a226.07,226.07,0,0,1-15.51-63.84,183.49,183.49,0,0,1-.64-23.75h-2.6c-.11,2.78-.26,5.54-.31,8.35,0,3.18,0,10,0,13.83,0,1.78-.31-.28-.62-4.09l-.77-10.27a60.29,60.29,0,0,1,0-7.83l-27.77-.06v-.21c-.5-.07-2.39-.21-9.4-.22l-1.51-.29c-1-.2-1.87-.39-3.19-.57C.66,249,0,248.89,0,247.9c0-1.27,0-1.26,18.06-1.17l17.76.07h3.09c-.81-.16-1.08-.36-1.17-.59-2.54-.21-7.54-.44-12.38-.46-14.81-.07-17.76-.34-18.68-.59L6.12,245v-.12c-3.67-.16-3.74-.21-3.74-1.24,0-.74,0-1,2.38-1.15v-.43l3.4-.06c2.31,0,4.63-.1,7.24-.12h6c2.56,0,5,0,6.33,0,4.82-.12,10.15-.17,15.65-.19.11-4.84.12-8.56.31-9.57,0-1.42.36-4.48.91-8.6.7-4.1.93-9.4,2.58-14.94C48.68,203,50,196.83,51.86,190.9L58,174.12c3.7-8.56,7.1-15.1,9.7-20.41,3.13-5,5.57-8.82,7.63-11.87l3.62-5.42,4.92-6.18c3.6-4.38,7.27-9.69,12.21-14.52,2-2,6.21-6.92,10.79-11.42l11.47-10.46c26.8-23.84,60.77-38.52,89-45-6.41,2.2-12.65,3.67-17.58,6l-14.8,6.64c-17.64,7.44-38.66,19.81-54.21,33-22.3,19.35-34.71,35-47,55.57-1.16,1.92-2.39,3.81-3.5,5.78l-3,6.1-6,12.35-4.85,13c-.78,2.2-1.69,4.36-2.37,6.61l-1.8,6.84c-4,13-6,26.75-6.92,40.92h2.65a230,230,0,0,1,5.36-34.21A207.33,207.33,0,0,1,146.06,80c4.23-2.38,8.67-5.48,13.44-7.71L172.88,66c8.07-3.38,13.61-4.82,11.29-3.74-1.23.64-.17.35,4.09-1.17,2.17-.65,5-2.09,9-3l14.94-3.89c5.91-1.38,12.55-2,18.84-3.1A212.79,212.79,0,0,1,253,49.77c-.1-5.19,0-8.43.08-11.46.05-1.72.1-3.43.12-5.51a21.72,21.72,0,0,1,.32-4.1.92.92,0,0,1,.39-.62c.06-.86.12-1.87.17-2.86.21-3.75.26-4.7.69-5,.05-1,.1-2.39.15-3.61L255,14.9h.77c.07-1.59.12-4,.15-7.85h.53L257.06,0,259,0V23.69c.37.25.4.79.44,1.68.25,5.2.2,14.33.16,22.39v2c2.34,0,4.68.11,7,.23l0-5.37c0-5.56-.07-10.83-.08-16.18,0-2.43,0-5.86.09-7.73.19-7.07.15-7,1.39-7.07s1.37,0,1.62,15.11c.11,7,.14,14.21.15,21.46C305,52.56,339.66,63.59,369.1,83.29c5.76,3.67,11,7.85,16.52,11.79,36.09,29.36,62.53,70.87,72.42,117.81-1.68-4.78,1.28,7.79,2.9,27.33,6.05-.14,9.52-.05,12.81.06,1.73.05,3.46.11,5.55.12a20.78,20.78,0,0,1,4.1.32.91.91,0,0,1,.62.39c.86.06,1.85.11,2.84.17,3.75.21,4.71.26,5,.69,1,.06,2.5.11,3.78.15l1.57.06v.77c1.58.07,3.93.12,7.82.14v.53l7,.64,0,1.92H488.38c-.25.37-.79.39-1.67.44-5.15.26-14.18.21-22.16.16ZM259.6,473.47v-.94a2.46,2.46,0,0,1-.32.92Zm10.12-421c0,.88,0,1.75,0,2.63l7,.42c7.9,1.37,15.43,2.34,21.57,3.76l13.79,3.88c3.19.72,8.15,3,12.95,4.68a203.29,203.29,0,0,1,60.78,35.42l11.36,10.35c3.4,3.54,6.46,7.12,9.41,10.37l4.22,4.77,3.46,4.76,5.92,8.22c6.42,10,8.46,14.89,5.37,10.31-2.2-3.1-.26.9,3.6,7.91,1.91,3.52,3.65,8.15,5.89,12.88,1,2.41,2.32,4.8,3.25,7.35l2.72,7.66c7,19.27,8.65,31.77,9.54,39.29s1,10.36.76,11.65c-.14,1-.62-4-.54.41,0,.36,0,.64,0,1l4.69,0h2.85a198.63,198.63,0,0,0-5.62-34.13,201.45,201.45,0,0,0-32.52-69.71c-2.5-3.31-5-6.8-7.66-10.19l-8.68-9.57L399.62,112l-4.51-4.12-8.29-7.63a214.11,214.11,0,0,0-53.56-33C313.95,59,292.51,54.15,269.72,52.51ZM385.6,240.38c7.66,0,15.34,0,22.33-.08,15.6-.13,28.52-.16,41-.09a70.27,70.27,0,0,0-1.21-9.74c-.86-4.72-1.45-9.61-2.57-14.86-1.42-5.16-3-11.87-4.73-18L435,183c-1.23-3.53-3.29-6.81-4.93-10.36-1.84-3.46-3.3-7.21-5.5-10.64-4.36-6.87-8.39-14.28-13.83-20.89-4.85-7.06-10.88-13.32-16.72-19.75-2.88-3.25-6.35-5.91-9.47-8.9a90.29,90.29,0,0,0-9.86-8.31,190.28,190.28,0,0,0-60.28-32.24c1.13.82,7.65,3.66,6.41,3.56-1.29.28-9.86-4.72-41.28-9.21L285.51,68c-5.2-.79-10.51-1.33-15.77-1.69,0,3.47,0,6.95,0,10.38,0,2.81,0,5.69,0,8.57L269.66,91l-1.92,0-.59-24.85c-2.37-.13-4.73-.24-7.05-.29,0,4.84,0,9.48.05,14.08v23.64h.65l0-2.32c.06-3.17.12-6.16.2-6.84.13-1.16.14-2.89.15-6.66v-.93c0-4.4.08-10.05.16-11.51,0-.67.07-1.18.45-1.41l0-2h1.92l0,15.45-.2,1.28.06,5.85c0,4.72.08,9.2.08,13.73,0,4.38,0,8.83,0,13.65l0,4h.11v.79c.78,0,1.55.16,2.32.22,0-1,0-2,0-3,0-10.23,0-15,.18-17,.42-5.47.79-9.75,1.14-13.09l.09-.9.92,0c1,0,1,0,1.12,7,.14,8.53.15,17.92.14,27.34A126.94,126.94,0,0,1,327,147.51c3.66,2.33,7,5,10.53,7.43a130.71,130.71,0,0,1,45.36,74c-1-2.46,0,2.65.95,11.46ZM266.11,129.17c-.77-.06-1.51-.18-2.29-.23l0,2.69,2.24.15Zm-34.49,2.53a10.33,10.33,0,0,1-2.74,1.2l-10.68,3.52-11.15,4.88c14.52-5.1,14.44-4.58,24.56-7.64l8.47-1.43c3.75-.82,8.33-.66,13.1-1,0-.89,0-1.77,0-2.66-2.95.07-5.86.21-8.72.33-4.52.33-8.93,1.17-13.66,1.76-4.62,1.12-9.62,2.07-15,3.84,1.37-.08.68.43-2.73,1.84-1.69.73-4.12,1.55-7.22,2.88-3,1.54-6.85,3.22-11.34,5.62-4.34,2.78-9,5.08-13,8.35l-6.2,4.61L169.52,163a126.81,126.81,0,0,0-39.4,77.05h.19c4.74-39.14,29.24-75.14,63.65-94.27,2.72-1.74,5.82-3.09,8.91-4.69,4.44-2.41,9.36-3.74,14.06-5.6C221.75,134,226.69,132.8,231.62,131.7ZM139.73,307.06l.24.39,4.12,8.61c1.61,2.85,3.44,5.74,5.33,8.92-2.39-4.26-5.11-8.34-6.93-12.74l-3-6.31c-.89-2.09-1.55-4.2-2.3-6.19L135.13,294l-1.44-5.32c-.83-3.33-1.81-6.14-2.21-8.38a131.17,131.17,0,0,0,6.3,22.87,43,43,0,0,0,2.91,6.55c1.46,2.76,2.92,6.46,5.72,10.62a66.44,66.44,0,0,1-4.45-8.51Zm85.13-183.53c-4.07,1.54-8,2.6-11.12,4.2l-9.28,4.62A141.44,141.44,0,0,0,170,153.3c-14.14,12.34-22.09,22.22-30,35.27a56.73,56.73,0,0,0-4.15,7.55L132,204c-1.92,5.52-4.5,10.93-5.79,16.84a107.85,107.85,0,0,0-3.86,19.37l2.88,0a148.08,148.08,0,0,1,2.63-14.83c8.13-34.06,31.07-63.71,58.8-80.22,2.67-1.49,5.48-3.42,8.49-4.82l8.45-3.91c5.1-2.09,8.61-2.93,7.19-2.14-.75.46-.07.31,2.61-.63,2.63-1.12,7.48-2.38,15-4.33,3.71-.87,7.88-1.28,11.83-1.95,4.26-.49,8.55-.72,12.84-.81,0-7.59,0-15.21-.07-22.14-.13-14.67-.16-26.92-.11-38.52-10.78.14-20.58,1.13-27.8,2.79C205.12,72.36,185,78.75,167.57,88l-17.21,9.35,1.5-1.14C136,106.55,118.6,123,110.59,133.18c-9.51,12.09-21.07,28.82-29.31,48.36a205.63,205.63,0,0,0-14.64,60.08c4.8,0,9.69,0,14.8.06l4.33,0c.23-.78,1.82-.83,13.91-.87l0-.44,7.28,0c4.87,0,9.46-.06,13.06-.12a84.66,84.66,0,0,1,2-14.66c.93-3.58,1.81-7.51,3-11.32l3.89-10.77c2.36-5.5,4.54-9.7,6.24-13.09,2-3.22,3.63-5.63,5-7.55l2.4-3.42,3.22-3.91a107.68,107.68,0,0,1,7.94-9.18c1.29-1.26,4-4.39,6.93-7.27l7.33-6.69C185,137,206.83,127.69,224.86,123.54ZM129.23,252.1a1.74,1.74,0,0,0,.09.51l.15-2.3h-.1C129.34,250.9,129.24,251.5,129.23,252.1ZM449.78,240.2A103.6,103.6,0,0,0,448,227.48l1.1,8.94.08,3.78ZM259.56,51.85v1.08c0,.55,0,1.07,0,1.61,1.66.1,3.33.23,5,.29l2.33.14-.06-2.71C264.39,52.18,262,52,259.56,51.85ZM52.94,241.62h.22C57.12,174.5,97.76,111.5,156.3,78.9c4.36-2.8,9.39-4.89,14.36-7.44,7.13-3.87,15-6,22.59-9C197,61,201.08,60.32,205,59.21c4-.93,7.84-2.21,11.85-2.85a38.9,38.9,0,0,1-4.47,1.58c-5.34,1.66-11.25,3.29-17.32,5.26-5.91,2.45-12.11,4.85-18.15,7.47,23.37-8.5,23.29-7.66,39.69-12.31l13.69-2.22,5-.77,5.4-.28,11.65-.56c.25,0,.5,0,.75,0,0-1,0-2,0-2.52,0-.06,0-.11,0-.17-.2,0-.4,0-.6,0l-14.92.65c-7.24.56-14.29,1.94-21.86,2.92-3.74.75-7.53,1.82-11.54,2.77-4,1.11-8.27,1.75-12.51,3.49,2.12-.35,1,.32-4.52,2.49-2.73,1.14-6.64,2.42-11.61,4.54-4.83,2.45-11,5.14-18.21,9-7,4.46-14.45,8.16-20.87,13.42l-9.94,7.4-9.16,8.3A203.23,203.23,0,0,0,52.94,241.62Zm-.32,8.93v-.1h0S52.62,250.51,52.62,250.55Zm16.82,87.38.37.65,6.63,13.8C79,357,82,361.59,85,366.69c-3.89-6.8-8.3-13.33-11.25-20.37L69,336.2c-1.44-3.35-2.5-6.75-3.72-9.94L61.85,317c-.89-3-1.56-5.88-2.29-8.54-1.32-5.36-2.85-9.87-3.44-13.48,1.09,6.19,2.82,12.08,4.22,18.18s4,12,6.15,18.43a72.58,72.58,0,0,0,4.65,10.51c2.33,4.44,4.64,10.37,9.11,17.07a106.76,106.76,0,0,1-7.19-13.62Zm121,96.68a191.81,191.81,0,0,0,64,11.75c0-5.31,0-10.69.06-16.33l0-5c-.78-.24-.83-1.83-.87-14.11l-.43,0-.06-8.09c0-1.43,0-2.84,0-4.2-20.86.08-44.16-6.05-63.69-16.35-16.27-9.39-17.83-11.41-10.18-6.73,2.36,1.29.59,0,.7-.14a81.35,81.35,0,0,1-8.53-6c-2.71-2.1-5.29-3.81-6.61-5.07-6-5.13-10.14-8.48-13.56-12.24a141.55,141.55,0,0,1-28.09-47.39c-.94-2.7-2-5.7-2.28-6.83-1-5.92,0-1.69,3.77,7.09a150.61,150.61,0,0,0,19.22,34.18c19.68,26.64,49.36,46.23,81.66,52.95,6.73,1.49,12,2,15.92,2.71,3.93.33,6.53.52,8,.77,1.23.24,2.43.4,3.63.57,0-3-.06-5.7-.11-7.85,0-.48,0-1,0-1.5a134.81,134.81,0,0,1-27.49-3.73c1.82.53,2.93.93,4,1.2-2.8-.58-5.4-1.31-7.82-1.86a54,54,0,0,1-7.61-2.22,61.35,61.35,0,0,1-6.41-1.49c-1.91-.29-9.08-3.74-12.05-5.17-11.15-6.14-21.5-12.91-30.2-21.42a124.65,124.65,0,0,1-22.89-28.28c-3.37-5-5.93-11.29-8.21-15.91a144.37,144.37,0,0,1-9.7-40.41,117.27,117.27,0,0,1-.19-17.17h-2.77c-.13,2.47-.25,4.94-.29,7.45,0,2-.08,6.38-.22,8.83-.06,1.14-.3-.17-.54-2.6a93,93,0,0,1-.64-13.68H106.8q-18.39,0-36.78,0c-1.32,0-2.62,0-3.92,0A101.91,101.91,0,0,0,66.26,265c.06,10,2,19.86,3.5,29.73l3.75,14.5c1,4.9,3.28,9.42,4.83,14.16,7.21,18.56,16.86,36.31,29.5,51.73,2.54,3.49,5.71,6.45,8.51,9.71a88.35,88.35,0,0,0,9,9.21l9.5,8.7,10.28,7.74c1.73,1.26,3.37,2.66,5.18,3.81l5.5,3.35c3.7,2.16,7.23,4.65,11.06,6.58C174.61,427.87,182.2,432,190.45,434.61ZM241,378.83c-17.79-1.64-39.37-10.47-29.68-6a86,86,0,0,0,13.25,4.86,110.1,110.1,0,0,0,15.74,3.63c1.33.43,6.49.65,9.91.79l-1.27-.41c1.38.13,2.68.19,4,.25,0-.78,0-1.59,0-2.39C248.88,379.45,244.9,379.23,241,378.83Zm13.47,80c0-.77,0-1.55,0-2.32-3.06-.09-6.11-.39-9.16-.45-4.56-.34-9.16-.15-13.63-1.05-28.86-2.71-63.58-17.41-47.79-10.52l9.87,4c3.55,1.48,7.57,2.28,11.6,3.52,4.09,1,8.2,2.6,12.53,3.24l12.87,2.25c2.15.65,10.44,1,15.92,1.27l-2.05-.45C248,458.45,251.24,458.71,254.43,458.83Zm145.2-72.74L398,387.56c-1.95,2.09-3.73,4.36-5.81,6.33l-6.32,5.78c-6.82,6.72-14.77,11.93-22.44,17.62l-10.31,6.23c-1.73,1-3.42,2.13-5.18,3.09l-5.44,2.6-10.82,5.21-11.13,4.1-6.84,2.68-6.49,1.91,5.12-1.13C345.62,431.42,376.49,412.39,399.63,386.09ZM459.36,254c-.14-1.34-.31-3.34-.5-6.1l-.07-1.18c-2.76,0-5.4,0-7.9,0,0,3-.16,3.3-.4,1.48-.08-.39-.14-.9-.2-1.48l-3.12,0v.51c-5.69.06-11.07.06-16.44.06h-22V248l2.61.06c3,.06,5.86.12,6.52.19,1.16.13,2.87.13,6.62.14h.95c4.37,0,10,.08,11.48.16.67,0,1.17.06,1.41.45l2,0V251l-15.41,0-1.28-.21-6.66.06c-4.41,0-8.61.07-12.86.09-4.49,0-9.13,0-14.15-.06l-3.44,0V251l-2.77,0c-.11.7-.22,1.47-.32,2.28h4.7c10.39,0,15,0,17,.18,4,.31,9,.72,13.09,1.14l.9.09,0,.92c0,1,0,1-7,1.12-6.62.11-13.76.14-21,.14l-13.27,0a34.9,34.9,0,0,0,.05-3.55h4.62c-.07-.66-.14-1.34-.21-2.26l-5.23.09a55.22,55.22,0,0,0-1.81-10.79h6.09a128.82,128.82,0,0,0-2.89-15.4,125.06,125.06,0,0,0-20.17-43.4c-5.77-8.62-14.37-16.71-20.76-22.56a132.58,132.58,0,0,0-33.27-20.72,120.49,120.49,0,0,0-34.5-8.75c0,.86,0,1.71,0,2.56,4.57.81,8.94,1.43,12.51,2.29l8.49,2.52c2,.49,5,1.95,8,3a126,126,0,0,1,37.5,21.86c20.15,17.22,28,36.18,24,30.4-1.44-1.85-.38.69,1.87,5.05,1.11,2.19,2.11,5.05,3.44,8a81.94,81.94,0,0,1,3.57,9.2,92.93,92.93,0,0,1,5.66,24c.55,4.62.46,6.34.19,7.13-.16.59-.54-2.43-.55.27,0,5.89-.19,7.19-.5,5.48s-.4-6.46-1.76-12.55l.57,5.42c0,1.72,0,3.37,0,5-.18-5.91-1.54-11.17-2.61-17.55l-2.85-10.85L363.95,212c-7.12-16.46-20-34.88-36.47-47.4a115.33,115.33,0,0,0-36.26-19.49c.63.64,4.5,2.5,3.71,2.57-.82.29-6-2.61-24.8-5.26l3.5,1.4c-13.18-1.94-27.57-1.51-36,.55A128.21,128.21,0,0,0,203.34,156c-5.21,2.76-7,3.64-10.41,5.32l.85-.74c-9.44,6.21-19.84,16.05-24.55,22.18-5.58,7.3-12.41,17.3-17.29,28.94a126.71,126.71,0,0,0-8.84,36.05,84.27,84.27,0,0,0-.22,13.64c0,6,1.21,11.84,2.08,17.73,1.51,5.76,2.82,11.57,5.13,17.08A113.35,113.35,0,0,0,167.66,327c13,15.87,29.79,28.67,49.22,35.58,16.26,6.1,35.26,8.38,51.42,6.24a118.2,118.2,0,0,0,67.21-32c1.65-1.52,4.12-4.46,5-5.46,9.74-12.34,12.57-16.16,17.28-25a26.23,26.23,0,0,1,3.48-5.65c.56-.7-.64,2.26.21.92,1.93-3.4,6.34-14.51,5.71-11.72-.47,3.69,1.61-3.5,3.5-9.61l-2.13,8.93c-.66,3-2,6-3.19,9.73,3.77-9.3,4.2-11.25,5.19-13.62.47-1.2,1-2.53,1.75-5.07.55-2.58,1.25-6.41,2.17-12.54L373.44,276c2-6.56,2.88-12.75,4-20-.11,17.83-3.38,29.9-7.47,41.6.27.11,1.79-3,.6.92a51.69,51.69,0,0,1-3.49,9.18,78.56,78.56,0,0,1-5.61,10.78L358.1,324c-1.2,1.81-2.6,3.49-3.88,5.23s-2.55,3.43-3.85,5l-4.05,4.4c-4.1,4.87-8.51,8.2-11.79,11.43l-8.75,6.95a107.08,107.08,0,0,1-20.22,11.68c-4.59,2-9.35,3.7-14.11,5.29v.15a123.73,123.73,0,0,0,40.3-20.6L325.93,358c-2,1.42-4.07,2.55-6.07,3.82a96.21,96.21,0,0,1-12.43,6.62,117.2,117.2,0,0,1-32.62,9.71,101.17,101.17,0,0,1-11.71,1.23c0,.77,0,1.59,0,2.49,2.46-.12,5-.27,7.91-.48-3.28.4-5.82.62-7.91.77,0,.67,0,1.37,0,2.11,1.52,0,3.35,0,5.64-.1,3.33-.33,7.62-1,11.31-1.42s6.65-1.41,7.52-1.44a57,57,0,0,0,13.35-3.81l5.7-2.07,5.6-2.62c3.58-1.64,6.62-3,7.78-3.77,3.07-1.61.55.27.39.76l5.44-3.15-7.22,4.41-6.56,3.2a84.22,84.22,0,0,1-11.63,4.87l-2.19.39c-12.12,4.12-23.45,6.56-35.12,7,0,.81,0,1.6,0,2.43v8.11c1.81.12,3.56.25,5.18.42.66.06-2,.33-5.18.6V441c0,1.61,0,3.19.06,4.78l0,.44c4.55-.18,9.06-.48,13.41-1a195.6,195.6,0,0,0,112.74-53.63c2.75-2.55,6.91-7.47,8.46-9.14a131.52,131.52,0,0,0,10.44-13.11c2.77-3.81,5.42-6.82,7.23-10,3.78-6.31,7.73-11.17,11.12-18.87a72,72,0,0,1,5.4-9.64c.81-1.23-1.32,3.67,0,1.38,3-5.8,10-24.38,8.69-19.82-1.09,6,2.25-5.94,5.17-16.11l-3.63,14.75c-1.13,5-3.36,9.92-5.38,16.05,6.13-15.41,6.63-18.69,8.07-22.65.67-2,1.4-4.22,2.61-8.41.84-4.27,1.93-10.57,3.4-20.67-.79,6.63-1.93,13.87-1.85,13.58,1-5.47,2.72-10.66,3.2-16.07l1.85-15.82H451c-5.18,0-10.36,0-15.49,0H427l-5.76-.1,0-1.92ZM290.06,368.49c20.12-6.44,38.76-18,52.71-33.9l-1,.83a63.76,63.76,0,0,1-7.3,7.34c-4.12,4.07-8.94,7.18-13.57,10.62-4.22,2.35-8.15,5.31-12.65,7.18l-6.53,3.15L295,366.19c-1.54.57-2.85,1.12-4.11,1.68L287,369.1Z"/></svg>